<?xml version="1.0" encoding="UTF-8" standalone="no"?><svg xmlns="http://www.w3.org/2000/svg" xmlns:xlink="http://www.w3.org/1999/xlink" contentScriptType="application/ecmascript" contentStyleType="text/css" height="205px" preserveAspectRatio="none" style="width:211px;height:205px;background:#FFFFFF;" version="1.1" viewBox="0 0 211 205" width="211px" zoomAndPan="magnify"><defs><filter height="300%" id="f11s2chiztuyk2" width="300%" x="-1" y="-1"><feGaussianBlur result="blurOut" stdDeviation="2.0"/><feColorMatrix in="blurOut" result="blurOut2" type="matrix" values="0 0 0 0 0 0 0 0 0 0 0 0 0 0 0 0 0 0 .4 0"/><feOffset dx="4.0" dy="4.0" in="blurOut2" result="blurOut3"/><feBlend in="SourceGraphic" in2="blurOut3" mode="normal"/></filter></defs><g><!--MD5=[8c3c4742037a1c2996560502d672c845]
class nz.ac.wgtn.swen225.lc.domain.Board--><a href="Board.html" target="_top" title="Board.html" xlink:actuate="onRequest" xlink:href="Board.html" xlink:show="new" xlink:title="Board.html" xlink:type="simple"><rect codeLine="5" fill="#FEFECE" filter="url(#f11s2chiztuyk2)" height="172.7109" id="nz.ac.wgtn.swen225.lc.domain.Board" style="stroke:#A80036;stroke-width:1.5;" width="190" x="7" y="7"/><ellipse cx="27.4" cy="27.0938" fill="#ADD1B2" rx="11" ry="11" style="stroke:#A80036;stroke-width:1.0;"/><path d="M30.1656,22.9688 Q30.3219,22.75 30.5094,22.6406 Q30.6969,22.5313 30.9156,22.5313 Q31.2906,22.5313 31.525,22.7969 Q31.7594,23.0469 31.7594,23.6563 L31.7594,25.1094 Q31.7594,25.7188 31.525,25.9844 Q31.2906,26.25 30.9156,26.25 Q30.5719,26.25 30.3688,26.0469 Q30.1656,25.8594 30.0563,25.3438 Q30.0094,24.9844 29.8219,24.7969 Q29.4938,24.4219 28.8844,24.2031 Q28.275,23.9844 27.65,23.9844 Q26.8844,23.9844 26.2438,24.3125 Q25.6188,24.6406 25.1188,25.3906 Q24.6344,26.1406 24.6344,27.1719 L24.6344,28.2656 Q24.6344,29.5 25.525,30.3281 Q26.4156,31.1406 28.0094,31.1406 Q28.9469,31.1406 29.6031,30.8906 Q29.9938,30.7344 30.4156,30.2969 Q30.6813,30.0313 30.8219,29.9531 Q30.9781,29.875 31.1813,29.875 Q31.5094,29.875 31.7594,30.1406 Q32.025,30.3906 32.025,30.7344 Q32.025,31.0781 31.6813,31.4844 Q31.1813,32.0625 30.3844,32.3906 Q29.3063,32.8438 28.0094,32.8438 Q26.4938,32.8438 25.2906,32.2188 Q24.3063,31.7188 23.6188,30.6563 Q22.9313,29.5781 22.9313,28.2969 L22.9313,27.1406 Q22.9313,25.8125 23.5406,24.6719 Q24.1656,23.5156 25.2594,22.9063 Q26.3531,22.2813 27.5875,22.2813 Q28.3219,22.2813 28.9625,22.4531 Q29.6188,22.6094 30.1656,22.9688 Z " fill="#000000"/><text fill="#000000" font-family="sans-serif" font-size="14" lengthAdjust="spacing" textLength="38" x="96.6" y="26.5332">Board</text><text fill="#000000" font-family="sans-serif" font-size="10" lengthAdjust="spacing" textLength="146" x="42.6" y="39.9902">nz.ac.wgtn.swen225.lc.domain</text><line style="stroke:#A80036;stroke-width:1.5;" x1="8" x2="196" y1="47.1875" y2="47.1875"/><ellipse cx="18" cy="58.1875" fill="#84BE84" rx="3" ry="3" style="stroke:#038048;stroke-width:1.0;"/><text fill="#000000" font-family="sans-serif" font-size="11" lengthAdjust="spacing" textLength="53" x="27" y="62.6064">Board(File)</text><polygon fill="#FFFF44" points="18,67.0234,22,71.0234,18,75.0234,14,71.0234" style="stroke:#B38D22;stroke-width:1.0;"/><text fill="#000000" font-family="sans-serif" font-size="11" lengthAdjust="spacing" textLength="93" x="27" y="76.4424">resetTile(Tile): Free</text><ellipse cx="18" cy="85.8594" fill="#84BE84" rx="3" ry="3" style="stroke:#038048;stroke-width:1.0;"/><text fill="#000000" font-family="sans-serif" font-size="11" lengthAdjust="spacing" textLength="164" x="27" y="90.2783">getAutoActors(): List&lt;AutoActor&gt;</text><ellipse cx="18" cy="99.6953" fill="#84BE84" rx="3" ry="3" style="stroke:#038048;stroke-width:1.0;"/><text fill="#000000" font-family="sans-serif" font-size="11" lengthAdjust="spacing" textLength="89" x="27" y="104.1143">getTile(int, int): Tile</text><ellipse cx="18" cy="113.5313" fill="#84BE84" rx="3" ry="3" style="stroke:#038048;stroke-width:1.0;"/><text fill="#000000" font-family="sans-serif" font-size="11" lengthAdjust="spacing" textLength="73" x="27" y="117.9502">getTiles(): Tile[]</text><ellipse cx="18" cy="127.3672" fill="#84BE84" rx="3" ry="3" style="stroke:#038048;stroke-width:1.0;"/><text fill="#000000" font-family="sans-serif" font-size="11" lengthAdjust="spacing" textLength="79" x="27" y="131.7861">getChap(): Chap</text><ellipse cx="18" cy="141.2031" fill="#84BE84" rx="3" ry="3" style="stroke:#038048;stroke-width:1.0;"/><text fill="#000000" font-family="sans-serif" font-size="11" lengthAdjust="spacing" textLength="66" x="27" y="145.6221">getLevel(): int</text><ellipse cx="18" cy="155.0391" fill="#84BE84" rx="3" ry="3" style="stroke:#038048;stroke-width:1.0;"/><text fill="#000000" font-family="sans-serif" font-size="11" lengthAdjust="spacing" textLength="62" x="27" y="159.458">getTime(): int</text><ellipse cx="18" cy="168.875" fill="#84BE84" rx="3" ry="3" style="stroke:#038048;stroke-width:1.0;"/><text fill="#000000" font-family="sans-serif" font-size="11" lengthAdjust="spacing" textLength="141" x="27" y="173.2939">getBoardTreasureCount(): int</text></a><text fill="#888888" font-family="sans-serif" font-size="10" lengthAdjust="spacing" textLength="184" x="10" y="197.0918">UMLDoclet 2.0.14, PlantUML 1.2021.9</text><!--MD5=[30fa016e0357e999d512598858d8cb9f]
@startuml
    set namespaceSeparator none
    hide empty fields
    hide empty methods

    class "<size:14>Board\n<size:10>nz.ac.wgtn.swen225.lc.domain" as nz.ac.wgtn.swen225.lc.domain.Board [[Board.html]] {
        +Board(File)
        #resetTile(Tile): Free
        +getAutoActors(): List<AutoActor>
        +getTile(int, int): Tile
        +getTiles(): Tile[]
        +getChap(): Chap
        +getLevel(): int
        +getTime(): int
        +getBoardTreasureCount(): int
    }

    center footer UMLDoclet 2.0.14, PlantUML 1.2021.9
@enduml

PlantUML version 1.2021.9(Sun Jul 25 17:13:56 ICT 2021)
(APACHE source distribution)
Java Runtime: OpenJDK Runtime Environment
JVM: OpenJDK 64-Bit Server VM
Default Encoding: Cp1252
Language: en
Country: NZ
--></g></svg>