<?xml version="1.0" encoding="UTF-8" standalone="no"?><svg xmlns="http://www.w3.org/2000/svg" xmlns:xlink="http://www.w3.org/1999/xlink" contentScriptType="application/ecmascript" contentStyleType="text/css" height="409px" preserveAspectRatio="none" style="width:412px;height:409px;background:#FFFFFF;" version="1.1" viewBox="0 0 412 409" width="412px" zoomAndPan="magnify"><defs><filter height="300%" id="fgnxpzf4dcjki" width="300%" x="-1" y="-1"><feGaussianBlur result="blurOut" stdDeviation="2.0"/><feColorMatrix in="blurOut" result="blurOut2" type="matrix" values="0 0 0 0 0 0 0 0 0 0 0 0 0 0 0 0 0 0 .4 0"/><feOffset dx="4.0" dy="4.0" in="blurOut2" result="blurOut3"/><feBlend in="SourceGraphic" in2="blurOut3" mode="normal"/></filter></defs><g><!--MD5=[a432de8e576bd65c39c91dcbb783f2e6]
class nz.ac.wgtn.swen225.lc.domain.Chap--><a href="Chap.html" target="_top" title="Chap.html" xlink:actuate="onRequest" xlink:href="Chap.html" xlink:show="new" xlink:title="Chap.html" xlink:type="simple"><rect codeLine="5" fill="#FEFECE" filter="url(#fgnxpzf4dcjki)" height="269.5625" id="nz.ac.wgtn.swen225.lc.domain.Chap" style="stroke:#A80036;stroke-width:1.5;" width="178" x="113" y="7"/><ellipse cx="128" cy="27.0938" fill="#ADD1B2" rx="11" ry="11" style="stroke:#A80036;stroke-width:1.0;"/><path d="M130.7656,22.9688 Q130.9219,22.75 131.1094,22.6406 Q131.2969,22.5313 131.5156,22.5313 Q131.8906,22.5313 132.125,22.7969 Q132.3594,23.0469 132.3594,23.6563 L132.3594,25.1094 Q132.3594,25.7188 132.125,25.9844 Q131.8906,26.25 131.5156,26.25 Q131.1719,26.25 130.9688,26.0469 Q130.7656,25.8594 130.6563,25.3438 Q130.6094,24.9844 130.4219,24.7969 Q130.0938,24.4219 129.4844,24.2031 Q128.875,23.9844 128.25,23.9844 Q127.4844,23.9844 126.8438,24.3125 Q126.2188,24.6406 125.7188,25.3906 Q125.2344,26.1406 125.2344,27.1719 L125.2344,28.2656 Q125.2344,29.5 126.125,30.3281 Q127.0156,31.1406 128.6094,31.1406 Q129.5469,31.1406 130.2031,30.8906 Q130.5938,30.7344 131.0156,30.2969 Q131.2813,30.0313 131.4219,29.9531 Q131.5781,29.875 131.7813,29.875 Q132.1094,29.875 132.3594,30.1406 Q132.625,30.3906 132.625,30.7344 Q132.625,31.0781 132.2813,31.4844 Q131.7813,32.0625 130.9844,32.3906 Q129.9063,32.8438 128.6094,32.8438 Q127.0938,32.8438 125.8906,32.2188 Q124.9063,31.7188 124.2188,30.6563 Q123.5313,29.5781 123.5313,28.2969 L123.5313,27.1406 Q123.5313,25.8125 124.1406,24.6719 Q124.7656,23.5156 125.8594,22.9063 Q126.9531,22.2813 128.1875,22.2813 Q128.9219,22.2813 129.5625,22.4531 Q130.2188,22.6094 130.7656,22.9688 Z " fill="#000000"/><text fill="#000000" font-family="sans-serif" font-size="14" lengthAdjust="spacing" textLength="34" x="198" y="26.5332">Chap</text><text fill="#000000" font-family="sans-serif" font-size="10" lengthAdjust="spacing" textLength="146" x="142" y="39.9902">nz.ac.wgtn.swen225.lc.domain</text><line style="stroke:#A80036;stroke-width:1.5;" x1="114" x2="290" y1="47.1875" y2="47.1875"/><ellipse cx="124" cy="58.1875" fill="#84BE84" rx="3" ry="3" style="stroke:#038048;stroke-width:1.0;"/><text fill="#000000" font-family="sans-serif" font-size="11" lengthAdjust="spacing" textLength="107" x="133" y="62.6064">Chap(Board, Free, int)</text><ellipse cx="124" cy="72.0234" fill="#84BE84" rx="3" ry="3" style="stroke:#038048;stroke-width:1.0;"/><text fill="#000000" font-family="sans-serif" font-size="11" lengthAdjust="spacing" textLength="98" x="133" y="76.4424">move(Direction): Tile</text><ellipse cx="124" cy="85.8594" fill="#84BE84" rx="3" ry="3" style="stroke:#038048;stroke-width:1.0;"/><text fill="#000000" font-family="sans-serif" font-size="11" lengthAdjust="spacing" textLength="108" x="133" y="90.2783">addItem(Item): boolean</text><ellipse cx="124" cy="99.6953" fill="#84BE84" rx="3" ry="3" style="stroke:#038048;stroke-width:1.0;"/><text fill="#000000" font-family="sans-serif" font-size="11" lengthAdjust="spacing" textLength="126" x="133" y="104.1143">removeItem(Item): boolean</text><ellipse cx="124" cy="113.5313" fill="#84BE84" rx="3" ry="3" style="stroke:#038048;stroke-width:1.0;"/><text fill="#000000" font-family="sans-serif" font-size="11" lengthAdjust="spacing" textLength="108" x="133" y="117.9502">hasItem(Item): boolean</text><ellipse cx="124" cy="127.3672" fill="#84BE84" rx="3" ry="3" style="stroke:#038048;stroke-width:1.0;"/><text fill="#000000" font-family="sans-serif" font-size="11" lengthAdjust="spacing" textLength="119" x="133" y="131.7861">canUnlockExit(): boolean</text><ellipse cx="124" cy="141.2031" fill="#84BE84" rx="3" ry="3" style="stroke:#038048;stroke-width:1.0;"/><text fill="#000000" font-family="sans-serif" font-size="11" lengthAdjust="spacing" textLength="99" x="133" y="145.6221">setState(State): void</text><ellipse cx="124" cy="155.0391" fill="#84BE84" rx="3" ry="3" style="stroke:#038048;stroke-width:1.0;"/><text fill="#000000" font-family="sans-serif" font-size="11" lengthAdjust="spacing" textLength="79" x="133" y="159.458">getState(): State</text><ellipse cx="124" cy="168.875" fill="#84BE84" rx="3" ry="3" style="stroke:#038048;stroke-width:1.0;"/><text fill="#000000" font-family="sans-serif" font-size="11" lengthAdjust="spacing" textLength="96" x="133" y="173.2939">addTreasure(): void</text><ellipse cx="124" cy="182.7109" fill="#84BE84" rx="3" ry="3" style="stroke:#038048;stroke-width:1.0;"/><text fill="#000000" font-family="sans-serif" font-size="11" lengthAdjust="spacing" textLength="67" x="133" y="187.1299">getTile(): Free</text><ellipse cx="124" cy="196.5469" fill="#84BE84" rx="3" ry="3" style="stroke:#038048;stroke-width:1.0;"/><text fill="#000000" font-family="sans-serif" font-size="11" lengthAdjust="spacing" textLength="47" x="133" y="200.9658">getX(): int</text><ellipse cx="124" cy="210.3828" fill="#84BE84" rx="3" ry="3" style="stroke:#038048;stroke-width:1.0;"/><text fill="#000000" font-family="sans-serif" font-size="11" lengthAdjust="spacing" textLength="48" x="133" y="214.8018">getY(): int</text><ellipse cx="124" cy="224.2188" fill="#84BE84" rx="3" ry="3" style="stroke:#038048;stroke-width:1.0;"/><text fill="#000000" font-family="sans-serif" font-size="11" lengthAdjust="spacing" textLength="99" x="133" y="228.6377">getInventory(): Item[]</text><ellipse cx="124" cy="238.0547" fill="#84BE84" rx="3" ry="3" style="stroke:#038048;stroke-width:1.0;"/><text fill="#000000" font-family="sans-serif" font-size="11" lengthAdjust="spacing" textLength="119" x="133" y="242.4736">setInventory(Item[]): void</text><ellipse cx="124" cy="251.8906" fill="#84BE84" rx="3" ry="3" style="stroke:#038048;stroke-width:1.0;"/><text fill="#000000" font-family="sans-serif" font-size="11" lengthAdjust="spacing" textLength="142" x="133" y="256.3096">getPlayerTreasureCount(): int</text><ellipse cx="124" cy="265.7266" fill="#84BE84" rx="3" ry="3" style="stroke:#038048;stroke-width:1.0;"/><text fill="#000000" font-family="sans-serif" font-size="11" lengthAdjust="spacing" textLength="87" x="133" y="270.1455">getBoard(): Board</text></a><!--MD5=[88e60c564a3b2c176a47d4f878f8db1c]
class nz.ac.wgtn.swen225.lc.domain.Chap.State--><a href="Chap.State.html" target="_top" title="Chap.State.html" xlink:actuate="onRequest" xlink:href="Chap.State.html" xlink:show="new" xlink:title="Chap.State.html" xlink:type="simple"><rect codeLine="23" fill="#FEFECE" filter="url(#fgnxpzf4dcjki)" height="40.1875" id="nz.ac.wgtn.swen225.lc.domain.Chap.State" style="stroke:#A80036;stroke-width:1.5;" width="178" x="7" y="337"/><ellipse cx="22" cy="357.0938" fill="#EB937F" rx="11" ry="11" style="stroke:#A80036;stroke-width:1.0;"/><path d="M20.8594,357.8906 L20.8594,360.3906 L25.1875,360.3906 L25.1875,359.4688 Q25.1875,358.8594 25.4219,358.5938 Q25.6719,358.3281 26.0469,358.3281 Q26.4219,358.3281 26.6563,358.5938 Q26.8906,358.8594 26.8906,359.4688 L26.8906,362.0938 L18.8906,362.0938 Q18.2656,362.0938 18,361.8594 Q17.75,361.625 17.75,361.2344 Q17.75,360.8594 18.0156,360.625 Q18.2813,360.3906 18.8906,360.3906 L19.1563,360.3906 L19.1563,353.7344 L18.8906,353.7344 Q18.2656,353.7344 18,353.5 Q17.75,353.2656 17.75,352.875 Q17.75,352.5 18,352.2656 Q18.2656,352.0313 18.8906,352.0313 L26.5156,352.0313 L26.5156,354.625 Q26.5156,355.2344 26.2813,355.5 Q26.0625,355.75 25.6719,355.75 Q25.2969,355.75 25.0625,355.5 Q24.8281,355.2344 24.8281,354.625 L24.8281,353.7344 L20.8594,353.7344 L20.8594,356.1875 L22.3438,356.1875 Q22.3438,355.5313 22.4688,355.3438 Q22.7344,354.9375 23.2031,354.9375 Q23.5781,354.9375 23.8125,355.2031 Q24.0469,355.4531 24.0469,356.0625 L24.0469,358.0313 Q24.0469,358.5781 23.9219,358.7656 Q23.6563,359.1563 23.2031,359.1563 Q22.7344,359.1563 22.4688,358.75 Q22.3438,358.5625 22.3438,357.8906 L20.8594,357.8906 Z " fill="#000000"/><text fill="#000000" font-family="sans-serif" font-size="14" lengthAdjust="spacing" textLength="71" x="73.5" y="356.5332">Chap.State</text><text fill="#000000" font-family="sans-serif" font-size="10" lengthAdjust="spacing" textLength="146" x="36" y="369.9902">nz.ac.wgtn.swen225.lc.domain</text></a><!--MD5=[2705da881d125b32fc41d8eb57393c2c]
class nz.ac.wgtn.swen225.lc.domain.Chap.Direction--><a href="Chap.Direction.html" target="_top" title="Chap.Direction.html" xlink:actuate="onRequest" xlink:href="Chap.Direction.html" xlink:show="new" xlink:title="Chap.Direction.html" xlink:type="simple"><rect codeLine="24" fill="#FEFECE" filter="url(#fgnxpzf4dcjki)" height="40.1875" id="nz.ac.wgtn.swen225.lc.domain.Chap.Direction" style="stroke:#A80036;stroke-width:1.5;" width="178" x="220" y="337"/><ellipse cx="235" cy="357.0938" fill="#EB937F" rx="11" ry="11" style="stroke:#A80036;stroke-width:1.0;"/><path d="M233.8594,357.8906 L233.8594,360.3906 L238.1875,360.3906 L238.1875,359.4688 Q238.1875,358.8594 238.4219,358.5938 Q238.6719,358.3281 239.0469,358.3281 Q239.4219,358.3281 239.6563,358.5938 Q239.8906,358.8594 239.8906,359.4688 L239.8906,362.0938 L231.8906,362.0938 Q231.2656,362.0938 231,361.8594 Q230.75,361.625 230.75,361.2344 Q230.75,360.8594 231.0156,360.625 Q231.2813,360.3906 231.8906,360.3906 L232.1563,360.3906 L232.1563,353.7344 L231.8906,353.7344 Q231.2656,353.7344 231,353.5 Q230.75,353.2656 230.75,352.875 Q230.75,352.5 231,352.2656 Q231.2656,352.0313 231.8906,352.0313 L239.5156,352.0313 L239.5156,354.625 Q239.5156,355.2344 239.2813,355.5 Q239.0625,355.75 238.6719,355.75 Q238.2969,355.75 238.0625,355.5 Q237.8281,355.2344 237.8281,354.625 L237.8281,353.7344 L233.8594,353.7344 L233.8594,356.1875 L235.3438,356.1875 Q235.3438,355.5313 235.4688,355.3438 Q235.7344,354.9375 236.2031,354.9375 Q236.5781,354.9375 236.8125,355.2031 Q237.0469,355.4531 237.0469,356.0625 L237.0469,358.0313 Q237.0469,358.5781 236.9219,358.7656 Q236.6563,359.1563 236.2031,359.1563 Q235.7344,359.1563 235.4688,358.75 Q235.3438,358.5625 235.3438,357.8906 L233.8594,357.8906 Z " fill="#000000"/><text fill="#000000" font-family="sans-serif" font-size="14" lengthAdjust="spacing" textLength="94" x="275" y="356.5332">Chap.Direction</text><text fill="#000000" font-family="sans-serif" font-size="10" lengthAdjust="spacing" textLength="146" x="249" y="369.9902">nz.ac.wgtn.swen225.lc.domain</text></a><!--MD5=[cf5c7bbb261f1216b4d1ddcb1cd1453f]
reverse link nz.ac.wgtn.swen225.lc.domain.Chap to nz.ac.wgtn.swen225.lc.domain.Chap.State--><path codeLine="26" d="M128.47,290.76 C119.46,308.85 111.39,325.07 105.55,336.8 " fill="none" id="nz.ac.wgtn.swen225.lc.domain.Chap-backto-nz.ac.wgtn.swen225.lc.domain.Chap.State" style="stroke:#A80036;stroke-width:1.0;"/><ellipse cx="131.6045" cy="284.4515" fill="#FFFFFF" rx="8" ry="8" style="stroke:#A80036;stroke-width:1.0;"/><line style="stroke:#A80036;stroke-width:1.0;" x1="128.039" x2="135.17" y1="291.613" y2="277.29"/><line style="stroke:#A80036;stroke-width:1.0;" x1="124.443" x2="138.766" y1="280.886" y2="288.017"/><!--MD5=[91655e24f052e3ab3887863afb67f7ed]
reverse link nz.ac.wgtn.swen225.lc.domain.Chap to nz.ac.wgtn.swen225.lc.domain.Chap.Direction--><path codeLine="27" d="M276.23,290.76 C285.32,308.85 293.46,325.07 299.36,336.8 " fill="none" id="nz.ac.wgtn.swen225.lc.domain.Chap-backto-nz.ac.wgtn.swen225.lc.domain.Chap.Direction" style="stroke:#A80036;stroke-width:1.0;"/><ellipse cx="273.0468" cy="284.4408" fill="#FFFFFF" rx="8" ry="8" style="stroke:#A80036;stroke-width:1.0;"/><line style="stroke:#A80036;stroke-width:1.0;" x1="276.6337" x2="269.46" y1="291.5917" y2="277.29"/><line style="stroke:#A80036;stroke-width:1.0;" x1="265.896" x2="280.1977" y1="288.0277" y2="280.854"/><text fill="#888888" font-family="sans-serif" font-size="10" lengthAdjust="spacing" textLength="184" x="107.5" y="400.5684">UMLDoclet 2.0.14, PlantUML 1.2021.9</text><!--MD5=[c45bf08f3316ed84194a0b4f9a34af8a]
@startuml
    set namespaceSeparator none
    hide empty fields
    hide empty methods

    class "<size:14>Chap\n<size:10>nz.ac.wgtn.swen225.lc.domain" as nz.ac.wgtn.swen225.lc.domain.Chap [[Chap.html]] {
        +Chap(Board, Free, int)
        +move(Direction): Tile
        +addItem(Item): boolean
        +removeItem(Item): boolean
        +hasItem(Item): boolean
        +canUnlockExit(): boolean
        +setState(State): void
        +getState(): State
        +addTreasure(): void
        +getTile(): Free
        +getX(): int
        +getY(): int
        +getInventory(): Item[]
        +setInventory(Item[]): void
        +getPlayerTreasureCount(): int
        +getBoard(): Board
    }
    enum "<size:14>Chap.State\n<size:10>nz.ac.wgtn.swen225.lc.domain" as nz.ac.wgtn.swen225.lc.domain.Chap.State [[Chap.State.html]]
    enum "<size:14>Chap.Direction\n<size:10>nz.ac.wgtn.swen225.lc.domain" as nz.ac.wgtn.swen225.lc.domain.Chap.Direction [[Chap.Direction.html]]

    nz.ac.wgtn.swen225.lc.domain.Chap +- - nz.ac.wgtn.swen225.lc.domain.Chap.State
    nz.ac.wgtn.swen225.lc.domain.Chap +- - nz.ac.wgtn.swen225.lc.domain.Chap.Direction

    center footer UMLDoclet 2.0.14, PlantUML 1.2021.9
@enduml

PlantUML version 1.2021.9(Sun Jul 25 17:13:56 ICT 2021)
(APACHE source distribution)
Java Runtime: OpenJDK Runtime Environment
JVM: OpenJDK 64-Bit Server VM
Default Encoding: Cp1252
Language: en
Country: NZ
--></g></svg>