<?xml version="1.0" encoding="UTF-8" standalone="no"?><svg xmlns="http://www.w3.org/2000/svg" xmlns:xlink="http://www.w3.org/1999/xlink" contentStyleType="text/css" height="462px" preserveAspectRatio="none" style="width:405px;height:462px;background:#FFFFFF;" version="1.1" viewBox="0 0 405 462" width="405px" zoomAndPan="magnify"><defs/><g><!--class nz.ac.wgtn.swen225.lc.domain.Chap--><a href="Chap.html" target="_top" title="Chap.html" xlink:actuate="onRequest" xlink:href="Chap.html" xlink:show="new" xlink:title="Chap.html" xlink:type="simple"><g id="elem_nz.ac.wgtn.swen225.lc.domain.Chap"><rect codeLine="5" fill="#F1F1F1" height="329.9375" id="nz.ac.wgtn.swen225.lc.domain.Chap" rx="2.5" ry="2.5" style="stroke:#181818;stroke-width:0.5;" width="215" x="94.5" y="7"/><ellipse cx="126.15" cy="27.0938" fill="#ADD1B2" rx="11" ry="11" style="stroke:#181818;stroke-width:1.0;"/><path d="M128.9156,22.9688 Q129.0719,22.75 129.2594,22.6406 Q129.4469,22.5313 129.6656,22.5313 Q130.0406,22.5313 130.275,22.7969 Q130.5094,23.0469 130.5094,23.6563 L130.5094,25.1094 Q130.5094,25.7188 130.275,25.9844 Q130.0406,26.25 129.6656,26.25 Q129.3219,26.25 129.1188,26.0469 Q128.9156,25.8594 128.8063,25.3438 Q128.7594,24.9844 128.5719,24.7969 Q128.2438,24.4219 127.6344,24.2031 Q127.025,23.9844 126.4,23.9844 Q125.6344,23.9844 124.9938,24.3125 Q124.3688,24.6406 123.8688,25.3906 Q123.3844,26.1406 123.3844,27.1719 L123.3844,28.2656 Q123.3844,29.5 124.275,30.3281 Q125.1656,31.1406 126.7594,31.1406 Q127.6969,31.1406 128.3531,30.8906 Q128.7438,30.7344 129.1656,30.2969 Q129.4313,30.0313 129.5719,29.9531 Q129.7281,29.875 129.9313,29.875 Q130.2594,29.875 130.5094,30.1406 Q130.775,30.3906 130.775,30.7344 Q130.775,31.0781 130.4313,31.4844 Q129.9313,32.0625 129.1344,32.3906 Q128.0563,32.8438 126.7594,32.8438 Q125.2438,32.8438 124.0406,32.2188 Q123.0563,31.7188 122.3688,30.6563 Q121.6813,29.5781 121.6813,28.2969 L121.6813,27.1406 Q121.6813,25.8125 122.2906,24.6719 Q122.9156,23.5156 124.0094,22.9063 Q125.1031,22.2813 126.3375,22.2813 Q127.0719,22.2813 127.7125,22.4531 Q128.3688,22.6094 128.9156,22.9688 Z " fill="#000000"/><text fill="#000000" font-family="sans-serif" font-size="14" lengthAdjust="spacing" textLength="34" x="199.85" y="26.5332">Chap</text><text fill="#000000" font-family="sans-serif" font-size="10" lengthAdjust="spacing" textLength="146" x="143.85" y="39.9902">nz.ac.wgtn.swen225.lc.domain</text><line style="stroke:#181818;stroke-width:0.5;" x1="95.5" x2="308.5" y1="47.1875" y2="47.1875"/><ellipse cx="105.5" cy="61.4922" fill="#84BE84" rx="3" ry="3" style="stroke:#038048;stroke-width:1.0;"/><text fill="#000000" font-family="sans-serif" font-size="14" lengthAdjust="spacing" textLength="143" x="114.5" y="65.7207">Chap(Board, Free, int)</text><ellipse cx="105.5" cy="79.1016" fill="#84BE84" rx="3" ry="3" style="stroke:#038048;stroke-width:1.0;"/><text fill="#000000" font-family="sans-serif" font-size="14" lengthAdjust="spacing" textLength="131" x="114.5" y="83.3301">move(Direction): Tile</text><ellipse cx="105.5" cy="96.7109" fill="#84BE84" rx="3" ry="3" style="stroke:#038048;stroke-width:1.0;"/><text fill="#000000" font-family="sans-serif" font-size="14" lengthAdjust="spacing" textLength="145" x="114.5" y="100.9395">addItem(Item): boolean</text><ellipse cx="105.5" cy="114.3203" fill="#84BE84" rx="3" ry="3" style="stroke:#038048;stroke-width:1.0;"/><text fill="#000000" font-family="sans-serif" font-size="14" lengthAdjust="spacing" textLength="168" x="114.5" y="118.5488">removeItem(Item): boolean</text><ellipse cx="105.5" cy="131.9297" fill="#84BE84" rx="3" ry="3" style="stroke:#038048;stroke-width:1.0;"/><text fill="#000000" font-family="sans-serif" font-size="14" lengthAdjust="spacing" textLength="144" x="114.5" y="136.1582">hasItem(Item): boolean</text><ellipse cx="105.5" cy="149.5391" fill="#84BE84" rx="3" ry="3" style="stroke:#038048;stroke-width:1.0;"/><text fill="#000000" font-family="sans-serif" font-size="14" lengthAdjust="spacing" textLength="156" x="114.5" y="153.7676">canUnlockExit(): boolean</text><ellipse cx="105.5" cy="167.1484" fill="#84BE84" rx="3" ry="3" style="stroke:#038048;stroke-width:1.0;"/><text fill="#000000" font-family="sans-serif" font-size="14" lengthAdjust="spacing" textLength="129" x="114.5" y="171.377">setState(State): void</text><ellipse cx="105.5" cy="184.7578" fill="#84BE84" rx="3" ry="3" style="stroke:#038048;stroke-width:1.0;"/><text fill="#000000" font-family="sans-serif" font-size="14" lengthAdjust="spacing" textLength="104" x="114.5" y="188.9863">getState(): State</text><ellipse cx="105.5" cy="202.3672" fill="#84BE84" rx="3" ry="3" style="stroke:#038048;stroke-width:1.0;"/><text fill="#000000" font-family="sans-serif" font-size="14" lengthAdjust="spacing" textLength="126" x="114.5" y="206.5957">addTreasure(): void</text><ellipse cx="105.5" cy="219.9766" fill="#84BE84" rx="3" ry="3" style="stroke:#038048;stroke-width:1.0;"/><text fill="#000000" font-family="sans-serif" font-size="14" lengthAdjust="spacing" textLength="91" x="114.5" y="224.2051">getTile(): Free</text><ellipse cx="105.5" cy="237.5859" fill="#84BE84" rx="3" ry="3" style="stroke:#038048;stroke-width:1.0;"/><text fill="#000000" font-family="sans-serif" font-size="14" lengthAdjust="spacing" textLength="61" x="114.5" y="241.8145">getX(): int</text><ellipse cx="105.5" cy="255.1953" fill="#84BE84" rx="3" ry="3" style="stroke:#038048;stroke-width:1.0;"/><text fill="#000000" font-family="sans-serif" font-size="14" lengthAdjust="spacing" textLength="62" x="114.5" y="259.4238">getY(): int</text><ellipse cx="105.5" cy="272.8047" fill="#84BE84" rx="3" ry="3" style="stroke:#038048;stroke-width:1.0;"/><text fill="#000000" font-family="sans-serif" font-size="14" lengthAdjust="spacing" textLength="130" x="114.5" y="277.0332">getInventory(): Item[]</text><ellipse cx="105.5" cy="290.4141" fill="#84BE84" rx="3" ry="3" style="stroke:#038048;stroke-width:1.0;"/><text fill="#000000" font-family="sans-serif" font-size="14" lengthAdjust="spacing" textLength="155" x="114.5" y="294.6426">setInventory(Item[]): void</text><ellipse cx="105.5" cy="308.0234" fill="#84BE84" rx="3" ry="3" style="stroke:#038048;stroke-width:1.0;"/><text fill="#000000" font-family="sans-serif" font-size="14" lengthAdjust="spacing" textLength="189" x="114.5" y="312.252">getPlayerTreasureCount(): int</text><ellipse cx="105.5" cy="325.6328" fill="#84BE84" rx="3" ry="3" style="stroke:#038048;stroke-width:1.0;"/><text fill="#000000" font-family="sans-serif" font-size="14" lengthAdjust="spacing" textLength="114" x="114.5" y="329.8613">getBoard(): Board</text></g></a><!--class nz.ac.wgtn.swen225.lc.domain.Chap.State--><a href="Chap.State.html" target="_top" title="Chap.State.html" xlink:actuate="onRequest" xlink:href="Chap.State.html" xlink:show="new" xlink:title="Chap.State.html" xlink:type="simple"><g id="elem_nz.ac.wgtn.swen225.lc.domain.Chap.State"><rect codeLine="23" fill="#F1F1F1" height="40.1875" id="nz.ac.wgtn.swen225.lc.domain.Chap.State" rx="2.5" ry="2.5" style="stroke:#181818;stroke-width:0.5;" width="178" x="7" y="397"/><ellipse cx="22" cy="417.0938" fill="#EB937F" rx="11" ry="11" style="stroke:#181818;stroke-width:1.0;"/><path d="M20.8594,417.8906 L20.8594,420.3906 L25.1875,420.3906 L25.1875,419.4688 Q25.1875,418.8594 25.4219,418.5938 Q25.6719,418.3281 26.0469,418.3281 Q26.4219,418.3281 26.6563,418.5938 Q26.8906,418.8594 26.8906,419.4688 L26.8906,422.0938 L18.8906,422.0938 Q18.2656,422.0938 18,421.8594 Q17.75,421.625 17.75,421.2344 Q17.75,420.8594 18.0156,420.625 Q18.2813,420.3906 18.8906,420.3906 L19.1563,420.3906 L19.1563,413.7344 L18.8906,413.7344 Q18.2656,413.7344 18,413.5 Q17.75,413.2656 17.75,412.875 Q17.75,412.5 18,412.2656 Q18.2656,412.0313 18.8906,412.0313 L26.5156,412.0313 L26.5156,414.625 Q26.5156,415.2344 26.2813,415.5 Q26.0625,415.75 25.6719,415.75 Q25.2969,415.75 25.0625,415.5 Q24.8281,415.2344 24.8281,414.625 L24.8281,413.7344 L20.8594,413.7344 L20.8594,416.1875 L22.3438,416.1875 Q22.3438,415.5313 22.4688,415.3438 Q22.7344,414.9375 23.2031,414.9375 Q23.5781,414.9375 23.8125,415.2031 Q24.0469,415.4531 24.0469,416.0625 L24.0469,418.0313 Q24.0469,418.5781 23.9219,418.7656 Q23.6563,419.1563 23.2031,419.1563 Q22.7344,419.1563 22.4688,418.75 Q22.3438,418.5625 22.3438,417.8906 L20.8594,417.8906 Z " fill="#000000"/><text fill="#000000" font-family="sans-serif" font-size="14" lengthAdjust="spacing" textLength="71" x="73.5" y="416.5332">Chap.State</text><text fill="#000000" font-family="sans-serif" font-size="10" lengthAdjust="spacing" textLength="146" x="36" y="429.9902">nz.ac.wgtn.swen225.lc.domain</text></g></a><!--class nz.ac.wgtn.swen225.lc.domain.Chap.Direction--><a href="Chap.Direction.html" target="_top" title="Chap.Direction.html" xlink:actuate="onRequest" xlink:href="Chap.Direction.html" xlink:show="new" xlink:title="Chap.Direction.html" xlink:type="simple"><g id="elem_nz.ac.wgtn.swen225.lc.domain.Chap.Direction"><rect codeLine="24" fill="#F1F1F1" height="40.1875" id="nz.ac.wgtn.swen225.lc.domain.Chap.Direction" rx="2.5" ry="2.5" style="stroke:#181818;stroke-width:0.5;" width="178" x="220" y="397"/><ellipse cx="235" cy="417.0938" fill="#EB937F" rx="11" ry="11" style="stroke:#181818;stroke-width:1.0;"/><path d="M233.8594,417.8906 L233.8594,420.3906 L238.1875,420.3906 L238.1875,419.4688 Q238.1875,418.8594 238.4219,418.5938 Q238.6719,418.3281 239.0469,418.3281 Q239.4219,418.3281 239.6563,418.5938 Q239.8906,418.8594 239.8906,419.4688 L239.8906,422.0938 L231.8906,422.0938 Q231.2656,422.0938 231,421.8594 Q230.75,421.625 230.75,421.2344 Q230.75,420.8594 231.0156,420.625 Q231.2813,420.3906 231.8906,420.3906 L232.1563,420.3906 L232.1563,413.7344 L231.8906,413.7344 Q231.2656,413.7344 231,413.5 Q230.75,413.2656 230.75,412.875 Q230.75,412.5 231,412.2656 Q231.2656,412.0313 231.8906,412.0313 L239.5156,412.0313 L239.5156,414.625 Q239.5156,415.2344 239.2813,415.5 Q239.0625,415.75 238.6719,415.75 Q238.2969,415.75 238.0625,415.5 Q237.8281,415.2344 237.8281,414.625 L237.8281,413.7344 L233.8594,413.7344 L233.8594,416.1875 L235.3438,416.1875 Q235.3438,415.5313 235.4688,415.3438 Q235.7344,414.9375 236.2031,414.9375 Q236.5781,414.9375 236.8125,415.2031 Q237.0469,415.4531 237.0469,416.0625 L237.0469,418.0313 Q237.0469,418.5781 236.9219,418.7656 Q236.6563,419.1563 236.2031,419.1563 Q235.7344,419.1563 235.4688,418.75 Q235.3438,418.5625 235.3438,417.8906 L233.8594,417.8906 Z " fill="#000000"/><text fill="#000000" font-family="sans-serif" font-size="14" lengthAdjust="spacing" textLength="94" x="275" y="416.5332">Chap.Direction</text><text fill="#000000" font-family="sans-serif" font-size="10" lengthAdjust="spacing" textLength="146" x="249" y="429.9902">nz.ac.wgtn.swen225.lc.domain</text></g></a><!--reverse link nz.ac.wgtn.swen225.lc.domain.Chap to nz.ac.wgtn.swen225.lc.domain.Chap.State--><g id="link_nz.ac.wgtn.swen225.lc.domain.Chap_nz.ac.wgtn.swen225.lc.domain.Chap.State"><path codeLine="26" d="M124.34,351.04 C116.41,369.21 109.43,385.21 104.38,396.79 " fill="none" id="nz.ac.wgtn.swen225.lc.domain.Chap-backto-nz.ac.wgtn.swen225.lc.domain.Chap.State" style="stroke:#181818;stroke-width:1.0;"/><ellipse cx="127.219" cy="344.4317" fill="#FFFFFF" rx="8" ry="8" style="stroke:#181818;stroke-width:1.0;"/><line style="stroke:#181818;stroke-width:1.0;" x1="124.0181" x2="130.42" y1="351.7634" y2="337.1"/><line style="stroke:#181818;stroke-width:1.0;" x1="119.8873" x2="134.5508" y1="341.2308" y2="347.6327"/></g><!--reverse link nz.ac.wgtn.swen225.lc.domain.Chap to nz.ac.wgtn.swen225.lc.domain.Chap.Direction--><g id="link_nz.ac.wgtn.swen225.lc.domain.Chap_nz.ac.wgtn.swen225.lc.domain.Chap.Direction"><path codeLine="27" d="M280.39,351.04 C288.4,369.21 295.44,385.21 300.54,396.79 " fill="none" id="nz.ac.wgtn.swen225.lc.domain.Chap-backto-nz.ac.wgtn.swen225.lc.domain.Chap.Direction" style="stroke:#181818;stroke-width:1.0;"/><ellipse cx="277.4829" cy="344.4221" fill="#FFFFFF" rx="8" ry="8" style="stroke:#181818;stroke-width:1.0;"/><line style="stroke:#181818;stroke-width:1.0;" x1="280.7059" x2="274.26" y1="351.7441" y2="337.1"/><line style="stroke:#181818;stroke-width:1.0;" x1="270.1609" x2="284.805" y1="347.645" y2="341.1991"/></g><text fill="#888888" font-family="sans-serif" font-size="10" lengthAdjust="spacing" textLength="184" x="103.5" y="452.5684">UMLDoclet 2.1.0, PlantUML 1.2022.14</text><!--SRC=[hPHDJm8n48Rl_eg9YSaIeL6Y5s8u-9MOQ68291haCEuERcDtIje2Wl6_snQM3OZeWJtquttQwTjsjW00bXmm5cH7c5A7HcZGQGEicGuyXbnc15ICt0o6abHcDzM2NAwz7FLKeRLmU67bd5gdP-sh74SllEoUj7akC1NJDyV2JecRpNEXKf7f0YKV0bhODK24OD3lXqhahb230Np6LSDt7EJaKgF9wd1hYEeWsTKgNkW99TVIKEgavbeBkb9HXJ7BxXmLIIWyVDLQ4NB53OK0EuVaQ7Vo5Bd7IgVlDn_I9Tj6-CleE7IKnDAFc6YPLVYjn9x4nfhzhY6qOnFfZtbXim64ara3Jq7r9xKcFcyJxtX2x7DZ5c3OOt-mvhpY2xZDngF26PdIwPKUizksLBp6068ZegzO4e-BZVGIyIJsccIBa6MgnSuouNuriKgi_HfPXItDh8JIK7Jqzszpt6ZyTzzxZRZoktmVV8QGWQ7MeUezt5_hLFaNg2bEnKaTV7gmyoeSJSXOFokfVGC0]--></g></svg>