<?xml version="1.0" encoding="UTF-8" standalone="no"?><svg xmlns="http://www.w3.org/2000/svg" xmlns:xlink="http://www.w3.org/1999/xlink" contentStyleType="text/css" height="252px" preserveAspectRatio="none" style="width:195px;height:252px;background:#FFFFFF;" version="1.1" viewBox="0 0 195 252" width="195px" zoomAndPan="magnify"><defs/><g><!--class nz.ac.wgtn.swen225.lc.domain.Chap.State--><a href="Chap.State.html" target="_top" title="Chap.State.html" xlink:actuate="onRequest" xlink:href="Chap.State.html" xlink:show="new" xlink:title="Chap.State.html" xlink:type="simple"><g id="elem_nz.ac.wgtn.swen225.lc.domain.Chap.State"><rect codeLine="5" fill="#F1F1F1" height="118.625" id="nz.ac.wgtn.swen225.lc.domain.Chap.State" rx="2.5" ry="2.5" style="stroke:#181818;stroke-width:0.5;" width="178" x="10" y="107"/><ellipse cx="25" cy="127.0938" fill="#EB937F" rx="11" ry="11" style="stroke:#181818;stroke-width:1.0;"/><path d="M23.8594,127.8906 L23.8594,130.3906 L28.1875,130.3906 L28.1875,129.4688 Q28.1875,128.8594 28.4219,128.5938 Q28.6719,128.3281 29.0469,128.3281 Q29.4219,128.3281 29.6563,128.5938 Q29.8906,128.8594 29.8906,129.4688 L29.8906,132.0938 L21.8906,132.0938 Q21.2656,132.0938 21,131.8594 Q20.75,131.625 20.75,131.2344 Q20.75,130.8594 21.0156,130.625 Q21.2813,130.3906 21.8906,130.3906 L22.1563,130.3906 L22.1563,123.7344 L21.8906,123.7344 Q21.2656,123.7344 21,123.5 Q20.75,123.2656 20.75,122.875 Q20.75,122.5 21,122.2656 Q21.2656,122.0313 21.8906,122.0313 L29.5156,122.0313 L29.5156,124.625 Q29.5156,125.2344 29.2813,125.5 Q29.0625,125.75 28.6719,125.75 Q28.2969,125.75 28.0625,125.5 Q27.8281,125.2344 27.8281,124.625 L27.8281,123.7344 L23.8594,123.7344 L23.8594,126.1875 L25.3438,126.1875 Q25.3438,125.5313 25.4688,125.3438 Q25.7344,124.9375 26.2031,124.9375 Q26.5781,124.9375 26.8125,125.2031 Q27.0469,125.4531 27.0469,126.0625 L27.0469,128.0313 Q27.0469,128.5781 26.9219,128.7656 Q26.6563,129.1563 26.2031,129.1563 Q25.7344,129.1563 25.4688,128.75 Q25.3438,128.5625 25.3438,127.8906 L23.8594,127.8906 Z " fill="#000000"/><text fill="#000000" font-family="sans-serif" font-size="14" lengthAdjust="spacing" textLength="71" x="76.5" y="126.5332">Chap.State</text><text fill="#000000" font-family="sans-serif" font-size="10" lengthAdjust="spacing" textLength="146" x="39" y="139.9902">nz.ac.wgtn.swen225.lc.domain</text><line style="stroke:#181818;stroke-width:0.5;" x1="11" x2="187" y1="147.1875" y2="147.1875"/><ellipse cx="21" cy="161.4922" fill="none" rx="3" ry="3" style="stroke:#038048;stroke-width:1.0;"/><text fill="#000000" font-family="sans-serif" font-size="14" lengthAdjust="spacing" text-decoration="underline" textLength="65" x="30" y="165.7207">ONGOING</text><ellipse cx="21" cy="179.1016" fill="none" rx="3" ry="3" style="stroke:#038048;stroke-width:1.0;"/><text fill="#000000" font-family="sans-serif" font-size="14" lengthAdjust="spacing" text-decoration="underline" textLength="55" x="30" y="183.3301">PAUSED</text><ellipse cx="21" cy="196.7109" fill="none" rx="3" ry="3" style="stroke:#038048;stroke-width:1.0;"/><text fill="#000000" font-family="sans-serif" font-size="14" lengthAdjust="spacing" text-decoration="underline" textLength="86" x="30" y="200.9395">COMPLETED</text><ellipse cx="21" cy="214.3203" fill="none" rx="3" ry="3" style="stroke:#038048;stroke-width:1.0;"/><text fill="#000000" font-family="sans-serif" font-size="14" lengthAdjust="spacing" text-decoration="underline" textLength="38" x="30" y="218.5488">DEAD</text></g></a><!--class nz.ac.wgtn.swen225.lc.domain.Chap--><a href="Chap.html" target="_top" title="Chap.html" xlink:actuate="onRequest" xlink:href="Chap.html" xlink:show="new" xlink:title="Chap.html" xlink:type="simple"><g id="elem_nz.ac.wgtn.swen225.lc.domain.Chap"><rect codeLine="12" fill="#F1F1F1" height="40.1875" id="nz.ac.wgtn.swen225.lc.domain.Chap" rx="2.5" ry="2.5" style="stroke:#181818;stroke-width:0.5;" width="178" x="10" y="7"/><ellipse cx="25" cy="27.0938" fill="#ADD1B2" rx="11" ry="11" style="stroke:#181818;stroke-width:1.0;"/><path d="M27.7656,22.9688 Q27.9219,22.75 28.1094,22.6406 Q28.2969,22.5313 28.5156,22.5313 Q28.8906,22.5313 29.125,22.7969 Q29.3594,23.0469 29.3594,23.6563 L29.3594,25.1094 Q29.3594,25.7188 29.125,25.9844 Q28.8906,26.25 28.5156,26.25 Q28.1719,26.25 27.9688,26.0469 Q27.7656,25.8594 27.6563,25.3438 Q27.6094,24.9844 27.4219,24.7969 Q27.0938,24.4219 26.4844,24.2031 Q25.875,23.9844 25.25,23.9844 Q24.4844,23.9844 23.8438,24.3125 Q23.2188,24.6406 22.7188,25.3906 Q22.2344,26.1406 22.2344,27.1719 L22.2344,28.2656 Q22.2344,29.5 23.125,30.3281 Q24.0156,31.1406 25.6094,31.1406 Q26.5469,31.1406 27.2031,30.8906 Q27.5938,30.7344 28.0156,30.2969 Q28.2813,30.0313 28.4219,29.9531 Q28.5781,29.875 28.7813,29.875 Q29.1094,29.875 29.3594,30.1406 Q29.625,30.3906 29.625,30.7344 Q29.625,31.0781 29.2813,31.4844 Q28.7813,32.0625 27.9844,32.3906 Q26.9063,32.8438 25.6094,32.8438 Q24.0938,32.8438 22.8906,32.2188 Q21.9063,31.7188 21.2188,30.6563 Q20.5313,29.5781 20.5313,28.2969 L20.5313,27.1406 Q20.5313,25.8125 21.1406,24.6719 Q21.7656,23.5156 22.8594,22.9063 Q23.9531,22.2813 25.1875,22.2813 Q25.9219,22.2813 26.5625,22.4531 Q27.2188,22.6094 27.7656,22.9688 Z " fill="#000000"/><text fill="#000000" font-family="sans-serif" font-size="14" lengthAdjust="spacing" textLength="34" x="95" y="26.5332">Chap</text><text fill="#000000" font-family="sans-serif" font-size="10" lengthAdjust="spacing" textLength="146" x="39" y="39.9902">nz.ac.wgtn.swen225.lc.domain</text></g></a><!--reverse link nz.ac.wgtn.swen225.lc.domain.Chap to nz.ac.wgtn.swen225.lc.domain.Chap.State--><g id="link_nz.ac.wgtn.swen225.lc.domain.Chap_nz.ac.wgtn.swen225.lc.domain.Chap.State"><path codeLine="14" d="M99,62.16 C99,75.63 99,91.5 99,106.7 " fill="none" id="nz.ac.wgtn.swen225.lc.domain.Chap-backto-nz.ac.wgtn.swen225.lc.domain.Chap.State" style="stroke:#181818;stroke-width:1.0;"/><ellipse cx="99" cy="55.12" fill="#FFFFFF" rx="8" ry="8" style="stroke:#181818;stroke-width:1.0;"/><line style="stroke:#181818;stroke-width:1.0;" x1="99" x2="99" y1="63.12" y2="47.12"/><line style="stroke:#181818;stroke-width:1.0;" x1="91" x2="107" y1="55.12" y2="55.12"/></g><text fill="#888888" font-family="sans-serif" font-size="10" lengthAdjust="spacing" textLength="184" x="0" y="242.0059">UMLDoclet 2.1.0, PlantUML 1.2022.14</text><!--SRC=[hP9DQm8n48Rl_HM3K6Yn1btQIoc2k8iKr5tOUh8UXkpO3IIJPPDMglZV6rsB84lRGtCPyhpvc2S40C2H1qP3ha99ELLOexSri6Mw2Z6KgY0WK_bFM2lIXRkaXdnf0pvoudS3dIUdjlGuk1-EIwn4xj7JAvzWVyXRWL9itZmBjo6EeWUXfIYiGSKTG0S_BH3d8s6vF4z4wOrUhM1tRECmTYvm9VVGJUUJz7a-QKcoqI9FufPWdCwoQVBIciN9gC7xnbbgTEv2-bzrlqKRnURItpTrUxs_lkJ9WzXJ3Mjh3sKncyPMwl0x8Z4G_Jl8DB8F5Au_g7RAyitj5m00]--></g></svg>