<?xml version="1.0" encoding="UTF-8" standalone="no"?><svg xmlns="http://www.w3.org/2000/svg" xmlns:xlink="http://www.w3.org/1999/xlink" contentScriptType="application/ecmascript" contentStyleType="text/css" height="482px" preserveAspectRatio="none" style="width:243px;height:482px;background:#FFFFFF;" version="1.1" viewBox="0 0 243 482" width="243px" zoomAndPan="magnify"><defs><filter height="300%" id="f63qejc71zx5s" width="300%" x="-1" y="-1"><feGaussianBlur result="blurOut" stdDeviation="2.0"/><feColorMatrix in="blurOut" result="blurOut2" type="matrix" values="0 0 0 0 0 0 0 0 0 0 0 0 0 0 0 0 0 0 .4 0"/><feOffset dx="4.0" dy="4.0" in="blurOut2" result="blurOut3"/><feBlend in="SourceGraphic" in2="blurOut3" mode="normal"/></filter></defs><g><!--MD5=[ded18389382344912cbae1820c762940]
class nz.ac.wgtn.swen225.lc.domain.DomainTest--><a href="DomainTest.html" target="_top" title="DomainTest.html" xlink:actuate="onRequest" xlink:href="DomainTest.html" xlink:show="new" xlink:title="DomainTest.html" xlink:type="simple"><rect codeLine="5" fill="#FEFECE" filter="url(#f63qejc71zx5s)" height="449.4297" id="nz.ac.wgtn.swen225.lc.domain.DomainTest" style="stroke:#A80036;stroke-width:1.5;" width="222" x="7" y="7"/><ellipse cx="41.8" cy="27.0938" fill="#ADD1B2" rx="11" ry="11" style="stroke:#A80036;stroke-width:1.0;"/><path d="M44.5656,22.9688 Q44.7219,22.75 44.9094,22.6406 Q45.0969,22.5313 45.3156,22.5313 Q45.6906,22.5313 45.925,22.7969 Q46.1594,23.0469 46.1594,23.6563 L46.1594,25.1094 Q46.1594,25.7188 45.925,25.9844 Q45.6906,26.25 45.3156,26.25 Q44.9719,26.25 44.7688,26.0469 Q44.5656,25.8594 44.4563,25.3438 Q44.4094,24.9844 44.2219,24.7969 Q43.8938,24.4219 43.2844,24.2031 Q42.675,23.9844 42.05,23.9844 Q41.2844,23.9844 40.6438,24.3125 Q40.0188,24.6406 39.5188,25.3906 Q39.0344,26.1406 39.0344,27.1719 L39.0344,28.2656 Q39.0344,29.5 39.925,30.3281 Q40.8156,31.1406 42.4094,31.1406 Q43.3469,31.1406 44.0031,30.8906 Q44.3938,30.7344 44.8156,30.2969 Q45.0813,30.0313 45.2219,29.9531 Q45.3781,29.875 45.5813,29.875 Q45.9094,29.875 46.1594,30.1406 Q46.425,30.3906 46.425,30.7344 Q46.425,31.0781 46.0813,31.4844 Q45.5813,32.0625 44.7844,32.3906 Q43.7063,32.8438 42.4094,32.8438 Q40.8938,32.8438 39.6906,32.2188 Q38.7063,31.7188 38.0188,30.6563 Q37.3313,29.5781 37.3313,28.2969 L37.3313,27.1406 Q37.3313,25.8125 37.9406,24.6719 Q38.5656,23.5156 39.6594,22.9063 Q40.7531,22.2813 41.9875,22.2813 Q42.7219,22.2813 43.3625,22.4531 Q44.0188,22.6094 44.5656,22.9688 Z " fill="#000000"/><text fill="#000000" font-family="sans-serif" font-size="14" lengthAdjust="spacing" textLength="76" x="95.2" y="26.5332">DomainTest</text><text fill="#000000" font-family="sans-serif" font-size="10" lengthAdjust="spacing" textLength="146" x="60.2" y="39.9902">nz.ac.wgtn.swen225.lc.domain</text><line style="stroke:#A80036;stroke-width:1.5;" x1="8" x2="228" y1="47.1875" y2="47.1875"/><ellipse cx="18" cy="58.1875" fill="#84BE84" rx="3" ry="3" style="stroke:#038048;stroke-width:1.0;"/><text fill="#000000" font-family="sans-serif" font-size="11" lengthAdjust="spacing" textLength="47" x="27" y="62.6064">init(): void</text><ellipse cx="18" cy="72.0234" fill="#84BE84" rx="3" ry="3" style="stroke:#038048;stroke-width:1.0;"/><text fill="#000000" font-family="sans-serif" font-size="11" lengthAdjust="spacing" textLength="81" x="27" y="76.4424">testBoard(): void</text><ellipse cx="18" cy="85.8594" fill="#84BE84" rx="3" ry="3" style="stroke:#038048;stroke-width:1.0;"/><text fill="#000000" font-family="sans-serif" font-size="11" lengthAdjust="spacing" textLength="97" x="27" y="90.2783">testMoveLeft(): void</text><ellipse cx="18" cy="99.6953" fill="#84BE84" rx="3" ry="3" style="stroke:#038048;stroke-width:1.0;"/><text fill="#000000" font-family="sans-serif" font-size="11" lengthAdjust="spacing" textLength="123" x="27" y="104.1143">testMoveLeftIllegal(): void</text><ellipse cx="18" cy="113.5313" fill="#84BE84" rx="3" ry="3" style="stroke:#038048;stroke-width:1.0;"/><text fill="#000000" font-family="sans-serif" font-size="11" lengthAdjust="spacing" textLength="102" x="27" y="117.9502">testMoveRight(): void</text><ellipse cx="18" cy="127.3672" fill="#84BE84" rx="3" ry="3" style="stroke:#038048;stroke-width:1.0;"/><text fill="#000000" font-family="sans-serif" font-size="11" lengthAdjust="spacing" textLength="128" x="27" y="131.7861">testMoveRightIllegal(): void</text><ellipse cx="18" cy="141.2031" fill="#84BE84" rx="3" ry="3" style="stroke:#038048;stroke-width:1.0;"/><text fill="#000000" font-family="sans-serif" font-size="11" lengthAdjust="spacing" textLength="107" x="27" y="145.6221">testMoveDown(): void</text><ellipse cx="18" cy="155.0391" fill="#84BE84" rx="3" ry="3" style="stroke:#038048;stroke-width:1.0;"/><text fill="#000000" font-family="sans-serif" font-size="11" lengthAdjust="spacing" textLength="133" x="27" y="159.458">testMoveDownIllegal(): void</text><ellipse cx="18" cy="168.875" fill="#84BE84" rx="3" ry="3" style="stroke:#038048;stroke-width:1.0;"/><text fill="#000000" font-family="sans-serif" font-size="11" lengthAdjust="spacing" textLength="91" x="27" y="173.2939">testMoveUp(): void</text><ellipse cx="18" cy="182.7109" fill="#84BE84" rx="3" ry="3" style="stroke:#038048;stroke-width:1.0;"/><text fill="#000000" font-family="sans-serif" font-size="11" lengthAdjust="spacing" textLength="117" x="27" y="187.1299">testMoveUpIllegal(): void</text><ellipse cx="18" cy="196.5469" fill="#84BE84" rx="3" ry="3" style="stroke:#038048;stroke-width:1.0;"/><text fill="#000000" font-family="sans-serif" font-size="11" lengthAdjust="spacing" textLength="103" x="27" y="200.9658">testPickUpKey(): void</text><ellipse cx="18" cy="210.3828" fill="#84BE84" rx="3" ry="3" style="stroke:#038048;stroke-width:1.0;"/><text fill="#000000" font-family="sans-serif" font-size="11" lengthAdjust="spacing" textLength="120" x="27" y="214.8018">testCanOpenDoor(): void</text><ellipse cx="18" cy="224.2188" fill="#84BE84" rx="3" ry="3" style="stroke:#038048;stroke-width:1.0;"/><text fill="#000000" font-family="sans-serif" font-size="11" lengthAdjust="spacing" textLength="135" x="27" y="228.6377">testCannotOpenDoor(): void</text><ellipse cx="18" cy="238.0547" fill="#84BE84" rx="3" ry="3" style="stroke:#038048;stroke-width:1.0;"/><text fill="#000000" font-family="sans-serif" font-size="11" lengthAdjust="spacing" textLength="186" x="27" y="242.4736">testCannotOpenDoorWrongKey(): void</text><ellipse cx="18" cy="251.8906" fill="#84BE84" rx="3" ry="3" style="stroke:#038048;stroke-width:1.0;"/><text fill="#000000" font-family="sans-serif" font-size="11" lengthAdjust="spacing" textLength="128" x="27" y="256.3096">testPickUpTreasure(): void</text><ellipse cx="18" cy="265.7266" fill="#84BE84" rx="3" ry="3" style="stroke:#038048;stroke-width:1.0;"/><text fill="#000000" font-family="sans-serif" font-size="11" lengthAdjust="spacing" textLength="113" x="27" y="270.1455">testFullInventory(): void</text><ellipse cx="18" cy="279.5625" fill="#84BE84" rx="3" ry="3" style="stroke:#038048;stroke-width:1.0;"/><text fill="#000000" font-family="sans-serif" font-size="11" lengthAdjust="spacing" textLength="126" x="27" y="283.9814">testEmptyInventory(): void</text><ellipse cx="18" cy="293.3984" fill="#84BE84" rx="3" ry="3" style="stroke:#038048;stroke-width:1.0;"/><text fill="#000000" font-family="sans-serif" font-size="11" lengthAdjust="spacing" textLength="140" x="27" y="297.8174">testMoveWhilePaused(): void</text><ellipse cx="18" cy="307.2344" fill="#84BE84" rx="3" ry="3" style="stroke:#038048;stroke-width:1.0;"/><text fill="#000000" font-family="sans-serif" font-size="11" lengthAdjust="spacing" textLength="99" x="27" y="311.6533">testCloneWall(): void</text><ellipse cx="18" cy="321.0703" fill="#84BE84" rx="3" ry="3" style="stroke:#038048;stroke-width:1.0;"/><text fill="#000000" font-family="sans-serif" font-size="11" lengthAdjust="spacing" textLength="101" x="27" y="325.4893">testCloneFree(): void</text><ellipse cx="18" cy="334.9063" fill="#84BE84" rx="3" ry="3" style="stroke:#038048;stroke-width:1.0;"/><text fill="#000000" font-family="sans-serif" font-size="11" lengthAdjust="spacing" textLength="102" x="27" y="339.3252">testCloneDoor(): void</text><ellipse cx="18" cy="348.7422" fill="#84BE84" rx="3" ry="3" style="stroke:#038048;stroke-width:1.0;"/><text fill="#000000" font-family="sans-serif" font-size="11" lengthAdjust="spacing" textLength="114" x="27" y="353.1611">testCloneKeyTile(): void</text><ellipse cx="18" cy="362.5781" fill="#84BE84" rx="3" ry="3" style="stroke:#038048;stroke-width:1.0;"/><text fill="#000000" font-family="sans-serif" font-size="11" lengthAdjust="spacing" textLength="96" x="27" y="366.9971">testCloneExit(): void</text><ellipse cx="18" cy="376.4141" fill="#84BE84" rx="3" ry="3" style="stroke:#038048;stroke-width:1.0;"/><text fill="#000000" font-family="sans-serif" font-size="11" lengthAdjust="spacing" textLength="119" x="27" y="380.833">testCloneExitLock(): void</text><ellipse cx="18" cy="390.25" fill="#84BE84" rx="3" ry="3" style="stroke:#038048;stroke-width:1.0;"/><text fill="#000000" font-family="sans-serif" font-size="11" lengthAdjust="spacing" textLength="119" x="27" y="394.6689">testCloneInfoField(): void</text><ellipse cx="18" cy="404.0859" fill="#84BE84" rx="3" ry="3" style="stroke:#038048;stroke-width:1.0;"/><text fill="#000000" font-family="sans-serif" font-size="11" lengthAdjust="spacing" textLength="123" x="27" y="408.5049">testCloneTreasure(): void</text><ellipse cx="18" cy="417.9219" fill="#84BE84" rx="3" ry="3" style="stroke:#038048;stroke-width:1.0;"/><text fill="#000000" font-family="sans-serif" font-size="11" lengthAdjust="spacing" textLength="160" x="27" y="422.3408">testIllegalArgumentKeyTile(): void</text><ellipse cx="18" cy="431.7578" fill="#84BE84" rx="3" ry="3" style="stroke:#038048;stroke-width:1.0;"/><text fill="#000000" font-family="sans-serif" font-size="11" lengthAdjust="spacing" textLength="148" x="27" y="436.1768">testIllegalArgumentDoor(): void</text><ellipse cx="18" cy="445.5938" fill="#84BE84" rx="3" ry="3" style="stroke:#038048;stroke-width:1.0;"/><text fill="#000000" font-family="sans-serif" font-size="11" lengthAdjust="spacing" textLength="196" x="27" y="450.0127">testInfoFieldNotReplacedWithFree(): void</text></a><text fill="#888888" font-family="sans-serif" font-size="10" lengthAdjust="spacing" textLength="184" x="26" y="473.8105">UMLDoclet 2.0.14, PlantUML 1.2021.9</text><!--MD5=[9f1f38e5f0fa11974332c01f2ef69b1f]
@startuml
    set namespaceSeparator none
    hide empty fields
    hide empty methods

    class "<size:14>DomainTest\n<size:10>nz.ac.wgtn.swen225.lc.domain" as nz.ac.wgtn.swen225.lc.domain.DomainTest [[DomainTest.html]] {
        +init(): void
        +testBoard(): void
        +testMoveLeft(): void
        +testMoveLeftIllegal(): void
        +testMoveRight(): void
        +testMoveRightIllegal(): void
        +testMoveDown(): void
        +testMoveDownIllegal(): void
        +testMoveUp(): void
        +testMoveUpIllegal(): void
        +testPickUpKey(): void
        +testCanOpenDoor(): void
        +testCannotOpenDoor(): void
        +testCannotOpenDoorWrongKey(): void
        +testPickUpTreasure(): void
        +testFullInventory(): void
        +testEmptyInventory(): void
        +testMoveWhilePaused(): void
        +testCloneWall(): void
        +testCloneFree(): void
        +testCloneDoor(): void
        +testCloneKeyTile(): void
        +testCloneExit(): void
        +testCloneExitLock(): void
        +testCloneInfoField(): void
        +testCloneTreasure(): void
        +testIllegalArgumentKeyTile(): void
        +testIllegalArgumentDoor(): void
        +testInfoFieldNotReplacedWithFree(): void
    }

    center footer UMLDoclet 2.0.14, PlantUML 1.2021.9
@enduml

PlantUML version 1.2021.9(Sun Jul 25 17:13:56 ICT 2021)
(APACHE source distribution)
Java Runtime: OpenJDK Runtime Environment
JVM: OpenJDK 64-Bit Server VM
Default Encoding: Cp1252
Language: en
Country: NZ
--></g></svg>