<?xml version="1.0" encoding="UTF-8" standalone="no"?><svg xmlns="http://www.w3.org/2000/svg" xmlns:xlink="http://www.w3.org/1999/xlink" contentStyleType="text/css" height="593px" preserveAspectRatio="none" style="width:307px;height:593px;background:#FFFFFF;" version="1.1" viewBox="0 0 307 593" width="307px" zoomAndPan="magnify"><defs/><g><!--class nz.ac.wgtn.swen225.lc.domain.DomainTest--><a href="DomainTest.html" target="_top" title="DomainTest.html" xlink:actuate="onRequest" xlink:href="DomainTest.html" xlink:show="new" xlink:title="DomainTest.html" xlink:type="simple"><g id="elem_nz.ac.wgtn.swen225.lc.domain.DomainTest"><rect codeLine="5" fill="#F1F1F1" height="558.8594" id="nz.ac.wgtn.swen225.lc.domain.DomainTest" rx="2.5" ry="2.5" style="stroke:#181818;stroke-width:0.5;" width="286" x="7" y="7"/><ellipse cx="72.75" cy="27.0938" fill="#ADD1B2" rx="11" ry="11" style="stroke:#181818;stroke-width:1.0;"/><path d="M75.5156,22.9688 Q75.6719,22.75 75.8594,22.6406 Q76.0469,22.5313 76.2656,22.5313 Q76.6406,22.5313 76.875,22.7969 Q77.1094,23.0469 77.1094,23.6563 L77.1094,25.1094 Q77.1094,25.7188 76.875,25.9844 Q76.6406,26.25 76.2656,26.25 Q75.9219,26.25 75.7188,26.0469 Q75.5156,25.8594 75.4063,25.3438 Q75.3594,24.9844 75.1719,24.7969 Q74.8438,24.4219 74.2344,24.2031 Q73.625,23.9844 73,23.9844 Q72.2344,23.9844 71.5938,24.3125 Q70.9688,24.6406 70.4688,25.3906 Q69.9844,26.1406 69.9844,27.1719 L69.9844,28.2656 Q69.9844,29.5 70.875,30.3281 Q71.7656,31.1406 73.3594,31.1406 Q74.2969,31.1406 74.9531,30.8906 Q75.3438,30.7344 75.7656,30.2969 Q76.0313,30.0313 76.1719,29.9531 Q76.3281,29.875 76.5313,29.875 Q76.8594,29.875 77.1094,30.1406 Q77.375,30.3906 77.375,30.7344 Q77.375,31.0781 77.0313,31.4844 Q76.5313,32.0625 75.7344,32.3906 Q74.6563,32.8438 73.3594,32.8438 Q71.8438,32.8438 70.6406,32.2188 Q69.6563,31.7188 68.9688,30.6563 Q68.2813,29.5781 68.2813,28.2969 L68.2813,27.1406 Q68.2813,25.8125 68.8906,24.6719 Q69.5156,23.5156 70.6094,22.9063 Q71.7031,22.2813 72.9375,22.2813 Q73.6719,22.2813 74.3125,22.4531 Q74.9688,22.6094 75.5156,22.9688 Z " fill="#000000"/><text fill="#000000" font-family="sans-serif" font-size="14" lengthAdjust="spacing" textLength="76" x="128.25" y="26.5332">DomainTest</text><text fill="#000000" font-family="sans-serif" font-size="10" lengthAdjust="spacing" textLength="146" x="93.25" y="39.9902">nz.ac.wgtn.swen225.lc.domain</text><line style="stroke:#181818;stroke-width:0.5;" x1="8" x2="292" y1="47.1875" y2="47.1875"/><ellipse cx="18" cy="61.4922" fill="#84BE84" rx="3" ry="3" style="stroke:#038048;stroke-width:1.0;"/><text fill="#000000" font-family="sans-serif" font-size="14" lengthAdjust="spacing" textLength="62" x="27" y="65.7207">init(): void</text><ellipse cx="18" cy="79.1016" fill="#84BE84" rx="3" ry="3" style="stroke:#038048;stroke-width:1.0;"/><text fill="#000000" font-family="sans-serif" font-size="14" lengthAdjust="spacing" textLength="105" x="27" y="83.3301">testBoard(): void</text><ellipse cx="18" cy="96.7109" fill="#84BE84" rx="3" ry="3" style="stroke:#038048;stroke-width:1.0;"/><text fill="#000000" font-family="sans-serif" font-size="14" lengthAdjust="spacing" textLength="125" x="27" y="100.9395">testMoveLeft(): void</text><ellipse cx="18" cy="114.3203" fill="#84BE84" rx="3" ry="3" style="stroke:#038048;stroke-width:1.0;"/><text fill="#000000" font-family="sans-serif" font-size="14" lengthAdjust="spacing" textLength="161" x="27" y="118.5488">testMoveLeftIllegal(): void</text><ellipse cx="18" cy="131.9297" fill="#84BE84" rx="3" ry="3" style="stroke:#038048;stroke-width:1.0;"/><text fill="#000000" font-family="sans-serif" font-size="14" lengthAdjust="spacing" textLength="134" x="27" y="136.1582">testMoveRight(): void</text><ellipse cx="18" cy="149.5391" fill="#84BE84" rx="3" ry="3" style="stroke:#038048;stroke-width:1.0;"/><text fill="#000000" font-family="sans-serif" font-size="14" lengthAdjust="spacing" textLength="170" x="27" y="153.7676">testMoveRightIllegal(): void</text><ellipse cx="18" cy="167.1484" fill="#84BE84" rx="3" ry="3" style="stroke:#038048;stroke-width:1.0;"/><text fill="#000000" font-family="sans-serif" font-size="14" lengthAdjust="spacing" textLength="136" x="27" y="171.377">testMoveDown(): void</text><ellipse cx="18" cy="184.7578" fill="#84BE84" rx="3" ry="3" style="stroke:#038048;stroke-width:1.0;"/><text fill="#000000" font-family="sans-serif" font-size="14" lengthAdjust="spacing" textLength="172" x="27" y="188.9863">testMoveDownIllegal(): void</text><ellipse cx="18" cy="202.3672" fill="#84BE84" rx="3" ry="3" style="stroke:#038048;stroke-width:1.0;"/><text fill="#000000" font-family="sans-serif" font-size="14" lengthAdjust="spacing" textLength="118" x="27" y="206.5957">testMoveUp(): void</text><ellipse cx="18" cy="219.9766" fill="#84BE84" rx="3" ry="3" style="stroke:#038048;stroke-width:1.0;"/><text fill="#000000" font-family="sans-serif" font-size="14" lengthAdjust="spacing" textLength="154" x="27" y="224.2051">testMoveUpIllegal(): void</text><ellipse cx="18" cy="237.5859" fill="#84BE84" rx="3" ry="3" style="stroke:#038048;stroke-width:1.0;"/><text fill="#000000" font-family="sans-serif" font-size="14" lengthAdjust="spacing" textLength="134" x="27" y="241.8145">testPickUpKey(): void</text><ellipse cx="18" cy="255.1953" fill="#84BE84" rx="3" ry="3" style="stroke:#038048;stroke-width:1.0;"/><text fill="#000000" font-family="sans-serif" font-size="14" lengthAdjust="spacing" textLength="159" x="27" y="259.4238">testCanOpenDoor(): void</text><ellipse cx="18" cy="272.8047" fill="#84BE84" rx="3" ry="3" style="stroke:#038048;stroke-width:1.0;"/><text fill="#000000" font-family="sans-serif" font-size="14" lengthAdjust="spacing" textLength="179" x="27" y="277.0332">testCannotOpenDoor(): void</text><ellipse cx="18" cy="290.4141" fill="#84BE84" rx="3" ry="3" style="stroke:#038048;stroke-width:1.0;"/><text fill="#000000" font-family="sans-serif" font-size="14" lengthAdjust="spacing" textLength="245" x="27" y="294.6426">testCannotOpenDoorWrongKey(): void</text><ellipse cx="18" cy="308.0234" fill="#84BE84" rx="3" ry="3" style="stroke:#038048;stroke-width:1.0;"/><text fill="#000000" font-family="sans-serif" font-size="14" lengthAdjust="spacing" textLength="168" x="27" y="312.252">testPickUpTreasure(): void</text><ellipse cx="18" cy="325.6328" fill="#84BE84" rx="3" ry="3" style="stroke:#038048;stroke-width:1.0;"/><text fill="#000000" font-family="sans-serif" font-size="14" lengthAdjust="spacing" textLength="148" x="27" y="329.8613">testFullInventory(): void</text><ellipse cx="18" cy="343.2422" fill="#84BE84" rx="3" ry="3" style="stroke:#038048;stroke-width:1.0;"/><text fill="#000000" font-family="sans-serif" font-size="14" lengthAdjust="spacing" textLength="164" x="27" y="347.4707">testEmptyInventory(): void</text><ellipse cx="18" cy="360.8516" fill="#84BE84" rx="3" ry="3" style="stroke:#038048;stroke-width:1.0;"/><text fill="#000000" font-family="sans-serif" font-size="14" lengthAdjust="spacing" textLength="184" x="27" y="365.0801">testMoveWhilePaused(): void</text><ellipse cx="18" cy="378.4609" fill="#84BE84" rx="3" ry="3" style="stroke:#038048;stroke-width:1.0;"/><text fill="#000000" font-family="sans-serif" font-size="14" lengthAdjust="spacing" textLength="131" x="27" y="382.6895">testCloneWall(): void</text><ellipse cx="18" cy="396.0703" fill="#84BE84" rx="3" ry="3" style="stroke:#038048;stroke-width:1.0;"/><text fill="#000000" font-family="sans-serif" font-size="14" lengthAdjust="spacing" textLength="134" x="27" y="400.2988">testCloneFree(): void</text><ellipse cx="18" cy="413.6797" fill="#84BE84" rx="3" ry="3" style="stroke:#038048;stroke-width:1.0;"/><text fill="#000000" font-family="sans-serif" font-size="14" lengthAdjust="spacing" textLength="135" x="27" y="417.9082">testCloneDoor(): void</text><ellipse cx="18" cy="431.2891" fill="#84BE84" rx="3" ry="3" style="stroke:#038048;stroke-width:1.0;"/><text fill="#000000" font-family="sans-serif" font-size="14" lengthAdjust="spacing" textLength="151" x="27" y="435.5176">testCloneKeyTile(): void</text><ellipse cx="18" cy="448.8984" fill="#84BE84" rx="3" ry="3" style="stroke:#038048;stroke-width:1.0;"/><text fill="#000000" font-family="sans-serif" font-size="14" lengthAdjust="spacing" textLength="126" x="27" y="453.127">testCloneExit(): void</text><ellipse cx="18" cy="466.5078" fill="#84BE84" rx="3" ry="3" style="stroke:#038048;stroke-width:1.0;"/><text fill="#000000" font-family="sans-serif" font-size="14" lengthAdjust="spacing" textLength="156" x="27" y="470.7363">testCloneExitLock(): void</text><ellipse cx="18" cy="484.1172" fill="#84BE84" rx="3" ry="3" style="stroke:#038048;stroke-width:1.0;"/><text fill="#000000" font-family="sans-serif" font-size="14" lengthAdjust="spacing" textLength="158" x="27" y="488.3457">testCloneInfoField(): void</text><ellipse cx="18" cy="501.7266" fill="#84BE84" rx="3" ry="3" style="stroke:#038048;stroke-width:1.0;"/><text fill="#000000" font-family="sans-serif" font-size="14" lengthAdjust="spacing" textLength="162" x="27" y="505.9551">testCloneTreasure(): void</text><ellipse cx="18" cy="519.3359" fill="#84BE84" rx="3" ry="3" style="stroke:#038048;stroke-width:1.0;"/><text fill="#000000" font-family="sans-serif" font-size="14" lengthAdjust="spacing" textLength="211" x="27" y="523.5645">testIllegalArgumentKeyTile(): void</text><ellipse cx="18" cy="536.9453" fill="#84BE84" rx="3" ry="3" style="stroke:#038048;stroke-width:1.0;"/><text fill="#000000" font-family="sans-serif" font-size="14" lengthAdjust="spacing" textLength="195" x="27" y="541.1738">testIllegalArgumentDoor(): void</text><ellipse cx="18" cy="554.5547" fill="#84BE84" rx="3" ry="3" style="stroke:#038048;stroke-width:1.0;"/><text fill="#000000" font-family="sans-serif" font-size="14" lengthAdjust="spacing" textLength="260" x="27" y="558.7832">testInfoFieldNotReplacedWithFree(): void</text></g></a><text fill="#888888" font-family="sans-serif" font-size="10" lengthAdjust="spacing" textLength="184" x="57.5" y="583.2402">UMLDoclet 2.1.0, PlantUML 1.2022.14</text><!--SRC=[bPJHIm914CRV-ok682YA9QLU98HA1KbBJF6XUbZknhl5lPbZTq_Jw7zlpqJ1l9NkvRZl-ztStCVC0W1OT40oGvlB25ynbqOwDa1CUE9jI5MCW5dkbZ1Lg6ExhsReKlRoMe-qj1PExwnQOQDsqsnn9XMDqBftseZNJLe96Ob5uaZO1LAzVYjq9E8rUWhIGWWGkvBmzhPx4AdBzCS7VAtxAAzBHSgTNpHWpYhUgSx33onDVDZgynnxE7LXjwir9b9NGqELfEw8VRH8YnSKTe-M6ESXB_ZwG4MpSVw4oyFsewIN7Ad5R2e1OlSVPcAOaieF_lOpCYXjOV0mqocqxj8SoSzmHPbsERL7c3ATIQeq3cHXiM9I7hNVaOdKEc1t36B03WHJsZwAaMyYGBG_gqPyQ_SucWMGBasvKovsW0bdlXcYUvCKcGyrsFGUM_t_sxQUsGqnr_vmYYVAfNy2_TuSFBuQ6fWobxTnlzVYIFkZhIvguleA1bgIyogSpT5OnNwjVW00]--></g></svg>