<?xml version="1.0" encoding="UTF-8" standalone="no"?><svg xmlns="http://www.w3.org/2000/svg" xmlns:xlink="http://www.w3.org/1999/xlink" contentStyleType="text/css" height="1274px" preserveAspectRatio="none" style="width:1355px;height:1274px;background:#FFFFFF;" version="1.1" viewBox="0 0 1355 1274" width="1355px" zoomAndPan="magnify"><defs/><g><!--cluster nz.ac.wgtn.swen225.lc.domain--><g id="cluster_nz.ac.wgtn.swen225.lc.domain"><path d="M292.5,139 L503.5,139 A3.75,3.75 0 0 1 506,141.5 L513,162.6094 L1053.5,162.6094 A2.5,2.5 0 0 1 1056,165.1094 L1056,1245.5 A2.5,2.5 0 0 1 1053.5,1248 L292.5,1248 A2.5,2.5 0 0 1 290,1245.5 L290,141.5 A2.5,2.5 0 0 1 292.5,139 " fill="none" style="stroke:#000000;stroke-width:1.5;"/><line style="stroke:#000000;stroke-width:1.5;" x1="290" x2="513" y1="162.6094" y2="162.6094"/><text fill="#000000" font-family="sans-serif" font-size="14" font-weight="bold" lengthAdjust="spacing" textLength="210" x="294" y="155.5332">nz.ac.wgtn.swen225.lc.domain</text></g><!--cluster nz.ac.wgtn.swen225.lc.domain.tiles--><g id="cluster_nz.ac.wgtn.swen225.lc.domain.tiles"><path d="M8.5,1113 L253.5,1113 A3.75,3.75 0 0 1 256,1115.5 L263,1136.6094 L263.5,1136.6094 A2.5,2.5 0 0 1 266,1139.1094 L266,1210.5 A2.5,2.5 0 0 1 263.5,1213 L8.5,1213 A2.5,2.5 0 0 1 6,1210.5 L6,1115.5 A2.5,2.5 0 0 1 8.5,1113 " fill="none" style="stroke:#000000;stroke-width:1.5;"/><line style="stroke:#000000;stroke-width:1.5;" x1="6" x2="263" y1="1136.6094" y2="1136.6094"/><text fill="#000000" font-family="sans-serif" font-size="14" font-weight="bold" lengthAdjust="spacing" textLength="244" x="10" y="1129.5332">nz.ac.wgtn.swen225.lc.domain.tiles</text></g><!--cluster nz.ac.wgtn.swen225.lc.domain.items--><g id="cluster_nz.ac.wgtn.swen225.lc.domain.items"><path d="M1082.5,1113 L1335.5,1113 A3.75,3.75 0 0 1 1338,1115.5 L1345,1136.6094 L1345.5,1136.6094 A2.5,2.5 0 0 1 1348,1139.1094 L1348,1210.5 A2.5,2.5 0 0 1 1345.5,1213 L1082.5,1213 A2.5,2.5 0 0 1 1080,1210.5 L1080,1115.5 A2.5,2.5 0 0 1 1082.5,1113 " fill="none" style="stroke:#000000;stroke-width:1.5;"/><line style="stroke:#000000;stroke-width:1.5;" x1="1080" x2="1345" y1="1136.6094" y2="1136.6094"/><text fill="#000000" font-family="sans-serif" font-size="14" font-weight="bold" lengthAdjust="spacing" textLength="252" x="1084" y="1129.5332">nz.ac.wgtn.swen225.lc.domain.items</text></g><!--cluster java.lang--><g id="cluster_java.lang"><path d="M317.5,6 L381.5,6 A3.75,3.75 0 0 1 384,8.5 L391,29.6094 L438.5,29.6094 A2.5,2.5 0 0 1 441,32.1094 L441,103.5 A2.5,2.5 0 0 1 438.5,106 L317.5,106 A2.5,2.5 0 0 1 315,103.5 L315,8.5 A2.5,2.5 0 0 1 317.5,6 " fill="none" style="stroke:#000000;stroke-width:1.5;"/><line style="stroke:#000000;stroke-width:1.5;" x1="315" x2="391" y1="29.6094" y2="29.6094"/><text fill="#000000" font-family="sans-serif" font-size="14" font-weight="bold" lengthAdjust="spacing" textLength="63" x="319" y="22.5332">java.lang</text></g><!--class nz.ac.wgtn.swen225.lc.domain.Board--><a href="Board.html" target="_top" title="Board.html" xlink:actuate="onRequest" xlink:href="Board.html" xlink:show="new" xlink:title="Board.html" xlink:type="simple"><g id="elem_nz.ac.wgtn.swen225.lc.domain.Board"><rect codeLine="3" fill="#F1F1F1" height="171.2656" id="nz.ac.wgtn.swen225.lc.domain.Board" rx="2.5" ry="2.5" style="stroke:#181818;stroke-width:0.5;" width="233" x="806.5" y="369"/><ellipse cx="899.75" cy="385" fill="#ADD1B2" rx="11" ry="11" style="stroke:#181818;stroke-width:1.0;"/><path d="M902.5156,380.875 Q902.6719,380.6563 902.8594,380.5469 Q903.0469,380.4375 903.2656,380.4375 Q903.6406,380.4375 903.875,380.7031 Q904.1094,380.9531 904.1094,381.5625 L904.1094,383.0156 Q904.1094,383.625 903.875,383.8906 Q903.6406,384.1563 903.2656,384.1563 Q902.9219,384.1563 902.7188,383.9531 Q902.5156,383.7656 902.4063,383.25 Q902.3594,382.8906 902.1719,382.7031 Q901.8438,382.3281 901.2344,382.1094 Q900.625,381.8906 900,381.8906 Q899.2344,381.8906 898.5938,382.2188 Q897.9688,382.5469 897.4688,383.2969 Q896.9844,384.0469 896.9844,385.0781 L896.9844,386.1719 Q896.9844,387.4063 897.875,388.2344 Q898.7656,389.0469 900.3594,389.0469 Q901.2969,389.0469 901.9531,388.7969 Q902.3438,388.6406 902.7656,388.2031 Q903.0313,387.9375 903.1719,387.8594 Q903.3281,387.7813 903.5313,387.7813 Q903.8594,387.7813 904.1094,388.0469 Q904.375,388.2969 904.375,388.6406 Q904.375,388.9844 904.0313,389.3906 Q903.5313,389.9688 902.7344,390.2969 Q901.6563,390.75 900.3594,390.75 Q898.8438,390.75 897.6406,390.125 Q896.6563,389.625 895.9688,388.5625 Q895.2813,387.4844 895.2813,386.2031 L895.2813,385.0469 Q895.2813,383.7188 895.8906,382.5781 Q896.5156,381.4219 897.6094,380.8125 Q898.7031,380.1875 899.9375,380.1875 Q900.6719,380.1875 901.3125,380.3594 Q901.9688,380.5156 902.5156,380.875 Z " fill="#000000"/><text fill="#000000" font-family="sans-serif" font-size="14" lengthAdjust="spacing" textLength="38" x="920.25" y="390.7285">Board</text><line style="stroke:#181818;stroke-width:0.5;" x1="807.5" x2="1038.5" y1="401" y2="401"/><line style="stroke:#181818;stroke-width:0.5;" x1="807.5" x2="1038.5" y1="409" y2="409"/><ellipse cx="817.5" cy="423.3047" fill="#84BE84" rx="3" ry="3" style="stroke:#038048;stroke-width:1.0;"/><text fill="#000000" font-family="sans-serif" font-size="14" lengthAdjust="spacing" textLength="71" x="826.5" y="427.5332">Board(File)</text><polygon fill="#FFFF44" points="817.5,435.9141,821.5,439.9141,817.5,443.9141,813.5,439.9141" style="stroke:#B38D22;stroke-width:1.0;"/><text fill="#000000" font-family="sans-serif" font-size="14" lengthAdjust="spacing" textLength="126" x="826.5" y="445.1426">resetTile(Tile): Free</text><ellipse cx="817.5" cy="458.5234" fill="#84BE84" rx="3" ry="3" style="stroke:#038048;stroke-width:1.0;"/><text fill="#000000" font-family="sans-serif" font-size="14" lengthAdjust="spacing" textLength="207" x="826.5" y="462.752">getAutoActors(): List&lt;AutoActor&gt;</text><ellipse cx="817.5" cy="476.1328" fill="#84BE84" rx="3" ry="3" style="stroke:#038048;stroke-width:1.0;"/><text fill="#000000" font-family="sans-serif" font-size="14" lengthAdjust="spacing" textLength="122" x="826.5" y="480.3613">getTile(int, int): Tile</text><ellipse cx="817.5" cy="493.7422" fill="#84BE84" rx="3" ry="3" style="stroke:#038048;stroke-width:1.0;"/><text fill="#000000" font-family="sans-serif" font-size="14" lengthAdjust="spacing" textLength="87" x="826.5" y="497.9707">getLevel(): int</text><ellipse cx="817.5" cy="511.3516" fill="#84BE84" rx="3" ry="3" style="stroke:#038048;stroke-width:1.0;"/><text fill="#000000" font-family="sans-serif" font-size="14" lengthAdjust="spacing" textLength="84" x="826.5" y="515.5801">getTime(): int</text><ellipse cx="817.5" cy="528.9609" fill="#84BE84" rx="3" ry="3" style="stroke:#038048;stroke-width:1.0;"/><text fill="#000000" font-family="sans-serif" font-size="14" lengthAdjust="spacing" textLength="187" x="826.5" y="533.1895">getBoardTreasureCount(): int</text></g></a><!--class nz.ac.wgtn.swen225.lc.domain.Chap--><a href="Chap.html" target="_top" title="Chap.html" xlink:actuate="onRequest" xlink:href="Chap.html" xlink:show="new" xlink:title="Chap.html" xlink:type="simple"><g id="elem_nz.ac.wgtn.swen225.lc.domain.Chap"><rect codeLine="13" fill="#F1F1F1" height="224.0938" id="nz.ac.wgtn.swen225.lc.domain.Chap" rx="2.5" ry="2.5" style="stroke:#181818;stroke-width:0.5;" width="215" x="749.5" y="812"/><ellipse cx="835.75" cy="828" fill="#ADD1B2" rx="11" ry="11" style="stroke:#181818;stroke-width:1.0;"/><path d="M838.5156,823.875 Q838.6719,823.6563 838.8594,823.5469 Q839.0469,823.4375 839.2656,823.4375 Q839.6406,823.4375 839.875,823.7031 Q840.1094,823.9531 840.1094,824.5625 L840.1094,826.0156 Q840.1094,826.625 839.875,826.8906 Q839.6406,827.1563 839.2656,827.1563 Q838.9219,827.1563 838.7188,826.9531 Q838.5156,826.7656 838.4063,826.25 Q838.3594,825.8906 838.1719,825.7031 Q837.8438,825.3281 837.2344,825.1094 Q836.625,824.8906 836,824.8906 Q835.2344,824.8906 834.5938,825.2188 Q833.9688,825.5469 833.4688,826.2969 Q832.9844,827.0469 832.9844,828.0781 L832.9844,829.1719 Q832.9844,830.4063 833.875,831.2344 Q834.7656,832.0469 836.3594,832.0469 Q837.2969,832.0469 837.9531,831.7969 Q838.3438,831.6406 838.7656,831.2031 Q839.0313,830.9375 839.1719,830.8594 Q839.3281,830.7813 839.5313,830.7813 Q839.8594,830.7813 840.1094,831.0469 Q840.375,831.2969 840.375,831.6406 Q840.375,831.9844 840.0313,832.3906 Q839.5313,832.9688 838.7344,833.2969 Q837.6563,833.75 836.3594,833.75 Q834.8438,833.75 833.6406,833.125 Q832.6563,832.625 831.9688,831.5625 Q831.2813,830.4844 831.2813,829.2031 L831.2813,828.0469 Q831.2813,826.7188 831.8906,825.5781 Q832.5156,824.4219 833.6094,823.8125 Q834.7031,823.1875 835.9375,823.1875 Q836.6719,823.1875 837.3125,823.3594 Q837.9688,823.5156 838.5156,823.875 Z " fill="#000000"/><text fill="#000000" font-family="sans-serif" font-size="14" lengthAdjust="spacing" textLength="34" x="856.25" y="833.7285">Chap</text><line style="stroke:#181818;stroke-width:0.5;" x1="750.5" x2="963.5" y1="844" y2="844"/><line style="stroke:#181818;stroke-width:0.5;" x1="750.5" x2="963.5" y1="852" y2="852"/><ellipse cx="760.5" cy="866.3047" fill="#84BE84" rx="3" ry="3" style="stroke:#038048;stroke-width:1.0;"/><text fill="#000000" font-family="sans-serif" font-size="14" lengthAdjust="spacing" textLength="143" x="769.5" y="870.5332">Chap(Board, Free, int)</text><ellipse cx="760.5" cy="883.9141" fill="#84BE84" rx="3" ry="3" style="stroke:#038048;stroke-width:1.0;"/><text fill="#000000" font-family="sans-serif" font-size="14" lengthAdjust="spacing" textLength="131" x="769.5" y="888.1426">move(Direction): Tile</text><ellipse cx="760.5" cy="901.5234" fill="#84BE84" rx="3" ry="3" style="stroke:#038048;stroke-width:1.0;"/><text fill="#000000" font-family="sans-serif" font-size="14" lengthAdjust="spacing" textLength="145" x="769.5" y="905.752">addItem(Item): boolean</text><ellipse cx="760.5" cy="919.1328" fill="#84BE84" rx="3" ry="3" style="stroke:#038048;stroke-width:1.0;"/><text fill="#000000" font-family="sans-serif" font-size="14" lengthAdjust="spacing" textLength="168" x="769.5" y="923.3613">removeItem(Item): boolean</text><ellipse cx="760.5" cy="936.7422" fill="#84BE84" rx="3" ry="3" style="stroke:#038048;stroke-width:1.0;"/><text fill="#000000" font-family="sans-serif" font-size="14" lengthAdjust="spacing" textLength="144" x="769.5" y="940.9707">hasItem(Item): boolean</text><ellipse cx="760.5" cy="954.3516" fill="#84BE84" rx="3" ry="3" style="stroke:#038048;stroke-width:1.0;"/><text fill="#000000" font-family="sans-serif" font-size="14" lengthAdjust="spacing" textLength="156" x="769.5" y="958.5801">canUnlockExit(): boolean</text><ellipse cx="760.5" cy="971.9609" fill="#84BE84" rx="3" ry="3" style="stroke:#038048;stroke-width:1.0;"/><text fill="#000000" font-family="sans-serif" font-size="14" lengthAdjust="spacing" textLength="126" x="769.5" y="976.1895">addTreasure(): void</text><ellipse cx="760.5" cy="989.5703" fill="#84BE84" rx="3" ry="3" style="stroke:#038048;stroke-width:1.0;"/><text fill="#000000" font-family="sans-serif" font-size="14" lengthAdjust="spacing" textLength="61" x="769.5" y="993.7988">getX(): int</text><ellipse cx="760.5" cy="1007.1797" fill="#84BE84" rx="3" ry="3" style="stroke:#038048;stroke-width:1.0;"/><text fill="#000000" font-family="sans-serif" font-size="14" lengthAdjust="spacing" textLength="62" x="769.5" y="1011.4082">getY(): int</text><ellipse cx="760.5" cy="1024.7891" fill="#84BE84" rx="3" ry="3" style="stroke:#038048;stroke-width:1.0;"/><text fill="#000000" font-family="sans-serif" font-size="14" lengthAdjust="spacing" textLength="189" x="769.5" y="1029.0176">getPlayerTreasureCount(): int</text></g></a><!--class nz.ac.wgtn.swen225.lc.domain.Chap.State--><a href="Chap.State.html" target="_top" title="Chap.State.html" xlink:actuate="onRequest" xlink:href="Chap.State.html" xlink:show="new" xlink:title="Chap.State.html" xlink:type="simple"><g id="elem_nz.ac.wgtn.swen225.lc.domain.Chap.State"><rect codeLine="26" fill="#F1F1F1" height="118.4375" id="nz.ac.wgtn.swen225.lc.domain.Chap.State" rx="2.5" ry="2.5" style="stroke:#181818;stroke-width:0.5;" width="112" x="764" y="1114"/><ellipse cx="783.05" cy="1130" fill="#EB937F" rx="11" ry="11" style="stroke:#181818;stroke-width:1.0;"/><path d="M781.9094,1130.7969 L781.9094,1133.2969 L786.2375,1133.2969 L786.2375,1132.375 Q786.2375,1131.7656 786.4719,1131.5 Q786.7219,1131.2344 787.0969,1131.2344 Q787.4719,1131.2344 787.7063,1131.5 Q787.9406,1131.7656 787.9406,1132.375 L787.9406,1135 L779.9406,1135 Q779.3156,1135 779.05,1134.7656 Q778.8,1134.5313 778.8,1134.1406 Q778.8,1133.7656 779.0656,1133.5313 Q779.3313,1133.2969 779.9406,1133.2969 L780.2063,1133.2969 L780.2063,1126.6406 L779.9406,1126.6406 Q779.3156,1126.6406 779.05,1126.4063 Q778.8,1126.1719 778.8,1125.7813 Q778.8,1125.4063 779.05,1125.1719 Q779.3156,1124.9375 779.9406,1124.9375 L787.5656,1124.9375 L787.5656,1127.5313 Q787.5656,1128.1406 787.3313,1128.4063 Q787.1125,1128.6563 786.7219,1128.6563 Q786.3469,1128.6563 786.1125,1128.4063 Q785.8781,1128.1406 785.8781,1127.5313 L785.8781,1126.6406 L781.9094,1126.6406 L781.9094,1129.0938 L783.3938,1129.0938 Q783.3938,1128.4375 783.5188,1128.25 Q783.7844,1127.8438 784.2531,1127.8438 Q784.6281,1127.8438 784.8625,1128.1094 Q785.0969,1128.3594 785.0969,1128.9688 L785.0969,1130.9375 Q785.0969,1131.4844 784.9719,1131.6719 Q784.7063,1132.0625 784.2531,1132.0625 Q783.7844,1132.0625 783.5188,1131.6563 Q783.3938,1131.4688 783.3938,1130.7969 L781.9094,1130.7969 Z " fill="#000000"/><text fill="#000000" font-family="sans-serif" font-size="14" lengthAdjust="spacing" textLength="71" x="797.95" y="1135.7285">Chap.State</text><line style="stroke:#181818;stroke-width:0.5;" x1="765" x2="875" y1="1146" y2="1146"/><ellipse cx="775" cy="1160.3047" fill="none" rx="3" ry="3" style="stroke:#038048;stroke-width:1.0;"/><text fill="#000000" font-family="sans-serif" font-size="14" lengthAdjust="spacing" text-decoration="underline" textLength="65" x="784" y="1164.5332">ONGOING</text><ellipse cx="775" cy="1177.9141" fill="none" rx="3" ry="3" style="stroke:#038048;stroke-width:1.0;"/><text fill="#000000" font-family="sans-serif" font-size="14" lengthAdjust="spacing" text-decoration="underline" textLength="55" x="784" y="1182.1426">PAUSED</text><ellipse cx="775" cy="1195.5234" fill="none" rx="3" ry="3" style="stroke:#038048;stroke-width:1.0;"/><text fill="#000000" font-family="sans-serif" font-size="14" lengthAdjust="spacing" text-decoration="underline" textLength="86" x="784" y="1199.752">COMPLETED</text><ellipse cx="775" cy="1213.1328" fill="none" rx="3" ry="3" style="stroke:#038048;stroke-width:1.0;"/><text fill="#000000" font-family="sans-serif" font-size="14" lengthAdjust="spacing" text-decoration="underline" textLength="38" x="784" y="1217.3613">DEAD</text><line style="stroke:#181818;stroke-width:0.5;" x1="765" x2="875" y1="1224.4375" y2="1224.4375"/></g></a><!--class nz.ac.wgtn.swen225.lc.domain.Chap.Direction--><a href="Chap.Direction.html" target="_top" title="Chap.Direction.html" xlink:actuate="onRequest" xlink:href="Chap.Direction.html" xlink:show="new" xlink:title="Chap.Direction.html" xlink:type="simple"><g id="elem_nz.ac.wgtn.swen225.lc.domain.Chap.Direction"><rect codeLine="33" fill="#F1F1F1" height="118.4375" id="nz.ac.wgtn.swen225.lc.domain.Chap.Direction" rx="2.5" ry="2.5" style="stroke:#181818;stroke-width:0.5;" width="126" x="911" y="1114"/><ellipse cx="926" cy="1130" fill="#EB937F" rx="11" ry="11" style="stroke:#181818;stroke-width:1.0;"/><path d="M924.8594,1130.7969 L924.8594,1133.2969 L929.1875,1133.2969 L929.1875,1132.375 Q929.1875,1131.7656 929.4219,1131.5 Q929.6719,1131.2344 930.0469,1131.2344 Q930.4219,1131.2344 930.6563,1131.5 Q930.8906,1131.7656 930.8906,1132.375 L930.8906,1135 L922.8906,1135 Q922.2656,1135 922,1134.7656 Q921.75,1134.5313 921.75,1134.1406 Q921.75,1133.7656 922.0156,1133.5313 Q922.2813,1133.2969 922.8906,1133.2969 L923.1563,1133.2969 L923.1563,1126.6406 L922.8906,1126.6406 Q922.2656,1126.6406 922,1126.4063 Q921.75,1126.1719 921.75,1125.7813 Q921.75,1125.4063 922,1125.1719 Q922.2656,1124.9375 922.8906,1124.9375 L930.5156,1124.9375 L930.5156,1127.5313 Q930.5156,1128.1406 930.2813,1128.4063 Q930.0625,1128.6563 929.6719,1128.6563 Q929.2969,1128.6563 929.0625,1128.4063 Q928.8281,1128.1406 928.8281,1127.5313 L928.8281,1126.6406 L924.8594,1126.6406 L924.8594,1129.0938 L926.3438,1129.0938 Q926.3438,1128.4375 926.4688,1128.25 Q926.7344,1127.8438 927.2031,1127.8438 Q927.5781,1127.8438 927.8125,1128.1094 Q928.0469,1128.3594 928.0469,1128.9688 L928.0469,1130.9375 Q928.0469,1131.4844 927.9219,1131.6719 Q927.6563,1132.0625 927.2031,1132.0625 Q926.7344,1132.0625 926.4688,1131.6563 Q926.3438,1131.4688 926.3438,1130.7969 L924.8594,1130.7969 Z " fill="#000000"/><text fill="#000000" font-family="sans-serif" font-size="14" lengthAdjust="spacing" textLength="94" x="940" y="1135.7285">Chap.Direction</text><line style="stroke:#181818;stroke-width:0.5;" x1="912" x2="1036" y1="1146" y2="1146"/><ellipse cx="922" cy="1160.3047" fill="none" rx="3" ry="3" style="stroke:#038048;stroke-width:1.0;"/><text fill="#000000" font-family="sans-serif" font-size="14" lengthAdjust="spacing" text-decoration="underline" textLength="18" x="931" y="1164.5332">UP</text><ellipse cx="922" cy="1177.9141" fill="none" rx="3" ry="3" style="stroke:#038048;stroke-width:1.0;"/><text fill="#000000" font-family="sans-serif" font-size="14" lengthAdjust="spacing" text-decoration="underline" textLength="43" x="931" y="1182.1426">DOWN</text><ellipse cx="922" cy="1195.5234" fill="none" rx="3" ry="3" style="stroke:#038048;stroke-width:1.0;"/><text fill="#000000" font-family="sans-serif" font-size="14" lengthAdjust="spacing" text-decoration="underline" textLength="35" x="931" y="1199.752">LEFT</text><ellipse cx="922" cy="1213.1328" fill="none" rx="3" ry="3" style="stroke:#038048;stroke-width:1.0;"/><text fill="#000000" font-family="sans-serif" font-size="14" lengthAdjust="spacing" text-decoration="underline" textLength="42" x="931" y="1217.3613">RIGHT</text><line style="stroke:#181818;stroke-width:0.5;" x1="912" x2="1036" y1="1224.4375" y2="1224.4375"/></g></a><!--class nz.ac.wgtn.swen225.lc.domain.DomainTest--><a href="DomainTest.html" target="_top" title="DomainTest.html" xlink:actuate="onRequest" xlink:href="DomainTest.html" xlink:show="new" xlink:title="DomainTest.html" xlink:type="simple"><g id="elem_nz.ac.wgtn.swen225.lc.domain.DomainTest"><rect codeLine="40" fill="#F1F1F1" height="558.6719" id="nz.ac.wgtn.swen225.lc.domain.DomainTest" rx="2.5" ry="2.5" style="stroke:#181818;stroke-width:0.5;" width="286" x="485" y="175"/><ellipse cx="585.75" cy="191" fill="#ADD1B2" rx="11" ry="11" style="stroke:#181818;stroke-width:1.0;"/><path d="M588.5156,186.875 Q588.6719,186.6563 588.8594,186.5469 Q589.0469,186.4375 589.2656,186.4375 Q589.6406,186.4375 589.875,186.7031 Q590.1094,186.9531 590.1094,187.5625 L590.1094,189.0156 Q590.1094,189.625 589.875,189.8906 Q589.6406,190.1563 589.2656,190.1563 Q588.9219,190.1563 588.7188,189.9531 Q588.5156,189.7656 588.4063,189.25 Q588.3594,188.8906 588.1719,188.7031 Q587.8438,188.3281 587.2344,188.1094 Q586.625,187.8906 586,187.8906 Q585.2344,187.8906 584.5938,188.2188 Q583.9688,188.5469 583.4688,189.2969 Q582.9844,190.0469 582.9844,191.0781 L582.9844,192.1719 Q582.9844,193.4063 583.875,194.2344 Q584.7656,195.0469 586.3594,195.0469 Q587.2969,195.0469 587.9531,194.7969 Q588.3438,194.6406 588.7656,194.2031 Q589.0313,193.9375 589.1719,193.8594 Q589.3281,193.7813 589.5313,193.7813 Q589.8594,193.7813 590.1094,194.0469 Q590.375,194.2969 590.375,194.6406 Q590.375,194.9844 590.0313,195.3906 Q589.5313,195.9688 588.7344,196.2969 Q587.6563,196.75 586.3594,196.75 Q584.8438,196.75 583.6406,196.125 Q582.6563,195.625 581.9688,194.5625 Q581.2813,193.4844 581.2813,192.2031 L581.2813,191.0469 Q581.2813,189.7188 581.8906,188.5781 Q582.5156,187.4219 583.6094,186.8125 Q584.7031,186.1875 585.9375,186.1875 Q586.6719,186.1875 587.3125,186.3594 Q587.9688,186.5156 588.5156,186.875 Z " fill="#000000"/><text fill="#000000" font-family="sans-serif" font-size="14" lengthAdjust="spacing" textLength="76" x="606.25" y="196.7285">DomainTest</text><line style="stroke:#181818;stroke-width:0.5;" x1="486" x2="770" y1="207" y2="207"/><line style="stroke:#181818;stroke-width:0.5;" x1="486" x2="770" y1="215" y2="215"/><ellipse cx="496" cy="229.3047" fill="#84BE84" rx="3" ry="3" style="stroke:#038048;stroke-width:1.0;"/><text fill="#000000" font-family="sans-serif" font-size="14" lengthAdjust="spacing" textLength="62" x="505" y="233.5332">init(): void</text><ellipse cx="496" cy="246.9141" fill="#84BE84" rx="3" ry="3" style="stroke:#038048;stroke-width:1.0;"/><text fill="#000000" font-family="sans-serif" font-size="14" lengthAdjust="spacing" textLength="105" x="505" y="251.1426">testBoard(): void</text><ellipse cx="496" cy="264.5234" fill="#84BE84" rx="3" ry="3" style="stroke:#038048;stroke-width:1.0;"/><text fill="#000000" font-family="sans-serif" font-size="14" lengthAdjust="spacing" textLength="125" x="505" y="268.752">testMoveLeft(): void</text><ellipse cx="496" cy="282.1328" fill="#84BE84" rx="3" ry="3" style="stroke:#038048;stroke-width:1.0;"/><text fill="#000000" font-family="sans-serif" font-size="14" lengthAdjust="spacing" textLength="161" x="505" y="286.3613">testMoveLeftIllegal(): void</text><ellipse cx="496" cy="299.7422" fill="#84BE84" rx="3" ry="3" style="stroke:#038048;stroke-width:1.0;"/><text fill="#000000" font-family="sans-serif" font-size="14" lengthAdjust="spacing" textLength="134" x="505" y="303.9707">testMoveRight(): void</text><ellipse cx="496" cy="317.3516" fill="#84BE84" rx="3" ry="3" style="stroke:#038048;stroke-width:1.0;"/><text fill="#000000" font-family="sans-serif" font-size="14" lengthAdjust="spacing" textLength="170" x="505" y="321.5801">testMoveRightIllegal(): void</text><ellipse cx="496" cy="334.9609" fill="#84BE84" rx="3" ry="3" style="stroke:#038048;stroke-width:1.0;"/><text fill="#000000" font-family="sans-serif" font-size="14" lengthAdjust="spacing" textLength="136" x="505" y="339.1895">testMoveDown(): void</text><ellipse cx="496" cy="352.5703" fill="#84BE84" rx="3" ry="3" style="stroke:#038048;stroke-width:1.0;"/><text fill="#000000" font-family="sans-serif" font-size="14" lengthAdjust="spacing" textLength="172" x="505" y="356.7988">testMoveDownIllegal(): void</text><ellipse cx="496" cy="370.1797" fill="#84BE84" rx="3" ry="3" style="stroke:#038048;stroke-width:1.0;"/><text fill="#000000" font-family="sans-serif" font-size="14" lengthAdjust="spacing" textLength="118" x="505" y="374.4082">testMoveUp(): void</text><ellipse cx="496" cy="387.7891" fill="#84BE84" rx="3" ry="3" style="stroke:#038048;stroke-width:1.0;"/><text fill="#000000" font-family="sans-serif" font-size="14" lengthAdjust="spacing" textLength="154" x="505" y="392.0176">testMoveUpIllegal(): void</text><ellipse cx="496" cy="405.3984" fill="#84BE84" rx="3" ry="3" style="stroke:#038048;stroke-width:1.0;"/><text fill="#000000" font-family="sans-serif" font-size="14" lengthAdjust="spacing" textLength="134" x="505" y="409.627">testPickUpKey(): void</text><ellipse cx="496" cy="423.0078" fill="#84BE84" rx="3" ry="3" style="stroke:#038048;stroke-width:1.0;"/><text fill="#000000" font-family="sans-serif" font-size="14" lengthAdjust="spacing" textLength="159" x="505" y="427.2363">testCanOpenDoor(): void</text><ellipse cx="496" cy="440.6172" fill="#84BE84" rx="3" ry="3" style="stroke:#038048;stroke-width:1.0;"/><text fill="#000000" font-family="sans-serif" font-size="14" lengthAdjust="spacing" textLength="179" x="505" y="444.8457">testCannotOpenDoor(): void</text><ellipse cx="496" cy="458.2266" fill="#84BE84" rx="3" ry="3" style="stroke:#038048;stroke-width:1.0;"/><text fill="#000000" font-family="sans-serif" font-size="14" lengthAdjust="spacing" textLength="245" x="505" y="462.4551">testCannotOpenDoorWrongKey(): void</text><ellipse cx="496" cy="475.8359" fill="#84BE84" rx="3" ry="3" style="stroke:#038048;stroke-width:1.0;"/><text fill="#000000" font-family="sans-serif" font-size="14" lengthAdjust="spacing" textLength="168" x="505" y="480.0645">testPickUpTreasure(): void</text><ellipse cx="496" cy="493.4453" fill="#84BE84" rx="3" ry="3" style="stroke:#038048;stroke-width:1.0;"/><text fill="#000000" font-family="sans-serif" font-size="14" lengthAdjust="spacing" textLength="148" x="505" y="497.6738">testFullInventory(): void</text><ellipse cx="496" cy="511.0547" fill="#84BE84" rx="3" ry="3" style="stroke:#038048;stroke-width:1.0;"/><text fill="#000000" font-family="sans-serif" font-size="14" lengthAdjust="spacing" textLength="164" x="505" y="515.2832">testEmptyInventory(): void</text><ellipse cx="496" cy="528.6641" fill="#84BE84" rx="3" ry="3" style="stroke:#038048;stroke-width:1.0;"/><text fill="#000000" font-family="sans-serif" font-size="14" lengthAdjust="spacing" textLength="184" x="505" y="532.8926">testMoveWhilePaused(): void</text><ellipse cx="496" cy="546.2734" fill="#84BE84" rx="3" ry="3" style="stroke:#038048;stroke-width:1.0;"/><text fill="#000000" font-family="sans-serif" font-size="14" lengthAdjust="spacing" textLength="131" x="505" y="550.502">testCloneWall(): void</text><ellipse cx="496" cy="563.8828" fill="#84BE84" rx="3" ry="3" style="stroke:#038048;stroke-width:1.0;"/><text fill="#000000" font-family="sans-serif" font-size="14" lengthAdjust="spacing" textLength="134" x="505" y="568.1113">testCloneFree(): void</text><ellipse cx="496" cy="581.4922" fill="#84BE84" rx="3" ry="3" style="stroke:#038048;stroke-width:1.0;"/><text fill="#000000" font-family="sans-serif" font-size="14" lengthAdjust="spacing" textLength="135" x="505" y="585.7207">testCloneDoor(): void</text><ellipse cx="496" cy="599.1016" fill="#84BE84" rx="3" ry="3" style="stroke:#038048;stroke-width:1.0;"/><text fill="#000000" font-family="sans-serif" font-size="14" lengthAdjust="spacing" textLength="151" x="505" y="603.3301">testCloneKeyTile(): void</text><ellipse cx="496" cy="616.7109" fill="#84BE84" rx="3" ry="3" style="stroke:#038048;stroke-width:1.0;"/><text fill="#000000" font-family="sans-serif" font-size="14" lengthAdjust="spacing" textLength="126" x="505" y="620.9395">testCloneExit(): void</text><ellipse cx="496" cy="634.3203" fill="#84BE84" rx="3" ry="3" style="stroke:#038048;stroke-width:1.0;"/><text fill="#000000" font-family="sans-serif" font-size="14" lengthAdjust="spacing" textLength="156" x="505" y="638.5488">testCloneExitLock(): void</text><ellipse cx="496" cy="651.9297" fill="#84BE84" rx="3" ry="3" style="stroke:#038048;stroke-width:1.0;"/><text fill="#000000" font-family="sans-serif" font-size="14" lengthAdjust="spacing" textLength="158" x="505" y="656.1582">testCloneInfoField(): void</text><ellipse cx="496" cy="669.5391" fill="#84BE84" rx="3" ry="3" style="stroke:#038048;stroke-width:1.0;"/><text fill="#000000" font-family="sans-serif" font-size="14" lengthAdjust="spacing" textLength="162" x="505" y="673.7676">testCloneTreasure(): void</text><ellipse cx="496" cy="687.1484" fill="#84BE84" rx="3" ry="3" style="stroke:#038048;stroke-width:1.0;"/><text fill="#000000" font-family="sans-serif" font-size="14" lengthAdjust="spacing" textLength="211" x="505" y="691.377">testIllegalArgumentKeyTile(): void</text><ellipse cx="496" cy="704.7578" fill="#84BE84" rx="3" ry="3" style="stroke:#038048;stroke-width:1.0;"/><text fill="#000000" font-family="sans-serif" font-size="14" lengthAdjust="spacing" textLength="195" x="505" y="708.9863">testIllegalArgumentDoor(): void</text><ellipse cx="496" cy="722.3672" fill="#84BE84" rx="3" ry="3" style="stroke:#038048;stroke-width:1.0;"/><text fill="#000000" font-family="sans-serif" font-size="14" lengthAdjust="spacing" textLength="260" x="505" y="726.5957">testInfoFieldNotReplacedWithFree(): void</text></g></a><!--class nz.ac.wgtn.swen225.lc.domain.IllegalMove--><a href="IllegalMove.html" target="_top" title="IllegalMove.html" xlink:actuate="onRequest" xlink:href="IllegalMove.html" xlink:show="new" xlink:title="IllegalMove.html" xlink:type="simple"><g id="elem_nz.ac.wgtn.swen225.lc.domain.IllegalMove"><rect codeLine="72" fill="#F1F1F1" height="65.6094" id="nz.ac.wgtn.swen225.lc.domain.IllegalMove" rx="2.5" ry="2.5" style="stroke:#181818;stroke-width:0.5;" width="143" x="306.5" y="421.5"/><ellipse cx="339.95" cy="437.5" fill="#ADD1B2" rx="11" ry="11" style="stroke:#181818;stroke-width:1.0;"/><path d="M342.7156,433.375 Q342.8719,433.1563 343.0594,433.0469 Q343.2469,432.9375 343.4656,432.9375 Q343.8406,432.9375 344.075,433.2031 Q344.3094,433.4531 344.3094,434.0625 L344.3094,435.5156 Q344.3094,436.125 344.075,436.3906 Q343.8406,436.6563 343.4656,436.6563 Q343.1219,436.6563 342.9188,436.4531 Q342.7156,436.2656 342.6063,435.75 Q342.5594,435.3906 342.3719,435.2031 Q342.0438,434.8281 341.4344,434.6094 Q340.825,434.3906 340.2,434.3906 Q339.4344,434.3906 338.7938,434.7188 Q338.1688,435.0469 337.6688,435.7969 Q337.1844,436.5469 337.1844,437.5781 L337.1844,438.6719 Q337.1844,439.9063 338.075,440.7344 Q338.9656,441.5469 340.5594,441.5469 Q341.4969,441.5469 342.1531,441.2969 Q342.5438,441.1406 342.9656,440.7031 Q343.2313,440.4375 343.3719,440.3594 Q343.5281,440.2813 343.7313,440.2813 Q344.0594,440.2813 344.3094,440.5469 Q344.575,440.7969 344.575,441.1406 Q344.575,441.4844 344.2313,441.8906 Q343.7313,442.4688 342.9344,442.7969 Q341.8563,443.25 340.5594,443.25 Q339.0438,443.25 337.8406,442.625 Q336.8563,442.125 336.1688,441.0625 Q335.4813,439.9844 335.4813,438.7031 L335.4813,437.5469 Q335.4813,436.2188 336.0906,435.0781 Q336.7156,433.9219 337.8094,433.3125 Q338.9031,432.6875 340.1375,432.6875 Q340.8719,432.6875 341.5125,432.8594 Q342.1688,433.0156 342.7156,433.375 Z " fill="#000000"/><text fill="#000000" font-family="sans-serif" font-size="14" lengthAdjust="spacing" textLength="70" x="358.05" y="443.2285">IllegalMove</text><line style="stroke:#181818;stroke-width:0.5;" x1="307.5" x2="448.5" y1="453.5" y2="453.5"/><line style="stroke:#181818;stroke-width:0.5;" x1="307.5" x2="448.5" y1="461.5" y2="461.5"/><ellipse cx="317.5" cy="475.8047" fill="#84BE84" rx="3" ry="3" style="stroke:#038048;stroke-width:1.0;"/><text fill="#000000" font-family="sans-serif" font-size="14" lengthAdjust="spacing" textLength="117" x="326.5" y="480.0332">IllegalMove(String)</text></g></a><!--class nz.ac.wgtn.swen225.lc.domain.tiles.Tile--><g id="elem_nz.ac.wgtn.swen225.lc.domain.tiles.Tile"><rect fill="#F1F1F1" height="48" id="nz.ac.wgtn.swen225.lc.domain.tiles.Tile" rx="2.5" ry="2.5" style="stroke:#181818;stroke-width:0.5;" width="55" x="97.5" y="1149"/><ellipse cx="112.5" cy="1165" fill="#ADD1B2" rx="11" ry="11" style="stroke:#181818;stroke-width:1.0;"/><path d="M115.2656,1160.875 Q115.4219,1160.6563 115.6094,1160.5469 Q115.7969,1160.4375 116.0156,1160.4375 Q116.3906,1160.4375 116.625,1160.7031 Q116.8594,1160.9531 116.8594,1161.5625 L116.8594,1163.0156 Q116.8594,1163.625 116.625,1163.8906 Q116.3906,1164.1563 116.0156,1164.1563 Q115.6719,1164.1563 115.4688,1163.9531 Q115.2656,1163.7656 115.1563,1163.25 Q115.1094,1162.8906 114.9219,1162.7031 Q114.5938,1162.3281 113.9844,1162.1094 Q113.375,1161.8906 112.75,1161.8906 Q111.9844,1161.8906 111.3438,1162.2188 Q110.7188,1162.5469 110.2188,1163.2969 Q109.7344,1164.0469 109.7344,1165.0781 L109.7344,1166.1719 Q109.7344,1167.4063 110.625,1168.2344 Q111.5156,1169.0469 113.1094,1169.0469 Q114.0469,1169.0469 114.7031,1168.7969 Q115.0938,1168.6406 115.5156,1168.2031 Q115.7813,1167.9375 115.9219,1167.8594 Q116.0781,1167.7813 116.2813,1167.7813 Q116.6094,1167.7813 116.8594,1168.0469 Q117.125,1168.2969 117.125,1168.6406 Q117.125,1168.9844 116.7813,1169.3906 Q116.2813,1169.9688 115.4844,1170.2969 Q114.4063,1170.75 113.1094,1170.75 Q111.5938,1170.75 110.3906,1170.125 Q109.4063,1169.625 108.7188,1168.5625 Q108.0313,1167.4844 108.0313,1166.2031 L108.0313,1165.0469 Q108.0313,1163.7188 108.6406,1162.5781 Q109.2656,1161.4219 110.3594,1160.8125 Q111.4531,1160.1875 112.6875,1160.1875 Q113.4219,1160.1875 114.0625,1160.3594 Q114.7188,1160.5156 115.2656,1160.875 Z " fill="#000000"/><text fill="#000000" font-family="sans-serif" font-size="14" lengthAdjust="spacing" textLength="23" x="126.5" y="1170.7285">Tile</text><line style="stroke:#181818;stroke-width:0.5;" x1="98.5" x2="151.5" y1="1181" y2="1181"/><line style="stroke:#181818;stroke-width:0.5;" x1="98.5" x2="151.5" y1="1189" y2="1189"/></g><!--class nz.ac.wgtn.swen225.lc.domain.tiles.Free--><g id="elem_nz.ac.wgtn.swen225.lc.domain.tiles.Free"><rect fill="#F1F1F1" height="48" id="nz.ac.wgtn.swen225.lc.domain.tiles.Free" rx="2.5" ry="2.5" style="stroke:#181818;stroke-width:0.5;" width="62" x="188" y="1149"/><ellipse cx="203" cy="1165" fill="#ADD1B2" rx="11" ry="11" style="stroke:#181818;stroke-width:1.0;"/><path d="M205.7656,1160.875 Q205.9219,1160.6563 206.1094,1160.5469 Q206.2969,1160.4375 206.5156,1160.4375 Q206.8906,1160.4375 207.125,1160.7031 Q207.3594,1160.9531 207.3594,1161.5625 L207.3594,1163.0156 Q207.3594,1163.625 207.125,1163.8906 Q206.8906,1164.1563 206.5156,1164.1563 Q206.1719,1164.1563 205.9688,1163.9531 Q205.7656,1163.7656 205.6563,1163.25 Q205.6094,1162.8906 205.4219,1162.7031 Q205.0938,1162.3281 204.4844,1162.1094 Q203.875,1161.8906 203.25,1161.8906 Q202.4844,1161.8906 201.8438,1162.2188 Q201.2188,1162.5469 200.7188,1163.2969 Q200.2344,1164.0469 200.2344,1165.0781 L200.2344,1166.1719 Q200.2344,1167.4063 201.125,1168.2344 Q202.0156,1169.0469 203.6094,1169.0469 Q204.5469,1169.0469 205.2031,1168.7969 Q205.5938,1168.6406 206.0156,1168.2031 Q206.2813,1167.9375 206.4219,1167.8594 Q206.5781,1167.7813 206.7813,1167.7813 Q207.1094,1167.7813 207.3594,1168.0469 Q207.625,1168.2969 207.625,1168.6406 Q207.625,1168.9844 207.2813,1169.3906 Q206.7813,1169.9688 205.9844,1170.2969 Q204.9063,1170.75 203.6094,1170.75 Q202.0938,1170.75 200.8906,1170.125 Q199.9063,1169.625 199.2188,1168.5625 Q198.5313,1167.4844 198.5313,1166.2031 L198.5313,1165.0469 Q198.5313,1163.7188 199.1406,1162.5781 Q199.7656,1161.4219 200.8594,1160.8125 Q201.9531,1160.1875 203.1875,1160.1875 Q203.9219,1160.1875 204.5625,1160.3594 Q205.2188,1160.5156 205.7656,1160.875 Z " fill="#000000"/><text fill="#000000" font-family="sans-serif" font-size="14" lengthAdjust="spacing" textLength="30" x="217" y="1170.7285">Free</text><line style="stroke:#181818;stroke-width:0.5;" x1="189" x2="249" y1="1181" y2="1181"/><line style="stroke:#181818;stroke-width:0.5;" x1="189" x2="249" y1="1189" y2="1189"/></g><!--class nz.ac.wgtn.swen225.lc.domain.items.Item--><g id="elem_nz.ac.wgtn.swen225.lc.domain.items.Item"><rect fill="#F1F1F1" height="48" id="nz.ac.wgtn.swen225.lc.domain.items.Item" rx="2.5" ry="2.5" style="stroke:#181818;stroke-width:0.5;" width="58" x="1096" y="1149"/><ellipse cx="1111" cy="1165" fill="#ADD1B2" rx="11" ry="11" style="stroke:#181818;stroke-width:1.0;"/><path d="M1113.7656,1160.875 Q1113.9219,1160.6563 1114.1094,1160.5469 Q1114.2969,1160.4375 1114.5156,1160.4375 Q1114.8906,1160.4375 1115.125,1160.7031 Q1115.3594,1160.9531 1115.3594,1161.5625 L1115.3594,1163.0156 Q1115.3594,1163.625 1115.125,1163.8906 Q1114.8906,1164.1563 1114.5156,1164.1563 Q1114.1719,1164.1563 1113.9688,1163.9531 Q1113.7656,1163.7656 1113.6563,1163.25 Q1113.6094,1162.8906 1113.4219,1162.7031 Q1113.0938,1162.3281 1112.4844,1162.1094 Q1111.875,1161.8906 1111.25,1161.8906 Q1110.4844,1161.8906 1109.8438,1162.2188 Q1109.2188,1162.5469 1108.7188,1163.2969 Q1108.2344,1164.0469 1108.2344,1165.0781 L1108.2344,1166.1719 Q1108.2344,1167.4063 1109.125,1168.2344 Q1110.0156,1169.0469 1111.6094,1169.0469 Q1112.5469,1169.0469 1113.2031,1168.7969 Q1113.5938,1168.6406 1114.0156,1168.2031 Q1114.2813,1167.9375 1114.4219,1167.8594 Q1114.5781,1167.7813 1114.7813,1167.7813 Q1115.1094,1167.7813 1115.3594,1168.0469 Q1115.625,1168.2969 1115.625,1168.6406 Q1115.625,1168.9844 1115.2813,1169.3906 Q1114.7813,1169.9688 1113.9844,1170.2969 Q1112.9063,1170.75 1111.6094,1170.75 Q1110.0938,1170.75 1108.8906,1170.125 Q1107.9063,1169.625 1107.2188,1168.5625 Q1106.5313,1167.4844 1106.5313,1166.2031 L1106.5313,1165.0469 Q1106.5313,1163.7188 1107.1406,1162.5781 Q1107.7656,1161.4219 1108.8594,1160.8125 Q1109.9531,1160.1875 1111.1875,1160.1875 Q1111.9219,1160.1875 1112.5625,1160.3594 Q1113.2188,1160.5156 1113.7656,1160.875 Z " fill="#000000"/><text fill="#000000" font-family="sans-serif" font-size="14" lengthAdjust="spacing" textLength="26" x="1125" y="1170.7285">Item</text><line style="stroke:#181818;stroke-width:0.5;" x1="1097" x2="1153" y1="1181" y2="1181"/><line style="stroke:#181818;stroke-width:0.5;" x1="1097" x2="1153" y1="1189" y2="1189"/></g><!--class java.lang.Exception--><g id="elem_java.lang.Exception"><rect codeLine="88" fill="#F1F1F1" height="48" id="java.lang.Exception" rx="2.5" ry="2.5" style="stroke:#181818;stroke-width:0.5;" width="93" x="331.5" y="42"/><ellipse cx="346.5" cy="58" fill="#ADD1B2" rx="11" ry="11" style="stroke:#181818;stroke-width:1.0;"/><path d="M349.2656,53.875 Q349.4219,53.6563 349.6094,53.5469 Q349.7969,53.4375 350.0156,53.4375 Q350.3906,53.4375 350.625,53.7031 Q350.8594,53.9531 350.8594,54.5625 L350.8594,56.0156 Q350.8594,56.625 350.625,56.8906 Q350.3906,57.1563 350.0156,57.1563 Q349.6719,57.1563 349.4688,56.9531 Q349.2656,56.7656 349.1563,56.25 Q349.1094,55.8906 348.9219,55.7031 Q348.5938,55.3281 347.9844,55.1094 Q347.375,54.8906 346.75,54.8906 Q345.9844,54.8906 345.3438,55.2188 Q344.7188,55.5469 344.2188,56.2969 Q343.7344,57.0469 343.7344,58.0781 L343.7344,59.1719 Q343.7344,60.4063 344.625,61.2344 Q345.5156,62.0469 347.1094,62.0469 Q348.0469,62.0469 348.7031,61.7969 Q349.0938,61.6406 349.5156,61.2031 Q349.7813,60.9375 349.9219,60.8594 Q350.0781,60.7813 350.2813,60.7813 Q350.6094,60.7813 350.8594,61.0469 Q351.125,61.2969 351.125,61.6406 Q351.125,61.9844 350.7813,62.3906 Q350.2813,62.9688 349.4844,63.2969 Q348.4063,63.75 347.1094,63.75 Q345.5938,63.75 344.3906,63.125 Q343.4063,62.625 342.7188,61.5625 Q342.0313,60.4844 342.0313,59.2031 L342.0313,58.0469 Q342.0313,56.7188 342.6406,55.5781 Q343.2656,54.4219 344.3594,53.8125 Q345.4531,53.1875 346.6875,53.1875 Q347.4219,53.1875 348.0625,53.3594 Q348.7188,53.5156 349.2656,53.875 Z " fill="#000000"/><text fill="#000000" font-family="sans-serif" font-size="14" lengthAdjust="spacing" textLength="61" x="360.5" y="63.7285">Exception</text><line style="stroke:#181818;stroke-width:0.5;" x1="332.5" x2="423.5" y1="74" y2="74"/><line style="stroke:#181818;stroke-width:0.5;" x1="332.5" x2="423.5" y1="82" y2="82"/></g><!--link nz.ac.wgtn.swen225.lc.domain.Board to nz.ac.wgtn.swen225.lc.domain.tiles.Tile--><g id="link_nz.ac.wgtn.swen225.lc.domain.Board_nz.ac.wgtn.swen225.lc.domain.tiles.Tile"><path codeLine="76" d="M896.92,540.08 C875.32,599.57 839.88,678.19 789,734 C681.08,852.36 287.67,995.24 171,1105 C158.9,1116.38 148.21,1131.46 140.18,1144.43 " fill="none" id="nz.ac.wgtn.swen225.lc.domain.Board-to-nz.ac.wgtn.swen225.lc.domain.tiles.Tile" style="stroke:#181818;stroke-width:1.0;"/><polygon fill="#181818" points="137.56,1148.74,145.6563,1143.132,140.1597,1144.469,138.8227,1138.9724,137.56,1148.74" style="stroke:#181818;stroke-width:1.0;"/><text fill="#000000" font-family="sans-serif" font-size="13" lengthAdjust="spacing" textLength="24" x="681" y="929.4951">tiles</text><text fill="#000000" font-family="sans-serif" font-size="13" lengthAdjust="spacing" textLength="5" x="135.1379" y="1138.0135">*</text></g><!--link nz.ac.wgtn.swen225.lc.domain.Board to nz.ac.wgtn.swen225.lc.domain.Chap--><g id="link_nz.ac.wgtn.swen225.lc.domain.Board_nz.ac.wgtn.swen225.lc.domain.Chap"><path codeLine="77" d="M898.1,540.05 C881.32,601.54 860.73,687.14 852,764 C851.1,771.95 851.86,774 852,782 C852.14,790.01 852.33,798.28 852.55,806.6 " fill="none" id="nz.ac.wgtn.swen225.lc.domain.Board-to-nz.ac.wgtn.swen225.lc.domain.Chap" style="stroke:#181818;stroke-width:1.0;"/><polygon fill="#181818" points="852.69,811.79,856.4573,802.6902,852.5615,806.7917,848.46,802.8958,852.69,811.79" style="stroke:#181818;stroke-width:1.0;"/><text fill="#000000" font-family="sans-serif" font-size="13" lengthAdjust="spacing" textLength="28" x="853" y="778.4951">chap</text></g><!--link nz.ac.wgtn.swen225.lc.domain.Chap to nz.ac.wgtn.swen225.lc.domain.Board--><g id="link_nz.ac.wgtn.swen225.lc.domain.Chap_nz.ac.wgtn.swen225.lc.domain.Board"><path codeLine="81" d="M880.81,811.95 C882.69,801.85 884.45,791.75 886,782 C898.69,702.25 908.66,610.86 915.04,545.09 " fill="none" id="nz.ac.wgtn.swen225.lc.domain.Chap-to-nz.ac.wgtn.swen225.lc.domain.Board" style="stroke:#181818;stroke-width:1.0;"/><polygon fill="#181818" points="915.53,540,910.6738,548.5684,915.0438,544.9763,918.6359,549.3463,915.53,540" style="stroke:#181818;stroke-width:1.0;"/><text fill="#000000" font-family="sans-serif" font-size="13" lengthAdjust="spacing" textLength="32" x="889" y="778.4951">board</text></g><!--link nz.ac.wgtn.swen225.lc.domain.Chap to nz.ac.wgtn.swen225.lc.domain.Chap.State--><g id="link_nz.ac.wgtn.swen225.lc.domain.Chap_nz.ac.wgtn.swen225.lc.domain.Chap.State"><path codeLine="78" d="M822.36,1036.38 C820.2,1046.32 818.35,1056.3 817,1066 C815.9,1073.92 816.86,1076 817,1084 C817.14,1091.97 817.34,1100.35 817.58,1108.64 " fill="none" id="nz.ac.wgtn.swen225.lc.domain.Chap-to-nz.ac.wgtn.swen225.lc.domain.Chap.State" style="stroke:#181818;stroke-width:1.0;"/><polygon fill="#181818" points="817.74,1113.78,821.4545,1104.6585,817.5825,1108.7825,813.4585,1104.9105,817.74,1113.78" style="stroke:#181818;stroke-width:1.0;"/><text fill="#000000" font-family="sans-serif" font-size="13" lengthAdjust="spacing" textLength="29" x="818" y="1080.4951">state</text></g><!--reverse link nz.ac.wgtn.swen225.lc.domain.Chap to nz.ac.wgtn.swen225.lc.domain.Chap.State--><g id="link_nz.ac.wgtn.swen225.lc.domain.Chap_nz.ac.wgtn.swen225.lc.domain.Chap.State"><path codeLine="82" d="M856.69,1051.39 C855.55,1062.47 854.03,1073.47 852,1084 C850.13,1093.74 847.33,1103.83 844.15,1113.56 " fill="none" id="nz.ac.wgtn.swen225.lc.domain.Chap-backto-nz.ac.wgtn.swen225.lc.domain.Chap.State" style="stroke:#181818;stroke-width:1.0;"/><ellipse cx="857.3142" cy="1044.2406" fill="#FFFFFF" rx="8" ry="8" style="stroke:#181818;stroke-width:1.0;"/><line style="stroke:#181818;stroke-width:1.0;" x1="856.6284" x2="858" y1="1052.2111" y2="1036.27"/><line style="stroke:#181818;stroke-width:1.0;" x1="849.3436" x2="865.2847" y1="1043.5547" y2="1044.9264"/></g><!--link nz.ac.wgtn.swen225.lc.domain.Chap to nz.ac.wgtn.swen225.lc.domain.tiles.Free--><g id="link_nz.ac.wgtn.swen225.lc.domain.Chap_nz.ac.wgtn.swen225.lc.domain.tiles.Free"><path codeLine="79" d="M749.44,973.72 C666.49,1009.38 548.06,1056.21 440,1084 C374.8,1100.76 350.68,1075.86 290,1105 C270.73,1114.26 253.21,1130.66 240.4,1144.92 " fill="none" id="nz.ac.wgtn.swen225.lc.domain.Chap-to-nz.ac.wgtn.swen225.lc.domain.tiles.Free" style="stroke:#181818;stroke-width:1.0;"/><polygon fill="#181818" points="236.91,1148.87,245.8634,1144.7668,240.2176,1145.1204,239.8641,1139.4746,236.91,1148.87" style="stroke:#181818;stroke-width:1.0;"/><text fill="#000000" font-family="sans-serif" font-size="13" lengthAdjust="spacing" textLength="17" x="499" y="1080.4951">tile</text></g><!--link nz.ac.wgtn.swen225.lc.domain.Chap to nz.ac.wgtn.swen225.lc.domain.items.Item--><g id="link_nz.ac.wgtn.swen225.lc.domain.Chap_nz.ac.wgtn.swen225.lc.domain.items.Item"><path codeLine="80" d="M964.53,1021 C994.35,1047.96 1026.6,1077.44 1056,1105 C1069.91,1118.04 1085.14,1132.78 1097.74,1145.1 " fill="none" id="nz.ac.wgtn.swen225.lc.domain.Chap-to-nz.ac.wgtn.swen225.lc.domain.items.Item" style="stroke:#181818;stroke-width:1.0;"/><polygon fill="#181818" points="1101.57,1148.84,1097.9418,1139.6838,1097.9989,1145.3404,1092.3424,1145.3975,1101.57,1148.84" style="stroke:#181818;stroke-width:1.0;"/><text fill="#000000" font-family="sans-serif" font-size="13" lengthAdjust="spacing" textLength="51" x="1030" y="1080.4951">inventory</text><text fill="#000000" font-family="sans-serif" font-size="13" lengthAdjust="spacing" textLength="5" x="1089.9254" y="1138.1392">*</text></g><!--reverse link nz.ac.wgtn.swen225.lc.domain.Chap to nz.ac.wgtn.swen225.lc.domain.Chap.Direction--><g id="link_nz.ac.wgtn.swen225.lc.domain.Chap_nz.ac.wgtn.swen225.lc.domain.Chap.Direction"><path codeLine="83" d="M916.24,1050.06 C926.78,1072.32 937.29,1094.51 946.4,1113.74 " fill="none" id="nz.ac.wgtn.swen225.lc.domain.Chap-backto-nz.ac.wgtn.swen225.lc.domain.Chap.Direction" style="stroke:#181818;stroke-width:1.0;"/><ellipse cx="913.1076" cy="1043.4485" fill="#FFFFFF" rx="8" ry="8" style="stroke:#181818;stroke-width:1.0;"/><line style="stroke:#181818;stroke-width:1.0;" x1="916.5353" x2="909.68" y1="1050.677" y2="1036.22"/><line style="stroke:#181818;stroke-width:1.0;" x1="905.8791" x2="920.3361" y1="1046.8761" y2="1040.0209"/></g><!--reverse link java.lang.Exception to nz.ac.wgtn.swen225.lc.domain.IllegalMove--><g id="link_java.lang.Exception_nz.ac.wgtn.swen225.lc.domain.IllegalMove"><path codeLine="84" d="M378,110.1 C378,188.35 378,352.11 378,421.42 " fill="none" id="java.lang.Exception-backto-nz.ac.wgtn.swen225.lc.domain.IllegalMove" style="stroke:#181818;stroke-width:1.0;"/><polygon fill="none" points="371,110.02,378,90.02,385,110.02,371,110.02" style="stroke:#181818;stroke-width:1.0;"/></g><text fill="#888888" font-family="sans-serif" font-size="10" lengthAdjust="spacing" textLength="184" x="578.5" y="1264.3809">UMLDoclet 2.1.0, PlantUML 1.2022.14</text><!--SRC=[fLPHRzem47xlhx0wJGfhYRPAUq5L9KQWGwE0MX2RgZvuuHgyEdPa6zgkwt-VxK0QIXpJZGS7-pv_kVjyEHz2236SWinm38Zz3d4StYUAXV8UsCd9vv36uPodc33qT720rh-OOYdH5ux575rVssUuK2czkT4eLFeTMLlG8nGQMuPt0YIeYLuFpD1eePu0sDwRW6el5M_7YWiPQCY0I7LQB9tje2qTOUeOwK7ZpNm7D80LKCEcCHKCARXiDfI902oN0ZfyoTHhvFDhXJeBd6c1pCEXZp45bldOAf2xler9-Gg2Y0Y85U6iCYuyd_SLf84PDE0dvnGmsyO8C4HUs09BBoR6RCeeZ- -w3yIgK8dIJctaCfWL9_CTKR-xrFxXCemfVWInxpa0MwQrQHtQmxbIMC7cfEoa-hoUfBQH-1aTZORde_xmt64TjwTNtSXXx8mkneFkn6cFkkteFs8fCcKJJx7WYsawTdaqcWqTfa6tDt6OBlldNoVkZoEoFaz0AkteoyJneH2MPzfk5YczAIypJlE5Jlm1t2e_eayf99ZM0oz9ib1xGFOYY_WzyoFseffcFhkNPapYksds3HxTa0vcemnOnBce1J6ktegR2SwIsfVd_jMN5OFhBIdjinKmVL7Kq7NJJ3tkWJFgpHQwx8xnKa9DfdKePp33b7eWfjPx81xX34HBPU-yUjIcI7iW0rtFFR0-k-Kz0jGdWFzyredO5iaorU9x0tc5hzUcS7F8rILaLBSsynbHYqhHT-hI-bNco7LXAiqSbQc42AwK82nfL97dtLApUOOEFnpMbt6bfP2X4QI5xFyA4bFPMoZMOs6qtOQnxNdVjP0frV36_RbpHihSkTtjtlY8RYraQ1eCSs-lFxvT7XkiwItqOzjwr6pk6-I_R2mkp6BpBxp28SKi2RiFCMJsTZtzeybAXtzGEl2NbhhOMKgRFCzUc9vA-L8YYRKm8D0jv-OnlHX4FAQWq4duAVnuZ7GZn9HUHUzN8AJc2Hf_0G00]--></g></svg>