<?xml version="1.0" encoding="UTF-8" standalone="no"?><svg xmlns="http://www.w3.org/2000/svg" xmlns:xlink="http://www.w3.org/1999/xlink" contentScriptType="application/ecmascript" contentStyleType="text/css" height="1109px" preserveAspectRatio="none" style="width:1237px;height:1109px;background:#FFFFFF;" version="1.1" viewBox="0 0 1237 1109" width="1237px" zoomAndPan="magnify"><defs><filter height="300%" id="fcic3mi6jeq88" width="300%" x="-1" y="-1"><feGaussianBlur result="blurOut" stdDeviation="2.0"/><feColorMatrix in="blurOut" result="blurOut2" type="matrix" values="0 0 0 0 0 0 0 0 0 0 0 0 0 0 0 0 0 0 .4 0"/><feOffset dx="4.0" dy="4.0" in="blurOut2" result="blurOut3"/><feBlend in="SourceGraphic" in2="blurOut3" mode="normal"/></filter></defs><g><!--MD5=[a8970189bb39a092ded2bf845e77f238]
cluster nz.ac.wgtn.swen225.lc.domain--><polygon fill="#FFFFFF" filter="url(#fcic3mi6jeq88)" points="300,139,516,139,523,162.6094,928,162.6094,928,1085,300,1085,300,139" style="stroke:#000000;stroke-width:1.5;"/><line style="stroke:#000000;stroke-width:1.5;" x1="300" x2="523" y1="162.6094" y2="162.6094"/><text fill="#000000" font-family="sans-serif" font-size="14" font-weight="bold" lengthAdjust="spacing" textLength="210" x="304" y="155.5332">nz.ac.wgtn.swen225.lc.domain</text><!--MD5=[10809eba07f71533df2cabafc6025fd9]
cluster nz.ac.wgtn.swen225.lc.domain.tiles--><polygon fill="#FFFFFF" filter="url(#fcic3mi6jeq88)" points="16,957.5,266,957.5,273,981.1094,276,981.1094,276,1057.5,16,1057.5,16,957.5" style="stroke:#000000;stroke-width:1.5;"/><line style="stroke:#000000;stroke-width:1.5;" x1="16" x2="273" y1="981.1094" y2="981.1094"/><text fill="#000000" font-family="sans-serif" font-size="14" font-weight="bold" lengthAdjust="spacing" textLength="244" x="20" y="974.0332">nz.ac.wgtn.swen225.lc.domain.tiles</text><!--MD5=[2de5152d42c23948cff72f7687e4fe38]
cluster nz.ac.wgtn.swen225.lc.domain.items--><polygon fill="#FFFFFF" filter="url(#fcic3mi6jeq88)" points="952,957.5,1210,957.5,1217,981.1094,1220,981.1094,1220,1057.5,952,1057.5,952,957.5" style="stroke:#000000;stroke-width:1.5;"/><line style="stroke:#000000;stroke-width:1.5;" x1="952" x2="1217" y1="981.1094" y2="981.1094"/><text fill="#000000" font-family="sans-serif" font-size="14" font-weight="bold" lengthAdjust="spacing" textLength="252" x="956" y="974.0332">nz.ac.wgtn.swen225.lc.domain.items</text><!--MD5=[aa8f7b917213fcc1c2766e2d59b49067]
cluster java.lang--><polygon fill="#FFFFFF" filter="url(#fcic3mi6jeq88)" points="314,6,383,6,390,29.6094,432,29.6094,432,106,314,106,314,6" style="stroke:#000000;stroke-width:1.5;"/><line style="stroke:#000000;stroke-width:1.5;" x1="314" x2="390" y1="29.6094" y2="29.6094"/><text fill="#000000" font-family="sans-serif" font-size="14" font-weight="bold" lengthAdjust="spacing" textLength="63" x="318" y="22.5332">java.lang</text><!--MD5=[8c3c4742037a1c2996560502d672c845]
class nz.ac.wgtn.swen225.lc.domain.Board--><a href="Board.html" target="_top" title="Board.html" xlink:actuate="onRequest" xlink:href="Board.html" xlink:show="new" xlink:title="Board.html" xlink:type="simple"><rect codeLine="3" fill="#FEFECE" filter="url(#fcic3mi6jeq88)" height="144.8516" id="nz.ac.wgtn.swen225.lc.domain.Board" style="stroke:#A80036;stroke-width:1.5;" width="190" x="722" y="327"/><ellipse cx="796.25" cy="343" fill="#ADD1B2" rx="11" ry="11" style="stroke:#A80036;stroke-width:1.0;"/><path d="M799.0156,338.875 Q799.1719,338.6563 799.3594,338.5469 Q799.5469,338.4375 799.7656,338.4375 Q800.1406,338.4375 800.375,338.7031 Q800.6094,338.9531 800.6094,339.5625 L800.6094,341.0156 Q800.6094,341.625 800.375,341.8906 Q800.1406,342.1563 799.7656,342.1563 Q799.4219,342.1563 799.2188,341.9531 Q799.0156,341.7656 798.9063,341.25 Q798.8594,340.8906 798.6719,340.7031 Q798.3438,340.3281 797.7344,340.1094 Q797.125,339.8906 796.5,339.8906 Q795.7344,339.8906 795.0938,340.2188 Q794.4688,340.5469 793.9688,341.2969 Q793.4844,342.0469 793.4844,343.0781 L793.4844,344.1719 Q793.4844,345.4063 794.375,346.2344 Q795.2656,347.0469 796.8594,347.0469 Q797.7969,347.0469 798.4531,346.7969 Q798.8438,346.6406 799.2656,346.2031 Q799.5313,345.9375 799.6719,345.8594 Q799.8281,345.7813 800.0313,345.7813 Q800.3594,345.7813 800.6094,346.0469 Q800.875,346.2969 800.875,346.6406 Q800.875,346.9844 800.5313,347.3906 Q800.0313,347.9688 799.2344,348.2969 Q798.1563,348.75 796.8594,348.75 Q795.3438,348.75 794.1406,348.125 Q793.1563,347.625 792.4688,346.5625 Q791.7813,345.4844 791.7813,344.2031 L791.7813,343.0469 Q791.7813,341.7188 792.3906,340.5781 Q793.0156,339.4219 794.1094,338.8125 Q795.2031,338.1875 796.4375,338.1875 Q797.1719,338.1875 797.8125,338.3594 Q798.4688,338.5156 799.0156,338.875 Z " fill="#000000"/><text fill="#000000" font-family="sans-serif" font-size="12" lengthAdjust="spacing" textLength="33" x="816.75" y="347.9102">Board</text><line style="stroke:#A80036;stroke-width:1.5;" x1="723" x2="911" y1="359" y2="359"/><line style="stroke:#A80036;stroke-width:1.5;" x1="723" x2="911" y1="367" y2="367"/><ellipse cx="733" cy="378" fill="#84BE84" rx="3" ry="3" style="stroke:#038048;stroke-width:1.0;"/><text fill="#000000" font-family="sans-serif" font-size="11" lengthAdjust="spacing" textLength="53" x="742" y="382.4189">Board(File)</text><polygon fill="#FFFF44" points="733,386.8359,737,390.8359,733,394.8359,729,390.8359" style="stroke:#B38D22;stroke-width:1.0;"/><text fill="#000000" font-family="sans-serif" font-size="11" lengthAdjust="spacing" textLength="93" x="742" y="396.2549">resetTile(Tile): Free</text><ellipse cx="733" cy="405.6719" fill="#84BE84" rx="3" ry="3" style="stroke:#038048;stroke-width:1.0;"/><text fill="#000000" font-family="sans-serif" font-size="11" lengthAdjust="spacing" textLength="164" x="742" y="410.0908">getAutoActors(): List&lt;AutoActor&gt;</text><ellipse cx="733" cy="419.5078" fill="#84BE84" rx="3" ry="3" style="stroke:#038048;stroke-width:1.0;"/><text fill="#000000" font-family="sans-serif" font-size="11" lengthAdjust="spacing" textLength="89" x="742" y="423.9268">getTile(int, int): Tile</text><ellipse cx="733" cy="433.3438" fill="#84BE84" rx="3" ry="3" style="stroke:#038048;stroke-width:1.0;"/><text fill="#000000" font-family="sans-serif" font-size="11" lengthAdjust="spacing" textLength="66" x="742" y="437.7627">getLevel(): int</text><ellipse cx="733" cy="447.1797" fill="#84BE84" rx="3" ry="3" style="stroke:#038048;stroke-width:1.0;"/><text fill="#000000" font-family="sans-serif" font-size="11" lengthAdjust="spacing" textLength="62" x="742" y="451.5986">getTime(): int</text><ellipse cx="733" cy="461.0156" fill="#84BE84" rx="3" ry="3" style="stroke:#038048;stroke-width:1.0;"/><text fill="#000000" font-family="sans-serif" font-size="11" lengthAdjust="spacing" textLength="141" x="742" y="465.4346">getBoardTreasureCount(): int</text></a><!--MD5=[a432de8e576bd65c39c91dcbb783f2e6]
class nz.ac.wgtn.swen225.lc.domain.Chap--><a href="Chap.html" target="_top" title="Chap.html" xlink:actuate="onRequest" xlink:href="Chap.html" xlink:show="new" xlink:title="Chap.html" xlink:type="simple"><rect codeLine="13" fill="#FEFECE" filter="url(#fcic3mi6jeq88)" height="186.3594" id="nz.ac.wgtn.swen225.lc.domain.Chap" style="stroke:#A80036;stroke-width:1.5;" width="168" x="667" y="702"/><ellipse cx="731.75" cy="718" fill="#ADD1B2" rx="11" ry="11" style="stroke:#A80036;stroke-width:1.0;"/><path d="M734.5156,713.875 Q734.6719,713.6563 734.8594,713.5469 Q735.0469,713.4375 735.2656,713.4375 Q735.6406,713.4375 735.875,713.7031 Q736.1094,713.9531 736.1094,714.5625 L736.1094,716.0156 Q736.1094,716.625 735.875,716.8906 Q735.6406,717.1563 735.2656,717.1563 Q734.9219,717.1563 734.7188,716.9531 Q734.5156,716.7656 734.4063,716.25 Q734.3594,715.8906 734.1719,715.7031 Q733.8438,715.3281 733.2344,715.1094 Q732.625,714.8906 732,714.8906 Q731.2344,714.8906 730.5938,715.2188 Q729.9688,715.5469 729.4688,716.2969 Q728.9844,717.0469 728.9844,718.0781 L728.9844,719.1719 Q728.9844,720.4063 729.875,721.2344 Q730.7656,722.0469 732.3594,722.0469 Q733.2969,722.0469 733.9531,721.7969 Q734.3438,721.6406 734.7656,721.2031 Q735.0313,720.9375 735.1719,720.8594 Q735.3281,720.7813 735.5313,720.7813 Q735.8594,720.7813 736.1094,721.0469 Q736.375,721.2969 736.375,721.6406 Q736.375,721.9844 736.0313,722.3906 Q735.5313,722.9688 734.7344,723.2969 Q733.6563,723.75 732.3594,723.75 Q730.8438,723.75 729.6406,723.125 Q728.6563,722.625 727.9688,721.5625 Q727.2813,720.4844 727.2813,719.2031 L727.2813,718.0469 Q727.2813,716.7188 727.8906,715.5781 Q728.5156,714.4219 729.6094,713.8125 Q730.7031,713.1875 731.9375,713.1875 Q732.6719,713.1875 733.3125,713.3594 Q733.9688,713.5156 734.5156,713.875 Z " fill="#000000"/><text fill="#000000" font-family="sans-serif" font-size="12" lengthAdjust="spacing" textLength="30" x="752.25" y="722.9102">Chap</text><line style="stroke:#A80036;stroke-width:1.5;" x1="668" x2="834" y1="734" y2="734"/><line style="stroke:#A80036;stroke-width:1.5;" x1="668" x2="834" y1="742" y2="742"/><ellipse cx="678" cy="753" fill="#84BE84" rx="3" ry="3" style="stroke:#038048;stroke-width:1.0;"/><text fill="#000000" font-family="sans-serif" font-size="11" lengthAdjust="spacing" textLength="107" x="687" y="757.4189">Chap(Board, Free, int)</text><ellipse cx="678" cy="766.8359" fill="#84BE84" rx="3" ry="3" style="stroke:#038048;stroke-width:1.0;"/><text fill="#000000" font-family="sans-serif" font-size="11" lengthAdjust="spacing" textLength="98" x="687" y="771.2549">move(Direction): Tile</text><ellipse cx="678" cy="780.6719" fill="#84BE84" rx="3" ry="3" style="stroke:#038048;stroke-width:1.0;"/><text fill="#000000" font-family="sans-serif" font-size="11" lengthAdjust="spacing" textLength="108" x="687" y="785.0908">addItem(Item): boolean</text><ellipse cx="678" cy="794.5078" fill="#84BE84" rx="3" ry="3" style="stroke:#038048;stroke-width:1.0;"/><text fill="#000000" font-family="sans-serif" font-size="11" lengthAdjust="spacing" textLength="126" x="687" y="798.9268">removeItem(Item): boolean</text><ellipse cx="678" cy="808.3438" fill="#84BE84" rx="3" ry="3" style="stroke:#038048;stroke-width:1.0;"/><text fill="#000000" font-family="sans-serif" font-size="11" lengthAdjust="spacing" textLength="108" x="687" y="812.7627">hasItem(Item): boolean</text><ellipse cx="678" cy="822.1797" fill="#84BE84" rx="3" ry="3" style="stroke:#038048;stroke-width:1.0;"/><text fill="#000000" font-family="sans-serif" font-size="11" lengthAdjust="spacing" textLength="119" x="687" y="826.5986">canUnlockExit(): boolean</text><ellipse cx="678" cy="836.0156" fill="#84BE84" rx="3" ry="3" style="stroke:#038048;stroke-width:1.0;"/><text fill="#000000" font-family="sans-serif" font-size="11" lengthAdjust="spacing" textLength="96" x="687" y="840.4346">addTreasure(): void</text><ellipse cx="678" cy="849.8516" fill="#84BE84" rx="3" ry="3" style="stroke:#038048;stroke-width:1.0;"/><text fill="#000000" font-family="sans-serif" font-size="11" lengthAdjust="spacing" textLength="47" x="687" y="854.2705">getX(): int</text><ellipse cx="678" cy="863.6875" fill="#84BE84" rx="3" ry="3" style="stroke:#038048;stroke-width:1.0;"/><text fill="#000000" font-family="sans-serif" font-size="11" lengthAdjust="spacing" textLength="48" x="687" y="868.1064">getY(): int</text><ellipse cx="678" cy="877.5234" fill="#84BE84" rx="3" ry="3" style="stroke:#038048;stroke-width:1.0;"/><text fill="#000000" font-family="sans-serif" font-size="11" lengthAdjust="spacing" textLength="142" x="687" y="881.9424">getPlayerTreasureCount(): int</text></a><!--MD5=[88e60c564a3b2c176a47d4f878f8db1c]
class nz.ac.wgtn.swen225.lc.domain.Chap.State--><a href="Chap.State.html" target="_top" title="Chap.State.html" xlink:actuate="onRequest" xlink:href="Chap.State.html" xlink:show="new" xlink:title="Chap.State.html" xlink:type="simple"><rect codeLine="26" fill="#FEFECE" filter="url(#fcic3mi6jeq88)" height="103.3438" id="nz.ac.wgtn.swen225.lc.domain.Chap.State" style="stroke:#A80036;stroke-width:1.5;" width="93" x="667.5" y="966"/><ellipse cx="682.5" cy="982" fill="#EB937F" rx="11" ry="11" style="stroke:#A80036;stroke-width:1.0;"/><path d="M681.3594,982.7969 L681.3594,985.2969 L685.6875,985.2969 L685.6875,984.375 Q685.6875,983.7656 685.9219,983.5 Q686.1719,983.2344 686.5469,983.2344 Q686.9219,983.2344 687.1563,983.5 Q687.3906,983.7656 687.3906,984.375 L687.3906,987 L679.3906,987 Q678.7656,987 678.5,986.7656 Q678.25,986.5313 678.25,986.1406 Q678.25,985.7656 678.5156,985.5313 Q678.7813,985.2969 679.3906,985.2969 L679.6563,985.2969 L679.6563,978.6406 L679.3906,978.6406 Q678.7656,978.6406 678.5,978.4063 Q678.25,978.1719 678.25,977.7813 Q678.25,977.4063 678.5,977.1719 Q678.7656,976.9375 679.3906,976.9375 L687.0156,976.9375 L687.0156,979.5313 Q687.0156,980.1406 686.7813,980.4063 Q686.5625,980.6563 686.1719,980.6563 Q685.7969,980.6563 685.5625,980.4063 Q685.3281,980.1406 685.3281,979.5313 L685.3281,978.6406 L681.3594,978.6406 L681.3594,981.0938 L682.8438,981.0938 Q682.8438,980.4375 682.9688,980.25 Q683.2344,979.8438 683.7031,979.8438 Q684.0781,979.8438 684.3125,980.1094 Q684.5469,980.3594 684.5469,980.9688 L684.5469,982.9375 Q684.5469,983.4844 684.4219,983.6719 Q684.1563,984.0625 683.7031,984.0625 Q683.2344,984.0625 682.9688,983.6563 Q682.8438,983.4688 682.8438,982.7969 L681.3594,982.7969 Z " fill="#000000"/><text fill="#000000" font-family="sans-serif" font-size="12" lengthAdjust="spacing" textLength="61" x="696.5" y="986.9102">Chap.State</text><line style="stroke:#A80036;stroke-width:1.5;" x1="668.5" x2="759.5" y1="998" y2="998"/><ellipse cx="678.5" cy="1009" rx="3" ry="3" style="stroke:#038048;stroke-width:1.0;fill:none;"/><text fill="#000000" font-family="sans-serif" font-size="11" lengthAdjust="spacing" text-decoration="underline" textLength="48" x="687.5" y="1013.4189">ONGOING</text><ellipse cx="678.5" cy="1022.8359" rx="3" ry="3" style="stroke:#038048;stroke-width:1.0;fill:none;"/><text fill="#000000" font-family="sans-serif" font-size="11" lengthAdjust="spacing" text-decoration="underline" textLength="41" x="687.5" y="1027.2549">PAUSED</text><ellipse cx="678.5" cy="1036.6719" rx="3" ry="3" style="stroke:#038048;stroke-width:1.0;fill:none;"/><text fill="#000000" font-family="sans-serif" font-size="11" lengthAdjust="spacing" text-decoration="underline" textLength="60" x="687.5" y="1041.0908">COMPLETED</text><ellipse cx="678.5" cy="1050.5078" rx="3" ry="3" style="stroke:#038048;stroke-width:1.0;fill:none;"/><text fill="#000000" font-family="sans-serif" font-size="11" lengthAdjust="spacing" text-decoration="underline" textLength="28" x="687.5" y="1054.9268">DEAD</text><line style="stroke:#A80036;stroke-width:1.5;" x1="668.5" x2="759.5" y1="1061.3438" y2="1061.3438"/></a><!--MD5=[2705da881d125b32fc41d8eb57393c2c]
class nz.ac.wgtn.swen225.lc.domain.Chap.Direction--><a href="Chap.Direction.html" target="_top" title="Chap.Direction.html" xlink:actuate="onRequest" xlink:href="Chap.Direction.html" xlink:show="new" xlink:title="Chap.Direction.html" xlink:type="simple"><rect codeLine="33" fill="#FEFECE" filter="url(#fcic3mi6jeq88)" height="103.3438" id="nz.ac.wgtn.swen225.lc.domain.Chap.Direction" style="stroke:#A80036;stroke-width:1.5;" width="114" x="796" y="966"/><ellipse cx="811" cy="982" fill="#EB937F" rx="11" ry="11" style="stroke:#A80036;stroke-width:1.0;"/><path d="M809.8594,982.7969 L809.8594,985.2969 L814.1875,985.2969 L814.1875,984.375 Q814.1875,983.7656 814.4219,983.5 Q814.6719,983.2344 815.0469,983.2344 Q815.4219,983.2344 815.6563,983.5 Q815.8906,983.7656 815.8906,984.375 L815.8906,987 L807.8906,987 Q807.2656,987 807,986.7656 Q806.75,986.5313 806.75,986.1406 Q806.75,985.7656 807.0156,985.5313 Q807.2813,985.2969 807.8906,985.2969 L808.1563,985.2969 L808.1563,978.6406 L807.8906,978.6406 Q807.2656,978.6406 807,978.4063 Q806.75,978.1719 806.75,977.7813 Q806.75,977.4063 807,977.1719 Q807.2656,976.9375 807.8906,976.9375 L815.5156,976.9375 L815.5156,979.5313 Q815.5156,980.1406 815.2813,980.4063 Q815.0625,980.6563 814.6719,980.6563 Q814.2969,980.6563 814.0625,980.4063 Q813.8281,980.1406 813.8281,979.5313 L813.8281,978.6406 L809.8594,978.6406 L809.8594,981.0938 L811.3438,981.0938 Q811.3438,980.4375 811.4688,980.25 Q811.7344,979.8438 812.2031,979.8438 Q812.5781,979.8438 812.8125,980.1094 Q813.0469,980.3594 813.0469,980.9688 L813.0469,982.9375 Q813.0469,983.4844 812.9219,983.6719 Q812.6563,984.0625 812.2031,984.0625 Q811.7344,984.0625 811.4688,983.6563 Q811.3438,983.4688 811.3438,982.7969 L809.8594,982.7969 Z " fill="#000000"/><text fill="#000000" font-family="sans-serif" font-size="12" lengthAdjust="spacing" textLength="82" x="825" y="986.9102">Chap.Direction</text><line style="stroke:#A80036;stroke-width:1.5;" x1="797" x2="909" y1="998" y2="998"/><ellipse cx="807" cy="1009" rx="3" ry="3" style="stroke:#038048;stroke-width:1.0;fill:none;"/><text fill="#000000" font-family="sans-serif" font-size="11" lengthAdjust="spacing" text-decoration="underline" textLength="13" x="816" y="1013.4189">UP</text><ellipse cx="807" cy="1022.8359" rx="3" ry="3" style="stroke:#038048;stroke-width:1.0;fill:none;"/><text fill="#000000" font-family="sans-serif" font-size="11" lengthAdjust="spacing" text-decoration="underline" textLength="32" x="816" y="1027.2549">DOWN</text><ellipse cx="807" cy="1036.6719" rx="3" ry="3" style="stroke:#038048;stroke-width:1.0;fill:none;"/><text fill="#000000" font-family="sans-serif" font-size="11" lengthAdjust="spacing" text-decoration="underline" textLength="24" x="816" y="1041.0908">LEFT</text><ellipse cx="807" cy="1050.5078" rx="3" ry="3" style="stroke:#038048;stroke-width:1.0;fill:none;"/><text fill="#000000" font-family="sans-serif" font-size="11" lengthAdjust="spacing" text-decoration="underline" textLength="30" x="816" y="1054.9268">RIGHT</text><line style="stroke:#A80036;stroke-width:1.5;" x1="797" x2="909" y1="1061.3438" y2="1061.3438"/></a><!--MD5=[ded18389382344912cbae1820c762940]
class nz.ac.wgtn.swen225.lc.domain.DomainTest--><a href="DomainTest.html" target="_top" title="DomainTest.html" xlink:actuate="onRequest" xlink:href="DomainTest.html" xlink:show="new" xlink:title="DomainTest.html" xlink:type="simple"><rect codeLine="40" fill="#FEFECE" filter="url(#fcic3mi6jeq88)" height="449.2422" id="nz.ac.wgtn.swen225.lc.domain.DomainTest" style="stroke:#A80036;stroke-width:1.5;" width="222" x="465" y="175"/><ellipse cx="537.75" cy="191" fill="#ADD1B2" rx="11" ry="11" style="stroke:#A80036;stroke-width:1.0;"/><path d="M540.5156,186.875 Q540.6719,186.6563 540.8594,186.5469 Q541.0469,186.4375 541.2656,186.4375 Q541.6406,186.4375 541.875,186.7031 Q542.1094,186.9531 542.1094,187.5625 L542.1094,189.0156 Q542.1094,189.625 541.875,189.8906 Q541.6406,190.1563 541.2656,190.1563 Q540.9219,190.1563 540.7188,189.9531 Q540.5156,189.7656 540.4063,189.25 Q540.3594,188.8906 540.1719,188.7031 Q539.8438,188.3281 539.2344,188.1094 Q538.625,187.8906 538,187.8906 Q537.2344,187.8906 536.5938,188.2188 Q535.9688,188.5469 535.4688,189.2969 Q534.9844,190.0469 534.9844,191.0781 L534.9844,192.1719 Q534.9844,193.4063 535.875,194.2344 Q536.7656,195.0469 538.3594,195.0469 Q539.2969,195.0469 539.9531,194.7969 Q540.3438,194.6406 540.7656,194.2031 Q541.0313,193.9375 541.1719,193.8594 Q541.3281,193.7813 541.5313,193.7813 Q541.8594,193.7813 542.1094,194.0469 Q542.375,194.2969 542.375,194.6406 Q542.375,194.9844 542.0313,195.3906 Q541.5313,195.9688 540.7344,196.2969 Q539.6563,196.75 538.3594,196.75 Q536.8438,196.75 535.6406,196.125 Q534.6563,195.625 533.9688,194.5625 Q533.2813,193.4844 533.2813,192.2031 L533.2813,191.0469 Q533.2813,189.7188 533.8906,188.5781 Q534.5156,187.4219 535.6094,186.8125 Q536.7031,186.1875 537.9375,186.1875 Q538.6719,186.1875 539.3125,186.3594 Q539.9688,186.5156 540.5156,186.875 Z " fill="#000000"/><text fill="#000000" font-family="sans-serif" font-size="12" lengthAdjust="spacing" textLength="68" x="558.25" y="195.9102">DomainTest</text><line style="stroke:#A80036;stroke-width:1.5;" x1="466" x2="686" y1="207" y2="207"/><line style="stroke:#A80036;stroke-width:1.5;" x1="466" x2="686" y1="215" y2="215"/><ellipse cx="476" cy="226" fill="#84BE84" rx="3" ry="3" style="stroke:#038048;stroke-width:1.0;"/><text fill="#000000" font-family="sans-serif" font-size="11" lengthAdjust="spacing" textLength="47" x="485" y="230.4189">init(): void</text><ellipse cx="476" cy="239.8359" fill="#84BE84" rx="3" ry="3" style="stroke:#038048;stroke-width:1.0;"/><text fill="#000000" font-family="sans-serif" font-size="11" lengthAdjust="spacing" textLength="81" x="485" y="244.2549">testBoard(): void</text><ellipse cx="476" cy="253.6719" fill="#84BE84" rx="3" ry="3" style="stroke:#038048;stroke-width:1.0;"/><text fill="#000000" font-family="sans-serif" font-size="11" lengthAdjust="spacing" textLength="97" x="485" y="258.0908">testMoveLeft(): void</text><ellipse cx="476" cy="267.5078" fill="#84BE84" rx="3" ry="3" style="stroke:#038048;stroke-width:1.0;"/><text fill="#000000" font-family="sans-serif" font-size="11" lengthAdjust="spacing" textLength="123" x="485" y="271.9268">testMoveLeftIllegal(): void</text><ellipse cx="476" cy="281.3438" fill="#84BE84" rx="3" ry="3" style="stroke:#038048;stroke-width:1.0;"/><text fill="#000000" font-family="sans-serif" font-size="11" lengthAdjust="spacing" textLength="102" x="485" y="285.7627">testMoveRight(): void</text><ellipse cx="476" cy="295.1797" fill="#84BE84" rx="3" ry="3" style="stroke:#038048;stroke-width:1.0;"/><text fill="#000000" font-family="sans-serif" font-size="11" lengthAdjust="spacing" textLength="128" x="485" y="299.5986">testMoveRightIllegal(): void</text><ellipse cx="476" cy="309.0156" fill="#84BE84" rx="3" ry="3" style="stroke:#038048;stroke-width:1.0;"/><text fill="#000000" font-family="sans-serif" font-size="11" lengthAdjust="spacing" textLength="107" x="485" y="313.4346">testMoveDown(): void</text><ellipse cx="476" cy="322.8516" fill="#84BE84" rx="3" ry="3" style="stroke:#038048;stroke-width:1.0;"/><text fill="#000000" font-family="sans-serif" font-size="11" lengthAdjust="spacing" textLength="133" x="485" y="327.2705">testMoveDownIllegal(): void</text><ellipse cx="476" cy="336.6875" fill="#84BE84" rx="3" ry="3" style="stroke:#038048;stroke-width:1.0;"/><text fill="#000000" font-family="sans-serif" font-size="11" lengthAdjust="spacing" textLength="91" x="485" y="341.1064">testMoveUp(): void</text><ellipse cx="476" cy="350.5234" fill="#84BE84" rx="3" ry="3" style="stroke:#038048;stroke-width:1.0;"/><text fill="#000000" font-family="sans-serif" font-size="11" lengthAdjust="spacing" textLength="117" x="485" y="354.9424">testMoveUpIllegal(): void</text><ellipse cx="476" cy="364.3594" fill="#84BE84" rx="3" ry="3" style="stroke:#038048;stroke-width:1.0;"/><text fill="#000000" font-family="sans-serif" font-size="11" lengthAdjust="spacing" textLength="103" x="485" y="368.7783">testPickUpKey(): void</text><ellipse cx="476" cy="378.1953" fill="#84BE84" rx="3" ry="3" style="stroke:#038048;stroke-width:1.0;"/><text fill="#000000" font-family="sans-serif" font-size="11" lengthAdjust="spacing" textLength="120" x="485" y="382.6143">testCanOpenDoor(): void</text><ellipse cx="476" cy="392.0313" fill="#84BE84" rx="3" ry="3" style="stroke:#038048;stroke-width:1.0;"/><text fill="#000000" font-family="sans-serif" font-size="11" lengthAdjust="spacing" textLength="135" x="485" y="396.4502">testCannotOpenDoor(): void</text><ellipse cx="476" cy="405.8672" fill="#84BE84" rx="3" ry="3" style="stroke:#038048;stroke-width:1.0;"/><text fill="#000000" font-family="sans-serif" font-size="11" lengthAdjust="spacing" textLength="186" x="485" y="410.2861">testCannotOpenDoorWrongKey(): void</text><ellipse cx="476" cy="419.7031" fill="#84BE84" rx="3" ry="3" style="stroke:#038048;stroke-width:1.0;"/><text fill="#000000" font-family="sans-serif" font-size="11" lengthAdjust="spacing" textLength="128" x="485" y="424.1221">testPickUpTreasure(): void</text><ellipse cx="476" cy="433.5391" fill="#84BE84" rx="3" ry="3" style="stroke:#038048;stroke-width:1.0;"/><text fill="#000000" font-family="sans-serif" font-size="11" lengthAdjust="spacing" textLength="113" x="485" y="437.958">testFullInventory(): void</text><ellipse cx="476" cy="447.375" fill="#84BE84" rx="3" ry="3" style="stroke:#038048;stroke-width:1.0;"/><text fill="#000000" font-family="sans-serif" font-size="11" lengthAdjust="spacing" textLength="126" x="485" y="451.7939">testEmptyInventory(): void</text><ellipse cx="476" cy="461.2109" fill="#84BE84" rx="3" ry="3" style="stroke:#038048;stroke-width:1.0;"/><text fill="#000000" font-family="sans-serif" font-size="11" lengthAdjust="spacing" textLength="140" x="485" y="465.6299">testMoveWhilePaused(): void</text><ellipse cx="476" cy="475.0469" fill="#84BE84" rx="3" ry="3" style="stroke:#038048;stroke-width:1.0;"/><text fill="#000000" font-family="sans-serif" font-size="11" lengthAdjust="spacing" textLength="99" x="485" y="479.4658">testCloneWall(): void</text><ellipse cx="476" cy="488.8828" fill="#84BE84" rx="3" ry="3" style="stroke:#038048;stroke-width:1.0;"/><text fill="#000000" font-family="sans-serif" font-size="11" lengthAdjust="spacing" textLength="101" x="485" y="493.3018">testCloneFree(): void</text><ellipse cx="476" cy="502.7188" fill="#84BE84" rx="3" ry="3" style="stroke:#038048;stroke-width:1.0;"/><text fill="#000000" font-family="sans-serif" font-size="11" lengthAdjust="spacing" textLength="102" x="485" y="507.1377">testCloneDoor(): void</text><ellipse cx="476" cy="516.5547" fill="#84BE84" rx="3" ry="3" style="stroke:#038048;stroke-width:1.0;"/><text fill="#000000" font-family="sans-serif" font-size="11" lengthAdjust="spacing" textLength="114" x="485" y="520.9736">testCloneKeyTile(): void</text><ellipse cx="476" cy="530.3906" fill="#84BE84" rx="3" ry="3" style="stroke:#038048;stroke-width:1.0;"/><text fill="#000000" font-family="sans-serif" font-size="11" lengthAdjust="spacing" textLength="96" x="485" y="534.8096">testCloneExit(): void</text><ellipse cx="476" cy="544.2266" fill="#84BE84" rx="3" ry="3" style="stroke:#038048;stroke-width:1.0;"/><text fill="#000000" font-family="sans-serif" font-size="11" lengthAdjust="spacing" textLength="119" x="485" y="548.6455">testCloneExitLock(): void</text><ellipse cx="476" cy="558.0625" fill="#84BE84" rx="3" ry="3" style="stroke:#038048;stroke-width:1.0;"/><text fill="#000000" font-family="sans-serif" font-size="11" lengthAdjust="spacing" textLength="119" x="485" y="562.4814">testCloneInfoField(): void</text><ellipse cx="476" cy="571.8984" fill="#84BE84" rx="3" ry="3" style="stroke:#038048;stroke-width:1.0;"/><text fill="#000000" font-family="sans-serif" font-size="11" lengthAdjust="spacing" textLength="123" x="485" y="576.3174">testCloneTreasure(): void</text><ellipse cx="476" cy="585.7344" fill="#84BE84" rx="3" ry="3" style="stroke:#038048;stroke-width:1.0;"/><text fill="#000000" font-family="sans-serif" font-size="11" lengthAdjust="spacing" textLength="160" x="485" y="590.1533">testIllegalArgumentKeyTile(): void</text><ellipse cx="476" cy="599.5703" fill="#84BE84" rx="3" ry="3" style="stroke:#038048;stroke-width:1.0;"/><text fill="#000000" font-family="sans-serif" font-size="11" lengthAdjust="spacing" textLength="148" x="485" y="603.9893">testIllegalArgumentDoor(): void</text><ellipse cx="476" cy="613.4063" fill="#84BE84" rx="3" ry="3" style="stroke:#038048;stroke-width:1.0;"/><text fill="#000000" font-family="sans-serif" font-size="11" lengthAdjust="spacing" textLength="196" x="485" y="617.8252">testInfoFieldNotReplacedWithFree(): void</text></a><!--MD5=[0381bfc557782767b77a4a6d26ead892]
class nz.ac.wgtn.swen225.lc.domain.IllegalMove--><a href="IllegalMove.html" target="_top" title="IllegalMove.html" xlink:actuate="onRequest" xlink:href="IllegalMove.html" xlink:show="new" xlink:title="IllegalMove.html" xlink:type="simple"><rect codeLine="72" fill="#FEFECE" filter="url(#fcic3mi6jeq88)" height="61.8359" id="nz.ac.wgtn.swen225.lc.domain.IllegalMove" style="stroke:#A80036;stroke-width:1.5;" width="114" x="316" y="368.5"/><ellipse cx="340.45" cy="384.5" fill="#ADD1B2" rx="11" ry="11" style="stroke:#A80036;stroke-width:1.0;"/><path d="M343.2156,380.375 Q343.3719,380.1563 343.5594,380.0469 Q343.7469,379.9375 343.9656,379.9375 Q344.3406,379.9375 344.575,380.2031 Q344.8094,380.4531 344.8094,381.0625 L344.8094,382.5156 Q344.8094,383.125 344.575,383.3906 Q344.3406,383.6563 343.9656,383.6563 Q343.6219,383.6563 343.4188,383.4531 Q343.2156,383.2656 343.1063,382.75 Q343.0594,382.3906 342.8719,382.2031 Q342.5438,381.8281 341.9344,381.6094 Q341.325,381.3906 340.7,381.3906 Q339.9344,381.3906 339.2938,381.7188 Q338.6688,382.0469 338.1688,382.7969 Q337.6844,383.5469 337.6844,384.5781 L337.6844,385.6719 Q337.6844,386.9063 338.575,387.7344 Q339.4656,388.5469 341.0594,388.5469 Q341.9969,388.5469 342.6531,388.2969 Q343.0438,388.1406 343.4656,387.7031 Q343.7313,387.4375 343.8719,387.3594 Q344.0281,387.2813 344.2313,387.2813 Q344.5594,387.2813 344.8094,387.5469 Q345.075,387.7969 345.075,388.1406 Q345.075,388.4844 344.7313,388.8906 Q344.2313,389.4688 343.4344,389.7969 Q342.3563,390.25 341.0594,390.25 Q339.5438,390.25 338.3406,389.625 Q337.3563,389.125 336.6688,388.0625 Q335.9813,386.9844 335.9813,385.7031 L335.9813,384.5469 Q335.9813,383.2188 336.5906,382.0781 Q337.2156,380.9219 338.3094,380.3125 Q339.4031,379.6875 340.6375,379.6875 Q341.3719,379.6875 342.0125,379.8594 Q342.6688,380.0156 343.2156,380.375 Z " fill="#000000"/><text fill="#000000" font-family="sans-serif" font-size="12" lengthAdjust="spacing" textLength="61" x="356.55" y="389.4102">IllegalMove</text><line style="stroke:#A80036;stroke-width:1.5;" x1="317" x2="429" y1="400.5" y2="400.5"/><line style="stroke:#A80036;stroke-width:1.5;" x1="317" x2="429" y1="408.5" y2="408.5"/><ellipse cx="327" cy="419.5" fill="#84BE84" rx="3" ry="3" style="stroke:#038048;stroke-width:1.0;"/><text fill="#000000" font-family="sans-serif" font-size="11" lengthAdjust="spacing" textLength="88" x="336" y="423.9189">IllegalMove(String)</text></a><!--MD5=[02a1b30ec222ca2553512277ee8b5041]
class nz.ac.wgtn.swen225.lc.domain.tiles.Tile--><rect fill="#FEFECE" filter="url(#fcic3mi6jeq88)" height="48" id="nz.ac.wgtn.swen225.lc.domain.tiles.Tile" style="stroke:#A80036;stroke-width:1.5;" width="52" x="115" y="993.5"/><ellipse cx="130" cy="1009.5" fill="#ADD1B2" rx="11" ry="11" style="stroke:#A80036;stroke-width:1.0;"/><path d="M132.7656,1005.375 Q132.9219,1005.1563 133.1094,1005.0469 Q133.2969,1004.9375 133.5156,1004.9375 Q133.8906,1004.9375 134.125,1005.2031 Q134.3594,1005.4531 134.3594,1006.0625 L134.3594,1007.5156 Q134.3594,1008.125 134.125,1008.3906 Q133.8906,1008.6563 133.5156,1008.6563 Q133.1719,1008.6563 132.9688,1008.4531 Q132.7656,1008.2656 132.6563,1007.75 Q132.6094,1007.3906 132.4219,1007.2031 Q132.0938,1006.8281 131.4844,1006.6094 Q130.875,1006.3906 130.25,1006.3906 Q129.4844,1006.3906 128.8438,1006.7188 Q128.2188,1007.0469 127.7188,1007.7969 Q127.2344,1008.5469 127.2344,1009.5781 L127.2344,1010.6719 Q127.2344,1011.9063 128.125,1012.7344 Q129.0156,1013.5469 130.6094,1013.5469 Q131.5469,1013.5469 132.2031,1013.2969 Q132.5938,1013.1406 133.0156,1012.7031 Q133.2813,1012.4375 133.4219,1012.3594 Q133.5781,1012.2813 133.7813,1012.2813 Q134.1094,1012.2813 134.3594,1012.5469 Q134.625,1012.7969 134.625,1013.1406 Q134.625,1013.4844 134.2813,1013.8906 Q133.7813,1014.4688 132.9844,1014.7969 Q131.9063,1015.25 130.6094,1015.25 Q129.0938,1015.25 127.8906,1014.625 Q126.9063,1014.125 126.2188,1013.0625 Q125.5313,1011.9844 125.5313,1010.7031 L125.5313,1009.5469 Q125.5313,1008.2188 126.1406,1007.0781 Q126.7656,1005.9219 127.8594,1005.3125 Q128.9531,1004.6875 130.1875,1004.6875 Q130.9219,1004.6875 131.5625,1004.8594 Q132.2188,1005.0156 132.7656,1005.375 Z " fill="#000000"/><text fill="#000000" font-family="sans-serif" font-size="12" lengthAdjust="spacing" textLength="20" x="144" y="1014.4102">Tile</text><line style="stroke:#A80036;stroke-width:1.5;" x1="116" x2="166" y1="1025.5" y2="1025.5"/><line style="stroke:#A80036;stroke-width:1.5;" x1="116" x2="166" y1="1033.5" y2="1033.5"/><!--MD5=[90edbd7303723afe0a7c1ad75ffbeaa2]
class nz.ac.wgtn.swen225.lc.domain.tiles.Free--><rect fill="#FEFECE" filter="url(#fcic3mi6jeq88)" height="48" id="nz.ac.wgtn.swen225.lc.domain.tiles.Free" style="stroke:#A80036;stroke-width:1.5;" width="57" x="202.5" y="993.5"/><ellipse cx="217.5" cy="1009.5" fill="#ADD1B2" rx="11" ry="11" style="stroke:#A80036;stroke-width:1.0;"/><path d="M220.2656,1005.375 Q220.4219,1005.1563 220.6094,1005.0469 Q220.7969,1004.9375 221.0156,1004.9375 Q221.3906,1004.9375 221.625,1005.2031 Q221.8594,1005.4531 221.8594,1006.0625 L221.8594,1007.5156 Q221.8594,1008.125 221.625,1008.3906 Q221.3906,1008.6563 221.0156,1008.6563 Q220.6719,1008.6563 220.4688,1008.4531 Q220.2656,1008.2656 220.1563,1007.75 Q220.1094,1007.3906 219.9219,1007.2031 Q219.5938,1006.8281 218.9844,1006.6094 Q218.375,1006.3906 217.75,1006.3906 Q216.9844,1006.3906 216.3438,1006.7188 Q215.7188,1007.0469 215.2188,1007.7969 Q214.7344,1008.5469 214.7344,1009.5781 L214.7344,1010.6719 Q214.7344,1011.9063 215.625,1012.7344 Q216.5156,1013.5469 218.1094,1013.5469 Q219.0469,1013.5469 219.7031,1013.2969 Q220.0938,1013.1406 220.5156,1012.7031 Q220.7813,1012.4375 220.9219,1012.3594 Q221.0781,1012.2813 221.2813,1012.2813 Q221.6094,1012.2813 221.8594,1012.5469 Q222.125,1012.7969 222.125,1013.1406 Q222.125,1013.4844 221.7813,1013.8906 Q221.2813,1014.4688 220.4844,1014.7969 Q219.4063,1015.25 218.1094,1015.25 Q216.5938,1015.25 215.3906,1014.625 Q214.4063,1014.125 213.7188,1013.0625 Q213.0313,1011.9844 213.0313,1010.7031 L213.0313,1009.5469 Q213.0313,1008.2188 213.6406,1007.0781 Q214.2656,1005.9219 215.3594,1005.3125 Q216.4531,1004.6875 217.6875,1004.6875 Q218.4219,1004.6875 219.0625,1004.8594 Q219.7188,1005.0156 220.2656,1005.375 Z " fill="#000000"/><text fill="#000000" font-family="sans-serif" font-size="12" lengthAdjust="spacing" textLength="25" x="231.5" y="1014.4102">Free</text><line style="stroke:#A80036;stroke-width:1.5;" x1="203.5" x2="258.5" y1="1025.5" y2="1025.5"/><line style="stroke:#A80036;stroke-width:1.5;" x1="203.5" x2="258.5" y1="1033.5" y2="1033.5"/><!--MD5=[79cf4b4ecd0afc17190cd5c850597216]
class nz.ac.wgtn.swen225.lc.domain.items.Item--><rect fill="#FEFECE" filter="url(#fcic3mi6jeq88)" height="48" id="nz.ac.wgtn.swen225.lc.domain.items.Item" style="stroke:#A80036;stroke-width:1.5;" width="56" x="968" y="993.5"/><ellipse cx="983" cy="1009.5" fill="#ADD1B2" rx="11" ry="11" style="stroke:#A80036;stroke-width:1.0;"/><path d="M985.7656,1005.375 Q985.9219,1005.1563 986.1094,1005.0469 Q986.2969,1004.9375 986.5156,1004.9375 Q986.8906,1004.9375 987.125,1005.2031 Q987.3594,1005.4531 987.3594,1006.0625 L987.3594,1007.5156 Q987.3594,1008.125 987.125,1008.3906 Q986.8906,1008.6563 986.5156,1008.6563 Q986.1719,1008.6563 985.9688,1008.4531 Q985.7656,1008.2656 985.6563,1007.75 Q985.6094,1007.3906 985.4219,1007.2031 Q985.0938,1006.8281 984.4844,1006.6094 Q983.875,1006.3906 983.25,1006.3906 Q982.4844,1006.3906 981.8438,1006.7188 Q981.2188,1007.0469 980.7188,1007.7969 Q980.2344,1008.5469 980.2344,1009.5781 L980.2344,1010.6719 Q980.2344,1011.9063 981.125,1012.7344 Q982.0156,1013.5469 983.6094,1013.5469 Q984.5469,1013.5469 985.2031,1013.2969 Q985.5938,1013.1406 986.0156,1012.7031 Q986.2813,1012.4375 986.4219,1012.3594 Q986.5781,1012.2813 986.7813,1012.2813 Q987.1094,1012.2813 987.3594,1012.5469 Q987.625,1012.7969 987.625,1013.1406 Q987.625,1013.4844 987.2813,1013.8906 Q986.7813,1014.4688 985.9844,1014.7969 Q984.9063,1015.25 983.6094,1015.25 Q982.0938,1015.25 980.8906,1014.625 Q979.9063,1014.125 979.2188,1013.0625 Q978.5313,1011.9844 978.5313,1010.7031 L978.5313,1009.5469 Q978.5313,1008.2188 979.1406,1007.0781 Q979.7656,1005.9219 980.8594,1005.3125 Q981.9531,1004.6875 983.1875,1004.6875 Q983.9219,1004.6875 984.5625,1004.8594 Q985.2188,1005.0156 985.7656,1005.375 Z " fill="#000000"/><text fill="#000000" font-family="sans-serif" font-size="12" lengthAdjust="spacing" textLength="24" x="997" y="1014.4102">Item</text><line style="stroke:#A80036;stroke-width:1.5;" x1="969" x2="1023" y1="1025.5" y2="1025.5"/><line style="stroke:#A80036;stroke-width:1.5;" x1="969" x2="1023" y1="1033.5" y2="1033.5"/><!--MD5=[46c05dfe24a0851e179497c4631d3ff2]
class java.lang.Exception--><rect codeLine="88" fill="#FEFECE" filter="url(#fcic3mi6jeq88)" height="48" id="java.lang.Exception" style="stroke:#A80036;stroke-width:1.5;" width="85" x="330.5" y="42"/><ellipse cx="345.5" cy="58" fill="#ADD1B2" rx="11" ry="11" style="stroke:#A80036;stroke-width:1.0;"/><path d="M348.2656,53.875 Q348.4219,53.6563 348.6094,53.5469 Q348.7969,53.4375 349.0156,53.4375 Q349.3906,53.4375 349.625,53.7031 Q349.8594,53.9531 349.8594,54.5625 L349.8594,56.0156 Q349.8594,56.625 349.625,56.8906 Q349.3906,57.1563 349.0156,57.1563 Q348.6719,57.1563 348.4688,56.9531 Q348.2656,56.7656 348.1563,56.25 Q348.1094,55.8906 347.9219,55.7031 Q347.5938,55.3281 346.9844,55.1094 Q346.375,54.8906 345.75,54.8906 Q344.9844,54.8906 344.3438,55.2188 Q343.7188,55.5469 343.2188,56.2969 Q342.7344,57.0469 342.7344,58.0781 L342.7344,59.1719 Q342.7344,60.4063 343.625,61.2344 Q344.5156,62.0469 346.1094,62.0469 Q347.0469,62.0469 347.7031,61.7969 Q348.0938,61.6406 348.5156,61.2031 Q348.7813,60.9375 348.9219,60.8594 Q349.0781,60.7813 349.2813,60.7813 Q349.6094,60.7813 349.8594,61.0469 Q350.125,61.2969 350.125,61.6406 Q350.125,61.9844 349.7813,62.3906 Q349.2813,62.9688 348.4844,63.2969 Q347.4063,63.75 346.1094,63.75 Q344.5938,63.75 343.3906,63.125 Q342.4063,62.625 341.7188,61.5625 Q341.0313,60.4844 341.0313,59.2031 L341.0313,58.0469 Q341.0313,56.7188 341.6406,55.5781 Q342.2656,54.4219 343.3594,53.8125 Q344.4531,53.1875 345.6875,53.1875 Q346.4219,53.1875 347.0625,53.3594 Q347.7188,53.5156 348.2656,53.875 Z " fill="#000000"/><text fill="#000000" font-family="sans-serif" font-size="12" lengthAdjust="spacing" textLength="53" x="359.5" y="62.9102">Exception</text><line style="stroke:#A80036;stroke-width:1.5;" x1="331.5" x2="414.5" y1="74" y2="74"/><line style="stroke:#A80036;stroke-width:1.5;" x1="331.5" x2="414.5" y1="82" y2="82"/><!--MD5=[d8ee83f2aa47efd675bcc9ddc9b0c7dc]
link nz.ac.wgtn.swen225.lc.domain.Board to nz.ac.wgtn.swen225.lc.domain.tiles.Tile--><path codeLine="76" d="M792.73,472.23 C774.16,519.32 744.93,580.09 705,624 C521.55,825.71 379.89,758.82 185,949.5 C173.39,960.85 163.23,975.78 155.6,988.65 " fill="none" id="nz.ac.wgtn.swen225.lc.domain.Board-to-nz.ac.wgtn.swen225.lc.domain.tiles.Tile" style="stroke:#A80036;stroke-width:1.0;"/><polygon fill="#A80036" points="152.91,993.3,160.8893,987.5267,155.4214,988.9765,153.9716,983.5085,152.91,993.3" style="stroke:#A80036;stroke-width:1.0;"/><text fill="#000000" font-family="sans-serif" font-size="13" lengthAdjust="spacing" textLength="24" x="617" y="800.4951">tiles</text><text fill="#000000" font-family="sans-serif" font-size="13" lengthAdjust="spacing" textLength="5" x="150.3213" y="982.5889">*</text><!--MD5=[1c81e67b2577dba1aac2fbcf0333c37b]
link nz.ac.wgtn.swen225.lc.domain.Board to nz.ac.wgtn.swen225.lc.domain.Chap--><path codeLine="77" d="M790.94,472.02 C774.1,522.19 753.74,591.24 745,654 C743.9,661.92 744.8,664 745,672 C745.2,679.99 745.46,688.27 745.78,696.58 " fill="none" id="nz.ac.wgtn.swen225.lc.domain.Board-to-nz.ac.wgtn.swen225.lc.domain.Chap" style="stroke:#A80036;stroke-width:1.0;"/><polygon fill="#A80036" points="745.98,701.76,749.6171,692.6073,745.7802,696.764,741.6235,692.9271,745.98,701.76" style="stroke:#A80036;stroke-width:1.0;"/><text fill="#000000" font-family="sans-serif" font-size="13" lengthAdjust="spacing" textLength="28" x="746" y="668.4951">chap</text><!--MD5=[5db0a4ca8961dec58bde78da1a624225]
link nz.ac.wgtn.swen225.lc.domain.Chap to nz.ac.wgtn.swen225.lc.domain.Board--><path codeLine="81" d="M773.02,701.92 C775.17,691.85 777.21,681.72 779,672 C791.04,606.71 801.24,531.95 808.03,477.44 " fill="none" id="nz.ac.wgtn.swen225.lc.domain.Chap-to-nz.ac.wgtn.swen225.lc.domain.Board" style="stroke:#A80036;stroke-width:1.0;"/><polygon fill="#A80036" points="808.68,472.23,803.6036,480.6698,808.0651,477.192,811.5428,481.6536,808.68,472.23" style="stroke:#A80036;stroke-width:1.0;"/><text fill="#000000" font-family="sans-serif" font-size="13" lengthAdjust="spacing" textLength="32" x="782" y="668.4951">board</text><!--MD5=[4132495fcf5c1cfd01e6c5a5f1c826a1]
link nz.ac.wgtn.swen225.lc.domain.Chap to nz.ac.wgtn.swen225.lc.domain.Chap.State--><path codeLine="78" d="M717.41,888.17 C714.79,898.13 712.56,908.21 711,918 C709.74,925.9 710.85,928 711,936 C711.15,943.99 711.38,952.42 711.65,960.7 " fill="none" id="nz.ac.wgtn.swen225.lc.domain.Chap-to-nz.ac.wgtn.swen225.lc.domain.Chap.State" style="stroke:#A80036;stroke-width:1.0;"/><polygon fill="#A80036" points="711.82,965.84,715.5084,956.7079,711.6482,960.843,707.5131,956.9828,711.82,965.84" style="stroke:#A80036;stroke-width:1.0;"/><text fill="#000000" font-family="sans-serif" font-size="13" lengthAdjust="spacing" textLength="29" x="712" y="932.4951">state</text><!--MD5=[cf5c7bbb261f1216b4d1ddcb1cd1453f]
reverse link nz.ac.wgtn.swen225.lc.domain.Chap to nz.ac.wgtn.swen225.lc.domain.Chap.State--><path codeLine="82" d="M750.94,903.21 C749.82,914.35 748.22,925.45 746,936 C743.93,945.86 740.75,956.07 737.18,965.78 " fill="none" id="nz.ac.wgtn.swen225.lc.domain.Chap-backto-nz.ac.wgtn.swen225.lc.domain.Chap.State" style="stroke:#A80036;stroke-width:1.0;"/><ellipse cx="751.5469" cy="896.0125" fill="#FFFFFF" rx="8" ry="8" style="stroke:#A80036;stroke-width:1.0;"/><line style="stroke:#A80036;stroke-width:1.0;" x1="750.8838" x2="752.21" y1="903.9849" y2="888.04"/><line style="stroke:#A80036;stroke-width:1.0;" x1="743.5744" x2="759.5194" y1="895.3494" y2="896.6756"/><!--MD5=[a08b1b3f3306989f200e82c701617f08]
link nz.ac.wgtn.swen225.lc.domain.Chap to nz.ac.wgtn.swen225.lc.domain.tiles.Free--><path codeLine="79" d="M666.92,835.54 C595.94,867.33 490.84,910.72 395,936 C353.76,946.88 338.29,930.72 300,949.5 C281.09,958.77 264.06,975.18 251.65,989.43 " fill="none" id="nz.ac.wgtn.swen225.lc.domain.Chap-to-nz.ac.wgtn.swen225.lc.domain.tiles.Free" style="stroke:#A80036;stroke-width:1.0;"/><polygon fill="#A80036" points="248.28,993.38,257.1663,989.1334,251.5269,989.5777,251.0826,983.9383,248.28,993.38" style="stroke:#A80036;stroke-width:1.0;"/><text fill="#000000" font-family="sans-serif" font-size="13" lengthAdjust="spacing" textLength="17" x="455" y="932.4951">tile</text><!--MD5=[02607cffd098bf04a0c82dc4b74cafc6]
link nz.ac.wgtn.swen225.lc.domain.Chap to nz.ac.wgtn.swen225.lc.domain.items.Item--><path codeLine="80" d="M835.25,867.16 C864.93,892.72 898.28,922.03 928,949.5 C942.01,962.45 957.16,977.3 969.6,989.72 " fill="none" id="nz.ac.wgtn.swen225.lc.domain.Chap-to-nz.ac.wgtn.swen225.lc.domain.items.Item" style="stroke:#A80036;stroke-width:1.0;"/><polygon fill="#A80036" points="973.37,993.49,969.853,984.2905,969.8416,989.9473,964.1848,989.9359,973.37,993.49" style="stroke:#A80036;stroke-width:1.0;"/><text fill="#000000" font-family="sans-serif" font-size="13" lengthAdjust="spacing" textLength="51" x="910" y="932.4951">inventory</text><text fill="#000000" font-family="sans-serif" font-size="13" lengthAdjust="spacing" textLength="5" x="961.9304" y="982.8276">*</text><!--MD5=[91655e24f052e3ab3887863afb67f7ed]
reverse link nz.ac.wgtn.swen225.lc.domain.Chap to nz.ac.wgtn.swen225.lc.domain.Chap.Direction--><path codeLine="83" d="M800.04,902.02 C810.33,924.26 820.73,946.73 829.55,965.8 " fill="none" id="nz.ac.wgtn.swen225.lc.domain.Chap-backto-nz.ac.wgtn.swen225.lc.domain.Chap.Direction" style="stroke:#A80036;stroke-width:1.0;"/><ellipse cx="797.0297" cy="895.4903" fill="#FFFFFF" rx="8" ry="8" style="stroke:#A80036;stroke-width:1.0;"/><line style="stroke:#A80036;stroke-width:1.0;" x1="800.3894" x2="793.67" y1="902.7507" y2="888.23"/><line style="stroke:#A80036;stroke-width:1.0;" x1="789.7694" x2="804.29" y1="898.85" y2="892.1306"/><!--MD5=[256faed44314ccfc38e76806f11679b2]
reverse link java.lang.Exception to nz.ac.wgtn.swen225.lc.domain.IllegalMove--><path codeLine="84" d="M373,110.17 C373,178.28 373,309 373,368.13 " fill="none" id="java.lang.Exception-backto-nz.ac.wgtn.swen225.lc.domain.IllegalMove" style="stroke:#A80036;stroke-width:1.0;"/><polygon fill="none" points="366,110.05,373,90.05,380,110.05,366,110.05" style="stroke:#A80036;stroke-width:1.0;"/><text fill="#888888" font-family="sans-serif" font-size="10" lengthAdjust="spacing" textLength="184" x="520" y="1101.3809">UMLDoclet 2.0.14, PlantUML 1.2021.9</text><!--MD5=[61bda2972f0855372942f60374ee0b2c]
@startuml
    namespace nz.ac.wgtn.swen225.lc.domain {

        class Board [[Board.html]] {
            +Board(File)
            #resetTile(Tile): Free
            +getAutoActors(): List<AutoActor>
            +getTile(int, int): Tile
            +getLevel(): int
            +getTime(): int
            +getBoardTreasureCount(): int
        }

        class Chap [[Chap.html]] {
            +Chap(Board, Free, int)
            +move(Direction): Tile
            +addItem(Item): boolean
            +removeItem(Item): boolean
            +hasItem(Item): boolean
            +canUnlockExit(): boolean
            +addTreasure(): void
            +getX(): int
            +getY(): int
            +getPlayerTreasureCount(): int
        }

        enum nz.ac.wgtn.swen225.lc.domain.Chap.State [[Chap.State.html]] {
            {static} +ONGOING
            {static} +PAUSED
            {static} +COMPLETED
            {static} +DEAD
        }

        enum nz.ac.wgtn.swen225.lc.domain.Chap.Direction [[Chap.Direction.html]] {
            {static} +UP
            {static} +DOWN
            {static} +LEFT
            {static} +RIGHT
        }

        class DomainTest [[DomainTest.html]] {
            +init(): void
            +testBoard(): void
            +testMoveLeft(): void
            +testMoveLeftIllegal(): void
            +testMoveRight(): void
            +testMoveRightIllegal(): void
            +testMoveDown(): void
            +testMoveDownIllegal(): void
            +testMoveUp(): void
            +testMoveUpIllegal(): void
            +testPickUpKey(): void
            +testCanOpenDoor(): void
            +testCannotOpenDoor(): void
            +testCannotOpenDoorWrongKey(): void
            +testPickUpTreasure(): void
            +testFullInventory(): void
            +testEmptyInventory(): void
            +testMoveWhilePaused(): void
            +testCloneWall(): void
            +testCloneFree(): void
            +testCloneDoor(): void
            +testCloneKeyTile(): void
            +testCloneExit(): void
            +testCloneExitLock(): void
            +testCloneInfoField(): void
            +testCloneTreasure(): void
            +testIllegalArgumentKeyTile(): void
            +testIllegalArgumentDoor(): void
            +testInfoFieldNotReplacedWithFree(): void
        }

        class IllegalMove [[IllegalMove.html]] {
            +IllegalMove(String)
        }

        Board - -> "*" nz.ac.wgtn.swen225.lc.domain.tiles.Tile: tiles
        Board - -> Chap: chap
        Chap - -> nz.ac.wgtn.swen225.lc.domain.Chap.State: state
        Chap - -> nz.ac.wgtn.swen225.lc.domain.tiles.Free: tile
        Chap - -> "*" nz.ac.wgtn.swen225.lc.domain.items.Item: inventory
        Chap - -> Board: board
        Chap +- - nz.ac.wgtn.swen225.lc.domain.Chap.State
        Chap +- - nz.ac.wgtn.swen225.lc.domain.Chap.Direction
        java.lang.Exception <|- - IllegalMove
    }

    namespace java.lang {
        class Exception {
        }
    }

    center footer UMLDoclet 2.0.14, PlantUML 1.2021.9
@enduml

PlantUML version 1.2021.9(Sun Jul 25 17:13:56 ICT 2021)
(APACHE source distribution)
Java Runtime: OpenJDK Runtime Environment
JVM: OpenJDK 64-Bit Server VM
Default Encoding: Cp1252
Language: en
Country: NZ
--></g></svg>