<?xml version="1.0" encoding="UTF-8" standalone="no"?><svg xmlns="http://www.w3.org/2000/svg" xmlns:xlink="http://www.w3.org/1999/xlink" contentScriptType="application/ecmascript" contentStyleType="text/css" height="144px" preserveAspectRatio="none" style="width:274px;height:144px;background:#FFFFFF;" version="1.1" viewBox="0 0 274 144" width="274px" zoomAndPan="magnify"><defs><filter height="300%" id="fyku947zvfrwv" width="300%" x="-1" y="-1"><feGaussianBlur result="blurOut" stdDeviation="2.0"/><feColorMatrix in="blurOut" result="blurOut2" type="matrix" values="0 0 0 0 0 0 0 0 0 0 0 0 0 0 0 0 0 0 .4 0"/><feOffset dx="4.0" dy="4.0" in="blurOut2" result="blurOut3"/><feBlend in="SourceGraphic" in2="blurOut3" mode="normal"/></filter></defs><g><!--MD5=[aed1d2a8604fe3741566071179cfd1e8]
cluster nz.ac.wgtn.swen225.lc.app.input--><polygon fill="#FFFFFF" filter="url(#fyku947zvfrwv)" points="16,6,247,6,254,29.6094,257,29.6094,257,120,16,120,16,6" style="stroke:#000000;stroke-width:1.5;"/><line style="stroke:#000000;stroke-width:1.5;" x1="16" x2="254" y1="29.6094" y2="29.6094"/><text fill="#000000" font-family="sans-serif" font-size="14" font-weight="bold" lengthAdjust="spacing" textLength="225" x="20" y="22.5332">nz.ac.wgtn.swen225.lc.app.input</text><!--MD5=[21a7979ff18fd6b178f86758294129e3]
class nz.ac.wgtn.swen225.lc.app.input.KeyboardInputHandler--><a href="KeyboardInputHandler.html" target="_top" title="KeyboardInputHandler.html" xlink:actuate="onRequest" xlink:href="KeyboardInputHandler.html" xlink:show="new" xlink:title="KeyboardInputHandler.html" xlink:type="simple"><rect codeLine="3" fill="#FEFECE" filter="url(#fyku947zvfrwv)" height="61.8359" id="nz.ac.wgtn.swen225.lc.app.input.KeyboardInputHandler" style="stroke:#A80036;stroke-width:1.5;" width="161" x="55.5" y="42"/><ellipse cx="73.2" cy="58" fill="#ADD1B2" rx="11" ry="11" style="stroke:#A80036;stroke-width:1.0;"/><path d="M75.9656,53.875 Q76.1219,53.6563 76.3094,53.5469 Q76.4969,53.4375 76.7156,53.4375 Q77.0906,53.4375 77.325,53.7031 Q77.5594,53.9531 77.5594,54.5625 L77.5594,56.0156 Q77.5594,56.625 77.325,56.8906 Q77.0906,57.1563 76.7156,57.1563 Q76.3719,57.1563 76.1688,56.9531 Q75.9656,56.7656 75.8563,56.25 Q75.8094,55.8906 75.6219,55.7031 Q75.2938,55.3281 74.6844,55.1094 Q74.075,54.8906 73.45,54.8906 Q72.6844,54.8906 72.0438,55.2188 Q71.4188,55.5469 70.9188,56.2969 Q70.4344,57.0469 70.4344,58.0781 L70.4344,59.1719 Q70.4344,60.4063 71.325,61.2344 Q72.2156,62.0469 73.8094,62.0469 Q74.7469,62.0469 75.4031,61.7969 Q75.7938,61.6406 76.2156,61.2031 Q76.4813,60.9375 76.6219,60.8594 Q76.7781,60.7813 76.9813,60.7813 Q77.3094,60.7813 77.5594,61.0469 Q77.825,61.2969 77.825,61.6406 Q77.825,61.9844 77.4813,62.3906 Q76.9813,62.9688 76.1844,63.2969 Q75.1063,63.75 73.8094,63.75 Q72.2938,63.75 71.0906,63.125 Q70.1063,62.625 69.4188,61.5625 Q68.7313,60.4844 68.7313,59.2031 L68.7313,58.0469 Q68.7313,56.7188 69.3406,55.5781 Q69.9656,54.4219 71.0594,53.8125 Q72.1531,53.1875 73.3875,53.1875 Q74.1219,53.1875 74.7625,53.3594 Q75.4188,53.5156 75.9656,53.875 Z " fill="#000000"/><text fill="#000000" font-family="sans-serif" font-size="12" lengthAdjust="spacing" textLength="123" x="87.8" y="62.9102">KeyboardInputHandler</text><line style="stroke:#A80036;stroke-width:1.5;" x1="56.5" x2="215.5" y1="74" y2="74"/><line style="stroke:#A80036;stroke-width:1.5;" x1="56.5" x2="215.5" y1="82" y2="82"/><ellipse cx="66.5" cy="93" fill="#84BE84" rx="3" ry="3" style="stroke:#038048;stroke-width:1.0;"/><text fill="#000000" font-family="sans-serif" font-size="11" lengthAdjust="spacing" textLength="135" x="75.5" y="97.4189">KeyboardInputHandler(App)</text></a><text fill="#888888" font-family="sans-serif" font-size="10" lengthAdjust="spacing" textLength="184" x="38.5" y="136.3809">UMLDoclet 2.0.14, PlantUML 1.2021.9</text><!--MD5=[694443c2b49f5465e421f9796659aac4]
@startuml
    namespace nz.ac.wgtn.swen225.lc.app.input {

        class KeyboardInputHandler [[KeyboardInputHandler.html]] {
            +KeyboardInputHandler(App)
        }

    }

    center footer UMLDoclet 2.0.14, PlantUML 1.2021.9
@enduml

PlantUML version 1.2021.9(Sun Jul 25 17:13:56 ICT 2021)
(APACHE source distribution)
Java Runtime: OpenJDK Runtime Environment
JVM: OpenJDK 64-Bit Server VM
Default Encoding: Cp1252
Language: en
Country: NZ
--></g></svg>