<?xml version="1.0" encoding="UTF-8" standalone="no"?><svg xmlns="http://www.w3.org/2000/svg" xmlns:xlink="http://www.w3.org/1999/xlink" contentStyleType="text/css" height="270px" preserveAspectRatio="none" style="width:254px;height:270px;background:#FFFFFF;" version="1.1" viewBox="0 0 254 270" width="254px" zoomAndPan="magnify"><defs/><g><!--class nz.ac.wgtn.swen225.lc.domain.tiles.Door--><a href="Door.html" target="_top" title="Door.html" xlink:actuate="onRequest" xlink:href="Door.html" xlink:show="new" xlink:title="Door.html" xlink:type="simple"><g id="elem_nz.ac.wgtn.swen225.lc.domain.tiles.Door"><rect codeLine="5" fill="#F1F1F1" height="136.2344" id="nz.ac.wgtn.swen225.lc.domain.tiles.Door" rx="2.5" ry="2.5" style="stroke:#181818;stroke-width:0.5;" width="240" x="7" y="107.19"/><ellipse cx="40" cy="127.2838" fill="#ADD1B2" rx="11" ry="11" style="stroke:#181818;stroke-width:1.0;"/><path d="M42.7656,123.1588 Q42.9219,122.94 43.1094,122.8306 Q43.2969,122.7213 43.5156,122.7213 Q43.8906,122.7213 44.125,122.9869 Q44.3594,123.2369 44.3594,123.8463 L44.3594,125.2994 Q44.3594,125.9088 44.125,126.1744 Q43.8906,126.44 43.5156,126.44 Q43.1719,126.44 42.9688,126.2369 Q42.7656,126.0494 42.6563,125.5338 Q42.6094,125.1744 42.4219,124.9869 Q42.0938,124.6119 41.4844,124.3931 Q40.875,124.1744 40.25,124.1744 Q39.4844,124.1744 38.8438,124.5025 Q38.2188,124.8306 37.7188,125.5806 Q37.2344,126.3306 37.2344,127.3619 L37.2344,128.4556 Q37.2344,129.69 38.125,130.5181 Q39.0156,131.3306 40.6094,131.3306 Q41.5469,131.3306 42.2031,131.0806 Q42.5938,130.9244 43.0156,130.4869 Q43.2813,130.2213 43.4219,130.1431 Q43.5781,130.065 43.7813,130.065 Q44.1094,130.065 44.3594,130.3306 Q44.625,130.5806 44.625,130.9244 Q44.625,131.2681 44.2813,131.6744 Q43.7813,132.2525 42.9844,132.5806 Q41.9063,133.0338 40.6094,133.0338 Q39.0938,133.0338 37.8906,132.4088 Q36.9063,131.9088 36.2188,130.8463 Q35.5313,129.7681 35.5313,128.4869 L35.5313,127.3306 Q35.5313,126.0025 36.1406,124.8619 Q36.7656,123.7056 37.8594,123.0963 Q38.9531,122.4713 40.1875,122.4713 Q40.9219,122.4713 41.5625,122.6431 Q42.2188,122.7994 42.7656,123.1588 Z " fill="#000000"/><text fill="#000000" font-family="sans-serif" font-size="14" lengthAdjust="spacing" textLength="31" x="126.5" y="126.7232">Door</text><text fill="#000000" font-family="sans-serif" font-size="10" lengthAdjust="spacing" textLength="168" x="58" y="140.1802">nz.ac.wgtn.swen225.lc.domain.tiles</text><line style="stroke:#181818;stroke-width:0.5;" x1="8" x2="246" y1="147.3775" y2="147.3775"/><ellipse cx="18" cy="161.6822" fill="#84BE84" rx="3" ry="3" style="stroke:#038048;stroke-width:1.0;"/><text fill="#000000" font-family="sans-serif" font-size="14" lengthAdjust="spacing" textLength="129" x="27" y="165.9107">Door(Colour, int, int)</text><ellipse cx="18" cy="179.2916" fill="#84BE84" rx="3" ry="3" style="stroke:#038048;stroke-width:1.0;"/><text fill="#000000" font-family="sans-serif" font-size="14" lengthAdjust="spacing" textLength="214" x="27" y="183.5201">performTileAction(Chap): boolean</text><ellipse cx="18" cy="196.9009" fill="#84BE84" rx="3" ry="3" style="stroke:#038048;stroke-width:1.0;"/><text fill="#000000" font-family="sans-serif" font-size="14" lengthAdjust="spacing" textLength="174" x="27" y="201.1295">traversable(Chap): boolean</text><ellipse cx="18" cy="214.5103" fill="#84BE84" rx="3" ry="3" style="stroke:#038048;stroke-width:1.0;"/><text fill="#000000" font-family="sans-serif" font-size="14" lengthAdjust="spacing" textLength="161" x="27" y="218.7388">canOpen(Chap): boolean</text><ellipse cx="18" cy="232.1197" fill="#84BE84" rx="3" ry="3" style="stroke:#038048;stroke-width:1.0;"/><text fill="#000000" font-family="sans-serif" font-size="14" lengthAdjust="spacing" textLength="122" x="27" y="236.3482">getColour(): Colour</text></g></a><!--class nz.ac.wgtn.swen225.lc.domain.tiles.Wall--><a href="Wall.html" target="_top" title="Wall.html" xlink:actuate="onRequest" xlink:href="Wall.html" xlink:show="new" xlink:title="Wall.html" xlink:type="simple"><g id="elem_nz.ac.wgtn.swen225.lc.domain.tiles.Wall"><rect codeLine="13" fill="#F1F1F1" height="40.1875" id="nz.ac.wgtn.swen225.lc.domain.tiles.Wall" rx="2.5" ry="2.5" style="stroke:#181818;stroke-width:0.5;" width="200" x="27" y="7"/><ellipse cx="42" cy="27.0938" fill="#ADD1B2" rx="11" ry="11" style="stroke:#181818;stroke-width:1.0;"/><path d="M44.7656,22.9688 Q44.9219,22.75 45.1094,22.6406 Q45.2969,22.5313 45.5156,22.5313 Q45.8906,22.5313 46.125,22.7969 Q46.3594,23.0469 46.3594,23.6563 L46.3594,25.1094 Q46.3594,25.7188 46.125,25.9844 Q45.8906,26.25 45.5156,26.25 Q45.1719,26.25 44.9688,26.0469 Q44.7656,25.8594 44.6563,25.3438 Q44.6094,24.9844 44.4219,24.7969 Q44.0938,24.4219 43.4844,24.2031 Q42.875,23.9844 42.25,23.9844 Q41.4844,23.9844 40.8438,24.3125 Q40.2188,24.6406 39.7188,25.3906 Q39.2344,26.1406 39.2344,27.1719 L39.2344,28.2656 Q39.2344,29.5 40.125,30.3281 Q41.0156,31.1406 42.6094,31.1406 Q43.5469,31.1406 44.2031,30.8906 Q44.5938,30.7344 45.0156,30.2969 Q45.2813,30.0313 45.4219,29.9531 Q45.5781,29.875 45.7813,29.875 Q46.1094,29.875 46.3594,30.1406 Q46.625,30.3906 46.625,30.7344 Q46.625,31.0781 46.2813,31.4844 Q45.7813,32.0625 44.9844,32.3906 Q43.9063,32.8438 42.6094,32.8438 Q41.0938,32.8438 39.8906,32.2188 Q38.9063,31.7188 38.2188,30.6563 Q37.5313,29.5781 37.5313,28.2969 L37.5313,27.1406 Q37.5313,25.8125 38.1406,24.6719 Q38.7656,23.5156 39.8594,22.9063 Q40.9531,22.2813 42.1875,22.2813 Q42.9219,22.2813 43.5625,22.4531 Q44.2188,22.6094 44.7656,22.9688 Z " fill="#000000"/><text fill="#000000" font-family="sans-serif" font-size="14" lengthAdjust="spacing" textLength="27" x="126.5" y="26.5332">Wall</text><text fill="#000000" font-family="sans-serif" font-size="10" lengthAdjust="spacing" textLength="168" x="56" y="39.9902">nz.ac.wgtn.swen225.lc.domain.tiles</text></g></a><!--reverse link nz.ac.wgtn.swen225.lc.domain.tiles.Wall to nz.ac.wgtn.swen225.lc.domain.tiles.Door--><g id="link_nz.ac.wgtn.swen225.lc.domain.tiles.Wall_nz.ac.wgtn.swen225.lc.domain.tiles.Door"><path codeLine="15" d="M127,68.19 C127,80.13 127,93.56 127,106.75 " fill="none" id="nz.ac.wgtn.swen225.lc.domain.tiles.Wall-backto-nz.ac.wgtn.swen225.lc.domain.tiles.Door" style="stroke:#181818;stroke-width:1.0;"/><polygon fill="none" points="120,68.51,127,48.51,134,68.51,120,68.51" style="stroke:#181818;stroke-width:1.0;"/></g><text fill="#888888" font-family="sans-serif" font-size="10" lengthAdjust="spacing" textLength="184" x="28" y="259.8052">UMLDoclet 2.1.0, PlantUML 1.2022.14</text><!--SRC=[jLB1IWCn4Btx5KD1QB4DRT5BAGLfZug2YeVQmpGxxGQoCqioMgpwxoRRGa4izc8EcUIzcSVaJG008YamLXHhjFH0DGPK2S32T9PeA5r1G5Mjxx1ov8lu4wr8IqbmWrkFCK9h7DsMHeFBoKmalF3-sf_mrg0rcxMoYHlYuV3AU6iAgT2nKUSfjW0Z_9rciZ3CvpcOKYk_MC17qq5U5nbkJyNBQ-Y2Ossspe6lAQmaL8z9wjgg4svFIwmx8rYAU48-P6h0DmeHbvwEvbZakvgEQwn9Txsq4xixDUJNxvuze_V_ubaMJfxbiFTiry2ffUFFNk_KsUoVHgmKO2MImzFjpKoiJnzkQ0QctuLxZwm9XVFiSHv3vni0]--></g></svg>