<?xml version="1.0" encoding="UTF-8" standalone="no"?><svg xmlns="http://www.w3.org/2000/svg" xmlns:xlink="http://www.w3.org/1999/xlink" contentScriptType="application/ecmascript" contentStyleType="text/css" height="237px" preserveAspectRatio="none" style="width:225px;height:237px;background:#FFFFFF;" version="1.1" viewBox="0 0 225 237" width="225px" zoomAndPan="magnify"><defs><filter height="300%" id="f16exlc2vl1nep" width="300%" x="-1" y="-1"><feGaussianBlur result="blurOut" stdDeviation="2.0"/><feColorMatrix in="blurOut" result="blurOut2" type="matrix" values="0 0 0 0 0 0 0 0 0 0 0 0 0 0 0 0 0 0 .4 0"/><feOffset dx="4.0" dy="4.0" in="blurOut2" result="blurOut3"/><feBlend in="SourceGraphic" in2="blurOut3" mode="normal"/></filter></defs><g><!--MD5=[2e38699f68342d85deba2d1906cdb63f]
class nz.ac.wgtn.swen225.lc.domain.tiles.ExitLock--><a href="ExitLock.html" target="_top" title="ExitLock.html" xlink:actuate="onRequest" xlink:href="ExitLock.html" xlink:show="new" xlink:title="ExitLock.html" xlink:type="simple"><rect codeLine="5" fill="#FEFECE" filter="url(#f16exlc2vl1nep)" height="95.6336" id="nz.ac.wgtn.swen225.lc.domain.tiles.ExitLock" style="stroke:#A80036;stroke-width:1.5;" width="204" x="7" y="109.69"/><ellipse cx="22" cy="131.034" fill="#ADD1B2" rx="11" ry="11" style="stroke:#A80036;stroke-width:1.0;"/><path d="M21.4688,137.9558 Q19.7188,137.9558 18.5781,137.2215 Q17.4531,136.4715 16.8906,135.1277 Q16.3438,133.7683 16.3438,131.9715 Q16.3438,129.9402 17,128.4871 Q17.6563,127.034 18.9375,126.2527 Q20.2188,125.4715 22.0938,125.4715 Q22.9844,125.4715 23.6563,125.659 Q24.3281,125.8308 25.0156,126.1746 L24.2031,128.1902 Q23.5781,127.8777 23.0313,127.7527 Q22.5,127.6277 22.0156,127.6277 Q20.8438,127.6277 20.1406,128.159 Q19.4375,128.6902 19.1406,129.6433 Q18.8438,130.5965 18.8438,131.8621 Q18.8438,133.8777 19.5625,134.8465 Q20.2813,135.7996 21.875,135.7996 Q22.4688,135.7996 23.0938,135.6433 Q23.7188,135.4871 24.5469,135.1121 L24.5469,137.3308 Q23.8125,137.6433 23.0156,137.7996 Q22.2344,137.9558 21.4688,137.9558 Z " fill="#000000"/><text fill="#000000" font-family="sans-serif" font-size="14" lengthAdjust="spacing" textLength="53" x="95.5" y="129.6559">ExitLock</text><text fill="#000000" font-family="sans-serif" font-size="10" lengthAdjust="spacing" textLength="172" x="36" y="144.4479">nz.ac.wgtn.swen225.lc.domain.tiles</text><line style="stroke:#A80036;stroke-width:1.5;" x1="8" x2="210" y1="152.3779" y2="152.3779"/><ellipse cx="18" cy="163.3779" fill="#84BE84" rx="3" ry="3" style="stroke:#038048;stroke-width:1.0;"/><text fill="#000000" font-family="sans-serif" font-size="11" lengthAdjust="spacing" textLength="83" x="27" y="168.1368">ExitLock(int, int)</text><ellipse cx="18" cy="178.3598" fill="#84BE84" rx="3" ry="3" style="stroke:#038048;stroke-width:1.0;"/><text fill="#000000" font-family="sans-serif" font-size="11" lengthAdjust="spacing" textLength="141" x="27" y="183.1187">traversable(Chap): boolean</text><ellipse cx="18" cy="193.3417" fill="#84BE84" rx="3" ry="3" style="stroke:#038048;stroke-width:1.0;"/><text fill="#000000" font-family="sans-serif" font-size="11" lengthAdjust="spacing" textLength="177" x="27" y="198.1006">performTileAction(Chap): boolean</text></a><!--MD5=[6487f002101fc0c7664e60d44dee7c2b]
class nz.ac.wgtn.swen225.lc.domain.tiles.Wall--><a href="Wall.html" target="_top" title="Wall.html" xlink:actuate="onRequest" xlink:href="Wall.html" xlink:show="new" xlink:title="Wall.html" xlink:type="simple"><rect codeLine="11" fill="#FEFECE" filter="url(#f16exlc2vl1nep)" height="42.6879" id="nz.ac.wgtn.swen225.lc.domain.tiles.Wall" style="stroke:#A80036;stroke-width:1.5;" width="204" x="7" y="7"/><ellipse cx="22" cy="28.344" fill="#ADD1B2" rx="11" ry="11" style="stroke:#A80036;stroke-width:1.0;"/><path d="M21.4688,35.2658 Q19.7188,35.2658 18.5781,34.5315 Q17.4531,33.7815 16.8906,32.4377 Q16.3438,31.0783 16.3438,29.2815 Q16.3438,27.2502 17,25.7971 Q17.6563,24.344 18.9375,23.5627 Q20.2188,22.7815 22.0938,22.7815 Q22.9844,22.7815 23.6563,22.969 Q24.3281,23.1408 25.0156,23.4846 L24.2031,25.5002 Q23.5781,25.1877 23.0313,25.0627 Q22.5,24.9377 22.0156,24.9377 Q20.8438,24.9377 20.1406,25.469 Q19.4375,26.0002 19.1406,26.9533 Q18.8438,27.9065 18.8438,29.1721 Q18.8438,31.1877 19.5625,32.1565 Q20.2813,33.1096 21.875,33.1096 Q22.4688,33.1096 23.0938,32.9533 Q23.7188,32.7971 24.5469,32.4221 L24.5469,34.6408 Q23.8125,34.9533 23.0156,35.1096 Q22.2344,35.2658 21.4688,35.2658 Z " fill="#000000"/><text fill="#000000" font-family="sans-serif" font-size="14" lengthAdjust="spacing" textLength="29" x="107.5" y="26.9659">Wall</text><text fill="#000000" font-family="sans-serif" font-size="10" lengthAdjust="spacing" textLength="172" x="36" y="41.7579">nz.ac.wgtn.swen225.lc.domain.tiles</text></a><!--MD5=[28d8e4124fa8d430d425a33f8de977bd]
reverse link nz.ac.wgtn.swen225.lc.domain.tiles.Wall to nz.ac.wgtn.swen225.lc.domain.tiles.ExitLock--><path codeLine="13" d="M109,70.96 C109,83.25 109,96.79 109,109.39 " fill="none" id="nz.ac.wgtn.swen225.lc.domain.tiles.Wall-backto-nz.ac.wgtn.swen225.lc.domain.tiles.ExitLock" style="stroke:#A80036;stroke-width:1.0;"/><polygon fill="none" points="102,71.06,109,51.06,116,71.06,102,71.06" style="stroke:#A80036;stroke-width:1.0;"/><text fill="#888888" font-family="sans-serif" font-size="10" lengthAdjust="spacing" textLength="182" x="15" y="229.0136">UMLDoclet 2.0.14, PlantUML 1.2021.9</text><!--MD5=[fc7a36f8a471133812917186b576492c]
@startuml
    set namespaceSeparator none
    hide empty fields
    hide empty methods

    class "<size:14>ExitLock\n<size:10>nz.ac.wgtn.swen225.lc.domain.tiles" as nz.ac.wgtn.swen225.lc.domain.tiles.ExitLock [[ExitLock.html]] {
        +ExitLock(int, int)
        +traversable(Chap): boolean
        +performTileAction(Chap): boolean
    }

    class "<size:14>Wall\n<size:10>nz.ac.wgtn.swen225.lc.domain.tiles" as nz.ac.wgtn.swen225.lc.domain.tiles.Wall [[Wall.html]]

    nz.ac.wgtn.swen225.lc.domain.tiles.Wall <|- - nz.ac.wgtn.swen225.lc.domain.tiles.ExitLock

    center footer UMLDoclet 2.0.14, PlantUML 1.2021.9
@enduml

PlantUML version 1.2021.9(Sun Jul 25 22:13:56 NZST 2021)
(APACHE source distribution)
Java Runtime: OpenJDK Runtime Environment
JVM: OpenJDK 64-Bit Server VM
Default Encoding: UTF-8
Language: en
Country: NZ
--></g></svg>