<?xml version="1.0" encoding="UTF-8" standalone="no"?><svg xmlns="http://www.w3.org/2000/svg" xmlns:xlink="http://www.w3.org/1999/xlink" contentStyleType="text/css" height="356px" preserveAspectRatio="none" style="width:216px;height:356px;background:#FFFFFF;" version="1.1" viewBox="0 0 216 356" width="216px" zoomAndPan="magnify"><defs/><g><!--class nz.ac.wgtn.swen225.lc.domain.tiles.Free--><a href="Free.html" target="_top" title="Free.html" xlink:actuate="onRequest" xlink:href="Free.html" xlink:show="new" xlink:title="Free.html" xlink:type="simple"><g id="elem_nz.ac.wgtn.swen225.lc.domain.tiles.Free"><rect codeLine="5" fill="#F1F1F1" height="161.8438" id="nz.ac.wgtn.swen225.lc.domain.tiles.Free" rx="2.5" ry="2.5" style="stroke:#181818;stroke-width:0.5;" width="200" x="9" y="168.02"/><ellipse cx="24" cy="188.1138" fill="#ADD1B2" rx="11" ry="11" style="stroke:#181818;stroke-width:1.0;"/><path d="M26.7656,183.9888 Q26.9219,183.77 27.1094,183.6606 Q27.2969,183.5513 27.5156,183.5513 Q27.8906,183.5513 28.125,183.8169 Q28.3594,184.0669 28.3594,184.6763 L28.3594,186.1294 Q28.3594,186.7388 28.125,187.0044 Q27.8906,187.27 27.5156,187.27 Q27.1719,187.27 26.9688,187.0669 Q26.7656,186.8794 26.6563,186.3638 Q26.6094,186.0044 26.4219,185.8169 Q26.0938,185.4419 25.4844,185.2231 Q24.875,185.0044 24.25,185.0044 Q23.4844,185.0044 22.8438,185.3325 Q22.2188,185.6606 21.7188,186.4106 Q21.2344,187.1606 21.2344,188.1919 L21.2344,189.2856 Q21.2344,190.52 22.125,191.3481 Q23.0156,192.1606 24.6094,192.1606 Q25.5469,192.1606 26.2031,191.9106 Q26.5938,191.7544 27.0156,191.3169 Q27.2813,191.0513 27.4219,190.9731 Q27.5781,190.895 27.7813,190.895 Q28.1094,190.895 28.3594,191.1606 Q28.625,191.4106 28.625,191.7544 Q28.625,192.0981 28.2813,192.5044 Q27.7813,193.0825 26.9844,193.4106 Q25.9063,193.8638 24.6094,193.8638 Q23.0938,193.8638 21.8906,193.2388 Q20.9063,192.7388 20.2188,191.6763 Q19.5313,190.5981 19.5313,189.3169 L19.5313,188.1606 Q19.5313,186.8325 20.1406,185.6919 Q20.7656,184.5356 21.8594,183.9263 Q22.9531,183.3013 24.1875,183.3013 Q24.9219,183.3013 25.5625,183.4731 Q26.2188,183.6294 26.7656,183.9888 Z " fill="#000000"/><text fill="#000000" font-family="sans-serif" font-size="14" lengthAdjust="spacing" textLength="30" x="107" y="187.5532">Free</text><text fill="#000000" font-family="sans-serif" font-size="10" lengthAdjust="spacing" textLength="168" x="38" y="201.0102">nz.ac.wgtn.swen225.lc.domain.tiles</text><line style="stroke:#181818;stroke-width:0.5;" x1="10" x2="208" y1="208.2075" y2="208.2075"/><polygon fill="none" points="20,217.5122,24,221.5122,20,225.5122,16,221.5122" style="stroke:#B38D22;stroke-width:1.0;"/><text fill="#000000" font-family="sans-serif" font-size="14" lengthAdjust="spacing" textLength="29" x="29" y="226.7407">x: int</text><polygon fill="none" points="20,235.1216,24,239.1216,20,243.1216,16,239.1216" style="stroke:#B38D22;stroke-width:1.0;"/><text fill="#000000" font-family="sans-serif" font-size="14" lengthAdjust="spacing" textLength="30" x="29" y="244.3501">y: int</text><line style="stroke:#181818;stroke-width:0.5;" x1="10" x2="208" y1="251.4263" y2="251.4263"/><ellipse cx="20" cy="265.7309" fill="#84BE84" rx="3" ry="3" style="stroke:#038048;stroke-width:1.0;"/><text fill="#000000" font-family="sans-serif" font-size="14" lengthAdjust="spacing" textLength="78" x="29" y="269.9595">Free(int, int)</text><ellipse cx="20" cy="283.3403" fill="#84BE84" rx="3" ry="3" style="stroke:#038048;stroke-width:1.0;"/><text fill="#000000" font-family="sans-serif" font-size="14" lengthAdjust="spacing" textLength="174" x="29" y="287.5688">traversable(Chap): boolean</text><ellipse cx="20" cy="300.9497" fill="#84BE84" rx="3" ry="3" style="stroke:#038048;stroke-width:1.0;"/><text fill="#000000" font-family="sans-serif" font-size="14" lengthAdjust="spacing" textLength="61" x="29" y="305.1782">getX(): int</text><ellipse cx="20" cy="318.5591" fill="#84BE84" rx="3" ry="3" style="stroke:#038048;stroke-width:1.0;"/><text fill="#000000" font-family="sans-serif" font-size="14" lengthAdjust="spacing" textLength="62" x="29" y="322.7876">getY(): int</text></g></a><!--class nz.ac.wgtn.swen225.lc.domain.tiles.Tile--><a href="Tile.html" target="_top" title="Tile.html" xlink:actuate="onRequest" xlink:href="Tile.html" xlink:show="new" xlink:title="Tile.html" xlink:type="simple"><g id="elem_nz.ac.wgtn.swen225.lc.domain.tiles.Tile"><rect codeLine="14" fill="#F1F1F1" height="101.0156" id="nz.ac.wgtn.swen225.lc.domain.tiles.Tile" rx="2.5" ry="2.5" style="stroke:#181818;stroke-width:0.5;" width="200" x="9" y="7"/><ellipse cx="24" cy="27.0938" fill="#B4A7E5" rx="11" ry="11" style="stroke:#181818;stroke-width:1.0;"/><path d="M24.9531,23.7344 L24.9531,30.3906 L26.6719,30.3906 Q27.2813,30.3906 27.5469,30.625 Q27.8125,30.8594 27.8125,31.25 Q27.8125,31.625 27.5469,31.8594 Q27.2813,32.0938 26.6719,32.0938 L21.5313,32.0938 Q20.9219,32.0938 20.6563,31.8594 Q20.3906,31.625 20.3906,31.2344 Q20.3906,30.8594 20.6563,30.625 Q20.9219,30.3906 21.5313,30.3906 L23.25,30.3906 L23.25,23.7344 L21.5313,23.7344 Q20.9219,23.7344 20.6563,23.5 Q20.3906,23.2656 20.3906,22.875 Q20.3906,22.5 20.6563,22.2656 Q20.9219,22.0313 21.5313,22.0313 L26.6719,22.0313 Q27.2813,22.0313 27.5469,22.2656 Q27.8125,22.5 27.8125,22.875 Q27.8125,23.2656 27.5469,23.5 Q27.2813,23.7344 26.6719,23.7344 L24.9531,23.7344 Z " fill="#000000"/><text fill="#000000" font-family="sans-serif" font-size="14" font-style="italic" lengthAdjust="spacing" textLength="23" x="110.5" y="26.5332">Tile</text><text fill="#000000" font-family="sans-serif" font-size="10" font-style="italic" lengthAdjust="spacing" textLength="168" x="38" y="39.9902">nz.ac.wgtn.swen225.lc.domain.tiles</text><line style="stroke:#181818;stroke-width:0.5;" x1="10" x2="208" y1="47.1875" y2="47.1875"/><ellipse cx="20" cy="61.4922" fill="#84BE84" rx="3" ry="3" style="stroke:#038048;stroke-width:1.0;"/><text fill="#000000" font-family="sans-serif" font-size="14" font-style="italic" lengthAdjust="spacing" textLength="173" x="29" y="65.7207">traversable(Chap): boolean</text><ellipse cx="20" cy="79.1016" fill="#84BE84" rx="3" ry="3" style="stroke:#038048;stroke-width:1.0;"/><text fill="#000000" font-family="sans-serif" font-size="14" font-style="italic" lengthAdjust="spacing" textLength="62" x="29" y="83.3301">getX(): int</text><ellipse cx="20" cy="96.7109" fill="#84BE84" rx="3" ry="3" style="stroke:#038048;stroke-width:1.0;"/><text fill="#000000" font-family="sans-serif" font-size="14" font-style="italic" lengthAdjust="spacing" textLength="62" x="29" y="100.9395">getY(): int</text></g></a><!--reverse link nz.ac.wgtn.swen225.lc.domain.tiles.Tile to nz.ac.wgtn.swen225.lc.domain.tiles.Free--><g id="link_nz.ac.wgtn.swen225.lc.domain.tiles.Tile_nz.ac.wgtn.swen225.lc.domain.tiles.Free"><path codeLine="20" d="M109,128.84 C109,141.51 109,154.8 109,167.73 " fill="none" id="nz.ac.wgtn.swen225.lc.domain.tiles.Tile-backto-nz.ac.wgtn.swen225.lc.domain.tiles.Free" style="stroke:#181818;stroke-width:1.0;stroke-dasharray:7.0,7.0;"/><polygon fill="none" points="102,129.28,109,109.28,116,129.28,102,129.28" style="stroke:#181818;stroke-width:1.0;"/></g><text fill="#888888" font-family="sans-serif" font-size="10" lengthAdjust="spacing" textLength="184" x="9" y="346.2446">UMLDoclet 2.1.0, PlantUML 1.2022.14</text><!--SRC=[jP9HIyCm4CVV_HJ7H6Xn75lHbpBselYa8AYWp3rSq-iQI9FI1ESszzrDvg1T7RWNytBSxox7_Vy9081b1vegjZK9VkAQ6dAc0Mqqd_aob39duAfsAoWagzpsQSMkD1xlk51aBGmcLguv7LzDxnhcTxrFHrEzHXAuN3YDTiawIQvH2SnDHLAZauhj0CZ2tsqO1iDi5WAMhbBpEMns6uHp_fc2rAxDLuVvPRWMUJ8CE6wvQ-Y36qkPukYcf3fE8JD6CUcsPy7kDOfx0prywyBjZnq-vQRmndOiUVRx_uibOR2t98JVbcmeirwTSDkJL7RRZmdkrOzfFtNZoHVYgI- -_sGSR8N2c11U7kvlZL3-6oSunj4G7XLfvobS19NIw2Z-1W00]--></g></svg>