<?xml version="1.0" encoding="UTF-8" standalone="no"?><svg xmlns="http://www.w3.org/2000/svg" xmlns:xlink="http://www.w3.org/1999/xlink" contentScriptType="application/ecmascript" contentStyleType="text/css" height="343px" preserveAspectRatio="none" style="width:227px;height:343px;background:#FFFFFF;" version="1.1" viewBox="0 0 227 343" width="227px" zoomAndPan="magnify"><defs><filter height="300%" id="fvox5d34k1f9" width="300%" x="-1" y="-1"><feGaussianBlur result="blurOut" stdDeviation="2.0"/><feColorMatrix in="blurOut" result="blurOut2" type="matrix" values="0 0 0 0 0 0 0 0 0 0 0 0 0 0 0 0 0 0 .4 0"/><feOffset dx="4.0" dy="4.0" in="blurOut2" result="blurOut3"/><feBlend in="SourceGraphic" in2="blurOut3" mode="normal"/></filter></defs><g><!--MD5=[90edbd7303723afe0a7c1ad75ffbeaa2]
class nz.ac.wgtn.swen225.lc.domain.tiles.Free--><a href="Free.html" target="_top" title="Free.html" xlink:actuate="onRequest" xlink:href="Free.html" xlink:show="new" xlink:title="Free.html" xlink:type="simple"><rect codeLine="5" fill="#FEFECE" filter="url(#fvox5d34k1f9)" height="148.5792" id="nz.ac.wgtn.swen225.lc.domain.tiles.Free" style="stroke:#A80036;stroke-width:1.5;" width="204" x="9" y="162.63"/><ellipse cx="24" cy="183.974" fill="#ADD1B2" rx="11" ry="11" style="stroke:#A80036;stroke-width:1.0;"/><path d="M23.4688,190.8958 Q21.7188,190.8958 20.5781,190.1615 Q19.4531,189.4115 18.8906,188.0677 Q18.3438,186.7083 18.3438,184.9115 Q18.3438,182.8802 19,181.4271 Q19.6563,179.974 20.9375,179.1927 Q22.2188,178.4115 24.0938,178.4115 Q24.9844,178.4115 25.6563,178.599 Q26.3281,178.7708 27.0156,179.1146 L26.2031,181.1302 Q25.5781,180.8177 25.0313,180.6927 Q24.5,180.5677 24.0156,180.5677 Q22.8438,180.5677 22.1406,181.099 Q21.4375,181.6302 21.1406,182.5833 Q20.8438,183.5365 20.8438,184.8021 Q20.8438,186.8177 21.5625,187.7865 Q22.2813,188.7396 23.875,188.7396 Q24.4688,188.7396 25.0938,188.5833 Q25.7188,188.4271 26.5469,188.0521 L26.5469,190.2708 Q25.8125,190.5833 25.0156,190.7396 Q24.2344,190.8958 23.4688,190.8958 Z " fill="#000000"/><text fill="#000000" font-family="sans-serif" font-size="14" lengthAdjust="spacing" textLength="29" x="109.5" y="182.5959">Free</text><text fill="#000000" font-family="sans-serif" font-size="10" lengthAdjust="spacing" textLength="172" x="38" y="197.3879">nz.ac.wgtn.swen225.lc.domain.tiles</text><line style="stroke:#A80036;stroke-width:1.5;" x1="10" x2="212" y1="205.3179" y2="205.3179"/><polygon fill="none" points="20,211.3179,24,215.3179,20,219.3179,16,215.3179" style="stroke:#B38D22;stroke-width:1.0;"/><text fill="#000000" font-family="sans-serif" font-size="11" lengthAdjust="spacing" textLength="26" x="29" y="221.0768">x: int</text><polygon fill="none" points="20,226.2998,24,230.2998,20,234.2998,16,230.2998" style="stroke:#B38D22;stroke-width:1.0;"/><text fill="#000000" font-family="sans-serif" font-size="11" lengthAdjust="spacing" textLength="26" x="29" y="236.0587">y: int</text><line style="stroke:#A80036;stroke-width:1.5;" x1="10" x2="212" y1="243.2817" y2="243.2817"/><ellipse cx="20" cy="254.2817" fill="#84BE84" rx="3" ry="3" style="stroke:#038048;stroke-width:1.0;"/><text fill="#000000" font-family="sans-serif" font-size="11" lengthAdjust="spacing" textLength="63" x="29" y="259.0406">Free(int, int)</text><ellipse cx="20" cy="269.2636" fill="#84BE84" rx="3" ry="3" style="stroke:#038048;stroke-width:1.0;"/><text fill="#000000" font-family="sans-serif" font-size="11" lengthAdjust="spacing" textLength="141" x="29" y="274.0225">traversable(Chap): boolean</text><ellipse cx="20" cy="284.2455" fill="#84BE84" rx="3" ry="3" style="stroke:#038048;stroke-width:1.0;"/><text fill="#000000" font-family="sans-serif" font-size="11" lengthAdjust="spacing" textLength="49" x="29" y="289.0044">getX(): int</text><ellipse cx="20" cy="299.2273" fill="#84BE84" rx="3" ry="3" style="stroke:#038048;stroke-width:1.0;"/><text fill="#000000" font-family="sans-serif" font-size="11" lengthAdjust="spacing" textLength="49" x="29" y="303.9863">getY(): int</text></a><!--MD5=[02a1b30ec222ca2553512277ee8b5041]
class nz.ac.wgtn.swen225.lc.domain.tiles.Tile--><a href="Tile.html" target="_top" title="Tile.html" xlink:actuate="onRequest" xlink:href="Tile.html" xlink:show="new" xlink:title="Tile.html" xlink:type="simple"><rect codeLine="14" fill="#FEFECE" filter="url(#fvox5d34k1f9)" height="95.6336" id="nz.ac.wgtn.swen225.lc.domain.tiles.Tile" style="stroke:#A80036;stroke-width:1.5;" width="195" x="13.5" y="7"/><ellipse cx="28.5" cy="28.344" fill="#B4A7E5" rx="11" ry="11" style="stroke:#A80036;stroke-width:1.0;"/><path d="M24.5313,34.844 L24.5313,33.1408 L26.8906,32.8752 L26.8906,24.6721 L24.5313,24.4065 L24.5313,22.7033 L31.6719,22.7033 L31.6719,24.4065 L29.25,24.6721 L29.25,32.8752 L31.6719,33.1408 L31.6719,34.844 L24.5313,34.844 Z " fill="#000000"/><text fill="#000000" font-family="sans-serif" font-size="14" font-style="italic" lengthAdjust="spacing" textLength="22" x="113" y="26.9659">Tile</text><text fill="#000000" font-family="sans-serif" font-size="10" font-style="italic" lengthAdjust="spacing" textLength="163" x="42.5" y="41.7579">nz.ac.wgtn.swen225.lc.domain.tiles</text><line style="stroke:#A80036;stroke-width:1.5;" x1="14.5" x2="207.5" y1="49.6879" y2="49.6879"/><ellipse cx="24.5" cy="60.6879" fill="#84BE84" rx="3" ry="3" style="stroke:#038048;stroke-width:1.0;"/><text fill="#000000" font-family="sans-serif" font-size="11" font-style="italic" lengthAdjust="spacing" textLength="127" x="33.5" y="65.4468">traversable(Chap): boolean</text><ellipse cx="24.5" cy="75.6698" fill="#84BE84" rx="3" ry="3" style="stroke:#038048;stroke-width:1.0;"/><text fill="#000000" font-family="sans-serif" font-size="11" font-style="italic" lengthAdjust="spacing" textLength="46" x="33.5" y="80.4287">getX(): int</text><ellipse cx="24.5" cy="90.6517" fill="#84BE84" rx="3" ry="3" style="stroke:#038048;stroke-width:1.0;"/><text fill="#000000" font-family="sans-serif" font-size="11" font-style="italic" lengthAdjust="spacing" textLength="46" x="33.5" y="95.4106">getY(): int</text></a><!--MD5=[769e1b611c44fab65f0d11b9e4488642]
reverse link nz.ac.wgtn.swen225.lc.domain.tiles.Tile to nz.ac.wgtn.swen225.lc.domain.tiles.Free--><path codeLine="20" d="M111,123.33 C111,136.09 111,149.5 111,162.43 " fill="none" id="nz.ac.wgtn.swen225.lc.domain.tiles.Tile-backto-nz.ac.wgtn.swen225.lc.domain.tiles.Free" style="stroke:#A80036;stroke-width:1.0;stroke-dasharray:7.0,7.0;"/><polygon fill="none" points="104,123.66,111,103.66,118,123.66,104,123.66" style="stroke:#A80036;stroke-width:1.0;"/><text fill="#888888" font-family="sans-serif" font-size="10" lengthAdjust="spacing" textLength="182" x="16" y="334.8992">UMLDoclet 2.0.14, PlantUML 1.2021.9</text><!--MD5=[8377a3dfedd21d4c085f89882dc7a39a]
@startuml
    set namespaceSeparator none
    hide empty fields
    hide empty methods

    class "<size:14>Free\n<size:10>nz.ac.wgtn.swen225.lc.domain.tiles" as nz.ac.wgtn.swen225.lc.domain.tiles.Free [[Free.html]] {
        #x: int
        #y: int
        +Free(int, int)
        +traversable(Chap): boolean
        +getX(): int
        +getY(): int
    }

    interface "<size:14>Tile\n<size:10>nz.ac.wgtn.swen225.lc.domain.tiles" as nz.ac.wgtn.swen225.lc.domain.tiles.Tile [[Tile.html]] {
        {abstract} +traversable(Chap): boolean
        {abstract} +getX(): int
        {abstract} +getY(): int
    }

    nz.ac.wgtn.swen225.lc.domain.tiles.Tile <|.. nz.ac.wgtn.swen225.lc.domain.tiles.Free

    center footer UMLDoclet 2.0.14, PlantUML 1.2021.9
@enduml

PlantUML version 1.2021.9(Sun Jul 25 22:13:56 NZST 2021)
(APACHE source distribution)
Java Runtime: OpenJDK Runtime Environment
JVM: OpenJDK 64-Bit Server VM
Default Encoding: UTF-8
Language: en
Country: NZ
--></g></svg>