<?xml version="1.0" encoding="UTF-8" standalone="no"?><svg xmlns="http://www.w3.org/2000/svg" xmlns:xlink="http://www.w3.org/1999/xlink" contentStyleType="text/css" height="234px" preserveAspectRatio="none" style="width:254px;height:234px;background:#FFFFFF;" version="1.1" viewBox="0 0 254 234" width="254px" zoomAndPan="magnify"><defs/><g><!--class nz.ac.wgtn.swen225.lc.domain.tiles.KeyTile--><a href="KeyTile.html" target="_top" title="KeyTile.html" xlink:actuate="onRequest" xlink:href="KeyTile.html" xlink:show="new" xlink:title="KeyTile.html" xlink:type="simple"><g id="elem_nz.ac.wgtn.swen225.lc.domain.tiles.KeyTile"><rect codeLine="5" fill="#F1F1F1" height="101.0156" id="nz.ac.wgtn.swen225.lc.domain.tiles.KeyTile" rx="2.5" ry="2.5" style="stroke:#181818;stroke-width:0.5;" width="240" x="7" y="107.18"/><ellipse cx="40" cy="127.2737" fill="#ADD1B2" rx="11" ry="11" style="stroke:#181818;stroke-width:1.0;"/><path d="M42.7656,123.1488 Q42.9219,122.93 43.1094,122.8206 Q43.2969,122.7113 43.5156,122.7113 Q43.8906,122.7113 44.125,122.9769 Q44.3594,123.2269 44.3594,123.8363 L44.3594,125.2894 Q44.3594,125.8988 44.125,126.1644 Q43.8906,126.43 43.5156,126.43 Q43.1719,126.43 42.9688,126.2269 Q42.7656,126.0394 42.6563,125.5238 Q42.6094,125.1644 42.4219,124.9769 Q42.0938,124.6019 41.4844,124.3831 Q40.875,124.1644 40.25,124.1644 Q39.4844,124.1644 38.8438,124.4925 Q38.2188,124.8206 37.7188,125.5706 Q37.2344,126.3206 37.2344,127.3519 L37.2344,128.4456 Q37.2344,129.68 38.125,130.5081 Q39.0156,131.3206 40.6094,131.3206 Q41.5469,131.3206 42.2031,131.0706 Q42.5938,130.9144 43.0156,130.4769 Q43.2813,130.2113 43.4219,130.1331 Q43.5781,130.055 43.7813,130.055 Q44.1094,130.055 44.3594,130.3206 Q44.625,130.5706 44.625,130.9144 Q44.625,131.2581 44.2813,131.6644 Q43.7813,132.2425 42.9844,132.5706 Q41.9063,133.0238 40.6094,133.0238 Q39.0938,133.0238 37.8906,132.3988 Q36.9063,131.8988 36.2188,130.8363 Q35.5313,129.7581 35.5313,128.4769 L35.5313,127.3206 Q35.5313,125.9925 36.1406,124.8519 Q36.7656,123.6956 37.8594,123.0863 Q38.9531,122.4613 40.1875,122.4613 Q40.9219,122.4613 41.5625,122.6331 Q42.2188,122.7894 42.7656,123.1488 Z " fill="#000000"/><text fill="#000000" font-family="sans-serif" font-size="14" lengthAdjust="spacing" textLength="47" x="118.5" y="126.7132">KeyTile</text><text fill="#000000" font-family="sans-serif" font-size="10" lengthAdjust="spacing" textLength="168" x="58" y="140.1702">nz.ac.wgtn.swen225.lc.domain.tiles</text><line style="stroke:#181818;stroke-width:0.5;" x1="8" x2="246" y1="147.3675" y2="147.3675"/><ellipse cx="18" cy="161.6722" fill="#84BE84" rx="3" ry="3" style="stroke:#038048;stroke-width:1.0;"/><text fill="#000000" font-family="sans-serif" font-size="14" lengthAdjust="spacing" textLength="145" x="27" y="165.9007">KeyTile(Colour, int, int)</text><ellipse cx="18" cy="179.2816" fill="#84BE84" rx="3" ry="3" style="stroke:#038048;stroke-width:1.0;"/><text fill="#000000" font-family="sans-serif" font-size="14" lengthAdjust="spacing" textLength="214" x="27" y="183.5101">performTileAction(Chap): boolean</text><ellipse cx="18" cy="196.8909" fill="#84BE84" rx="3" ry="3" style="stroke:#038048;stroke-width:1.0;"/><text fill="#000000" font-family="sans-serif" font-size="14" lengthAdjust="spacing" textLength="122" x="27" y="201.1195">getColour(): Colour</text></g></a><!--class nz.ac.wgtn.swen225.lc.domain.tiles.Free--><a href="Free.html" target="_top" title="Free.html" xlink:actuate="onRequest" xlink:href="Free.html" xlink:show="new" xlink:title="Free.html" xlink:type="simple"><g id="elem_nz.ac.wgtn.swen225.lc.domain.tiles.Free"><rect codeLine="11" fill="#F1F1F1" height="40.1875" id="nz.ac.wgtn.swen225.lc.domain.tiles.Free" rx="2.5" ry="2.5" style="stroke:#181818;stroke-width:0.5;" width="200" x="27" y="7"/><ellipse cx="42" cy="27.0938" fill="#ADD1B2" rx="11" ry="11" style="stroke:#181818;stroke-width:1.0;"/><path d="M44.7656,22.9688 Q44.9219,22.75 45.1094,22.6406 Q45.2969,22.5313 45.5156,22.5313 Q45.8906,22.5313 46.125,22.7969 Q46.3594,23.0469 46.3594,23.6563 L46.3594,25.1094 Q46.3594,25.7188 46.125,25.9844 Q45.8906,26.25 45.5156,26.25 Q45.1719,26.25 44.9688,26.0469 Q44.7656,25.8594 44.6563,25.3438 Q44.6094,24.9844 44.4219,24.7969 Q44.0938,24.4219 43.4844,24.2031 Q42.875,23.9844 42.25,23.9844 Q41.4844,23.9844 40.8438,24.3125 Q40.2188,24.6406 39.7188,25.3906 Q39.2344,26.1406 39.2344,27.1719 L39.2344,28.2656 Q39.2344,29.5 40.125,30.3281 Q41.0156,31.1406 42.6094,31.1406 Q43.5469,31.1406 44.2031,30.8906 Q44.5938,30.7344 45.0156,30.2969 Q45.2813,30.0313 45.4219,29.9531 Q45.5781,29.875 45.7813,29.875 Q46.1094,29.875 46.3594,30.1406 Q46.625,30.3906 46.625,30.7344 Q46.625,31.0781 46.2813,31.4844 Q45.7813,32.0625 44.9844,32.3906 Q43.9063,32.8438 42.6094,32.8438 Q41.0938,32.8438 39.8906,32.2188 Q38.9063,31.7188 38.2188,30.6563 Q37.5313,29.5781 37.5313,28.2969 L37.5313,27.1406 Q37.5313,25.8125 38.1406,24.6719 Q38.7656,23.5156 39.8594,22.9063 Q40.9531,22.2813 42.1875,22.2813 Q42.9219,22.2813 43.5625,22.4531 Q44.2188,22.6094 44.7656,22.9688 Z " fill="#000000"/><text fill="#000000" font-family="sans-serif" font-size="14" lengthAdjust="spacing" textLength="30" x="125" y="26.5332">Free</text><text fill="#000000" font-family="sans-serif" font-size="10" lengthAdjust="spacing" textLength="168" x="56" y="39.9902">nz.ac.wgtn.swen225.lc.domain.tiles</text></g></a><!--reverse link nz.ac.wgtn.swen225.lc.domain.tiles.Free to nz.ac.wgtn.swen225.lc.domain.tiles.KeyTile--><g id="link_nz.ac.wgtn.swen225.lc.domain.tiles.Free_nz.ac.wgtn.swen225.lc.domain.tiles.KeyTile"><path codeLine="13" d="M127,68.3 C127,80.54 127,94.14 127,106.93 " fill="none" id="nz.ac.wgtn.swen225.lc.domain.tiles.Free-backto-nz.ac.wgtn.swen225.lc.domain.tiles.KeyTile" style="stroke:#181818;stroke-width:1.0;"/><polygon fill="none" points="120,68.62,127,48.62,134,68.62,120,68.62" style="stroke:#181818;stroke-width:1.0;"/></g><text fill="#888888" font-family="sans-serif" font-size="10" lengthAdjust="spacing" textLength="184" x="28" y="224.5765">UMLDoclet 2.1.0, PlantUML 1.2022.14</text><!--SRC=[jLB1IWCn4Btx5KD1sCKsj4KlfHIauaK5GJtL7c9sjXj8PfOaMbhrtqrs0uKYg0Tpo0pllJpc3G40y1Y0f4NVIeKFs4ed0piW9Zo9D3IwGa3RXXtK6atbZr6BeU48TxWoqdiOpBtUusnolhZ1tQCs-4mP6IzeBwGIsqqWuRT8q-c5C4fKRAKc4QBM3q1w-5aciZUiLhaJJR1clORtRfHqpZ9JBDdmgnk2fj1TvK7IeglPsIIxL44p5Sj6jkKCNfWDIZeeDnXwdoAoVTUHdzzdltRuFy6JSKoTIexS3_3Rf_EFqUWF2yxfa08wg9bJURgxlM9buj-PYeaO3-7UI0eHXTCtT3vjiVm2]--></g></svg>