<?xml version="1.0" encoding="UTF-8" standalone="no"?><svg xmlns="http://www.w3.org/2000/svg" xmlns:xlink="http://www.w3.org/1999/xlink" contentStyleType="text/css" height="754px" preserveAspectRatio="none" style="width:1660px;height:754px;background:#FFFFFF;" version="1.1" viewBox="0 0 1660 754" width="1660px" zoomAndPan="magnify"><defs/><g><!--cluster nz.ac.wgtn.swen225.lc.domain.tiles--><g id="cluster_nz.ac.wgtn.swen225.lc.domain.tiles"><path d="M8.5,130 L253.5,130 A3.75,3.75 0 0 1 256,132.5 L263,153.6094 L1650.5,153.6094 A2.5,2.5 0 0 1 1653,156.1094 L1653,725.25 A2.5,2.5 0 0 1 1650.5,727.75 L8.5,727.75 A2.5,2.5 0 0 1 6,725.25 L6,132.5 A2.5,2.5 0 0 1 8.5,130 " fill="none" style="stroke:#000000;stroke-width:1.5;"/><line style="stroke:#000000;stroke-width:1.5;" x1="6" x2="263" y1="153.6094" y2="153.6094"/><text fill="#000000" font-family="sans-serif" font-size="14" font-weight="bold" lengthAdjust="spacing" textLength="244" x="10" y="146.5332">nz.ac.wgtn.swen225.lc.domain.tiles</text></g><!--cluster java.lang--><g id="cluster_java.lang"><path d="M905.5,6 L969.5,6 A3.75,3.75 0 0 1 972,8.5 L979,29.6094 L1028.5,29.6094 A2.5,2.5 0 0 1 1031,32.1094 L1031,103.5 A2.5,2.5 0 0 1 1028.5,106 L905.5,106 A2.5,2.5 0 0 1 903,103.5 L903,8.5 A2.5,2.5 0 0 1 905.5,6 " fill="none" style="stroke:#000000;stroke-width:1.5;"/><line style="stroke:#000000;stroke-width:1.5;" x1="903" x2="979" y1="29.6094" y2="29.6094"/><text fill="#000000" font-family="sans-serif" font-size="14" font-weight="bold" lengthAdjust="spacing" textLength="63" x="907" y="22.5332">java.lang</text></g><!--class nz.ac.wgtn.swen225.lc.domain.tiles.Door--><a href="Door.html" target="_top" title="Door.html" xlink:actuate="onRequest" xlink:href="Door.html" xlink:show="new" xlink:title="Door.html" xlink:type="simple"><g id="elem_nz.ac.wgtn.swen225.lc.domain.tiles.Door"><rect codeLine="3" fill="#F1F1F1" height="136.0469" id="nz.ac.wgtn.swen225.lc.domain.tiles.Door" rx="2.5" ry="2.5" style="stroke:#181818;stroke-width:0.5;" width="240" x="1122" y="575.7"/><ellipse cx="1222.25" cy="591.7" fill="#ADD1B2" rx="11" ry="11" style="stroke:#181818;stroke-width:1.0;"/><path d="M1225.0156,587.575 Q1225.1719,587.3563 1225.3594,587.2469 Q1225.5469,587.1375 1225.7656,587.1375 Q1226.1406,587.1375 1226.375,587.4031 Q1226.6094,587.6531 1226.6094,588.2625 L1226.6094,589.7156 Q1226.6094,590.325 1226.375,590.5906 Q1226.1406,590.8563 1225.7656,590.8563 Q1225.4219,590.8563 1225.2188,590.6531 Q1225.0156,590.4656 1224.9063,589.95 Q1224.8594,589.5906 1224.6719,589.4031 Q1224.3438,589.0281 1223.7344,588.8094 Q1223.125,588.5906 1222.5,588.5906 Q1221.7344,588.5906 1221.0938,588.9188 Q1220.4688,589.2469 1219.9688,589.9969 Q1219.4844,590.7469 1219.4844,591.7781 L1219.4844,592.8719 Q1219.4844,594.1063 1220.375,594.9344 Q1221.2656,595.7469 1222.8594,595.7469 Q1223.7969,595.7469 1224.4531,595.4969 Q1224.8438,595.3406 1225.2656,594.9031 Q1225.5313,594.6375 1225.6719,594.5594 Q1225.8281,594.4813 1226.0313,594.4813 Q1226.3594,594.4813 1226.6094,594.7469 Q1226.875,594.9969 1226.875,595.3406 Q1226.875,595.6844 1226.5313,596.0906 Q1226.0313,596.6688 1225.2344,596.9969 Q1224.1563,597.45 1222.8594,597.45 Q1221.3438,597.45 1220.1406,596.825 Q1219.1563,596.325 1218.4688,595.2625 Q1217.7813,594.1844 1217.7813,592.9031 L1217.7813,591.7469 Q1217.7813,590.4188 1218.3906,589.2781 Q1219.0156,588.1219 1220.1094,587.5125 Q1221.2031,586.8875 1222.4375,586.8875 Q1223.1719,586.8875 1223.8125,587.0594 Q1224.4688,587.2156 1225.0156,587.575 Z " fill="#000000"/><text fill="#000000" font-family="sans-serif" font-size="14" lengthAdjust="spacing" textLength="31" x="1242.75" y="597.4285">Door</text><line style="stroke:#181818;stroke-width:0.5;" x1="1123" x2="1361" y1="607.7" y2="607.7"/><line style="stroke:#181818;stroke-width:0.5;" x1="1123" x2="1361" y1="615.7" y2="615.7"/><ellipse cx="1133" cy="630.0047" fill="#84BE84" rx="3" ry="3" style="stroke:#038048;stroke-width:1.0;"/><text fill="#000000" font-family="sans-serif" font-size="14" lengthAdjust="spacing" textLength="129" x="1142" y="634.2332">Door(Colour, int, int)</text><ellipse cx="1133" cy="647.6141" fill="#84BE84" rx="3" ry="3" style="stroke:#038048;stroke-width:1.0;"/><text fill="#000000" font-family="sans-serif" font-size="14" lengthAdjust="spacing" textLength="214" x="1142" y="651.8426">performTileAction(Chap): boolean</text><ellipse cx="1133" cy="665.2234" fill="#84BE84" rx="3" ry="3" style="stroke:#038048;stroke-width:1.0;"/><text fill="#000000" font-family="sans-serif" font-size="14" lengthAdjust="spacing" textLength="174" x="1142" y="669.452">traversable(Chap): boolean</text><ellipse cx="1133" cy="682.8328" fill="#84BE84" rx="3" ry="3" style="stroke:#038048;stroke-width:1.0;"/><text fill="#000000" font-family="sans-serif" font-size="14" lengthAdjust="spacing" textLength="161" x="1142" y="687.0613">canOpen(Chap): boolean</text><ellipse cx="1133" cy="700.4422" fill="#84BE84" rx="3" ry="3" style="stroke:#038048;stroke-width:1.0;"/><text fill="#000000" font-family="sans-serif" font-size="14" lengthAdjust="spacing" textLength="122" x="1142" y="704.6707">getColour(): Colour</text></g></a><!--class nz.ac.wgtn.swen225.lc.domain.tiles.Exit--><a href="Exit.html" target="_top" title="Exit.html" xlink:actuate="onRequest" xlink:href="Exit.html" xlink:show="new" xlink:title="Exit.html" xlink:type="simple"><g id="elem_nz.ac.wgtn.swen225.lc.domain.tiles.Exit"><rect codeLine="11" fill="#F1F1F1" height="83.2188" id="nz.ac.wgtn.swen225.lc.domain.tiles.Exit" rx="2.5" ry="2.5" style="stroke:#181818;stroke-width:0.5;" width="240" x="22" y="602.12"/><ellipse cx="126.75" cy="618.12" fill="#ADD1B2" rx="11" ry="11" style="stroke:#181818;stroke-width:1.0;"/><path d="M129.5156,613.995 Q129.6719,613.7763 129.8594,613.6669 Q130.0469,613.5575 130.2656,613.5575 Q130.6406,613.5575 130.875,613.8231 Q131.1094,614.0731 131.1094,614.6825 L131.1094,616.1356 Q131.1094,616.745 130.875,617.0106 Q130.6406,617.2763 130.2656,617.2763 Q129.9219,617.2763 129.7188,617.0731 Q129.5156,616.8856 129.4063,616.37 Q129.3594,616.0106 129.1719,615.8231 Q128.8438,615.4481 128.2344,615.2294 Q127.625,615.0106 127,615.0106 Q126.2344,615.0106 125.5938,615.3388 Q124.9688,615.6669 124.4688,616.4169 Q123.9844,617.1669 123.9844,618.1981 L123.9844,619.2919 Q123.9844,620.5263 124.875,621.3544 Q125.7656,622.1669 127.3594,622.1669 Q128.2969,622.1669 128.9531,621.9169 Q129.3438,621.7606 129.7656,621.3231 Q130.0313,621.0575 130.1719,620.9794 Q130.3281,620.9013 130.5313,620.9013 Q130.8594,620.9013 131.1094,621.1669 Q131.375,621.4169 131.375,621.7606 Q131.375,622.1044 131.0313,622.5106 Q130.5313,623.0888 129.7344,623.4169 Q128.6563,623.87 127.3594,623.87 Q125.8438,623.87 124.6406,623.245 Q123.6563,622.745 122.9688,621.6825 Q122.2813,620.6044 122.2813,619.3231 L122.2813,618.1669 Q122.2813,616.8388 122.8906,615.6981 Q123.5156,614.5419 124.6094,613.9325 Q125.7031,613.3075 126.9375,613.3075 Q127.6719,613.3075 128.3125,613.4794 Q128.9688,613.6356 129.5156,613.995 Z " fill="#000000"/><text fill="#000000" font-family="sans-serif" font-size="14" lengthAdjust="spacing" textLength="22" x="147.25" y="623.8485">Exit</text><line style="stroke:#181818;stroke-width:0.5;" x1="23" x2="261" y1="634.12" y2="634.12"/><line style="stroke:#181818;stroke-width:0.5;" x1="23" x2="261" y1="642.12" y2="642.12"/><ellipse cx="33" cy="656.4247" fill="#84BE84" rx="3" ry="3" style="stroke:#038048;stroke-width:1.0;"/><text fill="#000000" font-family="sans-serif" font-size="14" lengthAdjust="spacing" textLength="70" x="42" y="660.6532">Exit(int, int)</text><ellipse cx="33" cy="674.0341" fill="#84BE84" rx="3" ry="3" style="stroke:#038048;stroke-width:1.0;"/><text fill="#000000" font-family="sans-serif" font-size="14" lengthAdjust="spacing" textLength="214" x="42" y="678.2626">performTileAction(Chap): boolean</text></g></a><!--class nz.ac.wgtn.swen225.lc.domain.tiles.ExitLock--><a href="ExitLock.html" target="_top" title="ExitLock.html" xlink:actuate="onRequest" xlink:href="ExitLock.html" xlink:show="new" xlink:title="ExitLock.html" xlink:type="simple"><g id="elem_nz.ac.wgtn.swen225.lc.domain.tiles.ExitLock"><rect codeLine="16" fill="#F1F1F1" height="100.8281" id="nz.ac.wgtn.swen225.lc.domain.tiles.ExitLock" rx="2.5" ry="2.5" style="stroke:#181818;stroke-width:0.5;" width="240" x="1397" y="593.31"/><ellipse cx="1486.75" cy="609.31" fill="#ADD1B2" rx="11" ry="11" style="stroke:#181818;stroke-width:1.0;"/><path d="M1489.5156,605.185 Q1489.6719,604.9663 1489.8594,604.8569 Q1490.0469,604.7475 1490.2656,604.7475 Q1490.6406,604.7475 1490.875,605.0131 Q1491.1094,605.2631 1491.1094,605.8725 L1491.1094,607.3256 Q1491.1094,607.935 1490.875,608.2006 Q1490.6406,608.4663 1490.2656,608.4663 Q1489.9219,608.4663 1489.7188,608.2631 Q1489.5156,608.0756 1489.4063,607.56 Q1489.3594,607.2006 1489.1719,607.0131 Q1488.8438,606.6381 1488.2344,606.4194 Q1487.625,606.2006 1487,606.2006 Q1486.2344,606.2006 1485.5938,606.5288 Q1484.9688,606.8569 1484.4688,607.6069 Q1483.9844,608.3569 1483.9844,609.3881 L1483.9844,610.4819 Q1483.9844,611.7163 1484.875,612.5444 Q1485.7656,613.3569 1487.3594,613.3569 Q1488.2969,613.3569 1488.9531,613.1069 Q1489.3438,612.9506 1489.7656,612.5131 Q1490.0313,612.2475 1490.1719,612.1694 Q1490.3281,612.0913 1490.5313,612.0913 Q1490.8594,612.0913 1491.1094,612.3569 Q1491.375,612.6069 1491.375,612.9506 Q1491.375,613.2944 1491.0313,613.7006 Q1490.5313,614.2788 1489.7344,614.6069 Q1488.6563,615.06 1487.3594,615.06 Q1485.8438,615.06 1484.6406,614.435 Q1483.6563,613.935 1482.9688,612.8725 Q1482.2813,611.7944 1482.2813,610.5131 L1482.2813,609.3569 Q1482.2813,608.0288 1482.8906,606.8881 Q1483.5156,605.7319 1484.6094,605.1225 Q1485.7031,604.4975 1486.9375,604.4975 Q1487.6719,604.4975 1488.3125,604.6694 Q1488.9688,604.8256 1489.5156,605.185 Z " fill="#000000"/><text fill="#000000" font-family="sans-serif" font-size="14" lengthAdjust="spacing" textLength="52" x="1507.25" y="615.0385">ExitLock</text><line style="stroke:#181818;stroke-width:0.5;" x1="1398" x2="1636" y1="625.31" y2="625.31"/><line style="stroke:#181818;stroke-width:0.5;" x1="1398" x2="1636" y1="633.31" y2="633.31"/><ellipse cx="1408" cy="647.6147" fill="#84BE84" rx="3" ry="3" style="stroke:#038048;stroke-width:1.0;"/><text fill="#000000" font-family="sans-serif" font-size="14" lengthAdjust="spacing" textLength="100" x="1417" y="651.8432">ExitLock(int, int)</text><ellipse cx="1408" cy="665.2241" fill="#84BE84" rx="3" ry="3" style="stroke:#038048;stroke-width:1.0;"/><text fill="#000000" font-family="sans-serif" font-size="14" lengthAdjust="spacing" textLength="174" x="1417" y="669.4526">traversable(Chap): boolean</text><ellipse cx="1408" cy="682.8334" fill="#84BE84" rx="3" ry="3" style="stroke:#038048;stroke-width:1.0;"/><text fill="#000000" font-family="sans-serif" font-size="14" lengthAdjust="spacing" textLength="214" x="1417" y="687.062">performTileAction(Chap): boolean</text></g></a><!--class nz.ac.wgtn.swen225.lc.domain.tiles.Free--><a href="Free.html" target="_top" title="Free.html" xlink:actuate="onRequest" xlink:href="Free.html" xlink:show="new" xlink:title="Free.html" xlink:type="simple"><g id="elem_nz.ac.wgtn.swen225.lc.domain.tiles.Free"><rect codeLine="22" fill="#F1F1F1" height="153.6563" id="nz.ac.wgtn.swen225.lc.domain.tiles.Free" rx="2.5" ry="2.5" style="stroke:#181818;stroke-width:0.5;" width="200" x="592" y="353.24"/><ellipse cx="672.75" cy="369.24" fill="#ADD1B2" rx="11" ry="11" style="stroke:#181818;stroke-width:1.0;"/><path d="M675.5156,365.115 Q675.6719,364.8963 675.8594,364.7869 Q676.0469,364.6775 676.2656,364.6775 Q676.6406,364.6775 676.875,364.9431 Q677.1094,365.1931 677.1094,365.8025 L677.1094,367.2556 Q677.1094,367.865 676.875,368.1306 Q676.6406,368.3963 676.2656,368.3963 Q675.9219,368.3963 675.7188,368.1931 Q675.5156,368.0056 675.4063,367.49 Q675.3594,367.1306 675.1719,366.9431 Q674.8438,366.5681 674.2344,366.3494 Q673.625,366.1306 673,366.1306 Q672.2344,366.1306 671.5938,366.4588 Q670.9688,366.7869 670.4688,367.5369 Q669.9844,368.2869 669.9844,369.3181 L669.9844,370.4119 Q669.9844,371.6463 670.875,372.4744 Q671.7656,373.2869 673.3594,373.2869 Q674.2969,373.2869 674.9531,373.0369 Q675.3438,372.8806 675.7656,372.4431 Q676.0313,372.1775 676.1719,372.0994 Q676.3281,372.0213 676.5313,372.0213 Q676.8594,372.0213 677.1094,372.2869 Q677.375,372.5369 677.375,372.8806 Q677.375,373.2244 677.0313,373.6306 Q676.5313,374.2088 675.7344,374.5369 Q674.6563,374.99 673.3594,374.99 Q671.8438,374.99 670.6406,374.365 Q669.6563,373.865 668.9688,372.8025 Q668.2813,371.7244 668.2813,370.4431 L668.2813,369.2869 Q668.2813,367.9588 668.8906,366.8181 Q669.5156,365.6619 670.6094,365.0525 Q671.7031,364.4275 672.9375,364.4275 Q673.6719,364.4275 674.3125,364.5994 Q674.9688,364.7556 675.5156,365.115 Z " fill="#000000"/><text fill="#000000" font-family="sans-serif" font-size="14" lengthAdjust="spacing" textLength="30" x="693.25" y="374.9685">Free</text><line style="stroke:#181818;stroke-width:0.5;" x1="593" x2="791" y1="385.24" y2="385.24"/><polygon fill="none" points="603,394.5447,607,398.5447,603,402.5447,599,398.5447" style="stroke:#B38D22;stroke-width:1.0;"/><text fill="#000000" font-family="sans-serif" font-size="14" lengthAdjust="spacing" textLength="29" x="612" y="403.7732">x: int</text><polygon fill="none" points="603,412.1541,607,416.1541,603,420.1541,599,416.1541" style="stroke:#B38D22;stroke-width:1.0;"/><text fill="#000000" font-family="sans-serif" font-size="14" lengthAdjust="spacing" textLength="30" x="612" y="421.3826">y: int</text><line style="stroke:#181818;stroke-width:0.5;" x1="593" x2="791" y1="428.4588" y2="428.4588"/><ellipse cx="603" cy="442.7634" fill="#84BE84" rx="3" ry="3" style="stroke:#038048;stroke-width:1.0;"/><text fill="#000000" font-family="sans-serif" font-size="14" lengthAdjust="spacing" textLength="78" x="612" y="446.992">Free(int, int)</text><ellipse cx="603" cy="460.3728" fill="#84BE84" rx="3" ry="3" style="stroke:#038048;stroke-width:1.0;"/><text fill="#000000" font-family="sans-serif" font-size="14" lengthAdjust="spacing" textLength="174" x="612" y="464.6013">traversable(Chap): boolean</text><ellipse cx="603" cy="477.9822" fill="#84BE84" rx="3" ry="3" style="stroke:#038048;stroke-width:1.0;"/><text fill="#000000" font-family="sans-serif" font-size="14" lengthAdjust="spacing" textLength="61" x="612" y="482.2107">getX(): int</text><ellipse cx="603" cy="495.5916" fill="#84BE84" rx="3" ry="3" style="stroke:#038048;stroke-width:1.0;"/><text fill="#000000" font-family="sans-serif" font-size="14" lengthAdjust="spacing" textLength="62" x="612" y="499.8201">getY(): int</text></g></a><!--class nz.ac.wgtn.swen225.lc.domain.tiles.InfoField--><a href="InfoField.html" target="_top" title="InfoField.html" xlink:actuate="onRequest" xlink:href="InfoField.html" xlink:show="new" xlink:title="InfoField.html" xlink:type="simple"><g id="elem_nz.ac.wgtn.swen225.lc.domain.tiles.InfoField"><rect codeLine="31" fill="#F1F1F1" height="83.2188" id="nz.ac.wgtn.swen225.lc.domain.tiles.InfoField" rx="2.5" ry="2.5" style="stroke:#181818;stroke-width:0.5;" width="240" x="297" y="602.12"/><ellipse cx="385.75" cy="618.12" fill="#ADD1B2" rx="11" ry="11" style="stroke:#181818;stroke-width:1.0;"/><path d="M388.5156,613.995 Q388.6719,613.7763 388.8594,613.6669 Q389.0469,613.5575 389.2656,613.5575 Q389.6406,613.5575 389.875,613.8231 Q390.1094,614.0731 390.1094,614.6825 L390.1094,616.1356 Q390.1094,616.745 389.875,617.0106 Q389.6406,617.2763 389.2656,617.2763 Q388.9219,617.2763 388.7188,617.0731 Q388.5156,616.8856 388.4063,616.37 Q388.3594,616.0106 388.1719,615.8231 Q387.8438,615.4481 387.2344,615.2294 Q386.625,615.0106 386,615.0106 Q385.2344,615.0106 384.5938,615.3388 Q383.9688,615.6669 383.4688,616.4169 Q382.9844,617.1669 382.9844,618.1981 L382.9844,619.2919 Q382.9844,620.5263 383.875,621.3544 Q384.7656,622.1669 386.3594,622.1669 Q387.2969,622.1669 387.9531,621.9169 Q388.3438,621.7606 388.7656,621.3231 Q389.0313,621.0575 389.1719,620.9794 Q389.3281,620.9013 389.5313,620.9013 Q389.8594,620.9013 390.1094,621.1669 Q390.375,621.4169 390.375,621.7606 Q390.375,622.1044 390.0313,622.5106 Q389.5313,623.0888 388.7344,623.4169 Q387.6563,623.87 386.3594,623.87 Q384.8438,623.87 383.6406,623.245 Q382.6563,622.745 381.9688,621.6825 Q381.2813,620.6044 381.2813,619.3231 L381.2813,618.1669 Q381.2813,616.8388 381.8906,615.6981 Q382.5156,614.5419 383.6094,613.9325 Q384.7031,613.3075 385.9375,613.3075 Q386.6719,613.3075 387.3125,613.4794 Q387.9688,613.6356 388.5156,613.995 Z " fill="#000000"/><text fill="#000000" font-family="sans-serif" font-size="14" lengthAdjust="spacing" textLength="54" x="406.25" y="623.8485">InfoField</text><line style="stroke:#181818;stroke-width:0.5;" x1="298" x2="536" y1="634.12" y2="634.12"/><line style="stroke:#181818;stroke-width:0.5;" x1="298" x2="536" y1="642.12" y2="642.12"/><ellipse cx="308" cy="656.4247" fill="#84BE84" rx="3" ry="3" style="stroke:#038048;stroke-width:1.0;"/><text fill="#000000" font-family="sans-serif" font-size="14" lengthAdjust="spacing" textLength="102" x="317" y="660.6532">InfoField(int, int)</text><ellipse cx="308" cy="674.0341" fill="#84BE84" rx="3" ry="3" style="stroke:#038048;stroke-width:1.0;"/><text fill="#000000" font-family="sans-serif" font-size="14" lengthAdjust="spacing" textLength="214" x="317" y="678.2626">performTileAction(Chap): boolean</text></g></a><!--class nz.ac.wgtn.swen225.lc.domain.tiles.KeyTile--><a href="KeyTile.html" target="_top" title="KeyTile.html" xlink:actuate="onRequest" xlink:href="KeyTile.html" xlink:show="new" xlink:title="KeyTile.html" xlink:type="simple"><g id="elem_nz.ac.wgtn.swen225.lc.domain.tiles.KeyTile"><rect codeLine="36" fill="#F1F1F1" height="100.8281" id="nz.ac.wgtn.swen225.lc.domain.tiles.KeyTile" rx="2.5" ry="2.5" style="stroke:#181818;stroke-width:0.5;" width="240" x="572" y="593.31"/><ellipse cx="664.25" cy="609.31" fill="#ADD1B2" rx="11" ry="11" style="stroke:#181818;stroke-width:1.0;"/><path d="M667.0156,605.185 Q667.1719,604.9663 667.3594,604.8569 Q667.5469,604.7475 667.7656,604.7475 Q668.1406,604.7475 668.375,605.0131 Q668.6094,605.2631 668.6094,605.8725 L668.6094,607.3256 Q668.6094,607.935 668.375,608.2006 Q668.1406,608.4663 667.7656,608.4663 Q667.4219,608.4663 667.2188,608.2631 Q667.0156,608.0756 666.9063,607.56 Q666.8594,607.2006 666.6719,607.0131 Q666.3438,606.6381 665.7344,606.4194 Q665.125,606.2006 664.5,606.2006 Q663.7344,606.2006 663.0938,606.5288 Q662.4688,606.8569 661.9688,607.6069 Q661.4844,608.3569 661.4844,609.3881 L661.4844,610.4819 Q661.4844,611.7163 662.375,612.5444 Q663.2656,613.3569 664.8594,613.3569 Q665.7969,613.3569 666.4531,613.1069 Q666.8438,612.9506 667.2656,612.5131 Q667.5313,612.2475 667.6719,612.1694 Q667.8281,612.0913 668.0313,612.0913 Q668.3594,612.0913 668.6094,612.3569 Q668.875,612.6069 668.875,612.9506 Q668.875,613.2944 668.5313,613.7006 Q668.0313,614.2788 667.2344,614.6069 Q666.1563,615.06 664.8594,615.06 Q663.3438,615.06 662.1406,614.435 Q661.1563,613.935 660.4688,612.8725 Q659.7813,611.7944 659.7813,610.5131 L659.7813,609.3569 Q659.7813,608.0288 660.3906,606.8881 Q661.0156,605.7319 662.1094,605.1225 Q663.2031,604.4975 664.4375,604.4975 Q665.1719,604.4975 665.8125,604.6694 Q666.4688,604.8256 667.0156,605.185 Z " fill="#000000"/><text fill="#000000" font-family="sans-serif" font-size="14" lengthAdjust="spacing" textLength="47" x="684.75" y="615.0385">KeyTile</text><line style="stroke:#181818;stroke-width:0.5;" x1="573" x2="811" y1="625.31" y2="625.31"/><line style="stroke:#181818;stroke-width:0.5;" x1="573" x2="811" y1="633.31" y2="633.31"/><ellipse cx="583" cy="647.6147" fill="#84BE84" rx="3" ry="3" style="stroke:#038048;stroke-width:1.0;"/><text fill="#000000" font-family="sans-serif" font-size="14" lengthAdjust="spacing" textLength="145" x="592" y="651.8432">KeyTile(Colour, int, int)</text><ellipse cx="583" cy="665.2241" fill="#84BE84" rx="3" ry="3" style="stroke:#038048;stroke-width:1.0;"/><text fill="#000000" font-family="sans-serif" font-size="14" lengthAdjust="spacing" textLength="214" x="592" y="669.4526">performTileAction(Chap): boolean</text><ellipse cx="583" cy="682.8334" fill="#84BE84" rx="3" ry="3" style="stroke:#038048;stroke-width:1.0;"/><text fill="#000000" font-family="sans-serif" font-size="14" lengthAdjust="spacing" textLength="122" x="592" y="687.062">getColour(): Colour</text></g></a><!--class nz.ac.wgtn.swen225.lc.domain.tiles.Tile--><a href="Tile.html" target="_top" title="Tile.html" xlink:actuate="onRequest" xlink:href="Tile.html" xlink:show="new" xlink:title="Tile.html" xlink:type="simple"><g id="elem_nz.ac.wgtn.swen225.lc.domain.tiles.Tile"><rect codeLine="42" fill="#F1F1F1" height="118.4375" id="nz.ac.wgtn.swen225.lc.domain.tiles.Tile" rx="2.5" ry="2.5" style="stroke:#181818;stroke-width:0.5;" width="240" x="847" y="166"/><ellipse cx="951.25" cy="182" fill="#B4A7E5" rx="11" ry="11" style="stroke:#181818;stroke-width:1.0;"/><path d="M952.2031,178.6406 L952.2031,185.2969 L953.9219,185.2969 Q954.5313,185.2969 954.7969,185.5313 Q955.0625,185.7656 955.0625,186.1563 Q955.0625,186.5313 954.7969,186.7656 Q954.5313,187 953.9219,187 L948.7813,187 Q948.1719,187 947.9063,186.7656 Q947.6406,186.5313 947.6406,186.1406 Q947.6406,185.7656 947.9063,185.5313 Q948.1719,185.2969 948.7813,185.2969 L950.5,185.2969 L950.5,178.6406 L948.7813,178.6406 Q948.1719,178.6406 947.9063,178.4063 Q947.6406,178.1719 947.6406,177.7813 Q947.6406,177.4063 947.9063,177.1719 Q948.1719,176.9375 948.7813,176.9375 L953.9219,176.9375 Q954.5313,176.9375 954.7969,177.1719 Q955.0625,177.4063 955.0625,177.7813 Q955.0625,178.1719 954.7969,178.4063 Q954.5313,178.6406 953.9219,178.6406 L952.2031,178.6406 Z " fill="#000000"/><text fill="#000000" font-family="sans-serif" font-size="14" font-style="italic" lengthAdjust="spacing" textLength="23" x="971.75" y="187.7285">Tile</text><line style="stroke:#181818;stroke-width:0.5;" x1="848" x2="1086" y1="198" y2="198"/><line style="stroke:#181818;stroke-width:0.5;" x1="848" x2="1086" y1="206" y2="206"/><ellipse cx="858" cy="220.3047" fill="#84BE84" rx="3" ry="3" style="stroke:#038048;stroke-width:1.0;"/><text fill="#000000" font-family="sans-serif" font-size="14" font-style="italic" lengthAdjust="spacing" textLength="173" x="867" y="224.5332">traversable(Chap): boolean</text><ellipse cx="858" cy="237.9141" fill="#84BE84" rx="3" ry="3" style="stroke:#038048;stroke-width:1.0;"/><text fill="#000000" font-family="sans-serif" font-size="14" lengthAdjust="spacing" textLength="214" x="867" y="242.1426">performTileAction(Chap): boolean</text><ellipse cx="858" cy="255.5234" fill="#84BE84" rx="3" ry="3" style="stroke:#038048;stroke-width:1.0;"/><text fill="#000000" font-family="sans-serif" font-size="14" font-style="italic" lengthAdjust="spacing" textLength="62" x="867" y="259.752">getX(): int</text><ellipse cx="858" cy="273.1328" fill="#84BE84" rx="3" ry="3" style="stroke:#038048;stroke-width:1.0;"/><text fill="#000000" font-family="sans-serif" font-size="14" font-style="italic" lengthAdjust="spacing" textLength="62" x="867" y="277.3613">getY(): int</text></g></a><!--class nz.ac.wgtn.swen225.lc.domain.tiles.Treasure--><a href="Treasure.html" target="_top" title="Treasure.html" xlink:actuate="onRequest" xlink:href="Treasure.html" xlink:show="new" xlink:title="Treasure.html" xlink:type="simple"><g id="elem_nz.ac.wgtn.swen225.lc.domain.tiles.Treasure"><rect codeLine="49" fill="#F1F1F1" height="83.2188" id="nz.ac.wgtn.swen225.lc.domain.tiles.Treasure" rx="2.5" ry="2.5" style="stroke:#181818;stroke-width:0.5;" width="240" x="847" y="602.12"/><ellipse cx="933.75" cy="618.12" fill="#ADD1B2" rx="11" ry="11" style="stroke:#181818;stroke-width:1.0;"/><path d="M936.5156,613.995 Q936.6719,613.7763 936.8594,613.6669 Q937.0469,613.5575 937.2656,613.5575 Q937.6406,613.5575 937.875,613.8231 Q938.1094,614.0731 938.1094,614.6825 L938.1094,616.1356 Q938.1094,616.745 937.875,617.0106 Q937.6406,617.2763 937.2656,617.2763 Q936.9219,617.2763 936.7188,617.0731 Q936.5156,616.8856 936.4063,616.37 Q936.3594,616.0106 936.1719,615.8231 Q935.8438,615.4481 935.2344,615.2294 Q934.625,615.0106 934,615.0106 Q933.2344,615.0106 932.5938,615.3388 Q931.9688,615.6669 931.4688,616.4169 Q930.9844,617.1669 930.9844,618.1981 L930.9844,619.2919 Q930.9844,620.5263 931.875,621.3544 Q932.7656,622.1669 934.3594,622.1669 Q935.2969,622.1669 935.9531,621.9169 Q936.3438,621.7606 936.7656,621.3231 Q937.0313,621.0575 937.1719,620.9794 Q937.3281,620.9013 937.5313,620.9013 Q937.8594,620.9013 938.1094,621.1669 Q938.375,621.4169 938.375,621.7606 Q938.375,622.1044 938.0313,622.5106 Q937.5313,623.0888 936.7344,623.4169 Q935.6563,623.87 934.3594,623.87 Q932.8438,623.87 931.6406,623.245 Q930.6563,622.745 929.9688,621.6825 Q929.2813,620.6044 929.2813,619.3231 L929.2813,618.1669 Q929.2813,616.8388 929.8906,615.6981 Q930.5156,614.5419 931.6094,613.9325 Q932.7031,613.3075 933.9375,613.3075 Q934.6719,613.3075 935.3125,613.4794 Q935.9688,613.6356 936.5156,613.995 Z " fill="#000000"/><text fill="#000000" font-family="sans-serif" font-size="14" lengthAdjust="spacing" textLength="58" x="954.25" y="623.8485">Treasure</text><line style="stroke:#181818;stroke-width:0.5;" x1="848" x2="1086" y1="634.12" y2="634.12"/><line style="stroke:#181818;stroke-width:0.5;" x1="848" x2="1086" y1="642.12" y2="642.12"/><ellipse cx="858" cy="656.4247" fill="#84BE84" rx="3" ry="3" style="stroke:#038048;stroke-width:1.0;"/><text fill="#000000" font-family="sans-serif" font-size="14" lengthAdjust="spacing" textLength="106" x="867" y="660.6532">Treasure(int, int)</text><ellipse cx="858" cy="674.0341" fill="#84BE84" rx="3" ry="3" style="stroke:#038048;stroke-width:1.0;"/><text fill="#000000" font-family="sans-serif" font-size="14" lengthAdjust="spacing" textLength="214" x="867" y="678.2626">performTileAction(Chap): boolean</text></g></a><!--class nz.ac.wgtn.swen225.lc.domain.tiles.Wall--><a href="Wall.html" target="_top" title="Wall.html" xlink:actuate="onRequest" xlink:href="Wall.html" xlink:show="new" xlink:title="Wall.html" xlink:type="simple"><g id="elem_nz.ac.wgtn.swen225.lc.domain.tiles.Wall"><rect codeLine="54" fill="#F1F1F1" height="171.2656" id="nz.ac.wgtn.swen225.lc.domain.tiles.Wall" rx="2.5" ry="2.5" style="stroke:#181818;stroke-width:0.5;" width="240" x="1122" y="344.44"/><ellipse cx="1224.25" cy="360.44" fill="#ADD1B2" rx="11" ry="11" style="stroke:#181818;stroke-width:1.0;"/><path d="M1227.0156,356.315 Q1227.1719,356.0963 1227.3594,355.9869 Q1227.5469,355.8775 1227.7656,355.8775 Q1228.1406,355.8775 1228.375,356.1431 Q1228.6094,356.3931 1228.6094,357.0025 L1228.6094,358.4556 Q1228.6094,359.065 1228.375,359.3306 Q1228.1406,359.5963 1227.7656,359.5963 Q1227.4219,359.5963 1227.2188,359.3931 Q1227.0156,359.2056 1226.9063,358.69 Q1226.8594,358.3306 1226.6719,358.1431 Q1226.3438,357.7681 1225.7344,357.5494 Q1225.125,357.3306 1224.5,357.3306 Q1223.7344,357.3306 1223.0938,357.6588 Q1222.4688,357.9869 1221.9688,358.7369 Q1221.4844,359.4869 1221.4844,360.5181 L1221.4844,361.6119 Q1221.4844,362.8463 1222.375,363.6744 Q1223.2656,364.4869 1224.8594,364.4869 Q1225.7969,364.4869 1226.4531,364.2369 Q1226.8438,364.0806 1227.2656,363.6431 Q1227.5313,363.3775 1227.6719,363.2994 Q1227.8281,363.2213 1228.0313,363.2213 Q1228.3594,363.2213 1228.6094,363.4869 Q1228.875,363.7369 1228.875,364.0806 Q1228.875,364.4244 1228.5313,364.8306 Q1228.0313,365.4088 1227.2344,365.7369 Q1226.1563,366.19 1224.8594,366.19 Q1223.3438,366.19 1222.1406,365.565 Q1221.1563,365.065 1220.4688,364.0025 Q1219.7813,362.9244 1219.7813,361.6431 L1219.7813,360.4869 Q1219.7813,359.1588 1220.3906,358.0181 Q1221.0156,356.8619 1222.1094,356.2525 Q1223.2031,355.6275 1224.4375,355.6275 Q1225.1719,355.6275 1225.8125,355.7994 Q1226.4688,355.9556 1227.0156,356.315 Z " fill="#000000"/><text fill="#000000" font-family="sans-serif" font-size="14" lengthAdjust="spacing" textLength="27" x="1244.75" y="366.1685">Wall</text><line style="stroke:#181818;stroke-width:0.5;" x1="1123" x2="1361" y1="376.44" y2="376.44"/><polygon fill="none" points="1133,385.7447,1137,389.7447,1133,393.7447,1129,389.7447" style="stroke:#B38D22;stroke-width:1.0;"/><text fill="#000000" font-family="sans-serif" font-size="14" lengthAdjust="spacing" textLength="29" x="1142" y="394.9732">x: int</text><polygon fill="none" points="1133,403.3541,1137,407.3541,1133,411.3541,1129,407.3541" style="stroke:#B38D22;stroke-width:1.0;"/><text fill="#000000" font-family="sans-serif" font-size="14" lengthAdjust="spacing" textLength="30" x="1142" y="412.5826">y: int</text><line style="stroke:#181818;stroke-width:0.5;" x1="1123" x2="1361" y1="419.6588" y2="419.6588"/><ellipse cx="1133" cy="433.9634" fill="#84BE84" rx="3" ry="3" style="stroke:#038048;stroke-width:1.0;"/><text fill="#000000" font-family="sans-serif" font-size="14" lengthAdjust="spacing" textLength="75" x="1142" y="438.192">Wall(int, int)</text><ellipse cx="1133" cy="451.5728" fill="#84BE84" rx="3" ry="3" style="stroke:#038048;stroke-width:1.0;"/><text fill="#000000" font-family="sans-serif" font-size="14" lengthAdjust="spacing" textLength="174" x="1142" y="455.8013">traversable(Chap): boolean</text><ellipse cx="1133" cy="469.1822" fill="#84BE84" rx="3" ry="3" style="stroke:#038048;stroke-width:1.0;"/><text fill="#000000" font-family="sans-serif" font-size="14" lengthAdjust="spacing" textLength="214" x="1142" y="473.4107">performTileAction(Chap): boolean</text><ellipse cx="1133" cy="486.7916" fill="#84BE84" rx="3" ry="3" style="stroke:#038048;stroke-width:1.0;"/><text fill="#000000" font-family="sans-serif" font-size="14" lengthAdjust="spacing" textLength="61" x="1142" y="491.0201">getX(): int</text><ellipse cx="1133" cy="504.4009" fill="#84BE84" rx="3" ry="3" style="stroke:#038048;stroke-width:1.0;"/><text fill="#000000" font-family="sans-serif" font-size="14" lengthAdjust="spacing" textLength="62" x="1142" y="508.6295">getY(): int</text></g></a><!--class java.lang.Cloneable--><g id="elem_java.lang.Cloneable"><rect codeLine="76" fill="#F1F1F1" height="48" id="java.lang.Cloneable" rx="2.5" ry="2.5" style="stroke:#181818;stroke-width:0.5;" width="96" x="919" y="42"/><ellipse cx="934" cy="58" fill="#B4A7E5" rx="11" ry="11" style="stroke:#181818;stroke-width:1.0;"/><path d="M934.9531,54.6406 L934.9531,61.2969 L936.6719,61.2969 Q937.2813,61.2969 937.5469,61.5313 Q937.8125,61.7656 937.8125,62.1563 Q937.8125,62.5313 937.5469,62.7656 Q937.2813,63 936.6719,63 L931.5313,63 Q930.9219,63 930.6563,62.7656 Q930.3906,62.5313 930.3906,62.1406 Q930.3906,61.7656 930.6563,61.5313 Q930.9219,61.2969 931.5313,61.2969 L933.25,61.2969 L933.25,54.6406 L931.5313,54.6406 Q930.9219,54.6406 930.6563,54.4063 Q930.3906,54.1719 930.3906,53.7813 Q930.3906,53.4063 930.6563,53.1719 Q930.9219,52.9375 931.5313,52.9375 L936.6719,52.9375 Q937.2813,52.9375 937.5469,53.1719 Q937.8125,53.4063 937.8125,53.7813 Q937.8125,54.1719 937.5469,54.4063 Q937.2813,54.6406 936.6719,54.6406 L934.9531,54.6406 Z " fill="#000000"/><text fill="#000000" font-family="sans-serif" font-size="14" font-style="italic" lengthAdjust="spacing" textLength="64" x="948" y="63.7285">Cloneable</text><line style="stroke:#181818;stroke-width:0.5;" x1="920" x2="1014" y1="74" y2="74"/><line style="stroke:#181818;stroke-width:0.5;" x1="920" x2="1014" y1="82" y2="82"/></g><!--reverse link nz.ac.wgtn.swen225.lc.domain.tiles.Wall to nz.ac.wgtn.swen225.lc.domain.tiles.Door--><g id="link_nz.ac.wgtn.swen225.lc.domain.tiles.Wall_nz.ac.wgtn.swen225.lc.domain.tiles.Door"><path codeLine="64" d="M1242,536.58 C1242,549.8 1242,563.02 1242,575.42 " fill="none" id="nz.ac.wgtn.swen225.lc.domain.tiles.Wall-backto-nz.ac.wgtn.swen225.lc.domain.tiles.Door" style="stroke:#181818;stroke-width:1.0;"/><polygon fill="none" points="1235,536.94,1242,516.94,1249,536.94,1235,536.94" style="stroke:#181818;stroke-width:1.0;"/></g><!--reverse link nz.ac.wgtn.swen225.lc.domain.tiles.Free to nz.ac.wgtn.swen225.lc.domain.tiles.Exit--><g id="link_nz.ac.wgtn.swen225.lc.domain.tiles.Free_nz.ac.wgtn.swen225.lc.domain.tiles.Exit"><path codeLine="65" d="M571.84,469.21 C488.92,496.51 376.64,535.43 280,575.7 C261.19,583.54 241.3,592.68 222.66,601.64 " fill="none" id="nz.ac.wgtn.swen225.lc.domain.tiles.Free-backto-nz.ac.wgtn.swen225.lc.domain.tiles.Exit" style="stroke:#181818;stroke-width:1.0;"/><polygon fill="none" points="569.54,462.27,590.73,462.7,573.9,475.58,569.54,462.27" style="stroke:#181818;stroke-width:1.0;"/></g><!--reverse link nz.ac.wgtn.swen225.lc.domain.tiles.Wall to nz.ac.wgtn.swen225.lc.domain.tiles.ExitLock--><g id="link_nz.ac.wgtn.swen225.lc.domain.tiles.Wall_nz.ac.wgtn.swen225.lc.domain.tiles.ExitLock"><path codeLine="66" d="M1368.71,528.59 C1397.63,550.85 1427.19,573.6 1452.23,592.87 " fill="none" id="nz.ac.wgtn.swen225.lc.domain.tiles.Wall-backto-nz.ac.wgtn.swen225.lc.domain.tiles.ExitLock" style="stroke:#181818;stroke-width:1.0;"/><polygon fill="none" points="1364.85,533.69,1353.27,515.94,1373.39,522.59,1364.85,533.69" style="stroke:#181818;stroke-width:1.0;"/></g><!--reverse link nz.ac.wgtn.swen225.lc.domain.tiles.Tile to nz.ac.wgtn.swen225.lc.domain.tiles.Free--><g id="link_nz.ac.wgtn.swen225.lc.domain.tiles.Tile_nz.ac.wgtn.swen225.lc.domain.tiles.Free"><path codeLine="67" d="M870.72,297.24 C845.38,315.93 817.98,336.14 792.43,354.99 " fill="none" id="nz.ac.wgtn.swen225.lc.domain.tiles.Tile-backto-nz.ac.wgtn.swen225.lc.domain.tiles.Free" style="stroke:#181818;stroke-width:1.0;stroke-dasharray:7.0,7.0;"/><polygon fill="none" points="866.21,291.13,886.46,284.89,874.52,302.4,866.21,291.13" style="stroke:#181818;stroke-width:1.0;"/></g><!--reverse link nz.ac.wgtn.swen225.lc.domain.tiles.Free to nz.ac.wgtn.swen225.lc.domain.tiles.InfoField--><g id="link_nz.ac.wgtn.swen225.lc.domain.tiles.Free_nz.ac.wgtn.swen225.lc.domain.tiles.InfoField"><path codeLine="68" d="M576.87,519.68 C539.89,548.14 500.69,578.31 470.36,601.66 " fill="none" id="nz.ac.wgtn.swen225.lc.domain.tiles.Free-backto-nz.ac.wgtn.swen225.lc.domain.tiles.InfoField" style="stroke:#181818;stroke-width:1.0;"/><polygon fill="none" points="571.99,513.84,592.11,507.18,580.53,524.93,571.99,513.84" style="stroke:#181818;stroke-width:1.0;"/></g><!--reverse link nz.ac.wgtn.swen225.lc.domain.tiles.Free to nz.ac.wgtn.swen225.lc.domain.tiles.KeyTile--><g id="link_nz.ac.wgtn.swen225.lc.domain.tiles.Free_nz.ac.wgtn.swen225.lc.domain.tiles.KeyTile"><path codeLine="69" d="M692,528.01 C692,550.51 692,573.54 692,593.01 " fill="none" id="nz.ac.wgtn.swen225.lc.domain.tiles.Free-backto-nz.ac.wgtn.swen225.lc.domain.tiles.KeyTile" style="stroke:#181818;stroke-width:1.0;"/><polygon fill="none" points="685,528.18,692,508.18,699,528.18,685,528.18" style="stroke:#181818;stroke-width:1.0;"/></g><!--reverse link java.lang.Cloneable to nz.ac.wgtn.swen225.lc.domain.tiles.Tile--><g id="link_java.lang.Cloneable_nz.ac.wgtn.swen225.lc.domain.tiles.Tile"><path codeLine="70" d="M967,111.19 C967,128.06 967,147.58 967,165.59 " fill="none" id="java.lang.Cloneable-backto-nz.ac.wgtn.swen225.lc.domain.tiles.Tile" style="stroke:#181818;stroke-width:1.0;"/><polygon fill="none" points="960,111.2,967,91.2,974,111.2,960,111.2" style="stroke:#181818;stroke-width:1.0;"/></g><!--reverse link nz.ac.wgtn.swen225.lc.domain.tiles.Free to nz.ac.wgtn.swen225.lc.domain.tiles.Treasure--><g id="link_nz.ac.wgtn.swen225.lc.domain.tiles.Free_nz.ac.wgtn.swen225.lc.domain.tiles.Treasure"><path codeLine="71" d="M807.13,519.68 C844.11,548.14 883.31,578.31 913.64,601.66 " fill="none" id="nz.ac.wgtn.swen225.lc.domain.tiles.Free-backto-nz.ac.wgtn.swen225.lc.domain.tiles.Treasure" style="stroke:#181818;stroke-width:1.0;"/><polygon fill="none" points="803.47,524.93,791.89,507.18,812.01,513.84,803.47,524.93" style="stroke:#181818;stroke-width:1.0;"/></g><!--reverse link nz.ac.wgtn.swen225.lc.domain.tiles.Tile to nz.ac.wgtn.swen225.lc.domain.tiles.Wall--><g id="link_nz.ac.wgtn.swen225.lc.domain.tiles.Tile_nz.ac.wgtn.swen225.lc.domain.tiles.Wall"><path codeLine="72" d="M1063.4,297.32 C1083.89,312.44 1105.72,328.55 1126.84,344.12 " fill="none" id="nz.ac.wgtn.swen225.lc.domain.tiles.Tile-backto-nz.ac.wgtn.swen225.lc.domain.tiles.Wall" style="stroke:#181818;stroke-width:1.0;stroke-dasharray:7.0,7.0;"/><polygon fill="none" points="1059.48,302.4,1047.54,284.89,1067.79,291.13,1059.48,302.4" style="stroke:#181818;stroke-width:1.0;"/></g><text fill="#888888" font-family="sans-serif" font-size="10" lengthAdjust="spacing" textLength="184" x="731" y="744.1309">UMLDoclet 2.1.0, PlantUML 1.2022.14</text><!--SRC=[lLLDJm8n4BtpAveO4mZGA8aNmiM094QC7Z1g28TI1bWjBUcMBu7_RcTPoWAxI5nq3plDlEdCcyvCImWXaWt17p4EH7vHnkcqRoJrfo1BfHigEEsg8VCaDPu0domo6H9-N33V9pMbD6crKD216OfsszgGo9T7A5jLGerrWNZI1B_Shiq8T4_fOTF6kEN6Kp9R7R1HhamwIWbWSjVQQ3O1xREEWADsdCcd4HptrGUpvfQr5kkLCrZj9tityunD5aL2iWXbqoOP6xUX-6SO6vT7uYESnE7Ke_izrxe6i3nHn7Eyc9MHsAvkVgZBeukqUTZolc5b3vnRu7qVECZbNlPKtGFHjGcvTSB9E_pyvN-0EUwo9C9L0eKGFU-mdJWWDenrYxT8I3MPvu9rV5i_RbP_q8_x0P8QOC_cvrveQc3-M0UfXSk4CcpWypV2AnF2naUHShRGnR_T4QacCSYviYmMWwV6gODh9b3ZbHTZlRa97HJqPML9QR0tnf6Ru1Wi72s7VB09euB9FgqA9G7FQcsuOxNTl-c963P8EHD9UliUko2HAc_dp0MERkQ0EEafXUBbiL5JN80X9NfDhmhasNepLaikiS9Oijmt]--></g></svg>