<?xml version="1.0" encoding="UTF-8" standalone="no"?><svg xmlns="http://www.w3.org/2000/svg" xmlns:xlink="http://www.w3.org/1999/xlink" contentScriptType="application/ecmascript" contentStyleType="text/css" height="715px" preserveAspectRatio="none" style="width:1457px;height:715px;background:#FFFFFF;" version="1.1" viewBox="0 0 1457 715" width="1457px" zoomAndPan="magnify"><defs><filter height="300%" id="f113ujm46cynce" width="300%" x="-1" y="-1"><feGaussianBlur result="blurOut" stdDeviation="2.0"/><feColorMatrix in="blurOut" result="blurOut2" type="matrix" values="0 0 0 0 0 0 0 0 0 0 0 0 0 0 0 0 0 0 .4 0"/><feOffset dx="4.0" dy="4.0" in="blurOut2" result="blurOut3"/><feBlend in="SourceGraphic" in2="blurOut3" mode="normal"/></filter></defs><g><!--MD5=[10809eba07f71533df2cabafc6025fd9]
cluster nz.ac.wgtn.swen225.lc.domain.tiles--><polygon fill="#FFFFFF" filter="url(#f113ujm46cynce)" points="16,132.602,266,132.602,273,157.6699,1440,157.6699,1440,690.312,16,690.312,16,132.602" style="stroke:#000000;stroke-width:1.5;"/><line style="stroke:#000000;stroke-width:1.5;" x1="16" x2="273" y1="157.6699" y2="157.6699"/><text fill="#000000" font-family="sans-serif" font-size="14" font-weight="bold" lengthAdjust="spacing" textLength="244" x="20" y="149.5679">nz.ac.wgtn.swen225.lc.domain.tiles</text><!--MD5=[aa8f7b917213fcc1c2766e2d59b49067]
cluster java.lang--><polygon fill="#FFFFFF" filter="url(#f113ujm46cynce)" points="788,6.602,856,6.602,863,31.6699,906,31.6699,906,108.602,788,108.602,788,6.602" style="stroke:#000000;stroke-width:1.5;"/><line style="stroke:#000000;stroke-width:1.5;" x1="788" x2="863" y1="31.6699" y2="31.6699"/><text fill="#000000" font-family="sans-serif" font-size="14" font-weight="bold" lengthAdjust="spacing" textLength="62" x="792" y="23.5679">java.lang</text><!--MD5=[04ff5b72acfeea70ec285556dea99b8c]
class nz.ac.wgtn.swen225.lc.domain.tiles.Door--><a href="Door.html" target="_top" title="Door.html" xlink:actuate="onRequest" xlink:href="Door.html" xlink:show="new" xlink:title="Door.html" xlink:type="simple"><rect codeLine="3" fill="#FEFECE" filter="url(#f113ujm46cynce)" height="122.9094" id="nz.ac.wgtn.swen225.lc.domain.tiles.Door" style="stroke:#A80036;stroke-width:1.5;" width="203" x="983.5" y="551.402"/><ellipse cx="1066.75" cy="567.402" fill="#ADD1B2" rx="11" ry="11" style="stroke:#A80036;stroke-width:1.0;"/><path d="M1066.2188,574.3239 Q1064.4688,574.3239 1063.3281,573.5895 Q1062.2031,572.8395 1061.6406,571.4957 Q1061.0938,570.1364 1061.0938,568.3395 Q1061.0938,566.3082 1061.75,564.8551 Q1062.4063,563.402 1063.6875,562.6207 Q1064.9688,561.8395 1066.8438,561.8395 Q1067.7344,561.8395 1068.4063,562.027 Q1069.0781,562.1989 1069.7656,562.5426 L1068.9531,564.5582 Q1068.3281,564.2457 1067.7813,564.1207 Q1067.25,563.9957 1066.7656,563.9957 Q1065.5938,563.9957 1064.8906,564.527 Q1064.1875,565.0582 1063.8906,566.0114 Q1063.5938,566.9645 1063.5938,568.2301 Q1063.5938,570.2457 1064.3125,571.2145 Q1065.0313,572.1676 1066.625,572.1676 Q1067.2188,572.1676 1067.8438,572.0114 Q1068.4688,571.8551 1069.2969,571.4801 L1069.2969,573.6989 Q1068.5625,574.0114 1067.7656,574.1676 Q1066.9844,574.3239 1066.2188,574.3239 Z " fill="#000000"/><text fill="#000000" font-family="sans-serif" font-size="12" lengthAdjust="spacing" textLength="28" x="1087.25" y="572.058">Door</text><line style="stroke:#A80036;stroke-width:1.5;" x1="984.5" x2="1185.5" y1="583.402" y2="583.402"/><line style="stroke:#A80036;stroke-width:1.5;" x1="984.5" x2="1185.5" y1="591.402" y2="591.402"/><ellipse cx="994.5" cy="602.402" fill="#84BE84" rx="3" ry="3" style="stroke:#038048;stroke-width:1.0;"/><text fill="#000000" font-family="sans-serif" font-size="11" lengthAdjust="spacing" textLength="109" x="1003.5" y="607.1609">Door(Colour, int, int)</text><ellipse cx="994.5" cy="617.3839" fill="#84BE84" rx="3" ry="3" style="stroke:#038048;stroke-width:1.0;"/><text fill="#000000" font-family="sans-serif" font-size="11" lengthAdjust="spacing" textLength="177" x="1003.5" y="622.1428">performTileAction(Chap): boolean</text><ellipse cx="994.5" cy="632.3658" fill="#84BE84" rx="3" ry="3" style="stroke:#038048;stroke-width:1.0;"/><text fill="#000000" font-family="sans-serif" font-size="11" lengthAdjust="spacing" textLength="141" x="1003.5" y="637.1247">traversable(Chap): boolean</text><ellipse cx="994.5" cy="647.3476" fill="#84BE84" rx="3" ry="3" style="stroke:#038048;stroke-width:1.0;"/><text fill="#000000" font-family="sans-serif" font-size="11" lengthAdjust="spacing" textLength="129" x="1003.5" y="652.1066">canOpen(Chap): boolean</text><ellipse cx="994.5" cy="662.3295" fill="#84BE84" rx="3" ry="3" style="stroke:#038048;stroke-width:1.0;"/><text fill="#000000" font-family="sans-serif" font-size="11" lengthAdjust="spacing" textLength="101" x="1003.5" y="667.0884">getColour(): Colour</text></a><!--MD5=[e79bf915573ff42137971ec49bae3ec9]
class nz.ac.wgtn.swen225.lc.domain.tiles.Exit--><a href="Exit.html" target="_top" title="Exit.html" xlink:actuate="onRequest" xlink:href="Exit.html" xlink:show="new" xlink:title="Exit.html" xlink:type="simple"><rect codeLine="11" fill="#FEFECE" filter="url(#f113ujm46cynce)" height="77.9638" id="nz.ac.wgtn.swen225.lc.domain.tiles.Exit" style="stroke:#A80036;stroke-width:1.5;" width="203" x="31.5" y="573.872"/><ellipse cx="118.75" cy="589.872" fill="#ADD1B2" rx="11" ry="11" style="stroke:#A80036;stroke-width:1.0;"/><path d="M118.2188,596.7939 Q116.4688,596.7939 115.3281,596.0595 Q114.2031,595.3095 113.6406,593.9657 Q113.0938,592.6064 113.0938,590.8095 Q113.0938,588.7782 113.75,587.3251 Q114.4063,585.872 115.6875,585.0907 Q116.9688,584.3095 118.8438,584.3095 Q119.7344,584.3095 120.4063,584.497 Q121.0781,584.6689 121.7656,585.0126 L120.9531,587.0282 Q120.3281,586.7157 119.7813,586.5907 Q119.25,586.4657 118.7656,586.4657 Q117.5938,586.4657 116.8906,586.997 Q116.1875,587.5282 115.8906,588.4814 Q115.5938,589.4345 115.5938,590.7001 Q115.5938,592.7157 116.3125,593.6845 Q117.0313,594.6376 118.625,594.6376 Q119.2188,594.6376 119.8438,594.4814 Q120.4688,594.3251 121.2969,593.9501 L121.2969,596.1689 Q120.5625,596.4814 119.7656,596.6376 Q118.9844,596.7939 118.2188,596.7939 Z " fill="#000000"/><text fill="#000000" font-family="sans-serif" font-size="12" lengthAdjust="spacing" textLength="20" x="139.25" y="594.528">Exit</text><line style="stroke:#A80036;stroke-width:1.5;" x1="32.5" x2="233.5" y1="605.872" y2="605.872"/><line style="stroke:#A80036;stroke-width:1.5;" x1="32.5" x2="233.5" y1="613.872" y2="613.872"/><ellipse cx="42.5" cy="624.872" fill="#84BE84" rx="3" ry="3" style="stroke:#038048;stroke-width:1.0;"/><text fill="#000000" font-family="sans-serif" font-size="11" lengthAdjust="spacing" textLength="59" x="51.5" y="629.6309">Exit(int, int)</text><ellipse cx="42.5" cy="639.8539" fill="#84BE84" rx="3" ry="3" style="stroke:#038048;stroke-width:1.0;"/><text fill="#000000" font-family="sans-serif" font-size="11" lengthAdjust="spacing" textLength="177" x="51.5" y="644.6128">performTileAction(Chap): boolean</text></a><!--MD5=[2e38699f68342d85deba2d1906cdb63f]
class nz.ac.wgtn.swen225.lc.domain.tiles.ExitLock--><a href="ExitLock.html" target="_top" title="ExitLock.html" xlink:actuate="onRequest" xlink:href="ExitLock.html" xlink:show="new" xlink:title="ExitLock.html" xlink:type="simple"><rect codeLine="16" fill="#FEFECE" filter="url(#f113ujm46cynce)" height="92.9457" id="nz.ac.wgtn.swen225.lc.domain.tiles.ExitLock" style="stroke:#A80036;stroke-width:1.5;" width="203" x="1221.5" y="566.382"/><ellipse cx="1296.25" cy="582.382" fill="#ADD1B2" rx="11" ry="11" style="stroke:#A80036;stroke-width:1.0;"/><path d="M1295.7188,589.3039 Q1293.9688,589.3039 1292.8281,588.5695 Q1291.7031,587.8195 1291.1406,586.4757 Q1290.5938,585.1164 1290.5938,583.3195 Q1290.5938,581.2882 1291.25,579.8351 Q1291.9063,578.382 1293.1875,577.6007 Q1294.4688,576.8195 1296.3438,576.8195 Q1297.2344,576.8195 1297.9063,577.007 Q1298.5781,577.1789 1299.2656,577.5226 L1298.4531,579.5382 Q1297.8281,579.2257 1297.2813,579.1007 Q1296.75,578.9757 1296.2656,578.9757 Q1295.0938,578.9757 1294.3906,579.507 Q1293.6875,580.0382 1293.3906,580.9914 Q1293.0938,581.9445 1293.0938,583.2101 Q1293.0938,585.2257 1293.8125,586.1945 Q1294.5313,587.1476 1296.125,587.1476 Q1296.7188,587.1476 1297.3438,586.9914 Q1297.9688,586.8351 1298.7969,586.4601 L1298.7969,588.6789 Q1298.0625,588.9914 1297.2656,589.1476 Q1296.4844,589.3039 1295.7188,589.3039 Z " fill="#000000"/><text fill="#000000" font-family="sans-serif" font-size="12" lengthAdjust="spacing" textLength="45" x="1316.75" y="587.038">ExitLock</text><line style="stroke:#A80036;stroke-width:1.5;" x1="1222.5" x2="1423.5" y1="598.382" y2="598.382"/><line style="stroke:#A80036;stroke-width:1.5;" x1="1222.5" x2="1423.5" y1="606.382" y2="606.382"/><ellipse cx="1232.5" cy="617.382" fill="#84BE84" rx="3" ry="3" style="stroke:#038048;stroke-width:1.0;"/><text fill="#000000" font-family="sans-serif" font-size="11" lengthAdjust="spacing" textLength="83" x="1241.5" y="622.1409">ExitLock(int, int)</text><ellipse cx="1232.5" cy="632.3639" fill="#84BE84" rx="3" ry="3" style="stroke:#038048;stroke-width:1.0;"/><text fill="#000000" font-family="sans-serif" font-size="11" lengthAdjust="spacing" textLength="141" x="1241.5" y="637.1228">traversable(Chap): boolean</text><ellipse cx="1232.5" cy="647.3458" fill="#84BE84" rx="3" ry="3" style="stroke:#038048;stroke-width:1.0;"/><text fill="#000000" font-family="sans-serif" font-size="11" lengthAdjust="spacing" textLength="177" x="1241.5" y="652.1047">performTileAction(Chap): boolean</text></a><!--MD5=[90edbd7303723afe0a7c1ad75ffbeaa2]
class nz.ac.wgtn.swen225.lc.domain.tiles.Free--><a href="Free.html" target="_top" title="Free.html" xlink:actuate="onRequest" xlink:href="Free.html" xlink:show="new" xlink:title="Free.html" xlink:type="simple"><rect codeLine="22" fill="#FEFECE" filter="url(#f113ujm46cynce)" height="137.8913" id="nz.ac.wgtn.swen225.lc.domain.tiles.Free" style="stroke:#A80036;stroke-width:1.5;" width="167" x="525.5" y="346.022"/><ellipse cx="592.25" cy="362.022" fill="#ADD1B2" rx="11" ry="11" style="stroke:#A80036;stroke-width:1.0;"/><path d="M591.7188,368.9439 Q589.9688,368.9439 588.8281,368.2095 Q587.7031,367.4595 587.1406,366.1157 Q586.5938,364.7564 586.5938,362.9595 Q586.5938,360.9282 587.25,359.4751 Q587.9063,358.022 589.1875,357.2407 Q590.4688,356.4595 592.3438,356.4595 Q593.2344,356.4595 593.9063,356.647 Q594.5781,356.8189 595.2656,357.1626 L594.4531,359.1782 Q593.8281,358.8657 593.2813,358.7407 Q592.75,358.6157 592.2656,358.6157 Q591.0938,358.6157 590.3906,359.147 Q589.6875,359.6782 589.3906,360.6314 Q589.0938,361.5845 589.0938,362.8501 Q589.0938,364.8657 589.8125,365.8345 Q590.5313,366.7876 592.125,366.7876 Q592.7188,366.7876 593.3438,366.6314 Q593.9688,366.4751 594.7969,366.1001 L594.7969,368.3189 Q594.0625,368.6314 593.2656,368.7876 Q592.4844,368.9439 591.7188,368.9439 Z " fill="#000000"/><text fill="#000000" font-family="sans-serif" font-size="12" lengthAdjust="spacing" textLength="25" x="612.75" y="366.678">Free</text><line style="stroke:#A80036;stroke-width:1.5;" x1="526.5" x2="691.5" y1="378.022" y2="378.022"/><polygon fill="none" points="536.5,384.022,540.5,388.022,536.5,392.022,532.5,388.022" style="stroke:#B38D22;stroke-width:1.0;"/><text fill="#000000" font-family="sans-serif" font-size="11" lengthAdjust="spacing" textLength="26" x="545.5" y="393.7809">x: int</text><polygon fill="none" points="536.5,399.0039,540.5,403.0039,536.5,407.0039,532.5,403.0039" style="stroke:#B38D22;stroke-width:1.0;"/><text fill="#000000" font-family="sans-serif" font-size="11" lengthAdjust="spacing" textLength="26" x="545.5" y="408.7628">y: int</text><line style="stroke:#A80036;stroke-width:1.5;" x1="526.5" x2="691.5" y1="415.9858" y2="415.9858"/><ellipse cx="536.5" cy="426.9858" fill="#84BE84" rx="3" ry="3" style="stroke:#038048;stroke-width:1.0;"/><text fill="#000000" font-family="sans-serif" font-size="11" lengthAdjust="spacing" textLength="63" x="545.5" y="431.7447">Free(int, int)</text><ellipse cx="536.5" cy="441.9676" fill="#84BE84" rx="3" ry="3" style="stroke:#038048;stroke-width:1.0;"/><text fill="#000000" font-family="sans-serif" font-size="11" lengthAdjust="spacing" textLength="141" x="545.5" y="446.7266">traversable(Chap): boolean</text><ellipse cx="536.5" cy="456.9495" fill="#84BE84" rx="3" ry="3" style="stroke:#038048;stroke-width:1.0;"/><text fill="#000000" font-family="sans-serif" font-size="11" lengthAdjust="spacing" textLength="49" x="545.5" y="461.7084">getX(): int</text><ellipse cx="536.5" cy="471.9314" fill="#84BE84" rx="3" ry="3" style="stroke:#038048;stroke-width:1.0;"/><text fill="#000000" font-family="sans-serif" font-size="11" lengthAdjust="spacing" textLength="49" x="545.5" y="476.6903">getY(): int</text></a><!--MD5=[3c5490de55625c8f341aa3a7a997a68f]
class nz.ac.wgtn.swen225.lc.domain.tiles.InfoField--><a href="InfoField.html" target="_top" title="InfoField.html" xlink:actuate="onRequest" xlink:href="InfoField.html" xlink:show="new" xlink:title="InfoField.html" xlink:type="simple"><rect codeLine="31" fill="#FEFECE" filter="url(#f113ujm46cynce)" height="77.9638" id="nz.ac.wgtn.swen225.lc.domain.tiles.InfoField" style="stroke:#A80036;stroke-width:1.5;" width="203" x="269.5" y="573.872"/><ellipse cx="342.75" cy="589.872" fill="#ADD1B2" rx="11" ry="11" style="stroke:#A80036;stroke-width:1.0;"/><path d="M342.2188,596.7939 Q340.4688,596.7939 339.3281,596.0595 Q338.2031,595.3095 337.6406,593.9657 Q337.0938,592.6064 337.0938,590.8095 Q337.0938,588.7782 337.75,587.3251 Q338.4063,585.872 339.6875,585.0907 Q340.9688,584.3095 342.8438,584.3095 Q343.7344,584.3095 344.4063,584.497 Q345.0781,584.6689 345.7656,585.0126 L344.9531,587.0282 Q344.3281,586.7157 343.7813,586.5907 Q343.25,586.4657 342.7656,586.4657 Q341.5938,586.4657 340.8906,586.997 Q340.1875,587.5282 339.8906,588.4814 Q339.5938,589.4345 339.5938,590.7001 Q339.5938,592.7157 340.3125,593.6845 Q341.0313,594.6376 342.625,594.6376 Q343.2188,594.6376 343.8438,594.4814 Q344.4688,594.3251 345.2969,593.9501 L345.2969,596.1689 Q344.5625,596.4814 343.7656,596.6376 Q342.9844,596.7939 342.2188,596.7939 Z " fill="#000000"/><text fill="#000000" font-family="sans-serif" font-size="12" lengthAdjust="spacing" textLength="48" x="363.25" y="594.528">InfoField</text><line style="stroke:#A80036;stroke-width:1.5;" x1="270.5" x2="471.5" y1="605.872" y2="605.872"/><line style="stroke:#A80036;stroke-width:1.5;" x1="270.5" x2="471.5" y1="613.872" y2="613.872"/><ellipse cx="280.5" cy="624.872" fill="#84BE84" rx="3" ry="3" style="stroke:#038048;stroke-width:1.0;"/><text fill="#000000" font-family="sans-serif" font-size="11" lengthAdjust="spacing" textLength="87" x="289.5" y="629.6309">InfoField(int, int)</text><ellipse cx="280.5" cy="639.8539" fill="#84BE84" rx="3" ry="3" style="stroke:#038048;stroke-width:1.0;"/><text fill="#000000" font-family="sans-serif" font-size="11" lengthAdjust="spacing" textLength="177" x="289.5" y="644.6128">performTileAction(Chap): boolean</text></a><!--MD5=[58a8456146c1ff6ca3fdba12a5d4f8cd]
class nz.ac.wgtn.swen225.lc.domain.tiles.KeyTile--><a href="KeyTile.html" target="_top" title="KeyTile.html" xlink:actuate="onRequest" xlink:href="KeyTile.html" xlink:show="new" xlink:title="KeyTile.html" xlink:type="simple"><rect codeLine="36" fill="#FEFECE" filter="url(#f113ujm46cynce)" height="92.9457" id="nz.ac.wgtn.swen225.lc.domain.tiles.KeyTile" style="stroke:#A80036;stroke-width:1.5;" width="203" x="507.5" y="566.382"/><ellipse cx="584.75" cy="582.382" fill="#ADD1B2" rx="11" ry="11" style="stroke:#A80036;stroke-width:1.0;"/><path d="M584.2188,589.3039 Q582.4688,589.3039 581.3281,588.5695 Q580.2031,587.8195 579.6406,586.4757 Q579.0938,585.1164 579.0938,583.3195 Q579.0938,581.2882 579.75,579.8351 Q580.4063,578.382 581.6875,577.6007 Q582.9688,576.8195 584.8438,576.8195 Q585.7344,576.8195 586.4063,577.007 Q587.0781,577.1789 587.7656,577.5226 L586.9531,579.5382 Q586.3281,579.2257 585.7813,579.1007 Q585.25,578.9757 584.7656,578.9757 Q583.5938,578.9757 582.8906,579.507 Q582.1875,580.0382 581.8906,580.9914 Q581.5938,581.9445 581.5938,583.2101 Q581.5938,585.2257 582.3125,586.1945 Q583.0313,587.1476 584.625,587.1476 Q585.2188,587.1476 585.8438,586.9914 Q586.4688,586.8351 587.2969,586.4601 L587.2969,588.6789 Q586.5625,588.9914 585.7656,589.1476 Q584.9844,589.3039 584.2188,589.3039 Z " fill="#000000"/><text fill="#000000" font-family="sans-serif" font-size="12" lengthAdjust="spacing" textLength="40" x="605.25" y="587.038">KeyTile</text><line style="stroke:#A80036;stroke-width:1.5;" x1="508.5" x2="709.5" y1="598.382" y2="598.382"/><line style="stroke:#A80036;stroke-width:1.5;" x1="508.5" x2="709.5" y1="606.382" y2="606.382"/><ellipse cx="518.5" cy="617.382" fill="#84BE84" rx="3" ry="3" style="stroke:#038048;stroke-width:1.0;"/><text fill="#000000" font-family="sans-serif" font-size="11" lengthAdjust="spacing" textLength="119" x="527.5" y="622.1409">KeyTile(Colour, int, int)</text><ellipse cx="518.5" cy="632.3639" fill="#84BE84" rx="3" ry="3" style="stroke:#038048;stroke-width:1.0;"/><text fill="#000000" font-family="sans-serif" font-size="11" lengthAdjust="spacing" textLength="177" x="527.5" y="637.1228">performTileAction(Chap): boolean</text><ellipse cx="518.5" cy="647.3458" fill="#84BE84" rx="3" ry="3" style="stroke:#038048;stroke-width:1.0;"/><text fill="#000000" font-family="sans-serif" font-size="11" lengthAdjust="spacing" textLength="101" x="527.5" y="652.1047">getColour(): Colour</text></a><!--MD5=[02a1b30ec222ca2553512277ee8b5041]
class nz.ac.wgtn.swen225.lc.domain.tiles.Tile--><a href="Tile.html" target="_top" title="Tile.html" xlink:actuate="onRequest" xlink:href="Tile.html" xlink:show="new" xlink:title="Tile.html" xlink:type="simple"><rect codeLine="42" fill="#FEFECE" filter="url(#f113ujm46cynce)" height="107.9276" id="nz.ac.wgtn.swen225.lc.domain.tiles.Tile" style="stroke:#A80036;stroke-width:1.5;" width="203" x="745.5" y="170.602"/><ellipse cx="833.75" cy="186.602" fill="#B4A7E5" rx="11" ry="11" style="stroke:#A80036;stroke-width:1.0;"/><path d="M829.7813,193.102 L829.7813,191.3989 L832.1406,191.1332 L832.1406,182.9301 L829.7813,182.6645 L829.7813,180.9614 L836.9219,180.9614 L836.9219,182.6645 L834.5,182.9301 L834.5,191.1332 L836.9219,191.3989 L836.9219,193.102 L829.7813,193.102 Z " fill="#000000"/><text fill="#000000" font-family="sans-serif" font-size="12" font-style="italic" lengthAdjust="spacing" textLength="18" x="854.25" y="191.258">Tile</text><line style="stroke:#A80036;stroke-width:1.5;" x1="746.5" x2="947.5" y1="202.602" y2="202.602"/><line style="stroke:#A80036;stroke-width:1.5;" x1="746.5" x2="947.5" y1="210.602" y2="210.602"/><ellipse cx="756.5" cy="221.602" fill="#84BE84" rx="3" ry="3" style="stroke:#038048;stroke-width:1.0;"/><text fill="#000000" font-family="sans-serif" font-size="11" font-style="italic" lengthAdjust="spacing" textLength="127" x="765.5" y="226.3609">traversable(Chap): boolean</text><ellipse cx="756.5" cy="236.5839" fill="#84BE84" rx="3" ry="3" style="stroke:#038048;stroke-width:1.0;"/><text fill="#000000" font-family="sans-serif" font-size="11" lengthAdjust="spacing" textLength="177" x="765.5" y="241.3428">performTileAction(Chap): boolean</text><ellipse cx="756.5" cy="251.5658" fill="#84BE84" rx="3" ry="3" style="stroke:#038048;stroke-width:1.0;"/><text fill="#000000" font-family="sans-serif" font-size="11" font-style="italic" lengthAdjust="spacing" textLength="46" x="765.5" y="256.3247">getX(): int</text><ellipse cx="756.5" cy="266.5476" fill="#84BE84" rx="3" ry="3" style="stroke:#038048;stroke-width:1.0;"/><text fill="#000000" font-family="sans-serif" font-size="11" font-style="italic" lengthAdjust="spacing" textLength="46" x="765.5" y="271.3066">getY(): int</text></a><!--MD5=[490584c45365b86c6f6846c6740f5d4c]
class nz.ac.wgtn.swen225.lc.domain.tiles.Treasure--><a href="Treasure.html" target="_top" title="Treasure.html" xlink:actuate="onRequest" xlink:href="Treasure.html" xlink:show="new" xlink:title="Treasure.html" xlink:type="simple"><rect codeLine="49" fill="#FEFECE" filter="url(#f113ujm46cynce)" height="77.9638" id="nz.ac.wgtn.swen225.lc.domain.tiles.Treasure" style="stroke:#A80036;stroke-width:1.5;" width="203" x="745.5" y="573.872"/><ellipse cx="817.25" cy="589.872" fill="#ADD1B2" rx="11" ry="11" style="stroke:#A80036;stroke-width:1.0;"/><path d="M816.7188,596.7939 Q814.9688,596.7939 813.8281,596.0595 Q812.7031,595.3095 812.1406,593.9657 Q811.5938,592.6064 811.5938,590.8095 Q811.5938,588.7782 812.25,587.3251 Q812.9063,585.872 814.1875,585.0907 Q815.4688,584.3095 817.3438,584.3095 Q818.2344,584.3095 818.9063,584.497 Q819.5781,584.6689 820.2656,585.0126 L819.4531,587.0282 Q818.8281,586.7157 818.2813,586.5907 Q817.75,586.4657 817.2656,586.4657 Q816.0938,586.4657 815.3906,586.997 Q814.6875,587.5282 814.3906,588.4814 Q814.0938,589.4345 814.0938,590.7001 Q814.0938,592.7157 814.8125,593.6845 Q815.5313,594.6376 817.125,594.6376 Q817.7188,594.6376 818.3438,594.4814 Q818.9688,594.3251 819.7969,593.9501 L819.7969,596.1689 Q819.0625,596.4814 818.2656,596.6376 Q817.4844,596.7939 816.7188,596.7939 Z " fill="#000000"/><text fill="#000000" font-family="sans-serif" font-size="12" lengthAdjust="spacing" textLength="51" x="837.75" y="594.528">Treasure</text><line style="stroke:#A80036;stroke-width:1.5;" x1="746.5" x2="947.5" y1="605.872" y2="605.872"/><line style="stroke:#A80036;stroke-width:1.5;" x1="746.5" x2="947.5" y1="613.872" y2="613.872"/><ellipse cx="756.5" cy="624.872" fill="#84BE84" rx="3" ry="3" style="stroke:#038048;stroke-width:1.0;"/><text fill="#000000" font-family="sans-serif" font-size="11" lengthAdjust="spacing" textLength="86" x="765.5" y="629.6309">Treasure(int, int)</text><ellipse cx="756.5" cy="639.8539" fill="#84BE84" rx="3" ry="3" style="stroke:#038048;stroke-width:1.0;"/><text fill="#000000" font-family="sans-serif" font-size="11" lengthAdjust="spacing" textLength="177" x="765.5" y="644.6128">performTileAction(Chap): boolean</text></a><!--MD5=[6487f002101fc0c7664e60d44dee7c2b]
class nz.ac.wgtn.swen225.lc.domain.tiles.Wall--><a href="Wall.html" target="_top" title="Wall.html" xlink:actuate="onRequest" xlink:href="Wall.html" xlink:show="new" xlink:title="Wall.html" xlink:type="simple"><rect codeLine="54" fill="#FEFECE" filter="url(#f113ujm46cynce)" height="152.8732" id="nz.ac.wgtn.swen225.lc.domain.tiles.Wall" style="stroke:#A80036;stroke-width:1.5;" width="203" x="983.5" y="338.532"/><ellipse cx="1068.75" cy="354.532" fill="#ADD1B2" rx="11" ry="11" style="stroke:#A80036;stroke-width:1.0;"/><path d="M1068.2188,361.4539 Q1066.4688,361.4539 1065.3281,360.7195 Q1064.2031,359.9695 1063.6406,358.6257 Q1063.0938,357.2664 1063.0938,355.4695 Q1063.0938,353.4382 1063.75,351.9851 Q1064.4063,350.532 1065.6875,349.7507 Q1066.9688,348.9695 1068.8438,348.9695 Q1069.7344,348.9695 1070.4063,349.157 Q1071.0781,349.3289 1071.7656,349.6726 L1070.9531,351.6882 Q1070.3281,351.3757 1069.7813,351.2507 Q1069.25,351.1257 1068.7656,351.1257 Q1067.5938,351.1257 1066.8906,351.657 Q1066.1875,352.1882 1065.8906,353.1414 Q1065.5938,354.0945 1065.5938,355.3601 Q1065.5938,357.3757 1066.3125,358.3445 Q1067.0313,359.2976 1068.625,359.2976 Q1069.2188,359.2976 1069.8438,359.1414 Q1070.4688,358.9851 1071.2969,358.6101 L1071.2969,360.8289 Q1070.5625,361.1414 1069.7656,361.2976 Q1068.9844,361.4539 1068.2188,361.4539 Z " fill="#000000"/><text fill="#000000" font-family="sans-serif" font-size="12" lengthAdjust="spacing" textLength="24" x="1089.25" y="359.188">Wall</text><line style="stroke:#A80036;stroke-width:1.5;" x1="984.5" x2="1185.5" y1="370.532" y2="370.532"/><polygon fill="none" points="994.5,376.532,998.5,380.532,994.5,384.532,990.5,380.532" style="stroke:#B38D22;stroke-width:1.0;"/><text fill="#000000" font-family="sans-serif" font-size="11" lengthAdjust="spacing" textLength="26" x="1003.5" y="386.2909">x: int</text><polygon fill="none" points="994.5,391.5139,998.5,395.5139,994.5,399.5139,990.5,395.5139" style="stroke:#B38D22;stroke-width:1.0;"/><text fill="#000000" font-family="sans-serif" font-size="11" lengthAdjust="spacing" textLength="26" x="1003.5" y="401.2728">y: int</text><line style="stroke:#A80036;stroke-width:1.5;" x1="984.5" x2="1185.5" y1="408.4958" y2="408.4958"/><ellipse cx="994.5" cy="419.4958" fill="#84BE84" rx="3" ry="3" style="stroke:#038048;stroke-width:1.0;"/><text fill="#000000" font-family="sans-serif" font-size="11" lengthAdjust="spacing" textLength="62" x="1003.5" y="424.2547">Wall(int, int)</text><ellipse cx="994.5" cy="434.4776" fill="#84BE84" rx="3" ry="3" style="stroke:#038048;stroke-width:1.0;"/><text fill="#000000" font-family="sans-serif" font-size="11" lengthAdjust="spacing" textLength="141" x="1003.5" y="439.2366">traversable(Chap): boolean</text><ellipse cx="994.5" cy="449.4595" fill="#84BE84" rx="3" ry="3" style="stroke:#038048;stroke-width:1.0;"/><text fill="#000000" font-family="sans-serif" font-size="11" lengthAdjust="spacing" textLength="177" x="1003.5" y="454.2184">performTileAction(Chap): boolean</text><ellipse cx="994.5" cy="464.4414" fill="#84BE84" rx="3" ry="3" style="stroke:#038048;stroke-width:1.0;"/><text fill="#000000" font-family="sans-serif" font-size="11" lengthAdjust="spacing" textLength="49" x="1003.5" y="469.2003">getX(): int</text><ellipse cx="994.5" cy="479.4233" fill="#84BE84" rx="3" ry="3" style="stroke:#038048;stroke-width:1.0;"/><text fill="#000000" font-family="sans-serif" font-size="11" lengthAdjust="spacing" textLength="49" x="1003.5" y="484.1822">getY(): int</text></a><!--MD5=[e928e726d300d3bec07862808e5ce117]
class java.lang.Cloneable--><rect codeLine="76" fill="#FEFECE" filter="url(#f113ujm46cynce)" height="48" id="java.lang.Cloneable" style="stroke:#A80036;stroke-width:1.5;" width="85" x="804.5" y="44.602"/><ellipse cx="819.5" cy="60.602" fill="#B4A7E5" rx="11" ry="11" style="stroke:#A80036;stroke-width:1.0;"/><path d="M815.5313,67.102 L815.5313,65.3989 L817.8906,65.1332 L817.8906,56.9301 L815.5313,56.6645 L815.5313,54.9614 L822.6719,54.9614 L822.6719,56.6645 L820.25,56.9301 L820.25,65.1332 L822.6719,65.3989 L822.6719,67.102 L815.5313,67.102 Z " fill="#000000"/><text fill="#000000" font-family="sans-serif" font-size="12" font-style="italic" lengthAdjust="spacing" textLength="53" x="833.5" y="65.258">Cloneable</text><line style="stroke:#A80036;stroke-width:1.5;" x1="805.5" x2="888.5" y1="76.602" y2="76.602"/><line style="stroke:#A80036;stroke-width:1.5;" x1="805.5" x2="888.5" y1="84.602" y2="84.602"/><!--MD5=[b443ef8da9d4649b6c7deefb72090848]
reverse link nz.ac.wgtn.swen225.lc.domain.tiles.Wall to nz.ac.wgtn.swen225.lc.domain.tiles.Door--><path codeLine="64" d="M1085,512.332 C1085,525.562 1085,538.842 1085,551.182 " fill="none" id="nz.ac.wgtn.swen225.lc.domain.tiles.Wall-backto-nz.ac.wgtn.swen225.lc.domain.tiles.Door" style="stroke:#A80036;stroke-width:1.0;"/><polygon fill="none" points="1078,512.702,1085,492.702,1092,512.702,1078,512.702" style="stroke:#A80036;stroke-width:1.0;"/><!--MD5=[fce8281dee6d2d902e07461b0d7c69cb]
reverse link nz.ac.wgtn.swen225.lc.domain.tiles.Free to nz.ac.wgtn.swen225.lc.domain.tiles.Exit--><path codeLine="65" d="M505.45,451.912 C433.55,477.692 335.96,514.282 252,551.402 C236.74,558.152 220.65,565.882 205.41,573.512 " fill="none" id="nz.ac.wgtn.swen225.lc.domain.tiles.Free-backto-nz.ac.wgtn.swen225.lc.domain.tiles.Exit" style="stroke:#A80036;stroke-width:1.0;"/><polygon fill="none" points="502.83,445.062,524.02,444.942,507.53,458.252,502.83,445.062" style="stroke:#A80036;stroke-width:1.0;"/><!--MD5=[28d8e4124fa8d430d425a33f8de977bd]
reverse link nz.ac.wgtn.swen225.lc.domain.tiles.Wall to nz.ac.wgtn.swen225.lc.domain.tiles.ExitLock--><path codeLine="66" d="M1192.91,504.782 C1218.65,525.972 1245.09,547.732 1267.35,566.052 " fill="none" id="nz.ac.wgtn.swen225.lc.domain.tiles.Wall-backto-nz.ac.wgtn.swen225.lc.domain.tiles.ExitLock" style="stroke:#A80036;stroke-width:1.0;"/><polygon fill="none" points="1189.01,509.822,1178.02,491.702,1197.91,499.012,1189.01,509.822" style="stroke:#A80036;stroke-width:1.0;"/><!--MD5=[769e1b611c44fab65f0d11b9e4488642]
reverse link nz.ac.wgtn.swen225.lc.domain.tiles.Tile to nz.ac.wgtn.swen225.lc.domain.tiles.Free--><path codeLine="67" d="M763.43,291.712 C740.47,309.892 715.58,329.602 692.62,347.772 " fill="none" id="nz.ac.wgtn.swen225.lc.domain.tiles.Tile-backto-nz.ac.wgtn.swen225.lc.domain.tiles.Free" style="stroke:#A80036;stroke-width:1.0;stroke-dasharray:7.0,7.0;"/><polygon fill="none" points="758.73,285.722,778.75,278.802,767.42,296.702,758.73,285.722" style="stroke:#A80036;stroke-width:1.0;"/><!--MD5=[59cf52e3ca2d945bcdbdf66702dd278d]
reverse link nz.ac.wgtn.swen225.lc.domain.tiles.Free to nz.ac.wgtn.swen225.lc.domain.tiles.InfoField--><path codeLine="68" d="M510.07,497.392 C478.01,523.782 443.96,551.802 417.57,573.522 " fill="none" id="nz.ac.wgtn.swen225.lc.domain.tiles.Free-backto-nz.ac.wgtn.swen225.lc.domain.tiles.InfoField" style="stroke:#A80036;stroke-width:1.0;"/><polygon fill="none" points="505.2,491.512,525.09,484.202,514.1,502.322,505.2,491.512" style="stroke:#A80036;stroke-width:1.0;"/><!--MD5=[598dfb72284818e759756a1b9b5cb723]
reverse link nz.ac.wgtn.swen225.lc.domain.tiles.Free to nz.ac.wgtn.swen225.lc.domain.tiles.KeyTile--><path codeLine="69" d="M609,504.972 C609,526.072 609,547.732 609,565.992 " fill="none" id="nz.ac.wgtn.swen225.lc.domain.tiles.Free-backto-nz.ac.wgtn.swen225.lc.domain.tiles.KeyTile" style="stroke:#A80036;stroke-width:1.0;"/><polygon fill="none" points="602,505.202,609,485.202,616,505.202,602,505.202" style="stroke:#A80036;stroke-width:1.0;"/><!--MD5=[63a8bcf6bfeaa0817734a0686f0c0996]
reverse link java.lang.Cloneable to nz.ac.wgtn.swen225.lc.domain.tiles.Tile--><path codeLine="70" d="M847,113.762 C847,131.372 847,151.802 847,170.232 " fill="none" id="java.lang.Cloneable-backto-nz.ac.wgtn.swen225.lc.domain.tiles.Tile" style="stroke:#A80036;stroke-width:1.0;"/><polygon fill="none" points="840,113.982,847,93.982,854,113.982,840,113.982" style="stroke:#A80036;stroke-width:1.0;"/><!--MD5=[e4c059ac47fcf2a528a49f6c6876fa9c]
reverse link nz.ac.wgtn.swen225.lc.domain.tiles.Free to nz.ac.wgtn.swen225.lc.domain.tiles.Treasure--><path codeLine="71" d="M707.93,497.392 C739.99,523.782 774.04,551.802 800.43,573.522 " fill="none" id="nz.ac.wgtn.swen225.lc.domain.tiles.Free-backto-nz.ac.wgtn.swen225.lc.domain.tiles.Treasure" style="stroke:#A80036;stroke-width:1.0;"/><polygon fill="none" points="703.9,502.322,692.91,484.202,712.8,491.512,703.9,502.322" style="stroke:#A80036;stroke-width:1.0;"/><!--MD5=[49321329da8a75b5664f20220ef7afe6]
reverse link nz.ac.wgtn.swen225.lc.domain.tiles.Tile to nz.ac.wgtn.swen225.lc.domain.tiles.Wall--><path codeLine="72" d="M930.58,291.732 C949.63,306.802 970,322.932 989.5,338.372 " fill="none" id="nz.ac.wgtn.swen225.lc.domain.tiles.Tile-backto-nz.ac.wgtn.swen225.lc.domain.tiles.Wall" style="stroke:#A80036;stroke-width:1.0;stroke-dasharray:7.0,7.0;"/><polygon fill="none" points="926.58,296.702,915.25,278.802,935.27,285.722,926.58,296.702" style="stroke:#A80036;stroke-width:1.0;"/><text fill="#888888" font-family="sans-serif" font-size="10" lengthAdjust="spacing" textLength="182" x="631" y="707.002">UMLDoclet 2.0.14, PlantUML 1.2021.9</text><!--MD5=[97dae59827945af7c9125e33f13f5f11]
@startuml
    namespace nz.ac.wgtn.swen225.lc.domain.tiles {

        class Door [[Door.html]] {
            +Door(Colour, int, int)
            +performTileAction(Chap): boolean
            +traversable(Chap): boolean
            +canOpen(Chap): boolean
            +getColour(): Colour
        }

        class Exit [[Exit.html]] {
            +Exit(int, int)
            +performTileAction(Chap): boolean
        }

        class ExitLock [[ExitLock.html]] {
            +ExitLock(int, int)
            +traversable(Chap): boolean
            +performTileAction(Chap): boolean
        }

        class Free [[Free.html]] {
            #x: int
            #y: int
            +Free(int, int)
            +traversable(Chap): boolean
            +getX(): int
            +getY(): int
        }

        class InfoField [[InfoField.html]] {
            +InfoField(int, int)
            +performTileAction(Chap): boolean
        }

        class KeyTile [[KeyTile.html]] {
            +KeyTile(Colour, int, int)
            +performTileAction(Chap): boolean
            +getColour(): Colour
        }

        interface Tile [[Tile.html]] {
            {abstract} +traversable(Chap): boolean
            +performTileAction(Chap): boolean
            {abstract} +getX(): int
            {abstract} +getY(): int
        }

        class Treasure [[Treasure.html]] {
            +Treasure(int, int)
            +performTileAction(Chap): boolean
        }

        class Wall [[Wall.html]] {
            #x: int
            #y: int
            +Wall(int, int)
            +traversable(Chap): boolean
            +performTileAction(Chap): boolean
            +getX(): int
            +getY(): int
        }

        Wall <|- - Door
        Free <|- - Exit
        Wall <|- - ExitLock
        Tile <|.. Free
        Free <|- - InfoField
        Free <|- - KeyTile
        java.lang.Cloneable <|- - Tile
        Free <|- - Treasure
        Tile <|.. Wall
    }

    namespace java.lang {
        interface Cloneable
    }

    center footer UMLDoclet 2.0.14, PlantUML 1.2021.9
@enduml

PlantUML version 1.2021.9(Sun Jul 25 22:13:56 NZST 2021)
(APACHE source distribution)
Java Runtime: OpenJDK Runtime Environment
JVM: OpenJDK 64-Bit Server VM
Default Encoding: UTF-8
Language: en
Country: NZ
--></g></svg>