<?xml version="1.0" encoding="UTF-8" standalone="no"?><svg xmlns="http://www.w3.org/2000/svg" xmlns:xlink="http://www.w3.org/1999/xlink" contentStyleType="text/css" height="374px" preserveAspectRatio="none" style="width:256px;height:374px;background:#FFFFFF;" version="1.1" viewBox="0 0 256 374" width="256px" zoomAndPan="magnify"><defs/><g><!--class nz.ac.wgtn.swen225.lc.domain.tiles.Wall--><a href="Wall.html" target="_top" title="Wall.html" xlink:actuate="onRequest" xlink:href="Wall.html" xlink:show="new" xlink:title="Wall.html" xlink:type="simple"><g id="elem_nz.ac.wgtn.swen225.lc.domain.tiles.Wall"><rect codeLine="5" fill="#F1F1F1" height="179.4531" id="nz.ac.wgtn.swen225.lc.domain.tiles.Wall" rx="2.5" ry="2.5" style="stroke:#181818;stroke-width:0.5;" width="240" x="9" y="168.02"/><ellipse cx="42" cy="188.1138" fill="#ADD1B2" rx="11" ry="11" style="stroke:#181818;stroke-width:1.0;"/><path d="M44.7656,183.9888 Q44.9219,183.77 45.1094,183.6606 Q45.2969,183.5513 45.5156,183.5513 Q45.8906,183.5513 46.125,183.8169 Q46.3594,184.0669 46.3594,184.6763 L46.3594,186.1294 Q46.3594,186.7388 46.125,187.0044 Q45.8906,187.27 45.5156,187.27 Q45.1719,187.27 44.9688,187.0669 Q44.7656,186.8794 44.6563,186.3638 Q44.6094,186.0044 44.4219,185.8169 Q44.0938,185.4419 43.4844,185.2231 Q42.875,185.0044 42.25,185.0044 Q41.4844,185.0044 40.8438,185.3325 Q40.2188,185.6606 39.7188,186.4106 Q39.2344,187.1606 39.2344,188.1919 L39.2344,189.2856 Q39.2344,190.52 40.125,191.3481 Q41.0156,192.1606 42.6094,192.1606 Q43.5469,192.1606 44.2031,191.9106 Q44.5938,191.7544 45.0156,191.3169 Q45.2813,191.0513 45.4219,190.9731 Q45.5781,190.895 45.7813,190.895 Q46.1094,190.895 46.3594,191.1606 Q46.625,191.4106 46.625,191.7544 Q46.625,192.0981 46.2813,192.5044 Q45.7813,193.0825 44.9844,193.4106 Q43.9063,193.8638 42.6094,193.8638 Q41.0938,193.8638 39.8906,193.2388 Q38.9063,192.7388 38.2188,191.6763 Q37.5313,190.5981 37.5313,189.3169 L37.5313,188.1606 Q37.5313,186.8325 38.1406,185.6919 Q38.7656,184.5356 39.8594,183.9263 Q40.9531,183.3013 42.1875,183.3013 Q42.9219,183.3013 43.5625,183.4731 Q44.2188,183.6294 44.7656,183.9888 Z " fill="#000000"/><text fill="#000000" font-family="sans-serif" font-size="14" lengthAdjust="spacing" textLength="27" x="130.5" y="187.5532">Wall</text><text fill="#000000" font-family="sans-serif" font-size="10" lengthAdjust="spacing" textLength="168" x="60" y="201.0102">nz.ac.wgtn.swen225.lc.domain.tiles</text><line style="stroke:#181818;stroke-width:0.5;" x1="10" x2="248" y1="208.2075" y2="208.2075"/><polygon fill="none" points="20,217.5122,24,221.5122,20,225.5122,16,221.5122" style="stroke:#B38D22;stroke-width:1.0;"/><text fill="#000000" font-family="sans-serif" font-size="14" lengthAdjust="spacing" textLength="29" x="29" y="226.7407">x: int</text><polygon fill="none" points="20,235.1216,24,239.1216,20,243.1216,16,239.1216" style="stroke:#B38D22;stroke-width:1.0;"/><text fill="#000000" font-family="sans-serif" font-size="14" lengthAdjust="spacing" textLength="30" x="29" y="244.3501">y: int</text><line style="stroke:#181818;stroke-width:0.5;" x1="10" x2="248" y1="251.4263" y2="251.4263"/><ellipse cx="20" cy="265.7309" fill="#84BE84" rx="3" ry="3" style="stroke:#038048;stroke-width:1.0;"/><text fill="#000000" font-family="sans-serif" font-size="14" lengthAdjust="spacing" textLength="75" x="29" y="269.9595">Wall(int, int)</text><ellipse cx="20" cy="283.3403" fill="#84BE84" rx="3" ry="3" style="stroke:#038048;stroke-width:1.0;"/><text fill="#000000" font-family="sans-serif" font-size="14" lengthAdjust="spacing" textLength="174" x="29" y="287.5688">traversable(Chap): boolean</text><ellipse cx="20" cy="300.9497" fill="#84BE84" rx="3" ry="3" style="stroke:#038048;stroke-width:1.0;"/><text fill="#000000" font-family="sans-serif" font-size="14" lengthAdjust="spacing" textLength="214" x="29" y="305.1782">performTileAction(Chap): boolean</text><ellipse cx="20" cy="318.5591" fill="#84BE84" rx="3" ry="3" style="stroke:#038048;stroke-width:1.0;"/><text fill="#000000" font-family="sans-serif" font-size="14" lengthAdjust="spacing" textLength="61" x="29" y="322.7876">getX(): int</text><ellipse cx="20" cy="336.1684" fill="#84BE84" rx="3" ry="3" style="stroke:#038048;stroke-width:1.0;"/><text fill="#000000" font-family="sans-serif" font-size="14" lengthAdjust="spacing" textLength="62" x="29" y="340.397">getY(): int</text></g></a><!--class nz.ac.wgtn.swen225.lc.domain.tiles.Tile--><a href="Tile.html" target="_top" title="Tile.html" xlink:actuate="onRequest" xlink:href="Tile.html" xlink:show="new" xlink:title="Tile.html" xlink:type="simple"><g id="elem_nz.ac.wgtn.swen225.lc.domain.tiles.Tile"><rect codeLine="15" fill="#F1F1F1" height="101.0156" id="nz.ac.wgtn.swen225.lc.domain.tiles.Tile" rx="2.5" ry="2.5" style="stroke:#181818;stroke-width:0.5;" width="200" x="29" y="7"/><ellipse cx="44" cy="27.0938" fill="#B4A7E5" rx="11" ry="11" style="stroke:#181818;stroke-width:1.0;"/><path d="M44.9531,23.7344 L44.9531,30.3906 L46.6719,30.3906 Q47.2813,30.3906 47.5469,30.625 Q47.8125,30.8594 47.8125,31.25 Q47.8125,31.625 47.5469,31.8594 Q47.2813,32.0938 46.6719,32.0938 L41.5313,32.0938 Q40.9219,32.0938 40.6563,31.8594 Q40.3906,31.625 40.3906,31.2344 Q40.3906,30.8594 40.6563,30.625 Q40.9219,30.3906 41.5313,30.3906 L43.25,30.3906 L43.25,23.7344 L41.5313,23.7344 Q40.9219,23.7344 40.6563,23.5 Q40.3906,23.2656 40.3906,22.875 Q40.3906,22.5 40.6563,22.2656 Q40.9219,22.0313 41.5313,22.0313 L46.6719,22.0313 Q47.2813,22.0313 47.5469,22.2656 Q47.8125,22.5 47.8125,22.875 Q47.8125,23.2656 47.5469,23.5 Q47.2813,23.7344 46.6719,23.7344 L44.9531,23.7344 Z " fill="#000000"/><text fill="#000000" font-family="sans-serif" font-size="14" font-style="italic" lengthAdjust="spacing" textLength="23" x="130.5" y="26.5332">Tile</text><text fill="#000000" font-family="sans-serif" font-size="10" font-style="italic" lengthAdjust="spacing" textLength="168" x="58" y="39.9902">nz.ac.wgtn.swen225.lc.domain.tiles</text><line style="stroke:#181818;stroke-width:0.5;" x1="30" x2="228" y1="47.1875" y2="47.1875"/><ellipse cx="40" cy="61.4922" fill="#84BE84" rx="3" ry="3" style="stroke:#038048;stroke-width:1.0;"/><text fill="#000000" font-family="sans-serif" font-size="14" font-style="italic" lengthAdjust="spacing" textLength="173" x="49" y="65.7207">traversable(Chap): boolean</text><ellipse cx="40" cy="79.1016" fill="#84BE84" rx="3" ry="3" style="stroke:#038048;stroke-width:1.0;"/><text fill="#000000" font-family="sans-serif" font-size="14" font-style="italic" lengthAdjust="spacing" textLength="62" x="49" y="83.3301">getX(): int</text><ellipse cx="40" cy="96.7109" fill="#84BE84" rx="3" ry="3" style="stroke:#038048;stroke-width:1.0;"/><text fill="#000000" font-family="sans-serif" font-size="14" font-style="italic" lengthAdjust="spacing" textLength="62" x="49" y="100.9395">getY(): int</text></g></a><!--reverse link nz.ac.wgtn.swen225.lc.domain.tiles.Tile to nz.ac.wgtn.swen225.lc.domain.tiles.Wall--><g id="link_nz.ac.wgtn.swen225.lc.domain.tiles.Tile_nz.ac.wgtn.swen225.lc.domain.tiles.Wall"><path codeLine="21" d="M129,129.12 C129,141.57 129,154.68 129,167.56 " fill="none" id="nz.ac.wgtn.swen225.lc.domain.tiles.Tile-backto-nz.ac.wgtn.swen225.lc.domain.tiles.Wall" style="stroke:#181818;stroke-width:1.0;stroke-dasharray:7.0,7.0;"/><polygon fill="none" points="122,129.28,129,109.28,136,129.28,122,129.28" style="stroke:#181818;stroke-width:1.0;"/></g><text fill="#888888" font-family="sans-serif" font-size="10" lengthAdjust="spacing" textLength="184" x="29" y="363.854">UMLDoclet 2.1.0, PlantUML 1.2022.14</text><!--SRC=[jPBVIm914CVV-oi68_185fLwEKI8UYm8AYhKXt6TynRsTe_R8LFpVs_M1A_Bo9VsPPZFpiwFxmu0G206XmM54ZKzK8aLig_0UKSdSWsvcH5GKV8ICaDs5fgq8Cwzu2tN5aE0rY2O5QMzY-4pMZjsExSxT2k5MYtcx5HOaEltBvNLQkOBD4wniHHQW07-3bCnCOn6qQYS2pkPm7hRGJodxoaOntj_-Tq_Zy_QGZeH9tlE5RvH5N1ggNsTOvcaCFNU4hfzJ4bLvglYKTguqcoy-pLoJlpIJXgb1RxMuUPBE74bhtn1JRnOub_4Yub5l6X-YhV6QH0TD6-EqgCUVcZWnlsXsO_jUF2XrB6xiLj7Yh92vdqqJtUtDrvRMVY-wgbk1-ujEXOAPt7A-9N99m00]--></g></svg>