<?xml version="1.0" encoding="UTF-8" standalone="no"?><svg xmlns="http://www.w3.org/2000/svg" xmlns:xlink="http://www.w3.org/1999/xlink" contentStyleType="text/css" height="585px" preserveAspectRatio="none" style="width:763px;height:585px;" version="1.1" viewBox="0 0 763 585" width="763px" zoomAndPan="magnify"><defs/><g><!--class nz.ac.wgtn.swen225.lc.app--><a href="nz\ac\wgtn\swen225\lc\app\package-summary.html" target="_top" title="nz\ac\wgtn\swen225\lc\app\package-summary.html" xlink:actuate="onRequest" xlink:href="nz\ac\wgtn\swen225\lc\app\package-summary.html" xlink:show="new" xlink:title="nz\ac\wgtn\swen225\lc\app\package-summary.html" xlink:type="simple"><g id="elem_nz.ac.wgtn.swen225.lc.app"><rect codeLine="29" fill="#F1F1F1" height="27.6094" id="nz.ac.wgtn.swen225.lc.app" rx="2.5" ry="2.5" style="stroke:#181818;stroke-width:0.5;" width="174" x="261.08" y="182.22"/><text fill="#000000" font-family="sans-serif" font-size="14" lengthAdjust="spacing" textLength="168" x="264.08" y="201.7532">nz.ac.wgtn.swen225.lc.app</text></g></a><!--class nz.ac.wgtn.swen225.lc.renderer--><a href="nz\ac\wgtn\swen225\lc\renderer\package-summary.html" target="_top" title="nz\ac\wgtn\swen225\lc\renderer\package-summary.html" xlink:actuate="onRequest" xlink:href="nz\ac\wgtn\swen225\lc\renderer\package-summary.html" xlink:show="new" xlink:title="nz\ac\wgtn\swen225\lc\renderer\package-summary.html" xlink:type="simple"><g id="elem_nz.ac.wgtn.swen225.lc.renderer"><rect codeLine="31" fill="#F1F1F1" height="27.6094" id="nz.ac.wgtn.swen225.lc.renderer" rx="2.5" ry="2.5" style="stroke:#181818;stroke-width:0.5;" width="205" x="245.58" y="269.83"/><text fill="#000000" font-family="sans-serif" font-size="14" lengthAdjust="spacing" textLength="199" x="248.58" y="289.3632">nz.ac.wgtn.swen225.lc.renderer</text></g></a><!--class nz.ac.wgtn.swen225.lc.domain--><a href="nz\ac\wgtn\swen225\lc\domain\package-summary.html" target="_top" title="nz\ac\wgtn\swen225\lc\domain\package-summary.html" xlink:actuate="onRequest" xlink:href="nz\ac\wgtn\swen225\lc\domain\package-summary.html" xlink:show="new" xlink:title="nz\ac\wgtn\swen225\lc\domain\package-summary.html" xlink:type="simple"><g id="elem_nz.ac.wgtn.swen225.lc.domain"><rect codeLine="33" fill="#F1F1F1" height="27.6094" id="nz.ac.wgtn.swen225.lc.domain" rx="2.5" ry="2.5" style="stroke:#181818;stroke-width:0.5;" width="196" x="305.08" y="445.05"/><text fill="#000000" font-family="sans-serif" font-size="14" lengthAdjust="spacing" textLength="190" x="308.08" y="464.5832">nz.ac.wgtn.swen225.lc.domain</text></g></a><!--class nz.ac.wgtn.swen225.lc.domain.items--><a href="nz\ac\wgtn\swen225\lc\domain\items\package-summary.html" target="_top" title="nz\ac\wgtn\swen225\lc\domain\items\package-summary.html" xlink:actuate="onRequest" xlink:href="nz\ac\wgtn\swen225\lc\domain\items\package-summary.html" xlink:show="new" xlink:title="nz\ac\wgtn\swen225\lc\domain\items\package-summary.html" xlink:type="simple"><g id="elem_nz.ac.wgtn.swen225.lc.domain.items"><rect codeLine="35" fill="#F1F1F1" height="27.6094" id="nz.ac.wgtn.swen225.lc.domain.items" rx="2.5" ry="2.5" style="stroke:#181818;stroke-width:0.5;" width="233" x="361.58" y="532.66"/><text fill="#000000" font-family="sans-serif" font-size="14" lengthAdjust="spacing" textLength="227" x="364.58" y="552.1932">nz.ac.wgtn.swen225.lc.domain.items</text></g></a><!--class nz.ac.wgtn.swen225.lc.domain.tiles--><a href="nz\ac\wgtn\swen225\lc\domain\tiles\package-summary.html" target="_top" title="nz\ac\wgtn\swen225\lc\domain\tiles\package-summary.html" xlink:actuate="onRequest" xlink:href="nz\ac\wgtn\swen225\lc\domain\tiles\package-summary.html" xlink:show="new" xlink:title="nz\ac\wgtn\swen225\lc\domain\tiles\package-summary.html" xlink:type="simple"><g id="elem_nz.ac.wgtn.swen225.lc.domain.tiles"><rect codeLine="37" fill="#F1F1F1" height="27.6094" id="nz.ac.wgtn.swen225.lc.domain.tiles" rx="2.5" ry="2.5" style="stroke:#181818;stroke-width:0.5;" width="225" x="366.58" y="357.44"/><text fill="#000000" font-family="sans-serif" font-size="14" lengthAdjust="spacing" textLength="219" x="369.58" y="376.9732">nz.ac.wgtn.swen225.lc.domain.tiles</text></g></a><!--class nz.ac.wgtn.swen225.lc.persistency--><a href="nz\ac\wgtn\swen225\lc\persistency\package-summary.html" target="_top" title="nz\ac\wgtn\swen225\lc\persistency\package-summary.html" xlink:actuate="onRequest" xlink:href="nz\ac\wgtn\swen225\lc\persistency\package-summary.html" xlink:show="new" xlink:title="nz\ac\wgtn\swen225\lc\persistency\package-summary.html" xlink:type="simple"><g id="elem_nz.ac.wgtn.swen225.lc.persistency"><rect codeLine="39" fill="#F1F1F1" height="27.6094" id="nz.ac.wgtn.swen225.lc.persistency" rx="2.5" ry="2.5" style="stroke:#181818;stroke-width:0.5;" width="222" x="534.08" y="94.61"/><text fill="#000000" font-family="sans-serif" font-size="14" lengthAdjust="spacing" textLength="216" x="537.08" y="114.1432">nz.ac.wgtn.swen225.lc.persistency</text></g></a><!--class nz.ac.wgtn.swen225.lc.app.main--><a href="nz\ac\wgtn\swen225\lc\app\main\package-summary.html" target="_top" title="nz\ac\wgtn\swen225\lc\app\main\package-summary.html" xlink:actuate="onRequest" xlink:href="nz\ac\wgtn\swen225\lc\app\main\package-summary.html" xlink:show="new" xlink:title="nz\ac\wgtn\swen225\lc\app\main\package-summary.html" xlink:type="simple"><g id="elem_nz.ac.wgtn.swen225.lc.app.main"><rect codeLine="41" fill="#F1F1F1" height="27.6094" id="nz.ac.wgtn.swen225.lc.app.main" rx="2.5" ry="2.5" style="stroke:#181818;stroke-width:0.5;" width="208" x="50.08" y="7"/><text fill="#000000" font-family="sans-serif" font-size="14" lengthAdjust="spacing" textLength="202" x="53.08" y="26.5332">nz.ac.wgtn.swen225.lc.app.main</text></g></a><!--class nz.ac.wgtn.swen225.lc.recorder--><a href="nz\ac\wgtn\swen225\lc\recorder\package-summary.html" target="_top" title="nz\ac\wgtn\swen225\lc\recorder\package-summary.html" xlink:actuate="onRequest" xlink:href="nz\ac\wgtn\swen225\lc\recorder\package-summary.html" xlink:show="new" xlink:title="nz\ac\wgtn\swen225\lc\recorder\package-summary.html" xlink:type="simple"><g id="elem_nz.ac.wgtn.swen225.lc.recorder"><rect codeLine="43" fill="#F1F1F1" height="27.6094" id="nz.ac.wgtn.swen225.lc.recorder" rx="2.5" ry="2.5" style="stroke:#181818;stroke-width:0.5;" width="204" x="52.08" y="94.61"/><text fill="#000000" font-family="sans-serif" font-size="14" lengthAdjust="spacing" textLength="198" x="55.08" y="114.1432">nz.ac.wgtn.swen225.lc.recorder</text></g></a><!--class nz.ac.wgtn.swen225.lc.app.input--><a href="nz\ac\wgtn\swen225\lc\app\input\package-summary.html" target="_top" title="nz\ac\wgtn\swen225\lc\app\input\package-summary.html" xlink:actuate="onRequest" xlink:href="nz\ac\wgtn\swen225\lc\app\input\package-summary.html" xlink:show="new" xlink:title="nz\ac\wgtn\swen225\lc\app\input\package-summary.html" xlink:type="simple"><g id="elem_nz.ac.wgtn.swen225.lc.app.input"><rect codeLine="45" fill="#F1F1F1" height="27.6094" id="nz.ac.wgtn.swen225.lc.app.input" rx="2.5" ry="2.5" style="stroke:#181818;stroke-width:0.5;" width="209" x="290.58" y="94.61"/><text fill="#000000" font-family="sans-serif" font-size="14" lengthAdjust="spacing" textLength="203" x="293.58" y="114.1432">nz.ac.wgtn.swen225.lc.app.input</text></g></a><!--link nz.ac.wgtn.swen225.lc.app to nz.ac.wgtn.swen225.lc.renderer--><g id="link_nz.ac.wgtn.swen225.lc.app_nz.ac.wgtn.swen225.lc.renderer"><path codeLine="7" d="M338.61,210.03 C334.72,224.36 334.29,247.54 337.31,263.85 " fill="none" id="nz.ac.wgtn.swen225.lc.app-to-nz.ac.wgtn.swen225.lc.renderer" style="stroke:#181818;stroke-width:1.0;"/><polygon fill="#181818" points="338.58,268.51,340.5055,258.8512,337.4818,263.6321,332.7009,260.6084,338.58,268.51" style="stroke:#181818;stroke-width:1.0;"/></g><!--link nz.ac.wgtn.swen225.lc.renderer to nz.ac.wgtn.swen225.lc.app--><g id="link_nz.ac.wgtn.swen225.lc.renderer_nz.ac.wgtn.swen225.lc.app"><path codeLine="13" d="M358.13,269.51 C362.23,255.13 362.67,231.95 359.45,215.68 " fill="none" id="nz.ac.wgtn.swen225.lc.renderer-to-nz.ac.wgtn.swen225.lc.app" style="stroke:#181818;stroke-width:1.0;"/><polygon fill="#181818" points="358.1,211.03,356.3216,220.717,359.2723,215.8906,364.0986,218.8413,358.1,211.03" style="stroke:#181818;stroke-width:1.0;"/></g><!--link nz.ac.wgtn.swen225.lc.app to nz.ac.wgtn.swen225.lc.domain--><g id="link_nz.ac.wgtn.swen225.lc.app_nz.ac.wgtn.swen225.lc.domain"><path codeLine="8" d="M307.28,210.23 C265.77,226.2 209.92,256.17 228.08,297.44 C257.84,365.1 331.78,416.68 373.4,441.51 " fill="none" id="nz.ac.wgtn.swen225.lc.app-to-nz.ac.wgtn.swen225.lc.domain" style="stroke:#181818;stroke-width:1.0;"/><polygon fill="#181818" points="377.55,444.55,371.8195,436.5399,373.24,442.0155,367.7643,443.436,377.55,444.55" style="stroke:#181818;stroke-width:1.0;"/></g><!--link nz.ac.wgtn.swen225.lc.app to nz.ac.wgtn.swen225.lc.domain.items--><g id="link_nz.ac.wgtn.swen225.lc.app_nz.ac.wgtn.swen225.lc.domain.items"><path codeLine="9" d="M299.55,210.28 C270.08,221.1 234.82,239.67 217.08,269.83 C210.86,280.41 214.73,285.4 217.08,297.44 C233.15,379.92 228.1,413.81 288.08,472.66 C318.24,502.25 361.7,520.09 399.44,530.69 " fill="none" id="nz.ac.wgtn.swen225.lc.app-to-nz.ac.wgtn.swen225.lc.domain.items" style="stroke:#181818;stroke-width:1.0;"/><polygon fill="#181818" points="403.96,532.2,396.3265,525.9767,399.1355,530.8868,394.2254,533.6959,403.96,532.2" style="stroke:#181818;stroke-width:1.0;"/></g><!--link nz.ac.wgtn.swen225.lc.app to nz.ac.wgtn.swen225.lc.domain.tiles--><g id="link_nz.ac.wgtn.swen225.lc.app_nz.ac.wgtn.swen225.lc.domain.tiles"><path codeLine="10" d="M387.5,210.24 C414.84,221.58 449.55,240.75 468.08,269.83 C483.77,294.47 483.7,329.55 481.73,351.06 " fill="none" id="nz.ac.wgtn.swen225.lc.app-to-nz.ac.wgtn.swen225.lc.domain.tiles" style="stroke:#181818;stroke-width:1.0;"/><polygon fill="#181818" points="481.11,356.01,486.0149,347.4694,481.6245,351.0365,478.0573,346.6462,481.11,356.01" style="stroke:#181818;stroke-width:1.0;"/></g><!--link nz.ac.wgtn.swen225.lc.renderer to nz.ac.wgtn.swen225.lc.domain--><g id="link_nz.ac.wgtn.swen225.lc.renderer_nz.ac.wgtn.swen225.lc.domain"><path codeLine="11" d="M345.7,297.74 C342.69,317.33 339.03,355.14 349.08,385.05 C356.3,406.55 372.5,426.91 385.28,440.61 " fill="none" id="nz.ac.wgtn.swen225.lc.renderer-to-nz.ac.wgtn.swen225.lc.domain" style="stroke:#181818;stroke-width:1.0;"/><polygon fill="#181818" points="388.13,443.64,384.7996,434.3713,384.6739,440.0268,379.0184,439.9011,388.13,443.64" style="stroke:#181818;stroke-width:1.0;"/></g><!--link nz.ac.wgtn.swen225.lc.renderer to nz.ac.wgtn.swen225.lc.domain.tiles--><g id="link_nz.ac.wgtn.swen225.lc.renderer_nz.ac.wgtn.swen225.lc.domain.tiles"><path codeLine="12" d="M368.26,297.83 C391.4,312.95 429.36,337.76 454.28,354.04 " fill="none" id="nz.ac.wgtn.swen225.lc.renderer-to-nz.ac.wgtn.swen225.lc.domain.tiles" style="stroke:#181818;stroke-width:1.0;"/><polygon fill="#181818" points="458.09,357.18,452.7546,348.9015,453.9079,354.4395,448.3699,355.5928,458.09,357.18" style="stroke:#181818;stroke-width:1.0;"/></g><!--link nz.ac.wgtn.swen225.lc.persistency to nz.ac.wgtn.swen225.lc.domain--><g id="link_nz.ac.wgtn.swen225.lc.persistency_nz.ac.wgtn.swen225.lc.domain"><path codeLine="14" d="M647.68,122.46 C655.47,165.45 674.21,304.59 609.08,385.05 C583.94,416.1 544.62,433.93 507.04,444.15 " fill="none" id="nz.ac.wgtn.swen225.lc.persistency-to-nz.ac.wgtn.swen225.lc.domain" style="stroke:#181818;stroke-width:1.0;"/><polygon fill="#181818" points="502.51,445.61,512.2307,447.1935,507.3461,444.3403,510.1993,439.4557,502.51,445.61" style="stroke:#181818;stroke-width:1.0;"/></g><!--link nz.ac.wgtn.swen225.lc.persistency to nz.ac.wgtn.swen225.lc.domain.tiles--><g id="link_nz.ac.wgtn.swen225.lc.persistency_nz.ac.wgtn.swen225.lc.domain.tiles"><path codeLine="15" d="M636.62,122.71 C609.09,165.97 522.02,302.77 490.56,352.2 " fill="none" id="nz.ac.wgtn.swen225.lc.persistency-to-nz.ac.wgtn.swen225.lc.domain.tiles" style="stroke:#181818;stroke-width:1.0;"/><polygon fill="#181818" points="487.52,355.98,495.7301,350.5399,490.2072,351.7635,488.9836,346.2405,487.52,355.98" style="stroke:#181818;stroke-width:1.0;"/></g><!--link nz.ac.wgtn.swen225.lc.persistency to nz.ac.wgtn.swen225.lc.domain.items--><g id="link_nz.ac.wgtn.swen225.lc.persistency_nz.ac.wgtn.swen225.lc.domain.items"><path codeLine="16" d="M654.65,122.58 C674.03,150.55 716.08,218.61 716.08,282.64 C716.08,282.64 716.08,282.64 716.08,372.25 C716.08,460.65 607.4,508.68 536.92,530.53 " fill="none" id="nz.ac.wgtn.swen225.lc.persistency-to-nz.ac.wgtn.swen225.lc.domain.items" style="stroke:#181818;stroke-width:1.0;"/><polygon fill="#181818" points="532.49,532.18,542.2649,533.3851,537.2732,530.7236,539.9347,525.732,532.49,532.18" style="stroke:#181818;stroke-width:1.0;"/></g><!--link nz.ac.wgtn.swen225.lc.persistency to nz.ac.wgtn.swen225.lc.app--><g id="link_nz.ac.wgtn.swen225.lc.persistency_nz.ac.wgtn.swen225.lc.app"><path codeLine="17" d="M599,122.7 C544.97,138.27 455.67,164.02 399.45,180.22 " fill="none" id="nz.ac.wgtn.swen225.lc.persistency-to-nz.ac.wgtn.swen225.lc.app" style="stroke:#181818;stroke-width:1.0;"/><polygon fill="#181818" points="394.78,181.85,404.5363,183.1968,399.5838,180.4632,402.3174,175.5107,394.78,181.85" style="stroke:#181818;stroke-width:1.0;"/></g><!--link nz.ac.wgtn.swen225.lc.app.main to nz.ac.wgtn.swen225.lc.recorder--><g id="link_nz.ac.wgtn.swen225.lc.app.main_nz.ac.wgtn.swen225.lc.recorder"><path codeLine="18" d="M154.08,34.81 C154.08,49.14 154.08,72.32 154.08,88.63 " fill="none" id="nz.ac.wgtn.swen225.lc.app.main-to-nz.ac.wgtn.swen225.lc.recorder" style="stroke:#181818;stroke-width:1.0;"/><polygon fill="#181818" points="154.08,93.29,158.08,84.29,154.08,88.29,150.08,84.29,154.08,93.29" style="stroke:#181818;stroke-width:1.0;"/></g><!--link nz.ac.wgtn.swen225.lc.app.main to nz.ac.wgtn.swen225.lc.persistency--><g id="link_nz.ac.wgtn.swen225.lc.app.main_nz.ac.wgtn.swen225.lc.persistency"><path codeLine="19" d="M230.26,35.09 C320.62,50.85 470.66,77.01 563.38,93.17 " fill="none" id="nz.ac.wgtn.swen225.lc.app.main-to-nz.ac.wgtn.swen225.lc.persistency" style="stroke:#181818;stroke-width:1.0;"/><polygon fill="#181818" points="568.12,94.17,559.9385,88.6871,563.1939,93.3133,558.5677,96.5688,568.12,94.17" style="stroke:#181818;stroke-width:1.0;"/></g><!--link nz.ac.wgtn.swen225.lc.app.main to nz.ac.wgtn.swen225.lc.app--><g id="link_nz.ac.wgtn.swen225.lc.app.main_nz.ac.wgtn.swen225.lc.app"><path codeLine="20" d="M115.49,35.08 C70.56,52.62 6,85.6 35.08,122.22 C62.18,156.36 172.8,175.95 254.89,186.03 " fill="none" id="nz.ac.wgtn.swen225.lc.app.main-to-nz.ac.wgtn.swen225.lc.app" style="stroke:#181818;stroke-width:1.0;"/><polygon fill="#181818" points="259.75,186.74,251.2959,181.6875,254.7862,186.1392,250.3346,189.6296,259.75,186.74" style="stroke:#181818;stroke-width:1.0;"/></g><!--link nz.ac.wgtn.swen225.lc.app.input to nz.ac.wgtn.swen225.lc.app--><g id="link_nz.ac.wgtn.swen225.lc.app.input_nz.ac.wgtn.swen225.lc.app"><path codeLine="21" d="M387.94,122.42 C380,136.88 367.12,160.34 358.16,176.66 " fill="none" id="nz.ac.wgtn.swen225.lc.app.input-to-nz.ac.wgtn.swen225.lc.app" style="stroke:#181818;stroke-width:1.0;"/><polygon fill="#181818" points="355.28,180.9,363.1094,174.9251,357.6803,176.5138,356.0915,171.0846,355.28,180.9" style="stroke:#181818;stroke-width:1.0;"/></g><!--link nz.ac.wgtn.swen225.lc.domain to nz.ac.wgtn.swen225.lc.domain.tiles--><g id="link_nz.ac.wgtn.swen225.lc.domain_nz.ac.wgtn.swen225.lc.domain.tiles"><path codeLine="22" d="M424.78,444.73 C441.95,430.1 463.41,406.35 474.47,390.05 " fill="none" id="nz.ac.wgtn.swen225.lc.domain-to-nz.ac.wgtn.swen225.lc.domain.tiles" style="stroke:#181818;stroke-width:1.0;"/><polygon fill="#181818" points="477.55,386.25,469.3185,391.6576,474.8462,390.4559,476.0479,395.9836,477.55,386.25" style="stroke:#181818;stroke-width:1.0;"/></g><!--link nz.ac.wgtn.swen225.lc.domain.tiles to nz.ac.wgtn.swen225.lc.domain--><g id="link_nz.ac.wgtn.swen225.lc.domain.tiles_nz.ac.wgtn.swen225.lc.domain"><path codeLine="25" d="M458.07,385.25 C441.16,399.83 419.71,423.57 408.4,439.92 " fill="none" id="nz.ac.wgtn.swen225.lc.domain.tiles-to-nz.ac.wgtn.swen225.lc.domain" style="stroke:#181818;stroke-width:1.0;"/><polygon fill="#181818" points="405.23,443.73,413.5169,438.4076,407.977,439.5522,406.8324,434.0124,405.23,443.73" style="stroke:#181818;stroke-width:1.0;"/></g><!--link nz.ac.wgtn.swen225.lc.domain to nz.ac.wgtn.swen225.lc.domain.items--><g id="link_nz.ac.wgtn.swen225.lc.domain_nz.ac.wgtn.swen225.lc.domain.items"><path codeLine="23" d="M414.47,472.86 C427.35,487.57 448.4,511.59 462.73,527.95 " fill="none" id="nz.ac.wgtn.swen225.lc.domain-to-nz.ac.wgtn.swen225.lc.domain.items" style="stroke:#181818;stroke-width:1.0;"/><polygon fill="#181818" points="466.58,531.34,463.6663,521.932,463.2885,527.5762,457.6443,527.1984,466.58,531.34" style="stroke:#181818;stroke-width:1.0;"/></g><!--link nz.ac.wgtn.swen225.lc.domain.tiles to nz.ac.wgtn.swen225.lc.domain.items--><g id="link_nz.ac.wgtn.swen225.lc.domain.tiles_nz.ac.wgtn.swen225.lc.domain.items"><path codeLine="24" d="M489.8,385.23 C504.02,404.06 526.4,440.24 518.08,472.66 C512.91,492.82 500.86,513.38 491.33,527.49 " fill="none" id="nz.ac.wgtn.swen225.lc.domain.tiles-to-nz.ac.wgtn.swen225.lc.domain.items" style="stroke:#181818;stroke-width:1.0;"/><polygon fill="#181818" points="487.95,531.38,496.357,526.2495,490.7923,527.2665,489.7754,521.7018,487.95,531.38" style="stroke:#181818;stroke-width:1.0;"/></g><!--link nz.ac.wgtn.swen225.lc.recorder to nz.ac.wgtn.swen225.lc.app--><g id="link_nz.ac.wgtn.swen225.lc.recorder_nz.ac.wgtn.swen225.lc.app"><path codeLine="26" d="M183.96,122.61 C218.71,137.94 276,163.22 312.87,179.49 " fill="none" id="nz.ac.wgtn.swen225.lc.recorder-to-nz.ac.wgtn.swen225.lc.app" style="stroke:#181818;stroke-width:1.0;"/><polygon fill="#181818" points="317.16,181.82,310.5476,174.521,312.5874,179.7972,307.3112,181.8371,317.16,181.82" style="stroke:#181818;stroke-width:1.0;"/></g><text fill="#888888" font-family="sans-serif" font-size="10" lengthAdjust="spacing" textLength="184" x="282.54" y="575.6502">UMLDoclet 2.1.0, PlantUML 1.2022.14</text><!--SRC=[lLPDImCn4BtxAmP1LB112ruzULGeYATk3p4xRKFpiIIffHN_kzd4XKNOf6qMJylEcxmtNna2060tN3NKK0aVb6rMHczLpRJG1foXode8bRk0rXCTA2hHsnY-ONl8UJUb5GPypMi4nWqJlN-KZTl3agEexL-hHBVMtXpiwa0e8xkLKyJkK4sdZqGmGfi69fEd0TI7LgD1SpP1hINbgl0uuGwbBILnN62AfCkr99kZESQ8ncUT86ZGM6uTAhOloUWKccnI9v7bcduSMRf87YMjMF8AC6tgt1N8iVI2BIFAv-EtpTQTpH2BNzxgOtboNUxB_JDRydR6eSYKEJ1SmyplVRf245njOdHCK6lXSl3a9Spdwb1HLhLWzGjMWbKUh9h8Dx5RAQdPaxMJOh60hq3zdHVeTikmIkTHB1KhEImKyP5aOlkpOi5hBCamIbd9u5KisLiYmuezfsB1RX-bnt6K3dOtAZMJqMEKhCAIJASLN79YKSq_uFmkM6hTVjvVNvwrVw8vc987Sdy7Cq6LyrQu-cnxezNDxGy0]--></g></svg>