<?xml version="1.0" encoding="UTF-8" standalone="no"?><svg xmlns="http://www.w3.org/2000/svg" xmlns:xlink="http://www.w3.org/1999/xlink" contentScriptType="application/ecmascript" contentStyleType="text/css" height="328px" preserveAspectRatio="none" style="width:223px;height:328px;background:#FFFFFF;" version="1.1" viewBox="0 0 223 328" width="223px" zoomAndPan="magnify"><defs><filter height="300%" id="fvox5d34k1f9" width="300%" x="-1" y="-1"><feGaussianBlur result="blurOut" stdDeviation="2.0"/><feColorMatrix in="blurOut" result="blurOut2" type="matrix" values="0 0 0 0 0 0 0 0 0 0 0 0 0 0 0 0 0 0 .4 0"/><feOffset dx="4.0" dy="4.0" in="blurOut2" result="blurOut3"/><feBlend in="SourceGraphic" in2="blurOut3" mode="normal"/></filter></defs><g><!--MD5=[90edbd7303723afe0a7c1ad75ffbeaa2]
class nz.ac.wgtn.swen225.lc.domain.tiles.Free--><a href="Free.html" target="_top" title="Free.html" xlink:actuate="onRequest" xlink:href="Free.html" xlink:show="new" xlink:title="Free.html" xlink:type="simple"><rect codeLine="5" fill="#FEFECE" filter="url(#fvox5d34k1f9)" height="139.2031" id="nz.ac.wgtn.swen225.lc.domain.tiles.Free" style="stroke:#A80036;stroke-width:1.5;" width="200" x="9" y="157"/><ellipse cx="24" cy="177.0938" fill="#ADD1B2" rx="11" ry="11" style="stroke:#A80036;stroke-width:1.0;"/><path d="M26.7656,172.9688 Q26.9219,172.75 27.1094,172.6406 Q27.2969,172.5313 27.5156,172.5313 Q27.8906,172.5313 28.125,172.7969 Q28.3594,173.0469 28.3594,173.6563 L28.3594,175.1094 Q28.3594,175.7188 28.125,175.9844 Q27.8906,176.25 27.5156,176.25 Q27.1719,176.25 26.9688,176.0469 Q26.7656,175.8594 26.6563,175.3438 Q26.6094,174.9844 26.4219,174.7969 Q26.0938,174.4219 25.4844,174.2031 Q24.875,173.9844 24.25,173.9844 Q23.4844,173.9844 22.8438,174.3125 Q22.2188,174.6406 21.7188,175.3906 Q21.2344,176.1406 21.2344,177.1719 L21.2344,178.2656 Q21.2344,179.5 22.125,180.3281 Q23.0156,181.1406 24.6094,181.1406 Q25.5469,181.1406 26.2031,180.8906 Q26.5938,180.7344 27.0156,180.2969 Q27.2813,180.0313 27.4219,179.9531 Q27.5781,179.875 27.7813,179.875 Q28.1094,179.875 28.3594,180.1406 Q28.625,180.3906 28.625,180.7344 Q28.625,181.0781 28.2813,181.4844 Q27.7813,182.0625 26.9844,182.3906 Q25.9063,182.8438 24.6094,182.8438 Q23.0938,182.8438 21.8906,182.2188 Q20.9063,181.7188 20.2188,180.6563 Q19.5313,179.5781 19.5313,178.2969 L19.5313,177.1406 Q19.5313,175.8125 20.1406,174.6719 Q20.7656,173.5156 21.8594,172.9063 Q22.9531,172.2813 24.1875,172.2813 Q24.9219,172.2813 25.5625,172.4531 Q26.2188,172.6094 26.7656,172.9688 Z " fill="#000000"/><text fill="#000000" font-family="sans-serif" font-size="14" lengthAdjust="spacing" textLength="30" x="107" y="176.5332">Free</text><text fill="#000000" font-family="sans-serif" font-size="10" lengthAdjust="spacing" textLength="168" x="38" y="189.9902">nz.ac.wgtn.swen225.lc.domain.tiles</text><line style="stroke:#A80036;stroke-width:1.5;" x1="10" x2="208" y1="197.1875" y2="197.1875"/><polygon fill="none" points="20,203.1875,24,207.1875,20,211.1875,16,207.1875" style="stroke:#B38D22;stroke-width:1.0;"/><text fill="#000000" font-family="sans-serif" font-size="11" lengthAdjust="spacing" textLength="23" x="29" y="212.6064">x: int</text><polygon fill="none" points="20,217.0234,24,221.0234,20,225.0234,16,221.0234" style="stroke:#B38D22;stroke-width:1.0;"/><text fill="#000000" font-family="sans-serif" font-size="11" lengthAdjust="spacing" textLength="23" x="29" y="226.4424">y: int</text><line style="stroke:#A80036;stroke-width:1.5;" x1="10" x2="208" y1="232.8594" y2="232.8594"/><ellipse cx="20" cy="243.8594" fill="#84BE84" rx="3" ry="3" style="stroke:#038048;stroke-width:1.0;"/><text fill="#000000" font-family="sans-serif" font-size="11" lengthAdjust="spacing" textLength="58" x="29" y="248.2783">Free(int, int)</text><ellipse cx="20" cy="257.6953" fill="#84BE84" rx="3" ry="3" style="stroke:#038048;stroke-width:1.0;"/><text fill="#000000" font-family="sans-serif" font-size="11" lengthAdjust="spacing" textLength="132" x="29" y="262.1143">traversable(Chap): boolean</text><ellipse cx="20" cy="271.5313" fill="#84BE84" rx="3" ry="3" style="stroke:#038048;stroke-width:1.0;"/><text fill="#000000" font-family="sans-serif" font-size="11" lengthAdjust="spacing" textLength="47" x="29" y="275.9502">getX(): int</text><ellipse cx="20" cy="285.3672" fill="#84BE84" rx="3" ry="3" style="stroke:#038048;stroke-width:1.0;"/><text fill="#000000" font-family="sans-serif" font-size="11" lengthAdjust="spacing" textLength="48" x="29" y="289.7861">getY(): int</text></a><!--MD5=[02a1b30ec222ca2553512277ee8b5041]
class nz.ac.wgtn.swen225.lc.domain.tiles.Tile--><a href="Tile.html" target="_top" title="Tile.html" xlink:actuate="onRequest" xlink:href="Tile.html" xlink:show="new" xlink:title="Tile.html" xlink:type="simple"><rect codeLine="14" fill="#FEFECE" filter="url(#fvox5d34k1f9)" height="89.6953" id="nz.ac.wgtn.swen225.lc.domain.tiles.Tile" style="stroke:#A80036;stroke-width:1.5;" width="200" x="9" y="7"/><ellipse cx="24" cy="27.0938" fill="#B4A7E5" rx="11" ry="11" style="stroke:#A80036;stroke-width:1.0;"/><path d="M24.9531,23.7344 L24.9531,30.3906 L26.6719,30.3906 Q27.2813,30.3906 27.5469,30.625 Q27.8125,30.8594 27.8125,31.25 Q27.8125,31.625 27.5469,31.8594 Q27.2813,32.0938 26.6719,32.0938 L21.5313,32.0938 Q20.9219,32.0938 20.6563,31.8594 Q20.3906,31.625 20.3906,31.2344 Q20.3906,30.8594 20.6563,30.625 Q20.9219,30.3906 21.5313,30.3906 L23.25,30.3906 L23.25,23.7344 L21.5313,23.7344 Q20.9219,23.7344 20.6563,23.5 Q20.3906,23.2656 20.3906,22.875 Q20.3906,22.5 20.6563,22.2656 Q20.9219,22.0313 21.5313,22.0313 L26.6719,22.0313 Q27.2813,22.0313 27.5469,22.2656 Q27.8125,22.5 27.8125,22.875 Q27.8125,23.2656 27.5469,23.5 Q27.2813,23.7344 26.6719,23.7344 L24.9531,23.7344 Z " fill="#000000"/><text fill="#000000" font-family="sans-serif" font-size="14" font-style="italic" lengthAdjust="spacing" textLength="23" x="110.5" y="26.5332">Tile</text><text fill="#000000" font-family="sans-serif" font-size="10" font-style="italic" lengthAdjust="spacing" textLength="168" x="38" y="39.9902">nz.ac.wgtn.swen225.lc.domain.tiles</text><line style="stroke:#A80036;stroke-width:1.5;" x1="10" x2="208" y1="47.1875" y2="47.1875"/><ellipse cx="20" cy="58.1875" fill="#84BE84" rx="3" ry="3" style="stroke:#038048;stroke-width:1.0;"/><text fill="#000000" font-family="sans-serif" font-size="11" font-style="italic" lengthAdjust="spacing" textLength="136" x="29" y="62.6064">traversable(Chap): boolean</text><ellipse cx="20" cy="72.0234" fill="#84BE84" rx="3" ry="3" style="stroke:#038048;stroke-width:1.0;"/><text fill="#000000" font-family="sans-serif" font-size="11" font-style="italic" lengthAdjust="spacing" textLength="48" x="29" y="76.4424">getX(): int</text><ellipse cx="20" cy="85.8594" fill="#84BE84" rx="3" ry="3" style="stroke:#038048;stroke-width:1.0;"/><text fill="#000000" font-family="sans-serif" font-size="11" font-style="italic" lengthAdjust="spacing" textLength="48" x="29" y="90.2783">getY(): int</text></a><!--MD5=[769e1b611c44fab65f0d11b9e4488642]
reverse link nz.ac.wgtn.swen225.lc.domain.tiles.Tile to nz.ac.wgtn.swen225.lc.domain.tiles.Free--><path codeLine="20" d="M109,117.48 C109,130.31 109,143.82 109,156.78 " fill="none" id="nz.ac.wgtn.swen225.lc.domain.tiles.Tile-backto-nz.ac.wgtn.swen225.lc.domain.tiles.Free" style="stroke:#A80036;stroke-width:1.0;stroke-dasharray:7.0,7.0;"/><polygon fill="none" points="102,117.42,109,97.42,116,117.42,102,117.42" style="stroke:#A80036;stroke-width:1.0;"/><text fill="#888888" font-family="sans-serif" font-size="10" lengthAdjust="spacing" textLength="184" x="13" y="319.584">UMLDoclet 2.0.14, PlantUML 1.2021.9</text><!--MD5=[3d5ebe5c1682f8692d8ef7cb1e3f3410]
@startuml
    set namespaceSeparator none
    hide empty fields
    hide empty methods

    class "<size:14>Free\n<size:10>nz.ac.wgtn.swen225.lc.domain.tiles" as nz.ac.wgtn.swen225.lc.domain.tiles.Free [[Free.html]] {
        #x: int
        #y: int
        +Free(int, int)
        +traversable(Chap): boolean
        +getX(): int
        +getY(): int
    }

    interface "<size:14>Tile\n<size:10>nz.ac.wgtn.swen225.lc.domain.tiles" as nz.ac.wgtn.swen225.lc.domain.tiles.Tile [[Tile.html]] {
        {abstract} +traversable(Chap): boolean
        {abstract} +getX(): int
        {abstract} +getY(): int
    }

    nz.ac.wgtn.swen225.lc.domain.tiles.Tile <|.. nz.ac.wgtn.swen225.lc.domain.tiles.Free

    center footer UMLDoclet 2.0.14, PlantUML 1.2021.9
@enduml

PlantUML version 1.2021.9(Sun Jul 25 17:13:56 ICT 2021)
(APACHE source distribution)
Java Runtime: OpenJDK Runtime Environment
JVM: OpenJDK 64-Bit Server VM
Default Encoding: Cp1252
Language: en
Country: NZ
--></g></svg>