<?xml version="1.0" encoding="UTF-8" standalone="no"?><svg xmlns="http://www.w3.org/2000/svg" xmlns:xlink="http://www.w3.org/1999/xlink" contentStyleType="text/css" height="753px" preserveAspectRatio="none" style="width:1660px;height:753px;background:#FFFFFF;" version="1.1" viewBox="0 0 1660 753" width="1660px" zoomAndPan="magnify"><defs/><g><!--cluster nz.ac.wgtn.swen225.lc.domain.tiles--><g id="cluster_nz.ac.wgtn.swen225.lc.domain.tiles"><path d="M8.5,130 L253.5,130 A3.75,3.75 0 0 1 256,132.5 L263,153.6094 L1650.5,153.6094 A2.5,2.5 0 0 1 1653,156.1094 L1653,724.5 A2.5,2.5 0 0 1 1650.5,727 L8.5,727 A2.5,2.5 0 0 1 6,724.5 L6,132.5 A2.5,2.5 0 0 1 8.5,130 " fill="none" style="stroke:#000000;stroke-width:1.5;"/><line style="stroke:#000000;stroke-width:1.5;" x1="6" x2="263" y1="153.6094" y2="153.6094"/><text fill="#000000" font-family="sans-serif" font-size="14" font-weight="bold" lengthAdjust="spacing" textLength="244" x="10" y="146.5332">nz.ac.wgtn.swen225.lc.domain.tiles</text></g><!--cluster java.lang--><g id="cluster_java.lang"><path d="M905.5,6 L969.5,6 A3.75,3.75 0 0 1 972,8.5 L979,29.6094 L1028.5,29.6094 A2.5,2.5 0 0 1 1031,32.1094 L1031,103.5 A2.5,2.5 0 0 1 1028.5,106 L905.5,106 A2.5,2.5 0 0 1 903,103.5 L903,8.5 A2.5,2.5 0 0 1 905.5,6 " fill="none" style="stroke:#000000;stroke-width:1.5;"/><line style="stroke:#000000;stroke-width:1.5;" x1="903" x2="979" y1="29.6094" y2="29.6094"/><text fill="#000000" font-family="sans-serif" font-size="14" font-weight="bold" lengthAdjust="spacing" textLength="63" x="907" y="22.5332">java.lang</text></g><!--class nz.ac.wgtn.swen225.lc.domain.tiles.Door--><a href="Door.html" target="_top" title="Door.html" xlink:actuate="onRequest" xlink:href="Door.html" xlink:show="new" xlink:title="Door.html" xlink:type="simple"><g id="elem_nz.ac.wgtn.swen225.lc.domain.tiles.Door"><rect codeLine="3" fill="#F1F1F1" height="136.0469" id="nz.ac.wgtn.swen225.lc.domain.tiles.Door" rx="2.5" ry="2.5" style="stroke:#181818;stroke-width:0.5;" width="240" x="1122" y="575"/><ellipse cx="1222.25" cy="591" fill="#ADD1B2" rx="11" ry="11" style="stroke:#181818;stroke-width:1.0;"/><path d="M1225.0156,586.875 Q1225.1719,586.6563 1225.3594,586.5469 Q1225.5469,586.4375 1225.7656,586.4375 Q1226.1406,586.4375 1226.375,586.7031 Q1226.6094,586.9531 1226.6094,587.5625 L1226.6094,589.0156 Q1226.6094,589.625 1226.375,589.8906 Q1226.1406,590.1563 1225.7656,590.1563 Q1225.4219,590.1563 1225.2188,589.9531 Q1225.0156,589.7656 1224.9063,589.25 Q1224.8594,588.8906 1224.6719,588.7031 Q1224.3438,588.3281 1223.7344,588.1094 Q1223.125,587.8906 1222.5,587.8906 Q1221.7344,587.8906 1221.0938,588.2188 Q1220.4688,588.5469 1219.9688,589.2969 Q1219.4844,590.0469 1219.4844,591.0781 L1219.4844,592.1719 Q1219.4844,593.4063 1220.375,594.2344 Q1221.2656,595.0469 1222.8594,595.0469 Q1223.7969,595.0469 1224.4531,594.7969 Q1224.8438,594.6406 1225.2656,594.2031 Q1225.5313,593.9375 1225.6719,593.8594 Q1225.8281,593.7813 1226.0313,593.7813 Q1226.3594,593.7813 1226.6094,594.0469 Q1226.875,594.2969 1226.875,594.6406 Q1226.875,594.9844 1226.5313,595.3906 Q1226.0313,595.9688 1225.2344,596.2969 Q1224.1563,596.75 1222.8594,596.75 Q1221.3438,596.75 1220.1406,596.125 Q1219.1563,595.625 1218.4688,594.5625 Q1217.7813,593.4844 1217.7813,592.2031 L1217.7813,591.0469 Q1217.7813,589.7188 1218.3906,588.5781 Q1219.0156,587.4219 1220.1094,586.8125 Q1221.2031,586.1875 1222.4375,586.1875 Q1223.1719,586.1875 1223.8125,586.3594 Q1224.4688,586.5156 1225.0156,586.875 Z " fill="#000000"/><text fill="#000000" font-family="sans-serif" font-size="14" lengthAdjust="spacing" textLength="31" x="1242.75" y="596.7285">Door</text><line style="stroke:#181818;stroke-width:0.5;" x1="1123" x2="1361" y1="607" y2="607"/><line style="stroke:#181818;stroke-width:0.5;" x1="1123" x2="1361" y1="615" y2="615"/><ellipse cx="1133" cy="629.3047" fill="#84BE84" rx="3" ry="3" style="stroke:#038048;stroke-width:1.0;"/><text fill="#000000" font-family="sans-serif" font-size="14" lengthAdjust="spacing" textLength="129" x="1142" y="633.5332">Door(Colour, int, int)</text><ellipse cx="1133" cy="646.9141" fill="#84BE84" rx="3" ry="3" style="stroke:#038048;stroke-width:1.0;"/><text fill="#000000" font-family="sans-serif" font-size="14" lengthAdjust="spacing" textLength="214" x="1142" y="651.1426">performTileAction(Chap): boolean</text><ellipse cx="1133" cy="664.5234" fill="#84BE84" rx="3" ry="3" style="stroke:#038048;stroke-width:1.0;"/><text fill="#000000" font-family="sans-serif" font-size="14" lengthAdjust="spacing" textLength="174" x="1142" y="668.752">traversable(Chap): boolean</text><ellipse cx="1133" cy="682.1328" fill="#84BE84" rx="3" ry="3" style="stroke:#038048;stroke-width:1.0;"/><text fill="#000000" font-family="sans-serif" font-size="14" lengthAdjust="spacing" textLength="161" x="1142" y="686.3613">canOpen(Chap): boolean</text><ellipse cx="1133" cy="699.7422" fill="#84BE84" rx="3" ry="3" style="stroke:#038048;stroke-width:1.0;"/><text fill="#000000" font-family="sans-serif" font-size="14" lengthAdjust="spacing" textLength="122" x="1142" y="703.9707">getColour(): Colour</text></g></a><!--class nz.ac.wgtn.swen225.lc.domain.tiles.Exit--><a href="Exit.html" target="_top" title="Exit.html" xlink:actuate="onRequest" xlink:href="Exit.html" xlink:show="new" xlink:title="Exit.html" xlink:type="simple"><g id="elem_nz.ac.wgtn.swen225.lc.domain.tiles.Exit"><rect codeLine="11" fill="#F1F1F1" height="83.2188" id="nz.ac.wgtn.swen225.lc.domain.tiles.Exit" rx="2.5" ry="2.5" style="stroke:#181818;stroke-width:0.5;" width="240" x="22" y="601.5"/><ellipse cx="126.75" cy="617.5" fill="#ADD1B2" rx="11" ry="11" style="stroke:#181818;stroke-width:1.0;"/><path d="M129.5156,613.375 Q129.6719,613.1563 129.8594,613.0469 Q130.0469,612.9375 130.2656,612.9375 Q130.6406,612.9375 130.875,613.2031 Q131.1094,613.4531 131.1094,614.0625 L131.1094,615.5156 Q131.1094,616.125 130.875,616.3906 Q130.6406,616.6563 130.2656,616.6563 Q129.9219,616.6563 129.7188,616.4531 Q129.5156,616.2656 129.4063,615.75 Q129.3594,615.3906 129.1719,615.2031 Q128.8438,614.8281 128.2344,614.6094 Q127.625,614.3906 127,614.3906 Q126.2344,614.3906 125.5938,614.7188 Q124.9688,615.0469 124.4688,615.7969 Q123.9844,616.5469 123.9844,617.5781 L123.9844,618.6719 Q123.9844,619.9063 124.875,620.7344 Q125.7656,621.5469 127.3594,621.5469 Q128.2969,621.5469 128.9531,621.2969 Q129.3438,621.1406 129.7656,620.7031 Q130.0313,620.4375 130.1719,620.3594 Q130.3281,620.2813 130.5313,620.2813 Q130.8594,620.2813 131.1094,620.5469 Q131.375,620.7969 131.375,621.1406 Q131.375,621.4844 131.0313,621.8906 Q130.5313,622.4688 129.7344,622.7969 Q128.6563,623.25 127.3594,623.25 Q125.8438,623.25 124.6406,622.625 Q123.6563,622.125 122.9688,621.0625 Q122.2813,619.9844 122.2813,618.7031 L122.2813,617.5469 Q122.2813,616.2188 122.8906,615.0781 Q123.5156,613.9219 124.6094,613.3125 Q125.7031,612.6875 126.9375,612.6875 Q127.6719,612.6875 128.3125,612.8594 Q128.9688,613.0156 129.5156,613.375 Z " fill="#000000"/><text fill="#000000" font-family="sans-serif" font-size="14" lengthAdjust="spacing" textLength="22" x="147.25" y="623.2285">Exit</text><line style="stroke:#181818;stroke-width:0.5;" x1="23" x2="261" y1="633.5" y2="633.5"/><line style="stroke:#181818;stroke-width:0.5;" x1="23" x2="261" y1="641.5" y2="641.5"/><ellipse cx="33" cy="655.8047" fill="#84BE84" rx="3" ry="3" style="stroke:#038048;stroke-width:1.0;"/><text fill="#000000" font-family="sans-serif" font-size="14" lengthAdjust="spacing" textLength="70" x="42" y="660.0332">Exit(int, int)</text><ellipse cx="33" cy="673.4141" fill="#84BE84" rx="3" ry="3" style="stroke:#038048;stroke-width:1.0;"/><text fill="#000000" font-family="sans-serif" font-size="14" lengthAdjust="spacing" textLength="214" x="42" y="677.6426">performTileAction(Chap): boolean</text></g></a><!--class nz.ac.wgtn.swen225.lc.domain.tiles.ExitLock--><a href="ExitLock.html" target="_top" title="ExitLock.html" xlink:actuate="onRequest" xlink:href="ExitLock.html" xlink:show="new" xlink:title="ExitLock.html" xlink:type="simple"><g id="elem_nz.ac.wgtn.swen225.lc.domain.tiles.ExitLock"><rect codeLine="16" fill="#F1F1F1" height="100.8281" id="nz.ac.wgtn.swen225.lc.domain.tiles.ExitLock" rx="2.5" ry="2.5" style="stroke:#181818;stroke-width:0.5;" width="240" x="1397" y="592.5"/><ellipse cx="1486.75" cy="608.5" fill="#ADD1B2" rx="11" ry="11" style="stroke:#181818;stroke-width:1.0;"/><path d="M1489.5156,604.375 Q1489.6719,604.1563 1489.8594,604.0469 Q1490.0469,603.9375 1490.2656,603.9375 Q1490.6406,603.9375 1490.875,604.2031 Q1491.1094,604.4531 1491.1094,605.0625 L1491.1094,606.5156 Q1491.1094,607.125 1490.875,607.3906 Q1490.6406,607.6563 1490.2656,607.6563 Q1489.9219,607.6563 1489.7188,607.4531 Q1489.5156,607.2656 1489.4063,606.75 Q1489.3594,606.3906 1489.1719,606.2031 Q1488.8438,605.8281 1488.2344,605.6094 Q1487.625,605.3906 1487,605.3906 Q1486.2344,605.3906 1485.5938,605.7188 Q1484.9688,606.0469 1484.4688,606.7969 Q1483.9844,607.5469 1483.9844,608.5781 L1483.9844,609.6719 Q1483.9844,610.9063 1484.875,611.7344 Q1485.7656,612.5469 1487.3594,612.5469 Q1488.2969,612.5469 1488.9531,612.2969 Q1489.3438,612.1406 1489.7656,611.7031 Q1490.0313,611.4375 1490.1719,611.3594 Q1490.3281,611.2813 1490.5313,611.2813 Q1490.8594,611.2813 1491.1094,611.5469 Q1491.375,611.7969 1491.375,612.1406 Q1491.375,612.4844 1491.0313,612.8906 Q1490.5313,613.4688 1489.7344,613.7969 Q1488.6563,614.25 1487.3594,614.25 Q1485.8438,614.25 1484.6406,613.625 Q1483.6563,613.125 1482.9688,612.0625 Q1482.2813,610.9844 1482.2813,609.7031 L1482.2813,608.5469 Q1482.2813,607.2188 1482.8906,606.0781 Q1483.5156,604.9219 1484.6094,604.3125 Q1485.7031,603.6875 1486.9375,603.6875 Q1487.6719,603.6875 1488.3125,603.8594 Q1488.9688,604.0156 1489.5156,604.375 Z " fill="#000000"/><text fill="#000000" font-family="sans-serif" font-size="14" lengthAdjust="spacing" textLength="52" x="1507.25" y="614.2285">ExitLock</text><line style="stroke:#181818;stroke-width:0.5;" x1="1398" x2="1636" y1="624.5" y2="624.5"/><line style="stroke:#181818;stroke-width:0.5;" x1="1398" x2="1636" y1="632.5" y2="632.5"/><ellipse cx="1408" cy="646.8047" fill="#84BE84" rx="3" ry="3" style="stroke:#038048;stroke-width:1.0;"/><text fill="#000000" font-family="sans-serif" font-size="14" lengthAdjust="spacing" textLength="100" x="1417" y="651.0332">ExitLock(int, int)</text><ellipse cx="1408" cy="664.4141" fill="#84BE84" rx="3" ry="3" style="stroke:#038048;stroke-width:1.0;"/><text fill="#000000" font-family="sans-serif" font-size="14" lengthAdjust="spacing" textLength="174" x="1417" y="668.6426">traversable(Chap): boolean</text><ellipse cx="1408" cy="682.0234" fill="#84BE84" rx="3" ry="3" style="stroke:#038048;stroke-width:1.0;"/><text fill="#000000" font-family="sans-serif" font-size="14" lengthAdjust="spacing" textLength="214" x="1417" y="686.252">performTileAction(Chap): boolean</text></g></a><!--class nz.ac.wgtn.swen225.lc.domain.tiles.Free--><a href="Free.html" target="_top" title="Free.html" xlink:actuate="onRequest" xlink:href="Free.html" xlink:show="new" xlink:title="Free.html" xlink:type="simple"><g id="elem_nz.ac.wgtn.swen225.lc.domain.tiles.Free"><rect codeLine="22" fill="#F1F1F1" height="153.6563" id="nz.ac.wgtn.swen225.lc.domain.tiles.Free" rx="2.5" ry="2.5" style="stroke:#181818;stroke-width:0.5;" width="200" x="592" y="352.5"/><ellipse cx="672.75" cy="368.5" fill="#ADD1B2" rx="11" ry="11" style="stroke:#181818;stroke-width:1.0;"/><path d="M675.5156,364.375 Q675.6719,364.1563 675.8594,364.0469 Q676.0469,363.9375 676.2656,363.9375 Q676.6406,363.9375 676.875,364.2031 Q677.1094,364.4531 677.1094,365.0625 L677.1094,366.5156 Q677.1094,367.125 676.875,367.3906 Q676.6406,367.6563 676.2656,367.6563 Q675.9219,367.6563 675.7188,367.4531 Q675.5156,367.2656 675.4063,366.75 Q675.3594,366.3906 675.1719,366.2031 Q674.8438,365.8281 674.2344,365.6094 Q673.625,365.3906 673,365.3906 Q672.2344,365.3906 671.5938,365.7188 Q670.9688,366.0469 670.4688,366.7969 Q669.9844,367.5469 669.9844,368.5781 L669.9844,369.6719 Q669.9844,370.9063 670.875,371.7344 Q671.7656,372.5469 673.3594,372.5469 Q674.2969,372.5469 674.9531,372.2969 Q675.3438,372.1406 675.7656,371.7031 Q676.0313,371.4375 676.1719,371.3594 Q676.3281,371.2813 676.5313,371.2813 Q676.8594,371.2813 677.1094,371.5469 Q677.375,371.7969 677.375,372.1406 Q677.375,372.4844 677.0313,372.8906 Q676.5313,373.4688 675.7344,373.7969 Q674.6563,374.25 673.3594,374.25 Q671.8438,374.25 670.6406,373.625 Q669.6563,373.125 668.9688,372.0625 Q668.2813,370.9844 668.2813,369.7031 L668.2813,368.5469 Q668.2813,367.2188 668.8906,366.0781 Q669.5156,364.9219 670.6094,364.3125 Q671.7031,363.6875 672.9375,363.6875 Q673.6719,363.6875 674.3125,363.8594 Q674.9688,364.0156 675.5156,364.375 Z " fill="#000000"/><text fill="#000000" font-family="sans-serif" font-size="14" lengthAdjust="spacing" textLength="30" x="693.25" y="374.2285">Free</text><line style="stroke:#181818;stroke-width:0.5;" x1="593" x2="791" y1="384.5" y2="384.5"/><polygon fill="none" points="603,393.8047,607,397.8047,603,401.8047,599,397.8047" style="stroke:#B38D22;stroke-width:1.0;"/><text fill="#000000" font-family="sans-serif" font-size="14" lengthAdjust="spacing" textLength="29" x="612" y="403.0332">x: int</text><polygon fill="none" points="603,411.4141,607,415.4141,603,419.4141,599,415.4141" style="stroke:#B38D22;stroke-width:1.0;"/><text fill="#000000" font-family="sans-serif" font-size="14" lengthAdjust="spacing" textLength="30" x="612" y="420.6426">y: int</text><line style="stroke:#181818;stroke-width:0.5;" x1="593" x2="791" y1="427.7188" y2="427.7188"/><ellipse cx="603" cy="442.0234" fill="#84BE84" rx="3" ry="3" style="stroke:#038048;stroke-width:1.0;"/><text fill="#000000" font-family="sans-serif" font-size="14" lengthAdjust="spacing" textLength="78" x="612" y="446.252">Free(int, int)</text><ellipse cx="603" cy="459.6328" fill="#84BE84" rx="3" ry="3" style="stroke:#038048;stroke-width:1.0;"/><text fill="#000000" font-family="sans-serif" font-size="14" lengthAdjust="spacing" textLength="174" x="612" y="463.8613">traversable(Chap): boolean</text><ellipse cx="603" cy="477.2422" fill="#84BE84" rx="3" ry="3" style="stroke:#038048;stroke-width:1.0;"/><text fill="#000000" font-family="sans-serif" font-size="14" lengthAdjust="spacing" textLength="61" x="612" y="481.4707">getX(): int</text><ellipse cx="603" cy="494.8516" fill="#84BE84" rx="3" ry="3" style="stroke:#038048;stroke-width:1.0;"/><text fill="#000000" font-family="sans-serif" font-size="14" lengthAdjust="spacing" textLength="62" x="612" y="499.0801">getY(): int</text></g></a><!--class nz.ac.wgtn.swen225.lc.domain.tiles.InfoField--><a href="InfoField.html" target="_top" title="InfoField.html" xlink:actuate="onRequest" xlink:href="InfoField.html" xlink:show="new" xlink:title="InfoField.html" xlink:type="simple"><g id="elem_nz.ac.wgtn.swen225.lc.domain.tiles.InfoField"><rect codeLine="31" fill="#F1F1F1" height="83.2188" id="nz.ac.wgtn.swen225.lc.domain.tiles.InfoField" rx="2.5" ry="2.5" style="stroke:#181818;stroke-width:0.5;" width="240" x="297" y="601.5"/><ellipse cx="385.75" cy="617.5" fill="#ADD1B2" rx="11" ry="11" style="stroke:#181818;stroke-width:1.0;"/><path d="M388.5156,613.375 Q388.6719,613.1563 388.8594,613.0469 Q389.0469,612.9375 389.2656,612.9375 Q389.6406,612.9375 389.875,613.2031 Q390.1094,613.4531 390.1094,614.0625 L390.1094,615.5156 Q390.1094,616.125 389.875,616.3906 Q389.6406,616.6563 389.2656,616.6563 Q388.9219,616.6563 388.7188,616.4531 Q388.5156,616.2656 388.4063,615.75 Q388.3594,615.3906 388.1719,615.2031 Q387.8438,614.8281 387.2344,614.6094 Q386.625,614.3906 386,614.3906 Q385.2344,614.3906 384.5938,614.7188 Q383.9688,615.0469 383.4688,615.7969 Q382.9844,616.5469 382.9844,617.5781 L382.9844,618.6719 Q382.9844,619.9063 383.875,620.7344 Q384.7656,621.5469 386.3594,621.5469 Q387.2969,621.5469 387.9531,621.2969 Q388.3438,621.1406 388.7656,620.7031 Q389.0313,620.4375 389.1719,620.3594 Q389.3281,620.2813 389.5313,620.2813 Q389.8594,620.2813 390.1094,620.5469 Q390.375,620.7969 390.375,621.1406 Q390.375,621.4844 390.0313,621.8906 Q389.5313,622.4688 388.7344,622.7969 Q387.6563,623.25 386.3594,623.25 Q384.8438,623.25 383.6406,622.625 Q382.6563,622.125 381.9688,621.0625 Q381.2813,619.9844 381.2813,618.7031 L381.2813,617.5469 Q381.2813,616.2188 381.8906,615.0781 Q382.5156,613.9219 383.6094,613.3125 Q384.7031,612.6875 385.9375,612.6875 Q386.6719,612.6875 387.3125,612.8594 Q387.9688,613.0156 388.5156,613.375 Z " fill="#000000"/><text fill="#000000" font-family="sans-serif" font-size="14" lengthAdjust="spacing" textLength="54" x="406.25" y="623.2285">InfoField</text><line style="stroke:#181818;stroke-width:0.5;" x1="298" x2="536" y1="633.5" y2="633.5"/><line style="stroke:#181818;stroke-width:0.5;" x1="298" x2="536" y1="641.5" y2="641.5"/><ellipse cx="308" cy="655.8047" fill="#84BE84" rx="3" ry="3" style="stroke:#038048;stroke-width:1.0;"/><text fill="#000000" font-family="sans-serif" font-size="14" lengthAdjust="spacing" textLength="102" x="317" y="660.0332">InfoField(int, int)</text><ellipse cx="308" cy="673.4141" fill="#84BE84" rx="3" ry="3" style="stroke:#038048;stroke-width:1.0;"/><text fill="#000000" font-family="sans-serif" font-size="14" lengthAdjust="spacing" textLength="214" x="317" y="677.6426">performTileAction(Chap): boolean</text></g></a><!--class nz.ac.wgtn.swen225.lc.domain.tiles.KeyTile--><a href="KeyTile.html" target="_top" title="KeyTile.html" xlink:actuate="onRequest" xlink:href="KeyTile.html" xlink:show="new" xlink:title="KeyTile.html" xlink:type="simple"><g id="elem_nz.ac.wgtn.swen225.lc.domain.tiles.KeyTile"><rect codeLine="36" fill="#F1F1F1" height="100.8281" id="nz.ac.wgtn.swen225.lc.domain.tiles.KeyTile" rx="2.5" ry="2.5" style="stroke:#181818;stroke-width:0.5;" width="240" x="572" y="592.5"/><ellipse cx="664.25" cy="608.5" fill="#ADD1B2" rx="11" ry="11" style="stroke:#181818;stroke-width:1.0;"/><path d="M667.0156,604.375 Q667.1719,604.1563 667.3594,604.0469 Q667.5469,603.9375 667.7656,603.9375 Q668.1406,603.9375 668.375,604.2031 Q668.6094,604.4531 668.6094,605.0625 L668.6094,606.5156 Q668.6094,607.125 668.375,607.3906 Q668.1406,607.6563 667.7656,607.6563 Q667.4219,607.6563 667.2188,607.4531 Q667.0156,607.2656 666.9063,606.75 Q666.8594,606.3906 666.6719,606.2031 Q666.3438,605.8281 665.7344,605.6094 Q665.125,605.3906 664.5,605.3906 Q663.7344,605.3906 663.0938,605.7188 Q662.4688,606.0469 661.9688,606.7969 Q661.4844,607.5469 661.4844,608.5781 L661.4844,609.6719 Q661.4844,610.9063 662.375,611.7344 Q663.2656,612.5469 664.8594,612.5469 Q665.7969,612.5469 666.4531,612.2969 Q666.8438,612.1406 667.2656,611.7031 Q667.5313,611.4375 667.6719,611.3594 Q667.8281,611.2813 668.0313,611.2813 Q668.3594,611.2813 668.6094,611.5469 Q668.875,611.7969 668.875,612.1406 Q668.875,612.4844 668.5313,612.8906 Q668.0313,613.4688 667.2344,613.7969 Q666.1563,614.25 664.8594,614.25 Q663.3438,614.25 662.1406,613.625 Q661.1563,613.125 660.4688,612.0625 Q659.7813,610.9844 659.7813,609.7031 L659.7813,608.5469 Q659.7813,607.2188 660.3906,606.0781 Q661.0156,604.9219 662.1094,604.3125 Q663.2031,603.6875 664.4375,603.6875 Q665.1719,603.6875 665.8125,603.8594 Q666.4688,604.0156 667.0156,604.375 Z " fill="#000000"/><text fill="#000000" font-family="sans-serif" font-size="14" lengthAdjust="spacing" textLength="47" x="684.75" y="614.2285">KeyTile</text><line style="stroke:#181818;stroke-width:0.5;" x1="573" x2="811" y1="624.5" y2="624.5"/><line style="stroke:#181818;stroke-width:0.5;" x1="573" x2="811" y1="632.5" y2="632.5"/><ellipse cx="583" cy="646.8047" fill="#84BE84" rx="3" ry="3" style="stroke:#038048;stroke-width:1.0;"/><text fill="#000000" font-family="sans-serif" font-size="14" lengthAdjust="spacing" textLength="145" x="592" y="651.0332">KeyTile(Colour, int, int)</text><ellipse cx="583" cy="664.4141" fill="#84BE84" rx="3" ry="3" style="stroke:#038048;stroke-width:1.0;"/><text fill="#000000" font-family="sans-serif" font-size="14" lengthAdjust="spacing" textLength="214" x="592" y="668.6426">performTileAction(Chap): boolean</text><ellipse cx="583" cy="682.0234" fill="#84BE84" rx="3" ry="3" style="stroke:#038048;stroke-width:1.0;"/><text fill="#000000" font-family="sans-serif" font-size="14" lengthAdjust="spacing" textLength="122" x="592" y="686.252">getColour(): Colour</text></g></a><!--class nz.ac.wgtn.swen225.lc.domain.tiles.Tile--><a href="Tile.html" target="_top" title="Tile.html" xlink:actuate="onRequest" xlink:href="Tile.html" xlink:show="new" xlink:title="Tile.html" xlink:type="simple"><g id="elem_nz.ac.wgtn.swen225.lc.domain.tiles.Tile"><rect codeLine="42" fill="#F1F1F1" height="118.4375" id="nz.ac.wgtn.swen225.lc.domain.tiles.Tile" rx="2.5" ry="2.5" style="stroke:#181818;stroke-width:0.5;" width="240" x="847" y="166"/><ellipse cx="951.25" cy="182" fill="#B4A7E5" rx="11" ry="11" style="stroke:#181818;stroke-width:1.0;"/><path d="M952.2031,178.6406 L952.2031,185.2969 L953.9219,185.2969 Q954.5313,185.2969 954.7969,185.5313 Q955.0625,185.7656 955.0625,186.1563 Q955.0625,186.5313 954.7969,186.7656 Q954.5313,187 953.9219,187 L948.7813,187 Q948.1719,187 947.9063,186.7656 Q947.6406,186.5313 947.6406,186.1406 Q947.6406,185.7656 947.9063,185.5313 Q948.1719,185.2969 948.7813,185.2969 L950.5,185.2969 L950.5,178.6406 L948.7813,178.6406 Q948.1719,178.6406 947.9063,178.4063 Q947.6406,178.1719 947.6406,177.7813 Q947.6406,177.4063 947.9063,177.1719 Q948.1719,176.9375 948.7813,176.9375 L953.9219,176.9375 Q954.5313,176.9375 954.7969,177.1719 Q955.0625,177.4063 955.0625,177.7813 Q955.0625,178.1719 954.7969,178.4063 Q954.5313,178.6406 953.9219,178.6406 L952.2031,178.6406 Z " fill="#000000"/><text fill="#000000" font-family="sans-serif" font-size="14" font-style="italic" lengthAdjust="spacing" textLength="23" x="971.75" y="187.7285">Tile</text><line style="stroke:#181818;stroke-width:0.5;" x1="848" x2="1086" y1="198" y2="198"/><line style="stroke:#181818;stroke-width:0.5;" x1="848" x2="1086" y1="206" y2="206"/><ellipse cx="858" cy="220.3047" fill="#84BE84" rx="3" ry="3" style="stroke:#038048;stroke-width:1.0;"/><text fill="#000000" font-family="sans-serif" font-size="14" font-style="italic" lengthAdjust="spacing" textLength="173" x="867" y="224.5332">traversable(Chap): boolean</text><ellipse cx="858" cy="237.9141" fill="#84BE84" rx="3" ry="3" style="stroke:#038048;stroke-width:1.0;"/><text fill="#000000" font-family="sans-serif" font-size="14" lengthAdjust="spacing" textLength="214" x="867" y="242.1426">performTileAction(Chap): boolean</text><ellipse cx="858" cy="255.5234" fill="#84BE84" rx="3" ry="3" style="stroke:#038048;stroke-width:1.0;"/><text fill="#000000" font-family="sans-serif" font-size="14" font-style="italic" lengthAdjust="spacing" textLength="62" x="867" y="259.752">getX(): int</text><ellipse cx="858" cy="273.1328" fill="#84BE84" rx="3" ry="3" style="stroke:#038048;stroke-width:1.0;"/><text fill="#000000" font-family="sans-serif" font-size="14" font-style="italic" lengthAdjust="spacing" textLength="62" x="867" y="277.3613">getY(): int</text></g></a><!--class nz.ac.wgtn.swen225.lc.domain.tiles.Treasure--><a href="Treasure.html" target="_top" title="Treasure.html" xlink:actuate="onRequest" xlink:href="Treasure.html" xlink:show="new" xlink:title="Treasure.html" xlink:type="simple"><g id="elem_nz.ac.wgtn.swen225.lc.domain.tiles.Treasure"><rect codeLine="49" fill="#F1F1F1" height="83.2188" id="nz.ac.wgtn.swen225.lc.domain.tiles.Treasure" rx="2.5" ry="2.5" style="stroke:#181818;stroke-width:0.5;" width="240" x="847" y="601.5"/><ellipse cx="933.75" cy="617.5" fill="#ADD1B2" rx="11" ry="11" style="stroke:#181818;stroke-width:1.0;"/><path d="M936.5156,613.375 Q936.6719,613.1563 936.8594,613.0469 Q937.0469,612.9375 937.2656,612.9375 Q937.6406,612.9375 937.875,613.2031 Q938.1094,613.4531 938.1094,614.0625 L938.1094,615.5156 Q938.1094,616.125 937.875,616.3906 Q937.6406,616.6563 937.2656,616.6563 Q936.9219,616.6563 936.7188,616.4531 Q936.5156,616.2656 936.4063,615.75 Q936.3594,615.3906 936.1719,615.2031 Q935.8438,614.8281 935.2344,614.6094 Q934.625,614.3906 934,614.3906 Q933.2344,614.3906 932.5938,614.7188 Q931.9688,615.0469 931.4688,615.7969 Q930.9844,616.5469 930.9844,617.5781 L930.9844,618.6719 Q930.9844,619.9063 931.875,620.7344 Q932.7656,621.5469 934.3594,621.5469 Q935.2969,621.5469 935.9531,621.2969 Q936.3438,621.1406 936.7656,620.7031 Q937.0313,620.4375 937.1719,620.3594 Q937.3281,620.2813 937.5313,620.2813 Q937.8594,620.2813 938.1094,620.5469 Q938.375,620.7969 938.375,621.1406 Q938.375,621.4844 938.0313,621.8906 Q937.5313,622.4688 936.7344,622.7969 Q935.6563,623.25 934.3594,623.25 Q932.8438,623.25 931.6406,622.625 Q930.6563,622.125 929.9688,621.0625 Q929.2813,619.9844 929.2813,618.7031 L929.2813,617.5469 Q929.2813,616.2188 929.8906,615.0781 Q930.5156,613.9219 931.6094,613.3125 Q932.7031,612.6875 933.9375,612.6875 Q934.6719,612.6875 935.3125,612.8594 Q935.9688,613.0156 936.5156,613.375 Z " fill="#000000"/><text fill="#000000" font-family="sans-serif" font-size="14" lengthAdjust="spacing" textLength="58" x="954.25" y="623.2285">Treasure</text><line style="stroke:#181818;stroke-width:0.5;" x1="848" x2="1086" y1="633.5" y2="633.5"/><line style="stroke:#181818;stroke-width:0.5;" x1="848" x2="1086" y1="641.5" y2="641.5"/><ellipse cx="858" cy="655.8047" fill="#84BE84" rx="3" ry="3" style="stroke:#038048;stroke-width:1.0;"/><text fill="#000000" font-family="sans-serif" font-size="14" lengthAdjust="spacing" textLength="106" x="867" y="660.0332">Treasure(int, int)</text><ellipse cx="858" cy="673.4141" fill="#84BE84" rx="3" ry="3" style="stroke:#038048;stroke-width:1.0;"/><text fill="#000000" font-family="sans-serif" font-size="14" lengthAdjust="spacing" textLength="214" x="867" y="677.6426">performTileAction(Chap): boolean</text></g></a><!--class nz.ac.wgtn.swen225.lc.domain.tiles.Wall--><a href="Wall.html" target="_top" title="Wall.html" xlink:actuate="onRequest" xlink:href="Wall.html" xlink:show="new" xlink:title="Wall.html" xlink:type="simple"><g id="elem_nz.ac.wgtn.swen225.lc.domain.tiles.Wall"><rect codeLine="54" fill="#F1F1F1" height="171.2656" id="nz.ac.wgtn.swen225.lc.domain.tiles.Wall" rx="2.5" ry="2.5" style="stroke:#181818;stroke-width:0.5;" width="240" x="1122" y="344"/><ellipse cx="1224.25" cy="360" fill="#ADD1B2" rx="11" ry="11" style="stroke:#181818;stroke-width:1.0;"/><path d="M1227.0156,355.875 Q1227.1719,355.6563 1227.3594,355.5469 Q1227.5469,355.4375 1227.7656,355.4375 Q1228.1406,355.4375 1228.375,355.7031 Q1228.6094,355.9531 1228.6094,356.5625 L1228.6094,358.0156 Q1228.6094,358.625 1228.375,358.8906 Q1228.1406,359.1563 1227.7656,359.1563 Q1227.4219,359.1563 1227.2188,358.9531 Q1227.0156,358.7656 1226.9063,358.25 Q1226.8594,357.8906 1226.6719,357.7031 Q1226.3438,357.3281 1225.7344,357.1094 Q1225.125,356.8906 1224.5,356.8906 Q1223.7344,356.8906 1223.0938,357.2188 Q1222.4688,357.5469 1221.9688,358.2969 Q1221.4844,359.0469 1221.4844,360.0781 L1221.4844,361.1719 Q1221.4844,362.4063 1222.375,363.2344 Q1223.2656,364.0469 1224.8594,364.0469 Q1225.7969,364.0469 1226.4531,363.7969 Q1226.8438,363.6406 1227.2656,363.2031 Q1227.5313,362.9375 1227.6719,362.8594 Q1227.8281,362.7813 1228.0313,362.7813 Q1228.3594,362.7813 1228.6094,363.0469 Q1228.875,363.2969 1228.875,363.6406 Q1228.875,363.9844 1228.5313,364.3906 Q1228.0313,364.9688 1227.2344,365.2969 Q1226.1563,365.75 1224.8594,365.75 Q1223.3438,365.75 1222.1406,365.125 Q1221.1563,364.625 1220.4688,363.5625 Q1219.7813,362.4844 1219.7813,361.2031 L1219.7813,360.0469 Q1219.7813,358.7188 1220.3906,357.5781 Q1221.0156,356.4219 1222.1094,355.8125 Q1223.2031,355.1875 1224.4375,355.1875 Q1225.1719,355.1875 1225.8125,355.3594 Q1226.4688,355.5156 1227.0156,355.875 Z " fill="#000000"/><text fill="#000000" font-family="sans-serif" font-size="14" lengthAdjust="spacing" textLength="27" x="1244.75" y="365.7285">Wall</text><line style="stroke:#181818;stroke-width:0.5;" x1="1123" x2="1361" y1="376" y2="376"/><polygon fill="none" points="1133,385.3047,1137,389.3047,1133,393.3047,1129,389.3047" style="stroke:#B38D22;stroke-width:1.0;"/><text fill="#000000" font-family="sans-serif" font-size="14" lengthAdjust="spacing" textLength="29" x="1142" y="394.5332">x: int</text><polygon fill="none" points="1133,402.9141,1137,406.9141,1133,410.9141,1129,406.9141" style="stroke:#B38D22;stroke-width:1.0;"/><text fill="#000000" font-family="sans-serif" font-size="14" lengthAdjust="spacing" textLength="30" x="1142" y="412.1426">y: int</text><line style="stroke:#181818;stroke-width:0.5;" x1="1123" x2="1361" y1="419.2188" y2="419.2188"/><ellipse cx="1133" cy="433.5234" fill="#84BE84" rx="3" ry="3" style="stroke:#038048;stroke-width:1.0;"/><text fill="#000000" font-family="sans-serif" font-size="14" lengthAdjust="spacing" textLength="75" x="1142" y="437.752">Wall(int, int)</text><ellipse cx="1133" cy="451.1328" fill="#84BE84" rx="3" ry="3" style="stroke:#038048;stroke-width:1.0;"/><text fill="#000000" font-family="sans-serif" font-size="14" lengthAdjust="spacing" textLength="174" x="1142" y="455.3613">traversable(Chap): boolean</text><ellipse cx="1133" cy="468.7422" fill="#84BE84" rx="3" ry="3" style="stroke:#038048;stroke-width:1.0;"/><text fill="#000000" font-family="sans-serif" font-size="14" lengthAdjust="spacing" textLength="214" x="1142" y="472.9707">performTileAction(Chap): boolean</text><ellipse cx="1133" cy="486.3516" fill="#84BE84" rx="3" ry="3" style="stroke:#038048;stroke-width:1.0;"/><text fill="#000000" font-family="sans-serif" font-size="14" lengthAdjust="spacing" textLength="61" x="1142" y="490.5801">getX(): int</text><ellipse cx="1133" cy="503.9609" fill="#84BE84" rx="3" ry="3" style="stroke:#038048;stroke-width:1.0;"/><text fill="#000000" font-family="sans-serif" font-size="14" lengthAdjust="spacing" textLength="62" x="1142" y="508.1895">getY(): int</text></g></a><!--class java.lang.Cloneable--><g id="elem_java.lang.Cloneable"><rect codeLine="76" fill="#F1F1F1" height="48" id="java.lang.Cloneable" rx="2.5" ry="2.5" style="stroke:#181818;stroke-width:0.5;" width="96" x="919" y="42"/><ellipse cx="934" cy="58" fill="#B4A7E5" rx="11" ry="11" style="stroke:#181818;stroke-width:1.0;"/><path d="M934.9531,54.6406 L934.9531,61.2969 L936.6719,61.2969 Q937.2813,61.2969 937.5469,61.5313 Q937.8125,61.7656 937.8125,62.1563 Q937.8125,62.5313 937.5469,62.7656 Q937.2813,63 936.6719,63 L931.5313,63 Q930.9219,63 930.6563,62.7656 Q930.3906,62.5313 930.3906,62.1406 Q930.3906,61.7656 930.6563,61.5313 Q930.9219,61.2969 931.5313,61.2969 L933.25,61.2969 L933.25,54.6406 L931.5313,54.6406 Q930.9219,54.6406 930.6563,54.4063 Q930.3906,54.1719 930.3906,53.7813 Q930.3906,53.4063 930.6563,53.1719 Q930.9219,52.9375 931.5313,52.9375 L936.6719,52.9375 Q937.2813,52.9375 937.5469,53.1719 Q937.8125,53.4063 937.8125,53.7813 Q937.8125,54.1719 937.5469,54.4063 Q937.2813,54.6406 936.6719,54.6406 L934.9531,54.6406 Z " fill="#000000"/><text fill="#000000" font-family="sans-serif" font-size="14" font-style="italic" lengthAdjust="spacing" textLength="64" x="948" y="63.7285">Cloneable</text><line style="stroke:#181818;stroke-width:0.5;" x1="920" x2="1014" y1="74" y2="74"/><line style="stroke:#181818;stroke-width:0.5;" x1="920" x2="1014" y1="82" y2="82"/></g><!--reverse link nz.ac.wgtn.swen225.lc.domain.tiles.Wall to nz.ac.wgtn.swen225.lc.domain.tiles.Door--><g id="link_nz.ac.wgtn.swen225.lc.domain.tiles.Wall_nz.ac.wgtn.swen225.lc.domain.tiles.Door"><path codeLine="64" d="M1242,535.3 C1242,548.77 1242,562.25 1242,574.88 " fill="none" id="nz.ac.wgtn.swen225.lc.domain.tiles.Wall-backto-nz.ac.wgtn.swen225.lc.domain.tiles.Door" style="stroke:#181818;stroke-width:1.0;"/><polygon fill="none" points="1235,535,1242,515,1249,535,1235,535" style="stroke:#181818;stroke-width:1.0;"/></g><!--reverse link nz.ac.wgtn.swen225.lc.domain.tiles.Free to nz.ac.wgtn.swen225.lc.domain.tiles.Exit--><g id="link_nz.ac.wgtn.swen225.lc.domain.tiles.Free_nz.ac.wgtn.swen225.lc.domain.tiles.Exit"><path codeLine="65" d="M572.63,468.34 C489.64,495.62 376.95,534.62 280,575 C260.82,582.99 240.52,592.33 221.56,601.45 " fill="none" id="nz.ac.wgtn.swen225.lc.domain.tiles.Free-backto-nz.ac.wgtn.swen225.lc.domain.tiles.Exit" style="stroke:#181818;stroke-width:1.0;"/><polygon fill="none" points="570.54,461.66,591.73,462.1,574.89,474.96,570.54,461.66" style="stroke:#181818;stroke-width:1.0;"/></g><!--reverse link nz.ac.wgtn.swen225.lc.domain.tiles.Wall to nz.ac.wgtn.swen225.lc.domain.tiles.ExitLock--><g id="link_nz.ac.wgtn.swen225.lc.domain.tiles.Wall_nz.ac.wgtn.swen225.lc.domain.tiles.ExitLock"><path codeLine="66" d="M1368,527.41 C1397.22,549.88 1427.14,572.89 1452.43,592.34 " fill="none" id="nz.ac.wgtn.swen225.lc.domain.tiles.Wall-backto-nz.ac.wgtn.swen225.lc.domain.tiles.ExitLock" style="stroke:#181818;stroke-width:1.0;"/><polygon fill="none" points="1363.46,532.74,1351.87,515,1371.99,521.65,1363.46,532.74" style="stroke:#181818;stroke-width:1.0;"/></g><!--reverse link nz.ac.wgtn.swen225.lc.domain.tiles.Tile to nz.ac.wgtn.swen225.lc.domain.tiles.Free--><g id="link_nz.ac.wgtn.swen225.lc.domain.tiles.Tile_nz.ac.wgtn.swen225.lc.domain.tiles.Free"><path codeLine="67" d="M872.04,295.93 C846.24,314.92 818.24,335.54 792.17,354.74 " fill="none" id="nz.ac.wgtn.swen225.lc.domain.tiles.Tile-backto-nz.ac.wgtn.swen225.lc.domain.tiles.Free" style="stroke:#181818;stroke-width:1.0;stroke-dasharray:7.0,7.0;"/><polygon fill="none" points="867.94,290.25,888.2,284.03,876.24,301.52,867.94,290.25" style="stroke:#181818;stroke-width:1.0;"/></g><!--reverse link nz.ac.wgtn.swen225.lc.domain.tiles.Free to nz.ac.wgtn.swen225.lc.domain.tiles.InfoField--><g id="link_nz.ac.wgtn.swen225.lc.domain.tiles.Free_nz.ac.wgtn.swen225.lc.domain.tiles.InfoField"><path codeLine="68" d="M576.81,519.09 C539.69,547.64 500.34,577.91 469.97,601.26 " fill="none" id="nz.ac.wgtn.swen225.lc.domain.tiles.Free-backto-nz.ac.wgtn.swen225.lc.domain.tiles.InfoField" style="stroke:#181818;stroke-width:1.0;"/><polygon fill="none" points="572.99,513.2,593.11,506.56,581.52,524.3,572.99,513.2" style="stroke:#181818;stroke-width:1.0;"/></g><!--reverse link nz.ac.wgtn.swen225.lc.domain.tiles.Free to nz.ac.wgtn.swen225.lc.domain.tiles.KeyTile--><g id="link_nz.ac.wgtn.swen225.lc.domain.tiles.Free_nz.ac.wgtn.swen225.lc.domain.tiles.KeyTile"><path codeLine="69" d="M692,526.68 C692,549.38 692,572.67 692,592.32 " fill="none" id="nz.ac.wgtn.swen225.lc.domain.tiles.Free-backto-nz.ac.wgtn.swen225.lc.domain.tiles.KeyTile" style="stroke:#181818;stroke-width:1.0;"/><polygon fill="none" points="685,526.56,692,506.56,699,526.56,685,526.56" style="stroke:#181818;stroke-width:1.0;"/></g><!--reverse link java.lang.Cloneable to nz.ac.wgtn.swen225.lc.domain.tiles.Tile--><g id="link_java.lang.Cloneable_nz.ac.wgtn.swen225.lc.domain.tiles.Tile"><path codeLine="70" d="M967,110.36 C967,127.49 967,147.44 967,165.79 " fill="none" id="java.lang.Cloneable-backto-nz.ac.wgtn.swen225.lc.domain.tiles.Tile" style="stroke:#181818;stroke-width:1.0;"/><polygon fill="none" points="960,110.17,967,90.17,974,110.17,960,110.17" style="stroke:#181818;stroke-width:1.0;"/></g><!--reverse link nz.ac.wgtn.swen225.lc.domain.tiles.Free to nz.ac.wgtn.swen225.lc.domain.tiles.Treasure--><g id="link_nz.ac.wgtn.swen225.lc.domain.tiles.Free_nz.ac.wgtn.swen225.lc.domain.tiles.Treasure"><path codeLine="71" d="M807.19,519.09 C844.31,547.64 883.66,577.91 914.03,601.26 " fill="none" id="nz.ac.wgtn.swen225.lc.domain.tiles.Free-backto-nz.ac.wgtn.swen225.lc.domain.tiles.Treasure" style="stroke:#181818;stroke-width:1.0;"/><polygon fill="none" points="802.48,524.3,790.89,506.56,811.01,513.2,802.48,524.3" style="stroke:#181818;stroke-width:1.0;"/></g><!--reverse link nz.ac.wgtn.swen225.lc.domain.tiles.Tile to nz.ac.wgtn.swen225.lc.domain.tiles.Wall--><g id="link_nz.ac.wgtn.swen225.lc.domain.tiles.Tile_nz.ac.wgtn.swen225.lc.domain.tiles.Wall"><path codeLine="72" d="M1062.22,296.11 C1083.12,311.51 1105.47,327.97 1127.06,343.86 " fill="none" id="nz.ac.wgtn.swen225.lc.domain.tiles.Tile-backto-nz.ac.wgtn.swen225.lc.domain.tiles.Wall" style="stroke:#181818;stroke-width:1.0;stroke-dasharray:7.0,7.0;"/><polygon fill="none" points="1057.76,301.52,1045.8,284.03,1066.06,290.25,1057.76,301.52" style="stroke:#181818;stroke-width:1.0;"/></g><text fill="#888888" font-family="sans-serif" font-size="10" lengthAdjust="spacing" textLength="184" x="731" y="743.3809">UMLDoclet 2.1.0, PlantUML 1.2022.14</text><!--SRC=[lLLDJm8n4BtpAveO4mZGA8aNmiM094QC7Z1g28TI1bWjBUcMBu7_RcTPoWAxI5nq3plDlEdCcyvCImWXaWt17p4EH7vHnkcqRoJrfo1BfHigEEsg8VCaDPu0domo6H9-N33V9pMbD6crKD216OfsszgGo9T7A5jLGerrWNZI1B_Shiq8T4_fOTF6kEN6Kp9R7R1HhamwIWbWSjVQQ3O1xREEWADsdCcd4HptrGUpvfQr5kkLCrZj9tityunD5aL2iWXbqoOP6xUX-6SO6vT7uYESnE7Ke_izrxe6i3nHn7Eyc9MHsAvkVgZBeukqUTZolc5b3vnRu7qVECZbNlPKtGFHjGcvTSB9E_pyvN-0EUwo9C9L0eKGFU-mdJWWDenrYxT8I3MPvu9rV5i_RbP_q8_x0P8QOC_cvrveQc3-M0UfXSk4CcpWypV2AnF2naUHShRGnR_T4QacCSYviYmMWwV6gODh9b3ZbHTZlRa97HJqPML9QR0tnf6Ru1Wi72s7VB09euB9FgqA9G7FQcsuOxNTl-c963P8EHD9UliUko2HAc_dp0MERkQ0EEafXUBbiL5JN80X9NfDhmhasNepLaikiS9Oijmt]--></g></svg>