<?xml version="1.0" encoding="UTF-8" standalone="no"?><svg xmlns="http://www.w3.org/2000/svg" xmlns:xlink="http://www.w3.org/1999/xlink" contentScriptType="application/ecmascript" contentStyleType="text/css" height="691px" preserveAspectRatio="none" style="width:1368px;height:691px;background:#FFFFFF;" version="1.1" viewBox="0 0 1368 691" width="1368px" zoomAndPan="magnify"><defs><filter height="300%" id="f113ujm46cynce" width="300%" x="-1" y="-1"><feGaussianBlur result="blurOut" stdDeviation="2.0"/><feColorMatrix in="blurOut" result="blurOut2" type="matrix" values="0 0 0 0 0 0 0 0 0 0 0 0 0 0 0 0 0 0 .4 0"/><feOffset dx="4.0" dy="4.0" in="blurOut2" result="blurOut3"/><feBlend in="SourceGraphic" in2="blurOut3" mode="normal"/></filter></defs><g><!--MD5=[10809eba07f71533df2cabafc6025fd9]
cluster nz.ac.wgtn.swen225.lc.domain.tiles--><polygon fill="#FFFFFF" filter="url(#f113ujm46cynce)" points="16,130,266,130,273,153.6094,1351,153.6094,1351,667,16,667,16,130" style="stroke:#000000;stroke-width:1.5;"/><line style="stroke:#000000;stroke-width:1.5;" x1="16" x2="273" y1="153.6094" y2="153.6094"/><text fill="#000000" font-family="sans-serif" font-size="14" font-weight="bold" lengthAdjust="spacing" textLength="244" x="20" y="146.5332">nz.ac.wgtn.swen225.lc.domain.tiles</text><!--MD5=[aa8f7b917213fcc1c2766e2d59b49067]
cluster java.lang--><polygon fill="#FFFFFF" filter="url(#f113ujm46cynce)" points="734,6,803,6,810,29.6094,856,29.6094,856,106,734,106,734,6" style="stroke:#000000;stroke-width:1.5;"/><line style="stroke:#000000;stroke-width:1.5;" x1="734" x2="810" y1="29.6094" y2="29.6094"/><text fill="#000000" font-family="sans-serif" font-size="14" font-weight="bold" lengthAdjust="spacing" textLength="63" x="738" y="22.5332">java.lang</text><!--MD5=[04ff5b72acfeea70ec285556dea99b8c]
class nz.ac.wgtn.swen225.lc.domain.tiles.Door--><a href="Door.html" target="_top" title="Door.html" xlink:actuate="onRequest" xlink:href="Door.html" xlink:show="new" xlink:title="Door.html" xlink:type="simple"><rect codeLine="3" fill="#FEFECE" filter="url(#f113ujm46cynce)" height="117.1797" id="nz.ac.wgtn.swen225.lc.domain.tiles.Door" style="stroke:#A80036;stroke-width:1.5;" width="188" x="924" y="534"/><ellipse cx="1000.25" cy="550" fill="#ADD1B2" rx="11" ry="11" style="stroke:#A80036;stroke-width:1.0;"/><path d="M1003.0156,545.875 Q1003.1719,545.6563 1003.3594,545.5469 Q1003.5469,545.4375 1003.7656,545.4375 Q1004.1406,545.4375 1004.375,545.7031 Q1004.6094,545.9531 1004.6094,546.5625 L1004.6094,548.0156 Q1004.6094,548.625 1004.375,548.8906 Q1004.1406,549.1563 1003.7656,549.1563 Q1003.4219,549.1563 1003.2188,548.9531 Q1003.0156,548.7656 1002.9063,548.25 Q1002.8594,547.8906 1002.6719,547.7031 Q1002.3438,547.3281 1001.7344,547.1094 Q1001.125,546.8906 1000.5,546.8906 Q999.7344,546.8906 999.0938,547.2188 Q998.4688,547.5469 997.9688,548.2969 Q997.4844,549.0469 997.4844,550.0781 L997.4844,551.1719 Q997.4844,552.4063 998.375,553.2344 Q999.2656,554.0469 1000.8594,554.0469 Q1001.7969,554.0469 1002.4531,553.7969 Q1002.8438,553.6406 1003.2656,553.2031 Q1003.5313,552.9375 1003.6719,552.8594 Q1003.8281,552.7813 1004.0313,552.7813 Q1004.3594,552.7813 1004.6094,553.0469 Q1004.875,553.2969 1004.875,553.6406 Q1004.875,553.9844 1004.5313,554.3906 Q1004.0313,554.9688 1003.2344,555.2969 Q1002.1563,555.75 1000.8594,555.75 Q999.3438,555.75 998.1406,555.125 Q997.1563,554.625 996.4688,553.5625 Q995.7813,552.4844 995.7813,551.2031 L995.7813,550.0469 Q995.7813,548.7188 996.3906,547.5781 Q997.0156,546.4219 998.1094,545.8125 Q999.2031,545.1875 1000.4375,545.1875 Q1001.1719,545.1875 1001.8125,545.3594 Q1002.4688,545.5156 1003.0156,545.875 Z " fill="#000000"/><text fill="#000000" font-family="sans-serif" font-size="12" lengthAdjust="spacing" textLength="27" x="1020.75" y="554.9102">Door</text><line style="stroke:#A80036;stroke-width:1.5;" x1="925" x2="1111" y1="566" y2="566"/><line style="stroke:#A80036;stroke-width:1.5;" x1="925" x2="1111" y1="574" y2="574"/><ellipse cx="935" cy="585" fill="#84BE84" rx="3" ry="3" style="stroke:#038048;stroke-width:1.0;"/><text fill="#000000" font-family="sans-serif" font-size="11" lengthAdjust="spacing" textLength="96" x="944" y="589.4189">Door(Colour, int, int)</text><ellipse cx="935" cy="598.8359" fill="#84BE84" rx="3" ry="3" style="stroke:#038048;stroke-width:1.0;"/><text fill="#000000" font-family="sans-serif" font-size="11" lengthAdjust="spacing" textLength="162" x="944" y="603.2549">performTileAction(Chap): boolean</text><ellipse cx="935" cy="612.6719" fill="#84BE84" rx="3" ry="3" style="stroke:#038048;stroke-width:1.0;"/><text fill="#000000" font-family="sans-serif" font-size="11" lengthAdjust="spacing" textLength="132" x="944" y="617.0908">traversable(Chap): boolean</text><ellipse cx="935" cy="626.5078" fill="#84BE84" rx="3" ry="3" style="stroke:#038048;stroke-width:1.0;"/><text fill="#000000" font-family="sans-serif" font-size="11" lengthAdjust="spacing" textLength="121" x="944" y="630.9268">canOpen(Chap): boolean</text><ellipse cx="935" cy="640.3438" fill="#84BE84" rx="3" ry="3" style="stroke:#038048;stroke-width:1.0;"/><text fill="#000000" font-family="sans-serif" font-size="11" lengthAdjust="spacing" textLength="91" x="944" y="644.7627">getColour(): Colour</text></a><!--MD5=[e79bf915573ff42137971ec49bae3ec9]
class nz.ac.wgtn.swen225.lc.domain.tiles.Exit--><a href="Exit.html" target="_top" title="Exit.html" xlink:actuate="onRequest" xlink:href="Exit.html" xlink:show="new" xlink:title="Exit.html" xlink:type="simple"><rect codeLine="11" fill="#FEFECE" filter="url(#f113ujm46cynce)" height="75.6719" id="nz.ac.wgtn.swen225.lc.domain.tiles.Exit" style="stroke:#A80036;stroke-width:1.5;" width="188" x="32" y="554.5"/><ellipse cx="112.25" cy="570.5" fill="#ADD1B2" rx="11" ry="11" style="stroke:#A80036;stroke-width:1.0;"/><path d="M115.0156,566.375 Q115.1719,566.1563 115.3594,566.0469 Q115.5469,565.9375 115.7656,565.9375 Q116.1406,565.9375 116.375,566.2031 Q116.6094,566.4531 116.6094,567.0625 L116.6094,568.5156 Q116.6094,569.125 116.375,569.3906 Q116.1406,569.6563 115.7656,569.6563 Q115.4219,569.6563 115.2188,569.4531 Q115.0156,569.2656 114.9063,568.75 Q114.8594,568.3906 114.6719,568.2031 Q114.3438,567.8281 113.7344,567.6094 Q113.125,567.3906 112.5,567.3906 Q111.7344,567.3906 111.0938,567.7188 Q110.4688,568.0469 109.9688,568.7969 Q109.4844,569.5469 109.4844,570.5781 L109.4844,571.6719 Q109.4844,572.9063 110.375,573.7344 Q111.2656,574.5469 112.8594,574.5469 Q113.7969,574.5469 114.4531,574.2969 Q114.8438,574.1406 115.2656,573.7031 Q115.5313,573.4375 115.6719,573.3594 Q115.8281,573.2813 116.0313,573.2813 Q116.3594,573.2813 116.6094,573.5469 Q116.875,573.7969 116.875,574.1406 Q116.875,574.4844 116.5313,574.8906 Q116.0313,575.4688 115.2344,575.7969 Q114.1563,576.25 112.8594,576.25 Q111.3438,576.25 110.1406,575.625 Q109.1563,575.125 108.4688,574.0625 Q107.7813,572.9844 107.7813,571.7031 L107.7813,570.5469 Q107.7813,569.2188 108.3906,568.0781 Q109.0156,566.9219 110.1094,566.3125 Q111.2031,565.6875 112.4375,565.6875 Q113.1719,565.6875 113.8125,565.8594 Q114.4688,566.0156 115.0156,566.375 Z " fill="#000000"/><text fill="#000000" font-family="sans-serif" font-size="12" lengthAdjust="spacing" textLength="19" x="132.75" y="575.4102">Exit</text><line style="stroke:#A80036;stroke-width:1.5;" x1="33" x2="219" y1="586.5" y2="586.5"/><line style="stroke:#A80036;stroke-width:1.5;" x1="33" x2="219" y1="594.5" y2="594.5"/><ellipse cx="43" cy="605.5" fill="#84BE84" rx="3" ry="3" style="stroke:#038048;stroke-width:1.0;"/><text fill="#000000" font-family="sans-serif" font-size="11" lengthAdjust="spacing" textLength="53" x="52" y="609.9189">Exit(int, int)</text><ellipse cx="43" cy="619.3359" fill="#84BE84" rx="3" ry="3" style="stroke:#038048;stroke-width:1.0;"/><text fill="#000000" font-family="sans-serif" font-size="11" lengthAdjust="spacing" textLength="162" x="52" y="623.7549">performTileAction(Chap): boolean</text></a><!--MD5=[2e38699f68342d85deba2d1906cdb63f]
class nz.ac.wgtn.swen225.lc.domain.tiles.ExitLock--><a href="ExitLock.html" target="_top" title="ExitLock.html" xlink:actuate="onRequest" xlink:href="ExitLock.html" xlink:show="new" xlink:title="ExitLock.html" xlink:type="simple"><rect codeLine="16" fill="#FEFECE" filter="url(#f113ujm46cynce)" height="89.5078" id="nz.ac.wgtn.swen225.lc.domain.tiles.ExitLock" style="stroke:#A80036;stroke-width:1.5;" width="188" x="1147" y="547.5"/><ellipse cx="1214.25" cy="563.5" fill="#ADD1B2" rx="11" ry="11" style="stroke:#A80036;stroke-width:1.0;"/><path d="M1217.0156,559.375 Q1217.1719,559.1563 1217.3594,559.0469 Q1217.5469,558.9375 1217.7656,558.9375 Q1218.1406,558.9375 1218.375,559.2031 Q1218.6094,559.4531 1218.6094,560.0625 L1218.6094,561.5156 Q1218.6094,562.125 1218.375,562.3906 Q1218.1406,562.6563 1217.7656,562.6563 Q1217.4219,562.6563 1217.2188,562.4531 Q1217.0156,562.2656 1216.9063,561.75 Q1216.8594,561.3906 1216.6719,561.2031 Q1216.3438,560.8281 1215.7344,560.6094 Q1215.125,560.3906 1214.5,560.3906 Q1213.7344,560.3906 1213.0938,560.7188 Q1212.4688,561.0469 1211.9688,561.7969 Q1211.4844,562.5469 1211.4844,563.5781 L1211.4844,564.6719 Q1211.4844,565.9063 1212.375,566.7344 Q1213.2656,567.5469 1214.8594,567.5469 Q1215.7969,567.5469 1216.4531,567.2969 Q1216.8438,567.1406 1217.2656,566.7031 Q1217.5313,566.4375 1217.6719,566.3594 Q1217.8281,566.2813 1218.0313,566.2813 Q1218.3594,566.2813 1218.6094,566.5469 Q1218.875,566.7969 1218.875,567.1406 Q1218.875,567.4844 1218.5313,567.8906 Q1218.0313,568.4688 1217.2344,568.7969 Q1216.1563,569.25 1214.8594,569.25 Q1213.3438,569.25 1212.1406,568.625 Q1211.1563,568.125 1210.4688,567.0625 Q1209.7813,565.9844 1209.7813,564.7031 L1209.7813,563.5469 Q1209.7813,562.2188 1210.3906,561.0781 Q1211.0156,559.9219 1212.1094,559.3125 Q1213.2031,558.6875 1214.4375,558.6875 Q1215.1719,558.6875 1215.8125,558.8594 Q1216.4688,559.0156 1217.0156,559.375 Z " fill="#000000"/><text fill="#000000" font-family="sans-serif" font-size="12" lengthAdjust="spacing" textLength="45" x="1234.75" y="568.4102">ExitLock</text><line style="stroke:#A80036;stroke-width:1.5;" x1="1148" x2="1334" y1="579.5" y2="579.5"/><line style="stroke:#A80036;stroke-width:1.5;" x1="1148" x2="1334" y1="587.5" y2="587.5"/><ellipse cx="1158" cy="598.5" fill="#84BE84" rx="3" ry="3" style="stroke:#038048;stroke-width:1.0;"/><text fill="#000000" font-family="sans-serif" font-size="11" lengthAdjust="spacing" textLength="76" x="1167" y="602.9189">ExitLock(int, int)</text><ellipse cx="1158" cy="612.3359" fill="#84BE84" rx="3" ry="3" style="stroke:#038048;stroke-width:1.0;"/><text fill="#000000" font-family="sans-serif" font-size="11" lengthAdjust="spacing" textLength="132" x="1167" y="616.7549">traversable(Chap): boolean</text><ellipse cx="1158" cy="626.1719" fill="#84BE84" rx="3" ry="3" style="stroke:#038048;stroke-width:1.0;"/><text fill="#000000" font-family="sans-serif" font-size="11" lengthAdjust="spacing" textLength="162" x="1167" y="630.5908">performTileAction(Chap): boolean</text></a><!--MD5=[90edbd7303723afe0a7c1ad75ffbeaa2]
class nz.ac.wgtn.swen225.lc.domain.tiles.Free--><a href="Free.html" target="_top" title="Free.html" xlink:actuate="onRequest" xlink:href="Free.html" xlink:show="new" xlink:title="Free.html" xlink:type="simple"><rect codeLine="22" fill="#FEFECE" filter="url(#f113ujm46cynce)" height="131.0156" id="nz.ac.wgtn.swen225.lc.domain.tiles.Free" style="stroke:#A80036;stroke-width:1.5;" width="158" x="493" y="336"/><ellipse cx="555.25" cy="352" fill="#ADD1B2" rx="11" ry="11" style="stroke:#A80036;stroke-width:1.0;"/><path d="M558.0156,347.875 Q558.1719,347.6563 558.3594,347.5469 Q558.5469,347.4375 558.7656,347.4375 Q559.1406,347.4375 559.375,347.7031 Q559.6094,347.9531 559.6094,348.5625 L559.6094,350.0156 Q559.6094,350.625 559.375,350.8906 Q559.1406,351.1563 558.7656,351.1563 Q558.4219,351.1563 558.2188,350.9531 Q558.0156,350.7656 557.9063,350.25 Q557.8594,349.8906 557.6719,349.7031 Q557.3438,349.3281 556.7344,349.1094 Q556.125,348.8906 555.5,348.8906 Q554.7344,348.8906 554.0938,349.2188 Q553.4688,349.5469 552.9688,350.2969 Q552.4844,351.0469 552.4844,352.0781 L552.4844,353.1719 Q552.4844,354.4063 553.375,355.2344 Q554.2656,356.0469 555.8594,356.0469 Q556.7969,356.0469 557.4531,355.7969 Q557.8438,355.6406 558.2656,355.2031 Q558.5313,354.9375 558.6719,354.8594 Q558.8281,354.7813 559.0313,354.7813 Q559.3594,354.7813 559.6094,355.0469 Q559.875,355.2969 559.875,355.6406 Q559.875,355.9844 559.5313,356.3906 Q559.0313,356.9688 558.2344,357.2969 Q557.1563,357.75 555.8594,357.75 Q554.3438,357.75 553.1406,357.125 Q552.1563,356.625 551.4688,355.5625 Q550.7813,354.4844 550.7813,353.2031 L550.7813,352.0469 Q550.7813,350.7188 551.3906,349.5781 Q552.0156,348.4219 553.1094,347.8125 Q554.2031,347.1875 555.4375,347.1875 Q556.1719,347.1875 556.8125,347.3594 Q557.4688,347.5156 558.0156,347.875 Z " fill="#000000"/><text fill="#000000" font-family="sans-serif" font-size="12" lengthAdjust="spacing" textLength="25" x="575.75" y="356.9102">Free</text><line style="stroke:#A80036;stroke-width:1.5;" x1="494" x2="650" y1="368" y2="368"/><polygon fill="none" points="504,374,508,378,504,382,500,378" style="stroke:#B38D22;stroke-width:1.0;"/><text fill="#000000" font-family="sans-serif" font-size="11" lengthAdjust="spacing" textLength="23" x="513" y="383.4189">x: int</text><polygon fill="none" points="504,387.8359,508,391.8359,504,395.8359,500,391.8359" style="stroke:#B38D22;stroke-width:1.0;"/><text fill="#000000" font-family="sans-serif" font-size="11" lengthAdjust="spacing" textLength="23" x="513" y="397.2549">y: int</text><line style="stroke:#A80036;stroke-width:1.5;" x1="494" x2="650" y1="403.6719" y2="403.6719"/><ellipse cx="504" cy="414.6719" fill="#84BE84" rx="3" ry="3" style="stroke:#038048;stroke-width:1.0;"/><text fill="#000000" font-family="sans-serif" font-size="11" lengthAdjust="spacing" textLength="58" x="513" y="419.0908">Free(int, int)</text><ellipse cx="504" cy="428.5078" fill="#84BE84" rx="3" ry="3" style="stroke:#038048;stroke-width:1.0;"/><text fill="#000000" font-family="sans-serif" font-size="11" lengthAdjust="spacing" textLength="132" x="513" y="432.9268">traversable(Chap): boolean</text><ellipse cx="504" cy="442.3438" fill="#84BE84" rx="3" ry="3" style="stroke:#038048;stroke-width:1.0;"/><text fill="#000000" font-family="sans-serif" font-size="11" lengthAdjust="spacing" textLength="47" x="513" y="446.7627">getX(): int</text><ellipse cx="504" cy="456.1797" fill="#84BE84" rx="3" ry="3" style="stroke:#038048;stroke-width:1.0;"/><text fill="#000000" font-family="sans-serif" font-size="11" lengthAdjust="spacing" textLength="48" x="513" y="460.5986">getY(): int</text></a><!--MD5=[3c5490de55625c8f341aa3a7a997a68f]
class nz.ac.wgtn.swen225.lc.domain.tiles.InfoField--><a href="InfoField.html" target="_top" title="InfoField.html" xlink:actuate="onRequest" xlink:href="InfoField.html" xlink:show="new" xlink:title="InfoField.html" xlink:type="simple"><rect codeLine="31" fill="#FEFECE" filter="url(#f113ujm46cynce)" height="75.6719" id="nz.ac.wgtn.swen225.lc.domain.tiles.InfoField" style="stroke:#A80036;stroke-width:1.5;" width="188" x="255" y="554.5"/><ellipse cx="321.25" cy="570.5" fill="#ADD1B2" rx="11" ry="11" style="stroke:#A80036;stroke-width:1.0;"/><path d="M324.0156,566.375 Q324.1719,566.1563 324.3594,566.0469 Q324.5469,565.9375 324.7656,565.9375 Q325.1406,565.9375 325.375,566.2031 Q325.6094,566.4531 325.6094,567.0625 L325.6094,568.5156 Q325.6094,569.125 325.375,569.3906 Q325.1406,569.6563 324.7656,569.6563 Q324.4219,569.6563 324.2188,569.4531 Q324.0156,569.2656 323.9063,568.75 Q323.8594,568.3906 323.6719,568.2031 Q323.3438,567.8281 322.7344,567.6094 Q322.125,567.3906 321.5,567.3906 Q320.7344,567.3906 320.0938,567.7188 Q319.4688,568.0469 318.9688,568.7969 Q318.4844,569.5469 318.4844,570.5781 L318.4844,571.6719 Q318.4844,572.9063 319.375,573.7344 Q320.2656,574.5469 321.8594,574.5469 Q322.7969,574.5469 323.4531,574.2969 Q323.8438,574.1406 324.2656,573.7031 Q324.5313,573.4375 324.6719,573.3594 Q324.8281,573.2813 325.0313,573.2813 Q325.3594,573.2813 325.6094,573.5469 Q325.875,573.7969 325.875,574.1406 Q325.875,574.4844 325.5313,574.8906 Q325.0313,575.4688 324.2344,575.7969 Q323.1563,576.25 321.8594,576.25 Q320.3438,576.25 319.1406,575.625 Q318.1563,575.125 317.4688,574.0625 Q316.7813,572.9844 316.7813,571.7031 L316.7813,570.5469 Q316.7813,569.2188 317.3906,568.0781 Q318.0156,566.9219 319.1094,566.3125 Q320.2031,565.6875 321.4375,565.6875 Q322.1719,565.6875 322.8125,565.8594 Q323.4688,566.0156 324.0156,566.375 Z " fill="#000000"/><text fill="#000000" font-family="sans-serif" font-size="12" lengthAdjust="spacing" textLength="47" x="341.75" y="575.4102">InfoField</text><line style="stroke:#A80036;stroke-width:1.5;" x1="256" x2="442" y1="586.5" y2="586.5"/><line style="stroke:#A80036;stroke-width:1.5;" x1="256" x2="442" y1="594.5" y2="594.5"/><ellipse cx="266" cy="605.5" fill="#84BE84" rx="3" ry="3" style="stroke:#038048;stroke-width:1.0;"/><text fill="#000000" font-family="sans-serif" font-size="11" lengthAdjust="spacing" textLength="76" x="275" y="609.9189">InfoField(int, int)</text><ellipse cx="266" cy="619.3359" fill="#84BE84" rx="3" ry="3" style="stroke:#038048;stroke-width:1.0;"/><text fill="#000000" font-family="sans-serif" font-size="11" lengthAdjust="spacing" textLength="162" x="275" y="623.7549">performTileAction(Chap): boolean</text></a><!--MD5=[58a8456146c1ff6ca3fdba12a5d4f8cd]
class nz.ac.wgtn.swen225.lc.domain.tiles.KeyTile--><a href="KeyTile.html" target="_top" title="KeyTile.html" xlink:actuate="onRequest" xlink:href="KeyTile.html" xlink:show="new" xlink:title="KeyTile.html" xlink:type="simple"><rect codeLine="36" fill="#FEFECE" filter="url(#f113ujm46cynce)" height="89.5078" id="nz.ac.wgtn.swen225.lc.domain.tiles.KeyTile" style="stroke:#A80036;stroke-width:1.5;" width="188" x="478" y="547.5"/><ellipse cx="547.75" cy="563.5" fill="#ADD1B2" rx="11" ry="11" style="stroke:#A80036;stroke-width:1.0;"/><path d="M550.5156,559.375 Q550.6719,559.1563 550.8594,559.0469 Q551.0469,558.9375 551.2656,558.9375 Q551.6406,558.9375 551.875,559.2031 Q552.1094,559.4531 552.1094,560.0625 L552.1094,561.5156 Q552.1094,562.125 551.875,562.3906 Q551.6406,562.6563 551.2656,562.6563 Q550.9219,562.6563 550.7188,562.4531 Q550.5156,562.2656 550.4063,561.75 Q550.3594,561.3906 550.1719,561.2031 Q549.8438,560.8281 549.2344,560.6094 Q548.625,560.3906 548,560.3906 Q547.2344,560.3906 546.5938,560.7188 Q545.9688,561.0469 545.4688,561.7969 Q544.9844,562.5469 544.9844,563.5781 L544.9844,564.6719 Q544.9844,565.9063 545.875,566.7344 Q546.7656,567.5469 548.3594,567.5469 Q549.2969,567.5469 549.9531,567.2969 Q550.3438,567.1406 550.7656,566.7031 Q551.0313,566.4375 551.1719,566.3594 Q551.3281,566.2813 551.5313,566.2813 Q551.8594,566.2813 552.1094,566.5469 Q552.375,566.7969 552.375,567.1406 Q552.375,567.4844 552.0313,567.8906 Q551.5313,568.4688 550.7344,568.7969 Q549.6563,569.25 548.3594,569.25 Q546.8438,569.25 545.6406,568.625 Q544.6563,568.125 543.9688,567.0625 Q543.2813,565.9844 543.2813,564.7031 L543.2813,563.5469 Q543.2813,562.2188 543.8906,561.0781 Q544.5156,559.9219 545.6094,559.3125 Q546.7031,558.6875 547.9375,558.6875 Q548.6719,558.6875 549.3125,558.8594 Q549.9688,559.0156 550.5156,559.375 Z " fill="#000000"/><text fill="#000000" font-family="sans-serif" font-size="12" lengthAdjust="spacing" textLength="40" x="568.25" y="568.4102">KeyTile</text><line style="stroke:#A80036;stroke-width:1.5;" x1="479" x2="665" y1="579.5" y2="579.5"/><line style="stroke:#A80036;stroke-width:1.5;" x1="479" x2="665" y1="587.5" y2="587.5"/><ellipse cx="489" cy="598.5" fill="#84BE84" rx="3" ry="3" style="stroke:#038048;stroke-width:1.0;"/><text fill="#000000" font-family="sans-serif" font-size="11" lengthAdjust="spacing" textLength="108" x="498" y="602.9189">KeyTile(Colour, int, int)</text><ellipse cx="489" cy="612.3359" fill="#84BE84" rx="3" ry="3" style="stroke:#038048;stroke-width:1.0;"/><text fill="#000000" font-family="sans-serif" font-size="11" lengthAdjust="spacing" textLength="162" x="498" y="616.7549">performTileAction(Chap): boolean</text><ellipse cx="489" cy="626.1719" fill="#84BE84" rx="3" ry="3" style="stroke:#038048;stroke-width:1.0;"/><text fill="#000000" font-family="sans-serif" font-size="11" lengthAdjust="spacing" textLength="91" x="498" y="630.5908">getColour(): Colour</text></a><!--MD5=[02a1b30ec222ca2553512277ee8b5041]
class nz.ac.wgtn.swen225.lc.domain.tiles.Tile--><a href="Tile.html" target="_top" title="Tile.html" xlink:actuate="onRequest" xlink:href="Tile.html" xlink:show="new" xlink:title="Tile.html" xlink:type="simple"><rect codeLine="42" fill="#FEFECE" filter="url(#f113ujm46cynce)" height="103.3438" id="nz.ac.wgtn.swen225.lc.domain.tiles.Tile" style="stroke:#A80036;stroke-width:1.5;" width="188" x="701" y="166"/><ellipse cx="780.75" cy="182" fill="#B4A7E5" rx="11" ry="11" style="stroke:#A80036;stroke-width:1.0;"/><path d="M781.7031,178.6406 L781.7031,185.2969 L783.4219,185.2969 Q784.0313,185.2969 784.2969,185.5313 Q784.5625,185.7656 784.5625,186.1563 Q784.5625,186.5313 784.2969,186.7656 Q784.0313,187 783.4219,187 L778.2813,187 Q777.6719,187 777.4063,186.7656 Q777.1406,186.5313 777.1406,186.1406 Q777.1406,185.7656 777.4063,185.5313 Q777.6719,185.2969 778.2813,185.2969 L780,185.2969 L780,178.6406 L778.2813,178.6406 Q777.6719,178.6406 777.4063,178.4063 Q777.1406,178.1719 777.1406,177.7813 Q777.1406,177.4063 777.4063,177.1719 Q777.6719,176.9375 778.2813,176.9375 L783.4219,176.9375 Q784.0313,176.9375 784.2969,177.1719 Q784.5625,177.4063 784.5625,177.7813 Q784.5625,178.1719 784.2969,178.4063 Q784.0313,178.6406 783.4219,178.6406 L781.7031,178.6406 Z " fill="#000000"/><text fill="#000000" font-family="sans-serif" font-size="12" font-style="italic" lengthAdjust="spacing" textLength="20" x="801.25" y="186.9102">Tile</text><line style="stroke:#A80036;stroke-width:1.5;" x1="702" x2="888" y1="198" y2="198"/><line style="stroke:#A80036;stroke-width:1.5;" x1="702" x2="888" y1="206" y2="206"/><ellipse cx="712" cy="217" fill="#84BE84" rx="3" ry="3" style="stroke:#038048;stroke-width:1.0;"/><text fill="#000000" font-family="sans-serif" font-size="11" font-style="italic" lengthAdjust="spacing" textLength="136" x="721" y="221.4189">traversable(Chap): boolean</text><ellipse cx="712" cy="230.8359" fill="#84BE84" rx="3" ry="3" style="stroke:#038048;stroke-width:1.0;"/><text fill="#000000" font-family="sans-serif" font-size="11" lengthAdjust="spacing" textLength="162" x="721" y="235.2549">performTileAction(Chap): boolean</text><ellipse cx="712" cy="244.6719" fill="#84BE84" rx="3" ry="3" style="stroke:#038048;stroke-width:1.0;"/><text fill="#000000" font-family="sans-serif" font-size="11" font-style="italic" lengthAdjust="spacing" textLength="48" x="721" y="249.0908">getX(): int</text><ellipse cx="712" cy="258.5078" fill="#84BE84" rx="3" ry="3" style="stroke:#038048;stroke-width:1.0;"/><text fill="#000000" font-family="sans-serif" font-size="11" font-style="italic" lengthAdjust="spacing" textLength="48" x="721" y="262.9268">getY(): int</text></a><!--MD5=[490584c45365b86c6f6846c6740f5d4c]
class nz.ac.wgtn.swen225.lc.domain.tiles.Treasure--><a href="Treasure.html" target="_top" title="Treasure.html" xlink:actuate="onRequest" xlink:href="Treasure.html" xlink:show="new" xlink:title="Treasure.html" xlink:type="simple"><rect codeLine="49" fill="#FEFECE" filter="url(#f113ujm46cynce)" height="75.6719" id="nz.ac.wgtn.swen225.lc.domain.tiles.Treasure" style="stroke:#A80036;stroke-width:1.5;" width="188" x="701" y="554.5"/><ellipse cx="765.75" cy="570.5" fill="#ADD1B2" rx="11" ry="11" style="stroke:#A80036;stroke-width:1.0;"/><path d="M768.5156,566.375 Q768.6719,566.1563 768.8594,566.0469 Q769.0469,565.9375 769.2656,565.9375 Q769.6406,565.9375 769.875,566.2031 Q770.1094,566.4531 770.1094,567.0625 L770.1094,568.5156 Q770.1094,569.125 769.875,569.3906 Q769.6406,569.6563 769.2656,569.6563 Q768.9219,569.6563 768.7188,569.4531 Q768.5156,569.2656 768.4063,568.75 Q768.3594,568.3906 768.1719,568.2031 Q767.8438,567.8281 767.2344,567.6094 Q766.625,567.3906 766,567.3906 Q765.2344,567.3906 764.5938,567.7188 Q763.9688,568.0469 763.4688,568.7969 Q762.9844,569.5469 762.9844,570.5781 L762.9844,571.6719 Q762.9844,572.9063 763.875,573.7344 Q764.7656,574.5469 766.3594,574.5469 Q767.2969,574.5469 767.9531,574.2969 Q768.3438,574.1406 768.7656,573.7031 Q769.0313,573.4375 769.1719,573.3594 Q769.3281,573.2813 769.5313,573.2813 Q769.8594,573.2813 770.1094,573.5469 Q770.375,573.7969 770.375,574.1406 Q770.375,574.4844 770.0313,574.8906 Q769.5313,575.4688 768.7344,575.7969 Q767.6563,576.25 766.3594,576.25 Q764.8438,576.25 763.6406,575.625 Q762.6563,575.125 761.9688,574.0625 Q761.2813,572.9844 761.2813,571.7031 L761.2813,570.5469 Q761.2813,569.2188 761.8906,568.0781 Q762.5156,566.9219 763.6094,566.3125 Q764.7031,565.6875 765.9375,565.6875 Q766.6719,565.6875 767.3125,565.8594 Q767.9688,566.0156 768.5156,566.375 Z " fill="#000000"/><text fill="#000000" font-family="sans-serif" font-size="12" lengthAdjust="spacing" textLength="50" x="786.25" y="575.4102">Treasure</text><line style="stroke:#A80036;stroke-width:1.5;" x1="702" x2="888" y1="586.5" y2="586.5"/><line style="stroke:#A80036;stroke-width:1.5;" x1="702" x2="888" y1="594.5" y2="594.5"/><ellipse cx="712" cy="605.5" fill="#84BE84" rx="3" ry="3" style="stroke:#038048;stroke-width:1.0;"/><text fill="#000000" font-family="sans-serif" font-size="11" lengthAdjust="spacing" textLength="80" x="721" y="609.9189">Treasure(int, int)</text><ellipse cx="712" cy="619.3359" fill="#84BE84" rx="3" ry="3" style="stroke:#038048;stroke-width:1.0;"/><text fill="#000000" font-family="sans-serif" font-size="11" lengthAdjust="spacing" textLength="162" x="721" y="623.7549">performTileAction(Chap): boolean</text></a><!--MD5=[6487f002101fc0c7664e60d44dee7c2b]
class nz.ac.wgtn.swen225.lc.domain.tiles.Wall--><a href="Wall.html" target="_top" title="Wall.html" xlink:actuate="onRequest" xlink:href="Wall.html" xlink:show="new" xlink:title="Wall.html" xlink:type="simple"><rect codeLine="54" fill="#FEFECE" filter="url(#f113ujm46cynce)" height="144.8516" id="nz.ac.wgtn.swen225.lc.domain.tiles.Wall" style="stroke:#A80036;stroke-width:1.5;" width="188" x="924" y="329"/><ellipse cx="1001.75" cy="345" fill="#ADD1B2" rx="11" ry="11" style="stroke:#A80036;stroke-width:1.0;"/><path d="M1004.5156,340.875 Q1004.6719,340.6563 1004.8594,340.5469 Q1005.0469,340.4375 1005.2656,340.4375 Q1005.6406,340.4375 1005.875,340.7031 Q1006.1094,340.9531 1006.1094,341.5625 L1006.1094,343.0156 Q1006.1094,343.625 1005.875,343.8906 Q1005.6406,344.1563 1005.2656,344.1563 Q1004.9219,344.1563 1004.7188,343.9531 Q1004.5156,343.7656 1004.4063,343.25 Q1004.3594,342.8906 1004.1719,342.7031 Q1003.8438,342.3281 1003.2344,342.1094 Q1002.625,341.8906 1002,341.8906 Q1001.2344,341.8906 1000.5938,342.2188 Q999.9688,342.5469 999.4688,343.2969 Q998.9844,344.0469 998.9844,345.0781 L998.9844,346.1719 Q998.9844,347.4063 999.875,348.2344 Q1000.7656,349.0469 1002.3594,349.0469 Q1003.2969,349.0469 1003.9531,348.7969 Q1004.3438,348.6406 1004.7656,348.2031 Q1005.0313,347.9375 1005.1719,347.8594 Q1005.3281,347.7813 1005.5313,347.7813 Q1005.8594,347.7813 1006.1094,348.0469 Q1006.375,348.2969 1006.375,348.6406 Q1006.375,348.9844 1006.0313,349.3906 Q1005.5313,349.9688 1004.7344,350.2969 Q1003.6563,350.75 1002.3594,350.75 Q1000.8438,350.75 999.6406,350.125 Q998.6563,349.625 997.9688,348.5625 Q997.2813,347.4844 997.2813,346.2031 L997.2813,345.0469 Q997.2813,343.7188 997.8906,342.5781 Q998.5156,341.4219 999.6094,340.8125 Q1000.7031,340.1875 1001.9375,340.1875 Q1002.6719,340.1875 1003.3125,340.3594 Q1003.9688,340.5156 1004.5156,340.875 Z " fill="#000000"/><text fill="#000000" font-family="sans-serif" font-size="12" lengthAdjust="spacing" textLength="24" x="1022.25" y="349.9102">Wall</text><line style="stroke:#A80036;stroke-width:1.5;" x1="925" x2="1111" y1="361" y2="361"/><polygon fill="none" points="935,367,939,371,935,375,931,371" style="stroke:#B38D22;stroke-width:1.0;"/><text fill="#000000" font-family="sans-serif" font-size="11" lengthAdjust="spacing" textLength="23" x="944" y="376.4189">x: int</text><polygon fill="none" points="935,380.8359,939,384.8359,935,388.8359,931,384.8359" style="stroke:#B38D22;stroke-width:1.0;"/><text fill="#000000" font-family="sans-serif" font-size="11" lengthAdjust="spacing" textLength="23" x="944" y="390.2549">y: int</text><line style="stroke:#A80036;stroke-width:1.5;" x1="925" x2="1111" y1="396.6719" y2="396.6719"/><ellipse cx="935" cy="407.6719" fill="#84BE84" rx="3" ry="3" style="stroke:#038048;stroke-width:1.0;"/><text fill="#000000" font-family="sans-serif" font-size="11" lengthAdjust="spacing" textLength="56" x="944" y="412.0908">Wall(int, int)</text><ellipse cx="935" cy="421.5078" fill="#84BE84" rx="3" ry="3" style="stroke:#038048;stroke-width:1.0;"/><text fill="#000000" font-family="sans-serif" font-size="11" lengthAdjust="spacing" textLength="132" x="944" y="425.9268">traversable(Chap): boolean</text><ellipse cx="935" cy="435.3438" fill="#84BE84" rx="3" ry="3" style="stroke:#038048;stroke-width:1.0;"/><text fill="#000000" font-family="sans-serif" font-size="11" lengthAdjust="spacing" textLength="162" x="944" y="439.7627">performTileAction(Chap): boolean</text><ellipse cx="935" cy="449.1797" fill="#84BE84" rx="3" ry="3" style="stroke:#038048;stroke-width:1.0;"/><text fill="#000000" font-family="sans-serif" font-size="11" lengthAdjust="spacing" textLength="47" x="944" y="453.5986">getX(): int</text><ellipse cx="935" cy="463.0156" fill="#84BE84" rx="3" ry="3" style="stroke:#038048;stroke-width:1.0;"/><text fill="#000000" font-family="sans-serif" font-size="11" lengthAdjust="spacing" textLength="48" x="944" y="467.4346">getY(): int</text></a><!--MD5=[e928e726d300d3bec07862808e5ce117]
class java.lang.Cloneable--><rect codeLine="76" fill="#FEFECE" filter="url(#f113ujm46cynce)" height="48" id="java.lang.Cloneable" style="stroke:#A80036;stroke-width:1.5;" width="90" x="750" y="42"/><ellipse cx="765" cy="58" fill="#B4A7E5" rx="11" ry="11" style="stroke:#A80036;stroke-width:1.0;"/><path d="M765.9531,54.6406 L765.9531,61.2969 L767.6719,61.2969 Q768.2813,61.2969 768.5469,61.5313 Q768.8125,61.7656 768.8125,62.1563 Q768.8125,62.5313 768.5469,62.7656 Q768.2813,63 767.6719,63 L762.5313,63 Q761.9219,63 761.6563,62.7656 Q761.3906,62.5313 761.3906,62.1406 Q761.3906,61.7656 761.6563,61.5313 Q761.9219,61.2969 762.5313,61.2969 L764.25,61.2969 L764.25,54.6406 L762.5313,54.6406 Q761.9219,54.6406 761.6563,54.4063 Q761.3906,54.1719 761.3906,53.7813 Q761.3906,53.4063 761.6563,53.1719 Q761.9219,52.9375 762.5313,52.9375 L767.6719,52.9375 Q768.2813,52.9375 768.5469,53.1719 Q768.8125,53.4063 768.8125,53.7813 Q768.8125,54.1719 768.5469,54.4063 Q768.2813,54.6406 767.6719,54.6406 L765.9531,54.6406 Z " fill="#000000"/><text fill="#000000" font-family="sans-serif" font-size="12" font-style="italic" lengthAdjust="spacing" textLength="58" x="779" y="62.9102">Cloneable</text><line style="stroke:#A80036;stroke-width:1.5;" x1="751" x2="839" y1="74" y2="74"/><line style="stroke:#A80036;stroke-width:1.5;" x1="751" x2="839" y1="82" y2="82"/><!--MD5=[b443ef8da9d4649b6c7deefb72090848]
reverse link nz.ac.wgtn.swen225.lc.domain.tiles.Wall to nz.ac.wgtn.swen225.lc.domain.tiles.Door--><path codeLine="64" d="M1018,494.45 C1018,507.9 1018,521.43 1018,533.93 " fill="none" id="nz.ac.wgtn.swen225.lc.domain.tiles.Wall-backto-nz.ac.wgtn.swen225.lc.domain.tiles.Door" style="stroke:#A80036;stroke-width:1.0;"/><polygon fill="none" points="1011,494.22,1018,474.22,1025,494.22,1011,494.22" style="stroke:#A80036;stroke-width:1.0;"/><!--MD5=[fce8281dee6d2d902e07461b0d7c69cb]
reverse link nz.ac.wgtn.swen225.lc.domain.tiles.Free to nz.ac.wgtn.swen225.lc.domain.tiles.Exit--><path codeLine="65" d="M473.65,438.28 C406.55,463.41 316.04,498.71 238,534 C224.16,540.26 209.58,547.36 195.68,554.38 " fill="none" id="nz.ac.wgtn.swen225.lc.domain.tiles.Free-backto-nz.ac.wgtn.swen225.lc.domain.tiles.Exit" style="stroke:#A80036;stroke-width:1.0;"/><polygon fill="none" points="471.61,431.57,492.8,431.15,476.5,444.69,471.61,431.57" style="stroke:#A80036;stroke-width:1.0;"/><!--MD5=[28d8e4124fa8d430d425a33f8de977bd]
reverse link nz.ac.wgtn.swen225.lc.domain.tiles.Wall to nz.ac.wgtn.swen225.lc.domain.tiles.ExitLock--><path codeLine="66" d="M1118.15,487.38 C1142.65,508.15 1167.89,529.54 1189.07,547.49 " fill="none" id="nz.ac.wgtn.swen225.lc.domain.tiles.Wall-backto-nz.ac.wgtn.swen225.lc.domain.tiles.ExitLock" style="stroke:#A80036;stroke-width:1.0;"/><polygon fill="none" points="1113.36,492.49,1102.62,474.22,1122.41,481.81,1113.36,492.49" style="stroke:#A80036;stroke-width:1.0;"/><!--MD5=[769e1b611c44fab65f0d11b9e4488642]
reverse link nz.ac.wgtn.swen225.lc.domain.tiles.Tile to nz.ac.wgtn.swen225.lc.domain.tiles.Free--><path codeLine="67" d="M717.34,281.88 C695.98,299.32 672.79,318.24 651.34,335.75 " fill="none" id="nz.ac.wgtn.swen225.lc.domain.tiles.Tile-backto-nz.ac.wgtn.swen225.lc.domain.tiles.Free" style="stroke:#A80036;stroke-width:1.0;stroke-dasharray:7.0,7.0;"/><polygon fill="none" points="712.96,276.42,732.88,269.2,721.81,287.27,712.96,276.42" style="stroke:#A80036;stroke-width:1.0;"/><!--MD5=[59cf52e3ca2d945bcdbdf66702dd278d]
reverse link nz.ac.wgtn.swen225.lc.domain.tiles.Free to nz.ac.wgtn.swen225.lc.domain.tiles.InfoField--><path codeLine="68" d="M480.32,480.21 C450.11,505.81 417.9,533.1 392.94,554.26 " fill="none" id="nz.ac.wgtn.swen225.lc.domain.tiles.Free-backto-nz.ac.wgtn.swen225.lc.domain.tiles.InfoField" style="stroke:#A80036;stroke-width:1.0;"/><polygon fill="none" points="476.1,474.61,495.88,467.01,485.15,485.29,476.1,474.61" style="stroke:#A80036;stroke-width:1.0;"/><!--MD5=[598dfb72284818e759756a1b9b5cb723]
reverse link nz.ac.wgtn.swen225.lc.domain.tiles.Free to nz.ac.wgtn.swen225.lc.domain.tiles.KeyTile--><path codeLine="69" d="M572,487.09 C572,507.95 572,529.46 572,547.49 " fill="none" id="nz.ac.wgtn.swen225.lc.domain.tiles.Free-backto-nz.ac.wgtn.swen225.lc.domain.tiles.KeyTile" style="stroke:#A80036;stroke-width:1.0;"/><polygon fill="none" points="565,487.01,572,467.01,579,487.01,565,487.01" style="stroke:#A80036;stroke-width:1.0;"/><!--MD5=[63a8bcf6bfeaa0817734a0686f0c0996]
reverse link java.lang.Cloneable to nz.ac.wgtn.swen225.lc.domain.tiles.Tile--><path codeLine="70" d="M795,110.21 C795,127.61 795,147.8 795,165.88 " fill="none" id="java.lang.Cloneable-backto-nz.ac.wgtn.swen225.lc.domain.tiles.Tile" style="stroke:#A80036;stroke-width:1.0;"/><polygon fill="none" points="788,110.03,795,90.03,802,110.03,788,110.03" style="stroke:#A80036;stroke-width:1.0;"/><!--MD5=[e4c059ac47fcf2a528a49f6c6876fa9c]
reverse link nz.ac.wgtn.swen225.lc.domain.tiles.Free to nz.ac.wgtn.swen225.lc.domain.tiles.Treasure--><path codeLine="71" d="M663.68,480.21 C693.89,505.81 726.1,533.1 751.06,554.26 " fill="none" id="nz.ac.wgtn.swen225.lc.domain.tiles.Free-backto-nz.ac.wgtn.swen225.lc.domain.tiles.Treasure" style="stroke:#A80036;stroke-width:1.0;"/><polygon fill="none" points="658.85,485.29,648.12,467.01,667.9,474.61,658.85,485.29" style="stroke:#A80036;stroke-width:1.0;"/><!--MD5=[49321329da8a75b5664f20220ef7afe6]
reverse link nz.ac.wgtn.swen225.lc.domain.tiles.Tile to nz.ac.wgtn.swen225.lc.domain.tiles.Wall--><path codeLine="72" d="M872.72,281.93 C891.34,297.13 911.35,313.46 930.38,328.99 " fill="none" id="nz.ac.wgtn.swen225.lc.domain.tiles.Tile-backto-nz.ac.wgtn.swen225.lc.domain.tiles.Wall" style="stroke:#A80036;stroke-width:1.0;stroke-dasharray:7.0,7.0;"/><polygon fill="none" points="868.19,287.27,857.12,269.2,877.04,276.42,868.19,287.27" style="stroke:#A80036;stroke-width:1.0;"/><text fill="#888888" font-family="sans-serif" font-size="10" lengthAdjust="spacing" textLength="184" x="585.5" y="683.3809">UMLDoclet 2.0.14, PlantUML 1.2021.9</text><!--MD5=[97aef78ccf27ecb82aa21982b1befdc4]
@startuml
    namespace nz.ac.wgtn.swen225.lc.domain.tiles {

        class Door [[Door.html]] {
            +Door(Colour, int, int)
            +performTileAction(Chap): boolean
            +traversable(Chap): boolean
            +canOpen(Chap): boolean
            +getColour(): Colour
        }

        class Exit [[Exit.html]] {
            +Exit(int, int)
            +performTileAction(Chap): boolean
        }

        class ExitLock [[ExitLock.html]] {
            +ExitLock(int, int)
            +traversable(Chap): boolean
            +performTileAction(Chap): boolean
        }

        class Free [[Free.html]] {
            #x: int
            #y: int
            +Free(int, int)
            +traversable(Chap): boolean
            +getX(): int
            +getY(): int
        }

        class InfoField [[InfoField.html]] {
            +InfoField(int, int)
            +performTileAction(Chap): boolean
        }

        class KeyTile [[KeyTile.html]] {
            +KeyTile(Colour, int, int)
            +performTileAction(Chap): boolean
            +getColour(): Colour
        }

        interface Tile [[Tile.html]] {
            {abstract} +traversable(Chap): boolean
            +performTileAction(Chap): boolean
            {abstract} +getX(): int
            {abstract} +getY(): int
        }

        class Treasure [[Treasure.html]] {
            +Treasure(int, int)
            +performTileAction(Chap): boolean
        }

        class Wall [[Wall.html]] {
            #x: int
            #y: int
            +Wall(int, int)
            +traversable(Chap): boolean
            +performTileAction(Chap): boolean
            +getX(): int
            +getY(): int
        }

        Wall <|- - Door
        Free <|- - Exit
        Wall <|- - ExitLock
        Tile <|.. Free
        Free <|- - InfoField
        Free <|- - KeyTile
        java.lang.Cloneable <|- - Tile
        Free <|- - Treasure
        Tile <|.. Wall
    }

    namespace java.lang {
        interface Cloneable
    }

    center footer UMLDoclet 2.0.14, PlantUML 1.2021.9
@enduml

PlantUML version 1.2021.9(Sun Jul 25 17:13:56 ICT 2021)
(APACHE source distribution)
Java Runtime: OpenJDK Runtime Environment
JVM: OpenJDK 64-Bit Server VM
Default Encoding: Cp1252
Language: en
Country: NZ
--></g></svg>