<?xml version="1.0" encoding="UTF-8" standalone="no"?><svg xmlns="http://www.w3.org/2000/svg" xmlns:xlink="http://www.w3.org/1999/xlink" contentScriptType="application/ecmascript" contentStyleType="text/css" height="242px" preserveAspectRatio="none" style="width:221px;height:242px;background:#FFFFFF;" version="1.1" viewBox="0 0 221 242" width="221px" zoomAndPan="magnify"><defs><filter height="300%" id="f1xp0zcbt4j3y6" width="300%" x="-1" y="-1"><feGaussianBlur result="blurOut" stdDeviation="2.0"/><feColorMatrix in="blurOut" result="blurOut2" type="matrix" values="0 0 0 0 0 0 0 0 0 0 0 0 0 0 0 0 0 0 .4 0"/><feOffset dx="4.0" dy="4.0" in="blurOut2" result="blurOut3"/><feBlend in="SourceGraphic" in2="blurOut3" mode="normal"/></filter></defs><g><!--MD5=[02a1b30ec222ca2553512277ee8b5041]
class nz.ac.wgtn.swen225.lc.domain.tiles.Tile--><a href="Tile.html" target="_top" title="Tile.html" xlink:actuate="onRequest" xlink:href="Tile.html" xlink:show="new" xlink:title="Tile.html" xlink:type="simple"><rect codeLine="5" fill="#FEFECE" filter="url(#f1xp0zcbt4j3y6)" height="103.5313" id="nz.ac.wgtn.swen225.lc.domain.tiles.Tile" style="stroke:#A80036;stroke-width:1.5;" width="200" x="7" y="107"/><ellipse cx="22" cy="127.0938" fill="#B4A7E5" rx="11" ry="11" style="stroke:#A80036;stroke-width:1.0;"/><path d="M22.9531,123.7344 L22.9531,130.3906 L24.6719,130.3906 Q25.2813,130.3906 25.5469,130.625 Q25.8125,130.8594 25.8125,131.25 Q25.8125,131.625 25.5469,131.8594 Q25.2813,132.0938 24.6719,132.0938 L19.5313,132.0938 Q18.9219,132.0938 18.6563,131.8594 Q18.3906,131.625 18.3906,131.2344 Q18.3906,130.8594 18.6563,130.625 Q18.9219,130.3906 19.5313,130.3906 L21.25,130.3906 L21.25,123.7344 L19.5313,123.7344 Q18.9219,123.7344 18.6563,123.5 Q18.3906,123.2656 18.3906,122.875 Q18.3906,122.5 18.6563,122.2656 Q18.9219,122.0313 19.5313,122.0313 L24.6719,122.0313 Q25.2813,122.0313 25.5469,122.2656 Q25.8125,122.5 25.8125,122.875 Q25.8125,123.2656 25.5469,123.5 Q25.2813,123.7344 24.6719,123.7344 L22.9531,123.7344 Z " fill="#000000"/><text fill="#000000" font-family="sans-serif" font-size="14" font-style="italic" lengthAdjust="spacing" textLength="23" x="108.5" y="126.5332">Tile</text><text fill="#000000" font-family="sans-serif" font-size="10" font-style="italic" lengthAdjust="spacing" textLength="168" x="36" y="139.9902">nz.ac.wgtn.swen225.lc.domain.tiles</text><line style="stroke:#A80036;stroke-width:1.5;" x1="8" x2="206" y1="147.1875" y2="147.1875"/><ellipse cx="18" cy="158.1875" fill="#84BE84" rx="3" ry="3" style="stroke:#038048;stroke-width:1.0;"/><text fill="#000000" font-family="sans-serif" font-size="11" font-style="italic" lengthAdjust="spacing" textLength="136" x="27" y="162.6064">traversable(Chap): boolean</text><ellipse cx="18" cy="172.0234" fill="#84BE84" rx="3" ry="3" style="stroke:#038048;stroke-width:1.0;"/><text fill="#000000" font-family="sans-serif" font-size="11" lengthAdjust="spacing" textLength="162" x="27" y="176.4424">performTileAction(Chap): boolean</text><ellipse cx="18" cy="185.8594" fill="#84BE84" rx="3" ry="3" style="stroke:#038048;stroke-width:1.0;"/><text fill="#000000" font-family="sans-serif" font-size="11" font-style="italic" lengthAdjust="spacing" textLength="48" x="27" y="190.2783">getX(): int</text><ellipse cx="18" cy="199.6953" fill="#84BE84" rx="3" ry="3" style="stroke:#038048;stroke-width:1.0;"/><text fill="#000000" font-family="sans-serif" font-size="11" font-style="italic" lengthAdjust="spacing" textLength="48" x="27" y="204.1143">getY(): int</text></a><!--MD5=[e928e726d300d3bec07862808e5ce117]
class java.lang.Cloneable--><rect codeLine="12" fill="#FEFECE" filter="url(#f1xp0zcbt4j3y6)" height="40.1875" id="java.lang.Cloneable" style="stroke:#A80036;stroke-width:1.5;" width="96" x="59" y="7"/><ellipse cx="74" cy="27.0938" fill="#B4A7E5" rx="11" ry="11" style="stroke:#A80036;stroke-width:1.0;"/><path d="M74.9531,23.7344 L74.9531,30.3906 L76.6719,30.3906 Q77.2813,30.3906 77.5469,30.625 Q77.8125,30.8594 77.8125,31.25 Q77.8125,31.625 77.5469,31.8594 Q77.2813,32.0938 76.6719,32.0938 L71.5313,32.0938 Q70.9219,32.0938 70.6563,31.8594 Q70.3906,31.625 70.3906,31.2344 Q70.3906,30.8594 70.6563,30.625 Q70.9219,30.3906 71.5313,30.3906 L73.25,30.3906 L73.25,23.7344 L71.5313,23.7344 Q70.9219,23.7344 70.6563,23.5 Q70.3906,23.2656 70.3906,22.875 Q70.3906,22.5 70.6563,22.2656 Q70.9219,22.0313 71.5313,22.0313 L76.6719,22.0313 Q77.2813,22.0313 77.5469,22.2656 Q77.8125,22.5 77.8125,22.875 Q77.8125,23.2656 77.5469,23.5 Q77.2813,23.7344 76.6719,23.7344 L74.9531,23.7344 Z " fill="#000000"/><text fill="#000000" font-family="sans-serif" font-size="14" font-style="italic" lengthAdjust="spacing" textLength="64" x="88" y="26.5332">Cloneable</text><text fill="#000000" font-family="sans-serif" font-size="10" font-style="italic" lengthAdjust="spacing" textLength="43" x="98.5" y="39.9902">java.lang</text><!--MD5=[63a8bcf6bfeaa0817734a0686f0c0996]
reverse link java.lang.Cloneable to nz.ac.wgtn.swen225.lc.domain.tiles.Tile--><path codeLine="14" d="M107,67.49 C107,79.93 107,93.86 107,106.99 " fill="none" id="java.lang.Cloneable-backto-nz.ac.wgtn.swen225.lc.domain.tiles.Tile" style="stroke:#A80036;stroke-width:1.0;"/><polygon fill="none" points="100,67.18,107,47.18,114,67.18,100,67.18" style="stroke:#A80036;stroke-width:1.0;"/><text fill="#888888" font-family="sans-serif" font-size="10" lengthAdjust="spacing" textLength="184" x="12" y="233.9121">UMLDoclet 2.0.14, PlantUML 1.2021.9</text><!--MD5=[94acdc9f2a35cb5d5499dadd1566685b]
@startuml
    set namespaceSeparator none
    hide empty fields
    hide empty methods

    interface "<size:14>Tile\n<size:10>nz.ac.wgtn.swen225.lc.domain.tiles" as nz.ac.wgtn.swen225.lc.domain.tiles.Tile [[Tile.html]] {
        {abstract} +traversable(Chap): boolean
        +performTileAction(Chap): boolean
        {abstract} +getX(): int
        {abstract} +getY(): int
    }

    interface "<size:14>Cloneable\n<size:10>java.lang" as java.lang.Cloneable

    java.lang.Cloneable <|- - nz.ac.wgtn.swen225.lc.domain.tiles.Tile

    center footer UMLDoclet 2.0.14, PlantUML 1.2021.9
@enduml

PlantUML version 1.2021.9(Sun Jul 25 17:13:56 ICT 2021)
(APACHE source distribution)
Java Runtime: OpenJDK Runtime Environment
JVM: OpenJDK 64-Bit Server VM
Default Encoding: Cp1252
Language: en
Country: NZ
--></g></svg>