<?xml version="1.0" encoding="UTF-8" standalone="no"?><svg xmlns="http://www.w3.org/2000/svg" xmlns:xlink="http://www.w3.org/1999/xlink" contentStyleType="text/css" height="374px" preserveAspectRatio="none" style="width:256px;height:374px;background:#FFFFFF;" version="1.1" viewBox="0 0 256 374" width="256px" zoomAndPan="magnify"><defs/><g><!--class nz.ac.wgtn.swen225.lc.domain.tiles.Wall--><a href="Wall.html" target="_top" title="Wall.html" xlink:actuate="onRequest" xlink:href="Wall.html" xlink:show="new" xlink:title="Wall.html" xlink:type="simple"><g id="elem_nz.ac.wgtn.swen225.lc.domain.tiles.Wall"><rect codeLine="5" fill="#F1F1F1" height="179.4531" id="nz.ac.wgtn.swen225.lc.domain.tiles.Wall" rx="2.5" ry="2.5" style="stroke:#181818;stroke-width:0.5;" width="240" x="9" y="168"/><ellipse cx="42" cy="188.0938" fill="#ADD1B2" rx="11" ry="11" style="stroke:#181818;stroke-width:1.0;"/><path d="M44.7656,183.9688 Q44.9219,183.75 45.1094,183.6406 Q45.2969,183.5313 45.5156,183.5313 Q45.8906,183.5313 46.125,183.7969 Q46.3594,184.0469 46.3594,184.6563 L46.3594,186.1094 Q46.3594,186.7188 46.125,186.9844 Q45.8906,187.25 45.5156,187.25 Q45.1719,187.25 44.9688,187.0469 Q44.7656,186.8594 44.6563,186.3438 Q44.6094,185.9844 44.4219,185.7969 Q44.0938,185.4219 43.4844,185.2031 Q42.875,184.9844 42.25,184.9844 Q41.4844,184.9844 40.8438,185.3125 Q40.2188,185.6406 39.7188,186.3906 Q39.2344,187.1406 39.2344,188.1719 L39.2344,189.2656 Q39.2344,190.5 40.125,191.3281 Q41.0156,192.1406 42.6094,192.1406 Q43.5469,192.1406 44.2031,191.8906 Q44.5938,191.7344 45.0156,191.2969 Q45.2813,191.0313 45.4219,190.9531 Q45.5781,190.875 45.7813,190.875 Q46.1094,190.875 46.3594,191.1406 Q46.625,191.3906 46.625,191.7344 Q46.625,192.0781 46.2813,192.4844 Q45.7813,193.0625 44.9844,193.3906 Q43.9063,193.8438 42.6094,193.8438 Q41.0938,193.8438 39.8906,193.2188 Q38.9063,192.7188 38.2188,191.6563 Q37.5313,190.5781 37.5313,189.2969 L37.5313,188.1406 Q37.5313,186.8125 38.1406,185.6719 Q38.7656,184.5156 39.8594,183.9063 Q40.9531,183.2813 42.1875,183.2813 Q42.9219,183.2813 43.5625,183.4531 Q44.2188,183.6094 44.7656,183.9688 Z " fill="#000000"/><text fill="#000000" font-family="sans-serif" font-size="14" lengthAdjust="spacing" textLength="27" x="130.5" y="187.5332">Wall</text><text fill="#000000" font-family="sans-serif" font-size="10" lengthAdjust="spacing" textLength="168" x="60" y="200.9902">nz.ac.wgtn.swen225.lc.domain.tiles</text><line style="stroke:#181818;stroke-width:0.5;" x1="10" x2="248" y1="208.1875" y2="208.1875"/><polygon fill="none" points="20,217.4922,24,221.4922,20,225.4922,16,221.4922" style="stroke:#B38D22;stroke-width:1.0;"/><text fill="#000000" font-family="sans-serif" font-size="14" lengthAdjust="spacing" textLength="29" x="29" y="226.7207">x: int</text><polygon fill="none" points="20,235.1016,24,239.1016,20,243.1016,16,239.1016" style="stroke:#B38D22;stroke-width:1.0;"/><text fill="#000000" font-family="sans-serif" font-size="14" lengthAdjust="spacing" textLength="30" x="29" y="244.3301">y: int</text><line style="stroke:#181818;stroke-width:0.5;" x1="10" x2="248" y1="251.4063" y2="251.4063"/><ellipse cx="20" cy="265.7109" fill="#84BE84" rx="3" ry="3" style="stroke:#038048;stroke-width:1.0;"/><text fill="#000000" font-family="sans-serif" font-size="14" lengthAdjust="spacing" textLength="75" x="29" y="269.9395">Wall(int, int)</text><ellipse cx="20" cy="283.3203" fill="#84BE84" rx="3" ry="3" style="stroke:#038048;stroke-width:1.0;"/><text fill="#000000" font-family="sans-serif" font-size="14" lengthAdjust="spacing" textLength="174" x="29" y="287.5488">traversable(Chap): boolean</text><ellipse cx="20" cy="300.9297" fill="#84BE84" rx="3" ry="3" style="stroke:#038048;stroke-width:1.0;"/><text fill="#000000" font-family="sans-serif" font-size="14" lengthAdjust="spacing" textLength="214" x="29" y="305.1582">performTileAction(Chap): boolean</text><ellipse cx="20" cy="318.5391" fill="#84BE84" rx="3" ry="3" style="stroke:#038048;stroke-width:1.0;"/><text fill="#000000" font-family="sans-serif" font-size="14" lengthAdjust="spacing" textLength="61" x="29" y="322.7676">getX(): int</text><ellipse cx="20" cy="336.1484" fill="#84BE84" rx="3" ry="3" style="stroke:#038048;stroke-width:1.0;"/><text fill="#000000" font-family="sans-serif" font-size="14" lengthAdjust="spacing" textLength="62" x="29" y="340.377">getY(): int</text></g></a><!--class nz.ac.wgtn.swen225.lc.domain.tiles.Tile--><a href="Tile.html" target="_top" title="Tile.html" xlink:actuate="onRequest" xlink:href="Tile.html" xlink:show="new" xlink:title="Tile.html" xlink:type="simple"><g id="elem_nz.ac.wgtn.swen225.lc.domain.tiles.Tile"><rect codeLine="15" fill="#F1F1F1" height="101.0156" id="nz.ac.wgtn.swen225.lc.domain.tiles.Tile" rx="2.5" ry="2.5" style="stroke:#181818;stroke-width:0.5;" width="200" x="29" y="7"/><ellipse cx="44" cy="27.0938" fill="#B4A7E5" rx="11" ry="11" style="stroke:#181818;stroke-width:1.0;"/><path d="M44.9531,23.7344 L44.9531,30.3906 L46.6719,30.3906 Q47.2813,30.3906 47.5469,30.625 Q47.8125,30.8594 47.8125,31.25 Q47.8125,31.625 47.5469,31.8594 Q47.2813,32.0938 46.6719,32.0938 L41.5313,32.0938 Q40.9219,32.0938 40.6563,31.8594 Q40.3906,31.625 40.3906,31.2344 Q40.3906,30.8594 40.6563,30.625 Q40.9219,30.3906 41.5313,30.3906 L43.25,30.3906 L43.25,23.7344 L41.5313,23.7344 Q40.9219,23.7344 40.6563,23.5 Q40.3906,23.2656 40.3906,22.875 Q40.3906,22.5 40.6563,22.2656 Q40.9219,22.0313 41.5313,22.0313 L46.6719,22.0313 Q47.2813,22.0313 47.5469,22.2656 Q47.8125,22.5 47.8125,22.875 Q47.8125,23.2656 47.5469,23.5 Q47.2813,23.7344 46.6719,23.7344 L44.9531,23.7344 Z " fill="#000000"/><text fill="#000000" font-family="sans-serif" font-size="14" font-style="italic" lengthAdjust="spacing" textLength="23" x="130.5" y="26.5332">Tile</text><text fill="#000000" font-family="sans-serif" font-size="10" font-style="italic" lengthAdjust="spacing" textLength="168" x="58" y="39.9902">nz.ac.wgtn.swen225.lc.domain.tiles</text><line style="stroke:#181818;stroke-width:0.5;" x1="30" x2="228" y1="47.1875" y2="47.1875"/><ellipse cx="40" cy="61.4922" fill="#84BE84" rx="3" ry="3" style="stroke:#038048;stroke-width:1.0;"/><text fill="#000000" font-family="sans-serif" font-size="14" font-style="italic" lengthAdjust="spacing" textLength="173" x="49" y="65.7207">traversable(Chap): boolean</text><ellipse cx="40" cy="79.1016" fill="#84BE84" rx="3" ry="3" style="stroke:#038048;stroke-width:1.0;"/><text fill="#000000" font-family="sans-serif" font-size="14" font-style="italic" lengthAdjust="spacing" textLength="62" x="49" y="83.3301">getX(): int</text><ellipse cx="40" cy="96.7109" fill="#84BE84" rx="3" ry="3" style="stroke:#038048;stroke-width:1.0;"/><text fill="#000000" font-family="sans-serif" font-size="14" font-style="italic" lengthAdjust="spacing" textLength="62" x="49" y="100.9395">getY(): int</text></g></a><!--reverse link nz.ac.wgtn.swen225.lc.domain.tiles.Tile to nz.ac.wgtn.swen225.lc.domain.tiles.Wall--><g id="link_nz.ac.wgtn.swen225.lc.domain.tiles.Tile_nz.ac.wgtn.swen225.lc.domain.tiles.Wall"><path codeLine="21" d="M129,128.24 C129,141.04 129,154.55 129,167.81 " fill="none" id="nz.ac.wgtn.swen225.lc.domain.tiles.Tile-backto-nz.ac.wgtn.swen225.lc.domain.tiles.Wall" style="stroke:#181818;stroke-width:1.0;stroke-dasharray:7.0,7.0;"/><polygon fill="none" points="122,128.21,129,108.21,136,128.21,122,128.21" style="stroke:#181818;stroke-width:1.0;"/></g><text fill="#888888" font-family="sans-serif" font-size="10" lengthAdjust="spacing" textLength="184" x="29" y="363.834">UMLDoclet 2.1.0, PlantUML 1.2022.14</text><!--SRC=[jPBVIm914CVV-oi68_185fLwEKI8UYm8AYhKXt6TynRsTe_R8LFpVs_M1A_Bo9VsPPZFpiwFxmu0G206XmM54ZKzK8aLig_0UKSdSWsvcH5GKV8ICaDs5fgq8Cwzu2tN5aE0rY2O5QMzY-4pMZjsExSxT2k5MYtcx5HOaEltBvNLQkOBD4wniHHQW07-3bCnCOn6qQYS2pkPm7hRGJodxoaOntj_-Tq_Zy_QGZeH9tlE5RvH5N1ggNsTOvcaCFNU4hfzJ4bLvglYKTguqcoy-pLoJlpIJXgb1RxMuUPBE74bhtn1JRnOub_4Yub5l6X-YhV6QH0TD6-EqgCUVcZWnlsXsO_jUF2XrB6xiLj7Yh92vdqqJtUtDrvRMVY-wgbk1-ujEXOAPt7A-9N99m00]--></g></svg>