<?xml version="1.0" encoding="UTF-8" standalone="no"?><svg xmlns="http://www.w3.org/2000/svg" xmlns:xlink="http://www.w3.org/1999/xlink" contentScriptType="application/ecmascript" contentStyleType="text/css" height="267px" preserveAspectRatio="none" style="width:454px;height:267px;background:#FFFFFF;" version="1.1" viewBox="0 0 454 267" width="454px" zoomAndPan="magnify"><defs><filter height="300%" id="fpxotxi5mtof7" width="300%" x="-1" y="-1"><feGaussianBlur result="blurOut" stdDeviation="2.0"/><feColorMatrix in="blurOut" result="blurOut2" type="matrix" values="0 0 0 0 0 0 0 0 0 0 0 0 0 0 0 0 0 0 .4 0"/><feOffset dx="4.0" dy="4.0" in="blurOut2" result="blurOut3"/><feBlend in="SourceGraphic" in2="blurOut3" mode="normal"/></filter></defs><g><!--MD5=[8a7daa3f025fa236b1ffbc611c26624f]
class nz.ac.wgtn.swen225.lc.persistency.AutoActor--><a href="AutoActor.html" target="_top" title="AutoActor.html" xlink:actuate="onRequest" xlink:href="AutoActor.html" xlink:show="new" xlink:title="AutoActor.html" xlink:type="simple"><rect codeLine="5" fill="#FEFECE" filter="url(#fpxotxi5mtof7)" height="125.5973" id="nz.ac.wgtn.swen225.lc.persistency.AutoActor" style="stroke:#A80036;stroke-width:1.5;" width="249" x="99" y="7"/><ellipse cx="136.5" cy="28.344" fill="#ADD1B2" rx="11" ry="11" style="stroke:#A80036;stroke-width:1.0;"/><path d="M135.9688,35.2658 Q134.2188,35.2658 133.0781,34.5315 Q131.9531,33.7815 131.3906,32.4377 Q130.8438,31.0783 130.8438,29.2815 Q130.8438,27.2502 131.5,25.7971 Q132.1563,24.344 133.4375,23.5627 Q134.7188,22.7815 136.5938,22.7815 Q137.4844,22.7815 138.1563,22.969 Q138.8281,23.1408 139.5156,23.4846 L138.7031,25.5002 Q138.0781,25.1877 137.5313,25.0627 Q137,24.9377 136.5156,24.9377 Q135.3438,24.9377 134.6406,25.469 Q133.9375,26.0002 133.6406,26.9533 Q133.3438,27.9065 133.3438,29.1721 Q133.3438,31.1877 134.0625,32.1565 Q134.7813,33.1096 136.375,33.1096 Q136.9688,33.1096 137.5938,32.9533 Q138.2188,32.7971 139.0469,32.4221 L139.0469,34.6408 Q138.3125,34.9533 137.5156,35.1096 Q136.7344,35.2658 135.9688,35.2658 Z " fill="#000000"/><text fill="#000000" font-family="sans-serif" font-size="14" lengthAdjust="spacing" textLength="66" x="206" y="26.9659">AutoActor</text><text fill="#000000" font-family="sans-serif" font-size="10" lengthAdjust="spacing" textLength="167" x="155.5" y="41.7579">nz.ac.wgtn.swen225.lc.persistency</text><line style="stroke:#A80036;stroke-width:1.5;" x1="100" x2="347" y1="49.6879" y2="49.6879"/><ellipse cx="110" cy="60.6879" fill="#84BE84" rx="3" ry="3" style="stroke:#038048;stroke-width:1.0;"/><text fill="#000000" font-family="sans-serif" font-size="11" lengthAdjust="spacing" textLength="223" x="119" y="65.4468">AutoActor(int, int, Direction, Instant, Chap)</text><ellipse cx="110" cy="75.6698" fill="#84BE84" rx="3" ry="3" style="stroke:#038048;stroke-width:1.0;"/><text fill="#000000" font-family="sans-serif" font-size="11" lengthAdjust="spacing" textLength="59" x="119" y="80.4287">AutoActor()</text><ellipse cx="110" cy="90.6517" fill="#84BE84" rx="3" ry="3" style="stroke:#038048;stroke-width:1.0;"/><text fill="#000000" font-family="sans-serif" font-size="11" lengthAdjust="spacing" textLength="120" x="119" y="95.4106">move(Tile[]): AutoActor</text><ellipse cx="110" cy="105.6336" fill="#84BE84" rx="3" ry="3" style="stroke:#038048;stroke-width:1.0;"/><text fill="#000000" font-family="sans-serif" font-size="11" lengthAdjust="spacing" textLength="72" x="119" y="110.3925">getX(): double</text><ellipse cx="110" cy="120.6155" fill="#84BE84" rx="3" ry="3" style="stroke:#038048;stroke-width:1.0;"/><text fill="#000000" font-family="sans-serif" font-size="11" lengthAdjust="spacing" textLength="72" x="119" y="125.3744">getY(): double</text></a><!--MD5=[802bed04ee0ed964813dfc37091afa9c]
class nz.ac.wgtn.swen225.lc.persistency.AutoActor.Direction--><a href="AutoActor.Direction.html" target="_top" title="AutoActor.Direction.html" xlink:actuate="onRequest" xlink:href="AutoActor.Direction.html" xlink:show="new" xlink:title="AutoActor.Direction.html" xlink:type="simple"><rect codeLine="12" fill="#FEFECE" filter="url(#fpxotxi5mtof7)" height="42.6879" id="nz.ac.wgtn.swen225.lc.persistency.AutoActor.Direction" style="stroke:#A80036;stroke-width:1.5;" width="199" x="7" y="192.6"/><ellipse cx="22" cy="213.944" fill="#EB937F" rx="11" ry="11" style="stroke:#A80036;stroke-width:1.0;"/><path d="M18.3594,220.444 L18.3594,208.3033 L26.0156,208.3033 L26.0156,210.4283 L20.7344,210.4283 L20.7344,213.0846 L25.75,213.0846 L25.75,215.2096 L20.7344,215.2096 L20.7344,218.319 L26.0156,218.319 L26.0156,220.444 L18.3594,220.444 Z " fill="#000000"/><text fill="#000000" font-family="sans-serif" font-size="14" lengthAdjust="spacing" textLength="131" x="54" y="212.5659">AutoActor.Direction</text><text fill="#000000" font-family="sans-serif" font-size="10" lengthAdjust="spacing" textLength="167" x="36" y="227.3579">nz.ac.wgtn.swen225.lc.persistency</text></a><!--MD5=[073e18163294d1fbdecc6abb4c2539d2]
class nz.ac.wgtn.swen225.lc.persistency.AutoActor.PluginLoader--><a href="AutoActor.PluginLoader.html" target="_top" title="AutoActor.PluginLoader.html" xlink:actuate="onRequest" xlink:href="AutoActor.PluginLoader.html" xlink:show="new" xlink:title="AutoActor.PluginLoader.html" xlink:type="simple"><rect codeLine="13" fill="#FEFECE" filter="url(#fpxotxi5mtof7)" height="42.6879" id="nz.ac.wgtn.swen225.lc.persistency.AutoActor.PluginLoader" style="stroke:#A80036;stroke-width:1.5;" width="199" x="241" y="192.6"/><ellipse cx="256" cy="213.944" fill="#ADD1B2" rx="11" ry="11" style="stroke:#A80036;stroke-width:1.0;"/><path d="M255.4688,220.8658 Q253.7188,220.8658 252.5781,220.1315 Q251.4531,219.3815 250.8906,218.0377 Q250.3438,216.6783 250.3438,214.8815 Q250.3438,212.8502 251,211.3971 Q251.6563,209.944 252.9375,209.1627 Q254.2188,208.3815 256.0938,208.3815 Q256.9844,208.3815 257.6563,208.569 Q258.3281,208.7408 259.0156,209.0846 L258.2031,211.1002 Q257.5781,210.7877 257.0313,210.6627 Q256.5,210.5377 256.0156,210.5377 Q254.8438,210.5377 254.1406,211.069 Q253.4375,211.6002 253.1406,212.5533 Q252.8438,213.5065 252.8438,214.7721 Q252.8438,216.7877 253.5625,217.7565 Q254.2813,218.7096 255.875,218.7096 Q256.4688,218.7096 257.0938,218.5533 Q257.7188,218.3971 258.5469,218.0221 L258.5469,220.2408 Q257.8125,220.5533 257.0156,220.7096 Q256.2344,220.8658 255.4688,220.8658 Z " fill="#000000"/><text fill="#000000" font-family="sans-serif" font-size="14" lengthAdjust="spacing" textLength="159" x="274" y="212.5659">AutoActor.PluginLoader</text><text fill="#000000" font-family="sans-serif" font-size="10" lengthAdjust="spacing" textLength="167" x="270" y="227.3579">nz.ac.wgtn.swen225.lc.persistency</text></a><!--MD5=[f81e2b2fb034a3d397378f3930f95abd]
reverse link nz.ac.wgtn.swen225.lc.persistency.AutoActor to nz.ac.wgtn.swen225.lc.persistency.AutoActor.Direction--><path codeLine="15" d="M162.56,144.84 C148.16,162.34 133.95,179.6 123.44,192.37 " fill="none" id="nz.ac.wgtn.swen225.lc.persistency.AutoActor-backto-nz.ac.wgtn.swen225.lc.persistency.AutoActor.Direction" style="stroke:#A80036;stroke-width:1.0;"/><ellipse cx="167.4346" cy="139.9157" fill="#FFFFFF" rx="8" ry="8" style="stroke:#A80036;stroke-width:1.0;"/><line style="stroke:#A80036;stroke-width:1.0;" x1="162.3492" x2="172.52" y1="146.0913" y2="133.74"/><line style="stroke:#A80036;stroke-width:1.0;" x1="161.2589" x2="173.6103" y1="134.8303" y2="145.0011"/><!--MD5=[785c728ab2429dfb87ec09560ce39519]
reverse link nz.ac.wgtn.swen225.lc.persistency.AutoActor to nz.ac.wgtn.swen225.lc.persistency.AutoActor.PluginLoader--><path codeLine="16" d="M284.44,144.84 C298.84,162.34 313.05,179.6 323.56,192.37 " fill="none" id="nz.ac.wgtn.swen225.lc.persistency.AutoActor-backto-nz.ac.wgtn.swen225.lc.persistency.AutoActor.PluginLoader" style="stroke:#A80036;stroke-width:1.0;"/><ellipse cx="279.5654" cy="139.9157" fill="#FFFFFF" rx="8" ry="8" style="stroke:#A80036;stroke-width:1.0;"/><line style="stroke:#A80036;stroke-width:1.0;" x1="284.6508" x2="274.48" y1="146.0913" y2="133.74"/><line style="stroke:#A80036;stroke-width:1.0;" x1="273.3897" x2="285.7411" y1="145.0011" y2="134.8303"/><text fill="#888888" font-family="sans-serif" font-size="10" lengthAdjust="spacing" textLength="182" x="129.5" y="258.9779">UMLDoclet 2.0.14, PlantUML 1.2021.9</text><!--MD5=[1639c6029f26199275fbe316ac761c74]
@startuml
    set namespaceSeparator none
    hide empty fields
    hide empty methods

    class "<size:14>AutoActor\n<size:10>nz.ac.wgtn.swen225.lc.persistency" as nz.ac.wgtn.swen225.lc.persistency.AutoActor [[AutoActor.html]] {
        +AutoActor(int, int, Direction, Instant, Chap)
        +AutoActor()
        +move(Tile[]): AutoActor
        +getX(): double
        +getY(): double
    }
    enum "<size:14>AutoActor.Direction\n<size:10>nz.ac.wgtn.swen225.lc.persistency" as nz.ac.wgtn.swen225.lc.persistency.AutoActor.Direction [[AutoActor.Direction.html]]
    class "<size:14>AutoActor.PluginLoader\n<size:10>nz.ac.wgtn.swen225.lc.persistency" as nz.ac.wgtn.swen225.lc.persistency.AutoActor.PluginLoader [[AutoActor.PluginLoader.html]]

    nz.ac.wgtn.swen225.lc.persistency.AutoActor +- - nz.ac.wgtn.swen225.lc.persistency.AutoActor.Direction
    nz.ac.wgtn.swen225.lc.persistency.AutoActor +- - nz.ac.wgtn.swen225.lc.persistency.AutoActor.PluginLoader

    center footer UMLDoclet 2.0.14, PlantUML 1.2021.9
@enduml

PlantUML version 1.2021.9(Sun Jul 25 22:13:56 NZST 2021)
(APACHE source distribution)
Java Runtime: OpenJDK Runtime Environment
JVM: OpenJDK 64-Bit Server VM
Default Encoding: UTF-8
Language: en
Country: NZ
--></g></svg>