<?xml version="1.0" encoding="UTF-8" standalone="no"?><svg xmlns="http://www.w3.org/2000/svg" xmlns:xlink="http://www.w3.org/1999/xlink" contentScriptType="application/ecmascript" contentStyleType="text/css" height="207px" preserveAspectRatio="none" style="width:255px;height:207px;background:#FFFFFF;" version="1.1" viewBox="0 0 255 207" width="255px" zoomAndPan="magnify"><defs><filter height="300%" id="f1h7phbvvu3qbu" width="300%" x="-1" y="-1"><feGaussianBlur result="blurOut" stdDeviation="2.0"/><feColorMatrix in="blurOut" result="blurOut2" type="matrix" values="0 0 0 0 0 0 0 0 0 0 0 0 0 0 0 0 0 0 .4 0"/><feOffset dx="4.0" dy="4.0" in="blurOut2" result="blurOut3"/><feBlend in="SourceGraphic" in2="blurOut3" mode="normal"/></filter></defs><g><!--MD5=[073e18163294d1fbdecc6abb4c2539d2]
class nz.ac.wgtn.swen225.lc.persistency.AutoActor.PluginLoader--><a href="AutoActor.PluginLoader.html" target="_top" title="AutoActor.PluginLoader.html" xlink:actuate="onRequest" xlink:href="AutoActor.PluginLoader.html" xlink:show="new" xlink:title="AutoActor.PluginLoader.html" xlink:type="simple"><rect codeLine="5" fill="#FEFECE" filter="url(#f1h7phbvvu3qbu)" height="65.6698" id="nz.ac.wgtn.swen225.lc.persistency.AutoActor.PluginLoader" style="stroke:#A80036;stroke-width:1.5;" width="234" x="7" y="109.69"/><ellipse cx="37.75" cy="131.034" fill="#ADD1B2" rx="11" ry="11" style="stroke:#A80036;stroke-width:1.0;"/><path d="M37.2188,137.9558 Q35.4688,137.9558 34.3281,137.2215 Q33.2031,136.4715 32.6406,135.1277 Q32.0938,133.7683 32.0938,131.9715 Q32.0938,129.9402 32.75,128.4871 Q33.4063,127.034 34.6875,126.2527 Q35.9688,125.4715 37.8438,125.4715 Q38.7344,125.4715 39.4063,125.659 Q40.0781,125.8308 40.7656,126.1746 L39.9531,128.1902 Q39.3281,127.8777 38.7813,127.7527 Q38.25,127.6277 37.7656,127.6277 Q36.5938,127.6277 35.8906,128.159 Q35.1875,128.6902 34.8906,129.6433 Q34.5938,130.5965 34.5938,131.8621 Q34.5938,133.8777 35.3125,134.8465 Q36.0313,135.7996 37.625,135.7996 Q38.2188,135.7996 38.8438,135.6433 Q39.4688,135.4871 40.2969,135.1121 L40.2969,137.3308 Q39.5625,137.6433 38.7656,137.7996 Q37.9844,137.9558 37.2188,137.9558 Z " fill="#000000"/><text fill="#000000" font-family="sans-serif" font-size="14" lengthAdjust="spacing" textLength="159" x="59.25" y="129.6559">AutoActor.PluginLoader</text><text fill="#000000" font-family="sans-serif" font-size="10" lengthAdjust="spacing" textLength="167" x="55.25" y="144.4479">nz.ac.wgtn.swen225.lc.persistency</text><line style="stroke:#A80036;stroke-width:1.5;" x1="8" x2="240" y1="152.3779" y2="152.3779"/><ellipse cx="18" cy="163.3779" fill="#84BE84" rx="3" ry="3" style="stroke:#038048;stroke-width:1.0;"/><text fill="#000000" font-family="sans-serif" font-size="11" lengthAdjust="spacing" textLength="208" x="27" y="168.1368">getCustomActors(): Iterable&lt;AutoActor&gt;</text></a><!--MD5=[8a7daa3f025fa236b1ffbc611c26624f]
class nz.ac.wgtn.swen225.lc.persistency.AutoActor--><a href="AutoActor.html" target="_top" title="AutoActor.html" xlink:actuate="onRequest" xlink:href="AutoActor.html" xlink:show="new" xlink:title="AutoActor.html" xlink:type="simple"><rect codeLine="9" fill="#FEFECE" filter="url(#f1h7phbvvu3qbu)" height="42.6879" id="nz.ac.wgtn.swen225.lc.persistency.AutoActor" style="stroke:#A80036;stroke-width:1.5;" width="199" x="24.5" y="7"/><ellipse cx="39.5" cy="28.344" fill="#ADD1B2" rx="11" ry="11" style="stroke:#A80036;stroke-width:1.0;"/><path d="M38.9688,35.2658 Q37.2188,35.2658 36.0781,34.5315 Q34.9531,33.7815 34.3906,32.4377 Q33.8438,31.0783 33.8438,29.2815 Q33.8438,27.2502 34.5,25.7971 Q35.1563,24.344 36.4375,23.5627 Q37.7188,22.7815 39.5938,22.7815 Q40.4844,22.7815 41.1563,22.969 Q41.8281,23.1408 42.5156,23.4846 L41.7031,25.5002 Q41.0781,25.1877 40.5313,25.0627 Q40,24.9377 39.5156,24.9377 Q38.3438,24.9377 37.6406,25.469 Q36.9375,26.0002 36.6406,26.9533 Q36.3438,27.9065 36.3438,29.1721 Q36.3438,31.1877 37.0625,32.1565 Q37.7813,33.1096 39.375,33.1096 Q39.9688,33.1096 40.5938,32.9533 Q41.2188,32.7971 42.0469,32.4221 L42.0469,34.6408 Q41.3125,34.9533 40.5156,35.1096 Q39.7344,35.2658 38.9688,35.2658 Z " fill="#000000"/><text fill="#000000" font-family="sans-serif" font-size="14" lengthAdjust="spacing" textLength="66" x="104" y="26.9659">AutoActor</text><text fill="#000000" font-family="sans-serif" font-size="10" lengthAdjust="spacing" textLength="167" x="53.5" y="41.7579">nz.ac.wgtn.swen225.lc.persistency</text></a><!--MD5=[785c728ab2429dfb87ec09560ce39519]
reverse link nz.ac.wgtn.swen225.lc.persistency.AutoActor to nz.ac.wgtn.swen225.lc.persistency.AutoActor.PluginLoader--><path codeLine="11" d="M124,66.04 C124,80.01 124,95.81 124,109.33 " fill="none" id="nz.ac.wgtn.swen225.lc.persistency.AutoActor-backto-nz.ac.wgtn.swen225.lc.persistency.AutoActor.PluginLoader" style="stroke:#A80036;stroke-width:1.0;"/><ellipse cx="124" cy="59.18" fill="#FFFFFF" rx="8" ry="8" style="stroke:#A80036;stroke-width:1.0;"/><line style="stroke:#A80036;stroke-width:1.0;" x1="124" x2="124" y1="67.18" y2="51.18"/><line style="stroke:#A80036;stroke-width:1.0;" x1="116" x2="132" y1="59.18" y2="59.18"/><text fill="#888888" font-family="sans-serif" font-size="10" lengthAdjust="spacing" textLength="182" x="30" y="199.0498">UMLDoclet 2.0.14, PlantUML 1.2021.9</text><!--MD5=[87f5d704d2bc422f384bf22546380119]
@startuml
    set namespaceSeparator none
    hide empty fields
    hide empty methods

    class "<size:14>AutoActor.PluginLoader\n<size:10>nz.ac.wgtn.swen225.lc.persistency" as nz.ac.wgtn.swen225.lc.persistency.AutoActor.PluginLoader [[AutoActor.PluginLoader.html]] {
        +getCustomActors(): Iterable<AutoActor>
    }

    class "<size:14>AutoActor\n<size:10>nz.ac.wgtn.swen225.lc.persistency" as nz.ac.wgtn.swen225.lc.persistency.AutoActor [[AutoActor.html]]

    nz.ac.wgtn.swen225.lc.persistency.AutoActor +- - nz.ac.wgtn.swen225.lc.persistency.AutoActor.PluginLoader

    center footer UMLDoclet 2.0.14, PlantUML 1.2021.9
@enduml

PlantUML version 1.2021.9(Sun Jul 25 22:13:56 NZST 2021)
(APACHE source distribution)
Java Runtime: OpenJDK Runtime Environment
JVM: OpenJDK 64-Bit Server VM
Default Encoding: UTF-8
Language: en
Country: NZ
--></g></svg>