<?xml version="1.0" encoding="UTF-8" standalone="no"?><svg xmlns="http://www.w3.org/2000/svg" xmlns:xlink="http://www.w3.org/1999/xlink" contentScriptType="application/ecmascript" contentStyleType="text/css" height="252px" preserveAspectRatio="none" style="width:220px;height:252px;background:#FFFFFF;" version="1.1" viewBox="0 0 220 252" width="220px" zoomAndPan="magnify"><defs><filter height="300%" id="f1gn4dxtdvtsjj" width="300%" x="-1" y="-1"><feGaussianBlur result="blurOut" stdDeviation="2.0"/><feColorMatrix in="blurOut" result="blurOut2" type="matrix" values="0 0 0 0 0 0 0 0 0 0 0 0 0 0 0 0 0 0 .4 0"/><feOffset dx="4.0" dy="4.0" in="blurOut2" result="blurOut3"/><feBlend in="SourceGraphic" in2="blurOut3" mode="normal"/></filter></defs><g><!--MD5=[802bed04ee0ed964813dfc37091afa9c]
class nz.ac.wgtn.swen225.lc.persistency.AutoActor.Direction--><a href="AutoActor.Direction.html" target="_top" title="AutoActor.Direction.html" xlink:actuate="onRequest" xlink:href="AutoActor.Direction.html" xlink:show="new" xlink:title="AutoActor.Direction.html" xlink:type="simple"><rect codeLine="5" fill="#FEFECE" filter="url(#f1gn4dxtdvtsjj)" height="110.6155" id="nz.ac.wgtn.swen225.lc.persistency.AutoActor.Direction" style="stroke:#A80036;stroke-width:1.5;" width="199" x="7" y="109.68"/><ellipse cx="22" cy="131.024" fill="#EB937F" rx="11" ry="11" style="stroke:#A80036;stroke-width:1.0;"/><path d="M18.3594,137.524 L18.3594,125.3833 L26.0156,125.3833 L26.0156,127.5083 L20.7344,127.5083 L20.7344,130.1646 L25.75,130.1646 L25.75,132.2896 L20.7344,132.2896 L20.7344,135.399 L26.0156,135.399 L26.0156,137.524 L18.3594,137.524 Z " fill="#000000"/><text fill="#000000" font-family="sans-serif" font-size="14" lengthAdjust="spacing" textLength="131" x="54" y="129.6459">AutoActor.Direction</text><text fill="#000000" font-family="sans-serif" font-size="10" lengthAdjust="spacing" textLength="167" x="36" y="144.4379">nz.ac.wgtn.swen225.lc.persistency</text><line style="stroke:#A80036;stroke-width:1.5;" x1="8" x2="205" y1="152.3679" y2="152.3679"/><ellipse cx="18" cy="163.3679" rx="3" ry="3" style="stroke:#038048;stroke-width:1.0;fill:none;"/><text fill="#000000" font-family="sans-serif" font-size="11" lengthAdjust="spacing" text-decoration="underline" textLength="15" x="27" y="168.1268">UP</text><ellipse cx="18" cy="178.3498" rx="3" ry="3" style="stroke:#038048;stroke-width:1.0;fill:none;"/><text fill="#000000" font-family="sans-serif" font-size="11" lengthAdjust="spacing" text-decoration="underline" textLength="35" x="27" y="183.1087">DOWN</text><ellipse cx="18" cy="193.3317" rx="3" ry="3" style="stroke:#038048;stroke-width:1.0;fill:none;"/><text fill="#000000" font-family="sans-serif" font-size="11" lengthAdjust="spacing" text-decoration="underline" textLength="24" x="27" y="198.0906">LEFT</text><ellipse cx="18" cy="208.3136" rx="3" ry="3" style="stroke:#038048;stroke-width:1.0;fill:none;"/><text fill="#000000" font-family="sans-serif" font-size="11" lengthAdjust="spacing" text-decoration="underline" textLength="33" x="27" y="213.0725">RIGHT</text></a><!--MD5=[8a7daa3f025fa236b1ffbc611c26624f]
class nz.ac.wgtn.swen225.lc.persistency.AutoActor--><a href="AutoActor.html" target="_top" title="AutoActor.html" xlink:actuate="onRequest" xlink:href="AutoActor.html" xlink:show="new" xlink:title="AutoActor.html" xlink:type="simple"><rect codeLine="12" fill="#FEFECE" filter="url(#f1gn4dxtdvtsjj)" height="42.6879" id="nz.ac.wgtn.swen225.lc.persistency.AutoActor" style="stroke:#A80036;stroke-width:1.5;" width="199" x="7" y="7"/><ellipse cx="22" cy="28.344" fill="#ADD1B2" rx="11" ry="11" style="stroke:#A80036;stroke-width:1.0;"/><path d="M21.4688,35.2658 Q19.7188,35.2658 18.5781,34.5315 Q17.4531,33.7815 16.8906,32.4377 Q16.3438,31.0783 16.3438,29.2815 Q16.3438,27.2502 17,25.7971 Q17.6563,24.344 18.9375,23.5627 Q20.2188,22.7815 22.0938,22.7815 Q22.9844,22.7815 23.6563,22.969 Q24.3281,23.1408 25.0156,23.4846 L24.2031,25.5002 Q23.5781,25.1877 23.0313,25.0627 Q22.5,24.9377 22.0156,24.9377 Q20.8438,24.9377 20.1406,25.469 Q19.4375,26.0002 19.1406,26.9533 Q18.8438,27.9065 18.8438,29.1721 Q18.8438,31.1877 19.5625,32.1565 Q20.2813,33.1096 21.875,33.1096 Q22.4688,33.1096 23.0938,32.9533 Q23.7188,32.7971 24.5469,32.4221 L24.5469,34.6408 Q23.8125,34.9533 23.0156,35.1096 Q22.2344,35.2658 21.4688,35.2658 Z " fill="#000000"/><text fill="#000000" font-family="sans-serif" font-size="14" lengthAdjust="spacing" textLength="66" x="86.5" y="26.9659">AutoActor</text><text fill="#000000" font-family="sans-serif" font-size="10" lengthAdjust="spacing" textLength="167" x="36" y="41.7579">nz.ac.wgtn.swen225.lc.persistency</text></a><!--MD5=[f81e2b2fb034a3d397378f3930f95abd]
reverse link nz.ac.wgtn.swen225.lc.persistency.AutoActor to nz.ac.wgtn.swen225.lc.persistency.AutoActor.Direction--><path codeLine="14" d="M106.5,65.7 C106.5,79.08 106.5,94.55 106.5,109.19 " fill="none" id="nz.ac.wgtn.swen225.lc.persistency.AutoActor-backto-nz.ac.wgtn.swen225.lc.persistency.AutoActor.Direction" style="stroke:#A80036;stroke-width:1.0;"/><ellipse cx="106.5" cy="59.08" fill="#FFFFFF" rx="8" ry="8" style="stroke:#A80036;stroke-width:1.0;"/><line style="stroke:#A80036;stroke-width:1.0;" x1="106.5" x2="106.5" y1="67.08" y2="51.08"/><line style="stroke:#A80036;stroke-width:1.0;" x1="98.5" x2="114.5" y1="59.08" y2="59.08"/><text fill="#888888" font-family="sans-serif" font-size="10" lengthAdjust="spacing" textLength="182" x="12.5" y="243.9854">UMLDoclet 2.0.14, PlantUML 1.2021.9</text><!--MD5=[48cce996bc27d3138c1c865ed335c31a]
@startuml
    set namespaceSeparator none
    hide empty fields
    hide empty methods

    enum "<size:14>AutoActor.Direction\n<size:10>nz.ac.wgtn.swen225.lc.persistency" as nz.ac.wgtn.swen225.lc.persistency.AutoActor.Direction [[AutoActor.Direction.html]] {
        {static} +UP
        {static} +DOWN
        {static} +LEFT
        {static} +RIGHT
    }

    class "<size:14>AutoActor\n<size:10>nz.ac.wgtn.swen225.lc.persistency" as nz.ac.wgtn.swen225.lc.persistency.AutoActor [[AutoActor.html]]

    nz.ac.wgtn.swen225.lc.persistency.AutoActor +- - nz.ac.wgtn.swen225.lc.persistency.AutoActor.Direction

    center footer UMLDoclet 2.0.14, PlantUML 1.2021.9
@enduml

PlantUML version 1.2021.9(Sun Jul 25 22:13:56 NZST 2021)
(APACHE source distribution)
Java Runtime: OpenJDK Runtime Environment
JVM: OpenJDK 64-Bit Server VM
Default Encoding: UTF-8
Language: en
Country: NZ
--></g></svg>