<?xml version="1.0" encoding="UTF-8" standalone="no"?><svg xmlns="http://www.w3.org/2000/svg" xmlns:xlink="http://www.w3.org/1999/xlink" contentStyleType="text/css" height="369px" preserveAspectRatio="none" style="width:306px;height:369px;background:#FFFFFF;" version="1.1" viewBox="0 0 306 369" width="306px" zoomAndPan="magnify"><defs/><g><!--class nz.ac.wgtn.swen225.lc.persistency.AutoActor--><a href="AutoActor.html" target="_top" title="AutoActor.html" xlink:actuate="onRequest" xlink:href="AutoActor.html" xlink:show="new" xlink:title="AutoActor.html" xlink:type="simple"><g id="elem_nz.ac.wgtn.swen225.lc.persistency.AutoActor"><rect codeLine="5" fill="#F1F1F1" height="136.2344" id="nz.ac.wgtn.swen225.lc.persistency.AutoActor" rx="2.5" ry="2.5" style="stroke:#181818;stroke-width:0.5;" width="292" x="7" y="107.19"/><ellipse cx="67.75" cy="127.2838" fill="#ADD1B2" rx="11" ry="11" style="stroke:#181818;stroke-width:1.0;"/><path d="M70.5156,123.1588 Q70.6719,122.94 70.8594,122.8306 Q71.0469,122.7213 71.2656,122.7213 Q71.6406,122.7213 71.875,122.9869 Q72.1094,123.2369 72.1094,123.8463 L72.1094,125.2994 Q72.1094,125.9088 71.875,126.1744 Q71.6406,126.44 71.2656,126.44 Q70.9219,126.44 70.7188,126.2369 Q70.5156,126.0494 70.4063,125.5338 Q70.3594,125.1744 70.1719,124.9869 Q69.8438,124.6119 69.2344,124.3931 Q68.625,124.1744 68,124.1744 Q67.2344,124.1744 66.5938,124.5025 Q65.9688,124.8306 65.4688,125.5806 Q64.9844,126.3306 64.9844,127.3619 L64.9844,128.4556 Q64.9844,129.69 65.875,130.5181 Q66.7656,131.3306 68.3594,131.3306 Q69.2969,131.3306 69.9531,131.0806 Q70.3438,130.9244 70.7656,130.4869 Q71.0313,130.2213 71.1719,130.1431 Q71.3281,130.065 71.5313,130.065 Q71.8594,130.065 72.1094,130.3306 Q72.375,130.5806 72.375,130.9244 Q72.375,131.2681 72.0313,131.6744 Q71.5313,132.2525 70.7344,132.5806 Q69.6563,133.0338 68.3594,133.0338 Q66.8438,133.0338 65.6406,132.4088 Q64.6563,131.9088 63.9688,130.8463 Q63.2813,129.7681 63.2813,128.4869 L63.2813,127.3306 Q63.2813,126.0025 63.8906,124.8619 Q64.5156,123.7056 65.6094,123.0963 Q66.7031,122.4713 67.9375,122.4713 Q68.6719,122.4713 69.3125,122.6431 Q69.9688,122.7994 70.5156,123.1588 Z " fill="#000000"/><text fill="#000000" font-family="sans-serif" font-size="14" lengthAdjust="spacing" textLength="62" x="138.25" y="126.7232">AutoActor</text><text fill="#000000" font-family="sans-serif" font-size="10" lengthAdjust="spacing" textLength="162" x="88.25" y="140.1802">nz.ac.wgtn.swen225.lc.persistency</text><line style="stroke:#181818;stroke-width:0.5;" x1="8" x2="298" y1="147.3775" y2="147.3775"/><ellipse cx="18" cy="161.6822" fill="#84BE84" rx="3" ry="3" style="stroke:#038048;stroke-width:1.0;"/><text fill="#000000" font-family="sans-serif" font-size="14" lengthAdjust="spacing" textLength="266" x="27" y="165.9107">AutoActor(int, int, Direction, Instant, Chap)</text><ellipse cx="18" cy="179.2916" fill="#84BE84" rx="3" ry="3" style="stroke:#038048;stroke-width:1.0;"/><text fill="#000000" font-family="sans-serif" font-size="14" lengthAdjust="spacing" textLength="72" x="27" y="183.5201">AutoActor()</text><ellipse cx="18" cy="196.9009" fill="#84BE84" rx="3" ry="3" style="stroke:#038048;stroke-width:1.0;"/><text fill="#000000" font-family="sans-serif" font-size="14" lengthAdjust="spacing" textLength="145" x="27" y="201.1295">move(Tile[]): AutoActor</text><ellipse cx="18" cy="214.5103" fill="#84BE84" rx="3" ry="3" style="stroke:#038048;stroke-width:1.0;"/><text fill="#000000" font-family="sans-serif" font-size="14" lengthAdjust="spacing" textLength="61" x="27" y="218.7388">getX(): int</text><ellipse cx="18" cy="232.1197" fill="#84BE84" rx="3" ry="3" style="stroke:#038048;stroke-width:1.0;"/><text fill="#000000" font-family="sans-serif" font-size="14" lengthAdjust="spacing" textLength="62" x="27" y="236.3482">getY(): int</text></g></a><!--class java.io.Serializable--><g id="elem_java.io.Serializable"><rect codeLine="13" fill="#F1F1F1" height="40.1875" id="java.io.Serializable" rx="2.5" ry="2.5" style="stroke:#181818;stroke-width:0.5;" width="105" x="100.5" y="7"/><ellipse cx="115.5" cy="27.0938" fill="#B4A7E5" rx="11" ry="11" style="stroke:#181818;stroke-width:1.0;"/><path d="M116.4531,23.7344 L116.4531,30.3906 L118.1719,30.3906 Q118.7813,30.3906 119.0469,30.625 Q119.3125,30.8594 119.3125,31.25 Q119.3125,31.625 119.0469,31.8594 Q118.7813,32.0938 118.1719,32.0938 L113.0313,32.0938 Q112.4219,32.0938 112.1563,31.8594 Q111.8906,31.625 111.8906,31.2344 Q111.8906,30.8594 112.1563,30.625 Q112.4219,30.3906 113.0313,30.3906 L114.75,30.3906 L114.75,23.7344 L113.0313,23.7344 Q112.4219,23.7344 112.1563,23.5 Q111.8906,23.2656 111.8906,22.875 Q111.8906,22.5 112.1563,22.2656 Q112.4219,22.0313 113.0313,22.0313 L118.1719,22.0313 Q118.7813,22.0313 119.0469,22.2656 Q119.3125,22.5 119.3125,22.875 Q119.3125,23.2656 119.0469,23.5 Q118.7813,23.7344 118.1719,23.7344 L116.4531,23.7344 Z " fill="#000000"/><text fill="#000000" font-family="sans-serif" font-size="14" font-style="italic" lengthAdjust="spacing" textLength="73" x="129.5" y="26.5332">Serializable</text><text fill="#000000" font-family="sans-serif" font-size="10" font-style="italic" lengthAdjust="spacing" textLength="31" x="150.5" y="39.9902">java.io</text></g><!--class nz.ac.wgtn.swen225.lc.persistency.AutoActor.Direction--><a href="AutoActor.Direction.html" target="_top" title="AutoActor.Direction.html" xlink:actuate="onRequest" xlink:href="AutoActor.Direction.html" xlink:show="new" xlink:title="AutoActor.Direction.html" xlink:type="simple"><g id="elem_nz.ac.wgtn.swen225.lc.persistency.AutoActor.Direction"><rect codeLine="14" fill="#F1F1F1" height="40.1875" id="nz.ac.wgtn.swen225.lc.persistency.AutoActor.Direction" rx="2.5" ry="2.5" style="stroke:#181818;stroke-width:0.5;" width="194" x="56" y="303.42"/><ellipse cx="71" cy="323.5138" fill="#EB937F" rx="11" ry="11" style="stroke:#181818;stroke-width:1.0;"/><path d="M69.8594,324.3106 L69.8594,326.8106 L74.1875,326.8106 L74.1875,325.8888 Q74.1875,325.2794 74.4219,325.0138 Q74.6719,324.7481 75.0469,324.7481 Q75.4219,324.7481 75.6563,325.0138 Q75.8906,325.2794 75.8906,325.8888 L75.8906,328.5138 L67.8906,328.5138 Q67.2656,328.5138 67,328.2794 Q66.75,328.045 66.75,327.6544 Q66.75,327.2794 67.0156,327.045 Q67.2813,326.8106 67.8906,326.8106 L68.1563,326.8106 L68.1563,320.1544 L67.8906,320.1544 Q67.2656,320.1544 67,319.92 Q66.75,319.6856 66.75,319.295 Q66.75,318.92 67,318.6856 Q67.2656,318.4513 67.8906,318.4513 L75.5156,318.4513 L75.5156,321.045 Q75.5156,321.6544 75.2813,321.92 Q75.0625,322.17 74.6719,322.17 Q74.2969,322.17 74.0625,321.92 Q73.8281,321.6544 73.8281,321.045 L73.8281,320.1544 L69.8594,320.1544 L69.8594,322.6075 L71.3438,322.6075 Q71.3438,321.9513 71.4688,321.7638 Q71.7344,321.3575 72.2031,321.3575 Q72.5781,321.3575 72.8125,321.6231 Q73.0469,321.8731 73.0469,322.4825 L73.0469,324.4513 Q73.0469,324.9981 72.9219,325.1856 Q72.6563,325.5763 72.2031,325.5763 Q71.7344,325.5763 71.4688,325.17 Q71.3438,324.9825 71.3438,324.3106 L69.8594,324.3106 Z " fill="#000000"/><text fill="#000000" font-family="sans-serif" font-size="14" lengthAdjust="spacing" textLength="122" x="105" y="322.9532">AutoActor.Direction</text><text fill="#000000" font-family="sans-serif" font-size="10" lengthAdjust="spacing" textLength="162" x="85" y="336.4102">nz.ac.wgtn.swen225.lc.persistency</text></g></a><!--reverse link java.io.Serializable to nz.ac.wgtn.swen225.lc.persistency.AutoActor--><g id="link_java.io.Serializable_nz.ac.wgtn.swen225.lc.persistency.AutoActor"><path codeLine="16" d="M153,68.19 C153,80.13 153,93.57 153,106.76 " fill="none" id="java.io.Serializable-backto-nz.ac.wgtn.swen225.lc.persistency.AutoActor" style="stroke:#181818;stroke-width:1.0;stroke-dasharray:7.0,7.0;"/><polygon fill="none" points="146,68.51,153,48.51,160,68.51,146,68.51" style="stroke:#181818;stroke-width:1.0;"/></g><!--reverse link nz.ac.wgtn.swen225.lc.persistency.AutoActor to nz.ac.wgtn.swen225.lc.persistency.AutoActor.Direction--><g id="link_nz.ac.wgtn.swen225.lc.persistency.AutoActor_nz.ac.wgtn.swen225.lc.persistency.AutoActor.Direction"><path codeLine="17" d="M153,259.62 C153,275.96 153,291.61 153,303.21 " fill="none" id="nz.ac.wgtn.swen225.lc.persistency.AutoActor-backto-nz.ac.wgtn.swen225.lc.persistency.AutoActor.Direction" style="stroke:#181818;stroke-width:1.0;"/><ellipse cx="153" cy="252.85" fill="#FFFFFF" rx="8" ry="8" style="stroke:#181818;stroke-width:1.0;"/><line style="stroke:#181818;stroke-width:1.0;" x1="153" x2="153" y1="260.85" y2="244.85"/><line style="stroke:#181818;stroke-width:1.0;" x1="145" x2="161" y1="252.85" y2="252.85"/></g><text fill="#888888" font-family="sans-serif" font-size="10" lengthAdjust="spacing" textLength="184" x="54" y="358.9884">UMLDoclet 2.1.0, PlantUML 1.2022.14</text><!--SRC=[jPDHQy8m4CVVzoaEOT2Y7YhRYuWWysMmmS0DDfmFjtZQZ3GfJLJijk- -j9PQHs4uM1_Iz7VNkzp_BW00bXreYjac97Z62QNaJ0hQQBxmPeZaae7ZnErX9LajxKyQiukCnmKNYgo5riZAZ8Vzg_5auyn4-82lkcIziSwG1ExMJgFTiHuChb49J3YrqZhMOjy2il2h5rQnOJwlzXYvM2qMy54S9t_QbIsGsdMWMAOoPU6aqHsurTPHpcuYIiActsemDbiE7gNY-I8SGkLoT5YpUmwyoMSvWIzr-7KGotzoklAormIRSIf9oOpU5DSqUwSjeJI5CkKUwwv5FDQRk4bxhAhzpouSivpqew9bPmwbDzK0eq_4Sp8MaSwPatQt-xUAok7cl66mCYP_FTtVJOrG_leCi8-z3ZmeFqQUmkKsZsPq47u3]--></g></svg>