<?xml version="1.0" encoding="UTF-8" standalone="no"?><svg xmlns="http://www.w3.org/2000/svg" xmlns:xlink="http://www.w3.org/1999/xlink" contentScriptType="application/ecmascript" contentStyleType="text/css" height="665px" preserveAspectRatio="none" style="width:1051px;height:665px;background:#FFFFFF;" version="1.1" viewBox="0 0 1051 665" width="1051px" zoomAndPan="magnify"><defs><filter height="300%" id="fdzsbud96w0wl" width="300%" x="-1" y="-1"><feGaussianBlur result="blurOut" stdDeviation="2.0"/><feColorMatrix in="blurOut" result="blurOut2" type="matrix" values="0 0 0 0 0 0 0 0 0 0 0 0 0 0 0 0 0 0 .4 0"/><feOffset dx="4.0" dy="4.0" in="blurOut2" result="blurOut3"/><feBlend in="SourceGraphic" in2="blurOut3" mode="normal"/></filter></defs><g><!--MD5=[4b7d2fd9f412d52128a393c62b344a69]
cluster nz.ac.wgtn.swen225.lc.persistency--><polygon fill="#FFFFFF" filter="url(#fdzsbud96w0wl)" points="16,6.602,259,6.602,266,31.6699,1034,31.6699,1034,640.112,16,640.112,16,6.602" style="stroke:#000000;stroke-width:1.5;"/><line style="stroke:#000000;stroke-width:1.5;" x1="16" x2="266" y1="31.6699" y2="31.6699"/><text fill="#000000" font-family="sans-serif" font-size="14" font-weight="bold" lengthAdjust="spacing" textLength="237" x="20" y="23.5679">nz.ac.wgtn.swen225.lc.persistency</text><!--MD5=[8a7daa3f025fa236b1ffbc611c26624f]
class nz.ac.wgtn.swen225.lc.persistency.AutoActor--><a href="AutoActor.html" target="_top" title="AutoActor.html" xlink:actuate="onRequest" xlink:href="AutoActor.html" xlink:show="new" xlink:title="AutoActor.html" xlink:type="simple"><rect codeLine="3" fill="#FEFECE" filter="url(#fdzsbud96w0wl)" height="122.9094" id="nz.ac.wgtn.swen225.lc.persistency.AutoActor" style="stroke:#A80036;stroke-width:1.5;" width="249" x="56.5" y="179.892"/><ellipse cx="148.75" cy="195.892" fill="#ADD1B2" rx="11" ry="11" style="stroke:#A80036;stroke-width:1.0;"/><path d="M148.2188,202.8139 Q146.4688,202.8139 145.3281,202.0795 Q144.2031,201.3295 143.6406,199.9857 Q143.0938,198.6264 143.0938,196.8295 Q143.0938,194.7982 143.75,193.3451 Q144.4063,191.892 145.6875,191.1107 Q146.9688,190.3295 148.8438,190.3295 Q149.7344,190.3295 150.4063,190.517 Q151.0781,190.6889 151.7656,191.0326 L150.9531,193.0482 Q150.3281,192.7357 149.7813,192.6107 Q149.25,192.4857 148.7656,192.4857 Q147.5938,192.4857 146.8906,193.017 Q146.1875,193.5482 145.8906,194.5014 Q145.5938,195.4545 145.5938,196.7201 Q145.5938,198.7357 146.3125,199.7045 Q147.0313,200.6576 148.625,200.6576 Q149.2188,200.6576 149.8438,200.5014 Q150.4688,200.3451 151.2969,199.9701 L151.2969,202.1889 Q150.5625,202.5014 149.7656,202.6576 Q148.9844,202.8139 148.2188,202.8139 Z " fill="#000000"/><text fill="#000000" font-family="sans-serif" font-size="12" lengthAdjust="spacing" textLength="56" x="169.25" y="200.548">AutoActor</text><line style="stroke:#A80036;stroke-width:1.5;" x1="57.5" x2="304.5" y1="211.892" y2="211.892"/><line style="stroke:#A80036;stroke-width:1.5;" x1="57.5" x2="304.5" y1="219.892" y2="219.892"/><ellipse cx="67.5" cy="230.892" fill="#84BE84" rx="3" ry="3" style="stroke:#038048;stroke-width:1.0;"/><text fill="#000000" font-family="sans-serif" font-size="11" lengthAdjust="spacing" textLength="223" x="76.5" y="235.6509">AutoActor(int, int, Direction, Instant, Chap)</text><ellipse cx="67.5" cy="245.8739" fill="#84BE84" rx="3" ry="3" style="stroke:#038048;stroke-width:1.0;"/><text fill="#000000" font-family="sans-serif" font-size="11" lengthAdjust="spacing" textLength="59" x="76.5" y="250.6328">AutoActor()</text><ellipse cx="67.5" cy="260.8558" fill="#84BE84" rx="3" ry="3" style="stroke:#038048;stroke-width:1.0;"/><text fill="#000000" font-family="sans-serif" font-size="11" lengthAdjust="spacing" textLength="120" x="76.5" y="265.6147">move(Tile[]): AutoActor</text><ellipse cx="67.5" cy="275.8376" fill="#84BE84" rx="3" ry="3" style="stroke:#038048;stroke-width:1.0;"/><text fill="#000000" font-family="sans-serif" font-size="11" lengthAdjust="spacing" textLength="72" x="76.5" y="280.5966">getX(): double</text><ellipse cx="67.5" cy="290.8195" fill="#84BE84" rx="3" ry="3" style="stroke:#038048;stroke-width:1.0;"/><text fill="#000000" font-family="sans-serif" font-size="11" lengthAdjust="spacing" textLength="72" x="76.5" y="295.5784">getY(): double</text></a><!--MD5=[802bed04ee0ed964813dfc37091afa9c]
class nz.ac.wgtn.swen225.lc.persistency.AutoActor.Direction--><a href="AutoActor.Direction.html" target="_top" title="AutoActor.Direction.html" xlink:actuate="onRequest" xlink:href="AutoActor.Direction.html" xlink:show="new" xlink:title="AutoActor.Direction.html" xlink:type="simple"><rect codeLine="11" fill="#FEFECE" filter="url(#fdzsbud96w0wl)" height="107.9276" id="nz.ac.wgtn.swen225.lc.persistency.AutoActor.Direction" style="stroke:#A80036;stroke-width:1.5;" width="142" x="32" y="516.182"/><ellipse cx="47" cy="532.182" fill="#EB937F" rx="11" ry="11" style="stroke:#A80036;stroke-width:1.0;"/><path d="M43.3594,538.682 L43.3594,526.5414 L51.0156,526.5414 L51.0156,528.6664 L45.7344,528.6664 L45.7344,531.3226 L50.75,531.3226 L50.75,533.4476 L45.7344,533.4476 L45.7344,536.557 L51.0156,536.557 L51.0156,538.682 L43.3594,538.682 Z " fill="#000000"/><text fill="#000000" font-family="sans-serif" font-size="12" lengthAdjust="spacing" textLength="110" x="61" y="536.838">AutoActor.Direction</text><line style="stroke:#A80036;stroke-width:1.5;" x1="33" x2="173" y1="548.182" y2="548.182"/><ellipse cx="43" cy="559.182" rx="3" ry="3" style="stroke:#038048;stroke-width:1.0;fill:none;"/><text fill="#000000" font-family="sans-serif" font-size="11" lengthAdjust="spacing" text-decoration="underline" textLength="15" x="52" y="563.9409">UP</text><ellipse cx="43" cy="574.1639" rx="3" ry="3" style="stroke:#038048;stroke-width:1.0;fill:none;"/><text fill="#000000" font-family="sans-serif" font-size="11" lengthAdjust="spacing" text-decoration="underline" textLength="35" x="52" y="578.9228">DOWN</text><ellipse cx="43" cy="589.1458" rx="3" ry="3" style="stroke:#038048;stroke-width:1.0;fill:none;"/><text fill="#000000" font-family="sans-serif" font-size="11" lengthAdjust="spacing" text-decoration="underline" textLength="24" x="52" y="593.9047">LEFT</text><ellipse cx="43" cy="604.1276" rx="3" ry="3" style="stroke:#038048;stroke-width:1.0;fill:none;"/><text fill="#000000" font-family="sans-serif" font-size="11" lengthAdjust="spacing" text-decoration="underline" textLength="33" x="52" y="608.8866">RIGHT</text><line style="stroke:#A80036;stroke-width:1.5;" x1="33" x2="173" y1="616.1095" y2="616.1095"/></a><!--MD5=[073e18163294d1fbdecc6abb4c2539d2]
class nz.ac.wgtn.swen225.lc.persistency.AutoActor.PluginLoader--><a href="AutoActor.PluginLoader.html" target="_top" title="AutoActor.PluginLoader.html" xlink:actuate="onRequest" xlink:href="AutoActor.PluginLoader.html" xlink:show="new" xlink:title="AutoActor.PluginLoader.html" xlink:type="simple"><rect codeLine="18" fill="#FEFECE" filter="url(#fdzsbud96w0wl)" height="48" id="nz.ac.wgtn.swen225.lc.persistency.AutoActor.PluginLoader" style="stroke:#A80036;stroke-width:1.5;" width="164" x="209" y="546.152"/><ellipse cx="224" cy="562.152" fill="#ADD1B2" rx="11" ry="11" style="stroke:#A80036;stroke-width:1.0;"/><path d="M223.4688,569.0739 Q221.7188,569.0739 220.5781,568.3395 Q219.4531,567.5895 218.8906,566.2457 Q218.3438,564.8864 218.3438,563.0895 Q218.3438,561.0582 219,559.6051 Q219.6563,558.152 220.9375,557.3707 Q222.2188,556.5895 224.0938,556.5895 Q224.9844,556.5895 225.6563,556.777 Q226.3281,556.9489 227.0156,557.2926 L226.2031,559.3082 Q225.5781,558.9957 225.0313,558.8707 Q224.5,558.7457 224.0156,558.7457 Q222.8438,558.7457 222.1406,559.277 Q221.4375,559.8082 221.1406,560.7614 Q220.8438,561.7145 220.8438,562.9801 Q220.8438,564.9957 221.5625,565.9645 Q222.2813,566.9176 223.875,566.9176 Q224.4688,566.9176 225.0938,566.7614 Q225.7188,566.6051 226.5469,566.2301 L226.5469,568.4489 Q225.8125,568.7614 225.0156,568.9176 Q224.2344,569.0739 223.4688,569.0739 Z " fill="#000000"/><text fill="#000000" font-family="sans-serif" font-size="12" lengthAdjust="spacing" textLength="132" x="238" y="566.808">AutoActor.PluginLoader</text><line style="stroke:#A80036;stroke-width:1.5;" x1="210" x2="372" y1="578.152" y2="578.152"/><line style="stroke:#A80036;stroke-width:1.5;" x1="210" x2="372" y1="586.152" y2="586.152"/></a><!--MD5=[f18dd593c0168d1416235e319e5a8b45]
class nz.ac.wgtn.swen225.lc.persistency.Persistency--><a href="Persistency.html" target="_top" title="Persistency.html" xlink:actuate="onRequest" xlink:href="Persistency.html" xlink:show="new" xlink:title="Persistency.html" xlink:type="simple"><rect codeLine="21" fill="#FEFECE" filter="url(#fdzsbud96w0wl)" height="392.5834" id="nz.ac.wgtn.swen225.lc.persistency.Persistency" style="stroke:#A80036;stroke-width:1.5;" width="453" x="364.5" y="44.602"/><ellipse cx="554.75" cy="60.602" fill="#ADD1B2" rx="11" ry="11" style="stroke:#A80036;stroke-width:1.0;"/><path d="M554.2188,67.5239 Q552.4688,67.5239 551.3281,66.7895 Q550.2031,66.0395 549.6406,64.6957 Q549.0938,63.3364 549.0938,61.5395 Q549.0938,59.5082 549.75,58.0551 Q550.4063,56.602 551.6875,55.8207 Q552.9688,55.0395 554.8438,55.0395 Q555.7344,55.0395 556.4063,55.227 Q557.0781,55.3989 557.7656,55.7426 L556.9531,57.7582 Q556.3281,57.4457 555.7813,57.3207 Q555.25,57.1957 554.7656,57.1957 Q553.5938,57.1957 552.8906,57.727 Q552.1875,58.2582 551.8906,59.2114 Q551.5938,60.1645 551.5938,61.4301 Q551.5938,63.4457 552.3125,64.4145 Q553.0313,65.3676 554.625,65.3676 Q555.2188,65.3676 555.8438,65.2114 Q556.4688,65.0551 557.2969,64.6801 L557.2969,66.8989 Q556.5625,67.2114 555.7656,67.3676 Q554.9844,67.5239 554.2188,67.5239 Z " fill="#000000"/><text fill="#000000" font-family="sans-serif" font-size="12" lengthAdjust="spacing" textLength="64" x="575.25" y="65.258">Persistency</text><line style="stroke:#A80036;stroke-width:1.5;" x1="365.5" x2="816.5" y1="76.602" y2="76.602"/><ellipse cx="375.5" cy="87.602" rx="3" ry="3" style="stroke:#038048;stroke-width:1.0;fill:none;"/><text fill="#000000" font-family="sans-serif" font-size="11" lengthAdjust="spacing" textLength="171" x="384.5" y="92.3609">originalBoardTreasureCount: int</text><ellipse cx="375.5" cy="102.5839" rx="3" ry="3" style="stroke:#038048;stroke-width:1.0;fill:none;"/><text fill="#000000" font-family="sans-serif" font-size="11" lengthAdjust="spacing" text-decoration="underline" textLength="54" x="384.5" y="107.3428">level1: File</text><ellipse cx="375.5" cy="117.5658" rx="3" ry="3" style="stroke:#038048;stroke-width:1.0;fill:none;"/><text fill="#000000" font-family="sans-serif" font-size="11" lengthAdjust="spacing" text-decoration="underline" textLength="54" x="384.5" y="122.3247">level2: File</text><ellipse cx="375.5" cy="132.5476" rx="3" ry="3" style="stroke:#038048;stroke-width:1.0;fill:none;"/><text fill="#000000" font-family="sans-serif" font-size="11" lengthAdjust="spacing" textLength="114" x="384.5" y="137.3066">actions: Stack&lt;String&gt;</text><ellipse cx="375.5" cy="147.5295" rx="3" ry="3" style="stroke:#038048;stroke-width:1.0;fill:none;"/><text fill="#000000" font-family="sans-serif" font-size="11" lengthAdjust="spacing" textLength="59" x="384.5" y="152.2884">playerX: int</text><ellipse cx="375.5" cy="162.5114" rx="3" ry="3" style="stroke:#038048;stroke-width:1.0;fill:none;"/><text fill="#000000" font-family="sans-serif" font-size="11" lengthAdjust="spacing" textLength="59" x="384.5" y="167.2703">playerY: int</text><ellipse cx="375.5" cy="177.4933" rx="3" ry="3" style="stroke:#038048;stroke-width:1.0;fill:none;"/><text fill="#000000" font-family="sans-serif" font-size="11" lengthAdjust="spacing" textLength="131" x="384.5" y="182.2522">playerTreasureCount: int</text><ellipse cx="375.5" cy="192.4752" rx="3" ry="3" style="stroke:#038048;stroke-width:1.0;fill:none;"/><text fill="#000000" font-family="sans-serif" font-size="11" lengthAdjust="spacing" textLength="130" x="384.5" y="197.2341">boardTreasureCount: int</text><ellipse cx="375.5" cy="207.4571" rx="3" ry="3" style="stroke:#038048;stroke-width:1.0;fill:none;"/><text fill="#000000" font-family="sans-serif" font-size="11" lengthAdjust="spacing" textLength="63" x="384.5" y="212.216">timeLeft: int</text><ellipse cx="375.5" cy="222.439" rx="3" ry="3" style="stroke:#038048;stroke-width:1.0;fill:none;"/><text fill="#000000" font-family="sans-serif" font-size="11" lengthAdjust="spacing" textLength="44" x="384.5" y="227.1979">level: int</text><ellipse cx="375.5" cy="237.4209" rx="3" ry="3" style="stroke:#038048;stroke-width:1.0;fill:none;"/><text fill="#000000" font-family="sans-serif" font-size="11" lengthAdjust="spacing" textLength="83" x="384.5" y="242.1798">message: String</text><ellipse cx="375.5" cy="252.4027" rx="3" ry="3" style="stroke:#038048;stroke-width:1.0;fill:none;"/><text fill="#000000" font-family="sans-serif" font-size="11" lengthAdjust="spacing" textLength="122" x="384.5" y="257.1617">newFileNumToSave: int</text><ellipse cx="375.5" cy="267.3846" rx="3" ry="3" style="stroke:#038048;stroke-width:1.0;fill:none;"/><text fill="#000000" font-family="sans-serif" font-size="11" lengthAdjust="spacing" textLength="168" x="384.5" y="272.1435">actionsToSave: ArrayList&lt;Move&gt;</text><ellipse cx="375.5" cy="282.3665" rx="3" ry="3" style="stroke:#038048;stroke-width:1.0;fill:none;"/><text fill="#000000" font-family="sans-serif" font-size="11" lengthAdjust="spacing" textLength="96" x="384.5" y="287.1254">playerXToSave: int</text><ellipse cx="375.5" cy="297.3484" rx="3" ry="3" style="stroke:#038048;stroke-width:1.0;fill:none;"/><text fill="#000000" font-family="sans-serif" font-size="11" lengthAdjust="spacing" textLength="96" x="384.5" y="302.1073">playerYToSave: int</text><ellipse cx="375.5" cy="312.3303" rx="3" ry="3" style="stroke:#038048;stroke-width:1.0;fill:none;"/><text fill="#000000" font-family="sans-serif" font-size="11" lengthAdjust="spacing" textLength="168" x="384.5" y="317.0892">playerTreasureCountToSave: int</text><ellipse cx="375.5" cy="327.3122" rx="3" ry="3" style="stroke:#038048;stroke-width:1.0;fill:none;"/><text fill="#000000" font-family="sans-serif" font-size="11" lengthAdjust="spacing" textLength="167" x="384.5" y="332.0711">boardTreasureCountToSave: int</text><ellipse cx="375.5" cy="342.2941" rx="3" ry="3" style="stroke:#038048;stroke-width:1.0;fill:none;"/><text fill="#000000" font-family="sans-serif" font-size="11" lengthAdjust="spacing" textLength="81" x="384.5" y="347.053">levelToSave: int</text><ellipse cx="375.5" cy="357.276" rx="3" ry="3" style="stroke:#038048;stroke-width:1.0;fill:none;"/><text fill="#000000" font-family="sans-serif" font-size="11" lengthAdjust="spacing" textLength="100" x="384.5" y="362.0349">timeLeftToSave: int</text><line style="stroke:#A80036;stroke-width:1.5;" x1="365.5" x2="816.5" y1="369.2579" y2="369.2579"/><ellipse cx="375.5" cy="380.2579" fill="#84BE84" rx="3" ry="3" style="stroke:#038048;stroke-width:1.0;"/><text fill="#000000" font-family="sans-serif" font-size="11" lengthAdjust="spacing" textLength="109" x="384.5" y="385.0168">loadGame(File): Tile[]</text><ellipse cx="375.5" cy="395.2397" fill="#84BE84" rx="3" ry="3" style="stroke:#038048;stroke-width:1.0;"/><text fill="#000000" font-family="sans-serif" font-size="11" lengthAdjust="spacing" textLength="427" x="384.5" y="399.9987">setSaveParameters(int, ArrayList&lt;Move&gt;, int, int, int, int, int, int, Tile[], Chap): void</text><ellipse cx="375.5" cy="410.2216" fill="#84BE84" rx="3" ry="3" style="stroke:#038048;stroke-width:1.0;"/><text fill="#000000" font-family="sans-serif" font-size="11" lengthAdjust="spacing" textLength="88" x="384.5" y="414.9805">saveGame(): void</text><ellipse cx="375.5" cy="425.2035" fill="#84BE84" rx="3" ry="3" style="stroke:#038048;stroke-width:1.0;"/><text fill="#000000" font-family="sans-serif" font-size="11" lengthAdjust="spacing" textLength="104" x="384.5" y="429.9624">resumeGame(): void</text></a><!--MD5=[ce05eba7b4cf2e0f8fe5a1af518330d4]
class nz.ac.wgtn.swen225.lc.persistency.PersistencyTest--><a href="PersistencyTest.html" target="_top" title="PersistencyTest.html" xlink:actuate="onRequest" xlink:href="PersistencyTest.html" xlink:show="new" xlink:title="PersistencyTest.html" xlink:type="simple"><rect codeLine="47" fill="#FEFECE" filter="url(#fdzsbud96w0wl)" height="122.9094" id="nz.ac.wgtn.swen225.lc.persistency.PersistencyTest" style="stroke:#A80036;stroke-width:1.5;" width="165" x="852.5" y="179.442"/><ellipse cx="887.75" cy="195.442" fill="#ADD1B2" rx="11" ry="11" style="stroke:#A80036;stroke-width:1.0;"/><path d="M887.2188,202.3639 Q885.4688,202.3639 884.3281,201.6295 Q883.2031,200.8795 882.6406,199.5357 Q882.0938,198.1764 882.0938,196.3795 Q882.0938,194.3482 882.75,192.8951 Q883.4063,191.442 884.6875,190.6607 Q885.9688,189.8795 887.8438,189.8795 Q888.7344,189.8795 889.4063,190.067 Q890.0781,190.2389 890.7656,190.5826 L889.9531,192.5982 Q889.3281,192.2857 888.7813,192.1607 Q888.25,192.0357 887.7656,192.0357 Q886.5938,192.0357 885.8906,192.567 Q885.1875,193.0982 884.8906,194.0514 Q884.5938,195.0045 884.5938,196.2701 Q884.5938,198.2857 885.3125,199.2545 Q886.0313,200.2076 887.625,200.2076 Q888.2188,200.2076 888.8438,200.0514 Q889.4688,199.8951 890.2969,199.5201 L890.2969,201.7389 Q889.5625,202.0514 888.7656,202.2076 Q887.9844,202.3639 887.2188,202.3639 Z " fill="#000000"/><text fill="#000000" font-family="sans-serif" font-size="12" lengthAdjust="spacing" textLength="88" x="906.25" y="200.098">PersistencyTest</text><line style="stroke:#A80036;stroke-width:1.5;" x1="853.5" x2="1016.5" y1="211.442" y2="211.442"/><line style="stroke:#A80036;stroke-width:1.5;" x1="853.5" x2="1016.5" y1="219.442" y2="219.442"/><ellipse cx="863.5" cy="230.442" fill="#84BE84" rx="3" ry="3" style="stroke:#038048;stroke-width:1.0;"/><text fill="#000000" font-family="sans-serif" font-size="11" lengthAdjust="spacing" textLength="129" x="872.5" y="235.2009">testLoadLevelOne(): void</text><ellipse cx="863.5" cy="245.4239" fill="#84BE84" rx="3" ry="3" style="stroke:#038048;stroke-width:1.0;"/><text fill="#000000" font-family="sans-serif" font-size="11" lengthAdjust="spacing" textLength="129" x="872.5" y="250.1828">testLoadLevelTwo(): void</text><ellipse cx="863.5" cy="260.4058" fill="#84BE84" rx="3" ry="3" style="stroke:#038048;stroke-width:1.0;"/><text fill="#000000" font-family="sans-serif" font-size="11" lengthAdjust="spacing" textLength="88" x="872.5" y="265.1647">loadGame(): void</text><ellipse cx="863.5" cy="275.3876" fill="#84BE84" rx="3" ry="3" style="stroke:#038048;stroke-width:1.0;"/><text fill="#000000" font-family="sans-serif" font-size="11" lengthAdjust="spacing" textLength="125" x="872.5" y="280.1466">testResumeGame(): void</text><ellipse cx="863.5" cy="290.3695" fill="#84BE84" rx="3" ry="3" style="stroke:#038048;stroke-width:1.0;"/><text fill="#000000" font-family="sans-serif" font-size="11" lengthAdjust="spacing" textLength="139" x="872.5" y="295.1284">testGetItemByName(): void</text></a><!--MD5=[56d9889baefa39fdd528430fbbf826e8]
class nz.ac.wgtn.swen225.lc.persistency.PluginLoader--><a href="PluginLoader.html" target="_top" title="PluginLoader.html" xlink:actuate="onRequest" xlink:href="PluginLoader.html" xlink:show="new" xlink:title="PluginLoader.html" xlink:type="simple"><rect codeLine="55" fill="#FEFECE" filter="url(#fdzsbud96w0wl)" height="77.9638" id="nz.ac.wgtn.swen225.lc.persistency.PluginLoader" style="stroke:#A80036;stroke-width:1.5;" width="153" x="514.5" y="531.162"/><ellipse cx="546.6" cy="547.162" fill="#ADD1B2" rx="11" ry="11" style="stroke:#A80036;stroke-width:1.0;"/><path d="M546.0688,554.0839 Q544.3188,554.0839 543.1781,553.3495 Q542.0531,552.5995 541.4906,551.2557 Q540.9438,549.8964 540.9438,548.0995 Q540.9438,546.0682 541.6,544.6151 Q542.2563,543.162 543.5375,542.3807 Q544.8188,541.5995 546.6938,541.5995 Q547.5844,541.5995 548.2563,541.787 Q548.9281,541.9589 549.6156,542.3026 L548.8031,544.3182 Q548.1781,544.0057 547.6313,543.8807 Q547.1,543.7557 546.6156,543.7557 Q545.4438,543.7557 544.7406,544.287 Q544.0375,544.8182 543.7406,545.7714 Q543.4438,546.7245 543.4438,547.9901 Q543.4438,550.0057 544.1625,550.9745 Q544.8813,551.9276 546.475,551.9276 Q547.0688,551.9276 547.6938,551.7714 Q548.3188,551.6151 549.1469,551.2401 L549.1469,553.4589 Q548.4125,553.7714 547.6156,553.9276 Q546.8344,554.0839 546.0688,554.0839 Z " fill="#000000"/><text fill="#000000" font-family="sans-serif" font-size="12" lengthAdjust="spacing" textLength="73" x="564.4" y="551.818">PluginLoader</text><rect fill="#FFFFFF" height="18.3441" style="stroke:#000000;stroke-width:1.0;stroke-dasharray:2.0,2.0;" width="8" x="662.5" y="528.162"/><text fill="#000000" font-family="sans-serif" font-size="12" font-style="italic" lengthAdjust="spacing" textLength="6" x="663.5" y="541.9901">T</text><line style="stroke:#A80036;stroke-width:1.5;" x1="515.5" x2="666.5" y1="563.162" y2="563.162"/><line style="stroke:#A80036;stroke-width:1.5;" x1="515.5" x2="666.5" y1="571.162" y2="571.162"/><ellipse cx="525.5" cy="582.162" fill="#84BE84" rx="3" ry="3" style="stroke:#038048;stroke-width:1.0;"/><text fill="#000000" font-family="sans-serif" font-size="11" lengthAdjust="spacing" textLength="121" x="534.5" y="586.9209">PluginLoader(Class&lt;T&gt;)</text><ellipse cx="525.5" cy="597.1439" fill="#84BE84" rx="3" ry="3" style="stroke:#038048;stroke-width:1.0;"/><text fill="#000000" font-family="sans-serif" font-size="11" lengthAdjust="spacing" textLength="127" x="534.5" y="601.9028">getPlugins(): Iterable&lt;T&gt;</text></a><!--MD5=[f81e2b2fb034a3d397378f3930f95abd]
reverse link nz.ac.wgtn.swen225.lc.persistency.AutoActor to nz.ac.wgtn.swen225.lc.persistency.AutoActor.Direction--><path codeLine="60" d="M163.14,316.842 C148.65,377.622 128.59,461.802 115.7,515.872 " fill="none" id="nz.ac.wgtn.swen225.lc.persistency.AutoActor-backto-nz.ac.wgtn.swen225.lc.persistency.AutoActor.Direction" style="stroke:#A80036;stroke-width:1.0;"/><ellipse cx="164.9277" cy="310.3146" fill="#FFFFFF" rx="8" ry="8" style="stroke:#A80036;stroke-width:1.0;"/><line style="stroke:#A80036;stroke-width:1.0;" x1="163.0754" x2="166.78" y1="318.0972" y2="302.532"/><line style="stroke:#A80036;stroke-width:1.0;" x1="157.1451" x2="172.7103" y1="308.4623" y2="312.1669"/><!--MD5=[785c728ab2429dfb87ec09560ce39519]
reverse link nz.ac.wgtn.swen225.lc.persistency.AutoActor to nz.ac.wgtn.swen225.lc.persistency.AutoActor.PluginLoader--><path codeLine="61" d="M179.56,317.702 C181.36,367.722 189.11,433.482 214,486.182 C224.99,509.462 244.9,530.642 261.72,545.772 " fill="none" id="nz.ac.wgtn.swen225.lc.persistency.AutoActor-backto-nz.ac.wgtn.swen225.lc.persistency.AutoActor.PluginLoader" style="stroke:#A80036;stroke-width:1.0;"/><ellipse cx="179.368" cy="310.7195" fill="#FFFFFF" rx="8" ry="8" style="stroke:#A80036;stroke-width:1.0;"/><line style="stroke:#A80036;stroke-width:1.0;" x1="179.5661" x2="179.17" y1="318.7171" y2="302.722"/><line style="stroke:#A80036;stroke-width:1.0;" x1="171.3705" x2="187.3656" y1="310.9176" y2="310.5215"/><!--MD5=[334168fcb0250dbc8f21e459848bfc81]
link nz.ac.wgtn.swen225.lc.persistency.AutoActor.PluginLoader to nz.ac.wgtn.swen225.lc.persistency.AutoActor--><path codeLine="62" d="M283.15,545.792 C266.61,496.592 227.69,380.802 202.95,307.202 " fill="none" id="nz.ac.wgtn.swen225.lc.persistency.AutoActor.PluginLoader-to-nz.ac.wgtn.swen225.lc.persistency.AutoActor" style="stroke:#A80036;stroke-width:1.0;"/><polygon fill="#A80036" points="201.05,302.532,200.1102,312.3359,202.6354,307.274,207.6974,309.7992,201.05,302.532" style="stroke:#A80036;stroke-width:1.0;"/><text fill="#000000" font-family="sans-serif" font-size="13" lengthAdjust="spacing" textLength="83" x="262" y="482.079">customActors</text><text fill="#000000" font-family="sans-serif" font-size="13" lengthAdjust="spacing" textLength="7" x="202.5319" y="325.0986">*</text><!--MD5=[2c85392a828f1ff33fad1af2b67aed23]
link nz.ac.wgtn.swen225.lc.persistency.Persistency to nz.ac.wgtn.swen225.lc.persistency.PersistencyTest--><!--MD5=[0148f9b059f10b620e754dd1b17252ab]
link nz.ac.wgtn.swen225.lc.persistency.Persistency to nz.ac.wgtn.swen225.lc.persistency.PluginLoader--><text fill="#888888" font-family="sans-serif" font-size="10" lengthAdjust="spacing" textLength="182" x="428" y="656.802">UMLDoclet 2.0.14, PlantUML 1.2021.9</text><!--MD5=[e4c69124bc7f59f5a7b955053b3514b9]
@startuml
    namespace nz.ac.wgtn.swen225.lc.persistency {

        class AutoActor [[AutoActor.html]] {
            +AutoActor(int, int, Direction, Instant, Chap)
            +AutoActor()
            +move(Tile[]): AutoActor
            +getX(): double
            +getY(): double
        }

        enum nz.ac.wgtn.swen225.lc.persistency.AutoActor.Direction [[AutoActor.Direction.html]] {
            {static} +UP
            {static} +DOWN
            {static} +LEFT
            {static} +RIGHT
        }

        class nz.ac.wgtn.swen225.lc.persistency.AutoActor.PluginLoader [[AutoActor.PluginLoader.html]] {
        }

        class Persistency [[Persistency.html]] {
            +originalBoardTreasureCount: int
            {static} +level1: File
            {static} +level2: File
            +actions: Stack<String>
            +playerX: int
            +playerY: int
            +playerTreasureCount: int
            +boardTreasureCount: int
            +timeLeft: int
            +level: int
            +message: String
            +newFileNumToSave: int
            +actionsToSave: ArrayList<Move>
            +playerXToSave: int
            +playerYToSave: int
            +playerTreasureCountToSave: int
            +boardTreasureCountToSave: int
            +levelToSave: int
            +timeLeftToSave: int
            +loadGame(File): Tile[]
            +setSaveParameters(int, ArrayList<Move>, int, int, int, int, int, int, Tile[], Chap): void
            +saveGame(): void
            +resumeGame(): void
        }

        class PersistencyTest [[PersistencyTest.html]] {
            +testLoadLevelOne(): void
            +testLoadLevelTwo(): void
            +loadGame(): void
            +testResumeGame(): void
            +testGetItemByName(): void
        }

        class PluginLoader<T> [[PluginLoader.html]] {
            +PluginLoader(Class<T>)
            +getPlugins(): Iterable<T>
        }

        AutoActor +- - nz.ac.wgtn.swen225.lc.persistency.AutoActor.Direction
        AutoActor +- - nz.ac.wgtn.swen225.lc.persistency.AutoActor.PluginLoader
        nz.ac.wgtn.swen225.lc.persistency.AutoActor.PluginLoader - -> "*" AutoActor: customActors
    }

    center footer UMLDoclet 2.0.14, PlantUML 1.2021.9
@enduml

PlantUML version 1.2021.9(Sun Jul 25 22:13:56 NZST 2021)
(APACHE source distribution)
Java Runtime: OpenJDK Runtime Environment
JVM: OpenJDK 64-Bit Server VM
Default Encoding: UTF-8
Language: en
Country: NZ
--></g></svg>