<?xml version="1.0" encoding="UTF-8" standalone="no"?><svg xmlns="http://www.w3.org/2000/svg" xmlns:xlink="http://www.w3.org/1999/xlink" contentStyleType="text/css" height="983px" preserveAspectRatio="none" style="width:1193px;height:983px;background:#FFFFFF;" version="1.1" viewBox="0 0 1193 983" width="1193px" zoomAndPan="magnify"><defs/><g><!--cluster nz.ac.wgtn.swen225.lc.persistency--><g id="cluster_nz.ac.wgtn.swen225.lc.persistency"><path d="M8.5,6 L250.5,6 A3.75,3.75 0 0 1 253,8.5 L260,29.6094 L1023.5,29.6094 A2.5,2.5 0 0 1 1026,32.1094 L1026,954.83 A2.5,2.5 0 0 1 1023.5,957.33 L8.5,957.33 A2.5,2.5 0 0 1 6,954.83 L6,8.5 A2.5,2.5 0 0 1 8.5,6 " fill="none" style="stroke:#000000;stroke-width:1.5;"/><line style="stroke:#000000;stroke-width:1.5;" x1="6" x2="260" y1="29.6094" y2="29.6094"/><text fill="#000000" font-family="sans-serif" font-size="14" font-weight="bold" lengthAdjust="spacing" textLength="241" x="10" y="22.5332">nz.ac.wgtn.swen225.lc.persistency</text></g><!--cluster java.io--><g id="cluster_java.io"><path d="M1052.5,234.92 L1099.5,234.92 A3.75,3.75 0 0 1 1102,237.42 L1109,258.5294 L1183.5,258.5294 A2.5,2.5 0 0 1 1186,261.0294 L1186,332.42 A2.5,2.5 0 0 1 1183.5,334.92 L1052.5,334.92 A2.5,2.5 0 0 1 1050,332.42 L1050,237.42 A2.5,2.5 0 0 1 1052.5,234.92 " fill="none" style="stroke:#000000;stroke-width:1.5;"/><line style="stroke:#000000;stroke-width:1.5;" x1="1050" x2="1109" y1="258.5294" y2="258.5294"/><text fill="#000000" font-family="sans-serif" font-size="14" font-weight="bold" lengthAdjust="spacing" textLength="46" x="1054" y="251.4532">java.io</text></g><!--class nz.ac.wgtn.swen225.lc.persistency.AutoActor--><a href="AutoActor.html" target="_top" title="AutoActor.html" xlink:actuate="onRequest" xlink:href="AutoActor.html" xlink:show="new" xlink:title="AutoActor.html" xlink:type="simple"><g id="elem_nz.ac.wgtn.swen225.lc.persistency.AutoActor"><rect codeLine="3" fill="#F1F1F1" height="136.0469" id="nz.ac.wgtn.swen225.lc.persistency.AutoActor" rx="2.5" ry="2.5" style="stroke:#181818;stroke-width:0.5;" width="292" x="686" y="625.85"/><ellipse cx="796.75" cy="641.85" fill="#ADD1B2" rx="11" ry="11" style="stroke:#181818;stroke-width:1.0;"/><path d="M799.5156,637.725 Q799.6719,637.5063 799.8594,637.3969 Q800.0469,637.2875 800.2656,637.2875 Q800.6406,637.2875 800.875,637.5531 Q801.1094,637.8031 801.1094,638.4125 L801.1094,639.8656 Q801.1094,640.475 800.875,640.7406 Q800.6406,641.0063 800.2656,641.0063 Q799.9219,641.0063 799.7188,640.8031 Q799.5156,640.6156 799.4063,640.1 Q799.3594,639.7406 799.1719,639.5531 Q798.8438,639.1781 798.2344,638.9594 Q797.625,638.7406 797,638.7406 Q796.2344,638.7406 795.5938,639.0688 Q794.9688,639.3969 794.4688,640.1469 Q793.9844,640.8969 793.9844,641.9281 L793.9844,643.0219 Q793.9844,644.2563 794.875,645.0844 Q795.7656,645.8969 797.3594,645.8969 Q798.2969,645.8969 798.9531,645.6469 Q799.3438,645.4906 799.7656,645.0531 Q800.0313,644.7875 800.1719,644.7094 Q800.3281,644.6313 800.5313,644.6313 Q800.8594,644.6313 801.1094,644.8969 Q801.375,645.1469 801.375,645.4906 Q801.375,645.8344 801.0313,646.2406 Q800.5313,646.8188 799.7344,647.1469 Q798.6563,647.6 797.3594,647.6 Q795.8438,647.6 794.6406,646.975 Q793.6563,646.475 792.9688,645.4125 Q792.2813,644.3344 792.2813,643.0531 L792.2813,641.8969 Q792.2813,640.5688 792.8906,639.4281 Q793.5156,638.2719 794.6094,637.6625 Q795.7031,637.0375 796.9375,637.0375 Q797.6719,637.0375 798.3125,637.2094 Q798.9688,637.3656 799.5156,637.725 Z " fill="#000000"/><text fill="#000000" font-family="sans-serif" font-size="14" lengthAdjust="spacing" textLength="62" x="817.25" y="647.5785">AutoActor</text><line style="stroke:#181818;stroke-width:0.5;" x1="687" x2="977" y1="657.85" y2="657.85"/><line style="stroke:#181818;stroke-width:0.5;" x1="687" x2="977" y1="665.85" y2="665.85"/><ellipse cx="697" cy="680.1547" fill="#84BE84" rx="3" ry="3" style="stroke:#038048;stroke-width:1.0;"/><text fill="#000000" font-family="sans-serif" font-size="14" lengthAdjust="spacing" textLength="266" x="706" y="684.3832">AutoActor(int, int, Direction, Instant, Chap)</text><ellipse cx="697" cy="697.7641" fill="#84BE84" rx="3" ry="3" style="stroke:#038048;stroke-width:1.0;"/><text fill="#000000" font-family="sans-serif" font-size="14" lengthAdjust="spacing" textLength="72" x="706" y="701.9926">AutoActor()</text><ellipse cx="697" cy="715.3734" fill="#84BE84" rx="3" ry="3" style="stroke:#038048;stroke-width:1.0;"/><text fill="#000000" font-family="sans-serif" font-size="14" lengthAdjust="spacing" textLength="145" x="706" y="719.602">move(Tile[]): AutoActor</text><ellipse cx="697" cy="732.9828" fill="#84BE84" rx="3" ry="3" style="stroke:#038048;stroke-width:1.0;"/><text fill="#000000" font-family="sans-serif" font-size="14" lengthAdjust="spacing" textLength="61" x="706" y="737.2113">getX(): int</text><ellipse cx="697" cy="750.5922" fill="#84BE84" rx="3" ry="3" style="stroke:#038048;stroke-width:1.0;"/><text fill="#000000" font-family="sans-serif" font-size="14" lengthAdjust="spacing" textLength="62" x="706" y="754.8207">getY(): int</text></g></a><!--class nz.ac.wgtn.swen225.lc.persistency.AutoActor.Direction--><a href="AutoActor.Direction.html" target="_top" title="AutoActor.Direction.html" xlink:actuate="onRequest" xlink:href="AutoActor.Direction.html" xlink:show="new" xlink:title="AutoActor.Direction.html" xlink:type="simple"><g id="elem_nz.ac.wgtn.swen225.lc.persistency.AutoActor.Direction"><rect codeLine="11" fill="#F1F1F1" height="118.4375" id="nz.ac.wgtn.swen225.lc.persistency.AutoActor.Direction" rx="2.5" ry="2.5" style="stroke:#181818;stroke-width:0.5;" width="154" x="755" y="822.89"/><ellipse cx="770" cy="838.89" fill="#EB937F" rx="11" ry="11" style="stroke:#181818;stroke-width:1.0;"/><path d="M768.8594,839.6869 L768.8594,842.1869 L773.1875,842.1869 L773.1875,841.265 Q773.1875,840.6556 773.4219,840.39 Q773.6719,840.1244 774.0469,840.1244 Q774.4219,840.1244 774.6563,840.39 Q774.8906,840.6556 774.8906,841.265 L774.8906,843.89 L766.8906,843.89 Q766.2656,843.89 766,843.6556 Q765.75,843.4213 765.75,843.0306 Q765.75,842.6556 766.0156,842.4213 Q766.2813,842.1869 766.8906,842.1869 L767.1563,842.1869 L767.1563,835.5306 L766.8906,835.5306 Q766.2656,835.5306 766,835.2963 Q765.75,835.0619 765.75,834.6713 Q765.75,834.2963 766,834.0619 Q766.2656,833.8275 766.8906,833.8275 L774.5156,833.8275 L774.5156,836.4213 Q774.5156,837.0306 774.2813,837.2963 Q774.0625,837.5463 773.6719,837.5463 Q773.2969,837.5463 773.0625,837.2963 Q772.8281,837.0306 772.8281,836.4213 L772.8281,835.5306 L768.8594,835.5306 L768.8594,837.9838 L770.3438,837.9838 Q770.3438,837.3275 770.4688,837.14 Q770.7344,836.7338 771.2031,836.7338 Q771.5781,836.7338 771.8125,836.9994 Q772.0469,837.2494 772.0469,837.8588 L772.0469,839.8275 Q772.0469,840.3744 771.9219,840.5619 Q771.6563,840.9525 771.2031,840.9525 Q770.7344,840.9525 770.4688,840.5463 Q770.3438,840.3588 770.3438,839.6869 L768.8594,839.6869 Z " fill="#000000"/><text fill="#000000" font-family="sans-serif" font-size="14" lengthAdjust="spacing" textLength="122" x="784" y="844.6185">AutoActor.Direction</text><line style="stroke:#181818;stroke-width:0.5;" x1="756" x2="908" y1="854.89" y2="854.89"/><ellipse cx="766" cy="869.1947" fill="none" rx="3" ry="3" style="stroke:#038048;stroke-width:1.0;"/><text fill="#000000" font-family="sans-serif" font-size="14" lengthAdjust="spacing" text-decoration="underline" textLength="18" x="775" y="873.4232">UP</text><ellipse cx="766" cy="886.8041" fill="none" rx="3" ry="3" style="stroke:#038048;stroke-width:1.0;"/><text fill="#000000" font-family="sans-serif" font-size="14" lengthAdjust="spacing" text-decoration="underline" textLength="43" x="775" y="891.0326">DOWN</text><ellipse cx="766" cy="904.4134" fill="none" rx="3" ry="3" style="stroke:#038048;stroke-width:1.0;"/><text fill="#000000" font-family="sans-serif" font-size="14" lengthAdjust="spacing" text-decoration="underline" textLength="35" x="775" y="908.642">LEFT</text><ellipse cx="766" cy="922.0228" fill="none" rx="3" ry="3" style="stroke:#038048;stroke-width:1.0;"/><text fill="#000000" font-family="sans-serif" font-size="14" lengthAdjust="spacing" text-decoration="underline" textLength="42" x="775" y="926.2513">RIGHT</text><line style="stroke:#181818;stroke-width:0.5;" x1="756" x2="908" y1="933.3275" y2="933.3275"/></g></a><!--class nz.ac.wgtn.swen225.lc.persistency.Persistency--><a href="Persistency.html" target="_top" title="Persistency.html" xlink:actuate="onRequest" xlink:href="Persistency.html" xlink:show="new" xlink:title="Persistency.html" xlink:type="simple"><g id="elem_nz.ac.wgtn.swen225.lc.persistency.Persistency"><rect codeLine="18" fill="#F1F1F1" height="505.8438" id="nz.ac.wgtn.swen225.lc.persistency.Persistency" rx="2.5" ry="2.5" style="stroke:#181818;stroke-width:0.5;" width="542" x="468" y="42"/><ellipse cx="698.25" cy="58" fill="#ADD1B2" rx="11" ry="11" style="stroke:#181818;stroke-width:1.0;"/><path d="M701.0156,53.875 Q701.1719,53.6563 701.3594,53.5469 Q701.5469,53.4375 701.7656,53.4375 Q702.1406,53.4375 702.375,53.7031 Q702.6094,53.9531 702.6094,54.5625 L702.6094,56.0156 Q702.6094,56.625 702.375,56.8906 Q702.1406,57.1563 701.7656,57.1563 Q701.4219,57.1563 701.2188,56.9531 Q701.0156,56.7656 700.9063,56.25 Q700.8594,55.8906 700.6719,55.7031 Q700.3438,55.3281 699.7344,55.1094 Q699.125,54.8906 698.5,54.8906 Q697.7344,54.8906 697.0938,55.2188 Q696.4688,55.5469 695.9688,56.2969 Q695.4844,57.0469 695.4844,58.0781 L695.4844,59.1719 Q695.4844,60.4063 696.375,61.2344 Q697.2656,62.0469 698.8594,62.0469 Q699.7969,62.0469 700.4531,61.7969 Q700.8438,61.6406 701.2656,61.2031 Q701.5313,60.9375 701.6719,60.8594 Q701.8281,60.7813 702.0313,60.7813 Q702.3594,60.7813 702.6094,61.0469 Q702.875,61.2969 702.875,61.6406 Q702.875,61.9844 702.5313,62.3906 Q702.0313,62.9688 701.2344,63.2969 Q700.1563,63.75 698.8594,63.75 Q697.3438,63.75 696.1406,63.125 Q695.1563,62.625 694.4688,61.5625 Q693.7813,60.4844 693.7813,59.2031 L693.7813,58.0469 Q693.7813,56.7188 694.3906,55.5781 Q695.0156,54.4219 696.1094,53.8125 Q697.2031,53.1875 698.4375,53.1875 Q699.1719,53.1875 699.8125,53.3594 Q700.4688,53.5156 701.0156,53.875 Z " fill="#000000"/><text fill="#000000" font-family="sans-serif" font-size="14" lengthAdjust="spacing" textLength="73" x="718.75" y="63.7285">Persistency</text><line style="stroke:#181818;stroke-width:0.5;" x1="469" x2="1009" y1="74" y2="74"/><ellipse cx="479" cy="88.3047" fill="none" rx="3" ry="3" style="stroke:#038048;stroke-width:1.0;"/><text fill="#000000" font-family="sans-serif" font-size="14" lengthAdjust="spacing" textLength="203" x="488" y="92.5332">originalBoardTreasureCount: int</text><ellipse cx="479" cy="105.9141" fill="none" rx="3" ry="3" style="stroke:#038048;stroke-width:1.0;"/><text fill="#000000" font-family="sans-serif" font-size="14" lengthAdjust="spacing" text-decoration="underline" textLength="68" x="488" y="110.1426">level1: File</text><ellipse cx="479" cy="123.5234" fill="none" rx="3" ry="3" style="stroke:#038048;stroke-width:1.0;"/><text fill="#000000" font-family="sans-serif" font-size="14" lengthAdjust="spacing" text-decoration="underline" textLength="68" x="488" y="127.752">level2: File</text><ellipse cx="479" cy="141.1328" fill="none" rx="3" ry="3" style="stroke:#038048;stroke-width:1.0;"/><text fill="#000000" font-family="sans-serif" font-size="14" lengthAdjust="spacing" textLength="141" x="488" y="145.3613">actions: Stack&lt;String&gt;</text><ellipse cx="479" cy="158.7422" fill="none" rx="3" ry="3" style="stroke:#038048;stroke-width:1.0;"/><text fill="#000000" font-family="sans-serif" font-size="14" lengthAdjust="spacing" textLength="70" x="488" y="162.9707">playerX: int</text><ellipse cx="479" cy="176.3516" fill="none" rx="3" ry="3" style="stroke:#038048;stroke-width:1.0;"/><text fill="#000000" font-family="sans-serif" font-size="14" lengthAdjust="spacing" textLength="71" x="488" y="180.5801">playerY: int</text><ellipse cx="479" cy="193.9609" fill="none" rx="3" ry="3" style="stroke:#038048;stroke-width:1.0;"/><text fill="#000000" font-family="sans-serif" font-size="14" lengthAdjust="spacing" textLength="158" x="488" y="198.1895">playerTreasureCount: int</text><ellipse cx="479" cy="211.5703" fill="none" rx="3" ry="3" style="stroke:#038048;stroke-width:1.0;"/><text fill="#000000" font-family="sans-serif" font-size="14" lengthAdjust="spacing" textLength="80" x="488" y="215.7988">invent: Item[]</text><ellipse cx="479" cy="229.1797" fill="none" rx="3" ry="3" style="stroke:#038048;stroke-width:1.0;"/><text fill="#000000" font-family="sans-serif" font-size="14" lengthAdjust="spacing" textLength="156" x="488" y="233.4082">boardTreasureCount: int</text><ellipse cx="479" cy="246.7891" fill="none" rx="3" ry="3" style="stroke:#038048;stroke-width:1.0;"/><text fill="#000000" font-family="sans-serif" font-size="14" lengthAdjust="spacing" textLength="73" x="488" y="251.0176">timeLeft: int</text><ellipse cx="479" cy="264.3984" fill="none" rx="3" ry="3" style="stroke:#038048;stroke-width:1.0;"/><text fill="#000000" font-family="sans-serif" font-size="14" lengthAdjust="spacing" textLength="52" x="488" y="268.627">level: int</text><ellipse cx="479" cy="282.0078" fill="none" rx="3" ry="3" style="stroke:#038048;stroke-width:1.0;"/><text fill="#000000" font-family="sans-serif" font-size="14" lengthAdjust="spacing" textLength="102" x="488" y="286.2363">message: String</text><ellipse cx="479" cy="299.6172" fill="none" rx="3" ry="3" style="stroke:#038048;stroke-width:1.0;"/><text fill="#000000" font-family="sans-serif" font-size="14" lengthAdjust="spacing" textLength="148" x="488" y="303.8457">newFileNumToSave: int</text><ellipse cx="479" cy="317.2266" fill="none" rx="3" ry="3" style="stroke:#038048;stroke-width:1.0;"/><text fill="#000000" font-family="sans-serif" font-size="14" lengthAdjust="spacing" textLength="208" x="488" y="321.4551">actionsToSave: ArrayList&lt;Move&gt;</text><ellipse cx="479" cy="334.8359" fill="none" rx="3" ry="3" style="stroke:#038048;stroke-width:1.0;"/><text fill="#000000" font-family="sans-serif" font-size="14" lengthAdjust="spacing" textLength="119" x="488" y="339.0645">playerXToSave: int</text><ellipse cx="479" cy="352.4453" fill="none" rx="3" ry="3" style="stroke:#038048;stroke-width:1.0;"/><text fill="#000000" font-family="sans-serif" font-size="14" lengthAdjust="spacing" textLength="120" x="488" y="356.6738">playerYToSave: int</text><ellipse cx="479" cy="370.0547" fill="none" rx="3" ry="3" style="stroke:#038048;stroke-width:1.0;"/><text fill="#000000" font-family="sans-serif" font-size="14" lengthAdjust="spacing" textLength="207" x="488" y="374.2832">playerTreasureCountToSave: int</text><ellipse cx="479" cy="387.6641" fill="none" rx="3" ry="3" style="stroke:#038048;stroke-width:1.0;"/><text fill="#000000" font-family="sans-serif" font-size="14" lengthAdjust="spacing" textLength="205" x="488" y="391.8926">boardTreasureCountToSave: int</text><ellipse cx="479" cy="405.2734" fill="none" rx="3" ry="3" style="stroke:#038048;stroke-width:1.0;"/><text fill="#000000" font-family="sans-serif" font-size="14" lengthAdjust="spacing" textLength="101" x="488" y="409.502">levelToSave: int</text><ellipse cx="479" cy="422.8828" fill="none" rx="3" ry="3" style="stroke:#038048;stroke-width:1.0;"/><text fill="#000000" font-family="sans-serif" font-size="14" lengthAdjust="spacing" textLength="122" x="488" y="427.1113">timeLeftToSave: int</text><line style="stroke:#181818;stroke-width:0.5;" x1="469" x2="1009" y1="434.1875" y2="434.1875"/><ellipse cx="479" cy="448.4922" fill="#84BE84" rx="3" ry="3" style="stroke:#038048;stroke-width:1.0;"/><text fill="#000000" font-family="sans-serif" font-size="14" lengthAdjust="spacing" textLength="108" x="488" y="452.7207">Persistency(App)</text><ellipse cx="479" cy="466.1016" fill="#84BE84" rx="3" ry="3" style="stroke:#038048;stroke-width:1.0;"/><text fill="#000000" font-family="sans-serif" font-size="14" lengthAdjust="spacing" textLength="83" x="488" y="470.3301">Persistency()</text><ellipse cx="479" cy="483.7109" fill="#84BE84" rx="3" ry="3" style="stroke:#038048;stroke-width:1.0;"/><text fill="#000000" font-family="sans-serif" font-size="14" lengthAdjust="spacing" textLength="137" x="488" y="487.9395">loadGame(File): Tile[]</text><ellipse cx="479" cy="501.3203" fill="#84BE84" rx="3" ry="3" style="stroke:#038048;stroke-width:1.0;"/><text fill="#000000" font-family="sans-serif" font-size="14" lengthAdjust="spacing" textLength="516" x="488" y="505.5488">setSaveParameters(int, ArrayList&lt;Move&gt;, int, int, int, int, int, int, Tile[], Item[]): void</text><ellipse cx="479" cy="518.9297" fill="#84BE84" rx="3" ry="3" style="stroke:#038048;stroke-width:1.0;"/><text fill="#000000" font-family="sans-serif" font-size="14" lengthAdjust="spacing" textLength="149" x="488" y="523.1582">saveGame(String): void</text><ellipse cx="479" cy="536.5391" fill="#84BE84" rx="3" ry="3" style="stroke:#038048;stroke-width:1.0;"/><text fill="#000000" font-family="sans-serif" font-size="14" lengthAdjust="spacing" textLength="129" x="488" y="540.7676">resumeGame(): void</text></g></a><!--class nz.ac.wgtn.swen225.lc.persistency.PersistencyTest--><a href="PersistencyTest.html" target="_top" title="PersistencyTest.html" xlink:actuate="onRequest" xlink:href="PersistencyTest.html" xlink:show="new" xlink:title="PersistencyTest.html" xlink:type="simple"><g id="elem_nz.ac.wgtn.swen225.lc.persistency.PersistencyTest"><rect codeLine="47" fill="#F1F1F1" height="136.0469" id="nz.ac.wgtn.swen225.lc.persistency.PersistencyTest" rx="2.5" ry="2.5" style="stroke:#181818;stroke-width:0.5;" width="194" x="239" y="226.9"/><ellipse cx="281.45" cy="242.9" fill="#ADD1B2" rx="11" ry="11" style="stroke:#181818;stroke-width:1.0;"/><path d="M284.2156,238.775 Q284.3719,238.5563 284.5594,238.4469 Q284.7469,238.3375 284.9656,238.3375 Q285.3406,238.3375 285.575,238.6031 Q285.8094,238.8531 285.8094,239.4625 L285.8094,240.9156 Q285.8094,241.525 285.575,241.7906 Q285.3406,242.0563 284.9656,242.0563 Q284.6219,242.0563 284.4188,241.8531 Q284.2156,241.6656 284.1063,241.15 Q284.0594,240.7906 283.8719,240.6031 Q283.5438,240.2281 282.9344,240.0094 Q282.325,239.7906 281.7,239.7906 Q280.9344,239.7906 280.2938,240.1188 Q279.6688,240.4469 279.1688,241.1969 Q278.6844,241.9469 278.6844,242.9781 L278.6844,244.0719 Q278.6844,245.3063 279.575,246.1344 Q280.4656,246.9469 282.0594,246.9469 Q282.9969,246.9469 283.6531,246.6969 Q284.0438,246.5406 284.4656,246.1031 Q284.7313,245.8375 284.8719,245.7594 Q285.0281,245.6813 285.2313,245.6813 Q285.5594,245.6813 285.8094,245.9469 Q286.075,246.1969 286.075,246.5406 Q286.075,246.8844 285.7313,247.2906 Q285.2313,247.8688 284.4344,248.1969 Q283.3563,248.65 282.0594,248.65 Q280.5438,248.65 279.3406,248.025 Q278.3563,247.525 277.6688,246.4625 Q276.9813,245.3844 276.9813,244.1031 L276.9813,242.9469 Q276.9813,241.6188 277.5906,240.4781 Q278.2156,239.3219 279.3094,238.7125 Q280.4031,238.0875 281.6375,238.0875 Q282.3719,238.0875 283.0125,238.2594 Q283.6688,238.4156 284.2156,238.775 Z " fill="#000000"/><text fill="#000000" font-family="sans-serif" font-size="14" lengthAdjust="spacing" textLength="101" x="301.55" y="248.6285">PersistencyTest</text><line style="stroke:#181818;stroke-width:0.5;" x1="240" x2="432" y1="258.9" y2="258.9"/><line style="stroke:#181818;stroke-width:0.5;" x1="240" x2="432" y1="266.9" y2="266.9"/><ellipse cx="250" cy="281.2047" fill="#84BE84" rx="3" ry="3" style="stroke:#038048;stroke-width:1.0;"/><text fill="#000000" font-family="sans-serif" font-size="14" lengthAdjust="spacing" textLength="160" x="259" y="285.4332">testLoadLevelOne(): void</text><ellipse cx="250" cy="298.8141" fill="#84BE84" rx="3" ry="3" style="stroke:#038048;stroke-width:1.0;"/><text fill="#000000" font-family="sans-serif" font-size="14" lengthAdjust="spacing" textLength="159" x="259" y="303.0426">testLoadLevelTwo(): void</text><ellipse cx="250" cy="316.4234" fill="#84BE84" rx="3" ry="3" style="stroke:#038048;stroke-width:1.0;"/><text fill="#000000" font-family="sans-serif" font-size="14" lengthAdjust="spacing" textLength="109" x="259" y="320.652">loadGame(): void</text><ellipse cx="250" cy="334.0328" fill="#84BE84" rx="3" ry="3" style="stroke:#038048;stroke-width:1.0;"/><text fill="#000000" font-family="sans-serif" font-size="14" lengthAdjust="spacing" textLength="157" x="259" y="338.2613">testResumeGame(): void</text><ellipse cx="250" cy="351.6422" fill="#84BE84" rx="3" ry="3" style="stroke:#038048;stroke-width:1.0;"/><text fill="#000000" font-family="sans-serif" font-size="14" lengthAdjust="spacing" textLength="168" x="259" y="355.8707">testGetItemByName(): void</text></g></a><!--class nz.ac.wgtn.swen225.lc.persistency.PluginLoader--><a href="PluginLoader.html" target="_top" title="PluginLoader.html" xlink:actuate="onRequest" xlink:href="PluginLoader.html" xlink:show="new" xlink:title="PluginLoader.html" xlink:type="simple"><g id="elem_nz.ac.wgtn.swen225.lc.persistency.PluginLoader"><rect codeLine="55" fill="#F1F1F1" height="83.2188" id="nz.ac.wgtn.swen225.lc.persistency.PluginLoader" rx="2.5" ry="2.5" style="stroke:#181818;stroke-width:0.5;" width="182" x="22" y="253.31"/><ellipse cx="61.75" cy="269.31" fill="#ADD1B2" rx="11" ry="11" style="stroke:#181818;stroke-width:1.0;"/><path d="M64.5156,265.185 Q64.6719,264.9663 64.8594,264.8569 Q65.0469,264.7475 65.2656,264.7475 Q65.6406,264.7475 65.875,265.0131 Q66.1094,265.2631 66.1094,265.8725 L66.1094,267.3256 Q66.1094,267.935 65.875,268.2006 Q65.6406,268.4663 65.2656,268.4663 Q64.9219,268.4663 64.7188,268.2631 Q64.5156,268.0756 64.4063,267.56 Q64.3594,267.2006 64.1719,267.0131 Q63.8438,266.6381 63.2344,266.4194 Q62.625,266.2006 62,266.2006 Q61.2344,266.2006 60.5938,266.5288 Q59.9688,266.8569 59.4688,267.6069 Q58.9844,268.3569 58.9844,269.3881 L58.9844,270.4819 Q58.9844,271.7163 59.875,272.5444 Q60.7656,273.3569 62.3594,273.3569 Q63.2969,273.3569 63.9531,273.1069 Q64.3438,272.9506 64.7656,272.5131 Q65.0313,272.2475 65.1719,272.1694 Q65.3281,272.0913 65.5313,272.0913 Q65.8594,272.0913 66.1094,272.3569 Q66.375,272.6069 66.375,272.9506 Q66.375,273.2944 66.0313,273.7006 Q65.5313,274.2788 64.7344,274.6069 Q63.6563,275.06 62.3594,275.06 Q60.8438,275.06 59.6406,274.435 Q58.6563,273.935 57.9688,272.8725 Q57.2813,271.7944 57.2813,270.5131 L57.2813,269.3569 Q57.2813,268.0288 57.8906,266.8881 Q58.5156,265.7319 59.6094,265.1225 Q60.7031,264.4975 61.9375,264.4975 Q62.6719,264.4975 63.3125,264.6694 Q63.9688,264.8256 64.5156,265.185 Z " fill="#000000"/><text fill="#000000" font-family="sans-serif" font-size="14" lengthAdjust="spacing" textLength="84" x="81.25" y="275.0385">PluginLoader</text><rect fill="#FFFFFF" height="17.0938" style="stroke:#181818;stroke-width:1.0;stroke-dasharray:2.0,2.0;" width="9" x="198" y="250.31"/><text fill="#000000" font-family="sans-serif" font-size="12" font-style="italic" lengthAdjust="spacing" textLength="7" x="199" y="263.767">T</text><line style="stroke:#181818;stroke-width:0.5;" x1="23" x2="203" y1="285.31" y2="285.31"/><line style="stroke:#181818;stroke-width:0.5;" x1="23" x2="203" y1="293.31" y2="293.31"/><ellipse cx="33" cy="307.6147" fill="#84BE84" rx="3" ry="3" style="stroke:#038048;stroke-width:1.0;"/><text fill="#000000" font-family="sans-serif" font-size="14" lengthAdjust="spacing" textLength="154" x="42" y="311.8432">PluginLoader(Class&lt;T&gt;)</text><ellipse cx="33" cy="325.2241" fill="#84BE84" rx="3" ry="3" style="stroke:#038048;stroke-width:1.0;"/><text fill="#000000" font-family="sans-serif" font-size="14" lengthAdjust="spacing" textLength="156" x="42" y="329.4526">getPlugins(): Iterable&lt;T&gt;</text></g></a><!--class java.io.Serializable--><g id="elem_java.io.Serializable"><rect codeLine="66" fill="#F1F1F1" height="48" id="java.io.Serializable" rx="2.5" ry="2.5" style="stroke:#181818;stroke-width:0.5;" width="105" x="1065.5" y="270.92"/><ellipse cx="1080.5" cy="286.92" fill="#B4A7E5" rx="11" ry="11" style="stroke:#181818;stroke-width:1.0;"/><path d="M1081.4531,283.5606 L1081.4531,290.2169 L1083.1719,290.2169 Q1083.7813,290.2169 1084.0469,290.4513 Q1084.3125,290.6856 1084.3125,291.0763 Q1084.3125,291.4513 1084.0469,291.6856 Q1083.7813,291.92 1083.1719,291.92 L1078.0313,291.92 Q1077.4219,291.92 1077.1563,291.6856 Q1076.8906,291.4513 1076.8906,291.0606 Q1076.8906,290.6856 1077.1563,290.4513 Q1077.4219,290.2169 1078.0313,290.2169 L1079.75,290.2169 L1079.75,283.5606 L1078.0313,283.5606 Q1077.4219,283.5606 1077.1563,283.3263 Q1076.8906,283.0919 1076.8906,282.7013 Q1076.8906,282.3263 1077.1563,282.0919 Q1077.4219,281.8575 1078.0313,281.8575 L1083.1719,281.8575 Q1083.7813,281.8575 1084.0469,282.0919 Q1084.3125,282.3263 1084.3125,282.7013 Q1084.3125,283.0919 1084.0469,283.3263 Q1083.7813,283.5606 1083.1719,283.5606 L1081.4531,283.5606 Z " fill="#000000"/><text fill="#000000" font-family="sans-serif" font-size="14" font-style="italic" lengthAdjust="spacing" textLength="73" x="1094.5" y="292.6485">Serializable</text><line style="stroke:#181818;stroke-width:0.5;" x1="1066.5" x2="1169.5" y1="302.92" y2="302.92"/><line style="stroke:#181818;stroke-width:0.5;" x1="1066.5" x2="1169.5" y1="310.92" y2="310.92"/></g><!--reverse link java.io.Serializable to nz.ac.wgtn.swen225.lc.persistency.AutoActor--><g id="link_java.io.Serializable_nz.ac.wgtn.swen225.lc.persistency.AutoActor"><path codeLine="60" d="M1110.04,339.61 C1098.62,392.95 1073.53,483.94 1026,547.85 C1004.04,577.37 974.43,603.65 944.96,625.46 " fill="none" id="java.io.Serializable-backto-nz.ac.wgtn.swen225.lc.persistency.AutoActor" style="stroke:#181818;stroke-width:1.0;stroke-dasharray:7.0,7.0;"/><polygon fill="none" points="1103.32,338.48,1114.12,320.25,1117.05,341.23,1103.32,338.48" style="stroke:#181818;stroke-width:1.0;"/></g><!--reverse link nz.ac.wgtn.swen225.lc.persistency.AutoActor to nz.ac.wgtn.swen225.lc.persistency.AutoActor.Direction--><g id="link_nz.ac.wgtn.swen225.lc.persistency.AutoActor_nz.ac.wgtn.swen225.lc.persistency.AutoActor.Direction"><path codeLine="61" d="M832,778.33 C832,793.22 832,808.44 832,822.46 " fill="none" id="nz.ac.wgtn.swen225.lc.persistency.AutoActor-backto-nz.ac.wgtn.swen225.lc.persistency.AutoActor.Direction" style="stroke:#181818;stroke-width:1.0;"/><ellipse cx="832" cy="771.37" fill="#FFFFFF" rx="8" ry="8" style="stroke:#181818;stroke-width:1.0;"/><line style="stroke:#181818;stroke-width:1.0;" x1="832" x2="832" y1="779.37" y2="763.37"/><line style="stroke:#181818;stroke-width:1.0;" x1="824" x2="840" y1="771.37" y2="771.37"/></g><!--link nz.ac.wgtn.swen225.lc.persistency.Persistency to nz.ac.wgtn.swen225.lc.persistency.AutoActor--><g id="link_nz.ac.wgtn.swen225.lc.persistency.Persistency_nz.ac.wgtn.swen225.lc.persistency.AutoActor"><path codeLine="62" d="M798.1,548.16 C804.16,574.03 809.91,598.57 814.89,619.86 " fill="none" id="nz.ac.wgtn.swen225.lc.persistency.Persistency-to-nz.ac.wgtn.swen225.lc.persistency.AutoActor" style="stroke:#181818;stroke-width:1.0;"/><polygon fill="#181818" points="816.21,624.49,818.0486,614.8143,815.068,619.6222,810.2601,616.6415,816.21,624.49" style="stroke:#181818;stroke-width:1.0;"/><text fill="#000000" font-family="sans-serif" font-size="13" lengthAdjust="spacing" textLength="36" x="808" y="592.3451">actors</text><text fill="#000000" font-family="sans-serif" font-size="13" lengthAdjust="spacing" textLength="5" x="809.3238" y="615.1262">*</text></g><text fill="#888888" font-family="sans-serif" font-size="10" lengthAdjust="spacing" textLength="184" x="497.5" y="973.7109">UMLDoclet 2.1.0, PlantUML 1.2022.14</text><!--SRC=[dLPTRzem57tdLrYL9eK1regq5uIGAAmCYL9KKgqLui4D5-hDiP7j1D6k_tqseVaYBjNo4C3d-FgUS-rh44A8an3KbWI0-0ic0TvjDCTg1xpT_evPWBSW5LKQUB17hxKQEZu18qgXVgH5Fz12eiKY_OwVTSYMIyD6kQUHuXxbkeaEho6L46WgU1EDkTB4ZWsUoRRkcbe2GX63vrC6YsMzasLJ96r0FtW6DYkU08zbu2sJ23mApvk2Czsfce8RwMYrBwz6jgR16shSpnp0yFRNr05DVbpx3kXkFFhfL-bAIZVBrNMnoFrob4z8kg6Si2j1vCgNG5GaOI0Yha-TpP9W40ExxA1hKwEFAEqAIeCSR5CTDDSa-DETQqdvfbVaR1dPWtoeg6w2F3gHCneQbCTWWR66SB4iOa-VCA6XQGWJM5T11yqLu-OeAh81gzXgBO8STjQZQHJwOavYg9X_TEmTxqj9zXDJr-wDEIZLpZbZ7VqxWnTCS79F_N9I3zOuqNTFdOJSHlRwst8ZoQCbY0co6fbUw5cFJLD8kagHeq3RPMT46g8siP9MLhBvsDkShoHoyxYnp5AneAlIGcQLGpB9FgZaI51HcB3A-4U7tGUbYmVUZZWElJRGn1WpiKMvvQShdRBydQXcfGOxOzov5QMS4MZhszL- -ZdXB39TooO7iklthF3SY4Drdk8DR1mpjNvoToGqPPCmAKdonC3mgdBvJMA2gS1pa9Gm-cAfgFiNuuehAxjI6wtM_rq_QQnyZs-rUkZYwqKMluE8_L2rNBBPdu5ZoZbhpDu5kRPONaP-TW2MWjP2s8_xcybG10mqQkDB_ArfQc7kTpEAliGsBy6z-Zy0]--></g></svg>