<?xml version="1.0" encoding="UTF-8" standalone="no"?><svg xmlns="http://www.w3.org/2000/svg" xmlns:xlink="http://www.w3.org/1999/xlink" contentScriptType="application/ecmascript" contentStyleType="text/css" height="462px" preserveAspectRatio="none" style="width:406px;height:462px;background:#FFFFFF;" version="1.1" viewBox="0 0 406 462" width="406px" zoomAndPan="magnify"><defs><filter height="300%" id="fv4113p9p47o6" width="300%" x="-1" y="-1"><feGaussianBlur result="blurOut" stdDeviation="2.0"/><feColorMatrix in="blurOut" result="blurOut2" type="matrix" values="0 0 0 0 0 0 0 0 0 0 0 0 0 0 0 0 0 0 .4 0"/><feOffset dx="4.0" dy="4.0" in="blurOut2" result="blurOut3"/><feBlend in="SourceGraphic" in2="blurOut3" mode="normal"/></filter></defs><g><!--MD5=[f18dd593c0168d1416235e319e5a8b45]
class nz.ac.wgtn.swen225.lc.persistency.Persistency--><a href="Persistency.html" target="_top" title="Persistency.html" xlink:actuate="onRequest" xlink:href="Persistency.html" xlink:show="new" xlink:title="Persistency.html" xlink:type="simple"><rect codeLine="5" fill="#FEFECE" filter="url(#fv4113p9p47o6)" height="429.7578" id="nz.ac.wgtn.swen225.lc.persistency.Persistency" style="stroke:#A80036;stroke-width:1.5;" width="385" x="7" y="7"/><ellipse cx="114.25" cy="27.0938" fill="#ADD1B2" rx="11" ry="11" style="stroke:#A80036;stroke-width:1.0;"/><path d="M117.0156,22.9688 Q117.1719,22.75 117.3594,22.6406 Q117.5469,22.5313 117.7656,22.5313 Q118.1406,22.5313 118.375,22.7969 Q118.6094,23.0469 118.6094,23.6563 L118.6094,25.1094 Q118.6094,25.7188 118.375,25.9844 Q118.1406,26.25 117.7656,26.25 Q117.4219,26.25 117.2188,26.0469 Q117.0156,25.8594 116.9063,25.3438 Q116.8594,24.9844 116.6719,24.7969 Q116.3438,24.4219 115.7344,24.2031 Q115.125,23.9844 114.5,23.9844 Q113.7344,23.9844 113.0938,24.3125 Q112.4688,24.6406 111.9688,25.3906 Q111.4844,26.1406 111.4844,27.1719 L111.4844,28.2656 Q111.4844,29.5 112.375,30.3281 Q113.2656,31.1406 114.8594,31.1406 Q115.7969,31.1406 116.4531,30.8906 Q116.8438,30.7344 117.2656,30.2969 Q117.5313,30.0313 117.6719,29.9531 Q117.8281,29.875 118.0313,29.875 Q118.3594,29.875 118.6094,30.1406 Q118.875,30.3906 118.875,30.7344 Q118.875,31.0781 118.5313,31.4844 Q118.0313,32.0625 117.2344,32.3906 Q116.1563,32.8438 114.8594,32.8438 Q113.3438,32.8438 112.1406,32.2188 Q111.1563,31.7188 110.4688,30.6563 Q109.7813,29.5781 109.7813,28.2969 L109.7813,27.1406 Q109.7813,25.8125 110.3906,24.6719 Q111.0156,23.5156 112.1094,22.9063 Q113.2031,22.2813 114.4375,22.2813 Q115.1719,22.2813 115.8125,22.4531 Q116.4688,22.6094 117.0156,22.9688 Z " fill="#000000"/><text fill="#000000" font-family="sans-serif" font-size="14" lengthAdjust="spacing" textLength="73" x="179.25" y="26.5332">Persistency</text><text fill="#000000" font-family="sans-serif" font-size="10" lengthAdjust="spacing" textLength="162" x="134.75" y="39.9902">nz.ac.wgtn.swen225.lc.persistency</text><line style="stroke:#A80036;stroke-width:1.5;" x1="8" x2="391" y1="47.1875" y2="47.1875"/><rect fill="none" height="6" style="stroke:#C82930;stroke-width:1.0;" width="6" x="15" y="55.1875"/><text fill="#000000" font-family="sans-serif" font-size="11" lengthAdjust="spacing" textLength="55" x="27" y="62.6064">chap: Chap</text><rect fill="none" height="6" style="stroke:#C82930;stroke-width:1.0;" width="6" x="15" y="69.0234"/><text fill="#000000" font-family="sans-serif" font-size="11" lengthAdjust="spacing" textLength="60" x="27" y="76.4424">newFile: File</text><ellipse cx="18" cy="85.8594" rx="3" ry="3" style="stroke:#038048;stroke-width:1.0;fill:none;"/><text fill="#000000" font-family="sans-serif" font-size="11" lengthAdjust="spacing" textLength="152" x="27" y="90.2783">originalBoardTreasureCount: int</text><rect fill="none" height="6" style="stroke:#C82930;stroke-width:1.0;" width="6" x="15" y="96.6953"/><text fill="#000000" font-family="sans-serif" font-size="11" lengthAdjust="spacing" textLength="76" x="27" y="104.1143">newFileNum: int</text><ellipse cx="18" cy="113.5313" rx="3" ry="3" style="stroke:#038048;stroke-width:1.0;fill:none;"/><text fill="#000000" font-family="sans-serif" font-size="11" lengthAdjust="spacing" text-decoration="underline" textLength="50" x="27" y="117.9502">level1: File</text><ellipse cx="18" cy="127.3672" rx="3" ry="3" style="stroke:#038048;stroke-width:1.0;fill:none;"/><text fill="#000000" font-family="sans-serif" font-size="11" lengthAdjust="spacing" text-decoration="underline" textLength="50" x="27" y="131.7861">level2: File</text><ellipse cx="18" cy="141.2031" rx="3" ry="3" style="stroke:#038048;stroke-width:1.0;fill:none;"/><text fill="#000000" font-family="sans-serif" font-size="11" lengthAdjust="spacing" textLength="108" x="27" y="145.6221">actions: Stack&lt;String&gt;</text><ellipse cx="18" cy="155.0391" rx="3" ry="3" style="stroke:#038048;stroke-width:1.0;fill:none;"/><text fill="#000000" font-family="sans-serif" font-size="11" lengthAdjust="spacing" textLength="54" x="27" y="159.458">playerX: int</text><ellipse cx="18" cy="168.875" rx="3" ry="3" style="stroke:#038048;stroke-width:1.0;fill:none;"/><text fill="#000000" font-family="sans-serif" font-size="11" lengthAdjust="spacing" textLength="55" x="27" y="173.2939">playerY: int</text><ellipse cx="18" cy="182.7109" rx="3" ry="3" style="stroke:#038048;stroke-width:1.0;fill:none;"/><text fill="#000000" font-family="sans-serif" font-size="11" lengthAdjust="spacing" textLength="119" x="27" y="187.1299">playerTreasureCount: int</text><ellipse cx="18" cy="196.5469" rx="3" ry="3" style="stroke:#038048;stroke-width:1.0;fill:none;"/><text fill="#000000" font-family="sans-serif" font-size="11" lengthAdjust="spacing" textLength="117" x="27" y="200.9658">boardTreasureCount: int</text><ellipse cx="18" cy="210.3828" rx="3" ry="3" style="stroke:#038048;stroke-width:1.0;fill:none;"/><text fill="#000000" font-family="sans-serif" font-size="11" lengthAdjust="spacing" textLength="55" x="27" y="214.8018">timeLeft: int</text><ellipse cx="18" cy="224.2188" rx="3" ry="3" style="stroke:#038048;stroke-width:1.0;fill:none;"/><text fill="#000000" font-family="sans-serif" font-size="11" lengthAdjust="spacing" textLength="39" x="27" y="228.6377">level: int</text><ellipse cx="18" cy="238.0547" rx="3" ry="3" style="stroke:#038048;stroke-width:1.0;fill:none;"/><text fill="#000000" font-family="sans-serif" font-size="11" lengthAdjust="spacing" textLength="78" x="27" y="242.4736">message: String</text><ellipse cx="18" cy="251.8906" rx="3" ry="3" style="stroke:#038048;stroke-width:1.0;fill:none;"/><text fill="#000000" font-family="sans-serif" font-size="11" lengthAdjust="spacing" textLength="113" x="27" y="256.3096">newFileNumToSave: int</text><ellipse cx="18" cy="265.7266" rx="3" ry="3" style="stroke:#038048;stroke-width:1.0;fill:none;"/><text fill="#000000" font-family="sans-serif" font-size="11" lengthAdjust="spacing" textLength="161" x="27" y="270.1455">actionsToSave: ArrayList&lt;Move&gt;</text><ellipse cx="18" cy="279.5625" rx="3" ry="3" style="stroke:#038048;stroke-width:1.0;fill:none;"/><text fill="#000000" font-family="sans-serif" font-size="11" lengthAdjust="spacing" textLength="91" x="27" y="283.9814">playerXToSave: int</text><ellipse cx="18" cy="293.3984" rx="3" ry="3" style="stroke:#038048;stroke-width:1.0;fill:none;"/><text fill="#000000" font-family="sans-serif" font-size="11" lengthAdjust="spacing" textLength="92" x="27" y="297.8174">playerYToSave: int</text><ellipse cx="18" cy="307.2344" rx="3" ry="3" style="stroke:#038048;stroke-width:1.0;fill:none;"/><text fill="#000000" font-family="sans-serif" font-size="11" lengthAdjust="spacing" textLength="156" x="27" y="311.6533">playerTreasureCountToSave: int</text><ellipse cx="18" cy="321.0703" rx="3" ry="3" style="stroke:#038048;stroke-width:1.0;fill:none;"/><text fill="#000000" font-family="sans-serif" font-size="11" lengthAdjust="spacing" textLength="154" x="27" y="325.4893">boardTreasureCountToSave: int</text><ellipse cx="18" cy="334.9063" rx="3" ry="3" style="stroke:#038048;stroke-width:1.0;fill:none;"/><text fill="#000000" font-family="sans-serif" font-size="11" lengthAdjust="spacing" textLength="76" x="27" y="339.3252">levelToSave: int</text><ellipse cx="18" cy="348.7422" rx="3" ry="3" style="stroke:#038048;stroke-width:1.0;fill:none;"/><text fill="#000000" font-family="sans-serif" font-size="11" lengthAdjust="spacing" textLength="92" x="27" y="353.1611">timeLeftToSave: int</text><polygon fill="none" points="18,358.5781,14,364.5781,22,364.5781" style="stroke:#1963A0;stroke-width:1.0;"/><text fill="#000000" font-family="sans-serif" font-size="11" lengthAdjust="spacing" textLength="93" x="27" y="366.9971">boardToSave: Tile[]</text><line style="stroke:#A80036;stroke-width:1.5;" x1="8" x2="391" y1="373.4141" y2="373.4141"/><ellipse cx="18" cy="384.4141" fill="#84BE84" rx="3" ry="3" style="stroke:#038048;stroke-width:1.0;"/><text fill="#000000" font-family="sans-serif" font-size="11" lengthAdjust="spacing" textLength="100" x="27" y="388.833">loadGame(File): Tile[]</text><ellipse cx="18" cy="398.25" fill="#84BE84" rx="3" ry="3" style="stroke:#038048;stroke-width:1.0;"/><text fill="#000000" font-family="sans-serif" font-size="11" lengthAdjust="spacing" textLength="359" x="27" y="402.6689">setSaveParameters(int, ArrayList&lt;Move&gt;, int, int, int, int, int, int, Tile[]): void</text><ellipse cx="18" cy="412.0859" fill="#84BE84" rx="3" ry="3" style="stroke:#038048;stroke-width:1.0;"/><text fill="#000000" font-family="sans-serif" font-size="11" lengthAdjust="spacing" textLength="86" x="27" y="416.5049">saveGame(): void</text><ellipse cx="18" cy="425.9219" fill="#84BE84" rx="3" ry="3" style="stroke:#038048;stroke-width:1.0;"/><text fill="#000000" font-family="sans-serif" font-size="11" lengthAdjust="spacing" textLength="98" x="27" y="430.3408">resumeGame(): void</text></a><text fill="#888888" font-family="sans-serif" font-size="10" lengthAdjust="spacing" textLength="184" x="107.5" y="454.1387">UMLDoclet 2.0.14, PlantUML 1.2021.9</text><!--MD5=[7ba90a1de911c04e139a59e6c641a9a2]
@startuml
    set namespaceSeparator none
    hide empty fields
    hide empty methods

    class "<size:14>Persistency\n<size:10>nz.ac.wgtn.swen225.lc.persistency" as nz.ac.wgtn.swen225.lc.persistency.Persistency [[Persistency.html]] {
        -chap: Chap
        -newFile: File
        +originalBoardTreasureCount: int
        -newFileNum: int
        {static} +level1: File
        {static} +level2: File
        +actions: Stack<String>
        +playerX: int
        +playerY: int
        +playerTreasureCount: int
        +boardTreasureCount: int
        +timeLeft: int
        +level: int
        +message: String
        +newFileNumToSave: int
        +actionsToSave: ArrayList<Move>
        +playerXToSave: int
        +playerYToSave: int
        +playerTreasureCountToSave: int
        +boardTreasureCountToSave: int
        +levelToSave: int
        +timeLeftToSave: int
        ~boardToSave: Tile[]
        +loadGame(File): Tile[]
        +setSaveParameters(int, ArrayList<Move>, int, int, int, int, int, int, Tile[]): void
        +saveGame(): void
        +resumeGame(): void
    }

    center footer UMLDoclet 2.0.14, PlantUML 1.2021.9
@enduml

PlantUML version 1.2021.9(Sun Jul 25 22:13:56 NZST 2021)
(APACHE source distribution)
Java Runtime: OpenJDK Runtime Environment
JVM: OpenJDK 64-Bit Server VM
Default Encoding: Cp1252
Language: en
Country: NZ
--></g></svg>