<?xml version="1.0" encoding="UTF-8" standalone="no"?><svg xmlns="http://www.w3.org/2000/svg" xmlns:xlink="http://www.w3.org/1999/xlink" contentScriptType="application/ecmascript" contentStyleType="text/css" height="436px" preserveAspectRatio="none" style="width:474px;height:436px;background:#FFFFFF;" version="1.1" viewBox="0 0 474 436" width="474px" zoomAndPan="magnify"><defs><filter height="300%" id="fqaepg2u6gqic" width="300%" x="-1" y="-1"><feGaussianBlur result="blurOut" stdDeviation="2.0"/><feColorMatrix in="blurOut" result="blurOut2" type="matrix" values="0 0 0 0 0 0 0 0 0 0 0 0 0 0 0 0 0 0 .4 0"/><feOffset dx="4.0" dy="4.0" in="blurOut2" result="blurOut3"/><feBlend in="SourceGraphic" in2="blurOut3" mode="normal"/></filter></defs><g><!--MD5=[f18dd593c0168d1416235e319e5a8b45]
class nz.ac.wgtn.swen225.lc.persistency.Persistency--><a href="Persistency.html" target="_top" title="Persistency.html" xlink:actuate="onRequest" xlink:href="Persistency.html" xlink:show="new" xlink:title="Persistency.html" xlink:type="simple"><rect codeLine="5" fill="#FEFECE" filter="url(#fqaepg2u6gqic)" height="403.2713" id="nz.ac.wgtn.swen225.lc.persistency.Persistency" style="stroke:#A80036;stroke-width:1.5;" width="453" x="7" y="7"/><ellipse cx="145.75" cy="28.344" fill="#ADD1B2" rx="11" ry="11" style="stroke:#A80036;stroke-width:1.0;"/><path d="M145.2188,35.2658 Q143.4688,35.2658 142.3281,34.5315 Q141.2031,33.7815 140.6406,32.4377 Q140.0938,31.0783 140.0938,29.2815 Q140.0938,27.2502 140.75,25.7971 Q141.4063,24.344 142.6875,23.5627 Q143.9688,22.7815 145.8438,22.7815 Q146.7344,22.7815 147.4063,22.969 Q148.0781,23.1408 148.7656,23.4846 L147.9531,25.5002 Q147.3281,25.1877 146.7813,25.0627 Q146.25,24.9377 145.7656,24.9377 Q144.5938,24.9377 143.8906,25.469 Q143.1875,26.0002 142.8906,26.9533 Q142.5938,27.9065 142.5938,29.1721 Q142.5938,31.1877 143.3125,32.1565 Q144.0313,33.1096 145.625,33.1096 Q146.2188,33.1096 146.8438,32.9533 Q147.4688,32.7971 148.2969,32.4221 L148.2969,34.6408 Q147.5625,34.9533 146.7656,35.1096 Q145.9844,35.2658 145.2188,35.2658 Z " fill="#000000"/><text fill="#000000" font-family="sans-serif" font-size="14" lengthAdjust="spacing" textLength="76" x="211.75" y="26.9659">Persistency</text><text fill="#000000" font-family="sans-serif" font-size="10" lengthAdjust="spacing" textLength="167" x="166.25" y="41.7579">nz.ac.wgtn.swen225.lc.persistency</text><line style="stroke:#A80036;stroke-width:1.5;" x1="8" x2="459" y1="49.6879" y2="49.6879"/><ellipse cx="18" cy="60.6879" rx="3" ry="3" style="stroke:#038048;stroke-width:1.0;fill:none;"/><text fill="#000000" font-family="sans-serif" font-size="11" lengthAdjust="spacing" textLength="171" x="27" y="65.4468">originalBoardTreasureCount: int</text><ellipse cx="18" cy="75.6698" rx="3" ry="3" style="stroke:#038048;stroke-width:1.0;fill:none;"/><text fill="#000000" font-family="sans-serif" font-size="11" lengthAdjust="spacing" text-decoration="underline" textLength="54" x="27" y="80.4287">level1: File</text><ellipse cx="18" cy="90.6517" rx="3" ry="3" style="stroke:#038048;stroke-width:1.0;fill:none;"/><text fill="#000000" font-family="sans-serif" font-size="11" lengthAdjust="spacing" text-decoration="underline" textLength="54" x="27" y="95.4106">level2: File</text><ellipse cx="18" cy="105.6336" rx="3" ry="3" style="stroke:#038048;stroke-width:1.0;fill:none;"/><text fill="#000000" font-family="sans-serif" font-size="11" lengthAdjust="spacing" textLength="114" x="27" y="110.3925">actions: Stack&lt;String&gt;</text><ellipse cx="18" cy="120.6155" rx="3" ry="3" style="stroke:#038048;stroke-width:1.0;fill:none;"/><text fill="#000000" font-family="sans-serif" font-size="11" lengthAdjust="spacing" textLength="59" x="27" y="125.3744">playerX: int</text><ellipse cx="18" cy="135.5973" rx="3" ry="3" style="stroke:#038048;stroke-width:1.0;fill:none;"/><text fill="#000000" font-family="sans-serif" font-size="11" lengthAdjust="spacing" textLength="59" x="27" y="140.3563">playerY: int</text><ellipse cx="18" cy="150.5792" rx="3" ry="3" style="stroke:#038048;stroke-width:1.0;fill:none;"/><text fill="#000000" font-family="sans-serif" font-size="11" lengthAdjust="spacing" textLength="131" x="27" y="155.3381">playerTreasureCount: int</text><ellipse cx="18" cy="165.5611" rx="3" ry="3" style="stroke:#038048;stroke-width:1.0;fill:none;"/><text fill="#000000" font-family="sans-serif" font-size="11" lengthAdjust="spacing" textLength="130" x="27" y="170.32">boardTreasureCount: int</text><ellipse cx="18" cy="180.543" rx="3" ry="3" style="stroke:#038048;stroke-width:1.0;fill:none;"/><text fill="#000000" font-family="sans-serif" font-size="11" lengthAdjust="spacing" textLength="63" x="27" y="185.3019">timeLeft: int</text><ellipse cx="18" cy="195.5249" rx="3" ry="3" style="stroke:#038048;stroke-width:1.0;fill:none;"/><text fill="#000000" font-family="sans-serif" font-size="11" lengthAdjust="spacing" textLength="44" x="27" y="200.2838">level: int</text><ellipse cx="18" cy="210.5068" rx="3" ry="3" style="stroke:#038048;stroke-width:1.0;fill:none;"/><text fill="#000000" font-family="sans-serif" font-size="11" lengthAdjust="spacing" textLength="83" x="27" y="215.2657">message: String</text><ellipse cx="18" cy="225.4887" rx="3" ry="3" style="stroke:#038048;stroke-width:1.0;fill:none;"/><text fill="#000000" font-family="sans-serif" font-size="11" lengthAdjust="spacing" textLength="122" x="27" y="230.2476">newFileNumToSave: int</text><ellipse cx="18" cy="240.4706" rx="3" ry="3" style="stroke:#038048;stroke-width:1.0;fill:none;"/><text fill="#000000" font-family="sans-serif" font-size="11" lengthAdjust="spacing" textLength="168" x="27" y="245.2295">actionsToSave: ArrayList&lt;Move&gt;</text><ellipse cx="18" cy="255.4524" rx="3" ry="3" style="stroke:#038048;stroke-width:1.0;fill:none;"/><text fill="#000000" font-family="sans-serif" font-size="11" lengthAdjust="spacing" textLength="96" x="27" y="260.2114">playerXToSave: int</text><ellipse cx="18" cy="270.4343" rx="3" ry="3" style="stroke:#038048;stroke-width:1.0;fill:none;"/><text fill="#000000" font-family="sans-serif" font-size="11" lengthAdjust="spacing" textLength="96" x="27" y="275.1932">playerYToSave: int</text><ellipse cx="18" cy="285.4162" rx="3" ry="3" style="stroke:#038048;stroke-width:1.0;fill:none;"/><text fill="#000000" font-family="sans-serif" font-size="11" lengthAdjust="spacing" textLength="168" x="27" y="290.1751">playerTreasureCountToSave: int</text><ellipse cx="18" cy="300.3981" rx="3" ry="3" style="stroke:#038048;stroke-width:1.0;fill:none;"/><text fill="#000000" font-family="sans-serif" font-size="11" lengthAdjust="spacing" textLength="167" x="27" y="305.157">boardTreasureCountToSave: int</text><ellipse cx="18" cy="315.38" rx="3" ry="3" style="stroke:#038048;stroke-width:1.0;fill:none;"/><text fill="#000000" font-family="sans-serif" font-size="11" lengthAdjust="spacing" textLength="81" x="27" y="320.1389">levelToSave: int</text><ellipse cx="18" cy="330.3619" rx="3" ry="3" style="stroke:#038048;stroke-width:1.0;fill:none;"/><text fill="#000000" font-family="sans-serif" font-size="11" lengthAdjust="spacing" textLength="100" x="27" y="335.1208">timeLeftToSave: int</text><line style="stroke:#A80036;stroke-width:1.5;" x1="8" x2="459" y1="342.3438" y2="342.3438"/><ellipse cx="18" cy="353.3438" fill="#84BE84" rx="3" ry="3" style="stroke:#038048;stroke-width:1.0;"/><text fill="#000000" font-family="sans-serif" font-size="11" lengthAdjust="spacing" textLength="109" x="27" y="358.1027">loadGame(File): Tile[]</text><ellipse cx="18" cy="368.3257" fill="#84BE84" rx="3" ry="3" style="stroke:#038048;stroke-width:1.0;"/><text fill="#000000" font-family="sans-serif" font-size="11" lengthAdjust="spacing" textLength="427" x="27" y="373.0846">setSaveParameters(int, ArrayList&lt;Move&gt;, int, int, int, int, int, int, Tile[], Chap): void</text><ellipse cx="18" cy="383.3075" fill="#84BE84" rx="3" ry="3" style="stroke:#038048;stroke-width:1.0;"/><text fill="#000000" font-family="sans-serif" font-size="11" lengthAdjust="spacing" textLength="88" x="27" y="388.0665">saveGame(): void</text><ellipse cx="18" cy="398.2894" fill="#84BE84" rx="3" ry="3" style="stroke:#038048;stroke-width:1.0;"/><text fill="#000000" font-family="sans-serif" font-size="11" lengthAdjust="spacing" textLength="104" x="27" y="403.0483">resumeGame(): void</text></a><text fill="#888888" font-family="sans-serif" font-size="10" lengthAdjust="spacing" textLength="182" x="142.5" y="427.9613">UMLDoclet 2.0.14, PlantUML 1.2021.9</text><!--MD5=[ecaef570cdb7f7bb6bdbca7a94d15e68]
@startuml
    set namespaceSeparator none
    hide empty fields
    hide empty methods

    class "<size:14>Persistency\n<size:10>nz.ac.wgtn.swen225.lc.persistency" as nz.ac.wgtn.swen225.lc.persistency.Persistency [[Persistency.html]] {
        +originalBoardTreasureCount: int
        {static} +level1: File
        {static} +level2: File
        +actions: Stack<String>
        +playerX: int
        +playerY: int
        +playerTreasureCount: int
        +boardTreasureCount: int
        +timeLeft: int
        +level: int
        +message: String
        +newFileNumToSave: int
        +actionsToSave: ArrayList<Move>
        +playerXToSave: int
        +playerYToSave: int
        +playerTreasureCountToSave: int
        +boardTreasureCountToSave: int
        +levelToSave: int
        +timeLeftToSave: int
        +loadGame(File): Tile[]
        +setSaveParameters(int, ArrayList<Move>, int, int, int, int, int, int, Tile[], Chap): void
        +saveGame(): void
        +resumeGame(): void
    }

    center footer UMLDoclet 2.0.14, PlantUML 1.2021.9
@enduml

PlantUML version 1.2021.9(Sun Jul 25 22:13:56 NZST 2021)
(APACHE source distribution)
Java Runtime: OpenJDK Runtime Environment
JVM: OpenJDK 64-Bit Server VM
Default Encoding: UTF-8
Language: en
Country: NZ
--></g></svg>