<?xml version="1.0" encoding="UTF-8" standalone="no"?><svg xmlns="http://www.w3.org/2000/svg" xmlns:xlink="http://www.w3.org/1999/xlink" contentStyleType="text/css" height="315px" preserveAspectRatio="none" style="width:331px;height:315px;background:#FFFFFF;" version="1.1" viewBox="0 0 331 315" width="331px" zoomAndPan="magnify"><defs/><g><!--class nz.ac.wgtn.swen225.lc.domain.items.Key--><a href="Key.html" target="_top" title="Key.html" xlink:actuate="onRequest" xlink:href="Key.html" xlink:show="new" xlink:title="Key.html" xlink:type="simple"><g id="elem_nz.ac.wgtn.swen225.lc.domain.items.Key"><rect codeLine="5" fill="#F1F1F1" height="83.4063" id="nz.ac.wgtn.swen225.lc.domain.items.Key" rx="2.5" ry="2.5" style="stroke:#181818;stroke-width:0.5;" width="206" x="31" y="107"/><ellipse cx="46" cy="127.0938" fill="#ADD1B2" rx="11" ry="11" style="stroke:#181818;stroke-width:1.0;"/><path d="M48.7656,122.9688 Q48.9219,122.75 49.1094,122.6406 Q49.2969,122.5313 49.5156,122.5313 Q49.8906,122.5313 50.125,122.7969 Q50.3594,123.0469 50.3594,123.6563 L50.3594,125.1094 Q50.3594,125.7188 50.125,125.9844 Q49.8906,126.25 49.5156,126.25 Q49.1719,126.25 48.9688,126.0469 Q48.7656,125.8594 48.6563,125.3438 Q48.6094,124.9844 48.4219,124.7969 Q48.0938,124.4219 47.4844,124.2031 Q46.875,123.9844 46.25,123.9844 Q45.4844,123.9844 44.8438,124.3125 Q44.2188,124.6406 43.7188,125.3906 Q43.2344,126.1406 43.2344,127.1719 L43.2344,128.2656 Q43.2344,129.5 44.125,130.3281 Q45.0156,131.1406 46.6094,131.1406 Q47.5469,131.1406 48.2031,130.8906 Q48.5938,130.7344 49.0156,130.2969 Q49.2813,130.0313 49.4219,129.9531 Q49.5781,129.875 49.7813,129.875 Q50.1094,129.875 50.3594,130.1406 Q50.625,130.3906 50.625,130.7344 Q50.625,131.0781 50.2813,131.4844 Q49.7813,132.0625 48.9844,132.3906 Q47.9063,132.8438 46.6094,132.8438 Q45.0938,132.8438 43.8906,132.2188 Q42.9063,131.7188 42.2188,130.6563 Q41.5313,129.5781 41.5313,128.2969 L41.5313,127.1406 Q41.5313,125.8125 42.1406,124.6719 Q42.7656,123.5156 43.8594,122.9063 Q44.9531,122.2813 46.1875,122.2813 Q46.9219,122.2813 47.5625,122.4531 Q48.2188,122.6094 48.7656,122.9688 Z " fill="#000000"/><text fill="#000000" font-family="sans-serif" font-size="14" lengthAdjust="spacing" textLength="24" x="135" y="126.5332">Key</text><text fill="#000000" font-family="sans-serif" font-size="10" lengthAdjust="spacing" textLength="174" x="60" y="139.9902">nz.ac.wgtn.swen225.lc.domain.items</text><line style="stroke:#181818;stroke-width:0.5;" x1="32" x2="236" y1="147.1875" y2="147.1875"/><ellipse cx="42" cy="161.4922" fill="#84BE84" rx="3" ry="3" style="stroke:#038048;stroke-width:1.0;"/><text fill="#000000" font-family="sans-serif" font-size="14" lengthAdjust="spacing" textLength="76" x="51" y="165.7207">Key(Colour)</text><ellipse cx="42" cy="179.1016" fill="#84BE84" rx="3" ry="3" style="stroke:#038048;stroke-width:1.0;"/><text fill="#000000" font-family="sans-serif" font-size="14" lengthAdjust="spacing" textLength="99" x="51" y="183.3301">colour(): Colour</text></g></a><!--class java.lang.Record--><g id="elem_java.lang.Record"><rect codeLine="10" fill="#F1F1F1" height="40.1875" id="java.lang.Record" rx="2.5" ry="2.5" style="stroke:#181818;stroke-width:0.5;" width="78" x="7" y="7"/><ellipse cx="22" cy="27.0938" fill="#A9DCDF" rx="11" ry="11" style="stroke:#181818;stroke-width:1.0;"/><path d="M24.1875,28.8594 L20.0469,28.8594 L19.625,29.8906 L20.0469,29.8906 Q20.6563,29.8906 20.9219,30.125 Q21.1875,30.3594 21.1875,30.75 Q21.1875,31.125 20.9219,31.3594 Q20.6563,31.5938 20.0469,31.5938 L17.75,31.5938 Q17.1406,31.5938 16.8906,31.3594 Q16.625,31.125 16.625,30.7344 Q16.625,30.3594 16.9063,30.125 Q17.1719,29.875 17.7969,29.8906 L20.4688,23.2344 L19.3594,23.2344 Q18.75,23.2344 18.4844,23 Q18.2188,22.7656 18.2188,22.375 Q18.2188,22 18.4844,21.7656 Q18.75,21.5313 19.3594,21.5313 L23.0313,21.5313 L26.4219,29.8906 Q27.0156,29.8906 27.2031,30.0313 Q27.5938,30.2969 27.5938,30.75 Q27.5938,31.125 27.3281,31.3594 Q27.0781,31.5938 26.4688,31.5938 L24.1719,31.5938 Q23.5625,31.5938 23.2969,31.3594 Q23.0313,31.125 23.0313,30.7344 Q23.0313,30.3594 23.2969,30.125 Q23.5625,29.8906 24.1719,29.8906 L24.5938,29.8906 L24.1875,28.8594 Z M23.4688,27.1563 L22.1094,23.7813 L20.7344,27.1563 L23.4688,27.1563 Z " fill="#000000"/><text fill="#000000" font-family="sans-serif" font-size="14" font-style="italic" lengthAdjust="spacing" textLength="46" x="36" y="26.5332">Record</text><text fill="#000000" font-family="sans-serif" font-size="10" font-style="italic" lengthAdjust="spacing" textLength="43" x="37.5" y="39.9902">java.lang</text></g><!--class nz.ac.wgtn.swen225.lc.domain.items.Item--><a href="Item.html" target="_top" title="Item.html" xlink:actuate="onRequest" xlink:href="Item.html" xlink:show="new" xlink:title="Item.html" xlink:type="simple"><g id="elem_nz.ac.wgtn.swen225.lc.domain.items.Item"><rect codeLine="11" fill="#F1F1F1" height="40.1875" id="nz.ac.wgtn.swen225.lc.domain.items.Item" rx="2.5" ry="2.5" style="stroke:#181818;stroke-width:0.5;" width="204" x="120" y="7"/><ellipse cx="135" cy="27.0938" fill="#B4A7E5" rx="11" ry="11" style="stroke:#181818;stroke-width:1.0;"/><path d="M135.9531,23.7344 L135.9531,30.3906 L137.6719,30.3906 Q138.2813,30.3906 138.5469,30.625 Q138.8125,30.8594 138.8125,31.25 Q138.8125,31.625 138.5469,31.8594 Q138.2813,32.0938 137.6719,32.0938 L132.5313,32.0938 Q131.9219,32.0938 131.6563,31.8594 Q131.3906,31.625 131.3906,31.2344 Q131.3906,30.8594 131.6563,30.625 Q131.9219,30.3906 132.5313,30.3906 L134.25,30.3906 L134.25,23.7344 L132.5313,23.7344 Q131.9219,23.7344 131.6563,23.5 Q131.3906,23.2656 131.3906,22.875 Q131.3906,22.5 131.6563,22.2656 Q131.9219,22.0313 132.5313,22.0313 L137.6719,22.0313 Q138.2813,22.0313 138.5469,22.2656 Q138.8125,22.5 138.8125,22.875 Q138.8125,23.2656 138.5469,23.5 Q138.2813,23.7344 137.6719,23.7344 L135.9531,23.7344 Z " fill="#000000"/><text fill="#000000" font-family="sans-serif" font-size="14" font-style="italic" lengthAdjust="spacing" textLength="27" x="221.5" y="26.5332">Item</text><text fill="#000000" font-family="sans-serif" font-size="10" font-style="italic" lengthAdjust="spacing" textLength="172" x="149" y="39.9902">nz.ac.wgtn.swen225.lc.domain.items</text></g></a><!--class nz.ac.wgtn.swen225.lc.domain.items.Key.Colour--><a href="Key.Colour.html" target="_top" title="Key.Colour.html" xlink:actuate="onRequest" xlink:href="Key.Colour.html" xlink:show="new" xlink:title="Key.Colour.html" xlink:type="simple"><g id="elem_nz.ac.wgtn.swen225.lc.domain.items.Key.Colour"><rect codeLine="12" fill="#F1F1F1" height="40.1875" id="nz.ac.wgtn.swen225.lc.domain.items.Key.Colour" rx="2.5" ry="2.5" style="stroke:#181818;stroke-width:0.5;" width="206" x="31" y="250"/><ellipse cx="46" cy="270.0938" fill="#EB937F" rx="11" ry="11" style="stroke:#181818;stroke-width:1.0;"/><path d="M44.8594,270.8906 L44.8594,273.3906 L49.1875,273.3906 L49.1875,272.4688 Q49.1875,271.8594 49.4219,271.5938 Q49.6719,271.3281 50.0469,271.3281 Q50.4219,271.3281 50.6563,271.5938 Q50.8906,271.8594 50.8906,272.4688 L50.8906,275.0938 L42.8906,275.0938 Q42.2656,275.0938 42,274.8594 Q41.75,274.625 41.75,274.2344 Q41.75,273.8594 42.0156,273.625 Q42.2813,273.3906 42.8906,273.3906 L43.1563,273.3906 L43.1563,266.7344 L42.8906,266.7344 Q42.2656,266.7344 42,266.5 Q41.75,266.2656 41.75,265.875 Q41.75,265.5 42,265.2656 Q42.2656,265.0313 42.8906,265.0313 L50.5156,265.0313 L50.5156,267.625 Q50.5156,268.2344 50.2813,268.5 Q50.0625,268.75 49.6719,268.75 Q49.2969,268.75 49.0625,268.5 Q48.8281,268.2344 48.8281,267.625 L48.8281,266.7344 L44.8594,266.7344 L44.8594,269.1875 L46.3438,269.1875 Q46.3438,268.5313 46.4688,268.3438 Q46.7344,267.9375 47.2031,267.9375 Q47.5781,267.9375 47.8125,268.2031 Q48.0469,268.4531 48.0469,269.0625 L48.0469,271.0313 Q48.0469,271.5781 47.9219,271.7656 Q47.6563,272.1563 47.2031,272.1563 Q46.7344,272.1563 46.4688,271.75 Q46.3438,271.5625 46.3438,270.8906 L44.8594,270.8906 Z " fill="#000000"/><text fill="#000000" font-family="sans-serif" font-size="14" lengthAdjust="spacing" textLength="70" x="112" y="269.5332">Key.Colour</text><text fill="#000000" font-family="sans-serif" font-size="10" lengthAdjust="spacing" textLength="174" x="60" y="282.9902">nz.ac.wgtn.swen225.lc.domain.items</text></g></a><!--reverse link java.lang.Record to nz.ac.wgtn.swen225.lc.domain.items.Key--><g id="link_java.lang.Record_nz.ac.wgtn.swen225.lc.domain.items.Key"><path codeLine="14" d="M72.17,63.53 C82.13,77.06 93.55,92.58 103.85,106.56 " fill="none" id="java.lang.Record-backto-nz.ac.wgtn.swen225.lc.domain.items.Key" style="stroke:#181818;stroke-width:1.0;"/><polygon fill="none" points="66.36,67.46,60.14,47.2,77.63,59.15,66.36,67.46" style="stroke:#181818;stroke-width:1.0;"/></g><!--reverse link nz.ac.wgtn.swen225.lc.domain.items.Item to nz.ac.wgtn.swen225.lc.domain.items.Key--><g id="link_nz.ac.wgtn.swen225.lc.domain.items.Item_nz.ac.wgtn.swen225.lc.domain.items.Key"><path codeLine="15" d="M195.83,63.53 C185.87,77.06 174.45,92.58 164.15,106.56 " fill="none" id="nz.ac.wgtn.swen225.lc.domain.items.Item-backto-nz.ac.wgtn.swen225.lc.domain.items.Key" style="stroke:#181818;stroke-width:1.0;stroke-dasharray:7.0,7.0;"/><polygon fill="none" points="190.37,59.15,207.86,47.2,201.64,67.46,190.37,59.15" style="stroke:#181818;stroke-width:1.0;"/></g><!--reverse link nz.ac.wgtn.swen225.lc.domain.items.Key to nz.ac.wgtn.swen225.lc.domain.items.Key.Colour--><g id="link_nz.ac.wgtn.swen225.lc.domain.items.Key_nz.ac.wgtn.swen225.lc.domain.items.Key.Colour"><path codeLine="16" d="M134,205.34 C134,221.32 134,237.67 134,249.8 " fill="none" id="nz.ac.wgtn.swen225.lc.domain.items.Key-backto-nz.ac.wgtn.swen225.lc.domain.items.Key.Colour" style="stroke:#181818;stroke-width:1.0;"/><ellipse cx="134" cy="198.29" fill="#FFFFFF" rx="8" ry="8" style="stroke:#181818;stroke-width:1.0;"/><line style="stroke:#181818;stroke-width:1.0;" x1="134" x2="134" y1="206.29" y2="190.29"/><line style="stroke:#181818;stroke-width:1.0;" x1="126" x2="142" y1="198.29" y2="198.29"/></g><text fill="#888888" font-family="sans-serif" font-size="10" lengthAdjust="spacing" textLength="184" x="66.5" y="305.5684">UMLDoclet 2.1.0, PlantUML 1.2022.14</text><!--SRC=[jLDDJm8n4BtxAoOa9hj19a3qGWWNlHWrCHfFo67i3cnDFqXR823-TxlTLH4FSf0UsioRvlNDcmu0WES0XZJxEGb-v3av2jQ1iOPFOXfAMJ2mdeSrJ2Mhmk-ZcaDf8vnmeSXxQ0sztF2WTpwwuVMpQQBko6oG1AvcmQ1ViUdtBr09BAmcQL06rhu5vE7lQnXvOJoEEvP1gya4tjBprMf7DBkqoYvS_WsA16Jv0EfKohpNekd51qSY_5B_mCAwOgU0LreIAZApfFChmlfY8fCci9j6BtTuhgFcezXG4KSVggCn8cbWiz0_cu1rrSVgHKFVjAGEFWKbHVjMmN3RwHn8dWWEDMEuHVndtkgljGzMsrJVZ0DNlm6crbR7qztjbHKg3bmVUzWzW_leI8Wed2xPUMbDbdy0]--></g></svg>