<?xml version="1.0" encoding="UTF-8" standalone="no"?><svg xmlns="http://www.w3.org/2000/svg" xmlns:xlink="http://www.w3.org/1999/xlink" contentScriptType="application/ecmascript" contentStyleType="text/css" height="429px" preserveAspectRatio="none" style="width:429px;height:429px;background:#FFFFFF;" version="1.1" viewBox="0 0 429 429" width="429px" zoomAndPan="magnify"><defs><filter height="300%" id="f517m0wdnokmf" width="300%" x="-1" y="-1"><feGaussianBlur result="blurOut" stdDeviation="2.0"/><feColorMatrix in="blurOut" result="blurOut2" type="matrix" values="0 0 0 0 0 0 0 0 0 0 0 0 0 0 0 0 0 0 .4 0"/><feOffset dx="4.0" dy="4.0" in="blurOut2" result="blurOut3"/><feBlend in="SourceGraphic" in2="blurOut3" mode="normal"/></filter></defs><g><!--MD5=[2de5152d42c23948cff72f7687e4fe38]
cluster nz.ac.wgtn.swen225.lc.domain.items--><polygon fill="#FFFFFF" filter="url(#f517m0wdnokmf)" points="16,6,274,6,281,29.6094,284,29.6094,284,405,16,405,16,6" style="stroke:#000000;stroke-width:1.5;"/><line style="stroke:#000000;stroke-width:1.5;" x1="16" x2="281" y1="29.6094" y2="29.6094"/><text fill="#000000" font-family="sans-serif" font-size="14" font-weight="bold" lengthAdjust="spacing" textLength="252" x="20" y="22.5332">nz.ac.wgtn.swen225.lc.domain.items</text><!--MD5=[aa8f7b917213fcc1c2766e2d59b49067]
cluster java.lang--><polygon fill="#FFFFFF" filter="url(#f517m0wdnokmf)" points="308,6,377,6,384,29.6094,412,29.6094,412,106,308,106,308,6" style="stroke:#000000;stroke-width:1.5;"/><line style="stroke:#000000;stroke-width:1.5;" x1="308" x2="384" y1="29.6094" y2="29.6094"/><text fill="#000000" font-family="sans-serif" font-size="14" font-weight="bold" lengthAdjust="spacing" textLength="63" x="312" y="22.5332">java.lang</text><!--MD5=[79cf4b4ecd0afc17190cd5c850597216]
class nz.ac.wgtn.swen225.lc.domain.items.Item--><a href="Item.html" target="_top" title="Item.html" xlink:actuate="onRequest" xlink:href="Item.html" xlink:show="new" xlink:title="Item.html" xlink:type="simple"><rect codeLine="3" fill="#FEFECE" filter="url(#f517m0wdnokmf)" height="48" id="nz.ac.wgtn.swen225.lc.domain.items.Item" style="stroke:#A80036;stroke-width:1.5;" width="57" x="188.5" y="42"/><ellipse cx="203.5" cy="58" fill="#B4A7E5" rx="11" ry="11" style="stroke:#A80036;stroke-width:1.0;"/><path d="M204.4531,54.6406 L204.4531,61.2969 L206.1719,61.2969 Q206.7813,61.2969 207.0469,61.5313 Q207.3125,61.7656 207.3125,62.1563 Q207.3125,62.5313 207.0469,62.7656 Q206.7813,63 206.1719,63 L201.0313,63 Q200.4219,63 200.1563,62.7656 Q199.8906,62.5313 199.8906,62.1406 Q199.8906,61.7656 200.1563,61.5313 Q200.4219,61.2969 201.0313,61.2969 L202.75,61.2969 L202.75,54.6406 L201.0313,54.6406 Q200.4219,54.6406 200.1563,54.4063 Q199.8906,54.1719 199.8906,53.7813 Q199.8906,53.4063 200.1563,53.1719 Q200.4219,52.9375 201.0313,52.9375 L206.1719,52.9375 Q206.7813,52.9375 207.0469,53.1719 Q207.3125,53.4063 207.3125,53.7813 Q207.3125,54.1719 207.0469,54.4063 Q206.7813,54.6406 206.1719,54.6406 L204.4531,54.6406 Z " fill="#000000"/><text fill="#000000" font-family="sans-serif" font-size="12" font-style="italic" lengthAdjust="spacing" textLength="25" x="217.5" y="62.9102">Item</text><line style="stroke:#A80036;stroke-width:1.5;" x1="189.5" x2="244.5" y1="74" y2="74"/><line style="stroke:#A80036;stroke-width:1.5;" x1="189.5" x2="244.5" y1="82" y2="82"/></a><!--MD5=[33263ba4a3562d8c6d6d5065b9651afc]
class nz.ac.wgtn.swen225.lc.domain.items.Key--><a href="Key.html" target="_top" title="Key.html" xlink:actuate="onRequest" xlink:href="Key.html" xlink:show="new" xlink:title="Key.html" xlink:type="simple"><rect codeLine="5" fill="#FEFECE" filter="url(#f517m0wdnokmf)" height="75.6719" id="nz.ac.wgtn.swen225.lc.domain.items.Key" style="stroke:#A80036;stroke-width:1.5;" width="101" x="166.5" y="150"/><ellipse cx="203.55" cy="166" fill="#ADD1B2" rx="11" ry="11" style="stroke:#A80036;stroke-width:1.0;"/><path d="M206.3156,161.875 Q206.4719,161.6563 206.6594,161.5469 Q206.8469,161.4375 207.0656,161.4375 Q207.4406,161.4375 207.675,161.7031 Q207.9094,161.9531 207.9094,162.5625 L207.9094,164.0156 Q207.9094,164.625 207.675,164.8906 Q207.4406,165.1563 207.0656,165.1563 Q206.7219,165.1563 206.5188,164.9531 Q206.3156,164.7656 206.2063,164.25 Q206.1594,163.8906 205.9719,163.7031 Q205.6438,163.3281 205.0344,163.1094 Q204.425,162.8906 203.8,162.8906 Q203.0344,162.8906 202.3938,163.2188 Q201.7688,163.5469 201.2688,164.2969 Q200.7844,165.0469 200.7844,166.0781 L200.7844,167.1719 Q200.7844,168.4063 201.675,169.2344 Q202.5656,170.0469 204.1594,170.0469 Q205.0969,170.0469 205.7531,169.7969 Q206.1438,169.6406 206.5656,169.2031 Q206.8313,168.9375 206.9719,168.8594 Q207.1281,168.7813 207.3313,168.7813 Q207.6594,168.7813 207.9094,169.0469 Q208.175,169.2969 208.175,169.6406 Q208.175,169.9844 207.8313,170.3906 Q207.3313,170.9688 206.5344,171.2969 Q205.4563,171.75 204.1594,171.75 Q202.6438,171.75 201.4406,171.125 Q200.4563,170.625 199.7688,169.5625 Q199.0813,168.4844 199.0813,167.2031 L199.0813,166.0469 Q199.0813,164.7188 199.6906,163.5781 Q200.3156,162.4219 201.4094,161.8125 Q202.5031,161.1875 203.7375,161.1875 Q204.4719,161.1875 205.1125,161.3594 Q205.7688,161.5156 206.3156,161.875 Z " fill="#000000"/><text fill="#000000" font-family="sans-serif" font-size="12" lengthAdjust="spacing" textLength="20" x="222.45" y="170.9102">Key</text><line style="stroke:#A80036;stroke-width:1.5;" x1="167.5" x2="266.5" y1="182" y2="182"/><line style="stroke:#A80036;stroke-width:1.5;" x1="167.5" x2="266.5" y1="190" y2="190"/><ellipse cx="177.5" cy="201" fill="#84BE84" rx="3" ry="3" style="stroke:#038048;stroke-width:1.0;"/><text fill="#000000" font-family="sans-serif" font-size="11" lengthAdjust="spacing" textLength="58" x="186.5" y="205.4189">Key(Colour)</text><ellipse cx="177.5" cy="214.8359" fill="#84BE84" rx="3" ry="3" style="stroke:#038048;stroke-width:1.0;"/><text fill="#000000" font-family="sans-serif" font-size="11" lengthAdjust="spacing" textLength="75" x="186.5" y="219.2549">colour(): Colour</text></a><!--MD5=[eaa084a661f43fd9820f39df5da5e3cd]
class nz.ac.wgtn.swen225.lc.domain.items.Key.Colour--><a href="Key.Colour.html" target="_top" title="Key.Colour.html" xlink:actuate="onRequest" xlink:href="Key.Colour.html" xlink:show="new" xlink:title="Key.Colour.html" xlink:type="simple"><rect codeLine="10" fill="#FEFECE" filter="url(#f517m0wdnokmf)" height="103.3438" id="nz.ac.wgtn.swen225.lc.domain.items.Key.Colour" style="stroke:#A80036;stroke-width:1.5;" width="92" x="171" y="286"/><ellipse cx="186" cy="302" fill="#EB937F" rx="11" ry="11" style="stroke:#A80036;stroke-width:1.0;"/><path d="M184.8594,302.7969 L184.8594,305.2969 L189.1875,305.2969 L189.1875,304.375 Q189.1875,303.7656 189.4219,303.5 Q189.6719,303.2344 190.0469,303.2344 Q190.4219,303.2344 190.6563,303.5 Q190.8906,303.7656 190.8906,304.375 L190.8906,307 L182.8906,307 Q182.2656,307 182,306.7656 Q181.75,306.5313 181.75,306.1406 Q181.75,305.7656 182.0156,305.5313 Q182.2813,305.2969 182.8906,305.2969 L183.1563,305.2969 L183.1563,298.6406 L182.8906,298.6406 Q182.2656,298.6406 182,298.4063 Q181.75,298.1719 181.75,297.7813 Q181.75,297.4063 182,297.1719 Q182.2656,296.9375 182.8906,296.9375 L190.5156,296.9375 L190.5156,299.5313 Q190.5156,300.1406 190.2813,300.4063 Q190.0625,300.6563 189.6719,300.6563 Q189.2969,300.6563 189.0625,300.4063 Q188.8281,300.1406 188.8281,299.5313 L188.8281,298.6406 L184.8594,298.6406 L184.8594,301.0938 L186.3438,301.0938 Q186.3438,300.4375 186.4688,300.25 Q186.7344,299.8438 187.2031,299.8438 Q187.5781,299.8438 187.8125,300.1094 Q188.0469,300.3594 188.0469,300.9688 L188.0469,302.9375 Q188.0469,303.4844 187.9219,303.6719 Q187.6563,304.0625 187.2031,304.0625 Q186.7344,304.0625 186.4688,303.6563 Q186.3438,303.4688 186.3438,302.7969 L184.8594,302.7969 Z " fill="#000000"/><text fill="#000000" font-family="sans-serif" font-size="12" lengthAdjust="spacing" textLength="60" x="200" y="306.9102">Key.Colour</text><line style="stroke:#A80036;stroke-width:1.5;" x1="172" x2="262" y1="318" y2="318"/><ellipse cx="182" cy="329" rx="3" ry="3" style="stroke:#038048;stroke-width:1.0;fill:none;"/><text fill="#000000" font-family="sans-serif" font-size="11" lengthAdjust="spacing" text-decoration="underline" textLength="26" x="191" y="333.4189">BLUE</text><ellipse cx="182" cy="342.8359" rx="3" ry="3" style="stroke:#038048;stroke-width:1.0;fill:none;"/><text fill="#000000" font-family="sans-serif" font-size="11" lengthAdjust="spacing" text-decoration="underline" textLength="34" x="191" y="347.2549">GREEN</text><ellipse cx="182" cy="356.6719" rx="3" ry="3" style="stroke:#038048;stroke-width:1.0;fill:none;"/><text fill="#000000" font-family="sans-serif" font-size="11" lengthAdjust="spacing" text-decoration="underline" textLength="44" x="191" y="361.0908">YELLOW</text><ellipse cx="182" cy="370.5078" rx="3" ry="3" style="stroke:#038048;stroke-width:1.0;fill:none;"/><text fill="#000000" font-family="sans-serif" font-size="11" lengthAdjust="spacing" text-decoration="underline" textLength="20" x="191" y="374.9268">RED</text><line style="stroke:#A80036;stroke-width:1.5;" x1="172" x2="262" y1="381.3438" y2="381.3438"/></a><!--MD5=[aeced6b90a5f9cea7e9b0d4e8b5a9b7c]
class java.lang.Record--><rect codeLine="23" fill="#FEFECE" filter="url(#f517m0wdnokmf)" height="48" id="java.lang.Record" style="stroke:#A80036;stroke-width:1.5;" width="72" x="324" y="42"/><ellipse cx="339" cy="58" fill="#A9DCDF" rx="11" ry="11" style="stroke:#A80036;stroke-width:1.0;"/><path d="M341.1875,59.7656 L337.0469,59.7656 L336.625,60.7969 L337.0469,60.7969 Q337.6563,60.7969 337.9219,61.0313 Q338.1875,61.2656 338.1875,61.6563 Q338.1875,62.0313 337.9219,62.2656 Q337.6563,62.5 337.0469,62.5 L334.75,62.5 Q334.1406,62.5 333.8906,62.2656 Q333.625,62.0313 333.625,61.6406 Q333.625,61.2656 333.9063,61.0313 Q334.1719,60.7813 334.7969,60.7969 L337.4688,54.1406 L336.3594,54.1406 Q335.75,54.1406 335.4844,53.9063 Q335.2188,53.6719 335.2188,53.2813 Q335.2188,52.9063 335.4844,52.6719 Q335.75,52.4375 336.3594,52.4375 L340.0313,52.4375 L343.4219,60.7969 Q344.0156,60.7969 344.2031,60.9375 Q344.5938,61.2031 344.5938,61.6563 Q344.5938,62.0313 344.3281,62.2656 Q344.0781,62.5 343.4688,62.5 L341.1719,62.5 Q340.5625,62.5 340.2969,62.2656 Q340.0313,62.0313 340.0313,61.6406 Q340.0313,61.2656 340.2969,61.0313 Q340.5625,60.7969 341.1719,60.7969 L341.5938,60.7969 L341.1875,59.7656 Z M340.4688,58.0625 L339.1094,54.6875 L337.7344,58.0625 L340.4688,58.0625 Z " fill="#000000"/><text fill="#000000" font-family="sans-serif" font-size="12" font-style="italic" lengthAdjust="spacing" textLength="40" x="353" y="62.9102">Record</text><line style="stroke:#A80036;stroke-width:1.5;" x1="325" x2="395" y1="74" y2="74"/><line style="stroke:#A80036;stroke-width:1.5;" x1="325" x2="395" y1="82" y2="82"/><!--MD5=[c5ffb01d86f775a2bbda104a7481f294]
reverse link java.lang.Record to nz.ac.wgtn.swen225.lc.domain.items.Key--><path codeLine="17" d="M316.91,103.16 C299.35,117.9 279.06,134.93 261.36,149.77 " fill="none" id="java.lang.Record-backto-nz.ac.wgtn.swen225.lc.domain.items.Key" style="stroke:#A80036;stroke-width:1.0;"/><polygon fill="none" points="312.61,97.63,332.43,90.14,321.61,108.36,312.61,97.63" style="stroke:#A80036;stroke-width:1.0;"/><!--MD5=[4baffe0663e8cf563b0133e851681f4e]
reverse link nz.ac.wgtn.swen225.lc.domain.items.Item to nz.ac.wgtn.swen225.lc.domain.items.Key--><path codeLine="18" d="M217,110.34 C217,123.26 217,137.29 217,149.77 " fill="none" id="nz.ac.wgtn.swen225.lc.domain.items.Item-backto-nz.ac.wgtn.swen225.lc.domain.items.Key" style="stroke:#A80036;stroke-width:1.0;stroke-dasharray:7.0,7.0;"/><polygon fill="none" points="210,110.14,217,90.14,224,110.14,210,110.14" style="stroke:#A80036;stroke-width:1.0;"/><!--MD5=[d1764850d17250fae41739f82b1d0f23]
reverse link nz.ac.wgtn.swen225.lc.domain.items.Key to nz.ac.wgtn.swen225.lc.domain.items.Key.Colour--><path codeLine="19" d="M217,241.35 C217,255.84 217,271.53 217,285.92 " fill="none" id="nz.ac.wgtn.swen225.lc.domain.items.Key-backto-nz.ac.wgtn.swen225.lc.domain.items.Key.Colour" style="stroke:#A80036;stroke-width:1.0;"/><ellipse cx="217" cy="234.22" fill="#FFFFFF" rx="8" ry="8" style="stroke:#A80036;stroke-width:1.0;"/><line style="stroke:#A80036;stroke-width:1.0;" x1="217" x2="217" y1="242.22" y2="226.22"/><line style="stroke:#A80036;stroke-width:1.0;" x1="209" x2="225" y1="234.22" y2="234.22"/><text fill="#888888" font-family="sans-serif" font-size="10" lengthAdjust="spacing" textLength="184" x="116" y="421.3809">UMLDoclet 2.0.14, PlantUML 1.2021.9</text><!--MD5=[94afc219914363ef8a1d64d932712d46]
@startuml
    namespace nz.ac.wgtn.swen225.lc.domain.items {

        interface Item [[Item.html]]

        class Key [[Key.html]] {
            +Key(Colour)
            +colour(): Colour
        }

        enum nz.ac.wgtn.swen225.lc.domain.items.Key.Colour [[Key.Colour.html]] {
            {static} +BLUE
            {static} +GREEN
            {static} +YELLOW
            {static} +RED
        }

        java.lang.Record <|- - Key
        Item <|.. Key
        Key +- - nz.ac.wgtn.swen225.lc.domain.items.Key.Colour
    }

    namespace java.lang {
        abstract class Record
    }

    center footer UMLDoclet 2.0.14, PlantUML 1.2021.9
@enduml

PlantUML version 1.2021.9(Sun Jul 25 17:13:56 ICT 2021)
(APACHE source distribution)
Java Runtime: OpenJDK Runtime Environment
JVM: OpenJDK 64-Bit Server VM
Default Encoding: Cp1252
Language: en
Country: NZ
--></g></svg>