<?xml version="1.0" encoding="UTF-8" standalone="no"?><svg xmlns="http://www.w3.org/2000/svg" xmlns:xlink="http://www.w3.org/1999/xlink" contentStyleType="text/css" height="453px" preserveAspectRatio="none" style="width:415px;height:453px;background:#FFFFFF;" version="1.1" viewBox="0 0 415 453" width="415px" zoomAndPan="magnify"><defs/><g><!--cluster nz.ac.wgtn.swen225.lc.domain.items--><g id="cluster_nz.ac.wgtn.swen225.lc.domain.items"><path d="M8.5,6 L261.5,6 A3.75,3.75 0 0 1 264,8.5 L271,29.6094 L271.5,29.6094 A2.5,2.5 0 0 1 274,32.1094 L274,424.5 A2.5,2.5 0 0 1 271.5,427 L8.5,427 A2.5,2.5 0 0 1 6,424.5 L6,8.5 A2.5,2.5 0 0 1 8.5,6 " fill="none" style="stroke:#000000;stroke-width:1.5;"/><line style="stroke:#000000;stroke-width:1.5;" x1="6" x2="271" y1="29.6094" y2="29.6094"/><text fill="#000000" font-family="sans-serif" font-size="14" font-weight="bold" lengthAdjust="spacing" textLength="252" x="10" y="22.5332">nz.ac.wgtn.swen225.lc.domain.items</text></g><!--cluster java.lang--><g id="cluster_java.lang"><path d="M300.5,6 L364.5,6 A3.75,3.75 0 0 1 367,8.5 L374,29.6094 L405.5,29.6094 A2.5,2.5 0 0 1 408,32.1094 L408,103.5 A2.5,2.5 0 0 1 405.5,106 L300.5,106 A2.5,2.5 0 0 1 298,103.5 L298,8.5 A2.5,2.5 0 0 1 300.5,6 " fill="none" style="stroke:#000000;stroke-width:1.5;"/><line style="stroke:#000000;stroke-width:1.5;" x1="298" x2="374" y1="29.6094" y2="29.6094"/><text fill="#000000" font-family="sans-serif" font-size="14" font-weight="bold" lengthAdjust="spacing" textLength="63" x="302" y="22.5332">java.lang</text></g><!--class nz.ac.wgtn.swen225.lc.domain.items.Item--><a href="Item.html" target="_top" title="Item.html" xlink:actuate="onRequest" xlink:href="Item.html" xlink:show="new" xlink:title="Item.html" xlink:type="simple"><g id="elem_nz.ac.wgtn.swen225.lc.domain.items.Item"><rect codeLine="3" fill="#F1F1F1" height="48" id="nz.ac.wgtn.swen225.lc.domain.items.Item" rx="2.5" ry="2.5" style="stroke:#181818;stroke-width:0.5;" width="59" x="165.5" y="42"/><ellipse cx="180.5" cy="58" fill="#B4A7E5" rx="11" ry="11" style="stroke:#181818;stroke-width:1.0;"/><path d="M181.4531,54.6406 L181.4531,61.2969 L183.1719,61.2969 Q183.7813,61.2969 184.0469,61.5313 Q184.3125,61.7656 184.3125,62.1563 Q184.3125,62.5313 184.0469,62.7656 Q183.7813,63 183.1719,63 L178.0313,63 Q177.4219,63 177.1563,62.7656 Q176.8906,62.5313 176.8906,62.1406 Q176.8906,61.7656 177.1563,61.5313 Q177.4219,61.2969 178.0313,61.2969 L179.75,61.2969 L179.75,54.6406 L178.0313,54.6406 Q177.4219,54.6406 177.1563,54.4063 Q176.8906,54.1719 176.8906,53.7813 Q176.8906,53.4063 177.1563,53.1719 Q177.4219,52.9375 178.0313,52.9375 L183.1719,52.9375 Q183.7813,52.9375 184.0469,53.1719 Q184.3125,53.4063 184.3125,53.7813 Q184.3125,54.1719 184.0469,54.4063 Q183.7813,54.6406 183.1719,54.6406 L181.4531,54.6406 Z " fill="#000000"/><text fill="#000000" font-family="sans-serif" font-size="14" font-style="italic" lengthAdjust="spacing" textLength="27" x="194.5" y="63.7285">Item</text><line style="stroke:#181818;stroke-width:0.5;" x1="166.5" x2="223.5" y1="74" y2="74"/><line style="stroke:#181818;stroke-width:0.5;" x1="166.5" x2="223.5" y1="82" y2="82"/></g></a><!--class nz.ac.wgtn.swen225.lc.domain.items.Key--><a href="Key.html" target="_top" title="Key.html" xlink:actuate="onRequest" xlink:href="Key.html" xlink:show="new" xlink:title="Key.html" xlink:type="simple"><g id="elem_nz.ac.wgtn.swen225.lc.domain.items.Key"><rect codeLine="5" fill="#F1F1F1" height="83.2188" id="nz.ac.wgtn.swen225.lc.domain.items.Key" rx="2.5" ry="2.5" style="stroke:#181818;stroke-width:0.5;" width="125" x="132.5" y="150"/><ellipse cx="178.75" cy="166" fill="#ADD1B2" rx="11" ry="11" style="stroke:#181818;stroke-width:1.0;"/><path d="M181.5156,161.875 Q181.6719,161.6563 181.8594,161.5469 Q182.0469,161.4375 182.2656,161.4375 Q182.6406,161.4375 182.875,161.7031 Q183.1094,161.9531 183.1094,162.5625 L183.1094,164.0156 Q183.1094,164.625 182.875,164.8906 Q182.6406,165.1563 182.2656,165.1563 Q181.9219,165.1563 181.7188,164.9531 Q181.5156,164.7656 181.4063,164.25 Q181.3594,163.8906 181.1719,163.7031 Q180.8438,163.3281 180.2344,163.1094 Q179.625,162.8906 179,162.8906 Q178.2344,162.8906 177.5938,163.2188 Q176.9688,163.5469 176.4688,164.2969 Q175.9844,165.0469 175.9844,166.0781 L175.9844,167.1719 Q175.9844,168.4063 176.875,169.2344 Q177.7656,170.0469 179.3594,170.0469 Q180.2969,170.0469 180.9531,169.7969 Q181.3438,169.6406 181.7656,169.2031 Q182.0313,168.9375 182.1719,168.8594 Q182.3281,168.7813 182.5313,168.7813 Q182.8594,168.7813 183.1094,169.0469 Q183.375,169.2969 183.375,169.6406 Q183.375,169.9844 183.0313,170.3906 Q182.5313,170.9688 181.7344,171.2969 Q180.6563,171.75 179.3594,171.75 Q177.8438,171.75 176.6406,171.125 Q175.6563,170.625 174.9688,169.5625 Q174.2813,168.4844 174.2813,167.2031 L174.2813,166.0469 Q174.2813,164.7188 174.8906,163.5781 Q175.5156,162.4219 176.6094,161.8125 Q177.7031,161.1875 178.9375,161.1875 Q179.6719,161.1875 180.3125,161.3594 Q180.9688,161.5156 181.5156,161.875 Z " fill="#000000"/><text fill="#000000" font-family="sans-serif" font-size="14" lengthAdjust="spacing" textLength="24" x="199.25" y="171.7285">Key</text><line style="stroke:#181818;stroke-width:0.5;" x1="133.5" x2="256.5" y1="182" y2="182"/><line style="stroke:#181818;stroke-width:0.5;" x1="133.5" x2="256.5" y1="190" y2="190"/><ellipse cx="143.5" cy="204.3047" fill="#84BE84" rx="3" ry="3" style="stroke:#038048;stroke-width:1.0;"/><text fill="#000000" font-family="sans-serif" font-size="14" lengthAdjust="spacing" textLength="76" x="152.5" y="208.5332">Key(Colour)</text><ellipse cx="143.5" cy="221.9141" fill="#84BE84" rx="3" ry="3" style="stroke:#038048;stroke-width:1.0;"/><text fill="#000000" font-family="sans-serif" font-size="14" lengthAdjust="spacing" textLength="99" x="152.5" y="226.1426">colour(): Colour</text></g></a><!--class nz.ac.wgtn.swen225.lc.domain.items.Key.Colour--><a href="Key.Colour.html" target="_top" title="Key.Colour.html" xlink:actuate="onRequest" xlink:href="Key.Colour.html" xlink:show="new" xlink:title="Key.Colour.html" xlink:type="simple"><g id="elem_nz.ac.wgtn.swen225.lc.domain.items.Key.Colour"><rect codeLine="10" fill="#F1F1F1" height="118.4375" id="nz.ac.wgtn.swen225.lc.domain.items.Key.Colour" rx="2.5" ry="2.5" style="stroke:#181818;stroke-width:0.5;" width="102" x="144" y="293"/><ellipse cx="159" cy="309" fill="#EB937F" rx="11" ry="11" style="stroke:#181818;stroke-width:1.0;"/><path d="M157.8594,309.7969 L157.8594,312.2969 L162.1875,312.2969 L162.1875,311.375 Q162.1875,310.7656 162.4219,310.5 Q162.6719,310.2344 163.0469,310.2344 Q163.4219,310.2344 163.6563,310.5 Q163.8906,310.7656 163.8906,311.375 L163.8906,314 L155.8906,314 Q155.2656,314 155,313.7656 Q154.75,313.5313 154.75,313.1406 Q154.75,312.7656 155.0156,312.5313 Q155.2813,312.2969 155.8906,312.2969 L156.1563,312.2969 L156.1563,305.6406 L155.8906,305.6406 Q155.2656,305.6406 155,305.4063 Q154.75,305.1719 154.75,304.7813 Q154.75,304.4063 155,304.1719 Q155.2656,303.9375 155.8906,303.9375 L163.5156,303.9375 L163.5156,306.5313 Q163.5156,307.1406 163.2813,307.4063 Q163.0625,307.6563 162.6719,307.6563 Q162.2969,307.6563 162.0625,307.4063 Q161.8281,307.1406 161.8281,306.5313 L161.8281,305.6406 L157.8594,305.6406 L157.8594,308.0938 L159.3438,308.0938 Q159.3438,307.4375 159.4688,307.25 Q159.7344,306.8438 160.2031,306.8438 Q160.5781,306.8438 160.8125,307.1094 Q161.0469,307.3594 161.0469,307.9688 L161.0469,309.9375 Q161.0469,310.4844 160.9219,310.6719 Q160.6563,311.0625 160.2031,311.0625 Q159.7344,311.0625 159.4688,310.6563 Q159.3438,310.4688 159.3438,309.7969 L157.8594,309.7969 Z " fill="#000000"/><text fill="#000000" font-family="sans-serif" font-size="14" lengthAdjust="spacing" textLength="70" x="173" y="314.7285">Key.Colour</text><line style="stroke:#181818;stroke-width:0.5;" x1="145" x2="245" y1="325" y2="325"/><ellipse cx="155" cy="339.3047" fill="none" rx="3" ry="3" style="stroke:#038048;stroke-width:1.0;"/><text fill="#000000" font-family="sans-serif" font-size="14" lengthAdjust="spacing" text-decoration="underline" textLength="35" x="164" y="343.5332">BLUE</text><ellipse cx="155" cy="356.9141" fill="none" rx="3" ry="3" style="stroke:#038048;stroke-width:1.0;"/><text fill="#000000" font-family="sans-serif" font-size="14" lengthAdjust="spacing" text-decoration="underline" textLength="48" x="164" y="361.1426">GREEN</text><ellipse cx="155" cy="374.5234" fill="none" rx="3" ry="3" style="stroke:#038048;stroke-width:1.0;"/><text fill="#000000" font-family="sans-serif" font-size="14" lengthAdjust="spacing" text-decoration="underline" textLength="58" x="164" y="378.752">YELLOW</text><ellipse cx="155" cy="392.1328" fill="none" rx="3" ry="3" style="stroke:#038048;stroke-width:1.0;"/><text fill="#000000" font-family="sans-serif" font-size="14" lengthAdjust="spacing" text-decoration="underline" textLength="29" x="164" y="396.3613">RED</text><line style="stroke:#181818;stroke-width:0.5;" x1="145" x2="245" y1="403.4375" y2="403.4375"/></g></a><!--class java.lang.Record--><g id="elem_java.lang.Record"><rect codeLine="23" fill="#F1F1F1" height="48" id="java.lang.Record" rx="2.5" ry="2.5" style="stroke:#181818;stroke-width:0.5;" width="78" x="314" y="42"/><ellipse cx="329" cy="58" fill="#A9DCDF" rx="11" ry="11" style="stroke:#181818;stroke-width:1.0;"/><path d="M331.1875,59.7656 L327.0469,59.7656 L326.625,60.7969 L327.0469,60.7969 Q327.6563,60.7969 327.9219,61.0313 Q328.1875,61.2656 328.1875,61.6563 Q328.1875,62.0313 327.9219,62.2656 Q327.6563,62.5 327.0469,62.5 L324.75,62.5 Q324.1406,62.5 323.8906,62.2656 Q323.625,62.0313 323.625,61.6406 Q323.625,61.2656 323.9063,61.0313 Q324.1719,60.7813 324.7969,60.7969 L327.4688,54.1406 L326.3594,54.1406 Q325.75,54.1406 325.4844,53.9063 Q325.2188,53.6719 325.2188,53.2813 Q325.2188,52.9063 325.4844,52.6719 Q325.75,52.4375 326.3594,52.4375 L330.0313,52.4375 L333.4219,60.7969 Q334.0156,60.7969 334.2031,60.9375 Q334.5938,61.2031 334.5938,61.6563 Q334.5938,62.0313 334.3281,62.2656 Q334.0781,62.5 333.4688,62.5 L331.1719,62.5 Q330.5625,62.5 330.2969,62.2656 Q330.0313,62.0313 330.0313,61.6406 Q330.0313,61.2656 330.2969,61.0313 Q330.5625,60.7969 331.1719,60.7969 L331.5938,60.7969 L331.1875,59.7656 Z M330.4688,58.0625 L329.1094,54.6875 L327.7344,58.0625 L330.4688,58.0625 Z " fill="#000000"/><text fill="#000000" font-family="sans-serif" font-size="14" font-style="italic" lengthAdjust="spacing" textLength="46" x="343" y="63.7285">Record</text><line style="stroke:#181818;stroke-width:0.5;" x1="315" x2="391" y1="74" y2="74"/><line style="stroke:#181818;stroke-width:0.5;" x1="315" x2="391" y1="82" y2="82"/></g><!--reverse link java.lang.Record to nz.ac.wgtn.swen225.lc.domain.items.Key--><g id="link_java.lang.Record_nz.ac.wgtn.swen225.lc.domain.items.Key"><path codeLine="17" d="M307.31,102.71 C288.44,117.46 266.46,134.64 246.98,149.87 " fill="none" id="java.lang.Record-backto-nz.ac.wgtn.swen225.lc.domain.items.Key" style="stroke:#181818;stroke-width:1.0;"/><polygon fill="none" points="303.21,97.03,323.28,90.23,311.83,108.06,303.21,97.03" style="stroke:#181818;stroke-width:1.0;"/></g><!--reverse link nz.ac.wgtn.swen225.lc.domain.items.Item to nz.ac.wgtn.swen225.lc.domain.items.Key--><g id="link_nz.ac.wgtn.swen225.lc.domain.items.Item_nz.ac.wgtn.swen225.lc.domain.items.Key"><path codeLine="18" d="M195,110.31 C195,123.16 195,137.19 195,149.87 " fill="none" id="nz.ac.wgtn.swen225.lc.domain.items.Item-backto-nz.ac.wgtn.swen225.lc.domain.items.Key" style="stroke:#181818;stroke-width:1.0;stroke-dasharray:7.0,7.0;"/><polygon fill="none" points="188,110.23,195,90.23,202,110.23,188,110.23" style="stroke:#181818;stroke-width:1.0;"/></g><!--reverse link nz.ac.wgtn.swen225.lc.domain.items.Key to nz.ac.wgtn.swen225.lc.domain.items.Key.Colour--><g id="link_nz.ac.wgtn.swen225.lc.domain.items.Key_nz.ac.wgtn.swen225.lc.domain.items.Key.Colour"><path codeLine="19" d="M195,248.44 C195,262.88 195,278.45 195,293 " fill="none" id="nz.ac.wgtn.swen225.lc.domain.items.Key-backto-nz.ac.wgtn.swen225.lc.domain.items.Key.Colour" style="stroke:#181818;stroke-width:1.0;"/><ellipse cx="195" cy="241.32" fill="#FFFFFF" rx="8" ry="8" style="stroke:#181818;stroke-width:1.0;"/><line style="stroke:#181818;stroke-width:1.0;" x1="195" x2="195" y1="249.32" y2="233.32"/><line style="stroke:#181818;stroke-width:1.0;" x1="187" x2="203" y1="241.32" y2="241.32"/></g><text fill="#888888" font-family="sans-serif" font-size="10" lengthAdjust="spacing" textLength="184" x="108.5" y="443.3809">UMLDoclet 2.1.0, PlantUML 1.2022.14</text><!--SRC=[bPBVIyCm4CVV-rVSYz1ITsZ15zcJheXOVr0O8cCFPtQRbJIH9jlGRV-xoLgw3bRGF2JaFfUxRxu9082YaiqN2GRrWoHmlR0ApPfLaboX53ZJ9HKA2ykbWKqGG3CAPRcQ-tFt3i5auXVyiAMSJWzPGf8nyC3VBi7D3NTre3DYHy9RBVMoYew1s0V3w1fgtDBTeGMhPVa7xUZRrrKQBVNcjAIDiMGBiOFu9XkdFUWkJzEd7lQMPjdpQm_Cqz6fctpIYb2IMc3EGbSp66u70szUcx6tUhX5F8fwUsEN-IyJWaxpmnze9NJye7TZAnAsUSnQM_UuOFyNOAwrNyQFsKWBoHOIlCIBStXnzQoBmjcAArDe5KQ_]--></g></svg>