<?xml version="1.0" encoding="UTF-8" standalone="no"?><svg xmlns="http://www.w3.org/2000/svg" xmlns:xlink="http://www.w3.org/1999/xlink" contentScriptType="application/ecmascript" contentStyleType="text/css" height="207px" preserveAspectRatio="none" style="width:210px;height:207px;background:#FFFFFF;" version="1.1" viewBox="0 0 210 207" width="210px" zoomAndPan="magnify"><defs><filter height="300%" id="f1jec4ix4gz4dl" width="300%" x="-1" y="-1"><feGaussianBlur result="blurOut" stdDeviation="2.0"/><feColorMatrix in="blurOut" result="blurOut2" type="matrix" values="0 0 0 0 0 0 0 0 0 0 0 0 0 0 0 0 0 0 .4 0"/><feOffset dx="4.0" dy="4.0" in="blurOut2" result="blurOut3"/><feBlend in="SourceGraphic" in2="blurOut3" mode="normal"/></filter></defs><g><!--MD5=[37dca68de70a2dd471e0a6d927505486]
class nz.ac.wgtn.swen225.lc.app.main.Main--><a href="Main.html" target="_top" title="Main.html" xlink:actuate="onRequest" xlink:href="Main.html" xlink:show="new" xlink:title="Main.html" xlink:type="simple"><rect codeLine="5" fill="#FEFECE" filter="url(#f1jec4ix4gz4dl)" height="65.6698" id="nz.ac.wgtn.swen225.lc.app.main.Main" style="stroke:#A80036;stroke-width:1.5;" width="189" x="7" y="109.69"/><ellipse cx="22" cy="131.034" fill="#ADD1B2" rx="11" ry="11" style="stroke:#A80036;stroke-width:1.0;"/><path d="M21.4688,137.9558 Q19.7188,137.9558 18.5781,137.2215 Q17.4531,136.4715 16.8906,135.1277 Q16.3438,133.7683 16.3438,131.9715 Q16.3438,129.9402 17,128.4871 Q17.6563,127.034 18.9375,126.2527 Q20.2188,125.4715 22.0938,125.4715 Q22.9844,125.4715 23.6563,125.659 Q24.3281,125.8308 25.0156,126.1746 L24.2031,128.1902 Q23.5781,127.8777 23.0313,127.7527 Q22.5,127.6277 22.0156,127.6277 Q20.8438,127.6277 20.1406,128.159 Q19.4375,128.6902 19.1406,129.6433 Q18.8438,130.5965 18.8438,131.8621 Q18.8438,133.8777 19.5625,134.8465 Q20.2813,135.7996 21.875,135.7996 Q22.4688,135.7996 23.0938,135.6433 Q23.7188,135.4871 24.5469,135.1121 L24.5469,137.3308 Q23.8125,137.6433 23.0156,137.7996 Q22.2344,137.9558 21.4688,137.9558 Z " fill="#000000"/><text fill="#000000" font-family="sans-serif" font-size="14" lengthAdjust="spacing" textLength="34" x="97.5" y="129.6559">Main</text><text fill="#000000" font-family="sans-serif" font-size="10" lengthAdjust="spacing" textLength="157" x="36" y="144.4479">nz.ac.wgtn.swen225.lc.app.main</text><line style="stroke:#A80036;stroke-width:1.5;" x1="8" x2="195" y1="152.3779" y2="152.3779"/><ellipse cx="18" cy="163.3779" fill="#84BE84" rx="3" ry="3" style="stroke:#038048;stroke-width:1.0;"/><text fill="#000000" font-family="sans-serif" font-size="11" lengthAdjust="spacing" text-decoration="underline" textLength="101" x="27" y="168.1368">main(String[]): void</text></a><!--MD5=[18a7562403221f513ca44e0f82c4c17a]
class javax.swing.JFrame--><rect codeLine="9" fill="#FEFECE" filter="url(#f1jec4ix4gz4dl)" height="42.6879" id="javax.swing.JFrame" style="stroke:#A80036;stroke-width:1.5;" width="88" x="57.5" y="7"/><ellipse cx="72.5" cy="28.344" fill="#ADD1B2" rx="11" ry="11" style="stroke:#A80036;stroke-width:1.0;"/><path d="M71.9688,35.2658 Q70.2188,35.2658 69.0781,34.5315 Q67.9531,33.7815 67.3906,32.4377 Q66.8438,31.0783 66.8438,29.2815 Q66.8438,27.2502 67.5,25.7971 Q68.1563,24.344 69.4375,23.5627 Q70.7188,22.7815 72.5938,22.7815 Q73.4844,22.7815 74.1563,22.969 Q74.8281,23.1408 75.5156,23.4846 L74.7031,25.5002 Q74.0781,25.1877 73.5313,25.0627 Q73,24.9377 72.5156,24.9377 Q71.3438,24.9377 70.6406,25.469 Q69.9375,26.0002 69.6406,26.9533 Q69.3438,27.9065 69.3438,29.1721 Q69.3438,31.1877 70.0625,32.1565 Q70.7813,33.1096 72.375,33.1096 Q72.9688,33.1096 73.5938,32.9533 Q74.2188,32.7971 75.0469,32.4221 L75.0469,34.6408 Q74.3125,34.9533 73.5156,35.1096 Q72.7344,35.2658 71.9688,35.2658 Z " fill="#000000"/><text fill="#000000" font-family="sans-serif" font-size="14" lengthAdjust="spacing" textLength="46" x="91.5" y="26.9659">JFrame</text><text fill="#000000" font-family="sans-serif" font-size="10" lengthAdjust="spacing" textLength="56" x="86.5" y="41.7579">javax.swing</text><!--MD5=[f0ac3c4ca97870929c1a60334d18d4df]
reverse link javax.swing.JFrame to nz.ac.wgtn.swen225.lc.app.main.Main--><path codeLine="11" d="M101.5,71.18 C101.5,83.8 101.5,97.45 101.5,109.33 " fill="none" id="javax.swing.JFrame-backto-nz.ac.wgtn.swen225.lc.app.main.Main" style="stroke:#A80036;stroke-width:1.0;"/><polygon fill="none" points="94.5,71.18,101.5,51.18,108.5,71.18,94.5,71.18" style="stroke:#A80036;stroke-width:1.0;"/><text fill="#888888" font-family="sans-serif" font-size="10" lengthAdjust="spacing" textLength="182" x="7.5" y="199.0498">UMLDoclet 2.0.14, PlantUML 1.2021.9</text><!--MD5=[1dc539b2b52a2f27c5d357c2e9c52f50]
@startuml
    set namespaceSeparator none
    hide empty fields
    hide empty methods

    class "<size:14>Main\n<size:10>nz.ac.wgtn.swen225.lc.app.main" as nz.ac.wgtn.swen225.lc.app.main.Main [[Main.html]] {
        {static} +main(String[]): void
    }

    class "<size:14>JFrame\n<size:10>javax.swing" as javax.swing.JFrame

    javax.swing.JFrame <|- - nz.ac.wgtn.swen225.lc.app.main.Main

    center footer UMLDoclet 2.0.14, PlantUML 1.2021.9
@enduml

PlantUML version 1.2021.9(Sun Jul 25 22:13:56 NZST 2021)
(APACHE source distribution)
Java Runtime: OpenJDK Runtime Environment
JVM: OpenJDK 64-Bit Server VM
Default Encoding: UTF-8
Language: en
Country: NZ
--></g></svg>