<?xml version="1.0" encoding="UTF-8" standalone="no"?><svg xmlns="http://www.w3.org/2000/svg" xmlns:xlink="http://www.w3.org/1999/xlink" contentStyleType="text/css" height="327px" preserveAspectRatio="none" style="width:310px;height:327px;background:#FFFFFF;" version="1.1" viewBox="0 0 310 327" width="310px" zoomAndPan="magnify"><defs/><g><!--cluster nz.ac.wgtn.swen225.lc.app.main--><g id="cluster_nz.ac.wgtn.swen225.lc.app.main"><path d="M67.5,182.83 L290.5,182.83 A3.75,3.75 0 0 1 293,185.33 L300,206.4394 L300.5,206.4394 A2.5,2.5 0 0 1 303,208.9394 L303,297.94 A2.5,2.5 0 0 1 300.5,300.44 L67.5,300.44 A2.5,2.5 0 0 1 65,297.94 L65,185.33 A2.5,2.5 0 0 1 67.5,182.83 " fill="none" style="stroke:#000000;stroke-width:1.5;"/><line style="stroke:#000000;stroke-width:1.5;" x1="65" x2="300" y1="206.4394" y2="206.4394"/><text fill="#000000" font-family="sans-serif" font-size="14" font-weight="bold" lengthAdjust="spacing" textLength="222" x="69" y="199.3632">nz.ac.wgtn.swen225.lc.app.main</text></g><!--cluster javax.swing--><g id="cluster_javax.swing"><path d="M8.5,6 L91.5,6 A3.75,3.75 0 0 1 94,8.5 L101,29.6094 L299.5,29.6094 A2.5,2.5 0 0 1 302,32.1094 L302,156.33 A2.5,2.5 0 0 1 299.5,158.83 L8.5,158.83 A2.5,2.5 0 0 1 6,156.33 L6,8.5 A2.5,2.5 0 0 1 8.5,6 " fill="none" style="stroke:#000000;stroke-width:1.5;"/><line style="stroke:#000000;stroke-width:1.5;" x1="6" x2="101" y1="29.6094" y2="29.6094"/><text fill="#000000" font-family="sans-serif" font-size="14" font-weight="bold" lengthAdjust="spacing" textLength="82" x="10" y="22.5332">javax.swing</text></g><!--class nz.ac.wgtn.swen225.lc.app.main.Main--><a href="Main.html" target="_top" title="Main.html" xlink:actuate="onRequest" xlink:href="Main.html" xlink:show="new" xlink:title="Main.html" xlink:type="simple"><g id="elem_nz.ac.wgtn.swen225.lc.app.main.Main"><rect codeLine="3" fill="#F1F1F1" height="65.6094" id="nz.ac.wgtn.swen225.lc.app.main.Main" rx="2.5" ry="2.5" style="stroke:#181818;stroke-width:0.5;" width="145" x="81.5" y="218.83"/><ellipse cx="134.75" cy="234.83" fill="#ADD1B2" rx="11" ry="11" style="stroke:#181818;stroke-width:1.0;"/><path d="M137.5156,230.705 Q137.6719,230.4862 137.8594,230.3769 Q138.0469,230.2675 138.2656,230.2675 Q138.6406,230.2675 138.875,230.5331 Q139.1094,230.7831 139.1094,231.3925 L139.1094,232.8456 Q139.1094,233.455 138.875,233.7206 Q138.6406,233.9862 138.2656,233.9862 Q137.9219,233.9862 137.7188,233.7831 Q137.5156,233.5956 137.4063,233.08 Q137.3594,232.7206 137.1719,232.5331 Q136.8438,232.1581 136.2344,231.9394 Q135.625,231.7206 135,231.7206 Q134.2344,231.7206 133.5938,232.0487 Q132.9688,232.3769 132.4688,233.1269 Q131.9844,233.8769 131.9844,234.9081 L131.9844,236.0019 Q131.9844,237.2362 132.875,238.0644 Q133.7656,238.8769 135.3594,238.8769 Q136.2969,238.8769 136.9531,238.6269 Q137.3438,238.4706 137.7656,238.0331 Q138.0313,237.7675 138.1719,237.6894 Q138.3281,237.6112 138.5313,237.6112 Q138.8594,237.6112 139.1094,237.8769 Q139.375,238.1269 139.375,238.4706 Q139.375,238.8144 139.0313,239.2206 Q138.5313,239.7987 137.7344,240.1269 Q136.6563,240.58 135.3594,240.58 Q133.8438,240.58 132.6406,239.955 Q131.6563,239.455 130.9688,238.3925 Q130.2813,237.3144 130.2813,236.0331 L130.2813,234.8769 Q130.2813,233.5487 130.8906,232.4081 Q131.5156,231.2519 132.6094,230.6425 Q133.7031,230.0175 134.9375,230.0175 Q135.6719,230.0175 136.3125,230.1894 Q136.9688,230.3456 137.5156,230.705 Z " fill="#000000"/><text fill="#000000" font-family="sans-serif" font-size="14" lengthAdjust="spacing" textLength="30" x="155.25" y="240.5585">Main</text><line style="stroke:#181818;stroke-width:0.5;" x1="82.5" x2="225.5" y1="250.83" y2="250.83"/><line style="stroke:#181818;stroke-width:0.5;" x1="82.5" x2="225.5" y1="258.83" y2="258.83"/><ellipse cx="92.5" cy="273.1347" fill="#84BE84" rx="3" ry="3" style="stroke:#038048;stroke-width:1.0;"/><text fill="#000000" font-family="sans-serif" font-size="14" lengthAdjust="spacing" text-decoration="underline" textLength="119" x="101.5" y="277.3632">main(String[]): void</text></g></a><!--class javax.swing.JFrame--><g id="elem_javax.swing.JFrame"><rect codeLine="11" fill="#F1F1F1" height="100.8281" id="javax.swing.JFrame" rx="2.5" ry="2.5" style="stroke:#181818;stroke-width:0.5;" width="263" x="22.5" y="42"/><ellipse cx="126.25" cy="58" fill="#ADD1B2" rx="11" ry="11" style="stroke:#181818;stroke-width:1.0;"/><path d="M129.0156,53.875 Q129.1719,53.6563 129.3594,53.5469 Q129.5469,53.4375 129.7656,53.4375 Q130.1406,53.4375 130.375,53.7031 Q130.6094,53.9531 130.6094,54.5625 L130.6094,56.0156 Q130.6094,56.625 130.375,56.8906 Q130.1406,57.1563 129.7656,57.1563 Q129.4219,57.1563 129.2188,56.9531 Q129.0156,56.7656 128.9063,56.25 Q128.8594,55.8906 128.6719,55.7031 Q128.3438,55.3281 127.7344,55.1094 Q127.125,54.8906 126.5,54.8906 Q125.7344,54.8906 125.0938,55.2188 Q124.4688,55.5469 123.9688,56.2969 Q123.4844,57.0469 123.4844,58.0781 L123.4844,59.1719 Q123.4844,60.4063 124.375,61.2344 Q125.2656,62.0469 126.8594,62.0469 Q127.7969,62.0469 128.4531,61.7969 Q128.8438,61.6406 129.2656,61.2031 Q129.5313,60.9375 129.6719,60.8594 Q129.8281,60.7813 130.0313,60.7813 Q130.3594,60.7813 130.6094,61.0469 Q130.875,61.2969 130.875,61.6406 Q130.875,61.9844 130.5313,62.3906 Q130.0313,62.9688 129.2344,63.2969 Q128.1563,63.75 126.8594,63.75 Q125.3438,63.75 124.1406,63.125 Q123.1563,62.625 122.4688,61.5625 Q121.7813,60.4844 121.7813,59.2031 L121.7813,58.0469 Q121.7813,56.7188 122.3906,55.5781 Q123.0156,54.4219 124.1094,53.8125 Q125.2031,53.1875 126.4375,53.1875 Q127.1719,53.1875 127.8125,53.3594 Q128.4688,53.5156 129.0156,53.875 Z " fill="#000000"/><text fill="#000000" font-family="sans-serif" font-size="14" lengthAdjust="spacing" textLength="47" x="146.75" y="63.7285">JFrame</text><line style="stroke:#181818;stroke-width:0.5;" x1="23.5" x2="284.5" y1="74" y2="74"/><polygon fill="none" points="33.5,83.3047,37.5,87.3047,33.5,91.3047,29.5,87.3047" style="stroke:#B38D22;stroke-width:1.0;"/><text fill="#000000" font-family="sans-serif" font-size="14" lengthAdjust="spacing" textLength="135" x="42.5" y="92.5332">rootPane: JRootPane</text><polygon fill="none" points="33.5,100.9141,37.5,104.9141,33.5,108.9141,29.5,104.9141" style="stroke:#B38D22;stroke-width:1.0;"/><text fill="#000000" font-family="sans-serif" font-size="14" lengthAdjust="spacing" textLength="228" x="42.5" y="110.1426">rootPaneCheckingEnabled: boolean</text><polygon fill="none" points="33.5,118.5234,37.5,122.5234,33.5,126.5234,29.5,122.5234" style="stroke:#B38D22;stroke-width:1.0;"/><text fill="#000000" font-family="sans-serif" font-size="14" lengthAdjust="spacing" textLength="237" x="42.5" y="127.752">accessibleContext: AccessibleContext</text><line style="stroke:#181818;stroke-width:0.5;" x1="23.5" x2="284.5" y1="134.8281" y2="134.8281"/></g><!--reverse link javax.swing.JFrame to nz.ac.wgtn.swen225.lc.app.main.Main--><g id="link_javax.swing.JFrame_nz.ac.wgtn.swen225.lc.app.main.Main"><path codeLine="7" d="M154,164.13 C154,183.14 154,202.79 154,218.54 " fill="none" id="javax.swing.JFrame-backto-nz.ac.wgtn.swen225.lc.app.main.Main" style="stroke:#181818;stroke-width:1.0;"/><polygon fill="none" points="147,164.16,154,144.16,161,164.16,147,164.16" style="stroke:#181818;stroke-width:1.0;"/></g><text fill="#888888" font-family="sans-serif" font-size="10" lengthAdjust="spacing" textLength="184" x="56" y="316.8209">UMLDoclet 2.1.0, PlantUML 1.2022.14</text><!--SRC=[ROz1ImCn48Nl-oi6H6ZH1btmidYHLW_5Gb4yBNkOJgTjD3jPah0jrlvtixhOj3YN2JDVtdi3021Ois-G6EHJ8QdjEeZoMvOylrE653QDgb4BxBCC-YA3tiEicvPbrzGcrAQg8WD9xNt0eEa0Lvt0u3KuBUko6XRGMhtyGmz7uNTiSHVT8wUcJov6W_klqUZ7AalOO-ZaH-B-6x1NE0rruQmDSnGkOFhIF_y7nXkcZwZxABWml2nWOQrXb5CQYTXx7OcnbS2xKC33-IWvDJc2E2uThA9TR6-pvuabmm5oTQjkhc5kK4ASmcNBpcihW-4t]--></g></svg>