<?xml version="1.0" encoding="UTF-8" standalone="no"?><svg xmlns="http://www.w3.org/2000/svg" xmlns:xlink="http://www.w3.org/1999/xlink" contentScriptType="application/ecmascript" contentStyleType="text/css" height="319px" preserveAspectRatio="none" style="width:300px;height:319px;background:#FFFFFF;" version="1.1" viewBox="0 0 300 319" width="300px" zoomAndPan="magnify"><defs><filter height="300%" id="fugbis53k98g7" width="300%" x="-1" y="-1"><feGaussianBlur result="blurOut" stdDeviation="2.0"/><feColorMatrix in="blurOut" result="blurOut2" type="matrix" values="0 0 0 0 0 0 0 0 0 0 0 0 0 0 0 0 0 0 .4 0"/><feOffset dx="4.0" dy="4.0" in="blurOut2" result="blurOut3"/><feBlend in="SourceGraphic" in2="blurOut3" mode="normal"/></filter></defs><g><!--MD5=[6fe61a7350ae8130c2c1e7a75d99b07f]
cluster nz.ac.wgtn.swen225.lc.app.main--><polygon fill="#FFFFFF" filter="url(#fugbis53k98g7)" points="44,177.552,273,177.552,280,202.6199,283,202.6199,283,294.532,44,294.532,44,177.552" style="stroke:#000000;stroke-width:1.5;"/><line style="stroke:#000000;stroke-width:1.5;" x1="44" x2="280" y1="202.6199" y2="202.6199"/><text fill="#000000" font-family="sans-serif" font-size="14" font-weight="bold" lengthAdjust="spacing" textLength="223" x="48" y="194.5179">nz.ac.wgtn.swen225.lc.app.main</text><!--MD5=[535aab4de90d4dfa371a9b40d5438fc3]
cluster javax.swing--><polygon fill="#FFFFFF" filter="url(#fugbis53k98g7)" points="16,6.602,103,6.602,110,31.6699,266,31.6699,266,153.552,16,153.552,16,6.602" style="stroke:#000000;stroke-width:1.5;"/><line style="stroke:#000000;stroke-width:1.5;" x1="16" x2="110" y1="31.6699" y2="31.6699"/><text fill="#000000" font-family="sans-serif" font-size="14" font-weight="bold" lengthAdjust="spacing" textLength="81" x="20" y="23.5679">javax.swing</text><!--MD5=[37dca68de70a2dd471e0a6d927505486]
class nz.ac.wgtn.swen225.lc.app.main.Main--><a href="Main.html" target="_top" title="Main.html" xlink:actuate="onRequest" xlink:href="Main.html" xlink:show="new" xlink:title="Main.html" xlink:type="simple"><rect codeLine="3" fill="#FEFECE" filter="url(#fugbis53k98g7)" height="62.9819" id="nz.ac.wgtn.swen225.lc.app.main.Main" style="stroke:#A80036;stroke-width:1.5;" width="127" x="77.5" y="215.552"/><ellipse cx="122.75" cy="231.552" fill="#ADD1B2" rx="11" ry="11" style="stroke:#A80036;stroke-width:1.0;"/><path d="M122.2188,238.4739 Q120.4688,238.4739 119.3281,237.7395 Q118.2031,236.9895 117.6406,235.6457 Q117.0938,234.2864 117.0938,232.4895 Q117.0938,230.4582 117.75,229.0051 Q118.4063,227.552 119.6875,226.7707 Q120.9688,225.9895 122.8438,225.9895 Q123.7344,225.9895 124.4063,226.177 Q125.0781,226.3489 125.7656,226.6926 L124.9531,228.7082 Q124.3281,228.3957 123.7813,228.2707 Q123.25,228.1457 122.7656,228.1457 Q121.5938,228.1457 120.8906,228.677 Q120.1875,229.2082 119.8906,230.1614 Q119.5938,231.1145 119.5938,232.3801 Q119.5938,234.3957 120.3125,235.3645 Q121.0313,236.3176 122.625,236.3176 Q123.2188,236.3176 123.8438,236.1614 Q124.4688,236.0051 125.2969,235.6301 L125.2969,237.8489 Q124.5625,238.1614 123.7656,238.3176 Q122.9844,238.4739 122.2188,238.4739 Z " fill="#000000"/><text fill="#000000" font-family="sans-serif" font-size="12" lengthAdjust="spacing" textLength="28" x="143.25" y="236.208">Main</text><line style="stroke:#A80036;stroke-width:1.5;" x1="78.5" x2="203.5" y1="247.552" y2="247.552"/><line style="stroke:#A80036;stroke-width:1.5;" x1="78.5" x2="203.5" y1="255.552" y2="255.552"/><ellipse cx="88.5" cy="266.552" fill="#84BE84" rx="3" ry="3" style="stroke:#038048;stroke-width:1.0;"/><text fill="#000000" font-family="sans-serif" font-size="11" lengthAdjust="spacing" text-decoration="underline" textLength="101" x="97.5" y="271.3109">main(String[]): void</text></a><!--MD5=[18a7562403221f513ca44e0f82c4c17a]
class javax.swing.JFrame--><rect codeLine="11" fill="#FEFECE" filter="url(#fugbis53k98g7)" height="92.9457" id="javax.swing.JFrame" style="stroke:#A80036;stroke-width:1.5;" width="217" x="32.5" y="44.602"/><ellipse cx="117.25" cy="60.602" fill="#ADD1B2" rx="11" ry="11" style="stroke:#A80036;stroke-width:1.0;"/><path d="M116.7188,67.5239 Q114.9688,67.5239 113.8281,66.7895 Q112.7031,66.0395 112.1406,64.6957 Q111.5938,63.3364 111.5938,61.5395 Q111.5938,59.5082 112.25,58.0551 Q112.9063,56.602 114.1875,55.8207 Q115.4688,55.0395 117.3438,55.0395 Q118.2344,55.0395 118.9063,55.227 Q119.5781,55.3989 120.2656,55.7426 L119.4531,57.7582 Q118.8281,57.4457 118.2813,57.3207 Q117.75,57.1957 117.2656,57.1957 Q116.0938,57.1957 115.3906,57.727 Q114.6875,58.2582 114.3906,59.2114 Q114.0938,60.1645 114.0938,61.4301 Q114.0938,63.4457 114.8125,64.4145 Q115.5313,65.3676 117.125,65.3676 Q117.7188,65.3676 118.3438,65.2114 Q118.9688,65.0551 119.7969,64.6801 L119.7969,66.8989 Q119.0625,67.2114 118.2656,67.3676 Q117.4844,67.5239 116.7188,67.5239 Z " fill="#000000"/><text fill="#000000" font-family="sans-serif" font-size="12" lengthAdjust="spacing" textLength="39" x="137.75" y="65.258">JFrame</text><line style="stroke:#A80036;stroke-width:1.5;" x1="33.5" x2="248.5" y1="76.602" y2="76.602"/><polygon fill="none" points="43.5,82.602,47.5,86.602,43.5,90.602,39.5,86.602" style="stroke:#B38D22;stroke-width:1.0;"/><text fill="#000000" font-family="sans-serif" font-size="11" lengthAdjust="spacing" textLength="109" x="52.5" y="92.3609">rootPane: JRootPane</text><polygon fill="none" points="43.5,97.5839,47.5,101.5839,43.5,105.5839,39.5,101.5839" style="stroke:#B38D22;stroke-width:1.0;"/><text fill="#000000" font-family="sans-serif" font-size="11" lengthAdjust="spacing" textLength="188" x="52.5" y="107.3428">rootPaneCheckingEnabled: boolean</text><polygon fill="none" points="43.5,112.5658,47.5,116.5658,43.5,120.5658,39.5,116.5658" style="stroke:#B38D22;stroke-width:1.0;"/><text fill="#000000" font-family="sans-serif" font-size="11" lengthAdjust="spacing" textLength="191" x="52.5" y="122.3247">accessibleContext: AccessibleContext</text><line style="stroke:#A80036;stroke-width:1.5;" x1="33.5" x2="248.5" y1="129.5476" y2="129.5476"/><!--MD5=[f0ac3c4ca97870929c1a60334d18d4df]
reverse link javax.swing.JFrame to nz.ac.wgtn.swen225.lc.app.main.Main--><path codeLine="7" d="M141,158.642 C141,178.362 141,199.022 141,215.292 " fill="none" id="javax.swing.JFrame-backto-nz.ac.wgtn.swen225.lc.app.main.Main" style="stroke:#A80036;stroke-width:1.0;"/><polygon fill="none" points="134,158.852,141,138.852,148,158.852,134,158.852" style="stroke:#A80036;stroke-width:1.0;"/><text fill="#888888" font-family="sans-serif" font-size="10" lengthAdjust="spacing" textLength="182" x="52.5" y="311.222">UMLDoclet 2.0.14, PlantUML 1.2021.9</text><!--MD5=[70772bf2040cbbfd1ad50041208a157c]
@startuml
    namespace nz.ac.wgtn.swen225.lc.app.main {

        class Main [[Main.html]] {
            {static} +main(String[]): void
        }

        javax.swing.JFrame <|- - Main
    }

    namespace javax.swing {
        class JFrame {
            #rootPane: JRootPane
            #rootPaneCheckingEnabled: boolean
            #accessibleContext: AccessibleContext
        }
    }

    center footer UMLDoclet 2.0.14, PlantUML 1.2021.9
@enduml

PlantUML version 1.2021.9(Sun Jul 25 22:13:56 NZST 2021)
(APACHE source distribution)
Java Runtime: OpenJDK Runtime Environment
JVM: OpenJDK 64-Bit Server VM
Default Encoding: UTF-8
Language: en
Country: NZ
--></g></svg>