<?xml version="1.0" encoding="UTF-8" standalone="no"?><svg xmlns="http://www.w3.org/2000/svg" xmlns:xlink="http://www.w3.org/1999/xlink" contentStyleType="text/css" height="393px" preserveAspectRatio="none" style="width:196px;height:393px;background:#FFFFFF;" version="1.1" viewBox="0 0 196 393" width="196px" zoomAndPan="magnify"><defs/><g><!--class nz.ac.wgtn.swen225.lc.renderer.AudioUnit.AudioClip--><a href="AudioUnit.AudioClip.html" target="_top" title="AudioUnit.AudioClip.html" xlink:actuate="onRequest" xlink:href="AudioUnit.AudioClip.html" xlink:show="new" xlink:title="AudioUnit.AudioClip.html" xlink:type="simple"><g id="elem_nz.ac.wgtn.swen225.lc.renderer.AudioUnit.AudioClip"><rect codeLine="5" fill="#F1F1F1" height="259.5" id="nz.ac.wgtn.swen225.lc.renderer.AudioUnit.AudioClip" rx="2.5" ry="2.5" style="stroke:#181818;stroke-width:0.5;" width="181" x="8.5" y="107"/><ellipse cx="23.5" cy="127.0938" fill="#EB937F" rx="11" ry="11" style="stroke:#181818;stroke-width:1.0;"/><path d="M22.3594,127.8906 L22.3594,130.3906 L26.6875,130.3906 L26.6875,129.4688 Q26.6875,128.8594 26.9219,128.5938 Q27.1719,128.3281 27.5469,128.3281 Q27.9219,128.3281 28.1563,128.5938 Q28.3906,128.8594 28.3906,129.4688 L28.3906,132.0938 L20.3906,132.0938 Q19.7656,132.0938 19.5,131.8594 Q19.25,131.625 19.25,131.2344 Q19.25,130.8594 19.5156,130.625 Q19.7813,130.3906 20.3906,130.3906 L20.6563,130.3906 L20.6563,123.7344 L20.3906,123.7344 Q19.7656,123.7344 19.5,123.5 Q19.25,123.2656 19.25,122.875 Q19.25,122.5 19.5,122.2656 Q19.7656,122.0313 20.3906,122.0313 L28.0156,122.0313 L28.0156,124.625 Q28.0156,125.2344 27.7813,125.5 Q27.5625,125.75 27.1719,125.75 Q26.7969,125.75 26.5625,125.5 Q26.3281,125.2344 26.3281,124.625 L26.3281,123.7344 L22.3594,123.7344 L22.3594,126.1875 L23.8438,126.1875 Q23.8438,125.5313 23.9688,125.3438 Q24.2344,124.9375 24.7031,124.9375 Q25.0781,124.9375 25.3125,125.2031 Q25.5469,125.4531 25.5469,126.0625 L25.5469,128.0313 Q25.5469,128.5781 25.4219,128.7656 Q25.1563,129.1563 24.7031,129.1563 Q24.2344,129.1563 23.9688,128.75 Q23.8438,128.5625 23.8438,127.8906 L22.3594,127.8906 Z " fill="#000000"/><text fill="#000000" font-family="sans-serif" font-size="14" lengthAdjust="spacing" textLength="124" x="50" y="126.5332">AudioUnit.AudioClip</text><text fill="#000000" font-family="sans-serif" font-size="10" lengthAdjust="spacing" textLength="149" x="37.5" y="139.9902">nz.ac.wgtn.swen225.lc.renderer</text><line style="stroke:#181818;stroke-width:0.5;" x1="9.5" x2="188.5" y1="147.1875" y2="147.1875"/><ellipse cx="19.5" cy="161.4922" fill="none" rx="3" ry="3" style="stroke:#038048;stroke-width:1.0;"/><text fill="#000000" font-family="sans-serif" font-size="14" lengthAdjust="spacing" text-decoration="underline" textLength="97" x="28.5" y="165.7207">BACKGROUND</text><ellipse cx="19.5" cy="179.1016" fill="none" rx="3" ry="3" style="stroke:#038048;stroke-width:1.0;"/><text fill="#000000" font-family="sans-serif" font-size="14" lengthAdjust="spacing" text-decoration="underline" textLength="69" x="28.5" y="183.3301">AMBIENCE</text><ellipse cx="19.5" cy="196.7109" fill="none" rx="3" ry="3" style="stroke:#038048;stroke-width:1.0;"/><text fill="#000000" font-family="sans-serif" font-size="14" lengthAdjust="spacing" text-decoration="underline" textLength="71" x="28.5" y="200.9395">SEAGULL1</text><ellipse cx="19.5" cy="214.3203" fill="none" rx="3" ry="3" style="stroke:#038048;stroke-width:1.0;"/><text fill="#000000" font-family="sans-serif" font-size="14" lengthAdjust="spacing" text-decoration="underline" textLength="71" x="28.5" y="218.5488">SEAGULL2</text><ellipse cx="19.5" cy="231.9297" fill="none" rx="3" ry="3" style="stroke:#038048;stroke-width:1.0;"/><text fill="#000000" font-family="sans-serif" font-size="14" lengthAdjust="spacing" text-decoration="underline" textLength="71" x="28.5" y="236.1582">SEAGULL3</text><ellipse cx="19.5" cy="249.5391" fill="none" rx="3" ry="3" style="stroke:#038048;stroke-width:1.0;"/><text fill="#000000" font-family="sans-serif" font-size="14" lengthAdjust="spacing" text-decoration="underline" textLength="95" x="28.5" y="253.7676">FISH_CAUGHT</text><ellipse cx="19.5" cy="267.1484" fill="none" rx="3" ry="3" style="stroke:#038048;stroke-width:1.0;"/><text fill="#000000" font-family="sans-serif" font-size="14" lengthAdjust="spacing" text-decoration="underline" textLength="110" x="28.5" y="271.377">ENEMY_ATTACK</text><ellipse cx="19.5" cy="284.7578" fill="none" rx="3" ry="3" style="stroke:#038048;stroke-width:1.0;"/><text fill="#000000" font-family="sans-serif" font-size="14" lengthAdjust="spacing" text-decoration="underline" textLength="80" x="28.5" y="288.9863">DOOROPEN</text><ellipse cx="19.5" cy="302.3672" fill="none" rx="3" ry="3" style="stroke:#038048;stroke-width:1.0;"/><text fill="#000000" font-family="sans-serif" font-size="14" lengthAdjust="spacing" text-decoration="underline" textLength="92" x="28.5" y="306.5957">KEYCOLLECT</text><ellipse cx="19.5" cy="319.9766" fill="none" rx="3" ry="3" style="stroke:#038048;stroke-width:1.0;"/><text fill="#000000" font-family="sans-serif" font-size="14" lengthAdjust="spacing" text-decoration="underline" textLength="38" x="28.5" y="324.2051">FISH1</text><ellipse cx="19.5" cy="337.5859" fill="none" rx="3" ry="3" style="stroke:#038048;stroke-width:1.0;"/><text fill="#000000" font-family="sans-serif" font-size="14" lengthAdjust="spacing" text-decoration="underline" textLength="38" x="28.5" y="341.8145">FISH2</text><ellipse cx="19.5" cy="355.1953" fill="none" rx="3" ry="3" style="stroke:#038048;stroke-width:1.0;"/><text fill="#000000" font-family="sans-serif" font-size="14" lengthAdjust="spacing" text-decoration="underline" textLength="38" x="28.5" y="359.4238">FISH3</text></g></a><!--class nz.ac.wgtn.swen225.lc.renderer.AudioUnit--><a href="AudioUnit.html" target="_top" title="AudioUnit.html" xlink:actuate="onRequest" xlink:href="AudioUnit.html" xlink:show="new" xlink:title="AudioUnit.html" xlink:type="simple"><g id="elem_nz.ac.wgtn.swen225.lc.renderer.AudioUnit"><rect codeLine="20" fill="#F1F1F1" height="40.1875" id="nz.ac.wgtn.swen225.lc.renderer.AudioUnit" rx="2.5" ry="2.5" style="stroke:#181818;stroke-width:0.5;" width="181" x="8.5" y="7"/><ellipse cx="23.5" cy="27.0938" fill="#ADD1B2" rx="11" ry="11" style="stroke:#181818;stroke-width:1.0;"/><path d="M26.2656,22.9688 Q26.4219,22.75 26.6094,22.6406 Q26.7969,22.5313 27.0156,22.5313 Q27.3906,22.5313 27.625,22.7969 Q27.8594,23.0469 27.8594,23.6563 L27.8594,25.1094 Q27.8594,25.7188 27.625,25.9844 Q27.3906,26.25 27.0156,26.25 Q26.6719,26.25 26.4688,26.0469 Q26.2656,25.8594 26.1563,25.3438 Q26.1094,24.9844 25.9219,24.7969 Q25.5938,24.4219 24.9844,24.2031 Q24.375,23.9844 23.75,23.9844 Q22.9844,23.9844 22.3438,24.3125 Q21.7188,24.6406 21.2188,25.3906 Q20.7344,26.1406 20.7344,27.1719 L20.7344,28.2656 Q20.7344,29.5 21.625,30.3281 Q22.5156,31.1406 24.1094,31.1406 Q25.0469,31.1406 25.7031,30.8906 Q26.0938,30.7344 26.5156,30.2969 Q26.7813,30.0313 26.9219,29.9531 Q27.0781,29.875 27.2813,29.875 Q27.6094,29.875 27.8594,30.1406 Q28.125,30.3906 28.125,30.7344 Q28.125,31.0781 27.7813,31.4844 Q27.2813,32.0625 26.4844,32.3906 Q25.4063,32.8438 24.1094,32.8438 Q22.5938,32.8438 21.3906,32.2188 Q20.4063,31.7188 19.7188,30.6563 Q19.0313,29.5781 19.0313,28.2969 L19.0313,27.1406 Q19.0313,25.8125 19.6406,24.6719 Q20.2656,23.5156 21.3594,22.9063 Q22.4531,22.2813 23.6875,22.2813 Q24.4219,22.2813 25.0625,22.4531 Q25.7188,22.6094 26.2656,22.9688 Z " fill="#000000"/><text fill="#000000" font-family="sans-serif" font-size="14" lengthAdjust="spacing" textLength="60" x="82" y="26.5332">AudioUnit</text><text fill="#000000" font-family="sans-serif" font-size="10" lengthAdjust="spacing" textLength="149" x="37.5" y="39.9902">nz.ac.wgtn.swen225.lc.renderer</text></g></a><!--reverse link nz.ac.wgtn.swen225.lc.renderer.AudioUnit to nz.ac.wgtn.swen225.lc.renderer.AudioUnit.AudioClip--><g id="link_nz.ac.wgtn.swen225.lc.renderer.AudioUnit_nz.ac.wgtn.swen225.lc.renderer.AudioUnit.AudioClip"><path codeLine="22" d="M99,62.3 C99,75.03 99,90.34 99,106.52 " fill="none" id="nz.ac.wgtn.swen225.lc.renderer.AudioUnit-backto-nz.ac.wgtn.swen225.lc.renderer.AudioUnit.AudioClip" style="stroke:#181818;stroke-width:1.0;"/><ellipse cx="99" cy="55.2" fill="#FFFFFF" rx="8" ry="8" style="stroke:#181818;stroke-width:1.0;"/><line style="stroke:#181818;stroke-width:1.0;" x1="99" x2="99" y1="63.2" y2="47.2"/><line style="stroke:#181818;stroke-width:1.0;" x1="91" x2="107" y1="55.2" y2="55.2"/></g><text fill="#888888" font-family="sans-serif" font-size="10" lengthAdjust="spacing" textLength="184" x="0" y="382.8809">UMLDoclet 2.1.0, PlantUML 1.2022.14</text><!--SRC=[jPFHQi8m58RlznG7OR3X3BRRRiOGQirKhAreUo5E9BJ76MYJqiJ95DzzrNgpaOunM6uIlY-SdF0d000ADGYMeSfPZ3FCMS6qB418WLUbXWrF433BzGUiEQQ9-aupr1jPuZD7iSsWyQpu7f-iXuwpJRYC1DVal79Jdh-AYsrtn9wmcEpUj21gXyAs7qaQam95WWKM3M0AVjv23FLXiJ1Gij5Pkbp2uTpbQHoKPfh7HsXs7NVKdmQHtpD8PzmTKj-b1ZMZJZ_oFAjUsVNgtg1UXhF1odMY_Y0qMEhJyNpbX67Pha7tWc0QJAXlK2CwTmFFesvOSwXLm-qQNZL_h2AFKwQKAVF_IVfBlbMgLH-_Bj1ijVxmhYwNHQ6nWBMKfoaQUpqPf-KFieb5sdSmIPdG9ONhTomKb-BczXC0]--></g></svg>