<?xml version="1.0" encoding="UTF-8" standalone="no"?><svg xmlns="http://www.w3.org/2000/svg" xmlns:xlink="http://www.w3.org/1999/xlink" contentStyleType="text/css" height="356px" preserveAspectRatio="none" style="width:296px;height:356px;background:#FFFFFF;" version="1.1" viewBox="0 0 296 356" width="296px" zoomAndPan="magnify"><defs/><g><!--class nz.ac.wgtn.swen225.lc.renderer.Camera--><a href="Camera.html" target="_top" title="Camera.html" xlink:actuate="onRequest" xlink:href="Camera.html" xlink:show="new" xlink:title="Camera.html" xlink:type="simple"><g id="elem_nz.ac.wgtn.swen225.lc.renderer.Camera"><rect codeLine="5" fill="#F1F1F1" height="224.2813" id="nz.ac.wgtn.swen225.lc.renderer.Camera" rx="2.5" ry="2.5" style="stroke:#181818;stroke-width:0.5;" width="282" x="7" y="7"/><ellipse cx="69.25" cy="27.0938" fill="#ADD1B2" rx="11" ry="11" style="stroke:#181818;stroke-width:1.0;"/><path d="M72.0156,22.9688 Q72.1719,22.75 72.3594,22.6406 Q72.5469,22.5313 72.7656,22.5313 Q73.1406,22.5313 73.375,22.7969 Q73.6094,23.0469 73.6094,23.6563 L73.6094,25.1094 Q73.6094,25.7188 73.375,25.9844 Q73.1406,26.25 72.7656,26.25 Q72.4219,26.25 72.2188,26.0469 Q72.0156,25.8594 71.9063,25.3438 Q71.8594,24.9844 71.6719,24.7969 Q71.3438,24.4219 70.7344,24.2031 Q70.125,23.9844 69.5,23.9844 Q68.7344,23.9844 68.0938,24.3125 Q67.4688,24.6406 66.9688,25.3906 Q66.4844,26.1406 66.4844,27.1719 L66.4844,28.2656 Q66.4844,29.5 67.375,30.3281 Q68.2656,31.1406 69.8594,31.1406 Q70.7969,31.1406 71.4531,30.8906 Q71.8438,30.7344 72.2656,30.2969 Q72.5313,30.0313 72.6719,29.9531 Q72.8281,29.875 73.0313,29.875 Q73.3594,29.875 73.6094,30.1406 Q73.875,30.3906 73.875,30.7344 Q73.875,31.0781 73.5313,31.4844 Q73.0313,32.0625 72.2344,32.3906 Q71.1563,32.8438 69.8594,32.8438 Q68.3438,32.8438 67.1406,32.2188 Q66.1563,31.7188 65.4688,30.6563 Q64.7813,29.5781 64.7813,28.2969 L64.7813,27.1406 Q64.7813,25.8125 65.3906,24.6719 Q66.0156,23.5156 67.1094,22.9063 Q68.2031,22.2813 69.4375,22.2813 Q70.1719,22.2813 70.8125,22.4531 Q71.4688,22.6094 72.0156,22.9688 Z " fill="#000000"/><text fill="#000000" font-family="sans-serif" font-size="14" lengthAdjust="spacing" textLength="50" x="139.25" y="26.5332">Camera</text><text fill="#000000" font-family="sans-serif" font-size="10" lengthAdjust="spacing" textLength="149" x="89.75" y="39.9902">nz.ac.wgtn.swen225.lc.renderer</text><line style="stroke:#181818;stroke-width:0.5;" x1="8" x2="288" y1="47.1875" y2="47.1875"/><ellipse cx="18" cy="61.4922" fill="#84BE84" rx="3" ry="3" style="stroke:#038048;stroke-width:1.0;"/><text fill="#000000" font-family="sans-serif" font-size="14" lengthAdjust="spacing" textLength="256" x="27" y="65.7207">Camera(double, double, double, double)</text><ellipse cx="18" cy="79.1016" fill="#84BE84" rx="3" ry="3" style="stroke:#038048;stroke-width:1.0;"/><text fill="#000000" font-family="sans-serif" font-size="14" lengthAdjust="spacing" textLength="222" x="27" y="83.3301">updateCameraPosition(Chap): void</text><ellipse cx="18" cy="96.7109" fill="#84BE84" rx="3" ry="3" style="stroke:#038048;stroke-width:1.0;"/><text fill="#000000" font-family="sans-serif" font-size="14" lengthAdjust="spacing" textLength="117" x="27" y="100.9395">getWidth(): double</text><ellipse cx="18" cy="114.3203" fill="#84BE84" rx="3" ry="3" style="stroke:#038048;stroke-width:1.0;"/><text fill="#000000" font-family="sans-serif" font-size="14" lengthAdjust="spacing" textLength="121" x="27" y="118.5488">getHeight(): double</text><ellipse cx="18" cy="131.9297" fill="#84BE84" rx="3" ry="3" style="stroke:#038048;stroke-width:1.0;"/><text fill="#000000" font-family="sans-serif" font-size="14" lengthAdjust="spacing" textLength="89" x="27" y="136.1582">getX(): double</text><ellipse cx="18" cy="149.5391" fill="#84BE84" rx="3" ry="3" style="stroke:#038048;stroke-width:1.0;"/><text fill="#000000" font-family="sans-serif" font-size="14" lengthAdjust="spacing" textLength="90" x="27" y="153.7676">getY(): double</text><ellipse cx="18" cy="167.1484" fill="#84BE84" rx="3" ry="3" style="stroke:#038048;stroke-width:1.0;"/><text fill="#000000" font-family="sans-serif" font-size="14" lengthAdjust="spacing" textLength="104" x="27" y="171.377">getState(): State</text><ellipse cx="18" cy="184.7578" fill="#84BE84" rx="3" ry="3" style="stroke:#038048;stroke-width:1.0;"/><text fill="#000000" font-family="sans-serif" font-size="14" lengthAdjust="spacing" textLength="129" x="27" y="188.9863">setState(State): void</text><ellipse cx="18" cy="202.3672" fill="#84BE84" rx="3" ry="3" style="stroke:#038048;stroke-width:1.0;"/><text fill="#000000" font-family="sans-serif" font-size="14" lengthAdjust="spacing" textLength="114" x="27" y="206.5957">setX(double): void</text><ellipse cx="18" cy="219.9766" fill="#84BE84" rx="3" ry="3" style="stroke:#038048;stroke-width:1.0;"/><text fill="#000000" font-family="sans-serif" font-size="14" lengthAdjust="spacing" textLength="115" x="27" y="224.2051">setY(double): void</text></g></a><!--class nz.ac.wgtn.swen225.lc.renderer.Camera.State--><a href="Camera.State.html" target="_top" title="Camera.State.html" xlink:actuate="onRequest" xlink:href="Camera.State.html" xlink:show="new" xlink:title="Camera.State.html" xlink:type="simple"><g id="elem_nz.ac.wgtn.swen225.lc.renderer.Camera.State"><rect codeLine="17" fill="#F1F1F1" height="40.1875" id="nz.ac.wgtn.swen225.lc.renderer.Camera.State" rx="2.5" ry="2.5" style="stroke:#181818;stroke-width:0.5;" width="181" x="57.5" y="291"/><ellipse cx="72.5" cy="311.0938" fill="#EB937F" rx="11" ry="11" style="stroke:#181818;stroke-width:1.0;"/><path d="M71.3594,311.8906 L71.3594,314.3906 L75.6875,314.3906 L75.6875,313.4688 Q75.6875,312.8594 75.9219,312.5938 Q76.1719,312.3281 76.5469,312.3281 Q76.9219,312.3281 77.1563,312.5938 Q77.3906,312.8594 77.3906,313.4688 L77.3906,316.0938 L69.3906,316.0938 Q68.7656,316.0938 68.5,315.8594 Q68.25,315.625 68.25,315.2344 Q68.25,314.8594 68.5156,314.625 Q68.7813,314.3906 69.3906,314.3906 L69.6563,314.3906 L69.6563,307.7344 L69.3906,307.7344 Q68.7656,307.7344 68.5,307.5 Q68.25,307.2656 68.25,306.875 Q68.25,306.5 68.5,306.2656 Q68.7656,306.0313 69.3906,306.0313 L77.0156,306.0313 L77.0156,308.625 Q77.0156,309.2344 76.7813,309.5 Q76.5625,309.75 76.1719,309.75 Q75.7969,309.75 75.5625,309.5 Q75.3281,309.2344 75.3281,308.625 L75.3281,307.7344 L71.3594,307.7344 L71.3594,310.1875 L72.8438,310.1875 Q72.8438,309.5313 72.9688,309.3438 Q73.2344,308.9375 73.7031,308.9375 Q74.0781,308.9375 74.3125,309.2031 Q74.5469,309.4531 74.5469,310.0625 L74.5469,312.0313 Q74.5469,312.5781 74.4219,312.7656 Q74.1563,313.1563 73.7031,313.1563 Q73.2344,313.1563 72.9688,312.75 Q72.8438,312.5625 72.8438,311.8906 L71.3594,311.8906 Z " fill="#000000"/><text fill="#000000" font-family="sans-serif" font-size="14" lengthAdjust="spacing" textLength="87" x="117.5" y="310.5332">Camera.State</text><text fill="#000000" font-family="sans-serif" font-size="10" lengthAdjust="spacing" textLength="149" x="86.5" y="323.9902">nz.ac.wgtn.swen225.lc.renderer</text></g></a><!--reverse link nz.ac.wgtn.swen225.lc.renderer.Camera to nz.ac.wgtn.swen225.lc.renderer.Camera.State--><g id="link_nz.ac.wgtn.swen225.lc.renderer.Camera_nz.ac.wgtn.swen225.lc.renderer.Camera.State"><path codeLine="19" d="M148,246.22 C148,263.48 148,279.2 148,290.71 " fill="none" id="nz.ac.wgtn.swen225.lc.renderer.Camera-backto-nz.ac.wgtn.swen225.lc.renderer.Camera.State" style="stroke:#181818;stroke-width:1.0;"/><ellipse cx="148" cy="239.07" fill="#FFFFFF" rx="8" ry="8" style="stroke:#181818;stroke-width:1.0;"/><line style="stroke:#181818;stroke-width:1.0;" x1="148" x2="148" y1="247.07" y2="231.07"/><line style="stroke:#181818;stroke-width:1.0;" x1="140" x2="156" y1="239.07" y2="239.07"/></g><text fill="#888888" font-family="sans-serif" font-size="10" lengthAdjust="spacing" textLength="184" x="49" y="346.5684">UMLDoclet 2.1.0, PlantUML 1.2022.14</text><!--SRC=[jPF1IWCn48RlFiLG47Pf6zgYboAzr8C7XK8HBRM7k9dk1hB9aanRhFZkPfELfROLFPX3Clc_oKp2J000719eNgAhU8PphBZbP2nee_72OoYaGC2oeZTOIrJ2VLTBfC9uEUYPuiv1vyR9FOw7LvEfZspvYsw4mKJl6S_OBYVDt0xrQ7JDLCOiQe4MRGUuWvzTM0m9osKqM46bMgtWFUIlHpU2H9ZDgy8Ud5xJrdzJ2KuOJysCaoIDJgO5hz8nR8qKhMUEz2G55OadCSm1kqEP5tG6Ff_H5sVqEVbBrImOBN9VACn7LtHrfkQ99zZY1Fi8C-fDULGv5fByG_rYuBQAOTlKChRIxzgWs-__9M7JfQW9BQoDgPV7X_jRaod_3qPio0Ozc2ckoQjmkKNhwcP8Fm40]--></g></svg>