<?xml version="1.0" encoding="UTF-8" standalone="no"?><svg xmlns="http://www.w3.org/2000/svg" xmlns:xlink="http://www.w3.org/1999/xlink" contentScriptType="application/ecmascript" contentStyleType="text/css" height="326px" preserveAspectRatio="none" style="width:238px;height:326px;background:#FFFFFF;" version="1.1" viewBox="0 0 238 326" width="238px" zoomAndPan="magnify"><defs><filter height="300%" id="fmpacscwglyv9" width="300%" x="-1" y="-1"><feGaussianBlur result="blurOut" stdDeviation="2.0"/><feColorMatrix in="blurOut" result="blurOut2" type="matrix" values="0 0 0 0 0 0 0 0 0 0 0 0 0 0 0 0 0 0 .4 0"/><feOffset dx="4.0" dy="4.0" in="blurOut2" result="blurOut3"/><feBlend in="SourceGraphic" in2="blurOut3" mode="normal"/></filter></defs><g><!--MD5=[4e2bc18e85765381726e3364af178b80]
class nz.ac.wgtn.swen225.lc.renderer.Camera--><a href="Camera.html" target="_top" title="Camera.html" xlink:actuate="onRequest" xlink:href="Camera.html" xlink:show="new" xlink:title="Camera.html" xlink:type="simple"><rect codeLine="5" fill="#FEFECE" filter="url(#fmpacscwglyv9)" height="186.5469" id="nz.ac.wgtn.swen225.lc.renderer.Camera" style="stroke:#A80036;stroke-width:1.5;" width="217" x="7" y="7"/><ellipse cx="38.2" cy="27.0938" fill="#ADD1B2" rx="11" ry="11" style="stroke:#A80036;stroke-width:1.0;"/><path d="M40.9656,22.9688 Q41.1219,22.75 41.3094,22.6406 Q41.4969,22.5313 41.7156,22.5313 Q42.0906,22.5313 42.325,22.7969 Q42.5594,23.0469 42.5594,23.6563 L42.5594,25.1094 Q42.5594,25.7188 42.325,25.9844 Q42.0906,26.25 41.7156,26.25 Q41.3719,26.25 41.1688,26.0469 Q40.9656,25.8594 40.8563,25.3438 Q40.8094,24.9844 40.6219,24.7969 Q40.2938,24.4219 39.6844,24.2031 Q39.075,23.9844 38.45,23.9844 Q37.6844,23.9844 37.0438,24.3125 Q36.4188,24.6406 35.9188,25.3906 Q35.4344,26.1406 35.4344,27.1719 L35.4344,28.2656 Q35.4344,29.5 36.325,30.3281 Q37.2156,31.1406 38.8094,31.1406 Q39.7469,31.1406 40.4031,30.8906 Q40.7938,30.7344 41.2156,30.2969 Q41.4813,30.0313 41.6219,29.9531 Q41.7781,29.875 41.9813,29.875 Q42.3094,29.875 42.5594,30.1406 Q42.825,30.3906 42.825,30.7344 Q42.825,31.0781 42.4813,31.4844 Q41.9813,32.0625 41.1844,32.3906 Q40.1063,32.8438 38.8094,32.8438 Q37.2938,32.8438 36.0906,32.2188 Q35.1063,31.7188 34.4188,30.6563 Q33.7313,29.5781 33.7313,28.2969 L33.7313,27.1406 Q33.7313,25.8125 34.3406,24.6719 Q34.9656,23.5156 36.0594,22.9063 Q37.1531,22.2813 38.3875,22.2813 Q39.1219,22.2813 39.7625,22.4531 Q40.4188,22.6094 40.9656,22.9688 Z " fill="#000000"/><text fill="#000000" font-family="sans-serif" font-size="14" lengthAdjust="spacing" textLength="50" x="105.3" y="26.5332">Camera</text><text fill="#000000" font-family="sans-serif" font-size="10" lengthAdjust="spacing" textLength="149" x="55.8" y="39.9902">nz.ac.wgtn.swen225.lc.renderer</text><line style="stroke:#A80036;stroke-width:1.5;" x1="8" x2="223" y1="47.1875" y2="47.1875"/><ellipse cx="18" cy="58.1875" fill="#84BE84" rx="3" ry="3" style="stroke:#038048;stroke-width:1.0;"/><text fill="#000000" font-family="sans-serif" font-size="11" lengthAdjust="spacing" textLength="191" x="27" y="62.6064">Camera(double, double, double, double)</text><ellipse cx="18" cy="72.0234" fill="#84BE84" rx="3" ry="3" style="stroke:#038048;stroke-width:1.0;"/><text fill="#000000" font-family="sans-serif" font-size="11" lengthAdjust="spacing" textLength="166" x="27" y="76.4424">updateCameraPosition(Chap): void</text><ellipse cx="18" cy="85.8594" fill="#84BE84" rx="3" ry="3" style="stroke:#038048;stroke-width:1.0;"/><text fill="#000000" font-family="sans-serif" font-size="11" lengthAdjust="spacing" textLength="88" x="27" y="90.2783">getWidth(): double</text><ellipse cx="18" cy="99.6953" fill="#84BE84" rx="3" ry="3" style="stroke:#038048;stroke-width:1.0;"/><text fill="#000000" font-family="sans-serif" font-size="11" lengthAdjust="spacing" textLength="91" x="27" y="104.1143">getHeight(): double</text><ellipse cx="18" cy="113.5313" fill="#84BE84" rx="3" ry="3" style="stroke:#038048;stroke-width:1.0;"/><text fill="#000000" font-family="sans-serif" font-size="11" lengthAdjust="spacing" textLength="68" x="27" y="117.9502">getX(): double</text><ellipse cx="18" cy="127.3672" fill="#84BE84" rx="3" ry="3" style="stroke:#038048;stroke-width:1.0;"/><text fill="#000000" font-family="sans-serif" font-size="11" lengthAdjust="spacing" textLength="69" x="27" y="131.7861">getY(): double</text><ellipse cx="18" cy="141.2031" fill="#84BE84" rx="3" ry="3" style="stroke:#038048;stroke-width:1.0;"/><text fill="#000000" font-family="sans-serif" font-size="11" lengthAdjust="spacing" textLength="79" x="27" y="145.6221">getState(): State</text><ellipse cx="18" cy="155.0391" fill="#84BE84" rx="3" ry="3" style="stroke:#038048;stroke-width:1.0;"/><text fill="#000000" font-family="sans-serif" font-size="11" lengthAdjust="spacing" textLength="99" x="27" y="159.458">setState(State): void</text><ellipse cx="18" cy="168.875" fill="#84BE84" rx="3" ry="3" style="stroke:#038048;stroke-width:1.0;"/><text fill="#000000" font-family="sans-serif" font-size="11" lengthAdjust="spacing" textLength="88" x="27" y="173.2939">setX(double): void</text><ellipse cx="18" cy="182.7109" fill="#84BE84" rx="3" ry="3" style="stroke:#038048;stroke-width:1.0;"/><text fill="#000000" font-family="sans-serif" font-size="11" lengthAdjust="spacing" textLength="89" x="27" y="187.1299">setY(double): void</text></a><!--MD5=[932d56a9087dae8b25465a7d9bd34994]
class nz.ac.wgtn.swen225.lc.renderer.Camera.State--><a href="Camera.State.html" target="_top" title="Camera.State.html" xlink:actuate="onRequest" xlink:href="Camera.State.html" xlink:show="new" xlink:title="Camera.State.html" xlink:type="simple"><rect codeLine="17" fill="#FEFECE" filter="url(#fmpacscwglyv9)" height="40.1875" id="nz.ac.wgtn.swen225.lc.renderer.Camera.State" style="stroke:#A80036;stroke-width:1.5;" width="181" x="25" y="254"/><ellipse cx="40" cy="274.0938" fill="#EB937F" rx="11" ry="11" style="stroke:#A80036;stroke-width:1.0;"/><path d="M38.8594,274.8906 L38.8594,277.3906 L43.1875,277.3906 L43.1875,276.4688 Q43.1875,275.8594 43.4219,275.5938 Q43.6719,275.3281 44.0469,275.3281 Q44.4219,275.3281 44.6563,275.5938 Q44.8906,275.8594 44.8906,276.4688 L44.8906,279.0938 L36.8906,279.0938 Q36.2656,279.0938 36,278.8594 Q35.75,278.625 35.75,278.2344 Q35.75,277.8594 36.0156,277.625 Q36.2813,277.3906 36.8906,277.3906 L37.1563,277.3906 L37.1563,270.7344 L36.8906,270.7344 Q36.2656,270.7344 36,270.5 Q35.75,270.2656 35.75,269.875 Q35.75,269.5 36,269.2656 Q36.2656,269.0313 36.8906,269.0313 L44.5156,269.0313 L44.5156,271.625 Q44.5156,272.2344 44.2813,272.5 Q44.0625,272.75 43.6719,272.75 Q43.2969,272.75 43.0625,272.5 Q42.8281,272.2344 42.8281,271.625 L42.8281,270.7344 L38.8594,270.7344 L38.8594,273.1875 L40.3438,273.1875 Q40.3438,272.5313 40.4688,272.3438 Q40.7344,271.9375 41.2031,271.9375 Q41.5781,271.9375 41.8125,272.2031 Q42.0469,272.4531 42.0469,273.0625 L42.0469,275.0313 Q42.0469,275.5781 41.9219,275.7656 Q41.6563,276.1563 41.2031,276.1563 Q40.7344,276.1563 40.4688,275.75 Q40.3438,275.5625 40.3438,274.8906 L38.8594,274.8906 Z " fill="#000000"/><text fill="#000000" font-family="sans-serif" font-size="14" lengthAdjust="spacing" textLength="87" x="85" y="273.5332">Camera.State</text><text fill="#000000" font-family="sans-serif" font-size="10" lengthAdjust="spacing" textLength="149" x="54" y="286.9902">nz.ac.wgtn.swen225.lc.renderer</text></a><!--MD5=[85a601e519c898f4e3e87b10eff2c898]
reverse link nz.ac.wgtn.swen225.lc.renderer.Camera to nz.ac.wgtn.swen225.lc.renderer.Camera.State--><path codeLine="19" d="M115.5,209.08 C115.5,226.31 115.5,242.29 115.5,253.96 " fill="none" id="nz.ac.wgtn.swen225.lc.renderer.Camera-backto-nz.ac.wgtn.swen225.lc.renderer.Camera.State" style="stroke:#A80036;stroke-width:1.0;"/><ellipse cx="115.5" cy="202.03" fill="#FFFFFF" rx="8" ry="8" style="stroke:#A80036;stroke-width:1.0;"/><line style="stroke:#A80036;stroke-width:1.0;" x1="115.5" x2="115.5" y1="210.03" y2="194.03"/><line style="stroke:#A80036;stroke-width:1.0;" x1="107.5" x2="123.5" y1="202.03" y2="202.03"/><text fill="#888888" font-family="sans-serif" font-size="10" lengthAdjust="spacing" textLength="184" x="20.5" y="317.5684">UMLDoclet 2.0.14, PlantUML 1.2021.9</text><!--MD5=[4c0b9c0e0733ae25cad3d7dd65c211d1]
@startuml
    set namespaceSeparator none
    hide empty fields
    hide empty methods

    class "<size:14>Camera\n<size:10>nz.ac.wgtn.swen225.lc.renderer" as nz.ac.wgtn.swen225.lc.renderer.Camera [[Camera.html]] {
        +Camera(double, double, double, double)
        +updateCameraPosition(Chap): void
        +getWidth(): double
        +getHeight(): double
        +getX(): double
        +getY(): double
        +getState(): State
        +setState(State): void
        +setX(double): void
        +setY(double): void
    }
    enum "<size:14>Camera.State\n<size:10>nz.ac.wgtn.swen225.lc.renderer" as nz.ac.wgtn.swen225.lc.renderer.Camera.State [[Camera.State.html]]

    nz.ac.wgtn.swen225.lc.renderer.Camera +- - nz.ac.wgtn.swen225.lc.renderer.Camera.State

    center footer UMLDoclet 2.0.14, PlantUML 1.2021.9
@enduml

PlantUML version 1.2021.9(Sun Jul 25 17:13:56 ICT 2021)
(APACHE source distribution)
Java Runtime: OpenJDK Runtime Environment
JVM: OpenJDK 64-Bit Server VM
Default Encoding: Cp1252
Language: en
Country: NZ
--></g></svg>