<?xml version="1.0" encoding="UTF-8" standalone="no"?><svg xmlns="http://www.w3.org/2000/svg" xmlns:xlink="http://www.w3.org/1999/xlink" contentStyleType="text/css" height="1098px" preserveAspectRatio="none" style="width:695px;height:1098px;background:#FFFFFF;" version="1.1" viewBox="0 0 695 1098" width="695px" zoomAndPan="magnify"><defs/><g><!--cluster nz.ac.wgtn.swen225.lc.renderer--><g id="cluster_nz.ac.wgtn.swen225.lc.renderer"><path d="M8.5,139 L231.5,139 A3.75,3.75 0 0 1 234,141.5 L241,162.6094 L685.5,162.6094 A2.5,2.5 0 0 1 688,165.1094 L688,1069.5 A2.5,2.5 0 0 1 685.5,1072 L8.5,1072 A2.5,2.5 0 0 1 6,1069.5 L6,141.5 A2.5,2.5 0 0 1 8.5,139 " fill="none" style="stroke:#000000;stroke-width:1.5;"/><line style="stroke:#000000;stroke-width:1.5;" x1="6" x2="241" y1="162.6094" y2="162.6094"/><text fill="#000000" font-family="sans-serif" font-size="14" font-weight="bold" lengthAdjust="spacing" textLength="222" x="10" y="155.5332">nz.ac.wgtn.swen225.lc.renderer</text></g><!--cluster javax.swing--><g id="cluster_javax.swing"><path d="M213.5,6 L296.5,6 A3.75,3.75 0 0 1 299,8.5 L306,29.6094 L314.5,29.6094 A2.5,2.5 0 0 1 317,32.1094 L317,103.5 A2.5,2.5 0 0 1 314.5,106 L213.5,106 A2.5,2.5 0 0 1 211,103.5 L211,8.5 A2.5,2.5 0 0 1 213.5,6 " fill="none" style="stroke:#000000;stroke-width:1.5;"/><line style="stroke:#000000;stroke-width:1.5;" x1="211" x2="306" y1="29.6094" y2="29.6094"/><text fill="#000000" font-family="sans-serif" font-size="14" font-weight="bold" lengthAdjust="spacing" textLength="82" x="215" y="22.5332">javax.swing</text></g><!--class nz.ac.wgtn.swen225.lc.renderer.AudioUnit--><a href="AudioUnit.html" target="_top" title="AudioUnit.html" xlink:actuate="onRequest" xlink:href="AudioUnit.html" xlink:show="new" xlink:title="AudioUnit.html" xlink:type="simple"><g id="elem_nz.ac.wgtn.swen225.lc.renderer.AudioUnit"><rect codeLine="3" fill="#F1F1F1" height="153.6563" id="nz.ac.wgtn.swen225.lc.renderer.AudioUnit" rx="2.5" ry="2.5" style="stroke:#181818;stroke-width:0.5;" width="210" x="462" y="175"/><ellipse cx="532.75" cy="191" fill="#ADD1B2" rx="11" ry="11" style="stroke:#181818;stroke-width:1.0;"/><path d="M535.5156,186.875 Q535.6719,186.6563 535.8594,186.5469 Q536.0469,186.4375 536.2656,186.4375 Q536.6406,186.4375 536.875,186.7031 Q537.1094,186.9531 537.1094,187.5625 L537.1094,189.0156 Q537.1094,189.625 536.875,189.8906 Q536.6406,190.1563 536.2656,190.1563 Q535.9219,190.1563 535.7188,189.9531 Q535.5156,189.7656 535.4063,189.25 Q535.3594,188.8906 535.1719,188.7031 Q534.8438,188.3281 534.2344,188.1094 Q533.625,187.8906 533,187.8906 Q532.2344,187.8906 531.5938,188.2188 Q530.9688,188.5469 530.4688,189.2969 Q529.9844,190.0469 529.9844,191.0781 L529.9844,192.1719 Q529.9844,193.4063 530.875,194.2344 Q531.7656,195.0469 533.3594,195.0469 Q534.2969,195.0469 534.9531,194.7969 Q535.3438,194.6406 535.7656,194.2031 Q536.0313,193.9375 536.1719,193.8594 Q536.3281,193.7813 536.5313,193.7813 Q536.8594,193.7813 537.1094,194.0469 Q537.375,194.2969 537.375,194.6406 Q537.375,194.9844 537.0313,195.3906 Q536.5313,195.9688 535.7344,196.2969 Q534.6563,196.75 533.3594,196.75 Q531.8438,196.75 530.6406,196.125 Q529.6563,195.625 528.9688,194.5625 Q528.2813,193.4844 528.2813,192.2031 L528.2813,191.0469 Q528.2813,189.7188 528.8906,188.5781 Q529.5156,187.4219 530.6094,186.8125 Q531.7031,186.1875 532.9375,186.1875 Q533.6719,186.1875 534.3125,186.3594 Q534.9688,186.5156 535.5156,186.875 Z " fill="#000000"/><text fill="#000000" font-family="sans-serif" font-size="14" lengthAdjust="spacing" textLength="60" x="553.25" y="196.7285">AudioUnit</text><line style="stroke:#181818;stroke-width:0.5;" x1="463" x2="671" y1="207" y2="207"/><line style="stroke:#181818;stroke-width:0.5;" x1="463" x2="671" y1="215" y2="215"/><ellipse cx="473" cy="229.3047" fill="#84BE84" rx="3" ry="3" style="stroke:#038048;stroke-width:1.0;"/><text fill="#000000" font-family="sans-serif" font-size="14" lengthAdjust="spacing" textLength="184" x="482" y="233.5332">startBackgroundMusic(): void</text><ellipse cx="473" cy="246.9141" fill="#84BE84" rx="3" ry="3" style="stroke:#038048;stroke-width:1.0;"/><text fill="#000000" font-family="sans-serif" font-size="14" lengthAdjust="spacing" textLength="134" x="482" y="251.1426">startAmbience(): void</text><ellipse cx="473" cy="264.5234" fill="#84BE84" rx="3" ry="3" style="stroke:#038048;stroke-width:1.0;"/><text fill="#000000" font-family="sans-serif" font-size="14" lengthAdjust="spacing" textLength="143" x="482" y="268.752">playSeagullSFX(): void</text><ellipse cx="473" cy="282.1328" fill="#84BE84" rx="3" ry="3" style="stroke:#038048;stroke-width:1.0;"/><text fill="#000000" font-family="sans-serif" font-size="14" lengthAdjust="spacing" textLength="123" x="482" y="286.3613">playFishSFX(): void</text><ellipse cx="473" cy="299.7422" fill="#84BE84" rx="3" ry="3" style="stroke:#038048;stroke-width:1.0;"/><text fill="#000000" font-family="sans-serif" font-size="14" lengthAdjust="spacing" textLength="171" x="482" y="303.9707">playSound(AudioClip): void</text><ellipse cx="473" cy="317.3516" fill="#84BE84" rx="3" ry="3" style="stroke:#038048;stroke-width:1.0;"/><text fill="#000000" font-family="sans-serif" font-size="14" lengthAdjust="spacing" textLength="86" x="482" y="321.5801">stopAll(): void</text></g></a><!--class nz.ac.wgtn.swen225.lc.renderer.AudioUnit.AudioClip--><a href="AudioUnit.AudioClip.html" target="_top" title="AudioUnit.AudioClip.html" xlink:actuate="onRequest" xlink:href="AudioUnit.AudioClip.html" xlink:show="new" xlink:title="AudioUnit.AudioClip.html" xlink:type="simple"><g id="elem_nz.ac.wgtn.swen225.lc.renderer.AudioUnit.AudioClip"><rect codeLine="12" fill="#F1F1F1" height="259.3125" id="nz.ac.wgtn.swen225.lc.renderer.AudioUnit.AudioClip" rx="2.5" ry="2.5" style="stroke:#181818;stroke-width:0.5;" width="156" x="516" y="495"/><ellipse cx="531" cy="511" fill="#EB937F" rx="11" ry="11" style="stroke:#181818;stroke-width:1.0;"/><path d="M529.8594,511.7969 L529.8594,514.2969 L534.1875,514.2969 L534.1875,513.375 Q534.1875,512.7656 534.4219,512.5 Q534.6719,512.2344 535.0469,512.2344 Q535.4219,512.2344 535.6563,512.5 Q535.8906,512.7656 535.8906,513.375 L535.8906,516 L527.8906,516 Q527.2656,516 527,515.7656 Q526.75,515.5313 526.75,515.1406 Q526.75,514.7656 527.0156,514.5313 Q527.2813,514.2969 527.8906,514.2969 L528.1563,514.2969 L528.1563,507.6406 L527.8906,507.6406 Q527.2656,507.6406 527,507.4063 Q526.75,507.1719 526.75,506.7813 Q526.75,506.4063 527,506.1719 Q527.2656,505.9375 527.8906,505.9375 L535.5156,505.9375 L535.5156,508.5313 Q535.5156,509.1406 535.2813,509.4063 Q535.0625,509.6563 534.6719,509.6563 Q534.2969,509.6563 534.0625,509.4063 Q533.8281,509.1406 533.8281,508.5313 L533.8281,507.6406 L529.8594,507.6406 L529.8594,510.0938 L531.3438,510.0938 Q531.3438,509.4375 531.4688,509.25 Q531.7344,508.8438 532.2031,508.8438 Q532.5781,508.8438 532.8125,509.1094 Q533.0469,509.3594 533.0469,509.9688 L533.0469,511.9375 Q533.0469,512.4844 532.9219,512.6719 Q532.6563,513.0625 532.2031,513.0625 Q531.7344,513.0625 531.4688,512.6563 Q531.3438,512.4688 531.3438,511.7969 L529.8594,511.7969 Z " fill="#000000"/><text fill="#000000" font-family="sans-serif" font-size="14" lengthAdjust="spacing" textLength="124" x="545" y="516.7285">AudioUnit.AudioClip</text><line style="stroke:#181818;stroke-width:0.5;" x1="517" x2="671" y1="527" y2="527"/><ellipse cx="527" cy="541.3047" fill="none" rx="3" ry="3" style="stroke:#038048;stroke-width:1.0;"/><text fill="#000000" font-family="sans-serif" font-size="14" lengthAdjust="spacing" text-decoration="underline" textLength="97" x="536" y="545.5332">BACKGROUND</text><ellipse cx="527" cy="558.9141" fill="none" rx="3" ry="3" style="stroke:#038048;stroke-width:1.0;"/><text fill="#000000" font-family="sans-serif" font-size="14" lengthAdjust="spacing" text-decoration="underline" textLength="69" x="536" y="563.1426">AMBIENCE</text><ellipse cx="527" cy="576.5234" fill="none" rx="3" ry="3" style="stroke:#038048;stroke-width:1.0;"/><text fill="#000000" font-family="sans-serif" font-size="14" lengthAdjust="spacing" text-decoration="underline" textLength="71" x="536" y="580.752">SEAGULL1</text><ellipse cx="527" cy="594.1328" fill="none" rx="3" ry="3" style="stroke:#038048;stroke-width:1.0;"/><text fill="#000000" font-family="sans-serif" font-size="14" lengthAdjust="spacing" text-decoration="underline" textLength="71" x="536" y="598.3613">SEAGULL2</text><ellipse cx="527" cy="611.7422" fill="none" rx="3" ry="3" style="stroke:#038048;stroke-width:1.0;"/><text fill="#000000" font-family="sans-serif" font-size="14" lengthAdjust="spacing" text-decoration="underline" textLength="71" x="536" y="615.9707">SEAGULL3</text><ellipse cx="527" cy="629.3516" fill="none" rx="3" ry="3" style="stroke:#038048;stroke-width:1.0;"/><text fill="#000000" font-family="sans-serif" font-size="14" lengthAdjust="spacing" text-decoration="underline" textLength="95" x="536" y="633.5801">FISH_CAUGHT</text><ellipse cx="527" cy="646.9609" fill="none" rx="3" ry="3" style="stroke:#038048;stroke-width:1.0;"/><text fill="#000000" font-family="sans-serif" font-size="14" lengthAdjust="spacing" text-decoration="underline" textLength="110" x="536" y="651.1895">ENEMY_ATTACK</text><ellipse cx="527" cy="664.5703" fill="none" rx="3" ry="3" style="stroke:#038048;stroke-width:1.0;"/><text fill="#000000" font-family="sans-serif" font-size="14" lengthAdjust="spacing" text-decoration="underline" textLength="80" x="536" y="668.7988">DOOROPEN</text><ellipse cx="527" cy="682.1797" fill="none" rx="3" ry="3" style="stroke:#038048;stroke-width:1.0;"/><text fill="#000000" font-family="sans-serif" font-size="14" lengthAdjust="spacing" text-decoration="underline" textLength="92" x="536" y="686.4082">KEYCOLLECT</text><ellipse cx="527" cy="699.7891" fill="none" rx="3" ry="3" style="stroke:#038048;stroke-width:1.0;"/><text fill="#000000" font-family="sans-serif" font-size="14" lengthAdjust="spacing" text-decoration="underline" textLength="38" x="536" y="704.0176">FISH1</text><ellipse cx="527" cy="717.3984" fill="none" rx="3" ry="3" style="stroke:#038048;stroke-width:1.0;"/><text fill="#000000" font-family="sans-serif" font-size="14" lengthAdjust="spacing" text-decoration="underline" textLength="38" x="536" y="721.627">FISH2</text><ellipse cx="527" cy="735.0078" fill="none" rx="3" ry="3" style="stroke:#038048;stroke-width:1.0;"/><text fill="#000000" font-family="sans-serif" font-size="14" lengthAdjust="spacing" text-decoration="underline" textLength="38" x="536" y="739.2363">FISH3</text><line style="stroke:#181818;stroke-width:0.5;" x1="517" x2="671" y1="746.3125" y2="746.3125"/></g></a><!--class nz.ac.wgtn.swen225.lc.renderer.Camera--><a href="Camera.html" target="_top" title="Camera.html" xlink:actuate="onRequest" xlink:href="Camera.html" xlink:show="new" xlink:title="Camera.html" xlink:type="simple"><g id="elem_nz.ac.wgtn.swen225.lc.renderer.Camera"><rect codeLine="27" fill="#F1F1F1" height="188.875" id="nz.ac.wgtn.swen225.lc.renderer.Camera" rx="2.5" ry="2.5" style="stroke:#181818;stroke-width:0.5;" width="282" x="22" y="530"/><ellipse cx="133.75" cy="546" fill="#ADD1B2" rx="11" ry="11" style="stroke:#181818;stroke-width:1.0;"/><path d="M136.5156,541.875 Q136.6719,541.6563 136.8594,541.5469 Q137.0469,541.4375 137.2656,541.4375 Q137.6406,541.4375 137.875,541.7031 Q138.1094,541.9531 138.1094,542.5625 L138.1094,544.0156 Q138.1094,544.625 137.875,544.8906 Q137.6406,545.1563 137.2656,545.1563 Q136.9219,545.1563 136.7188,544.9531 Q136.5156,544.7656 136.4063,544.25 Q136.3594,543.8906 136.1719,543.7031 Q135.8438,543.3281 135.2344,543.1094 Q134.625,542.8906 134,542.8906 Q133.2344,542.8906 132.5938,543.2188 Q131.9688,543.5469 131.4688,544.2969 Q130.9844,545.0469 130.9844,546.0781 L130.9844,547.1719 Q130.9844,548.4063 131.875,549.2344 Q132.7656,550.0469 134.3594,550.0469 Q135.2969,550.0469 135.9531,549.7969 Q136.3438,549.6406 136.7656,549.2031 Q137.0313,548.9375 137.1719,548.8594 Q137.3281,548.7813 137.5313,548.7813 Q137.8594,548.7813 138.1094,549.0469 Q138.375,549.2969 138.375,549.6406 Q138.375,549.9844 138.0313,550.3906 Q137.5313,550.9688 136.7344,551.2969 Q135.6563,551.75 134.3594,551.75 Q132.8438,551.75 131.6406,551.125 Q130.6563,550.625 129.9688,549.5625 Q129.2813,548.4844 129.2813,547.2031 L129.2813,546.0469 Q129.2813,544.7188 129.8906,543.5781 Q130.5156,542.4219 131.6094,541.8125 Q132.7031,541.1875 133.9375,541.1875 Q134.6719,541.1875 135.3125,541.3594 Q135.9688,541.5156 136.5156,541.875 Z " fill="#000000"/><text fill="#000000" font-family="sans-serif" font-size="14" lengthAdjust="spacing" textLength="50" x="154.25" y="551.7285">Camera</text><line style="stroke:#181818;stroke-width:0.5;" x1="23" x2="303" y1="562" y2="562"/><line style="stroke:#181818;stroke-width:0.5;" x1="23" x2="303" y1="570" y2="570"/><ellipse cx="33" cy="584.3047" fill="#84BE84" rx="3" ry="3" style="stroke:#038048;stroke-width:1.0;"/><text fill="#000000" font-family="sans-serif" font-size="14" lengthAdjust="spacing" textLength="256" x="42" y="588.5332">Camera(double, double, double, double)</text><ellipse cx="33" cy="601.9141" fill="#84BE84" rx="3" ry="3" style="stroke:#038048;stroke-width:1.0;"/><text fill="#000000" font-family="sans-serif" font-size="14" lengthAdjust="spacing" textLength="222" x="42" y="606.1426">updateCameraPosition(Chap): void</text><ellipse cx="33" cy="619.5234" fill="#84BE84" rx="3" ry="3" style="stroke:#038048;stroke-width:1.0;"/><text fill="#000000" font-family="sans-serif" font-size="14" lengthAdjust="spacing" textLength="117" x="42" y="623.752">getWidth(): double</text><ellipse cx="33" cy="637.1328" fill="#84BE84" rx="3" ry="3" style="stroke:#038048;stroke-width:1.0;"/><text fill="#000000" font-family="sans-serif" font-size="14" lengthAdjust="spacing" textLength="121" x="42" y="641.3613">getHeight(): double</text><ellipse cx="33" cy="654.7422" fill="#84BE84" rx="3" ry="3" style="stroke:#038048;stroke-width:1.0;"/><text fill="#000000" font-family="sans-serif" font-size="14" lengthAdjust="spacing" textLength="89" x="42" y="658.9707">getX(): double</text><ellipse cx="33" cy="672.3516" fill="#84BE84" rx="3" ry="3" style="stroke:#038048;stroke-width:1.0;"/><text fill="#000000" font-family="sans-serif" font-size="14" lengthAdjust="spacing" textLength="90" x="42" y="676.5801">getY(): double</text><ellipse cx="33" cy="689.9609" fill="#84BE84" rx="3" ry="3" style="stroke:#038048;stroke-width:1.0;"/><text fill="#000000" font-family="sans-serif" font-size="14" lengthAdjust="spacing" textLength="114" x="42" y="694.1895">setX(double): void</text><ellipse cx="33" cy="707.5703" fill="#84BE84" rx="3" ry="3" style="stroke:#038048;stroke-width:1.0;"/><text fill="#000000" font-family="sans-serif" font-size="14" lengthAdjust="spacing" textLength="115" x="42" y="711.7988">setY(double): void</text></g></a><!--class nz.ac.wgtn.swen225.lc.renderer.Camera.State--><a href="Camera.State.html" target="_top" title="Camera.State.html" xlink:actuate="onRequest" xlink:href="Camera.State.html" xlink:show="new" xlink:title="Camera.State.html" xlink:type="simple"><g id="elem_nz.ac.wgtn.swen225.lc.renderer.Camera.State"><rect codeLine="38" fill="#F1F1F1" height="136.0469" id="nz.ac.wgtn.swen225.lc.renderer.Camera.State" rx="2.5" ry="2.5" style="stroke:#181818;stroke-width:0.5;" width="119" x="102.5" y="920"/><ellipse cx="117.5" cy="936" fill="#EB937F" rx="11" ry="11" style="stroke:#181818;stroke-width:1.0;"/><path d="M116.3594,936.7969 L116.3594,939.2969 L120.6875,939.2969 L120.6875,938.375 Q120.6875,937.7656 120.9219,937.5 Q121.1719,937.2344 121.5469,937.2344 Q121.9219,937.2344 122.1563,937.5 Q122.3906,937.7656 122.3906,938.375 L122.3906,941 L114.3906,941 Q113.7656,941 113.5,940.7656 Q113.25,940.5313 113.25,940.1406 Q113.25,939.7656 113.5156,939.5313 Q113.7813,939.2969 114.3906,939.2969 L114.6563,939.2969 L114.6563,932.6406 L114.3906,932.6406 Q113.7656,932.6406 113.5,932.4063 Q113.25,932.1719 113.25,931.7813 Q113.25,931.4063 113.5,931.1719 Q113.7656,930.9375 114.3906,930.9375 L122.0156,930.9375 L122.0156,933.5313 Q122.0156,934.1406 121.7813,934.4063 Q121.5625,934.6563 121.1719,934.6563 Q120.7969,934.6563 120.5625,934.4063 Q120.3281,934.1406 120.3281,933.5313 L120.3281,932.6406 L116.3594,932.6406 L116.3594,935.0938 L117.8438,935.0938 Q117.8438,934.4375 117.9688,934.25 Q118.2344,933.8438 118.7031,933.8438 Q119.0781,933.8438 119.3125,934.1094 Q119.5469,934.3594 119.5469,934.9688 L119.5469,936.9375 Q119.5469,937.4844 119.4219,937.6719 Q119.1563,938.0625 118.7031,938.0625 Q118.2344,938.0625 117.9688,937.6563 Q117.8438,937.4688 117.8438,936.7969 L116.3594,936.7969 Z " fill="#000000"/><text fill="#000000" font-family="sans-serif" font-size="14" lengthAdjust="spacing" textLength="87" x="131.5" y="941.7285">Camera.State</text><line style="stroke:#181818;stroke-width:0.5;" x1="103.5" x2="220.5" y1="952" y2="952"/><ellipse cx="113.5" cy="966.3047" fill="none" rx="3" ry="3" style="stroke:#038048;stroke-width:1.0;"/><text fill="#000000" font-family="sans-serif" font-size="14" lengthAdjust="spacing" text-decoration="underline" textLength="30" x="122.5" y="970.5332">IDLE</text><ellipse cx="113.5" cy="983.9141" fill="none" rx="3" ry="3" style="stroke:#038048;stroke-width:1.0;"/><text fill="#000000" font-family="sans-serif" font-size="14" lengthAdjust="spacing" text-decoration="underline" textLength="18" x="122.5" y="988.1426">UP</text><ellipse cx="113.5" cy="1001.5234" fill="none" rx="3" ry="3" style="stroke:#038048;stroke-width:1.0;"/><text fill="#000000" font-family="sans-serif" font-size="14" lengthAdjust="spacing" text-decoration="underline" textLength="43" x="122.5" y="1005.752">DOWN</text><ellipse cx="113.5" cy="1019.1328" fill="none" rx="3" ry="3" style="stroke:#038048;stroke-width:1.0;"/><text fill="#000000" font-family="sans-serif" font-size="14" lengthAdjust="spacing" text-decoration="underline" textLength="35" x="122.5" y="1023.3613">LEFT</text><ellipse cx="113.5" cy="1036.7422" fill="none" rx="3" ry="3" style="stroke:#038048;stroke-width:1.0;"/><text fill="#000000" font-family="sans-serif" font-size="14" lengthAdjust="spacing" text-decoration="underline" textLength="42" x="122.5" y="1040.9707">RIGHT</text><line style="stroke:#181818;stroke-width:0.5;" x1="103.5" x2="220.5" y1="1048.0469" y2="1048.0469"/></g></a><!--class nz.ac.wgtn.swen225.lc.renderer.Renderer--><a href="Renderer.html" target="_top" title="Renderer.html" xlink:actuate="onRequest" xlink:href="Renderer.html" xlink:show="new" xlink:title="Renderer.html" xlink:type="simple"><g id="elem_nz.ac.wgtn.swen225.lc.renderer.Renderer"><rect codeLine="46" fill="#F1F1F1" height="136.0469" id="nz.ac.wgtn.swen225.lc.renderer.Renderer" rx="2.5" ry="2.5" style="stroke:#181818;stroke-width:0.5;" width="258" x="135" y="184"/><ellipse cx="229.75" cy="200" fill="#ADD1B2" rx="11" ry="11" style="stroke:#181818;stroke-width:1.0;"/><path d="M232.5156,195.875 Q232.6719,195.6563 232.8594,195.5469 Q233.0469,195.4375 233.2656,195.4375 Q233.6406,195.4375 233.875,195.7031 Q234.1094,195.9531 234.1094,196.5625 L234.1094,198.0156 Q234.1094,198.625 233.875,198.8906 Q233.6406,199.1563 233.2656,199.1563 Q232.9219,199.1563 232.7188,198.9531 Q232.5156,198.7656 232.4063,198.25 Q232.3594,197.8906 232.1719,197.7031 Q231.8438,197.3281 231.2344,197.1094 Q230.625,196.8906 230,196.8906 Q229.2344,196.8906 228.5938,197.2188 Q227.9688,197.5469 227.4688,198.2969 Q226.9844,199.0469 226.9844,200.0781 L226.9844,201.1719 Q226.9844,202.4063 227.875,203.2344 Q228.7656,204.0469 230.3594,204.0469 Q231.2969,204.0469 231.9531,203.7969 Q232.3438,203.6406 232.7656,203.2031 Q233.0313,202.9375 233.1719,202.8594 Q233.3281,202.7813 233.5313,202.7813 Q233.8594,202.7813 234.1094,203.0469 Q234.375,203.2969 234.375,203.6406 Q234.375,203.9844 234.0313,204.3906 Q233.5313,204.9688 232.7344,205.2969 Q231.6563,205.75 230.3594,205.75 Q228.8438,205.75 227.6406,205.125 Q226.6563,204.625 225.9688,203.5625 Q225.2813,202.4844 225.2813,201.2031 L225.2813,200.0469 Q225.2813,198.7188 225.8906,197.5781 Q226.5156,196.4219 227.6094,195.8125 Q228.7031,195.1875 229.9375,195.1875 Q230.6719,195.1875 231.3125,195.3594 Q231.9688,195.5156 232.5156,195.875 Z " fill="#000000"/><text fill="#000000" font-family="sans-serif" font-size="14" lengthAdjust="spacing" textLength="60" x="250.25" y="205.7285">Renderer</text><line style="stroke:#181818;stroke-width:0.5;" x1="136" x2="392" y1="216" y2="216"/><ellipse cx="146" cy="230.3047" fill="none" rx="3" ry="3" style="stroke:#038048;stroke-width:1.0;"/><text fill="#000000" font-family="sans-serif" font-size="14" lengthAdjust="spacing" textLength="75" x="155" y="234.5332">timer: Timer</text><line style="stroke:#181818;stroke-width:0.5;" x1="136" x2="392" y1="241.6094" y2="241.6094"/><ellipse cx="146" cy="255.9141" fill="#84BE84" rx="3" ry="3" style="stroke:#038048;stroke-width:1.0;"/><text fill="#000000" font-family="sans-serif" font-size="14" lengthAdjust="spacing" textLength="232" x="155" y="260.1426">Renderer(Board, int, AudioUnit, App)</text><ellipse cx="146" cy="273.5234" fill="#84BE84" rx="3" ry="3" style="stroke:#038048;stroke-width:1.0;"/><text fill="#000000" font-family="sans-serif" font-size="14" lengthAdjust="spacing" textLength="131" x="155" y="277.752">draw(Graphics): void</text><ellipse cx="146" cy="291.1328" fill="#84BE84" rx="3" ry="3" style="stroke:#038048;stroke-width:1.0;"/><text fill="#000000" font-family="sans-serif" font-size="14" lengthAdjust="spacing" textLength="134" x="155" y="295.3613">playSound(Tile): void</text><ellipse cx="146" cy="308.7422" fill="#84BE84" rx="3" ry="3" style="stroke:#038048;stroke-width:1.0;"/><text fill="#000000" font-family="sans-serif" font-size="14" lengthAdjust="spacing" textLength="132" x="155" y="312.9707">paint(Graphics): void</text></g></a><!--class nz.ac.wgtn.swen225.lc.renderer.Renderer.Images--><a href="Renderer.Images.html" target="_top" title="Renderer.Images.html" xlink:actuate="onRequest" xlink:href="Renderer.Images.html" xlink:show="new" xlink:title="Renderer.Images.html" xlink:type="simple"><g id="elem_nz.ac.wgtn.swen225.lc.renderer.Renderer.Images"><rect codeLine="54" fill="#F1F1F1" height="435.4063" id="nz.ac.wgtn.swen225.lc.renderer.Renderer.Images" rx="2.5" ry="2.5" style="stroke:#181818;stroke-width:0.5;" width="141" x="339.5" y="407"/><ellipse cx="354.5" cy="423" fill="#EB937F" rx="11" ry="11" style="stroke:#181818;stroke-width:1.0;"/><path d="M353.3594,423.7969 L353.3594,426.2969 L357.6875,426.2969 L357.6875,425.375 Q357.6875,424.7656 357.9219,424.5 Q358.1719,424.2344 358.5469,424.2344 Q358.9219,424.2344 359.1563,424.5 Q359.3906,424.7656 359.3906,425.375 L359.3906,428 L351.3906,428 Q350.7656,428 350.5,427.7656 Q350.25,427.5313 350.25,427.1406 Q350.25,426.7656 350.5156,426.5313 Q350.7813,426.2969 351.3906,426.2969 L351.6563,426.2969 L351.6563,419.6406 L351.3906,419.6406 Q350.7656,419.6406 350.5,419.4063 Q350.25,419.1719 350.25,418.7813 Q350.25,418.4063 350.5,418.1719 Q350.7656,417.9375 351.3906,417.9375 L359.0156,417.9375 L359.0156,420.5313 Q359.0156,421.1406 358.7813,421.4063 Q358.5625,421.6563 358.1719,421.6563 Q357.7969,421.6563 357.5625,421.4063 Q357.3281,421.1406 357.3281,420.5313 L357.3281,419.6406 L353.3594,419.6406 L353.3594,422.0938 L354.8438,422.0938 Q354.8438,421.4375 354.9688,421.25 Q355.2344,420.8438 355.7031,420.8438 Q356.0781,420.8438 356.3125,421.1094 Q356.5469,421.3594 356.5469,421.9688 L356.5469,423.9375 Q356.5469,424.4844 356.4219,424.6719 Q356.1563,425.0625 355.7031,425.0625 Q355.2344,425.0625 354.9688,424.6563 Q354.8438,424.4688 354.8438,423.7969 L353.3594,423.7969 Z " fill="#000000"/><text fill="#000000" font-family="sans-serif" font-size="14" lengthAdjust="spacing" textLength="109" x="368.5" y="428.7285">Renderer.Images</text><line style="stroke:#181818;stroke-width:0.5;" x1="340.5" x2="479.5" y1="439" y2="439"/><ellipse cx="350.5" cy="453.3047" fill="none" rx="3" ry="3" style="stroke:#038048;stroke-width:1.0;"/><text fill="#000000" font-family="sans-serif" font-size="14" lengthAdjust="spacing" text-decoration="underline" textLength="85" x="359.5" y="457.5332">DOOR_BLUE</text><ellipse cx="350.5" cy="470.9141" fill="none" rx="3" ry="3" style="stroke:#038048;stroke-width:1.0;"/><text fill="#000000" font-family="sans-serif" font-size="14" lengthAdjust="spacing" text-decoration="underline" textLength="98" x="359.5" y="475.1426">DOOR_GREEN</text><ellipse cx="350.5" cy="488.5234" fill="none" rx="3" ry="3" style="stroke:#038048;stroke-width:1.0;"/><text fill="#000000" font-family="sans-serif" font-size="14" lengthAdjust="spacing" text-decoration="underline" textLength="79" x="359.5" y="492.752">DOOR_RED</text><ellipse cx="350.5" cy="506.1328" fill="none" rx="3" ry="3" style="stroke:#038048;stroke-width:1.0;"/><text fill="#000000" font-family="sans-serif" font-size="14" lengthAdjust="spacing" text-decoration="underline" textLength="108" x="359.5" y="510.3613">DOOR_YELLOW</text><ellipse cx="350.5" cy="523.7422" fill="none" rx="3" ry="3" style="stroke:#038048;stroke-width:1.0;"/><text fill="#000000" font-family="sans-serif" font-size="14" lengthAdjust="spacing" text-decoration="underline" textLength="29" x="359.5" y="527.9707">EXIT</text><ellipse cx="350.5" cy="541.3516" fill="none" rx="3" ry="3" style="stroke:#038048;stroke-width:1.0;"/><text fill="#000000" font-family="sans-serif" font-size="14" lengthAdjust="spacing" text-decoration="underline" textLength="37" x="359.5" y="545.5801">FREE</text><ellipse cx="350.5" cy="558.9609" fill="none" rx="3" ry="3" style="stroke:#038048;stroke-width:1.0;"/><text fill="#000000" font-family="sans-serif" font-size="14" lengthAdjust="spacing" text-decoration="underline" textLength="60" x="359.5" y="563.1895">INFOBOX</text><ellipse cx="350.5" cy="576.5703" fill="none" rx="3" ry="3" style="stroke:#038048;stroke-width:1.0;"/><text fill="#000000" font-family="sans-serif" font-size="14" lengthAdjust="spacing" text-decoration="underline" textLength="70" x="359.5" y="580.7988">KEY_BLUE</text><ellipse cx="350.5" cy="594.1797" fill="none" rx="3" ry="3" style="stroke:#038048;stroke-width:1.0;"/><text fill="#000000" font-family="sans-serif" font-size="14" lengthAdjust="spacing" text-decoration="underline" textLength="83" x="359.5" y="598.4082">KEY_GREEN</text><ellipse cx="350.5" cy="611.7891" fill="none" rx="3" ry="3" style="stroke:#038048;stroke-width:1.0;"/><text fill="#000000" font-family="sans-serif" font-size="14" lengthAdjust="spacing" text-decoration="underline" textLength="64" x="359.5" y="616.0176">KEY_RED</text><ellipse cx="350.5" cy="629.3984" fill="none" rx="3" ry="3" style="stroke:#038048;stroke-width:1.0;"/><text fill="#000000" font-family="sans-serif" font-size="14" lengthAdjust="spacing" text-decoration="underline" textLength="93" x="359.5" y="633.627">KEY_YELLOW</text><ellipse cx="350.5" cy="647.0078" fill="none" rx="3" ry="3" style="stroke:#038048;stroke-width:1.0;"/><text fill="#000000" font-family="sans-serif" font-size="14" lengthAdjust="spacing" text-decoration="underline" textLength="38" x="359.5" y="651.2363">WALL</text><ellipse cx="350.5" cy="664.6172" fill="none" rx="3" ry="3" style="stroke:#038048;stroke-width:1.0;"/><text fill="#000000" font-family="sans-serif" font-size="14" lengthAdjust="spacing" text-decoration="underline" textLength="38" x="359.5" y="668.8457">BOAT</text><ellipse cx="350.5" cy="682.2266" fill="none" rx="3" ry="3" style="stroke:#038048;stroke-width:1.0;"/><text fill="#000000" font-family="sans-serif" font-size="14" lengthAdjust="spacing" text-decoration="underline" textLength="106" x="359.5" y="686.4551">SEAGULL_LEFT</text><ellipse cx="350.5" cy="699.8359" fill="none" rx="3" ry="3" style="stroke:#038048;stroke-width:1.0;"/><text fill="#000000" font-family="sans-serif" font-size="14" lengthAdjust="spacing" text-decoration="underline" textLength="113" x="359.5" y="704.0645">SEAGULL_RIGHT</text><ellipse cx="350.5" cy="717.4453" fill="none" rx="3" ry="3" style="stroke:#038048;stroke-width:1.0;"/><text fill="#000000" font-family="sans-serif" font-size="14" lengthAdjust="spacing" text-decoration="underline" textLength="47" x="359.5" y="721.6738">ENEMY</text><ellipse cx="350.5" cy="735.0547" fill="none" rx="3" ry="3" style="stroke:#038048;stroke-width:1.0;"/><text fill="#000000" font-family="sans-serif" font-size="14" lengthAdjust="spacing" text-decoration="underline" textLength="30" x="359.5" y="739.2832">FISH</text><ellipse cx="350.5" cy="752.6641" fill="none" rx="3" ry="3" style="stroke:#038048;stroke-width:1.0;"/><text fill="#000000" font-family="sans-serif" font-size="14" lengthAdjust="spacing" text-decoration="underline" textLength="55" x="359.5" y="756.8926">BOTTLE</text><ellipse cx="350.5" cy="770.2734" fill="none" rx="3" ry="3" style="stroke:#038048;stroke-width:1.0;"/><text fill="#000000" font-family="sans-serif" font-size="14" lengthAdjust="spacing" text-decoration="underline" textLength="75" x="359.5" y="774.502">EXIT_LOCK</text><ellipse cx="350.5" cy="787.8828" fill="none" rx="3" ry="3" style="stroke:#038048;stroke-width:1.0;"/><text fill="#000000" font-family="sans-serif" font-size="14" lengthAdjust="spacing" text-decoration="underline" textLength="76" x="359.5" y="792.1113">INFOPANEL</text><ellipse cx="350.5" cy="805.4922" fill="none" rx="3" ry="3" style="stroke:#038048;stroke-width:1.0;"/><text fill="#000000" font-family="sans-serif" font-size="14" lengthAdjust="spacing" text-decoration="underline" textLength="82" x="359.5" y="809.7207">WHIRLPOOL</text><ellipse cx="350.5" cy="823.1016" fill="none" rx="3" ry="3" style="stroke:#038048;stroke-width:1.0;"/><text fill="#000000" font-family="sans-serif" font-size="14" lengthAdjust="spacing" text-decoration="underline" textLength="40" x="359.5" y="827.3301">DOCK</text><line style="stroke:#181818;stroke-width:0.5;" x1="340.5" x2="479.5" y1="834.4063" y2="834.4063"/></g></a><!--class javax.swing.JPanel--><g id="elem_javax.swing.JPanel"><rect codeLine="88" fill="#F1F1F1" height="48" id="javax.swing.JPanel" rx="2.5" ry="2.5" style="stroke:#181818;stroke-width:0.5;" width="74" x="227" y="42"/><ellipse cx="242" cy="58" fill="#ADD1B2" rx="11" ry="11" style="stroke:#181818;stroke-width:1.0;"/><path d="M244.7656,53.875 Q244.9219,53.6563 245.1094,53.5469 Q245.2969,53.4375 245.5156,53.4375 Q245.8906,53.4375 246.125,53.7031 Q246.3594,53.9531 246.3594,54.5625 L246.3594,56.0156 Q246.3594,56.625 246.125,56.8906 Q245.8906,57.1563 245.5156,57.1563 Q245.1719,57.1563 244.9688,56.9531 Q244.7656,56.7656 244.6563,56.25 Q244.6094,55.8906 244.4219,55.7031 Q244.0938,55.3281 243.4844,55.1094 Q242.875,54.8906 242.25,54.8906 Q241.4844,54.8906 240.8438,55.2188 Q240.2188,55.5469 239.7188,56.2969 Q239.2344,57.0469 239.2344,58.0781 L239.2344,59.1719 Q239.2344,60.4063 240.125,61.2344 Q241.0156,62.0469 242.6094,62.0469 Q243.5469,62.0469 244.2031,61.7969 Q244.5938,61.6406 245.0156,61.2031 Q245.2813,60.9375 245.4219,60.8594 Q245.5781,60.7813 245.7813,60.7813 Q246.1094,60.7813 246.3594,61.0469 Q246.625,61.2969 246.625,61.6406 Q246.625,61.9844 246.2813,62.3906 Q245.7813,62.9688 244.9844,63.2969 Q243.9063,63.75 242.6094,63.75 Q241.0938,63.75 239.8906,63.125 Q238.9063,62.625 238.2188,61.5625 Q237.5313,60.4844 237.5313,59.2031 L237.5313,58.0469 Q237.5313,56.7188 238.1406,55.5781 Q238.7656,54.4219 239.8594,53.8125 Q240.9531,53.1875 242.1875,53.1875 Q242.9219,53.1875 243.5625,53.3594 Q244.2188,53.5156 244.7656,53.875 Z " fill="#000000"/><text fill="#000000" font-family="sans-serif" font-size="14" lengthAdjust="spacing" textLength="42" x="256" y="63.7285">JPanel</text><line style="stroke:#181818;stroke-width:0.5;" x1="228" x2="300" y1="74" y2="74"/><line style="stroke:#181818;stroke-width:0.5;" x1="228" x2="300" y1="82" y2="82"/></g><!--reverse link nz.ac.wgtn.swen225.lc.renderer.AudioUnit to nz.ac.wgtn.swen225.lc.renderer.AudioUnit.AudioClip--><g id="link_nz.ac.wgtn.swen225.lc.renderer.AudioUnit_nz.ac.wgtn.swen225.lc.renderer.AudioUnit.AudioClip"><path codeLine="79" d="M573.65,344.28 C576.96,389.62 581,445.17 584.62,494.75 " fill="none" id="nz.ac.wgtn.swen225.lc.renderer.AudioUnit-backto-nz.ac.wgtn.swen225.lc.renderer.AudioUnit.AudioClip" style="stroke:#181818;stroke-width:1.0;"/><ellipse cx="573.1392" cy="337.299" fill="#FFFFFF" rx="8" ry="8" style="stroke:#181818;stroke-width:1.0;"/><line style="stroke:#181818;stroke-width:1.0;" x1="573.7184" x2="572.56" y1="345.278" y2="329.32"/><line style="stroke:#181818;stroke-width:1.0;" x1="565.1602" x2="581.1182" y1="337.8782" y2="336.7198"/></g><!--link nz.ac.wgtn.swen225.lc.renderer.Camera to nz.ac.wgtn.swen225.lc.renderer.Camera.State--><g id="link_nz.ac.wgtn.swen225.lc.renderer.Camera_nz.ac.wgtn.swen225.lc.renderer.Camera.State"><path codeLine="80" d="M146.55,719.25 C139.85,769.87 134.95,833.42 141,890 C141.87,898.09 143.13,906.49 144.61,914.82 " fill="none" id="nz.ac.wgtn.swen225.lc.renderer.Camera-to-nz.ac.wgtn.swen225.lc.renderer.Camera.State" style="stroke:#181818;stroke-width:1.0;"/><polygon fill="#181818" points="145.55,919.99,147.8363,910.4102,144.6355,915.0743,139.9713,911.8735,145.55,919.99" style="stroke:#181818;stroke-width:1.0;"/><text fill="#000000" font-family="sans-serif" font-size="13" lengthAdjust="spacing" textLength="29" x="142" y="886.4951">state</text></g><!--reverse link nz.ac.wgtn.swen225.lc.renderer.Camera to nz.ac.wgtn.swen225.lc.renderer.Camera.State--><g id="link_nz.ac.wgtn.swen225.lc.renderer.Camera_nz.ac.wgtn.swen225.lc.renderer.Camera.State"><path codeLine="81" d="M174.26,734.39 C177.68,782.16 179.67,838.9 176,890 C175.31,899.67 174.23,909.85 172.97,919.82 " fill="none" id="nz.ac.wgtn.swen225.lc.renderer.Camera-backto-nz.ac.wgtn.swen225.lc.renderer.Camera.State" style="stroke:#181818;stroke-width:1.0;"/><ellipse cx="173.7119" cy="727.1873" fill="#FFFFFF" rx="8" ry="8" style="stroke:#181818;stroke-width:1.0;"/><line style="stroke:#181818;stroke-width:1.0;" x1="174.3138" x2="173.11" y1="735.1646" y2="719.21"/><line style="stroke:#181818;stroke-width:1.0;" x1="165.7346" x2="181.6892" y1="727.7892" y2="726.5854"/></g><!--reverse link javax.swing.JPanel to nz.ac.wgtn.swen225.lc.renderer.Renderer--><g id="link_javax.swing.JPanel_nz.ac.wgtn.swen225.lc.renderer.Renderer"><path codeLine="82" d="M264,110.59 C264,132.49 264,159.52 264,184 " fill="none" id="javax.swing.JPanel-backto-nz.ac.wgtn.swen225.lc.renderer.Renderer" style="stroke:#181818;stroke-width:1.0;"/><polygon fill="none" points="257,110.3,264,90.3,271,110.3,257,110.3" style="stroke:#181818;stroke-width:1.0;"/></g><!--link nz.ac.wgtn.swen225.lc.renderer.Renderer to nz.ac.wgtn.swen225.lc.renderer.Camera--><g id="link_nz.ac.wgtn.swen225.lc.renderer.Renderer_nz.ac.wgtn.swen225.lc.renderer.Camera"><path codeLine="83" d="M245.71,320.09 C230.14,377.2 207.56,460.03 189.93,524.71 " fill="none" id="nz.ac.wgtn.swen225.lc.renderer.Renderer-to-nz.ac.wgtn.swen225.lc.renderer.Camera" style="stroke:#181818;stroke-width:1.0;"/><polygon fill="#181818" points="188.56,529.73,194.7833,522.0965,189.8732,524.9055,187.0641,519.9954,188.56,529.73" style="stroke:#181818;stroke-width:1.0;"/><text fill="#000000" font-family="sans-serif" font-size="13" lengthAdjust="spacing" textLength="43" x="235" y="373.4951">camera</text></g><!--reverse link nz.ac.wgtn.swen225.lc.renderer.Renderer to nz.ac.wgtn.swen225.lc.renderer.Renderer.Images--><g id="link_nz.ac.wgtn.swen225.lc.renderer.Renderer_nz.ac.wgtn.swen225.lc.renderer.Renderer.Images"><path codeLine="84" d="M295.98,334.15 C308.84,366.79 324.22,405.83 339.46,444.5 " fill="none" id="nz.ac.wgtn.swen225.lc.renderer.Renderer-backto-nz.ac.wgtn.swen225.lc.renderer.Renderer.Images" style="stroke:#181818;stroke-width:1.0;"/><ellipse cx="293.373" cy="327.533" fill="#FFFFFF" rx="8" ry="8" style="stroke:#181818;stroke-width:1.0;"/><line style="stroke:#181818;stroke-width:1.0;" x1="296.306" x2="290.44" y1="334.9759" y2="320.09"/><line style="stroke:#181818;stroke-width:1.0;" x1="285.93" x2="300.8159" y1="330.4659" y2="324.6"/></g><text fill="#888888" font-family="sans-serif" font-size="10" lengthAdjust="spacing" textLength="184" x="248.5" y="1088.3809">UMLDoclet 2.1.0, PlantUML 1.2022.14</text><!--SRC=[dLPTRzem57tlh_3B9Af2j5Bj1KsJGWYGpH04YG2X2hc95xm59qgSTblN_xwOG0WbrxJZnIRd-kP-d7iSX13YP4lJc7WKyJyQyRIdG70jVQAytVwaXPwMKExJX2Re-UeAxNzUID8KwPdF8fSpWLQhSgzjn3Qyly-jKULtamgIY2xnVWP9b75_bANCQrntq6F4_1fBVVl0AFTelKaSajypIe8i36Vz1MpJP-b6QJ2JiJHsiHiXYu5uebWFmpCdByToK9vjBrHFEnQeVDr9sSgdzGLypiiYcFU2RhgwyMqmjTrn3p3GHrtB71ic0CzCVU1YVAk6sshu3e3xrcouDdHtC7G02tDiZfPhtN7oD02JdcrFxOav1k1lvjAmCJODHn74hG9hAx2xkluMT3VoGKb8thHY0n2z01j-b3s4j8dgr-lJCrdi4q6BavCePO95l65iI3qX0ohcp1SRoSZ2tHa-f2pO28N1Ge4j8IoLv_O9r4wAF5kFltDOzXMUvPsXnuBl_buQ3wk78UQx4v1mSuXisEn3D9jQLPQVqMLwqCtLwh05A2DOdbu7EN8vHGu76zs897uJCIwQHzdDjt7yYaf-GfuQWuJ46-Qb5tJFOK0ZOvA_2FJopbwMoLjR4j2qMexYoQMEIZbOTx5hgl31r0G5OsSmDNigU6bYRCyXpLfOeDRaxuMOEExRNNi1gvWgAGchSf8ud994bHdDTOoX-yNM7RNuhnL3SJ0v7OwQAq2XmM1WZWFEjcpH6jlWdIARCT779fJrV6XDySIsCKYIYklA11o_WMvQhV_u1YWTxM-NLklBUyInWsI4zBMNDyHIzL8U_q4UoQ_SdF50-peXd8Reyz_Srs5YIyDIt6IyXQiEydRhkSqRedab2LULAX-_JolHLSIYKDjzjC-L7bLyU9IBF93lKIGNTuHxaHTIWThQhVQnYIOXuI9_YZuyqYILb-_rFm00]--></g></svg>