<?xml version="1.0" encoding="UTF-8" standalone="no"?><svg xmlns="http://www.w3.org/2000/svg" xmlns:xlink="http://www.w3.org/1999/xlink" contentScriptType="application/ecmascript" contentStyleType="text/css" height="971px" preserveAspectRatio="none" style="width:623px;height:971px;background:#FFFFFF;" version="1.1" viewBox="0 0 623 971" width="623px" zoomAndPan="magnify"><defs><filter height="300%" id="f1nl3xy0kdwjvz" width="300%" x="-1" y="-1"><feGaussianBlur result="blurOut" stdDeviation="2.0"/><feColorMatrix in="blurOut" result="blurOut2" type="matrix" values="0 0 0 0 0 0 0 0 0 0 0 0 0 0 0 0 0 0 .4 0"/><feOffset dx="4.0" dy="4.0" in="blurOut2" result="blurOut3"/><feBlend in="SourceGraphic" in2="blurOut3" mode="normal"/></filter></defs><g><!--MD5=[ff17a17c8d58aa71d00458aa20630b94]
cluster nz.ac.wgtn.swen225.lc.renderer--><polygon fill="#FFFFFF" filter="url(#f1nl3xy0kdwjvz)" points="16,139,244,139,251,162.6094,606,162.6094,606,947,16,947,16,139" style="stroke:#000000;stroke-width:1.5;"/><line style="stroke:#000000;stroke-width:1.5;" x1="16" x2="251" y1="162.6094" y2="162.6094"/><text fill="#000000" font-family="sans-serif" font-size="14" font-weight="bold" lengthAdjust="spacing" textLength="222" x="20" y="155.5332">nz.ac.wgtn.swen225.lc.renderer</text><!--MD5=[535aab4de90d4dfa371a9b40d5438fc3]
cluster javax.swing--><polygon fill="#FFFFFF" filter="url(#f1nl3xy0kdwjvz)" points="187,6,275,6,282,29.6094,289,29.6094,289,106,187,106,187,6" style="stroke:#000000;stroke-width:1.5;"/><line style="stroke:#000000;stroke-width:1.5;" x1="187" x2="282" y1="29.6094" y2="29.6094"/><text fill="#000000" font-family="sans-serif" font-size="14" font-weight="bold" lengthAdjust="spacing" textLength="82" x="191" y="22.5332">javax.swing</text><!--MD5=[a2a94dd40b70946556e1557bafa67b3c]
class nz.ac.wgtn.swen225.lc.renderer.AudioUnit--><a href="AudioUnit.html" target="_top" title="AudioUnit.html" xlink:actuate="onRequest" xlink:href="AudioUnit.html" xlink:show="new" xlink:title="AudioUnit.html" xlink:type="simple"><rect codeLine="3" fill="#FEFECE" filter="url(#f1nl3xy0kdwjvz)" height="131.0156" id="nz.ac.wgtn.swen225.lc.renderer.AudioUnit" style="stroke:#A80036;stroke-width:1.5;" width="168" x="422" y="175"/><ellipse cx="475.25" cy="191" fill="#ADD1B2" rx="11" ry="11" style="stroke:#A80036;stroke-width:1.0;"/><path d="M478.0156,186.875 Q478.1719,186.6563 478.3594,186.5469 Q478.5469,186.4375 478.7656,186.4375 Q479.1406,186.4375 479.375,186.7031 Q479.6094,186.9531 479.6094,187.5625 L479.6094,189.0156 Q479.6094,189.625 479.375,189.8906 Q479.1406,190.1563 478.7656,190.1563 Q478.4219,190.1563 478.2188,189.9531 Q478.0156,189.7656 477.9063,189.25 Q477.8594,188.8906 477.6719,188.7031 Q477.3438,188.3281 476.7344,188.1094 Q476.125,187.8906 475.5,187.8906 Q474.7344,187.8906 474.0938,188.2188 Q473.4688,188.5469 472.9688,189.2969 Q472.4844,190.0469 472.4844,191.0781 L472.4844,192.1719 Q472.4844,193.4063 473.375,194.2344 Q474.2656,195.0469 475.8594,195.0469 Q476.7969,195.0469 477.4531,194.7969 Q477.8438,194.6406 478.2656,194.2031 Q478.5313,193.9375 478.6719,193.8594 Q478.8281,193.7813 479.0313,193.7813 Q479.3594,193.7813 479.6094,194.0469 Q479.875,194.2969 479.875,194.6406 Q479.875,194.9844 479.5313,195.3906 Q479.0313,195.9688 478.2344,196.2969 Q477.1563,196.75 475.8594,196.75 Q474.3438,196.75 473.1406,196.125 Q472.1563,195.625 471.4688,194.5625 Q470.7813,193.4844 470.7813,192.2031 L470.7813,191.0469 Q470.7813,189.7188 471.3906,188.5781 Q472.0156,187.4219 473.1094,186.8125 Q474.2031,186.1875 475.4375,186.1875 Q476.1719,186.1875 476.8125,186.3594 Q477.4688,186.5156 478.0156,186.875 Z " fill="#000000"/><text fill="#000000" font-family="sans-serif" font-size="12" lengthAdjust="spacing" textLength="53" x="495.75" y="195.9102">AudioUnit</text><line style="stroke:#A80036;stroke-width:1.5;" x1="423" x2="589" y1="207" y2="207"/><line style="stroke:#A80036;stroke-width:1.5;" x1="423" x2="589" y1="215" y2="215"/><ellipse cx="433" cy="226" fill="#84BE84" rx="3" ry="3" style="stroke:#038048;stroke-width:1.0;"/><text fill="#000000" font-family="sans-serif" font-size="11" lengthAdjust="spacing" textLength="142" x="442" y="230.4189">startBackgroundMusic(): void</text><ellipse cx="433" cy="239.8359" fill="#84BE84" rx="3" ry="3" style="stroke:#038048;stroke-width:1.0;"/><text fill="#000000" font-family="sans-serif" font-size="11" lengthAdjust="spacing" textLength="104" x="442" y="244.2549">startAmbience(): void</text><ellipse cx="433" cy="253.6719" fill="#84BE84" rx="3" ry="3" style="stroke:#038048;stroke-width:1.0;"/><text fill="#000000" font-family="sans-serif" font-size="11" lengthAdjust="spacing" textLength="109" x="442" y="258.0908">playSeagullSFX(): void</text><ellipse cx="433" cy="267.5078" fill="#84BE84" rx="3" ry="3" style="stroke:#038048;stroke-width:1.0;"/><text fill="#000000" font-family="sans-serif" font-size="11" lengthAdjust="spacing" textLength="94" x="442" y="271.9268">playFishSFX(): void</text><ellipse cx="433" cy="281.3438" fill="#84BE84" rx="3" ry="3" style="stroke:#038048;stroke-width:1.0;"/><text fill="#000000" font-family="sans-serif" font-size="11" lengthAdjust="spacing" textLength="130" x="442" y="285.7627">playSound(AudioClip): void</text><ellipse cx="433" cy="295.1797" fill="#84BE84" rx="3" ry="3" style="stroke:#038048;stroke-width:1.0;"/><text fill="#000000" font-family="sans-serif" font-size="11" lengthAdjust="spacing" textLength="67" x="442" y="299.5986">stopAll(): void</text></a><!--MD5=[3c1e86fd4f009387ffc78abbf8c78168]
class nz.ac.wgtn.swen225.lc.renderer.AudioUnit.AudioClip--><a href="AudioUnit.AudioClip.html" target="_top" title="AudioUnit.AudioClip.html" xlink:actuate="onRequest" xlink:href="AudioUnit.AudioClip.html" xlink:show="new" xlink:title="AudioUnit.AudioClip.html" xlink:type="simple"><rect codeLine="12" fill="#FEFECE" filter="url(#f1nl3xy0kdwjvz)" height="214.0313" id="nz.ac.wgtn.swen225.lc.renderer.AudioUnit.AudioClip" style="stroke:#A80036;stroke-width:1.5;" width="141" x="448.5" y="453"/><ellipse cx="463.5" cy="469" fill="#EB937F" rx="11" ry="11" style="stroke:#A80036;stroke-width:1.0;"/><path d="M462.3594,469.7969 L462.3594,472.2969 L466.6875,472.2969 L466.6875,471.375 Q466.6875,470.7656 466.9219,470.5 Q467.1719,470.2344 467.5469,470.2344 Q467.9219,470.2344 468.1563,470.5 Q468.3906,470.7656 468.3906,471.375 L468.3906,474 L460.3906,474 Q459.7656,474 459.5,473.7656 Q459.25,473.5313 459.25,473.1406 Q459.25,472.7656 459.5156,472.5313 Q459.7813,472.2969 460.3906,472.2969 L460.6563,472.2969 L460.6563,465.6406 L460.3906,465.6406 Q459.7656,465.6406 459.5,465.4063 Q459.25,465.1719 459.25,464.7813 Q459.25,464.4063 459.5,464.1719 Q459.7656,463.9375 460.3906,463.9375 L468.0156,463.9375 L468.0156,466.5313 Q468.0156,467.1406 467.7813,467.4063 Q467.5625,467.6563 467.1719,467.6563 Q466.7969,467.6563 466.5625,467.4063 Q466.3281,467.1406 466.3281,466.5313 L466.3281,465.6406 L462.3594,465.6406 L462.3594,468.0938 L463.8438,468.0938 Q463.8438,467.4375 463.9688,467.25 Q464.2344,466.8438 464.7031,466.8438 Q465.0781,466.8438 465.3125,467.1094 Q465.5469,467.3594 465.5469,467.9688 L465.5469,469.9375 Q465.5469,470.4844 465.4219,470.6719 Q465.1563,471.0625 464.7031,471.0625 Q464.2344,471.0625 463.9688,470.6563 Q463.8438,470.4688 463.8438,469.7969 L462.3594,469.7969 Z " fill="#000000"/><text fill="#000000" font-family="sans-serif" font-size="12" lengthAdjust="spacing" textLength="109" x="477.5" y="473.9102">AudioUnit.AudioClip</text><line style="stroke:#A80036;stroke-width:1.5;" x1="449.5" x2="588.5" y1="485" y2="485"/><ellipse cx="459.5" cy="496" rx="3" ry="3" style="stroke:#038048;stroke-width:1.0;fill:none;"/><text fill="#000000" font-family="sans-serif" font-size="11" lengthAdjust="spacing" text-decoration="underline" textLength="73" x="468.5" y="500.4189">BACKGROUND</text><ellipse cx="459.5" cy="509.8359" rx="3" ry="3" style="stroke:#038048;stroke-width:1.0;fill:none;"/><text fill="#000000" font-family="sans-serif" font-size="11" lengthAdjust="spacing" text-decoration="underline" textLength="51" x="468.5" y="514.2549">AMBIENCE</text><ellipse cx="459.5" cy="523.6719" rx="3" ry="3" style="stroke:#038048;stroke-width:1.0;fill:none;"/><text fill="#000000" font-family="sans-serif" font-size="11" lengthAdjust="spacing" text-decoration="underline" textLength="54" x="468.5" y="528.0908">SEAGULL1</text><ellipse cx="459.5" cy="537.5078" rx="3" ry="3" style="stroke:#038048;stroke-width:1.0;fill:none;"/><text fill="#000000" font-family="sans-serif" font-size="11" lengthAdjust="spacing" text-decoration="underline" textLength="54" x="468.5" y="541.9268">SEAGULL2</text><ellipse cx="459.5" cy="551.3438" rx="3" ry="3" style="stroke:#038048;stroke-width:1.0;fill:none;"/><text fill="#000000" font-family="sans-serif" font-size="11" lengthAdjust="spacing" text-decoration="underline" textLength="54" x="468.5" y="555.7627">SEAGULL3</text><ellipse cx="459.5" cy="565.1797" rx="3" ry="3" style="stroke:#038048;stroke-width:1.0;fill:none;"/><text fill="#000000" font-family="sans-serif" font-size="11" lengthAdjust="spacing" text-decoration="underline" textLength="71" x="468.5" y="569.5986">FISH_CAUGHT</text><ellipse cx="459.5" cy="579.0156" rx="3" ry="3" style="stroke:#038048;stroke-width:1.0;fill:none;"/><text fill="#000000" font-family="sans-serif" font-size="11" lengthAdjust="spacing" text-decoration="underline" textLength="83" x="468.5" y="583.4346">ENEMY_ATTACK</text><ellipse cx="459.5" cy="592.8516" rx="3" ry="3" style="stroke:#038048;stroke-width:1.0;fill:none;"/><text fill="#000000" font-family="sans-serif" font-size="11" lengthAdjust="spacing" text-decoration="underline" textLength="57" x="468.5" y="597.2705">DOOROPEN</text><ellipse cx="459.5" cy="606.6875" rx="3" ry="3" style="stroke:#038048;stroke-width:1.0;fill:none;"/><text fill="#000000" font-family="sans-serif" font-size="11" lengthAdjust="spacing" text-decoration="underline" textLength="67" x="468.5" y="611.1064">KEYCOLLECT</text><ellipse cx="459.5" cy="620.5234" rx="3" ry="3" style="stroke:#038048;stroke-width:1.0;fill:none;"/><text fill="#000000" font-family="sans-serif" font-size="11" lengthAdjust="spacing" text-decoration="underline" textLength="28" x="468.5" y="624.9424">FISH1</text><ellipse cx="459.5" cy="634.3594" rx="3" ry="3" style="stroke:#038048;stroke-width:1.0;fill:none;"/><text fill="#000000" font-family="sans-serif" font-size="11" lengthAdjust="spacing" text-decoration="underline" textLength="28" x="468.5" y="638.7783">FISH2</text><ellipse cx="459.5" cy="648.1953" rx="3" ry="3" style="stroke:#038048;stroke-width:1.0;fill:none;"/><text fill="#000000" font-family="sans-serif" font-size="11" lengthAdjust="spacing" text-decoration="underline" textLength="28" x="468.5" y="652.6143">FISH3</text><line style="stroke:#A80036;stroke-width:1.5;" x1="449.5" x2="588.5" y1="659.0313" y2="659.0313"/></a><!--MD5=[4e2bc18e85765381726e3364af178b80]
class nz.ac.wgtn.swen225.lc.renderer.Camera--><a href="Camera.html" target="_top" title="Camera.html" xlink:actuate="onRequest" xlink:href="Camera.html" xlink:show="new" xlink:title="Camera.html" xlink:type="simple"><rect codeLine="27" fill="#FEFECE" filter="url(#f1nl3xy0kdwjvz)" height="158.6875" id="nz.ac.wgtn.swen225.lc.renderer.Camera" style="stroke:#A80036;stroke-width:1.5;" width="217" x="32.5" y="480.5"/><ellipse cx="114.25" cy="496.5" fill="#ADD1B2" rx="11" ry="11" style="stroke:#A80036;stroke-width:1.0;"/><path d="M117.0156,492.375 Q117.1719,492.1563 117.3594,492.0469 Q117.5469,491.9375 117.7656,491.9375 Q118.1406,491.9375 118.375,492.2031 Q118.6094,492.4531 118.6094,493.0625 L118.6094,494.5156 Q118.6094,495.125 118.375,495.3906 Q118.1406,495.6563 117.7656,495.6563 Q117.4219,495.6563 117.2188,495.4531 Q117.0156,495.2656 116.9063,494.75 Q116.8594,494.3906 116.6719,494.2031 Q116.3438,493.8281 115.7344,493.6094 Q115.125,493.3906 114.5,493.3906 Q113.7344,493.3906 113.0938,493.7188 Q112.4688,494.0469 111.9688,494.7969 Q111.4844,495.5469 111.4844,496.5781 L111.4844,497.6719 Q111.4844,498.9063 112.375,499.7344 Q113.2656,500.5469 114.8594,500.5469 Q115.7969,500.5469 116.4531,500.2969 Q116.8438,500.1406 117.2656,499.7031 Q117.5313,499.4375 117.6719,499.3594 Q117.8281,499.2813 118.0313,499.2813 Q118.3594,499.2813 118.6094,499.5469 Q118.875,499.7969 118.875,500.1406 Q118.875,500.4844 118.5313,500.8906 Q118.0313,501.4688 117.2344,501.7969 Q116.1563,502.25 114.8594,502.25 Q113.3438,502.25 112.1406,501.625 Q111.1563,501.125 110.4688,500.0625 Q109.7813,498.9844 109.7813,497.7031 L109.7813,496.5469 Q109.7813,495.2188 110.3906,494.0781 Q111.0156,492.9219 112.1094,492.3125 Q113.2031,491.6875 114.4375,491.6875 Q115.1719,491.6875 115.8125,491.8594 Q116.4688,492.0156 117.0156,492.375 Z " fill="#000000"/><text fill="#000000" font-family="sans-serif" font-size="12" lengthAdjust="spacing" textLength="45" x="134.75" y="501.4102">Camera</text><line style="stroke:#A80036;stroke-width:1.5;" x1="33.5" x2="248.5" y1="512.5" y2="512.5"/><line style="stroke:#A80036;stroke-width:1.5;" x1="33.5" x2="248.5" y1="520.5" y2="520.5"/><ellipse cx="43.5" cy="531.5" fill="#84BE84" rx="3" ry="3" style="stroke:#038048;stroke-width:1.0;"/><text fill="#000000" font-family="sans-serif" font-size="11" lengthAdjust="spacing" textLength="191" x="52.5" y="535.9189">Camera(double, double, double, double)</text><ellipse cx="43.5" cy="545.3359" fill="#84BE84" rx="3" ry="3" style="stroke:#038048;stroke-width:1.0;"/><text fill="#000000" font-family="sans-serif" font-size="11" lengthAdjust="spacing" textLength="166" x="52.5" y="549.7549">updateCameraPosition(Chap): void</text><ellipse cx="43.5" cy="559.1719" fill="#84BE84" rx="3" ry="3" style="stroke:#038048;stroke-width:1.0;"/><text fill="#000000" font-family="sans-serif" font-size="11" lengthAdjust="spacing" textLength="88" x="52.5" y="563.5908">getWidth(): double</text><ellipse cx="43.5" cy="573.0078" fill="#84BE84" rx="3" ry="3" style="stroke:#038048;stroke-width:1.0;"/><text fill="#000000" font-family="sans-serif" font-size="11" lengthAdjust="spacing" textLength="91" x="52.5" y="577.4268">getHeight(): double</text><ellipse cx="43.5" cy="586.8438" fill="#84BE84" rx="3" ry="3" style="stroke:#038048;stroke-width:1.0;"/><text fill="#000000" font-family="sans-serif" font-size="11" lengthAdjust="spacing" textLength="68" x="52.5" y="591.2627">getX(): double</text><ellipse cx="43.5" cy="600.6797" fill="#84BE84" rx="3" ry="3" style="stroke:#038048;stroke-width:1.0;"/><text fill="#000000" font-family="sans-serif" font-size="11" lengthAdjust="spacing" textLength="69" x="52.5" y="605.0986">getY(): double</text><ellipse cx="43.5" cy="614.5156" fill="#84BE84" rx="3" ry="3" style="stroke:#038048;stroke-width:1.0;"/><text fill="#000000" font-family="sans-serif" font-size="11" lengthAdjust="spacing" textLength="88" x="52.5" y="618.9346">setX(double): void</text><ellipse cx="43.5" cy="628.3516" fill="#84BE84" rx="3" ry="3" style="stroke:#038048;stroke-width:1.0;"/><text fill="#000000" font-family="sans-serif" font-size="11" lengthAdjust="spacing" textLength="89" x="52.5" y="632.7705">setY(double): void</text></a><!--MD5=[932d56a9087dae8b25465a7d9bd34994]
class nz.ac.wgtn.swen225.lc.renderer.Camera.State--><a href="Camera.State.html" target="_top" title="Camera.State.html" xlink:actuate="onRequest" xlink:href="Camera.State.html" xlink:show="new" xlink:title="Camera.State.html" xlink:type="simple"><rect codeLine="38" fill="#FEFECE" filter="url(#f1nl3xy0kdwjvz)" height="117.1797" id="nz.ac.wgtn.swen225.lc.renderer.Camera.State" style="stroke:#A80036;stroke-width:1.5;" width="108" x="86" y="814"/><ellipse cx="101" cy="830" fill="#EB937F" rx="11" ry="11" style="stroke:#A80036;stroke-width:1.0;"/><path d="M99.8594,830.7969 L99.8594,833.2969 L104.1875,833.2969 L104.1875,832.375 Q104.1875,831.7656 104.4219,831.5 Q104.6719,831.2344 105.0469,831.2344 Q105.4219,831.2344 105.6563,831.5 Q105.8906,831.7656 105.8906,832.375 L105.8906,835 L97.8906,835 Q97.2656,835 97,834.7656 Q96.75,834.5313 96.75,834.1406 Q96.75,833.7656 97.0156,833.5313 Q97.2813,833.2969 97.8906,833.2969 L98.1563,833.2969 L98.1563,826.6406 L97.8906,826.6406 Q97.2656,826.6406 97,826.4063 Q96.75,826.1719 96.75,825.7813 Q96.75,825.4063 97,825.1719 Q97.2656,824.9375 97.8906,824.9375 L105.5156,824.9375 L105.5156,827.5313 Q105.5156,828.1406 105.2813,828.4063 Q105.0625,828.6563 104.6719,828.6563 Q104.2969,828.6563 104.0625,828.4063 Q103.8281,828.1406 103.8281,827.5313 L103.8281,826.6406 L99.8594,826.6406 L99.8594,829.0938 L101.3438,829.0938 Q101.3438,828.4375 101.4688,828.25 Q101.7344,827.8438 102.2031,827.8438 Q102.5781,827.8438 102.8125,828.1094 Q103.0469,828.3594 103.0469,828.9688 L103.0469,830.9375 Q103.0469,831.4844 102.9219,831.6719 Q102.6563,832.0625 102.2031,832.0625 Q101.7344,832.0625 101.4688,831.6563 Q101.3438,831.4688 101.3438,830.7969 L99.8594,830.7969 Z " fill="#000000"/><text fill="#000000" font-family="sans-serif" font-size="12" lengthAdjust="spacing" textLength="76" x="115" y="834.9102">Camera.State</text><line style="stroke:#A80036;stroke-width:1.5;" x1="87" x2="193" y1="846" y2="846"/><ellipse cx="97" cy="857" rx="3" ry="3" style="stroke:#038048;stroke-width:1.0;fill:none;"/><text fill="#000000" font-family="sans-serif" font-size="11" lengthAdjust="spacing" text-decoration="underline" textLength="21" x="106" y="861.4189">IDLE</text><ellipse cx="97" cy="870.8359" rx="3" ry="3" style="stroke:#038048;stroke-width:1.0;fill:none;"/><text fill="#000000" font-family="sans-serif" font-size="11" lengthAdjust="spacing" text-decoration="underline" textLength="13" x="106" y="875.2549">UP</text><ellipse cx="97" cy="884.6719" rx="3" ry="3" style="stroke:#038048;stroke-width:1.0;fill:none;"/><text fill="#000000" font-family="sans-serif" font-size="11" lengthAdjust="spacing" text-decoration="underline" textLength="32" x="106" y="889.0908">DOWN</text><ellipse cx="97" cy="898.5078" rx="3" ry="3" style="stroke:#038048;stroke-width:1.0;fill:none;"/><text fill="#000000" font-family="sans-serif" font-size="11" lengthAdjust="spacing" text-decoration="underline" textLength="24" x="106" y="902.9268">LEFT</text><ellipse cx="97" cy="912.3438" rx="3" ry="3" style="stroke:#038048;stroke-width:1.0;fill:none;"/><text fill="#000000" font-family="sans-serif" font-size="11" lengthAdjust="spacing" text-decoration="underline" textLength="30" x="106" y="916.7627">RIGHT</text><line style="stroke:#A80036;stroke-width:1.5;" x1="87" x2="193" y1="923.1797" y2="923.1797"/></a><!--MD5=[0ebfb97f3cd9940840ca0fa6e6330c8c]
class nz.ac.wgtn.swen225.lc.renderer.Renderer--><a href="Renderer.html" target="_top" title="Renderer.html" xlink:actuate="onRequest" xlink:href="Renderer.html" xlink:show="new" xlink:title="Renderer.html" xlink:type="simple"><rect codeLine="46" fill="#FEFECE" filter="url(#f1nl3xy0kdwjvz)" height="117.1797" id="nz.ac.wgtn.swen225.lc.renderer.Renderer" style="stroke:#A80036;stroke-width:1.5;" width="203" x="136.5" y="182"/><ellipse cx="207.75" cy="198" fill="#ADD1B2" rx="11" ry="11" style="stroke:#A80036;stroke-width:1.0;"/><path d="M210.5156,193.875 Q210.6719,193.6563 210.8594,193.5469 Q211.0469,193.4375 211.2656,193.4375 Q211.6406,193.4375 211.875,193.7031 Q212.1094,193.9531 212.1094,194.5625 L212.1094,196.0156 Q212.1094,196.625 211.875,196.8906 Q211.6406,197.1563 211.2656,197.1563 Q210.9219,197.1563 210.7188,196.9531 Q210.5156,196.7656 210.4063,196.25 Q210.3594,195.8906 210.1719,195.7031 Q209.8438,195.3281 209.2344,195.1094 Q208.625,194.8906 208,194.8906 Q207.2344,194.8906 206.5938,195.2188 Q205.9688,195.5469 205.4688,196.2969 Q204.9844,197.0469 204.9844,198.0781 L204.9844,199.1719 Q204.9844,200.4063 205.875,201.2344 Q206.7656,202.0469 208.3594,202.0469 Q209.2969,202.0469 209.9531,201.7969 Q210.3438,201.6406 210.7656,201.2031 Q211.0313,200.9375 211.1719,200.8594 Q211.3281,200.7813 211.5313,200.7813 Q211.8594,200.7813 212.1094,201.0469 Q212.375,201.2969 212.375,201.6406 Q212.375,201.9844 212.0313,202.3906 Q211.5313,202.9688 210.7344,203.2969 Q209.6563,203.75 208.3594,203.75 Q206.8438,203.75 205.6406,203.125 Q204.6563,202.625 203.9688,201.5625 Q203.2813,200.4844 203.2813,199.2031 L203.2813,198.0469 Q203.2813,196.7188 203.8906,195.5781 Q204.5156,194.4219 205.6094,193.8125 Q206.7031,193.1875 207.9375,193.1875 Q208.6719,193.1875 209.3125,193.3594 Q209.9688,193.5156 210.5156,193.875 Z " fill="#000000"/><text fill="#000000" font-family="sans-serif" font-size="12" lengthAdjust="spacing" textLength="52" x="228.25" y="202.9102">Renderer</text><line style="stroke:#A80036;stroke-width:1.5;" x1="137.5" x2="338.5" y1="214" y2="214"/><ellipse cx="147.5" cy="225" rx="3" ry="3" style="stroke:#038048;stroke-width:1.0;fill:none;"/><text fill="#000000" font-family="sans-serif" font-size="11" lengthAdjust="spacing" textLength="55" x="156.5" y="229.4189">timer: Timer</text><line style="stroke:#A80036;stroke-width:1.5;" x1="137.5" x2="338.5" y1="235.8359" y2="235.8359"/><ellipse cx="147.5" cy="246.8359" fill="#84BE84" rx="3" ry="3" style="stroke:#038048;stroke-width:1.0;"/><text fill="#000000" font-family="sans-serif" font-size="11" lengthAdjust="spacing" textLength="177" x="156.5" y="251.2549">Renderer(Board, int, AudioUnit, App)</text><ellipse cx="147.5" cy="260.6719" fill="#84BE84" rx="3" ry="3" style="stroke:#038048;stroke-width:1.0;"/><text fill="#000000" font-family="sans-serif" font-size="11" lengthAdjust="spacing" textLength="104" x="156.5" y="265.0908">draw(Graphics): void</text><ellipse cx="147.5" cy="274.5078" fill="#84BE84" rx="3" ry="3" style="stroke:#038048;stroke-width:1.0;"/><text fill="#000000" font-family="sans-serif" font-size="11" lengthAdjust="spacing" textLength="101" x="156.5" y="278.9268">playSound(Tile): void</text><ellipse cx="147.5" cy="288.3438" fill="#84BE84" rx="3" ry="3" style="stroke:#038048;stroke-width:1.0;"/><text fill="#000000" font-family="sans-serif" font-size="11" lengthAdjust="spacing" textLength="101" x="156.5" y="292.7627">paint(Graphics): void</text></a><!--MD5=[0a3c421ae1e10fcff188cf30253bf464]
class nz.ac.wgtn.swen225.lc.renderer.Renderer.Images--><a href="Renderer.Images.html" target="_top" title="Renderer.Images.html" xlink:actuate="onRequest" xlink:href="Renderer.Images.html" xlink:show="new" xlink:title="Renderer.Images.html" xlink:type="simple"><rect codeLine="54" fill="#FEFECE" filter="url(#f1nl3xy0kdwjvz)" height="352.3906" id="nz.ac.wgtn.swen225.lc.renderer.Renderer.Images" style="stroke:#A80036;stroke-width:1.5;" width="129" x="284.5" y="384"/><ellipse cx="299.5" cy="400" fill="#EB937F" rx="11" ry="11" style="stroke:#A80036;stroke-width:1.0;"/><path d="M298.3594,400.7969 L298.3594,403.2969 L302.6875,403.2969 L302.6875,402.375 Q302.6875,401.7656 302.9219,401.5 Q303.1719,401.2344 303.5469,401.2344 Q303.9219,401.2344 304.1563,401.5 Q304.3906,401.7656 304.3906,402.375 L304.3906,405 L296.3906,405 Q295.7656,405 295.5,404.7656 Q295.25,404.5313 295.25,404.1406 Q295.25,403.7656 295.5156,403.5313 Q295.7813,403.2969 296.3906,403.2969 L296.6563,403.2969 L296.6563,396.6406 L296.3906,396.6406 Q295.7656,396.6406 295.5,396.4063 Q295.25,396.1719 295.25,395.7813 Q295.25,395.4063 295.5,395.1719 Q295.7656,394.9375 296.3906,394.9375 L304.0156,394.9375 L304.0156,397.5313 Q304.0156,398.1406 303.7813,398.4063 Q303.5625,398.6563 303.1719,398.6563 Q302.7969,398.6563 302.5625,398.4063 Q302.3281,398.1406 302.3281,397.5313 L302.3281,396.6406 L298.3594,396.6406 L298.3594,399.0938 L299.8438,399.0938 Q299.8438,398.4375 299.9688,398.25 Q300.2344,397.8438 300.7031,397.8438 Q301.0781,397.8438 301.3125,398.1094 Q301.5469,398.3594 301.5469,398.9688 L301.5469,400.9375 Q301.5469,401.4844 301.4219,401.6719 Q301.1563,402.0625 300.7031,402.0625 Q300.2344,402.0625 299.9688,401.6563 Q299.8438,401.4688 299.8438,400.7969 L298.3594,400.7969 Z " fill="#000000"/><text fill="#000000" font-family="sans-serif" font-size="12" lengthAdjust="spacing" textLength="97" x="313.5" y="404.9102">Renderer.Images</text><line style="stroke:#A80036;stroke-width:1.5;" x1="285.5" x2="412.5" y1="416" y2="416"/><ellipse cx="295.5" cy="427" rx="3" ry="3" style="stroke:#038048;stroke-width:1.0;fill:none;"/><text fill="#000000" font-family="sans-serif" font-size="11" lengthAdjust="spacing" text-decoration="underline" textLength="62" x="304.5" y="431.4189">DOOR_BLUE</text><ellipse cx="295.5" cy="440.8359" rx="3" ry="3" style="stroke:#038048;stroke-width:1.0;fill:none;"/><text fill="#000000" font-family="sans-serif" font-size="11" lengthAdjust="spacing" text-decoration="underline" textLength="70" x="304.5" y="445.2549">DOOR_GREEN</text><ellipse cx="295.5" cy="454.6719" rx="3" ry="3" style="stroke:#038048;stroke-width:1.0;fill:none;"/><text fill="#000000" font-family="sans-serif" font-size="11" lengthAdjust="spacing" text-decoration="underline" textLength="56" x="304.5" y="459.0908">DOOR_RED</text><ellipse cx="295.5" cy="468.5078" rx="3" ry="3" style="stroke:#038048;stroke-width:1.0;fill:none;"/><text fill="#000000" font-family="sans-serif" font-size="11" lengthAdjust="spacing" text-decoration="underline" textLength="80" x="304.5" y="472.9268">DOOR_YELLOW</text><ellipse cx="295.5" cy="482.3438" rx="3" ry="3" style="stroke:#038048;stroke-width:1.0;fill:none;"/><text fill="#000000" font-family="sans-serif" font-size="11" lengthAdjust="spacing" text-decoration="underline" textLength="21" x="304.5" y="486.7627">EXIT</text><ellipse cx="295.5" cy="496.1797" rx="3" ry="3" style="stroke:#038048;stroke-width:1.0;fill:none;"/><text fill="#000000" font-family="sans-serif" font-size="11" lengthAdjust="spacing" text-decoration="underline" textLength="25" x="304.5" y="500.5986">FREE</text><ellipse cx="295.5" cy="510.0156" rx="3" ry="3" style="stroke:#038048;stroke-width:1.0;fill:none;"/><text fill="#000000" font-family="sans-serif" font-size="11" lengthAdjust="spacing" text-decoration="underline" textLength="45" x="304.5" y="514.4346">INFOBOX</text><ellipse cx="295.5" cy="523.8516" rx="3" ry="3" style="stroke:#038048;stroke-width:1.0;fill:none;"/><text fill="#000000" font-family="sans-serif" font-size="11" lengthAdjust="spacing" text-decoration="underline" textLength="53" x="304.5" y="528.2705">KEY_BLUE</text><ellipse cx="295.5" cy="537.6875" rx="3" ry="3" style="stroke:#038048;stroke-width:1.0;fill:none;"/><text fill="#000000" font-family="sans-serif" font-size="11" lengthAdjust="spacing" text-decoration="underline" textLength="61" x="304.5" y="542.1064">KEY_GREEN</text><ellipse cx="295.5" cy="551.5234" rx="3" ry="3" style="stroke:#038048;stroke-width:1.0;fill:none;"/><text fill="#000000" font-family="sans-serif" font-size="11" lengthAdjust="spacing" text-decoration="underline" textLength="47" x="304.5" y="555.9424">KEY_RED</text><ellipse cx="295.5" cy="565.3594" rx="3" ry="3" style="stroke:#038048;stroke-width:1.0;fill:none;"/><text fill="#000000" font-family="sans-serif" font-size="11" lengthAdjust="spacing" text-decoration="underline" textLength="71" x="304.5" y="569.7783">KEY_YELLOW</text><ellipse cx="295.5" cy="579.1953" rx="3" ry="3" style="stroke:#038048;stroke-width:1.0;fill:none;"/><text fill="#000000" font-family="sans-serif" font-size="11" lengthAdjust="spacing" text-decoration="underline" textLength="30" x="304.5" y="583.6143">WALL</text><ellipse cx="295.5" cy="593.0313" rx="3" ry="3" style="stroke:#038048;stroke-width:1.0;fill:none;"/><text fill="#000000" font-family="sans-serif" font-size="11" lengthAdjust="spacing" text-decoration="underline" textLength="29" x="304.5" y="597.4502">BOAT</text><ellipse cx="295.5" cy="606.8672" rx="3" ry="3" style="stroke:#038048;stroke-width:1.0;fill:none;"/><text fill="#000000" font-family="sans-serif" font-size="11" lengthAdjust="spacing" text-decoration="underline" textLength="78" x="304.5" y="611.2861">SEAGULL_LEFT</text><ellipse cx="295.5" cy="620.7031" rx="3" ry="3" style="stroke:#038048;stroke-width:1.0;fill:none;"/><text fill="#000000" font-family="sans-serif" font-size="11" lengthAdjust="spacing" text-decoration="underline" textLength="84" x="304.5" y="625.1221">SEAGULL_RIGHT</text><ellipse cx="295.5" cy="634.5391" rx="3" ry="3" style="stroke:#038048;stroke-width:1.0;fill:none;"/><text fill="#000000" font-family="sans-serif" font-size="11" lengthAdjust="spacing" text-decoration="underline" textLength="35" x="304.5" y="638.958">ENEMY</text><ellipse cx="295.5" cy="648.375" rx="3" ry="3" style="stroke:#038048;stroke-width:1.0;fill:none;"/><text fill="#000000" font-family="sans-serif" font-size="11" lengthAdjust="spacing" text-decoration="underline" textLength="22" x="304.5" y="652.7939">FISH</text><ellipse cx="295.5" cy="662.2109" rx="3" ry="3" style="stroke:#038048;stroke-width:1.0;fill:none;"/><text fill="#000000" font-family="sans-serif" font-size="11" lengthAdjust="spacing" text-decoration="underline" textLength="39" x="304.5" y="666.6299">BOTTLE</text><ellipse cx="295.5" cy="676.0469" rx="3" ry="3" style="stroke:#038048;stroke-width:1.0;fill:none;"/><text fill="#000000" font-family="sans-serif" font-size="11" lengthAdjust="spacing" text-decoration="underline" textLength="55" x="304.5" y="680.4658">EXIT_LOCK</text><ellipse cx="295.5" cy="689.8828" rx="3" ry="3" style="stroke:#038048;stroke-width:1.0;fill:none;"/><text fill="#000000" font-family="sans-serif" font-size="11" lengthAdjust="spacing" text-decoration="underline" textLength="56" x="304.5" y="694.3018">INFOPANEL</text><ellipse cx="295.5" cy="703.7188" rx="3" ry="3" style="stroke:#038048;stroke-width:1.0;fill:none;"/><text fill="#000000" font-family="sans-serif" font-size="11" lengthAdjust="spacing" text-decoration="underline" textLength="60" x="304.5" y="708.1377">WHIRLPOOL</text><ellipse cx="295.5" cy="717.5547" rx="3" ry="3" style="stroke:#038048;stroke-width:1.0;fill:none;"/><text fill="#000000" font-family="sans-serif" font-size="11" lengthAdjust="spacing" text-decoration="underline" textLength="29" x="304.5" y="721.9736">DOCK</text><line style="stroke:#A80036;stroke-width:1.5;" x1="285.5" x2="412.5" y1="728.3906" y2="728.3906"/></a><!--MD5=[56a185cb33bdc7c23303e5865f20a19b]
class javax.swing.JPanel--><rect codeLine="88" fill="#FEFECE" filter="url(#f1nl3xy0kdwjvz)" height="48" id="javax.swing.JPanel" style="stroke:#A80036;stroke-width:1.5;" width="70" x="203" y="42"/><ellipse cx="218" cy="58" fill="#ADD1B2" rx="11" ry="11" style="stroke:#A80036;stroke-width:1.0;"/><path d="M220.7656,53.875 Q220.9219,53.6563 221.1094,53.5469 Q221.2969,53.4375 221.5156,53.4375 Q221.8906,53.4375 222.125,53.7031 Q222.3594,53.9531 222.3594,54.5625 L222.3594,56.0156 Q222.3594,56.625 222.125,56.8906 Q221.8906,57.1563 221.5156,57.1563 Q221.1719,57.1563 220.9688,56.9531 Q220.7656,56.7656 220.6563,56.25 Q220.6094,55.8906 220.4219,55.7031 Q220.0938,55.3281 219.4844,55.1094 Q218.875,54.8906 218.25,54.8906 Q217.4844,54.8906 216.8438,55.2188 Q216.2188,55.5469 215.7188,56.2969 Q215.2344,57.0469 215.2344,58.0781 L215.2344,59.1719 Q215.2344,60.4063 216.125,61.2344 Q217.0156,62.0469 218.6094,62.0469 Q219.5469,62.0469 220.2031,61.7969 Q220.5938,61.6406 221.0156,61.2031 Q221.2813,60.9375 221.4219,60.8594 Q221.5781,60.7813 221.7813,60.7813 Q222.1094,60.7813 222.3594,61.0469 Q222.625,61.2969 222.625,61.6406 Q222.625,61.9844 222.2813,62.3906 Q221.7813,62.9688 220.9844,63.2969 Q219.9063,63.75 218.6094,63.75 Q217.0938,63.75 215.8906,63.125 Q214.9063,62.625 214.2188,61.5625 Q213.5313,60.4844 213.5313,59.2031 L213.5313,58.0469 Q213.5313,56.7188 214.1406,55.5781 Q214.7656,54.4219 215.8594,53.8125 Q216.9531,53.1875 218.1875,53.1875 Q218.9219,53.1875 219.5625,53.3594 Q220.2188,53.5156 220.7656,53.875 Z " fill="#000000"/><text fill="#000000" font-family="sans-serif" font-size="12" lengthAdjust="spacing" textLength="38" x="232" y="62.9102">JPanel</text><line style="stroke:#A80036;stroke-width:1.5;" x1="204" x2="272" y1="74" y2="74"/><line style="stroke:#A80036;stroke-width:1.5;" x1="204" x2="272" y1="82" y2="82"/><!--MD5=[ab80afdc0ee7e57af166d6c8f623f50c]
reverse link nz.ac.wgtn.swen225.lc.renderer.AudioUnit to nz.ac.wgtn.swen225.lc.renderer.AudioUnit.AudioClip--><path codeLine="79" d="M509.26,321.23 C510.9,361.1 512.9,409.9 514.66,452.89 " fill="none" id="nz.ac.wgtn.swen225.lc.renderer.AudioUnit-backto-nz.ac.wgtn.swen225.lc.renderer.AudioUnit.AudioClip" style="stroke:#A80036;stroke-width:1.0;"/><ellipse cx="508.9773" cy="314.1233" fill="#FFFFFF" rx="8" ry="8" style="stroke:#A80036;stroke-width:1.0;"/><line style="stroke:#A80036;stroke-width:1.0;" x1="509.3047" x2="508.65" y1="322.1166" y2="306.13"/><line style="stroke:#A80036;stroke-width:1.0;" x1="500.984" x2="516.9706" y1="314.4506" y2="313.796"/><!--MD5=[2e419264eafa0255a695fb5b5024b10c]
link nz.ac.wgtn.swen225.lc.renderer.Camera to nz.ac.wgtn.swen225.lc.renderer.Camera.State--><path codeLine="80" d="M124.96,639.51 C118.32,682.28 113.33,736.09 119,784 C119.96,792.09 121.4,800.52 123.08,808.81 " fill="none" id="nz.ac.wgtn.swen225.lc.renderer.Camera-to-nz.ac.wgtn.swen225.lc.renderer.Camera.State" style="stroke:#A80036;stroke-width:1.0;"/><polygon fill="#A80036" points="124.16,813.96,126.2258,804.3302,123.1328,809.0666,118.3964,805.9737,124.16,813.96" style="stroke:#A80036;stroke-width:1.0;"/><text fill="#000000" font-family="sans-serif" font-size="13" lengthAdjust="spacing" textLength="29" x="120" y="780.4951">state</text><!--MD5=[85a601e519c898f4e3e87b10eff2c898]
reverse link nz.ac.wgtn.swen225.lc.renderer.Camera to nz.ac.wgtn.swen225.lc.renderer.Camera.State--><path codeLine="81" d="M152.21,654.93 C155.47,694.76 157.36,741.67 154,784 C153.23,793.66 151.99,803.87 150.56,813.76 " fill="none" id="nz.ac.wgtn.swen225.lc.renderer.Camera-backto-nz.ac.wgtn.swen225.lc.renderer.Camera.State" style="stroke:#A80036;stroke-width:1.0;"/><ellipse cx="151.5709" cy="647.7192" fill="#FFFFFF" rx="8" ry="8" style="stroke:#A80036;stroke-width:1.0;"/><line style="stroke:#A80036;stroke-width:1.0;" x1="152.2719" x2="150.87" y1="655.6885" y2="639.75"/><line style="stroke:#A80036;stroke-width:1.0;" x1="143.6017" x2="159.5402" y1="648.4202" y2="647.0183"/><!--MD5=[ddeca16ffaa268ad62ce85e5a4f76da4]
reverse link javax.swing.JPanel to nz.ac.wgtn.swen225.lc.renderer.Renderer--><path codeLine="82" d="M238,110.36 C238,132 238,158.47 238,181.8 " fill="none" id="javax.swing.JPanel-backto-nz.ac.wgtn.swen225.lc.renderer.Renderer" style="stroke:#A80036;stroke-width:1.0;"/><polygon fill="none" points="231,110.26,238,90.26,245,110.26,231,110.26" style="stroke:#A80036;stroke-width:1.0;"/><!--MD5=[2934116d872e95d3e219885b2bd0358f]
link nz.ac.wgtn.swen225.lc.renderer.Renderer to nz.ac.wgtn.swen225.lc.renderer.Camera--><path codeLine="83" d="M220.32,299.37 C205.28,348.59 183.5,419.9 166.56,475.34 " fill="none" id="nz.ac.wgtn.swen225.lc.renderer.Renderer-to-nz.ac.wgtn.swen225.lc.renderer.Camera" style="stroke:#A80036;stroke-width:1.0;"/><polygon fill="#A80036" points="165.04,480.32,171.4942,472.8807,166.5004,475.538,163.8431,470.5441,165.04,480.32" style="stroke:#A80036;stroke-width:1.0;"/><text fill="#000000" font-family="sans-serif" font-size="13" lengthAdjust="spacing" textLength="43" x="207" y="350.4951">camera</text><!--MD5=[ebd71bf1d8b3440bf16712fc387509fb]
reverse link nz.ac.wgtn.swen225.lc.renderer.Renderer to nz.ac.wgtn.swen225.lc.renderer.Renderer.Images--><path codeLine="84" d="M263.2,313.59 C270.64,334.86 279.13,359.14 287.8,383.95 " fill="none" id="nz.ac.wgtn.swen225.lc.renderer.Renderer-backto-nz.ac.wgtn.swen225.lc.renderer.Renderer.Images" style="stroke:#A80036;stroke-width:1.0;"/><ellipse cx="260.8714" cy="306.9213" fill="#FFFFFF" rx="8" ry="8" style="stroke:#A80036;stroke-width:1.0;"/><line style="stroke:#A80036;stroke-width:1.0;" x1="263.5129" x2="258.23" y1="314.4727" y2="299.37"/><line style="stroke:#A80036;stroke-width:1.0;" x1="253.3201" x2="268.4228" y1="309.5628" y2="304.2799"/><text fill="#888888" font-family="sans-serif" font-size="10" lengthAdjust="spacing" textLength="184" x="213" y="963.3809">UMLDoclet 2.0.14, PlantUML 1.2021.9</text><!--MD5=[2b59bf580b5cdca45c8b4bf48d733182]
@startuml
    namespace nz.ac.wgtn.swen225.lc.renderer {

        class AudioUnit [[AudioUnit.html]] {
            +startBackgroundMusic(): void
            +startAmbience(): void
            +playSeagullSFX(): void
            +playFishSFX(): void
            +playSound(AudioClip): void
            +stopAll(): void
        }

        enum nz.ac.wgtn.swen225.lc.renderer.AudioUnit.AudioClip [[AudioUnit.AudioClip.html]] {
            {static} +BACKGROUND
            {static} +AMBIENCE
            {static} +SEAGULL1
            {static} +SEAGULL2
            {static} +SEAGULL3
            {static} +FISH_CAUGHT
            {static} +ENEMY_ATTACK
            {static} +DOOROPEN
            {static} +KEYCOLLECT
            {static} +FISH1
            {static} +FISH2
            {static} +FISH3
        }

        class Camera [[Camera.html]] {
            +Camera(double, double, double, double)
            +updateCameraPosition(Chap): void
            +getWidth(): double
            +getHeight(): double
            +getX(): double
            +getY(): double
            +setX(double): void
            +setY(double): void
        }

        enum nz.ac.wgtn.swen225.lc.renderer.Camera.State [[Camera.State.html]] {
            {static} +IDLE
            {static} +UP
            {static} +DOWN
            {static} +LEFT
            {static} +RIGHT
        }

        class Renderer [[Renderer.html]] {
            +timer: Timer
            +Renderer(Board, int, AudioUnit, App)
            +draw(Graphics): void
            +playSound(Tile): void
            +paint(Graphics): void
        }

        enum nz.ac.wgtn.swen225.lc.renderer.Renderer.Images [[Renderer.Images.html]] {
            {static} +DOOR_BLUE
            {static} +DOOR_GREEN
            {static} +DOOR_RED
            {static} +DOOR_YELLOW
            {static} +EXIT
            {static} +FREE
            {static} +INFOBOX
            {static} +KEY_BLUE
            {static} +KEY_GREEN
            {static} +KEY_RED
            {static} +KEY_YELLOW
            {static} +WALL
            {static} +BOAT
            {static} +SEAGULL_LEFT
            {static} +SEAGULL_RIGHT
            {static} +ENEMY
            {static} +FISH
            {static} +BOTTLE
            {static} +EXIT_LOCK
            {static} +INFOPANEL
            {static} +WHIRLPOOL
            {static} +DOCK
        }

        AudioUnit +- - nz.ac.wgtn.swen225.lc.renderer.AudioUnit.AudioClip
        Camera - -> nz.ac.wgtn.swen225.lc.renderer.Camera.State: state
        Camera +- - nz.ac.wgtn.swen225.lc.renderer.Camera.State
        javax.swing.JPanel <|- - Renderer
        Renderer - -> Camera: camera
        Renderer +- - nz.ac.wgtn.swen225.lc.renderer.Renderer.Images
    }

    namespace javax.swing {
        class JPanel {
        }
    }

    center footer UMLDoclet 2.0.14, PlantUML 1.2021.9
@enduml

PlantUML version 1.2021.9(Sun Jul 25 17:13:56 ICT 2021)
(APACHE source distribution)
Java Runtime: OpenJDK Runtime Environment
JVM: OpenJDK 64-Bit Server VM
Default Encoding: Cp1252
Language: en
Country: NZ
--></g></svg>