<?xml version="1.0" encoding="UTF-8" standalone="no"?><svg xmlns="http://www.w3.org/2000/svg" xmlns:xlink="http://www.w3.org/1999/xlink" contentStyleType="text/css" height="411px" preserveAspectRatio="none" style="width:272px;height:411px;background:#FFFFFF;" version="1.1" viewBox="0 0 272 411" width="272px" zoomAndPan="magnify"><defs/><g><!--class nz.ac.wgtn.swen225.lc.renderer.Renderer--><a href="Renderer.html" target="_top" title="Renderer.html" xlink:actuate="onRequest" xlink:href="Renderer.html" xlink:show="new" xlink:title="Renderer.html" xlink:type="simple"><g id="elem_nz.ac.wgtn.swen225.lc.renderer.Renderer"><rect codeLine="5" fill="#F1F1F1" height="179.4531" id="nz.ac.wgtn.swen225.lc.renderer.Renderer" rx="2.5" ry="2.5" style="stroke:#181818;stroke-width:0.5;" width="258" x="7" y="107"/><ellipse cx="57.25" cy="127.0938" fill="#ADD1B2" rx="11" ry="11" style="stroke:#181818;stroke-width:1.0;"/><path d="M60.0156,122.9688 Q60.1719,122.75 60.3594,122.6406 Q60.5469,122.5313 60.7656,122.5313 Q61.1406,122.5313 61.375,122.7969 Q61.6094,123.0469 61.6094,123.6563 L61.6094,125.1094 Q61.6094,125.7188 61.375,125.9844 Q61.1406,126.25 60.7656,126.25 Q60.4219,126.25 60.2188,126.0469 Q60.0156,125.8594 59.9063,125.3438 Q59.8594,124.9844 59.6719,124.7969 Q59.3438,124.4219 58.7344,124.2031 Q58.125,123.9844 57.5,123.9844 Q56.7344,123.9844 56.0938,124.3125 Q55.4688,124.6406 54.9688,125.3906 Q54.4844,126.1406 54.4844,127.1719 L54.4844,128.2656 Q54.4844,129.5 55.375,130.3281 Q56.2656,131.1406 57.8594,131.1406 Q58.7969,131.1406 59.4531,130.8906 Q59.8438,130.7344 60.2656,130.2969 Q60.5313,130.0313 60.6719,129.9531 Q60.8281,129.875 61.0313,129.875 Q61.3594,129.875 61.6094,130.1406 Q61.875,130.3906 61.875,130.7344 Q61.875,131.0781 61.5313,131.4844 Q61.0313,132.0625 60.2344,132.3906 Q59.1563,132.8438 57.8594,132.8438 Q56.3438,132.8438 55.1406,132.2188 Q54.1563,131.7188 53.4688,130.6563 Q52.7813,129.5781 52.7813,128.2969 L52.7813,127.1406 Q52.7813,125.8125 53.3906,124.6719 Q54.0156,123.5156 55.1094,122.9063 Q56.2031,122.2813 57.4375,122.2813 Q58.1719,122.2813 58.8125,122.4531 Q59.4688,122.6094 60.0156,122.9688 Z " fill="#000000"/><text fill="#000000" font-family="sans-serif" font-size="14" lengthAdjust="spacing" textLength="60" x="122.25" y="126.5332">Renderer</text><text fill="#000000" font-family="sans-serif" font-size="10" lengthAdjust="spacing" textLength="149" x="77.75" y="139.9902">nz.ac.wgtn.swen225.lc.renderer</text><line style="stroke:#181818;stroke-width:0.5;" x1="8" x2="264" y1="147.1875" y2="147.1875"/><ellipse cx="18" cy="161.4922" fill="none" rx="3" ry="3" style="stroke:#038048;stroke-width:1.0;"/><text fill="#000000" font-family="sans-serif" font-size="14" lengthAdjust="spacing" textLength="105" x="27" y="165.7207">camera: Camera</text><ellipse cx="18" cy="179.1016" fill="none" rx="3" ry="3" style="stroke:#038048;stroke-width:1.0;"/><text fill="#000000" font-family="sans-serif" font-size="14" lengthAdjust="spacing" textLength="75" x="27" y="183.3301">timer: Timer</text><line style="stroke:#181818;stroke-width:0.5;" x1="8" x2="264" y1="190.4063" y2="190.4063"/><ellipse cx="18" cy="204.7109" fill="#84BE84" rx="3" ry="3" style="stroke:#038048;stroke-width:1.0;"/><text fill="#000000" font-family="sans-serif" font-size="14" lengthAdjust="spacing" textLength="232" x="27" y="208.9395">Renderer(Board, int, AudioUnit, App)</text><ellipse cx="18" cy="222.3203" fill="#84BE84" rx="3" ry="3" style="stroke:#038048;stroke-width:1.0;"/><text fill="#000000" font-family="sans-serif" font-size="14" lengthAdjust="spacing" textLength="131" x="27" y="226.5488">draw(Graphics): void</text><ellipse cx="18" cy="239.9297" fill="#84BE84" rx="3" ry="3" style="stroke:#038048;stroke-width:1.0;"/><text fill="#000000" font-family="sans-serif" font-size="14" lengthAdjust="spacing" textLength="134" x="27" y="244.1582">playSound(Tile): void</text><ellipse cx="18" cy="257.5391" fill="#84BE84" rx="3" ry="3" style="stroke:#038048;stroke-width:1.0;"/><text fill="#000000" font-family="sans-serif" font-size="14" lengthAdjust="spacing" textLength="138" x="27" y="261.7676">getCamera(): Camera</text><ellipse cx="18" cy="275.1484" fill="#84BE84" rx="3" ry="3" style="stroke:#038048;stroke-width:1.0;"/><text fill="#000000" font-family="sans-serif" font-size="14" lengthAdjust="spacing" textLength="132" x="27" y="279.377">paint(Graphics): void</text></g></a><!--class javax.swing.JPanel--><g id="elem_javax.swing.JPanel"><rect codeLine="15" fill="#F1F1F1" height="40.1875" id="javax.swing.JPanel" rx="2.5" ry="2.5" style="stroke:#181818;stroke-width:0.5;" width="86" x="93" y="7"/><ellipse cx="108" cy="27.0938" fill="#ADD1B2" rx="11" ry="11" style="stroke:#181818;stroke-width:1.0;"/><path d="M110.7656,22.9688 Q110.9219,22.75 111.1094,22.6406 Q111.2969,22.5313 111.5156,22.5313 Q111.8906,22.5313 112.125,22.7969 Q112.3594,23.0469 112.3594,23.6563 L112.3594,25.1094 Q112.3594,25.7188 112.125,25.9844 Q111.8906,26.25 111.5156,26.25 Q111.1719,26.25 110.9688,26.0469 Q110.7656,25.8594 110.6563,25.3438 Q110.6094,24.9844 110.4219,24.7969 Q110.0938,24.4219 109.4844,24.2031 Q108.875,23.9844 108.25,23.9844 Q107.4844,23.9844 106.8438,24.3125 Q106.2188,24.6406 105.7188,25.3906 Q105.2344,26.1406 105.2344,27.1719 L105.2344,28.2656 Q105.2344,29.5 106.125,30.3281 Q107.0156,31.1406 108.6094,31.1406 Q109.5469,31.1406 110.2031,30.8906 Q110.5938,30.7344 111.0156,30.2969 Q111.2813,30.0313 111.4219,29.9531 Q111.5781,29.875 111.7813,29.875 Q112.1094,29.875 112.3594,30.1406 Q112.625,30.3906 112.625,30.7344 Q112.625,31.0781 112.2813,31.4844 Q111.7813,32.0625 110.9844,32.3906 Q109.9063,32.8438 108.6094,32.8438 Q107.0938,32.8438 105.8906,32.2188 Q104.9063,31.7188 104.2188,30.6563 Q103.5313,29.5781 103.5313,28.2969 L103.5313,27.1406 Q103.5313,25.8125 104.1406,24.6719 Q104.7656,23.5156 105.8594,22.9063 Q106.9531,22.2813 108.1875,22.2813 Q108.9219,22.2813 109.5625,22.4531 Q110.2188,22.6094 110.7656,22.9688 Z " fill="#000000"/><text fill="#000000" font-family="sans-serif" font-size="14" lengthAdjust="spacing" textLength="42" x="128" y="26.5332">JPanel</text><text fill="#000000" font-family="sans-serif" font-size="10" lengthAdjust="spacing" textLength="54" x="122" y="39.9902">javax.swing</text></g><!--class nz.ac.wgtn.swen225.lc.renderer.Renderer.Images--><a href="Renderer.Images.html" target="_top" title="Renderer.Images.html" xlink:actuate="onRequest" xlink:href="Renderer.Images.html" xlink:show="new" xlink:title="Renderer.Images.html" xlink:type="simple"><g id="elem_nz.ac.wgtn.swen225.lc.renderer.Renderer.Images"><rect codeLine="16" fill="#F1F1F1" height="40.1875" id="nz.ac.wgtn.swen225.lc.renderer.Renderer.Images" rx="2.5" ry="2.5" style="stroke:#181818;stroke-width:0.5;" width="181" x="45.5" y="346"/><ellipse cx="60.5" cy="366.0938" fill="#EB937F" rx="11" ry="11" style="stroke:#181818;stroke-width:1.0;"/><path d="M59.3594,366.8906 L59.3594,369.3906 L63.6875,369.3906 L63.6875,368.4688 Q63.6875,367.8594 63.9219,367.5938 Q64.1719,367.3281 64.5469,367.3281 Q64.9219,367.3281 65.1563,367.5938 Q65.3906,367.8594 65.3906,368.4688 L65.3906,371.0938 L57.3906,371.0938 Q56.7656,371.0938 56.5,370.8594 Q56.25,370.625 56.25,370.2344 Q56.25,369.8594 56.5156,369.625 Q56.7813,369.3906 57.3906,369.3906 L57.6563,369.3906 L57.6563,362.7344 L57.3906,362.7344 Q56.7656,362.7344 56.5,362.5 Q56.25,362.2656 56.25,361.875 Q56.25,361.5 56.5,361.2656 Q56.7656,361.0313 57.3906,361.0313 L65.0156,361.0313 L65.0156,363.625 Q65.0156,364.2344 64.7813,364.5 Q64.5625,364.75 64.1719,364.75 Q63.7969,364.75 63.5625,364.5 Q63.3281,364.2344 63.3281,363.625 L63.3281,362.7344 L59.3594,362.7344 L59.3594,365.1875 L60.8438,365.1875 Q60.8438,364.5313 60.9688,364.3438 Q61.2344,363.9375 61.7031,363.9375 Q62.0781,363.9375 62.3125,364.2031 Q62.5469,364.4531 62.5469,365.0625 L62.5469,367.0313 Q62.5469,367.5781 62.4219,367.7656 Q62.1563,368.1563 61.7031,368.1563 Q61.2344,368.1563 60.9688,367.75 Q60.8438,367.5625 60.8438,366.8906 L59.3594,366.8906 Z " fill="#000000"/><text fill="#000000" font-family="sans-serif" font-size="14" lengthAdjust="spacing" textLength="109" x="94.5" y="365.5332">Renderer.Images</text><text fill="#000000" font-family="sans-serif" font-size="10" lengthAdjust="spacing" textLength="149" x="74.5" y="378.9902">nz.ac.wgtn.swen225.lc.renderer</text></g></a><!--reverse link javax.swing.JPanel to nz.ac.wgtn.swen225.lc.renderer.Renderer--><g id="link_javax.swing.JPanel_nz.ac.wgtn.swen225.lc.renderer.Renderer"><path codeLine="18" d="M136,67.67 C136,79.58 136,93.14 136,106.89 " fill="none" id="javax.swing.JPanel-backto-nz.ac.wgtn.swen225.lc.renderer.Renderer" style="stroke:#181818;stroke-width:1.0;"/><polygon fill="none" points="129,67.21,136,47.21,143,67.21,129,67.21" style="stroke:#181818;stroke-width:1.0;"/></g><!--reverse link nz.ac.wgtn.swen225.lc.renderer.Renderer to nz.ac.wgtn.swen225.lc.renderer.Renderer.Images--><g id="link_nz.ac.wgtn.swen225.lc.renderer.Renderer_nz.ac.wgtn.swen225.lc.renderer.Renderer.Images"><path codeLine="19" d="M136,301.37 C136,318.41 136,334.28 136,345.91 " fill="none" id="nz.ac.wgtn.swen225.lc.renderer.Renderer-backto-nz.ac.wgtn.swen225.lc.renderer.Renderer.Images" style="stroke:#181818;stroke-width:1.0;"/><ellipse cx="136" cy="294.15" fill="#FFFFFF" rx="8" ry="8" style="stroke:#181818;stroke-width:1.0;"/><line style="stroke:#181818;stroke-width:1.0;" x1="136" x2="136" y1="302.15" y2="286.15"/><line style="stroke:#181818;stroke-width:1.0;" x1="128" x2="144" y1="294.15" y2="294.15"/></g><text fill="#888888" font-family="sans-serif" font-size="10" lengthAdjust="spacing" textLength="184" x="37" y="401.5684">UMLDoclet 2.1.0, PlantUML 1.2022.14</text><!--SRC=[jLDDQm8n4BttLmn2OHSrgBINHOH-G6bfGQgUh8TXTzIKx2GaKQjj_tkpwufIfNXfBfEycRoyp4i001nvOCp96KnfG0OjUcs1DTD5ICDSPWIK6x-6gIILkTzeJdwk0rpYgKBdeDPrSaD9-whtIfoH9Vl65TJgyKPWAbOppyAjY3kTQw5IOQl26g23lql4ZXJ6uzrKp7sk9XFuB5KKevw6IrbCuAwCUzpBi4vWM8GzkYEARZNQh06IVGDk5fdK8vR5r9XuNvrPN4KF5irSfYvEOAbbjiyQXUk1Nd0M3QMYe_IC_5PJ51-hCnXEFadzVRh3JtraKWVzVSSbVeI-IPwLpJnOYsrnoKEyo4yO9Hvpd97x5xygxaFRjaZbtlQ2ntgX-zLiddj8oN7k0wgVprj9hKmWzc7xLEiYZ5wUxtMgmaVgYBPeDQ2la7r0uN99radDKVm3]--></g></svg>