<?xml version="1.0" encoding="UTF-8" standalone="no"?><svg xmlns="http://www.w3.org/2000/svg" xmlns:xlink="http://www.w3.org/1999/xlink" contentScriptType="application/ecmascript" contentStyleType="text/css" height="392px" preserveAspectRatio="none" style="width:224px;height:392px;background:#FFFFFF;" version="1.1" viewBox="0 0 224 392" width="224px" zoomAndPan="magnify"><defs><filter height="300%" id="fs2069cve5wir" width="300%" x="-1" y="-1"><feGaussianBlur result="blurOut" stdDeviation="2.0"/><feColorMatrix in="blurOut" result="blurOut2" type="matrix" values="0 0 0 0 0 0 0 0 0 0 0 0 0 0 0 0 0 0 .4 0"/><feOffset dx="4.0" dy="4.0" in="blurOut2" result="blurOut3"/><feBlend in="SourceGraphic" in2="blurOut3" mode="normal"/></filter></defs><g><!--MD5=[0ebfb97f3cd9940840ca0fa6e6330c8c]
class nz.ac.wgtn.swen225.lc.renderer.Renderer--><a href="Renderer.html" target="_top" title="Renderer.html" xlink:actuate="onRequest" xlink:href="Renderer.html" xlink:show="new" xlink:title="Renderer.html" xlink:type="simple"><rect codeLine="5" fill="#FEFECE" filter="url(#fs2069cve5wir)" height="153.0391" id="nz.ac.wgtn.swen225.lc.renderer.Renderer" style="stroke:#A80036;stroke-width:1.5;" width="203" x="7" y="107"/><ellipse cx="31.9" cy="127.0938" fill="#ADD1B2" rx="11" ry="11" style="stroke:#A80036;stroke-width:1.0;"/><path d="M34.6656,122.9688 Q34.8219,122.75 35.0094,122.6406 Q35.1969,122.5313 35.4156,122.5313 Q35.7906,122.5313 36.025,122.7969 Q36.2594,123.0469 36.2594,123.6563 L36.2594,125.1094 Q36.2594,125.7188 36.025,125.9844 Q35.7906,126.25 35.4156,126.25 Q35.0719,126.25 34.8688,126.0469 Q34.6656,125.8594 34.5563,125.3438 Q34.5094,124.9844 34.3219,124.7969 Q33.9938,124.4219 33.3844,124.2031 Q32.775,123.9844 32.15,123.9844 Q31.3844,123.9844 30.7438,124.3125 Q30.1188,124.6406 29.6188,125.3906 Q29.1344,126.1406 29.1344,127.1719 L29.1344,128.2656 Q29.1344,129.5 30.025,130.3281 Q30.9156,131.1406 32.5094,131.1406 Q33.4469,131.1406 34.1031,130.8906 Q34.4938,130.7344 34.9156,130.2969 Q35.1813,130.0313 35.3219,129.9531 Q35.4781,129.875 35.6813,129.875 Q36.0094,129.875 36.2594,130.1406 Q36.525,130.3906 36.525,130.7344 Q36.525,131.0781 36.1813,131.4844 Q35.6813,132.0625 34.8844,132.3906 Q33.8063,132.8438 32.5094,132.8438 Q30.9938,132.8438 29.7906,132.2188 Q28.8063,131.7188 28.1188,130.6563 Q27.4313,129.5781 27.4313,128.2969 L27.4313,127.1406 Q27.4313,125.8125 28.0406,124.6719 Q28.6656,123.5156 29.7594,122.9063 Q30.8531,122.2813 32.0875,122.2813 Q32.8219,122.2813 33.4625,122.4531 Q34.1188,122.6094 34.6656,122.9688 Z " fill="#000000"/><text fill="#000000" font-family="sans-serif" font-size="14" lengthAdjust="spacing" textLength="60" x="92.6" y="126.5332">Renderer</text><text fill="#000000" font-family="sans-serif" font-size="10" lengthAdjust="spacing" textLength="149" x="48.1" y="139.9902">nz.ac.wgtn.swen225.lc.renderer</text><line style="stroke:#A80036;stroke-width:1.5;" x1="8" x2="209" y1="147.1875" y2="147.1875"/><ellipse cx="18" cy="158.1875" rx="3" ry="3" style="stroke:#038048;stroke-width:1.0;fill:none;"/><text fill="#000000" font-family="sans-serif" font-size="11" lengthAdjust="spacing" textLength="79" x="27" y="162.6064">camera: Camera</text><ellipse cx="18" cy="172.0234" rx="3" ry="3" style="stroke:#038048;stroke-width:1.0;fill:none;"/><text fill="#000000" font-family="sans-serif" font-size="11" lengthAdjust="spacing" textLength="55" x="27" y="176.4424">timer: Timer</text><line style="stroke:#A80036;stroke-width:1.5;" x1="8" x2="209" y1="182.8594" y2="182.8594"/><ellipse cx="18" cy="193.8594" fill="#84BE84" rx="3" ry="3" style="stroke:#038048;stroke-width:1.0;"/><text fill="#000000" font-family="sans-serif" font-size="11" lengthAdjust="spacing" textLength="177" x="27" y="198.2783">Renderer(Board, int, AudioUnit, App)</text><ellipse cx="18" cy="207.6953" fill="#84BE84" rx="3" ry="3" style="stroke:#038048;stroke-width:1.0;"/><text fill="#000000" font-family="sans-serif" font-size="11" lengthAdjust="spacing" textLength="104" x="27" y="212.1143">draw(Graphics): void</text><ellipse cx="18" cy="221.5313" fill="#84BE84" rx="3" ry="3" style="stroke:#038048;stroke-width:1.0;"/><text fill="#000000" font-family="sans-serif" font-size="11" lengthAdjust="spacing" textLength="101" x="27" y="225.9502">playSound(Tile): void</text><ellipse cx="18" cy="235.3672" fill="#84BE84" rx="3" ry="3" style="stroke:#038048;stroke-width:1.0;"/><text fill="#000000" font-family="sans-serif" font-size="11" lengthAdjust="spacing" textLength="103" x="27" y="239.7861">getCamera(): Camera</text><ellipse cx="18" cy="249.2031" fill="#84BE84" rx="3" ry="3" style="stroke:#038048;stroke-width:1.0;"/><text fill="#000000" font-family="sans-serif" font-size="11" lengthAdjust="spacing" textLength="101" x="27" y="253.6221">paint(Graphics): void</text></a><!--MD5=[56a185cb33bdc7c23303e5865f20a19b]
class javax.swing.JPanel--><rect codeLine="15" fill="#FEFECE" filter="url(#fs2069cve5wir)" height="40.1875" id="javax.swing.JPanel" style="stroke:#A80036;stroke-width:1.5;" width="86" x="65.5" y="7"/><ellipse cx="80.5" cy="27.0938" fill="#ADD1B2" rx="11" ry="11" style="stroke:#A80036;stroke-width:1.0;"/><path d="M83.2656,22.9688 Q83.4219,22.75 83.6094,22.6406 Q83.7969,22.5313 84.0156,22.5313 Q84.3906,22.5313 84.625,22.7969 Q84.8594,23.0469 84.8594,23.6563 L84.8594,25.1094 Q84.8594,25.7188 84.625,25.9844 Q84.3906,26.25 84.0156,26.25 Q83.6719,26.25 83.4688,26.0469 Q83.2656,25.8594 83.1563,25.3438 Q83.1094,24.9844 82.9219,24.7969 Q82.5938,24.4219 81.9844,24.2031 Q81.375,23.9844 80.75,23.9844 Q79.9844,23.9844 79.3438,24.3125 Q78.7188,24.6406 78.2188,25.3906 Q77.7344,26.1406 77.7344,27.1719 L77.7344,28.2656 Q77.7344,29.5 78.625,30.3281 Q79.5156,31.1406 81.1094,31.1406 Q82.0469,31.1406 82.7031,30.8906 Q83.0938,30.7344 83.5156,30.2969 Q83.7813,30.0313 83.9219,29.9531 Q84.0781,29.875 84.2813,29.875 Q84.6094,29.875 84.8594,30.1406 Q85.125,30.3906 85.125,30.7344 Q85.125,31.0781 84.7813,31.4844 Q84.2813,32.0625 83.4844,32.3906 Q82.4063,32.8438 81.1094,32.8438 Q79.5938,32.8438 78.3906,32.2188 Q77.4063,31.7188 76.7188,30.6563 Q76.0313,29.5781 76.0313,28.2969 L76.0313,27.1406 Q76.0313,25.8125 76.6406,24.6719 Q77.2656,23.5156 78.3594,22.9063 Q79.4531,22.2813 80.6875,22.2813 Q81.4219,22.2813 82.0625,22.4531 Q82.7188,22.6094 83.2656,22.9688 Z " fill="#000000"/><text fill="#000000" font-family="sans-serif" font-size="14" lengthAdjust="spacing" textLength="42" x="100.5" y="26.5332">JPanel</text><text fill="#000000" font-family="sans-serif" font-size="10" lengthAdjust="spacing" textLength="54" x="94.5" y="39.9902">javax.swing</text><!--MD5=[0a3c421ae1e10fcff188cf30253bf464]
class nz.ac.wgtn.swen225.lc.renderer.Renderer.Images--><a href="Renderer.Images.html" target="_top" title="Renderer.Images.html" xlink:actuate="onRequest" xlink:href="Renderer.Images.html" xlink:show="new" xlink:title="Renderer.Images.html" xlink:type="simple"><rect codeLine="16" fill="#FEFECE" filter="url(#fs2069cve5wir)" height="40.1875" id="nz.ac.wgtn.swen225.lc.renderer.Renderer.Images" style="stroke:#A80036;stroke-width:1.5;" width="181" x="18" y="320"/><ellipse cx="33" cy="340.0938" fill="#EB937F" rx="11" ry="11" style="stroke:#A80036;stroke-width:1.0;"/><path d="M31.8594,340.8906 L31.8594,343.3906 L36.1875,343.3906 L36.1875,342.4688 Q36.1875,341.8594 36.4219,341.5938 Q36.6719,341.3281 37.0469,341.3281 Q37.4219,341.3281 37.6563,341.5938 Q37.8906,341.8594 37.8906,342.4688 L37.8906,345.0938 L29.8906,345.0938 Q29.2656,345.0938 29,344.8594 Q28.75,344.625 28.75,344.2344 Q28.75,343.8594 29.0156,343.625 Q29.2813,343.3906 29.8906,343.3906 L30.1563,343.3906 L30.1563,336.7344 L29.8906,336.7344 Q29.2656,336.7344 29,336.5 Q28.75,336.2656 28.75,335.875 Q28.75,335.5 29,335.2656 Q29.2656,335.0313 29.8906,335.0313 L37.5156,335.0313 L37.5156,337.625 Q37.5156,338.2344 37.2813,338.5 Q37.0625,338.75 36.6719,338.75 Q36.2969,338.75 36.0625,338.5 Q35.8281,338.2344 35.8281,337.625 L35.8281,336.7344 L31.8594,336.7344 L31.8594,339.1875 L33.3438,339.1875 Q33.3438,338.5313 33.4688,338.3438 Q33.7344,337.9375 34.2031,337.9375 Q34.5781,337.9375 34.8125,338.2031 Q35.0469,338.4531 35.0469,339.0625 L35.0469,341.0313 Q35.0469,341.5781 34.9219,341.7656 Q34.6563,342.1563 34.2031,342.1563 Q33.7344,342.1563 33.4688,341.75 Q33.3438,341.5625 33.3438,340.8906 L31.8594,340.8906 Z " fill="#000000"/><text fill="#000000" font-family="sans-serif" font-size="14" lengthAdjust="spacing" textLength="109" x="67" y="339.5332">Renderer.Images</text><text fill="#000000" font-family="sans-serif" font-size="10" lengthAdjust="spacing" textLength="149" x="47" y="352.9902">nz.ac.wgtn.swen225.lc.renderer</text></a><!--MD5=[ddeca16ffaa268ad62ce85e5a4f76da4]
reverse link javax.swing.JPanel to nz.ac.wgtn.swen225.lc.renderer.Renderer--><path codeLine="18" d="M108.5,67.42 C108.5,79.49 108.5,93.2 108.5,106.84 " fill="none" id="javax.swing.JPanel-backto-nz.ac.wgtn.swen225.lc.renderer.Renderer" style="stroke:#A80036;stroke-width:1.0;"/><polygon fill="none" points="101.5,67.26,108.5,47.26,115.5,67.26,101.5,67.26" style="stroke:#A80036;stroke-width:1.0;"/><!--MD5=[ebd71bf1d8b3440bf16712fc387509fb]
reverse link nz.ac.wgtn.swen225.lc.renderer.Renderer to nz.ac.wgtn.swen225.lc.renderer.Renderer.Images--><path codeLine="19" d="M108.5,275.63 C108.5,292.41 108.5,308.3 108.5,319.96 " fill="none" id="nz.ac.wgtn.swen225.lc.renderer.Renderer-backto-nz.ac.wgtn.swen225.lc.renderer.Renderer.Images" style="stroke:#A80036;stroke-width:1.0;"/><ellipse cx="108.5" cy="268.39" fill="#FFFFFF" rx="8" ry="8" style="stroke:#A80036;stroke-width:1.0;"/><line style="stroke:#A80036;stroke-width:1.0;" x1="108.5" x2="108.5" y1="276.39" y2="260.39"/><line style="stroke:#A80036;stroke-width:1.0;" x1="100.5" x2="116.5" y1="268.39" y2="268.39"/><text fill="#888888" font-family="sans-serif" font-size="10" lengthAdjust="spacing" textLength="184" x="13.5" y="383.5684">UMLDoclet 2.0.14, PlantUML 1.2021.9</text><!--MD5=[a6c0755358fd1587466be82678afb7db]
@startuml
    set namespaceSeparator none
    hide empty fields
    hide empty methods

    class "<size:14>Renderer\n<size:10>nz.ac.wgtn.swen225.lc.renderer" as nz.ac.wgtn.swen225.lc.renderer.Renderer [[Renderer.html]] {
        +camera: Camera
        +timer: Timer
        +Renderer(Board, int, AudioUnit, App)
        +draw(Graphics): void
        +playSound(Tile): void
        +getCamera(): Camera
        +paint(Graphics): void
    }

    class "<size:14>JPanel\n<size:10>javax.swing" as javax.swing.JPanel
    enum "<size:14>Renderer.Images\n<size:10>nz.ac.wgtn.swen225.lc.renderer" as nz.ac.wgtn.swen225.lc.renderer.Renderer.Images [[Renderer.Images.html]]

    javax.swing.JPanel <|- - nz.ac.wgtn.swen225.lc.renderer.Renderer
    nz.ac.wgtn.swen225.lc.renderer.Renderer +- - nz.ac.wgtn.swen225.lc.renderer.Renderer.Images

    center footer UMLDoclet 2.0.14, PlantUML 1.2021.9
@enduml

PlantUML version 1.2021.9(Sun Jul 25 17:13:56 ICT 2021)
(APACHE source distribution)
Java Runtime: OpenJDK Runtime Environment
JVM: OpenJDK 64-Bit Server VM
Default Encoding: Cp1252
Language: en
Country: NZ
--></g></svg>