<?xml version="1.0" encoding="UTF-8" standalone="no"?><svg xmlns="http://www.w3.org/2000/svg" xmlns:xlink="http://www.w3.org/1999/xlink" contentScriptType="application/ecmascript" contentStyleType="text/css" height="248px" preserveAspectRatio="none" style="width:217px;height:248px;background:#FFFFFF;" version="1.1" viewBox="0 0 217 248" width="217px" zoomAndPan="magnify"><defs><filter height="300%" id="fu6j7hwhfdi6r" width="300%" x="-1" y="-1"><feGaussianBlur result="blurOut" stdDeviation="2.0"/><feColorMatrix in="blurOut" result="blurOut2" type="matrix" values="0 0 0 0 0 0 0 0 0 0 0 0 0 0 0 0 0 0 .4 0"/><feOffset dx="4.0" dy="4.0" in="blurOut2" result="blurOut3"/><feBlend in="SourceGraphic" in2="blurOut3" mode="normal"/></filter></defs><g><!--MD5=[8c3c4742037a1c2996560502d672c845]
class nz.ac.wgtn.swen225.lc.domain.Board--><a href="Board.html" target="_top" title="Board.html" xlink:actuate="onRequest" xlink:href="Board.html" xlink:show="new" xlink:title="Board.html" xlink:type="simple"><rect codeLine="5" fill="#FEFECE" filter="url(#fu6j7hwhfdi6r)" height="215.4887" id="nz.ac.wgtn.swen225.lc.domain.Board" style="stroke:#A80036;stroke-width:1.5;" width="196" x="7" y="7"/><ellipse cx="29.2" cy="28.344" fill="#ADD1B2" rx="11" ry="11" style="stroke:#A80036;stroke-width:1.0;"/><path d="M28.6688,35.2658 Q26.9188,35.2658 25.7781,34.5315 Q24.6531,33.7815 24.0906,32.4377 Q23.5438,31.0783 23.5438,29.2815 Q23.5438,27.2502 24.2,25.7971 Q24.8563,24.344 26.1375,23.5627 Q27.4188,22.7815 29.2938,22.7815 Q30.1844,22.7815 30.8563,22.969 Q31.5281,23.1408 32.2156,23.4846 L31.4031,25.5002 Q30.7781,25.1877 30.2313,25.0627 Q29.7,24.9377 29.2156,24.9377 Q28.0438,24.9377 27.3406,25.469 Q26.6375,26.0002 26.3406,26.9533 Q26.0438,27.9065 26.0438,29.1721 Q26.0438,31.1877 26.7625,32.1565 Q27.4813,33.1096 29.075,33.1096 Q29.6688,33.1096 30.2938,32.9533 Q30.9188,32.7971 31.7469,32.4221 L31.7469,34.6408 Q31.0125,34.9533 30.2156,35.1096 Q29.4344,35.2658 28.6688,35.2658 Z " fill="#000000"/><text fill="#000000" font-family="sans-serif" font-size="14" lengthAdjust="spacing" textLength="40" x="98.8" y="26.9659">Board</text><text fill="#000000" font-family="sans-serif" font-size="10" lengthAdjust="spacing" textLength="148" x="44.8" y="41.7579">nz.ac.wgtn.swen225.lc.domain</text><line style="stroke:#A80036;stroke-width:1.5;" x1="8" x2="202" y1="49.6879" y2="49.6879"/><ellipse cx="18" cy="60.6879" fill="#84BE84" rx="3" ry="3" style="stroke:#038048;stroke-width:1.0;"/><text fill="#000000" font-family="sans-serif" font-size="11" lengthAdjust="spacing" textLength="115" x="27" y="65.4468">Board(File, AudioUnit)</text><polygon fill="#FFFF44" points="18,70.6698,22,74.6698,18,78.6698,14,74.6698" style="stroke:#B38D22;stroke-width:1.0;"/><text fill="#000000" font-family="sans-serif" font-size="11" lengthAdjust="spacing" textLength="97" x="27" y="80.4287">resetTile(Tile): Free</text><ellipse cx="18" cy="90.6517" fill="#84BE84" rx="3" ry="3" style="stroke:#038048;stroke-width:1.0;"/><text fill="#000000" font-family="sans-serif" font-size="11" lengthAdjust="spacing" textLength="170" x="27" y="95.4106">getAutoActors(): List&lt;AutoActor&gt;</text><ellipse cx="18" cy="105.6336" fill="#84BE84" rx="3" ry="3" style="stroke:#038048;stroke-width:1.0;"/><text fill="#000000" font-family="sans-serif" font-size="11" lengthAdjust="spacing" textLength="161" x="27" y="110.3925">addAutoActor(AutoActor): void</text><ellipse cx="18" cy="120.6155" fill="#84BE84" rx="3" ry="3" style="stroke:#038048;stroke-width:1.0;"/><text fill="#000000" font-family="sans-serif" font-size="11" lengthAdjust="spacing" textLength="99" x="27" y="125.3744">getTile(int, int): Tile</text><ellipse cx="18" cy="135.5973" fill="#84BE84" rx="3" ry="3" style="stroke:#038048;stroke-width:1.0;"/><text fill="#000000" font-family="sans-serif" font-size="11" lengthAdjust="spacing" textLength="78" x="27" y="140.3563">getTiles(): Tile[]</text><ellipse cx="18" cy="150.5792" fill="#84BE84" rx="3" ry="3" style="stroke:#038048;stroke-width:1.0;"/><text fill="#000000" font-family="sans-serif" font-size="11" lengthAdjust="spacing" textLength="83" x="27" y="155.3381">getChap(): Chap</text><ellipse cx="18" cy="165.5611" fill="#84BE84" rx="3" ry="3" style="stroke:#038048;stroke-width:1.0;"/><text fill="#000000" font-family="sans-serif" font-size="11" lengthAdjust="spacing" textLength="70" x="27" y="170.32">getLevel(): int</text><ellipse cx="18" cy="180.543" fill="#84BE84" rx="3" ry="3" style="stroke:#038048;stroke-width:1.0;"/><text fill="#000000" font-family="sans-serif" font-size="11" lengthAdjust="spacing" textLength="68" x="27" y="185.3019">getTime(): int</text><ellipse cx="18" cy="195.5249" fill="#84BE84" rx="3" ry="3" style="stroke:#038048;stroke-width:1.0;"/><text fill="#000000" font-family="sans-serif" font-size="11" lengthAdjust="spacing" textLength="153" x="27" y="200.2838">getBoardTreasureCount(): int</text><ellipse cx="18" cy="210.5068" fill="#84BE84" rx="3" ry="3" style="stroke:#038048;stroke-width:1.0;"/><text fill="#000000" font-family="sans-serif" font-size="11" lengthAdjust="spacing" textLength="135" x="27" y="215.2657">getAudioUnit(): AudioUnit</text></a><text fill="#888888" font-family="sans-serif" font-size="10" lengthAdjust="spacing" textLength="182" x="14" y="240.1787">UMLDoclet 2.0.14, PlantUML 1.2021.9</text><!--MD5=[48479b878c00da94235b702f65ced605]
@startuml
    set namespaceSeparator none
    hide empty fields
    hide empty methods

    class "<size:14>Board\n<size:10>nz.ac.wgtn.swen225.lc.domain" as nz.ac.wgtn.swen225.lc.domain.Board [[Board.html]] {
        +Board(File, AudioUnit)
        #resetTile(Tile): Free
        +getAutoActors(): List<AutoActor>
        +addAutoActor(AutoActor): void
        +getTile(int, int): Tile
        +getTiles(): Tile[]
        +getChap(): Chap
        +getLevel(): int
        +getTime(): int
        +getBoardTreasureCount(): int
        +getAudioUnit(): AudioUnit
    }

    center footer UMLDoclet 2.0.14, PlantUML 1.2021.9
@enduml

PlantUML version 1.2021.9(Sun Jul 25 22:13:56 NZST 2021)
(APACHE source distribution)
Java Runtime: OpenJDK Runtime Environment
JVM: OpenJDK 64-Bit Server VM
Default Encoding: UTF-8
Language: en
Country: NZ
--></g></svg>