<?xml version="1.0" encoding="UTF-8" standalone="no"?><svg xmlns="http://www.w3.org/2000/svg" xmlns:xlink="http://www.w3.org/1999/xlink" contentScriptType="application/ecmascript" contentStyleType="text/css" height="432px" preserveAspectRatio="none" style="width:416px;height:432px;background:#FFFFFF;" version="1.1" viewBox="0 0 416 432" width="416px" zoomAndPan="magnify"><defs><filter height="300%" id="fgnxpzf4dcjki" width="300%" x="-1" y="-1"><feGaussianBlur result="blurOut" stdDeviation="2.0"/><feColorMatrix in="blurOut" result="blurOut2" type="matrix" values="0 0 0 0 0 0 0 0 0 0 0 0 0 0 0 0 0 0 .4 0"/><feOffset dx="4.0" dy="4.0" in="blurOut2" result="blurOut3"/><feBlend in="SourceGraphic" in2="blurOut3" mode="normal"/></filter></defs><g><!--MD5=[a432de8e576bd65c39c91dcbb783f2e6]
class nz.ac.wgtn.swen225.lc.domain.Chap--><a href="Chap.html" target="_top" title="Chap.html" xlink:actuate="onRequest" xlink:href="Chap.html" xlink:show="new" xlink:title="Chap.html" xlink:type="simple"><rect codeLine="5" fill="#FEFECE" filter="url(#fgnxpzf4dcjki)" height="290.3981" id="nz.ac.wgtn.swen225.lc.domain.Chap" style="stroke:#A80036;stroke-width:1.5;" width="180" x="114" y="7"/><ellipse cx="129" cy="28.344" fill="#ADD1B2" rx="11" ry="11" style="stroke:#A80036;stroke-width:1.0;"/><path d="M128.4688,35.2658 Q126.7188,35.2658 125.5781,34.5315 Q124.4531,33.7815 123.8906,32.4377 Q123.3438,31.0783 123.3438,29.2815 Q123.3438,27.2502 124,25.7971 Q124.6563,24.344 125.9375,23.5627 Q127.2188,22.7815 129.0938,22.7815 Q129.9844,22.7815 130.6563,22.969 Q131.3281,23.1408 132.0156,23.4846 L131.2031,25.5002 Q130.5781,25.1877 130.0313,25.0627 Q129.5,24.9377 129.0156,24.9377 Q127.8438,24.9377 127.1406,25.469 Q126.4375,26.0002 126.1406,26.9533 Q125.8438,27.9065 125.8438,29.1721 Q125.8438,31.1877 126.5625,32.1565 Q127.2813,33.1096 128.875,33.1096 Q129.4688,33.1096 130.0938,32.9533 Q130.7188,32.7971 131.5469,32.4221 L131.5469,34.6408 Q130.8125,34.9533 130.0156,35.1096 Q129.2344,35.2658 128.4688,35.2658 Z " fill="#000000"/><text fill="#000000" font-family="sans-serif" font-size="14" lengthAdjust="spacing" textLength="35" x="199.5" y="26.9659">Chap</text><text fill="#000000" font-family="sans-serif" font-size="10" lengthAdjust="spacing" textLength="148" x="143" y="41.7579">nz.ac.wgtn.swen225.lc.domain</text><line style="stroke:#A80036;stroke-width:1.5;" x1="115" x2="293" y1="49.6879" y2="49.6879"/><ellipse cx="125" cy="60.6879" fill="#84BE84" rx="3" ry="3" style="stroke:#038048;stroke-width:1.0;"/><text fill="#000000" font-family="sans-serif" font-size="11" lengthAdjust="spacing" textLength="114" x="134" y="65.4468">Chap(Board, Free, int)</text><ellipse cx="125" cy="75.6698" fill="#84BE84" rx="3" ry="3" style="stroke:#038048;stroke-width:1.0;"/><text fill="#000000" font-family="sans-serif" font-size="11" lengthAdjust="spacing" textLength="107" x="134" y="80.4287">move(Direction): Tile</text><ellipse cx="125" cy="90.6517" fill="#84BE84" rx="3" ry="3" style="stroke:#038048;stroke-width:1.0;"/><text fill="#000000" font-family="sans-serif" font-size="11" lengthAdjust="spacing" textLength="123" x="134" y="95.4106">addItem(Item): boolean</text><ellipse cx="125" cy="105.6336" fill="#84BE84" rx="3" ry="3" style="stroke:#038048;stroke-width:1.0;"/><text fill="#000000" font-family="sans-serif" font-size="11" lengthAdjust="spacing" textLength="143" x="134" y="110.3925">removeItem(Item): boolean</text><ellipse cx="125" cy="120.6155" fill="#84BE84" rx="3" ry="3" style="stroke:#038048;stroke-width:1.0;"/><text fill="#000000" font-family="sans-serif" font-size="11" lengthAdjust="spacing" textLength="121" x="134" y="125.3744">hasItem(Item): boolean</text><ellipse cx="125" cy="135.5973" fill="#84BE84" rx="3" ry="3" style="stroke:#038048;stroke-width:1.0;"/><text fill="#000000" font-family="sans-serif" font-size="11" lengthAdjust="spacing" textLength="128" x="134" y="140.3563">canUnlockExit(): boolean</text><ellipse cx="125" cy="150.5792" fill="#84BE84" rx="3" ry="3" style="stroke:#038048;stroke-width:1.0;"/><text fill="#000000" font-family="sans-serif" font-size="11" lengthAdjust="spacing" textLength="102" x="134" y="155.3381">setState(State): void</text><ellipse cx="125" cy="165.5611" fill="#84BE84" rx="3" ry="3" style="stroke:#038048;stroke-width:1.0;"/><text fill="#000000" font-family="sans-serif" font-size="11" lengthAdjust="spacing" textLength="81" x="134" y="170.32">getState(): State</text><ellipse cx="125" cy="180.543" fill="#84BE84" rx="3" ry="3" style="stroke:#038048;stroke-width:1.0;"/><text fill="#000000" font-family="sans-serif" font-size="11" lengthAdjust="spacing" textLength="101" x="134" y="185.3019">addTreasure(): void</text><ellipse cx="125" cy="195.5249" fill="#84BE84" rx="3" ry="3" style="stroke:#038048;stroke-width:1.0;"/><text fill="#000000" font-family="sans-serif" font-size="11" lengthAdjust="spacing" textLength="70" x="134" y="200.2838">getTile(): Free</text><ellipse cx="125" cy="210.5068" fill="#84BE84" rx="3" ry="3" style="stroke:#038048;stroke-width:1.0;"/><text fill="#000000" font-family="sans-serif" font-size="11" lengthAdjust="spacing" textLength="49" x="134" y="215.2657">getX(): int</text><ellipse cx="125" cy="225.4887" fill="#84BE84" rx="3" ry="3" style="stroke:#038048;stroke-width:1.0;"/><text fill="#000000" font-family="sans-serif" font-size="11" lengthAdjust="spacing" textLength="49" x="134" y="230.2476">getY(): int</text><ellipse cx="125" cy="240.4706" fill="#84BE84" rx="3" ry="3" style="stroke:#038048;stroke-width:1.0;"/><text fill="#000000" font-family="sans-serif" font-size="11" lengthAdjust="spacing" textLength="113" x="134" y="245.2295">getInventory(): Item[]</text><ellipse cx="125" cy="255.4524" fill="#84BE84" rx="3" ry="3" style="stroke:#038048;stroke-width:1.0;"/><text fill="#000000" font-family="sans-serif" font-size="11" lengthAdjust="spacing" textLength="134" x="134" y="260.2114">setInventory(Item[]): void</text><ellipse cx="125" cy="270.4343" fill="#84BE84" rx="3" ry="3" style="stroke:#038048;stroke-width:1.0;"/><text fill="#000000" font-family="sans-serif" font-size="11" lengthAdjust="spacing" textLength="154" x="134" y="275.1932">getPlayerTreasureCount(): int</text><ellipse cx="125" cy="285.4162" fill="#84BE84" rx="3" ry="3" style="stroke:#038048;stroke-width:1.0;"/><text fill="#000000" font-family="sans-serif" font-size="11" lengthAdjust="spacing" textLength="93" x="134" y="290.1751">getBoard(): Board</text></a><!--MD5=[88e60c564a3b2c176a47d4f878f8db1c]
class nz.ac.wgtn.swen225.lc.domain.Chap.State--><a href="Chap.State.html" target="_top" title="Chap.State.html" xlink:actuate="onRequest" xlink:href="Chap.State.html" xlink:show="new" xlink:title="Chap.State.html" xlink:type="simple"><rect codeLine="23" fill="#FEFECE" filter="url(#fgnxpzf4dcjki)" height="42.6879" id="nz.ac.wgtn.swen225.lc.domain.Chap.State" style="stroke:#A80036;stroke-width:1.5;" width="180" x="7" y="357.4"/><ellipse cx="22" cy="378.744" fill="#EB937F" rx="11" ry="11" style="stroke:#A80036;stroke-width:1.0;"/><path d="M18.3594,385.244 L18.3594,373.1033 L26.0156,373.1033 L26.0156,375.2283 L20.7344,375.2283 L20.7344,377.8846 L25.75,377.8846 L25.75,380.0096 L20.7344,380.0096 L20.7344,383.119 L26.0156,383.119 L26.0156,385.244 L18.3594,385.244 Z " fill="#000000"/><text fill="#000000" font-family="sans-serif" font-size="14" lengthAdjust="spacing" textLength="73" x="73.5" y="377.3659">Chap.State</text><text fill="#000000" font-family="sans-serif" font-size="10" lengthAdjust="spacing" textLength="148" x="36" y="392.1579">nz.ac.wgtn.swen225.lc.domain</text></a><!--MD5=[2705da881d125b32fc41d8eb57393c2c]
class nz.ac.wgtn.swen225.lc.domain.Chap.Direction--><a href="Chap.Direction.html" target="_top" title="Chap.Direction.html" xlink:actuate="onRequest" xlink:href="Chap.Direction.html" xlink:show="new" xlink:title="Chap.Direction.html" xlink:type="simple"><rect codeLine="24" fill="#FEFECE" filter="url(#fgnxpzf4dcjki)" height="42.6879" id="nz.ac.wgtn.swen225.lc.domain.Chap.Direction" style="stroke:#A80036;stroke-width:1.5;" width="180" x="222" y="357.4"/><ellipse cx="237" cy="378.744" fill="#EB937F" rx="11" ry="11" style="stroke:#A80036;stroke-width:1.0;"/><path d="M233.3594,385.244 L233.3594,373.1033 L241.0156,373.1033 L241.0156,375.2283 L235.7344,375.2283 L235.7344,377.8846 L240.75,377.8846 L240.75,380.0096 L235.7344,380.0096 L235.7344,383.119 L241.0156,383.119 L241.0156,385.244 L233.3594,385.244 Z " fill="#000000"/><text fill="#000000" font-family="sans-serif" font-size="14" lengthAdjust="spacing" textLength="100" x="275" y="377.3659">Chap.Direction</text><text fill="#000000" font-family="sans-serif" font-size="10" lengthAdjust="spacing" textLength="148" x="251" y="392.1579">nz.ac.wgtn.swen225.lc.domain</text></a><!--MD5=[cf5c7bbb261f1216b4d1ddcb1cd1453f]
reverse link nz.ac.wgtn.swen225.lc.domain.Chap to nz.ac.wgtn.swen225.lc.domain.Chap.State--><path codeLine="26" d="M128.42,311.82 C119.99,329.5 112.45,345.32 106.87,357.03 " fill="none" id="nz.ac.wgtn.swen225.lc.domain.Chap-backto-nz.ac.wgtn.swen225.lc.domain.Chap.State" style="stroke:#A80036;stroke-width:1.0;"/><ellipse cx="131.737" cy="305.8512" fill="#FFFFFF" rx="8" ry="8" style="stroke:#A80036;stroke-width:1.0;"/><line style="stroke:#A80036;stroke-width:1.0;" x1="128.294" x2="135.18" y1="313.0724" y2="298.63"/><line style="stroke:#A80036;stroke-width:1.0;" x1="124.5158" x2="138.9582" y1="302.4082" y2="309.2942"/><!--MD5=[91655e24f052e3ab3887863afb67f7ed]
reverse link nz.ac.wgtn.swen225.lc.domain.Chap to nz.ac.wgtn.swen225.lc.domain.Chap.Direction--><path codeLine="27" d="M280.29,311.82 C288.79,329.5 296.4,345.32 302.04,357.03 " fill="none" id="nz.ac.wgtn.swen225.lc.domain.Chap-backto-nz.ac.wgtn.swen225.lc.domain.Chap.Direction" style="stroke:#A80036;stroke-width:1.0;"/><ellipse cx="276.9437" cy="305.8365" fill="#FFFFFF" rx="8" ry="8" style="stroke:#A80036;stroke-width:1.0;"/><line style="stroke:#A80036;stroke-width:1.0;" x1="280.4175" x2="273.47" y1="313.0429" y2="298.63"/><line style="stroke:#A80036;stroke-width:1.0;" x1="269.7373" x2="284.1502" y1="309.3102" y2="302.3627"/><text fill="#888888" font-family="sans-serif" font-size="10" lengthAdjust="spacing" textLength="182" x="110.5" y="423.7779">UMLDoclet 2.0.14, PlantUML 1.2021.9</text><!--MD5=[391268eea566dfcaac1647a72d691dbf]
@startuml
    set namespaceSeparator none
    hide empty fields
    hide empty methods

    class "<size:14>Chap\n<size:10>nz.ac.wgtn.swen225.lc.domain" as nz.ac.wgtn.swen225.lc.domain.Chap [[Chap.html]] {
        +Chap(Board, Free, int)
        +move(Direction): Tile
        +addItem(Item): boolean
        +removeItem(Item): boolean
        +hasItem(Item): boolean
        +canUnlockExit(): boolean
        +setState(State): void
        +getState(): State
        +addTreasure(): void
        +getTile(): Free
        +getX(): int
        +getY(): int
        +getInventory(): Item[]
        +setInventory(Item[]): void
        +getPlayerTreasureCount(): int
        +getBoard(): Board
    }
    enum "<size:14>Chap.State\n<size:10>nz.ac.wgtn.swen225.lc.domain" as nz.ac.wgtn.swen225.lc.domain.Chap.State [[Chap.State.html]]
    enum "<size:14>Chap.Direction\n<size:10>nz.ac.wgtn.swen225.lc.domain" as nz.ac.wgtn.swen225.lc.domain.Chap.Direction [[Chap.Direction.html]]

    nz.ac.wgtn.swen225.lc.domain.Chap +- - nz.ac.wgtn.swen225.lc.domain.Chap.State
    nz.ac.wgtn.swen225.lc.domain.Chap +- - nz.ac.wgtn.swen225.lc.domain.Chap.Direction

    center footer UMLDoclet 2.0.14, PlantUML 1.2021.9
@enduml

PlantUML version 1.2021.9(Sun Jul 25 22:13:56 NZST 2021)
(APACHE source distribution)
Java Runtime: OpenJDK Runtime Environment
JVM: OpenJDK 64-Bit Server VM
Default Encoding: UTF-8
Language: en
Country: NZ
--></g></svg>