<?xml version="1.0" encoding="UTF-8" standalone="no"?><svg xmlns="http://www.w3.org/2000/svg" xmlns:xlink="http://www.w3.org/1999/xlink" contentStyleType="text/css" height="252px" preserveAspectRatio="none" style="width:195px;height:252px;background:#FFFFFF;" version="1.1" viewBox="0 0 195 252" width="195px" zoomAndPan="magnify"><defs/><g><!--class nz.ac.wgtn.swen225.lc.domain.Chap.Direction--><a href="Chap.Direction.html" target="_top" title="Chap.Direction.html" xlink:actuate="onRequest" xlink:href="Chap.Direction.html" xlink:show="new" xlink:title="Chap.Direction.html" xlink:type="simple"><g id="elem_nz.ac.wgtn.swen225.lc.domain.Chap.Direction"><rect codeLine="5" fill="#F1F1F1" height="118.625" id="nz.ac.wgtn.swen225.lc.domain.Chap.Direction" rx="2.5" ry="2.5" style="stroke:#181818;stroke-width:0.5;" width="178" x="10" y="107.19"/><ellipse cx="25" cy="127.2838" fill="#EB937F" rx="11" ry="11" style="stroke:#181818;stroke-width:1.0;"/><path d="M23.8594,128.0806 L23.8594,130.5806 L28.1875,130.5806 L28.1875,129.6588 Q28.1875,129.0494 28.4219,128.7838 Q28.6719,128.5181 29.0469,128.5181 Q29.4219,128.5181 29.6563,128.7838 Q29.8906,129.0494 29.8906,129.6588 L29.8906,132.2838 L21.8906,132.2838 Q21.2656,132.2838 21,132.0494 Q20.75,131.815 20.75,131.4244 Q20.75,131.0494 21.0156,130.815 Q21.2813,130.5806 21.8906,130.5806 L22.1563,130.5806 L22.1563,123.9244 L21.8906,123.9244 Q21.2656,123.9244 21,123.69 Q20.75,123.4556 20.75,123.065 Q20.75,122.69 21,122.4556 Q21.2656,122.2213 21.8906,122.2213 L29.5156,122.2213 L29.5156,124.815 Q29.5156,125.4244 29.2813,125.69 Q29.0625,125.94 28.6719,125.94 Q28.2969,125.94 28.0625,125.69 Q27.8281,125.4244 27.8281,124.815 L27.8281,123.9244 L23.8594,123.9244 L23.8594,126.3775 L25.3438,126.3775 Q25.3438,125.7213 25.4688,125.5338 Q25.7344,125.1275 26.2031,125.1275 Q26.5781,125.1275 26.8125,125.3931 Q27.0469,125.6431 27.0469,126.2525 L27.0469,128.2213 Q27.0469,128.7681 26.9219,128.9556 Q26.6563,129.3463 26.2031,129.3463 Q25.7344,129.3463 25.4688,128.94 Q25.3438,128.7525 25.3438,128.0806 L23.8594,128.0806 Z " fill="#000000"/><text fill="#000000" font-family="sans-serif" font-size="14" lengthAdjust="spacing" textLength="94" x="65" y="126.7232">Chap.Direction</text><text fill="#000000" font-family="sans-serif" font-size="10" lengthAdjust="spacing" textLength="146" x="39" y="140.1802">nz.ac.wgtn.swen225.lc.domain</text><line style="stroke:#181818;stroke-width:0.5;" x1="11" x2="187" y1="147.3775" y2="147.3775"/><ellipse cx="21" cy="161.6822" fill="none" rx="3" ry="3" style="stroke:#038048;stroke-width:1.0;"/><text fill="#000000" font-family="sans-serif" font-size="14" lengthAdjust="spacing" text-decoration="underline" textLength="18" x="30" y="165.9107">UP</text><ellipse cx="21" cy="179.2916" fill="none" rx="3" ry="3" style="stroke:#038048;stroke-width:1.0;"/><text fill="#000000" font-family="sans-serif" font-size="14" lengthAdjust="spacing" text-decoration="underline" textLength="43" x="30" y="183.5201">DOWN</text><ellipse cx="21" cy="196.9009" fill="none" rx="3" ry="3" style="stroke:#038048;stroke-width:1.0;"/><text fill="#000000" font-family="sans-serif" font-size="14" lengthAdjust="spacing" text-decoration="underline" textLength="35" x="30" y="201.1295">LEFT</text><ellipse cx="21" cy="214.5103" fill="none" rx="3" ry="3" style="stroke:#038048;stroke-width:1.0;"/><text fill="#000000" font-family="sans-serif" font-size="14" lengthAdjust="spacing" text-decoration="underline" textLength="42" x="30" y="218.7388">RIGHT</text></g></a><!--class nz.ac.wgtn.swen225.lc.domain.Chap--><a href="Chap.html" target="_top" title="Chap.html" xlink:actuate="onRequest" xlink:href="Chap.html" xlink:show="new" xlink:title="Chap.html" xlink:type="simple"><g id="elem_nz.ac.wgtn.swen225.lc.domain.Chap"><rect codeLine="12" fill="#F1F1F1" height="40.1875" id="nz.ac.wgtn.swen225.lc.domain.Chap" rx="2.5" ry="2.5" style="stroke:#181818;stroke-width:0.5;" width="178" x="10" y="7"/><ellipse cx="25" cy="27.0938" fill="#ADD1B2" rx="11" ry="11" style="stroke:#181818;stroke-width:1.0;"/><path d="M27.7656,22.9688 Q27.9219,22.75 28.1094,22.6406 Q28.2969,22.5313 28.5156,22.5313 Q28.8906,22.5313 29.125,22.7969 Q29.3594,23.0469 29.3594,23.6563 L29.3594,25.1094 Q29.3594,25.7188 29.125,25.9844 Q28.8906,26.25 28.5156,26.25 Q28.1719,26.25 27.9688,26.0469 Q27.7656,25.8594 27.6563,25.3438 Q27.6094,24.9844 27.4219,24.7969 Q27.0938,24.4219 26.4844,24.2031 Q25.875,23.9844 25.25,23.9844 Q24.4844,23.9844 23.8438,24.3125 Q23.2188,24.6406 22.7188,25.3906 Q22.2344,26.1406 22.2344,27.1719 L22.2344,28.2656 Q22.2344,29.5 23.125,30.3281 Q24.0156,31.1406 25.6094,31.1406 Q26.5469,31.1406 27.2031,30.8906 Q27.5938,30.7344 28.0156,30.2969 Q28.2813,30.0313 28.4219,29.9531 Q28.5781,29.875 28.7813,29.875 Q29.1094,29.875 29.3594,30.1406 Q29.625,30.3906 29.625,30.7344 Q29.625,31.0781 29.2813,31.4844 Q28.7813,32.0625 27.9844,32.3906 Q26.9063,32.8438 25.6094,32.8438 Q24.0938,32.8438 22.8906,32.2188 Q21.9063,31.7188 21.2188,30.6563 Q20.5313,29.5781 20.5313,28.2969 L20.5313,27.1406 Q20.5313,25.8125 21.1406,24.6719 Q21.7656,23.5156 22.8594,22.9063 Q23.9531,22.2813 25.1875,22.2813 Q25.9219,22.2813 26.5625,22.4531 Q27.2188,22.6094 27.7656,22.9688 Z " fill="#000000"/><text fill="#000000" font-family="sans-serif" font-size="14" lengthAdjust="spacing" textLength="34" x="95" y="26.5332">Chap</text><text fill="#000000" font-family="sans-serif" font-size="10" lengthAdjust="spacing" textLength="146" x="39" y="39.9902">nz.ac.wgtn.swen225.lc.domain</text></g></a><!--reverse link nz.ac.wgtn.swen225.lc.domain.Chap to nz.ac.wgtn.swen225.lc.domain.Chap.Direction--><g id="link_nz.ac.wgtn.swen225.lc.domain.Chap_nz.ac.wgtn.swen225.lc.domain.Chap.Direction"><path codeLine="14" d="M99,63.43 C99,76.7 99,92.16 99,106.97 " fill="none" id="nz.ac.wgtn.swen225.lc.domain.Chap-backto-nz.ac.wgtn.swen225.lc.domain.Chap.Direction" style="stroke:#181818;stroke-width:1.0;"/><ellipse cx="99" cy="56.49" fill="#FFFFFF" rx="8" ry="8" style="stroke:#181818;stroke-width:1.0;"/><line style="stroke:#181818;stroke-width:1.0;" x1="99" x2="99" y1="64.49" y2="48.49"/><line style="stroke:#181818;stroke-width:1.0;" x1="91" x2="107" y1="56.49" y2="56.49"/></g><text fill="#888888" font-family="sans-serif" font-size="10" lengthAdjust="spacing" textLength="184" x="0" y="242.1959">UMLDoclet 2.1.0, PlantUML 1.2022.14</text><!--SRC=[hP9BImCn483l_egX82YreLtq8jABwmkg5clnK7iOibCta4oMPBJOqlzksgs7baKHd4lWcypZ2m40Y2J0w2XMg6b45GOK7u0zqq5AGsaA0dALVCBCa2tYFdKafKzumudV7RGkebdGUU-qVrbYfN8JI8ln_ChRHBVF2uLQpT-4LPmJPzcPibeLtg7X5c24dowetROmcUm2LOgpqoaiDokjOna5nUWLjCV31fW_lZmquC7LzNC3VhgxkQtvgfRM5cFSi_vNrs_3sgiU-djHkzFvopDkNOY50ioyNn_Z-q7kjKrV95CzrJs1eKMMHE7mWq9CLKV7Nm00]--></g></svg>