<?xml version="1.0" encoding="UTF-8" standalone="no"?><svg xmlns="http://www.w3.org/2000/svg" xmlns:xlink="http://www.w3.org/1999/xlink" contentScriptType="application/ecmascript" contentStyleType="text/css" height="324px" preserveAspectRatio="none" style="width:233px;height:324px;background:#FFFFFF;" version="1.1" viewBox="0 0 233 324" width="233px" zoomAndPan="magnify"><defs><filter height="300%" id="f9towchypi5u1" width="300%" x="-1" y="-1"><feGaussianBlur result="blurOut" stdDeviation="2.0"/><feColorMatrix in="blurOut" result="blurOut2" type="matrix" values="0 0 0 0 0 0 0 0 0 0 0 0 0 0 0 0 0 0 .4 0"/><feOffset dx="4.0" dy="4.0" in="blurOut2" result="blurOut3"/><feBlend in="SourceGraphic" in2="blurOut3" mode="normal"/></filter></defs><g><!--MD5=[ded18389382344912cbae1820c762940]
class nz.ac.wgtn.swen225.lc.domain.DomainTest--><a href="DomainTest.html" target="_top" title="DomainTest.html" xlink:actuate="onRequest" xlink:href="DomainTest.html" xlink:show="new" xlink:title="DomainTest.html" xlink:type="simple"><rect codeLine="5" fill="#FEFECE" filter="url(#f9towchypi5u1)" height="291.3984" id="nz.ac.wgtn.swen225.lc.domain.DomainTest" style="stroke:#A80036;stroke-width:1.5;" width="212" x="7" y="7"/><ellipse cx="37.3" cy="27.0938" fill="#ADD1B2" rx="11" ry="11" style="stroke:#A80036;stroke-width:1.0;"/><path d="M40.0656,22.9688 Q40.2219,22.75 40.4094,22.6406 Q40.5969,22.5313 40.8156,22.5313 Q41.1906,22.5313 41.425,22.7969 Q41.6594,23.0469 41.6594,23.6563 L41.6594,25.1094 Q41.6594,25.7188 41.425,25.9844 Q41.1906,26.25 40.8156,26.25 Q40.4719,26.25 40.2688,26.0469 Q40.0656,25.8594 39.9563,25.3438 Q39.9094,24.9844 39.7219,24.7969 Q39.3938,24.4219 38.7844,24.2031 Q38.175,23.9844 37.55,23.9844 Q36.7844,23.9844 36.1438,24.3125 Q35.5188,24.6406 35.0188,25.3906 Q34.5344,26.1406 34.5344,27.1719 L34.5344,28.2656 Q34.5344,29.5 35.425,30.3281 Q36.3156,31.1406 37.9094,31.1406 Q38.8469,31.1406 39.5031,30.8906 Q39.8938,30.7344 40.3156,30.2969 Q40.5813,30.0313 40.7219,29.9531 Q40.8781,29.875 41.0813,29.875 Q41.4094,29.875 41.6594,30.1406 Q41.925,30.3906 41.925,30.7344 Q41.925,31.0781 41.5813,31.4844 Q41.0813,32.0625 40.2844,32.3906 Q39.2063,32.8438 37.9094,32.8438 Q36.3938,32.8438 35.1906,32.2188 Q34.2063,31.7188 33.5188,30.6563 Q32.8313,29.5781 32.8313,28.2969 L32.8313,27.1406 Q32.8313,25.8125 33.4406,24.6719 Q34.0656,23.5156 35.1594,22.9063 Q36.2531,22.2813 37.4875,22.2813 Q38.2219,22.2813 38.8625,22.4531 Q39.5188,22.6094 40.0656,22.9688 Z " fill="#000000"/><text fill="#000000" font-family="sans-serif" font-size="14" lengthAdjust="spacing" textLength="76" x="89.7" y="26.5332">DomainTest</text><text fill="#000000" font-family="sans-serif" font-size="10" lengthAdjust="spacing" textLength="146" x="54.7" y="39.9902">nz.ac.wgtn.swen225.lc.domain</text><line style="stroke:#A80036;stroke-width:1.5;" x1="8" x2="218" y1="47.1875" y2="47.1875"/><rect fill="none" height="6" style="stroke:#C82930;stroke-width:1.0;" width="6" x="15" y="55.1875"/><text fill="#000000" font-family="sans-serif" font-size="11" lengthAdjust="spacing" textLength="63" x="27" y="62.6064">board: Board</text><rect fill="none" height="6" style="stroke:#C82930;stroke-width:1.0;" width="6" x="15" y="69.0234"/><text fill="#000000" font-family="sans-serif" font-size="11" lengthAdjust="spacing" textLength="55" x="27" y="76.4424">chap: Chap</text><line style="stroke:#A80036;stroke-width:1.5;" x1="8" x2="218" y1="82.8594" y2="82.8594"/><ellipse cx="18" cy="93.8594" fill="#84BE84" rx="3" ry="3" style="stroke:#038048;stroke-width:1.0;"/><text fill="#000000" font-family="sans-serif" font-size="11" lengthAdjust="spacing" textLength="47" x="27" y="98.2783">init(): void</text><ellipse cx="18" cy="107.6953" fill="#84BE84" rx="3" ry="3" style="stroke:#038048;stroke-width:1.0;"/><text fill="#000000" font-family="sans-serif" font-size="11" lengthAdjust="spacing" textLength="81" x="27" y="112.1143">testBoard(): void</text><ellipse cx="18" cy="121.5313" fill="#84BE84" rx="3" ry="3" style="stroke:#038048;stroke-width:1.0;"/><text fill="#000000" font-family="sans-serif" font-size="11" lengthAdjust="spacing" textLength="97" x="27" y="125.9502">testMoveLeft(): void</text><ellipse cx="18" cy="135.3672" fill="#84BE84" rx="3" ry="3" style="stroke:#038048;stroke-width:1.0;"/><text fill="#000000" font-family="sans-serif" font-size="11" lengthAdjust="spacing" textLength="123" x="27" y="139.7861">testMoveLeftIllegal(): void</text><ellipse cx="18" cy="149.2031" fill="#84BE84" rx="3" ry="3" style="stroke:#038048;stroke-width:1.0;"/><text fill="#000000" font-family="sans-serif" font-size="11" lengthAdjust="spacing" textLength="102" x="27" y="153.6221">testMoveRight(): void</text><ellipse cx="18" cy="163.0391" fill="#84BE84" rx="3" ry="3" style="stroke:#038048;stroke-width:1.0;"/><text fill="#000000" font-family="sans-serif" font-size="11" lengthAdjust="spacing" textLength="128" x="27" y="167.458">testMoveRightIllegal(): void</text><ellipse cx="18" cy="176.875" fill="#84BE84" rx="3" ry="3" style="stroke:#038048;stroke-width:1.0;"/><text fill="#000000" font-family="sans-serif" font-size="11" lengthAdjust="spacing" textLength="107" x="27" y="181.2939">testMoveDown(): void</text><ellipse cx="18" cy="190.7109" fill="#84BE84" rx="3" ry="3" style="stroke:#038048;stroke-width:1.0;"/><text fill="#000000" font-family="sans-serif" font-size="11" lengthAdjust="spacing" textLength="133" x="27" y="195.1299">testMoveDownIllegal(): void</text><ellipse cx="18" cy="204.5469" fill="#84BE84" rx="3" ry="3" style="stroke:#038048;stroke-width:1.0;"/><text fill="#000000" font-family="sans-serif" font-size="11" lengthAdjust="spacing" textLength="91" x="27" y="208.9658">testMoveUp(): void</text><ellipse cx="18" cy="218.3828" fill="#84BE84" rx="3" ry="3" style="stroke:#038048;stroke-width:1.0;"/><text fill="#000000" font-family="sans-serif" font-size="11" lengthAdjust="spacing" textLength="117" x="27" y="222.8018">testMoveUpIllegal(): void</text><ellipse cx="18" cy="232.2188" fill="#84BE84" rx="3" ry="3" style="stroke:#038048;stroke-width:1.0;"/><text fill="#000000" font-family="sans-serif" font-size="11" lengthAdjust="spacing" textLength="103" x="27" y="236.6377">testPickUpKey(): void</text><ellipse cx="18" cy="246.0547" fill="#84BE84" rx="3" ry="3" style="stroke:#038048;stroke-width:1.0;"/><text fill="#000000" font-family="sans-serif" font-size="11" lengthAdjust="spacing" textLength="120" x="27" y="250.4736">testCanOpenDoor(): void</text><ellipse cx="18" cy="259.8906" fill="#84BE84" rx="3" ry="3" style="stroke:#038048;stroke-width:1.0;"/><text fill="#000000" font-family="sans-serif" font-size="11" lengthAdjust="spacing" textLength="135" x="27" y="264.3096">testCannotOpenDoor(): void</text><ellipse cx="18" cy="273.7266" fill="#84BE84" rx="3" ry="3" style="stroke:#038048;stroke-width:1.0;"/><text fill="#000000" font-family="sans-serif" font-size="11" lengthAdjust="spacing" textLength="186" x="27" y="278.1455">testCannotOpenDoorWrongKey(): void</text><ellipse cx="18" cy="287.5625" fill="#84BE84" rx="3" ry="3" style="stroke:#038048;stroke-width:1.0;"/><text fill="#000000" font-family="sans-serif" font-size="11" lengthAdjust="spacing" textLength="128" x="27" y="291.9814">testPickUpTreasure(): void</text></a><text fill="#888888" font-family="sans-serif" font-size="10" lengthAdjust="spacing" textLength="184" x="21" y="315.7793">UMLDoclet 2.0.14, PlantUML 1.2021.9</text><!--MD5=[4e03cf1fae959dda86c6012c63cf4ba3]
@startuml
    set namespaceSeparator none
    hide empty fields
    hide empty methods

    class "<size:14>DomainTest\n<size:10>nz.ac.wgtn.swen225.lc.domain" as nz.ac.wgtn.swen225.lc.domain.DomainTest [[DomainTest.html]] {
        -board: Board
        -chap: Chap
        +init(): void
        +testBoard(): void
        +testMoveLeft(): void
        +testMoveLeftIllegal(): void
        +testMoveRight(): void
        +testMoveRightIllegal(): void
        +testMoveDown(): void
        +testMoveDownIllegal(): void
        +testMoveUp(): void
        +testMoveUpIllegal(): void
        +testPickUpKey(): void
        +testCanOpenDoor(): void
        +testCannotOpenDoor(): void
        +testCannotOpenDoorWrongKey(): void
        +testPickUpTreasure(): void
    }

    center footer UMLDoclet 2.0.14, PlantUML 1.2021.9
@enduml

PlantUML version 1.2021.9(Sun Jul 25 22:13:56 NZST 2021)
(APACHE source distribution)
Java Runtime: OpenJDK Runtime Environment
JVM: OpenJDK 64-Bit Server VM
Default Encoding: Cp1252
Language: en
Country: NZ
--></g></svg>