<?xml version="1.0" encoding="UTF-8" standalone="no"?><svg xmlns="http://www.w3.org/2000/svg" xmlns:xlink="http://www.w3.org/1999/xlink" contentScriptType="application/ecmascript" contentStyleType="text/css" height="207px" preserveAspectRatio="none" style="width:201px;height:207px;background:#FFFFFF;" version="1.1" viewBox="0 0 201 207" width="201px" zoomAndPan="magnify"><defs><filter height="300%" id="f11j7ltc28oeyp" width="300%" x="-1" y="-1"><feGaussianBlur result="blurOut" stdDeviation="2.0"/><feColorMatrix in="blurOut" result="blurOut2" type="matrix" values="0 0 0 0 0 0 0 0 0 0 0 0 0 0 0 0 0 0 .4 0"/><feOffset dx="4.0" dy="4.0" in="blurOut2" result="blurOut3"/><feBlend in="SourceGraphic" in2="blurOut3" mode="normal"/></filter></defs><g><!--MD5=[0381bfc557782767b77a4a6d26ead892]
class nz.ac.wgtn.swen225.lc.domain.IllegalMove--><a href="IllegalMove.html" target="_top" title="IllegalMove.html" xlink:actuate="onRequest" xlink:href="IllegalMove.html" xlink:show="new" xlink:title="IllegalMove.html" xlink:type="simple"><rect codeLine="5" fill="#FEFECE" filter="url(#f11j7ltc28oeyp)" height="65.6698" id="nz.ac.wgtn.swen225.lc.domain.IllegalMove" style="stroke:#A80036;stroke-width:1.5;" width="180" x="7" y="109.69"/><ellipse cx="22" cy="131.034" fill="#ADD1B2" rx="11" ry="11" style="stroke:#A80036;stroke-width:1.0;"/><path d="M21.4688,137.9558 Q19.7188,137.9558 18.5781,137.2215 Q17.4531,136.4715 16.8906,135.1277 Q16.3438,133.7683 16.3438,131.9715 Q16.3438,129.9402 17,128.4871 Q17.6563,127.034 18.9375,126.2527 Q20.2188,125.4715 22.0938,125.4715 Q22.9844,125.4715 23.6563,125.659 Q24.3281,125.8308 25.0156,126.1746 L24.2031,128.1902 Q23.5781,127.8777 23.0313,127.7527 Q22.5,127.6277 22.0156,127.6277 Q20.8438,127.6277 20.1406,128.159 Q19.4375,128.6902 19.1406,129.6433 Q18.8438,130.5965 18.8438,131.8621 Q18.8438,133.8777 19.5625,134.8465 Q20.2813,135.7996 21.875,135.7996 Q22.4688,135.7996 23.0938,135.6433 Q23.7188,135.4871 24.5469,135.1121 L24.5469,137.3308 Q23.8125,137.6433 23.0156,137.7996 Q22.2344,137.9558 21.4688,137.9558 Z " fill="#000000"/><text fill="#000000" font-family="sans-serif" font-size="14" lengthAdjust="spacing" textLength="78" x="71" y="129.6559">IllegalMove</text><text fill="#000000" font-family="sans-serif" font-size="10" lengthAdjust="spacing" textLength="148" x="36" y="144.4479">nz.ac.wgtn.swen225.lc.domain</text><line style="stroke:#A80036;stroke-width:1.5;" x1="8" x2="186" y1="152.3779" y2="152.3779"/><ellipse cx="18" cy="163.3779" fill="#84BE84" rx="3" ry="3" style="stroke:#038048;stroke-width:1.0;"/><text fill="#000000" font-family="sans-serif" font-size="11" lengthAdjust="spacing" textLength="99" x="27" y="168.1368">IllegalMove(String)</text></a><!--MD5=[46c05dfe24a0851e179497c4631d3ff2]
class java.lang.Exception--><rect codeLine="9" fill="#FEFECE" filter="url(#f11j7ltc28oeyp)" height="42.6879" id="java.lang.Exception" style="stroke:#A80036;stroke-width:1.5;" width="97" x="48.5" y="7"/><ellipse cx="63.5" cy="28.344" fill="#ADD1B2" rx="11" ry="11" style="stroke:#A80036;stroke-width:1.0;"/><path d="M62.9688,35.2658 Q61.2188,35.2658 60.0781,34.5315 Q58.9531,33.7815 58.3906,32.4377 Q57.8438,31.0783 57.8438,29.2815 Q57.8438,27.2502 58.5,25.7971 Q59.1563,24.344 60.4375,23.5627 Q61.7188,22.7815 63.5938,22.7815 Q64.4844,22.7815 65.1563,22.969 Q65.8281,23.1408 66.5156,23.4846 L65.7031,25.5002 Q65.0781,25.1877 64.5313,25.0627 Q64,24.9377 63.5156,24.9377 Q62.3438,24.9377 61.6406,25.469 Q60.9375,26.0002 60.6406,26.9533 Q60.3438,27.9065 60.3438,29.1721 Q60.3438,31.1877 61.0625,32.1565 Q61.7813,33.1096 63.375,33.1096 Q63.9688,33.1096 64.5938,32.9533 Q65.2188,32.7971 66.0469,32.4221 L66.0469,34.6408 Q65.3125,34.9533 64.5156,35.1096 Q63.7344,35.2658 62.9688,35.2658 Z " fill="#000000"/><text fill="#000000" font-family="sans-serif" font-size="14" lengthAdjust="spacing" textLength="65" x="77.5" y="26.9659">Exception</text><text fill="#000000" font-family="sans-serif" font-size="10" lengthAdjust="spacing" textLength="44" x="88" y="41.7579">java.lang</text><!--MD5=[256faed44314ccfc38e76806f11679b2]
reverse link java.lang.Exception to nz.ac.wgtn.swen225.lc.domain.IllegalMove--><path codeLine="11" d="M97,71.18 C97,83.8 97,97.45 97,109.33 " fill="none" id="java.lang.Exception-backto-nz.ac.wgtn.swen225.lc.domain.IllegalMove" style="stroke:#A80036;stroke-width:1.0;"/><polygon fill="none" points="90,71.18,97,51.18,104,71.18,90,71.18" style="stroke:#A80036;stroke-width:1.0;"/><text fill="#888888" font-family="sans-serif" font-size="10" lengthAdjust="spacing" textLength="182" x="3" y="199.0498">UMLDoclet 2.0.14, PlantUML 1.2021.9</text><!--MD5=[c82384401f96d10e2f1f2cde40b26372]
@startuml
    set namespaceSeparator none
    hide empty fields
    hide empty methods

    class "<size:14>IllegalMove\n<size:10>nz.ac.wgtn.swen225.lc.domain" as nz.ac.wgtn.swen225.lc.domain.IllegalMove [[IllegalMove.html]] {
        +IllegalMove(String)
    }

    class "<size:14>Exception\n<size:10>java.lang" as java.lang.Exception

    java.lang.Exception <|- - nz.ac.wgtn.swen225.lc.domain.IllegalMove

    center footer UMLDoclet 2.0.14, PlantUML 1.2021.9
@enduml

PlantUML version 1.2021.9(Sun Jul 25 22:13:56 NZST 2021)
(APACHE source distribution)
Java Runtime: OpenJDK Runtime Environment
JVM: OpenJDK 64-Bit Server VM
Default Encoding: UTF-8
Language: en
Country: NZ
--></g></svg>