<?xml version="1.0" encoding="UTF-8" standalone="no"?><svg xmlns="http://www.w3.org/2000/svg" xmlns:xlink="http://www.w3.org/1999/xlink" contentStyleType="text/css" height="1274px" preserveAspectRatio="none" style="width:1351px;height:1274px;background:#FFFFFF;" version="1.1" viewBox="0 0 1351 1274" width="1351px" zoomAndPan="magnify"><defs/><g><!--cluster nz.ac.wgtn.swen225.lc.domain--><g id="cluster_nz.ac.wgtn.swen225.lc.domain"><path d="M292.5,139 L503.5,139 A3.75,3.75 0 0 1 506,141.5 L513,162.6094 L1049.5,162.6094 A2.5,2.5 0 0 1 1052,165.1094 L1052,1245.7 A2.5,2.5 0 0 1 1049.5,1248.2 L292.5,1248.2 A2.5,2.5 0 0 1 290,1245.7 L290,141.5 A2.5,2.5 0 0 1 292.5,139 " fill="none" style="stroke:#000000;stroke-width:1.5;"/><line style="stroke:#000000;stroke-width:1.5;" x1="290" x2="513" y1="162.6094" y2="162.6094"/><text fill="#000000" font-family="sans-serif" font-size="14" font-weight="bold" lengthAdjust="spacing" textLength="210" x="294" y="155.5332">nz.ac.wgtn.swen225.lc.domain</text></g><!--cluster nz.ac.wgtn.swen225.lc.domain.tiles--><g id="cluster_nz.ac.wgtn.swen225.lc.domain.tiles"><path d="M8.5,1112.98 L253.5,1112.98 A3.75,3.75 0 0 1 256,1115.48 L263,1136.5894 L263.5,1136.5894 A2.5,2.5 0 0 1 266,1139.0894 L266,1210.48 A2.5,2.5 0 0 1 263.5,1212.98 L8.5,1212.98 A2.5,2.5 0 0 1 6,1210.48 L6,1115.48 A2.5,2.5 0 0 1 8.5,1112.98 " fill="none" style="stroke:#000000;stroke-width:1.5;"/><line style="stroke:#000000;stroke-width:1.5;" x1="6" x2="263" y1="1136.5894" y2="1136.5894"/><text fill="#000000" font-family="sans-serif" font-size="14" font-weight="bold" lengthAdjust="spacing" textLength="244" x="10" y="1129.5132">nz.ac.wgtn.swen225.lc.domain.tiles</text></g><!--cluster nz.ac.wgtn.swen225.lc.domain.items--><g id="cluster_nz.ac.wgtn.swen225.lc.domain.items"><path d="M1078.5,1112.98 L1331.5,1112.98 A3.75,3.75 0 0 1 1334,1115.48 L1341,1136.5894 L1341.5,1136.5894 A2.5,2.5 0 0 1 1344,1139.0894 L1344,1210.48 A2.5,2.5 0 0 1 1341.5,1212.98 L1078.5,1212.98 A2.5,2.5 0 0 1 1076,1210.48 L1076,1115.48 A2.5,2.5 0 0 1 1078.5,1112.98 " fill="none" style="stroke:#000000;stroke-width:1.5;"/><line style="stroke:#000000;stroke-width:1.5;" x1="1076" x2="1341" y1="1136.5894" y2="1136.5894"/><text fill="#000000" font-family="sans-serif" font-size="14" font-weight="bold" lengthAdjust="spacing" textLength="252" x="1080" y="1129.5132">nz.ac.wgtn.swen225.lc.domain.items</text></g><!--cluster java.lang--><g id="cluster_java.lang"><path d="M316.5,6 L380.5,6 A3.75,3.75 0 0 1 383,8.5 L390,29.6094 L437.5,29.6094 A2.5,2.5 0 0 1 440,32.1094 L440,103.5 A2.5,2.5 0 0 1 437.5,106 L316.5,106 A2.5,2.5 0 0 1 314,103.5 L314,8.5 A2.5,2.5 0 0 1 316.5,6 " fill="none" style="stroke:#000000;stroke-width:1.5;"/><line style="stroke:#000000;stroke-width:1.5;" x1="314" x2="390" y1="29.6094" y2="29.6094"/><text fill="#000000" font-family="sans-serif" font-size="14" font-weight="bold" lengthAdjust="spacing" textLength="63" x="318" y="22.5332">java.lang</text></g><!--class nz.ac.wgtn.swen225.lc.domain.Board--><a href="Board.html" target="_top" title="Board.html" xlink:actuate="onRequest" xlink:href="Board.html" xlink:show="new" xlink:title="Board.html" xlink:type="simple"><g id="elem_nz.ac.wgtn.swen225.lc.domain.Board"><rect codeLine="3" fill="#F1F1F1" height="171.2656" id="nz.ac.wgtn.swen225.lc.domain.Board" rx="2.5" ry="2.5" style="stroke:#181818;stroke-width:0.5;" width="233" x="803.5" y="368.7"/><ellipse cx="896.75" cy="384.7" fill="#ADD1B2" rx="11" ry="11" style="stroke:#181818;stroke-width:1.0;"/><path d="M899.5156,380.575 Q899.6719,380.3563 899.8594,380.2469 Q900.0469,380.1375 900.2656,380.1375 Q900.6406,380.1375 900.875,380.4031 Q901.1094,380.6531 901.1094,381.2625 L901.1094,382.7156 Q901.1094,383.325 900.875,383.5906 Q900.6406,383.8563 900.2656,383.8563 Q899.9219,383.8563 899.7188,383.6531 Q899.5156,383.4656 899.4063,382.95 Q899.3594,382.5906 899.1719,382.4031 Q898.8438,382.0281 898.2344,381.8094 Q897.625,381.5906 897,381.5906 Q896.2344,381.5906 895.5938,381.9188 Q894.9688,382.2469 894.4688,382.9969 Q893.9844,383.7469 893.9844,384.7781 L893.9844,385.8719 Q893.9844,387.1063 894.875,387.9344 Q895.7656,388.7469 897.3594,388.7469 Q898.2969,388.7469 898.9531,388.4969 Q899.3438,388.3406 899.7656,387.9031 Q900.0313,387.6375 900.1719,387.5594 Q900.3281,387.4813 900.5313,387.4813 Q900.8594,387.4813 901.1094,387.7469 Q901.375,387.9969 901.375,388.3406 Q901.375,388.6844 901.0313,389.0906 Q900.5313,389.6688 899.7344,389.9969 Q898.6563,390.45 897.3594,390.45 Q895.8438,390.45 894.6406,389.825 Q893.6563,389.325 892.9688,388.2625 Q892.2813,387.1844 892.2813,385.9031 L892.2813,384.7469 Q892.2813,383.4188 892.8906,382.2781 Q893.5156,381.1219 894.6094,380.5125 Q895.7031,379.8875 896.9375,379.8875 Q897.6719,379.8875 898.3125,380.0594 Q898.9688,380.2156 899.5156,380.575 Z " fill="#000000"/><text fill="#000000" font-family="sans-serif" font-size="14" lengthAdjust="spacing" textLength="38" x="917.25" y="390.4285">Board</text><line style="stroke:#181818;stroke-width:0.5;" x1="804.5" x2="1035.5" y1="400.7" y2="400.7"/><line style="stroke:#181818;stroke-width:0.5;" x1="804.5" x2="1035.5" y1="408.7" y2="408.7"/><ellipse cx="814.5" cy="423.0047" fill="#84BE84" rx="3" ry="3" style="stroke:#038048;stroke-width:1.0;"/><text fill="#000000" font-family="sans-serif" font-size="14" lengthAdjust="spacing" textLength="71" x="823.5" y="427.2332">Board(File)</text><polygon fill="#FFFF44" points="814.5,435.6141,818.5,439.6141,814.5,443.6141,810.5,439.6141" style="stroke:#B38D22;stroke-width:1.0;"/><text fill="#000000" font-family="sans-serif" font-size="14" lengthAdjust="spacing" textLength="126" x="823.5" y="444.8426">resetTile(Tile): Free</text><ellipse cx="814.5" cy="458.2234" fill="#84BE84" rx="3" ry="3" style="stroke:#038048;stroke-width:1.0;"/><text fill="#000000" font-family="sans-serif" font-size="14" lengthAdjust="spacing" textLength="207" x="823.5" y="462.452">getAutoActors(): List&lt;AutoActor&gt;</text><ellipse cx="814.5" cy="475.8328" fill="#84BE84" rx="3" ry="3" style="stroke:#038048;stroke-width:1.0;"/><text fill="#000000" font-family="sans-serif" font-size="14" lengthAdjust="spacing" textLength="122" x="823.5" y="480.0613">getTile(int, int): Tile</text><ellipse cx="814.5" cy="493.4422" fill="#84BE84" rx="3" ry="3" style="stroke:#038048;stroke-width:1.0;"/><text fill="#000000" font-family="sans-serif" font-size="14" lengthAdjust="spacing" textLength="87" x="823.5" y="497.6707">getLevel(): int</text><ellipse cx="814.5" cy="511.0516" fill="#84BE84" rx="3" ry="3" style="stroke:#038048;stroke-width:1.0;"/><text fill="#000000" font-family="sans-serif" font-size="14" lengthAdjust="spacing" textLength="84" x="823.5" y="515.2801">getTime(): int</text><ellipse cx="814.5" cy="528.6609" fill="#84BE84" rx="3" ry="3" style="stroke:#038048;stroke-width:1.0;"/><text fill="#000000" font-family="sans-serif" font-size="14" lengthAdjust="spacing" textLength="187" x="823.5" y="532.8895">getBoardTreasureCount(): int</text></g></a><!--class nz.ac.wgtn.swen225.lc.domain.Chap--><a href="Chap.html" target="_top" title="Chap.html" xlink:actuate="onRequest" xlink:href="Chap.html" xlink:show="new" xlink:title="Chap.html" xlink:type="simple"><g id="elem_nz.ac.wgtn.swen225.lc.domain.Chap"><rect codeLine="13" fill="#F1F1F1" height="224.0938" id="nz.ac.wgtn.swen225.lc.domain.Chap" rx="2.5" ry="2.5" style="stroke:#181818;stroke-width:0.5;" width="215" x="745.5" y="811.67"/><ellipse cx="831.75" cy="827.67" fill="#ADD1B2" rx="11" ry="11" style="stroke:#181818;stroke-width:1.0;"/><path d="M834.5156,823.545 Q834.6719,823.3263 834.8594,823.2169 Q835.0469,823.1075 835.2656,823.1075 Q835.6406,823.1075 835.875,823.3731 Q836.1094,823.6231 836.1094,824.2325 L836.1094,825.6856 Q836.1094,826.295 835.875,826.5606 Q835.6406,826.8263 835.2656,826.8263 Q834.9219,826.8263 834.7188,826.6231 Q834.5156,826.4356 834.4063,825.92 Q834.3594,825.5606 834.1719,825.3731 Q833.8438,824.9981 833.2344,824.7794 Q832.625,824.5606 832,824.5606 Q831.2344,824.5606 830.5938,824.8888 Q829.9688,825.2169 829.4688,825.9669 Q828.9844,826.7169 828.9844,827.7481 L828.9844,828.8419 Q828.9844,830.0763 829.875,830.9044 Q830.7656,831.7169 832.3594,831.7169 Q833.2969,831.7169 833.9531,831.4669 Q834.3438,831.3106 834.7656,830.8731 Q835.0313,830.6075 835.1719,830.5294 Q835.3281,830.4513 835.5313,830.4513 Q835.8594,830.4513 836.1094,830.7169 Q836.375,830.9669 836.375,831.3106 Q836.375,831.6544 836.0313,832.0606 Q835.5313,832.6388 834.7344,832.9669 Q833.6563,833.42 832.3594,833.42 Q830.8438,833.42 829.6406,832.795 Q828.6563,832.295 827.9688,831.2325 Q827.2813,830.1544 827.2813,828.8731 L827.2813,827.7169 Q827.2813,826.3888 827.8906,825.2481 Q828.5156,824.0919 829.6094,823.4825 Q830.7031,822.8575 831.9375,822.8575 Q832.6719,822.8575 833.3125,823.0294 Q833.9688,823.1856 834.5156,823.545 Z " fill="#000000"/><text fill="#000000" font-family="sans-serif" font-size="14" lengthAdjust="spacing" textLength="34" x="852.25" y="833.3985">Chap</text><line style="stroke:#181818;stroke-width:0.5;" x1="746.5" x2="959.5" y1="843.67" y2="843.67"/><line style="stroke:#181818;stroke-width:0.5;" x1="746.5" x2="959.5" y1="851.67" y2="851.67"/><ellipse cx="756.5" cy="865.9747" fill="#84BE84" rx="3" ry="3" style="stroke:#038048;stroke-width:1.0;"/><text fill="#000000" font-family="sans-serif" font-size="14" lengthAdjust="spacing" textLength="143" x="765.5" y="870.2032">Chap(Board, Free, int)</text><ellipse cx="756.5" cy="883.5841" fill="#84BE84" rx="3" ry="3" style="stroke:#038048;stroke-width:1.0;"/><text fill="#000000" font-family="sans-serif" font-size="14" lengthAdjust="spacing" textLength="131" x="765.5" y="887.8126">move(Direction): Tile</text><ellipse cx="756.5" cy="901.1934" fill="#84BE84" rx="3" ry="3" style="stroke:#038048;stroke-width:1.0;"/><text fill="#000000" font-family="sans-serif" font-size="14" lengthAdjust="spacing" textLength="145" x="765.5" y="905.422">addItem(Item): boolean</text><ellipse cx="756.5" cy="918.8028" fill="#84BE84" rx="3" ry="3" style="stroke:#038048;stroke-width:1.0;"/><text fill="#000000" font-family="sans-serif" font-size="14" lengthAdjust="spacing" textLength="168" x="765.5" y="923.0313">removeItem(Item): boolean</text><ellipse cx="756.5" cy="936.4122" fill="#84BE84" rx="3" ry="3" style="stroke:#038048;stroke-width:1.0;"/><text fill="#000000" font-family="sans-serif" font-size="14" lengthAdjust="spacing" textLength="144" x="765.5" y="940.6407">hasItem(Item): boolean</text><ellipse cx="756.5" cy="954.0216" fill="#84BE84" rx="3" ry="3" style="stroke:#038048;stroke-width:1.0;"/><text fill="#000000" font-family="sans-serif" font-size="14" lengthAdjust="spacing" textLength="156" x="765.5" y="958.2501">canUnlockExit(): boolean</text><ellipse cx="756.5" cy="971.6309" fill="#84BE84" rx="3" ry="3" style="stroke:#038048;stroke-width:1.0;"/><text fill="#000000" font-family="sans-serif" font-size="14" lengthAdjust="spacing" textLength="126" x="765.5" y="975.8595">addTreasure(): void</text><ellipse cx="756.5" cy="989.2403" fill="#84BE84" rx="3" ry="3" style="stroke:#038048;stroke-width:1.0;"/><text fill="#000000" font-family="sans-serif" font-size="14" lengthAdjust="spacing" textLength="61" x="765.5" y="993.4688">getX(): int</text><ellipse cx="756.5" cy="1006.8497" fill="#84BE84" rx="3" ry="3" style="stroke:#038048;stroke-width:1.0;"/><text fill="#000000" font-family="sans-serif" font-size="14" lengthAdjust="spacing" textLength="62" x="765.5" y="1011.0782">getY(): int</text><ellipse cx="756.5" cy="1024.4591" fill="#84BE84" rx="3" ry="3" style="stroke:#038048;stroke-width:1.0;"/><text fill="#000000" font-family="sans-serif" font-size="14" lengthAdjust="spacing" textLength="189" x="765.5" y="1028.6876">getPlayerTreasureCount(): int</text></g></a><!--class nz.ac.wgtn.swen225.lc.domain.Chap.State--><a href="Chap.State.html" target="_top" title="Chap.State.html" xlink:actuate="onRequest" xlink:href="Chap.State.html" xlink:show="new" xlink:title="Chap.State.html" xlink:type="simple"><g id="elem_nz.ac.wgtn.swen225.lc.domain.Chap.State"><rect codeLine="26" fill="#F1F1F1" height="118.4375" id="nz.ac.wgtn.swen225.lc.domain.Chap.State" rx="2.5" ry="2.5" style="stroke:#181818;stroke-width:0.5;" width="112" x="760" y="1113.76"/><ellipse cx="779.05" cy="1129.76" fill="#EB937F" rx="11" ry="11" style="stroke:#181818;stroke-width:1.0;"/><path d="M777.9094,1130.5569 L777.9094,1133.0569 L782.2375,1133.0569 L782.2375,1132.135 Q782.2375,1131.5256 782.4719,1131.26 Q782.7219,1130.9944 783.0969,1130.9944 Q783.4719,1130.9944 783.7063,1131.26 Q783.9406,1131.5256 783.9406,1132.135 L783.9406,1134.76 L775.9406,1134.76 Q775.3156,1134.76 775.05,1134.5256 Q774.8,1134.2913 774.8,1133.9006 Q774.8,1133.5256 775.0656,1133.2913 Q775.3313,1133.0569 775.9406,1133.0569 L776.2063,1133.0569 L776.2063,1126.4006 L775.9406,1126.4006 Q775.3156,1126.4006 775.05,1126.1663 Q774.8,1125.9319 774.8,1125.5413 Q774.8,1125.1663 775.05,1124.9319 Q775.3156,1124.6975 775.9406,1124.6975 L783.5656,1124.6975 L783.5656,1127.2913 Q783.5656,1127.9006 783.3313,1128.1663 Q783.1125,1128.4163 782.7219,1128.4163 Q782.3469,1128.4163 782.1125,1128.1663 Q781.8781,1127.9006 781.8781,1127.2913 L781.8781,1126.4006 L777.9094,1126.4006 L777.9094,1128.8538 L779.3938,1128.8538 Q779.3938,1128.1975 779.5188,1128.01 Q779.7844,1127.6038 780.2531,1127.6038 Q780.6281,1127.6038 780.8625,1127.8694 Q781.0969,1128.1194 781.0969,1128.7288 L781.0969,1130.6975 Q781.0969,1131.2444 780.9719,1131.4319 Q780.7063,1131.8225 780.2531,1131.8225 Q779.7844,1131.8225 779.5188,1131.4163 Q779.3938,1131.2288 779.3938,1130.5569 L777.9094,1130.5569 Z " fill="#000000"/><text fill="#000000" font-family="sans-serif" font-size="14" lengthAdjust="spacing" textLength="71" x="793.95" y="1135.4885">Chap.State</text><line style="stroke:#181818;stroke-width:0.5;" x1="761" x2="871" y1="1145.76" y2="1145.76"/><ellipse cx="771" cy="1160.0647" fill="none" rx="3" ry="3" style="stroke:#038048;stroke-width:1.0;"/><text fill="#000000" font-family="sans-serif" font-size="14" lengthAdjust="spacing" text-decoration="underline" textLength="65" x="780" y="1164.2932">ONGOING</text><ellipse cx="771" cy="1177.6741" fill="none" rx="3" ry="3" style="stroke:#038048;stroke-width:1.0;"/><text fill="#000000" font-family="sans-serif" font-size="14" lengthAdjust="spacing" text-decoration="underline" textLength="55" x="780" y="1181.9026">PAUSED</text><ellipse cx="771" cy="1195.2834" fill="none" rx="3" ry="3" style="stroke:#038048;stroke-width:1.0;"/><text fill="#000000" font-family="sans-serif" font-size="14" lengthAdjust="spacing" text-decoration="underline" textLength="86" x="780" y="1199.512">COMPLETED</text><ellipse cx="771" cy="1212.8928" fill="none" rx="3" ry="3" style="stroke:#038048;stroke-width:1.0;"/><text fill="#000000" font-family="sans-serif" font-size="14" lengthAdjust="spacing" text-decoration="underline" textLength="38" x="780" y="1217.1213">DEAD</text><line style="stroke:#181818;stroke-width:0.5;" x1="761" x2="871" y1="1224.1975" y2="1224.1975"/></g></a><!--class nz.ac.wgtn.swen225.lc.domain.Chap.Direction--><a href="Chap.Direction.html" target="_top" title="Chap.Direction.html" xlink:actuate="onRequest" xlink:href="Chap.Direction.html" xlink:show="new" xlink:title="Chap.Direction.html" xlink:type="simple"><g id="elem_nz.ac.wgtn.swen225.lc.domain.Chap.Direction"><rect codeLine="33" fill="#F1F1F1" height="118.4375" id="nz.ac.wgtn.swen225.lc.domain.Chap.Direction" rx="2.5" ry="2.5" style="stroke:#181818;stroke-width:0.5;" width="126" x="907" y="1113.76"/><ellipse cx="922" cy="1129.76" fill="#EB937F" rx="11" ry="11" style="stroke:#181818;stroke-width:1.0;"/><path d="M920.8594,1130.5569 L920.8594,1133.0569 L925.1875,1133.0569 L925.1875,1132.135 Q925.1875,1131.5256 925.4219,1131.26 Q925.6719,1130.9944 926.0469,1130.9944 Q926.4219,1130.9944 926.6563,1131.26 Q926.8906,1131.5256 926.8906,1132.135 L926.8906,1134.76 L918.8906,1134.76 Q918.2656,1134.76 918,1134.5256 Q917.75,1134.2913 917.75,1133.9006 Q917.75,1133.5256 918.0156,1133.2913 Q918.2813,1133.0569 918.8906,1133.0569 L919.1563,1133.0569 L919.1563,1126.4006 L918.8906,1126.4006 Q918.2656,1126.4006 918,1126.1663 Q917.75,1125.9319 917.75,1125.5413 Q917.75,1125.1663 918,1124.9319 Q918.2656,1124.6975 918.8906,1124.6975 L926.5156,1124.6975 L926.5156,1127.2913 Q926.5156,1127.9006 926.2813,1128.1663 Q926.0625,1128.4163 925.6719,1128.4163 Q925.2969,1128.4163 925.0625,1128.1663 Q924.8281,1127.9006 924.8281,1127.2913 L924.8281,1126.4006 L920.8594,1126.4006 L920.8594,1128.8538 L922.3438,1128.8538 Q922.3438,1128.1975 922.4688,1128.01 Q922.7344,1127.6038 923.2031,1127.6038 Q923.5781,1127.6038 923.8125,1127.8694 Q924.0469,1128.1194 924.0469,1128.7288 L924.0469,1130.6975 Q924.0469,1131.2444 923.9219,1131.4319 Q923.6563,1131.8225 923.2031,1131.8225 Q922.7344,1131.8225 922.4688,1131.4163 Q922.3438,1131.2288 922.3438,1130.5569 L920.8594,1130.5569 Z " fill="#000000"/><text fill="#000000" font-family="sans-serif" font-size="14" lengthAdjust="spacing" textLength="94" x="936" y="1135.4885">Chap.Direction</text><line style="stroke:#181818;stroke-width:0.5;" x1="908" x2="1032" y1="1145.76" y2="1145.76"/><ellipse cx="918" cy="1160.0647" fill="none" rx="3" ry="3" style="stroke:#038048;stroke-width:1.0;"/><text fill="#000000" font-family="sans-serif" font-size="14" lengthAdjust="spacing" text-decoration="underline" textLength="18" x="927" y="1164.2932">UP</text><ellipse cx="918" cy="1177.6741" fill="none" rx="3" ry="3" style="stroke:#038048;stroke-width:1.0;"/><text fill="#000000" font-family="sans-serif" font-size="14" lengthAdjust="spacing" text-decoration="underline" textLength="43" x="927" y="1181.9026">DOWN</text><ellipse cx="918" cy="1195.2834" fill="none" rx="3" ry="3" style="stroke:#038048;stroke-width:1.0;"/><text fill="#000000" font-family="sans-serif" font-size="14" lengthAdjust="spacing" text-decoration="underline" textLength="35" x="927" y="1199.512">LEFT</text><ellipse cx="918" cy="1212.8928" fill="none" rx="3" ry="3" style="stroke:#038048;stroke-width:1.0;"/><text fill="#000000" font-family="sans-serif" font-size="14" lengthAdjust="spacing" text-decoration="underline" textLength="42" x="927" y="1217.1213">RIGHT</text><line style="stroke:#181818;stroke-width:0.5;" x1="908" x2="1032" y1="1224.1975" y2="1224.1975"/></g></a><!--class nz.ac.wgtn.swen225.lc.domain.DomainTest--><a href="DomainTest.html" target="_top" title="DomainTest.html" xlink:actuate="onRequest" xlink:href="DomainTest.html" xlink:show="new" xlink:title="DomainTest.html" xlink:type="simple"><g id="elem_nz.ac.wgtn.swen225.lc.domain.DomainTest"><rect codeLine="40" fill="#F1F1F1" height="558.6719" id="nz.ac.wgtn.swen225.lc.domain.DomainTest" rx="2.5" ry="2.5" style="stroke:#181818;stroke-width:0.5;" width="286" x="483" y="175"/><ellipse cx="583.75" cy="191" fill="#ADD1B2" rx="11" ry="11" style="stroke:#181818;stroke-width:1.0;"/><path d="M586.5156,186.875 Q586.6719,186.6563 586.8594,186.5469 Q587.0469,186.4375 587.2656,186.4375 Q587.6406,186.4375 587.875,186.7031 Q588.1094,186.9531 588.1094,187.5625 L588.1094,189.0156 Q588.1094,189.625 587.875,189.8906 Q587.6406,190.1563 587.2656,190.1563 Q586.9219,190.1563 586.7188,189.9531 Q586.5156,189.7656 586.4063,189.25 Q586.3594,188.8906 586.1719,188.7031 Q585.8438,188.3281 585.2344,188.1094 Q584.625,187.8906 584,187.8906 Q583.2344,187.8906 582.5938,188.2188 Q581.9688,188.5469 581.4688,189.2969 Q580.9844,190.0469 580.9844,191.0781 L580.9844,192.1719 Q580.9844,193.4063 581.875,194.2344 Q582.7656,195.0469 584.3594,195.0469 Q585.2969,195.0469 585.9531,194.7969 Q586.3438,194.6406 586.7656,194.2031 Q587.0313,193.9375 587.1719,193.8594 Q587.3281,193.7813 587.5313,193.7813 Q587.8594,193.7813 588.1094,194.0469 Q588.375,194.2969 588.375,194.6406 Q588.375,194.9844 588.0313,195.3906 Q587.5313,195.9688 586.7344,196.2969 Q585.6563,196.75 584.3594,196.75 Q582.8438,196.75 581.6406,196.125 Q580.6563,195.625 579.9688,194.5625 Q579.2813,193.4844 579.2813,192.2031 L579.2813,191.0469 Q579.2813,189.7188 579.8906,188.5781 Q580.5156,187.4219 581.6094,186.8125 Q582.7031,186.1875 583.9375,186.1875 Q584.6719,186.1875 585.3125,186.3594 Q585.9688,186.5156 586.5156,186.875 Z " fill="#000000"/><text fill="#000000" font-family="sans-serif" font-size="14" lengthAdjust="spacing" textLength="76" x="604.25" y="196.7285">DomainTest</text><line style="stroke:#181818;stroke-width:0.5;" x1="484" x2="768" y1="207" y2="207"/><line style="stroke:#181818;stroke-width:0.5;" x1="484" x2="768" y1="215" y2="215"/><ellipse cx="494" cy="229.3047" fill="#84BE84" rx="3" ry="3" style="stroke:#038048;stroke-width:1.0;"/><text fill="#000000" font-family="sans-serif" font-size="14" lengthAdjust="spacing" textLength="62" x="503" y="233.5332">init(): void</text><ellipse cx="494" cy="246.9141" fill="#84BE84" rx="3" ry="3" style="stroke:#038048;stroke-width:1.0;"/><text fill="#000000" font-family="sans-serif" font-size="14" lengthAdjust="spacing" textLength="105" x="503" y="251.1426">testBoard(): void</text><ellipse cx="494" cy="264.5234" fill="#84BE84" rx="3" ry="3" style="stroke:#038048;stroke-width:1.0;"/><text fill="#000000" font-family="sans-serif" font-size="14" lengthAdjust="spacing" textLength="125" x="503" y="268.752">testMoveLeft(): void</text><ellipse cx="494" cy="282.1328" fill="#84BE84" rx="3" ry="3" style="stroke:#038048;stroke-width:1.0;"/><text fill="#000000" font-family="sans-serif" font-size="14" lengthAdjust="spacing" textLength="161" x="503" y="286.3613">testMoveLeftIllegal(): void</text><ellipse cx="494" cy="299.7422" fill="#84BE84" rx="3" ry="3" style="stroke:#038048;stroke-width:1.0;"/><text fill="#000000" font-family="sans-serif" font-size="14" lengthAdjust="spacing" textLength="134" x="503" y="303.9707">testMoveRight(): void</text><ellipse cx="494" cy="317.3516" fill="#84BE84" rx="3" ry="3" style="stroke:#038048;stroke-width:1.0;"/><text fill="#000000" font-family="sans-serif" font-size="14" lengthAdjust="spacing" textLength="170" x="503" y="321.5801">testMoveRightIllegal(): void</text><ellipse cx="494" cy="334.9609" fill="#84BE84" rx="3" ry="3" style="stroke:#038048;stroke-width:1.0;"/><text fill="#000000" font-family="sans-serif" font-size="14" lengthAdjust="spacing" textLength="136" x="503" y="339.1895">testMoveDown(): void</text><ellipse cx="494" cy="352.5703" fill="#84BE84" rx="3" ry="3" style="stroke:#038048;stroke-width:1.0;"/><text fill="#000000" font-family="sans-serif" font-size="14" lengthAdjust="spacing" textLength="172" x="503" y="356.7988">testMoveDownIllegal(): void</text><ellipse cx="494" cy="370.1797" fill="#84BE84" rx="3" ry="3" style="stroke:#038048;stroke-width:1.0;"/><text fill="#000000" font-family="sans-serif" font-size="14" lengthAdjust="spacing" textLength="118" x="503" y="374.4082">testMoveUp(): void</text><ellipse cx="494" cy="387.7891" fill="#84BE84" rx="3" ry="3" style="stroke:#038048;stroke-width:1.0;"/><text fill="#000000" font-family="sans-serif" font-size="14" lengthAdjust="spacing" textLength="154" x="503" y="392.0176">testMoveUpIllegal(): void</text><ellipse cx="494" cy="405.3984" fill="#84BE84" rx="3" ry="3" style="stroke:#038048;stroke-width:1.0;"/><text fill="#000000" font-family="sans-serif" font-size="14" lengthAdjust="spacing" textLength="134" x="503" y="409.627">testPickUpKey(): void</text><ellipse cx="494" cy="423.0078" fill="#84BE84" rx="3" ry="3" style="stroke:#038048;stroke-width:1.0;"/><text fill="#000000" font-family="sans-serif" font-size="14" lengthAdjust="spacing" textLength="159" x="503" y="427.2363">testCanOpenDoor(): void</text><ellipse cx="494" cy="440.6172" fill="#84BE84" rx="3" ry="3" style="stroke:#038048;stroke-width:1.0;"/><text fill="#000000" font-family="sans-serif" font-size="14" lengthAdjust="spacing" textLength="179" x="503" y="444.8457">testCannotOpenDoor(): void</text><ellipse cx="494" cy="458.2266" fill="#84BE84" rx="3" ry="3" style="stroke:#038048;stroke-width:1.0;"/><text fill="#000000" font-family="sans-serif" font-size="14" lengthAdjust="spacing" textLength="245" x="503" y="462.4551">testCannotOpenDoorWrongKey(): void</text><ellipse cx="494" cy="475.8359" fill="#84BE84" rx="3" ry="3" style="stroke:#038048;stroke-width:1.0;"/><text fill="#000000" font-family="sans-serif" font-size="14" lengthAdjust="spacing" textLength="168" x="503" y="480.0645">testPickUpTreasure(): void</text><ellipse cx="494" cy="493.4453" fill="#84BE84" rx="3" ry="3" style="stroke:#038048;stroke-width:1.0;"/><text fill="#000000" font-family="sans-serif" font-size="14" lengthAdjust="spacing" textLength="148" x="503" y="497.6738">testFullInventory(): void</text><ellipse cx="494" cy="511.0547" fill="#84BE84" rx="3" ry="3" style="stroke:#038048;stroke-width:1.0;"/><text fill="#000000" font-family="sans-serif" font-size="14" lengthAdjust="spacing" textLength="164" x="503" y="515.2832">testEmptyInventory(): void</text><ellipse cx="494" cy="528.6641" fill="#84BE84" rx="3" ry="3" style="stroke:#038048;stroke-width:1.0;"/><text fill="#000000" font-family="sans-serif" font-size="14" lengthAdjust="spacing" textLength="184" x="503" y="532.8926">testMoveWhilePaused(): void</text><ellipse cx="494" cy="546.2734" fill="#84BE84" rx="3" ry="3" style="stroke:#038048;stroke-width:1.0;"/><text fill="#000000" font-family="sans-serif" font-size="14" lengthAdjust="spacing" textLength="131" x="503" y="550.502">testCloneWall(): void</text><ellipse cx="494" cy="563.8828" fill="#84BE84" rx="3" ry="3" style="stroke:#038048;stroke-width:1.0;"/><text fill="#000000" font-family="sans-serif" font-size="14" lengthAdjust="spacing" textLength="134" x="503" y="568.1113">testCloneFree(): void</text><ellipse cx="494" cy="581.4922" fill="#84BE84" rx="3" ry="3" style="stroke:#038048;stroke-width:1.0;"/><text fill="#000000" font-family="sans-serif" font-size="14" lengthAdjust="spacing" textLength="135" x="503" y="585.7207">testCloneDoor(): void</text><ellipse cx="494" cy="599.1016" fill="#84BE84" rx="3" ry="3" style="stroke:#038048;stroke-width:1.0;"/><text fill="#000000" font-family="sans-serif" font-size="14" lengthAdjust="spacing" textLength="151" x="503" y="603.3301">testCloneKeyTile(): void</text><ellipse cx="494" cy="616.7109" fill="#84BE84" rx="3" ry="3" style="stroke:#038048;stroke-width:1.0;"/><text fill="#000000" font-family="sans-serif" font-size="14" lengthAdjust="spacing" textLength="126" x="503" y="620.9395">testCloneExit(): void</text><ellipse cx="494" cy="634.3203" fill="#84BE84" rx="3" ry="3" style="stroke:#038048;stroke-width:1.0;"/><text fill="#000000" font-family="sans-serif" font-size="14" lengthAdjust="spacing" textLength="156" x="503" y="638.5488">testCloneExitLock(): void</text><ellipse cx="494" cy="651.9297" fill="#84BE84" rx="3" ry="3" style="stroke:#038048;stroke-width:1.0;"/><text fill="#000000" font-family="sans-serif" font-size="14" lengthAdjust="spacing" textLength="158" x="503" y="656.1582">testCloneInfoField(): void</text><ellipse cx="494" cy="669.5391" fill="#84BE84" rx="3" ry="3" style="stroke:#038048;stroke-width:1.0;"/><text fill="#000000" font-family="sans-serif" font-size="14" lengthAdjust="spacing" textLength="162" x="503" y="673.7676">testCloneTreasure(): void</text><ellipse cx="494" cy="687.1484" fill="#84BE84" rx="3" ry="3" style="stroke:#038048;stroke-width:1.0;"/><text fill="#000000" font-family="sans-serif" font-size="14" lengthAdjust="spacing" textLength="211" x="503" y="691.377">testIllegalArgumentKeyTile(): void</text><ellipse cx="494" cy="704.7578" fill="#84BE84" rx="3" ry="3" style="stroke:#038048;stroke-width:1.0;"/><text fill="#000000" font-family="sans-serif" font-size="14" lengthAdjust="spacing" textLength="195" x="503" y="708.9863">testIllegalArgumentDoor(): void</text><ellipse cx="494" cy="722.3672" fill="#84BE84" rx="3" ry="3" style="stroke:#038048;stroke-width:1.0;"/><text fill="#000000" font-family="sans-serif" font-size="14" lengthAdjust="spacing" textLength="260" x="503" y="726.5957">testInfoFieldNotReplacedWithFree(): void</text></g></a><!--class nz.ac.wgtn.swen225.lc.domain.IllegalMove--><a href="IllegalMove.html" target="_top" title="IllegalMove.html" xlink:actuate="onRequest" xlink:href="IllegalMove.html" xlink:show="new" xlink:title="IllegalMove.html" xlink:type="simple"><g id="elem_nz.ac.wgtn.swen225.lc.domain.IllegalMove"><rect codeLine="72" fill="#F1F1F1" height="65.6094" id="nz.ac.wgtn.swen225.lc.domain.IllegalMove" rx="2.5" ry="2.5" style="stroke:#181818;stroke-width:0.5;" width="143" x="305.5" y="421.53"/><ellipse cx="338.95" cy="437.53" fill="#ADD1B2" rx="11" ry="11" style="stroke:#181818;stroke-width:1.0;"/><path d="M341.7156,433.405 Q341.8719,433.1863 342.0594,433.0769 Q342.2469,432.9675 342.4656,432.9675 Q342.8406,432.9675 343.075,433.2331 Q343.3094,433.4831 343.3094,434.0925 L343.3094,435.5456 Q343.3094,436.155 343.075,436.4206 Q342.8406,436.6863 342.4656,436.6863 Q342.1219,436.6863 341.9188,436.4831 Q341.7156,436.2956 341.6063,435.78 Q341.5594,435.4206 341.3719,435.2331 Q341.0438,434.8581 340.4344,434.6394 Q339.825,434.4206 339.2,434.4206 Q338.4344,434.4206 337.7938,434.7488 Q337.1688,435.0769 336.6688,435.8269 Q336.1844,436.5769 336.1844,437.6081 L336.1844,438.7019 Q336.1844,439.9363 337.075,440.7644 Q337.9656,441.5769 339.5594,441.5769 Q340.4969,441.5769 341.1531,441.3269 Q341.5438,441.1706 341.9656,440.7331 Q342.2313,440.4675 342.3719,440.3894 Q342.5281,440.3113 342.7313,440.3113 Q343.0594,440.3113 343.3094,440.5769 Q343.575,440.8269 343.575,441.1706 Q343.575,441.5144 343.2313,441.9206 Q342.7313,442.4988 341.9344,442.8269 Q340.8563,443.28 339.5594,443.28 Q338.0438,443.28 336.8406,442.655 Q335.8563,442.155 335.1688,441.0925 Q334.4813,440.0144 334.4813,438.7331 L334.4813,437.5769 Q334.4813,436.2488 335.0906,435.1081 Q335.7156,433.9519 336.8094,433.3425 Q337.9031,432.7175 339.1375,432.7175 Q339.8719,432.7175 340.5125,432.8894 Q341.1688,433.0456 341.7156,433.405 Z " fill="#000000"/><text fill="#000000" font-family="sans-serif" font-size="14" lengthAdjust="spacing" textLength="70" x="357.05" y="443.2585">IllegalMove</text><line style="stroke:#181818;stroke-width:0.5;" x1="306.5" x2="447.5" y1="453.53" y2="453.53"/><line style="stroke:#181818;stroke-width:0.5;" x1="306.5" x2="447.5" y1="461.53" y2="461.53"/><ellipse cx="316.5" cy="475.8347" fill="#84BE84" rx="3" ry="3" style="stroke:#038048;stroke-width:1.0;"/><text fill="#000000" font-family="sans-serif" font-size="14" lengthAdjust="spacing" textLength="117" x="325.5" y="480.0632">IllegalMove(String)</text></g></a><!--class nz.ac.wgtn.swen225.lc.domain.tiles.Tile--><g id="elem_nz.ac.wgtn.swen225.lc.domain.tiles.Tile"><rect fill="#F1F1F1" height="48" id="nz.ac.wgtn.swen225.lc.domain.tiles.Tile" rx="2.5" ry="2.5" style="stroke:#181818;stroke-width:0.5;" width="55" x="97.5" y="1148.98"/><ellipse cx="112.5" cy="1164.98" fill="#ADD1B2" rx="11" ry="11" style="stroke:#181818;stroke-width:1.0;"/><path d="M115.2656,1160.855 Q115.4219,1160.6363 115.6094,1160.5269 Q115.7969,1160.4175 116.0156,1160.4175 Q116.3906,1160.4175 116.625,1160.6831 Q116.8594,1160.9331 116.8594,1161.5425 L116.8594,1162.9956 Q116.8594,1163.605 116.625,1163.8706 Q116.3906,1164.1363 116.0156,1164.1363 Q115.6719,1164.1363 115.4688,1163.9331 Q115.2656,1163.7456 115.1563,1163.23 Q115.1094,1162.8706 114.9219,1162.6831 Q114.5938,1162.3081 113.9844,1162.0894 Q113.375,1161.8706 112.75,1161.8706 Q111.9844,1161.8706 111.3438,1162.1988 Q110.7188,1162.5269 110.2188,1163.2769 Q109.7344,1164.0269 109.7344,1165.0581 L109.7344,1166.1519 Q109.7344,1167.3863 110.625,1168.2144 Q111.5156,1169.0269 113.1094,1169.0269 Q114.0469,1169.0269 114.7031,1168.7769 Q115.0938,1168.6206 115.5156,1168.1831 Q115.7813,1167.9175 115.9219,1167.8394 Q116.0781,1167.7613 116.2813,1167.7613 Q116.6094,1167.7613 116.8594,1168.0269 Q117.125,1168.2769 117.125,1168.6206 Q117.125,1168.9644 116.7813,1169.3706 Q116.2813,1169.9488 115.4844,1170.2769 Q114.4063,1170.73 113.1094,1170.73 Q111.5938,1170.73 110.3906,1170.105 Q109.4063,1169.605 108.7188,1168.5425 Q108.0313,1167.4644 108.0313,1166.1831 L108.0313,1165.0269 Q108.0313,1163.6988 108.6406,1162.5581 Q109.2656,1161.4019 110.3594,1160.7925 Q111.4531,1160.1675 112.6875,1160.1675 Q113.4219,1160.1675 114.0625,1160.3394 Q114.7188,1160.4956 115.2656,1160.855 Z " fill="#000000"/><text fill="#000000" font-family="sans-serif" font-size="14" lengthAdjust="spacing" textLength="23" x="126.5" y="1170.7085">Tile</text><line style="stroke:#181818;stroke-width:0.5;" x1="98.5" x2="151.5" y1="1180.98" y2="1180.98"/><line style="stroke:#181818;stroke-width:0.5;" x1="98.5" x2="151.5" y1="1188.98" y2="1188.98"/></g><!--class nz.ac.wgtn.swen225.lc.domain.tiles.Free--><g id="elem_nz.ac.wgtn.swen225.lc.domain.tiles.Free"><rect fill="#F1F1F1" height="48" id="nz.ac.wgtn.swen225.lc.domain.tiles.Free" rx="2.5" ry="2.5" style="stroke:#181818;stroke-width:0.5;" width="62" x="188" y="1148.98"/><ellipse cx="203" cy="1164.98" fill="#ADD1B2" rx="11" ry="11" style="stroke:#181818;stroke-width:1.0;"/><path d="M205.7656,1160.855 Q205.9219,1160.6363 206.1094,1160.5269 Q206.2969,1160.4175 206.5156,1160.4175 Q206.8906,1160.4175 207.125,1160.6831 Q207.3594,1160.9331 207.3594,1161.5425 L207.3594,1162.9956 Q207.3594,1163.605 207.125,1163.8706 Q206.8906,1164.1363 206.5156,1164.1363 Q206.1719,1164.1363 205.9688,1163.9331 Q205.7656,1163.7456 205.6563,1163.23 Q205.6094,1162.8706 205.4219,1162.6831 Q205.0938,1162.3081 204.4844,1162.0894 Q203.875,1161.8706 203.25,1161.8706 Q202.4844,1161.8706 201.8438,1162.1988 Q201.2188,1162.5269 200.7188,1163.2769 Q200.2344,1164.0269 200.2344,1165.0581 L200.2344,1166.1519 Q200.2344,1167.3863 201.125,1168.2144 Q202.0156,1169.0269 203.6094,1169.0269 Q204.5469,1169.0269 205.2031,1168.7769 Q205.5938,1168.6206 206.0156,1168.1831 Q206.2813,1167.9175 206.4219,1167.8394 Q206.5781,1167.7613 206.7813,1167.7613 Q207.1094,1167.7613 207.3594,1168.0269 Q207.625,1168.2769 207.625,1168.6206 Q207.625,1168.9644 207.2813,1169.3706 Q206.7813,1169.9488 205.9844,1170.2769 Q204.9063,1170.73 203.6094,1170.73 Q202.0938,1170.73 200.8906,1170.105 Q199.9063,1169.605 199.2188,1168.5425 Q198.5313,1167.4644 198.5313,1166.1831 L198.5313,1165.0269 Q198.5313,1163.6988 199.1406,1162.5581 Q199.7656,1161.4019 200.8594,1160.7925 Q201.9531,1160.1675 203.1875,1160.1675 Q203.9219,1160.1675 204.5625,1160.3394 Q205.2188,1160.4956 205.7656,1160.855 Z " fill="#000000"/><text fill="#000000" font-family="sans-serif" font-size="14" lengthAdjust="spacing" textLength="30" x="217" y="1170.7085">Free</text><line style="stroke:#181818;stroke-width:0.5;" x1="189" x2="249" y1="1180.98" y2="1180.98"/><line style="stroke:#181818;stroke-width:0.5;" x1="189" x2="249" y1="1188.98" y2="1188.98"/></g><!--class nz.ac.wgtn.swen225.lc.domain.items.Item--><g id="elem_nz.ac.wgtn.swen225.lc.domain.items.Item"><rect fill="#F1F1F1" height="48" id="nz.ac.wgtn.swen225.lc.domain.items.Item" rx="2.5" ry="2.5" style="stroke:#181818;stroke-width:0.5;" width="58" x="1092" y="1148.98"/><ellipse cx="1107" cy="1164.98" fill="#ADD1B2" rx="11" ry="11" style="stroke:#181818;stroke-width:1.0;"/><path d="M1109.7656,1160.855 Q1109.9219,1160.6363 1110.1094,1160.5269 Q1110.2969,1160.4175 1110.5156,1160.4175 Q1110.8906,1160.4175 1111.125,1160.6831 Q1111.3594,1160.9331 1111.3594,1161.5425 L1111.3594,1162.9956 Q1111.3594,1163.605 1111.125,1163.8706 Q1110.8906,1164.1363 1110.5156,1164.1363 Q1110.1719,1164.1363 1109.9688,1163.9331 Q1109.7656,1163.7456 1109.6563,1163.23 Q1109.6094,1162.8706 1109.4219,1162.6831 Q1109.0938,1162.3081 1108.4844,1162.0894 Q1107.875,1161.8706 1107.25,1161.8706 Q1106.4844,1161.8706 1105.8438,1162.1988 Q1105.2188,1162.5269 1104.7188,1163.2769 Q1104.2344,1164.0269 1104.2344,1165.0581 L1104.2344,1166.1519 Q1104.2344,1167.3863 1105.125,1168.2144 Q1106.0156,1169.0269 1107.6094,1169.0269 Q1108.5469,1169.0269 1109.2031,1168.7769 Q1109.5938,1168.6206 1110.0156,1168.1831 Q1110.2813,1167.9175 1110.4219,1167.8394 Q1110.5781,1167.7613 1110.7813,1167.7613 Q1111.1094,1167.7613 1111.3594,1168.0269 Q1111.625,1168.2769 1111.625,1168.6206 Q1111.625,1168.9644 1111.2813,1169.3706 Q1110.7813,1169.9488 1109.9844,1170.2769 Q1108.9063,1170.73 1107.6094,1170.73 Q1106.0938,1170.73 1104.8906,1170.105 Q1103.9063,1169.605 1103.2188,1168.5425 Q1102.5313,1167.4644 1102.5313,1166.1831 L1102.5313,1165.0269 Q1102.5313,1163.6988 1103.1406,1162.5581 Q1103.7656,1161.4019 1104.8594,1160.7925 Q1105.9531,1160.1675 1107.1875,1160.1675 Q1107.9219,1160.1675 1108.5625,1160.3394 Q1109.2188,1160.4956 1109.7656,1160.855 Z " fill="#000000"/><text fill="#000000" font-family="sans-serif" font-size="14" lengthAdjust="spacing" textLength="26" x="1121" y="1170.7085">Item</text><line style="stroke:#181818;stroke-width:0.5;" x1="1093" x2="1149" y1="1180.98" y2="1180.98"/><line style="stroke:#181818;stroke-width:0.5;" x1="1093" x2="1149" y1="1188.98" y2="1188.98"/></g><!--class java.lang.Exception--><g id="elem_java.lang.Exception"><rect codeLine="88" fill="#F1F1F1" height="48" id="java.lang.Exception" rx="2.5" ry="2.5" style="stroke:#181818;stroke-width:0.5;" width="93" x="330.5" y="42"/><ellipse cx="345.5" cy="58" fill="#ADD1B2" rx="11" ry="11" style="stroke:#181818;stroke-width:1.0;"/><path d="M348.2656,53.875 Q348.4219,53.6563 348.6094,53.5469 Q348.7969,53.4375 349.0156,53.4375 Q349.3906,53.4375 349.625,53.7031 Q349.8594,53.9531 349.8594,54.5625 L349.8594,56.0156 Q349.8594,56.625 349.625,56.8906 Q349.3906,57.1563 349.0156,57.1563 Q348.6719,57.1563 348.4688,56.9531 Q348.2656,56.7656 348.1563,56.25 Q348.1094,55.8906 347.9219,55.7031 Q347.5938,55.3281 346.9844,55.1094 Q346.375,54.8906 345.75,54.8906 Q344.9844,54.8906 344.3438,55.2188 Q343.7188,55.5469 343.2188,56.2969 Q342.7344,57.0469 342.7344,58.0781 L342.7344,59.1719 Q342.7344,60.4063 343.625,61.2344 Q344.5156,62.0469 346.1094,62.0469 Q347.0469,62.0469 347.7031,61.7969 Q348.0938,61.6406 348.5156,61.2031 Q348.7813,60.9375 348.9219,60.8594 Q349.0781,60.7813 349.2813,60.7813 Q349.6094,60.7813 349.8594,61.0469 Q350.125,61.2969 350.125,61.6406 Q350.125,61.9844 349.7813,62.3906 Q349.2813,62.9688 348.4844,63.2969 Q347.4063,63.75 346.1094,63.75 Q344.5938,63.75 343.3906,63.125 Q342.4063,62.625 341.7188,61.5625 Q341.0313,60.4844 341.0313,59.2031 L341.0313,58.0469 Q341.0313,56.7188 341.6406,55.5781 Q342.2656,54.4219 343.3594,53.8125 Q344.4531,53.1875 345.6875,53.1875 Q346.4219,53.1875 347.0625,53.3594 Q347.7188,53.5156 348.2656,53.875 Z " fill="#000000"/><text fill="#000000" font-family="sans-serif" font-size="14" lengthAdjust="spacing" textLength="61" x="359.5" y="63.7285">Exception</text><line style="stroke:#181818;stroke-width:0.5;" x1="331.5" x2="422.5" y1="74" y2="74"/><line style="stroke:#181818;stroke-width:0.5;" x1="331.5" x2="422.5" y1="82" y2="82"/></g><!--link nz.ac.wgtn.swen225.lc.domain.Board to nz.ac.wgtn.swen225.lc.domain.tiles.Tile--><g id="link_nz.ac.wgtn.swen225.lc.domain.Board_nz.ac.wgtn.swen225.lc.domain.tiles.Tile"><path codeLine="76" d="M893.63,540.46 C871.99,599.81 836.62,678.03 786,733.67 C678.57,851.76 287.14,995.44 171,1104.98 C159.13,1116.18 148.6,1130.93 140.61,1143.74 " fill="none" id="nz.ac.wgtn.swen225.lc.domain.Board-to-nz.ac.wgtn.swen225.lc.domain.tiles.Tile" style="stroke:#181818;stroke-width:1.0;"/><polygon fill="#181818" points="137.57,1147.73,145.6663,1142.122,140.1697,1143.459,138.8327,1137.9624,137.57,1147.73" style="stroke:#181818;stroke-width:1.0;"/><text fill="#000000" font-family="sans-serif" font-size="13" lengthAdjust="spacing" textLength="24" x="679" y="929.2151">tiles</text><text fill="#000000" font-family="sans-serif" font-size="13" lengthAdjust="spacing" textLength="5" x="135.1504" y="1138.0061">*</text></g><!--link nz.ac.wgtn.swen225.lc.domain.Board to nz.ac.wgtn.swen225.lc.domain.Chap--><g id="link_nz.ac.wgtn.swen225.lc.domain.Board_nz.ac.wgtn.swen225.lc.domain.Chap"><path codeLine="77" d="M894.56,540.46 C877.59,601.86 856.82,687.08 848,763.67 C847.08,771.62 847.86,773.67 848,781.67 C848.14,789.53 848.32,797.64 848.54,805.81 " fill="none" id="nz.ac.wgtn.swen225.lc.domain.Board-to-nz.ac.wgtn.swen225.lc.domain.Chap" style="stroke:#181818;stroke-width:1.0;"/><polygon fill="#181818" points="848.69,810.47,852.4313,801.3594,848.5472,805.472,844.4346,801.5879,848.69,810.47" style="stroke:#181818;stroke-width:1.0;"/><text fill="#000000" font-family="sans-serif" font-size="13" lengthAdjust="spacing" textLength="28" x="849" y="778.1651">chap</text></g><!--link nz.ac.wgtn.swen225.lc.domain.Chap to nz.ac.wgtn.swen225.lc.domain.Board--><g id="link_nz.ac.wgtn.swen225.lc.domain.Chap_nz.ac.wgtn.swen225.lc.domain.Board"><path codeLine="81" d="M876.85,811.24 C878.7,801.26 880.45,791.3 882,781.67 C894.74,702.4 904.96,611.65 911.58,546 " fill="none" id="nz.ac.wgtn.swen225.lc.domain.Chap-to-nz.ac.wgtn.swen225.lc.domain.Board" style="stroke:#181818;stroke-width:1.0;"/><polygon fill="#181818" points="912.16,541.13,907.2819,549.6859,911.6611,546.105,915.242,550.4842,912.16,541.13" style="stroke:#181818;stroke-width:1.0;"/><text fill="#000000" font-family="sans-serif" font-size="13" lengthAdjust="spacing" textLength="32" x="885" y="778.1651">board</text></g><!--link nz.ac.wgtn.swen225.lc.domain.Chap to nz.ac.wgtn.swen225.lc.domain.Chap.State--><g id="link_nz.ac.wgtn.swen225.lc.domain.Chap_nz.ac.wgtn.swen225.lc.domain.Chap.State"><path codeLine="78" d="M818.36,1036.13 C816.2,1046.08 814.35,1056.06 813,1065.76 C811.9,1073.69 812.86,1075.76 813,1083.76 C813.13,1091.61 813.33,1099.84 813.57,1107.99 " fill="none" id="nz.ac.wgtn.swen225.lc.domain.Chap-to-nz.ac.wgtn.swen225.lc.domain.Chap.State" style="stroke:#181818;stroke-width:1.0;"/><polygon fill="#181818" points="813.74,1112.62,817.4553,1103.4988,813.5829,1107.6225,809.4593,1103.7501,813.74,1112.62" style="stroke:#181818;stroke-width:1.0;"/><text fill="#000000" font-family="sans-serif" font-size="13" lengthAdjust="spacing" textLength="29" x="814" y="1080.2551">state</text></g><!--reverse link nz.ac.wgtn.swen225.lc.domain.Chap to nz.ac.wgtn.swen225.lc.domain.Chap.State--><g id="link_nz.ac.wgtn.swen225.lc.domain.Chap_nz.ac.wgtn.swen225.lc.domain.Chap.State"><path codeLine="82" d="M852.6,1051.89 C851.48,1062.72 849.98,1073.46 848,1083.76 C846.13,1093.52 843.33,1103.64 840.15,1113.39 " fill="none" id="nz.ac.wgtn.swen225.lc.domain.Chap-backto-nz.ac.wgtn.swen225.lc.domain.Chap.State" style="stroke:#181818;stroke-width:1.0;"/><ellipse cx="853.2966" cy="1044.9799" fill="#FFFFFF" rx="8" ry="8" style="stroke:#181818;stroke-width:1.0;"/><line style="stroke:#181818;stroke-width:1.0;" x1="852.6033" x2="853.99" y1="1052.9498" y2="1037.01"/><line style="stroke:#181818;stroke-width:1.0;" x1="845.3267" x2="861.2665" y1="1044.2865" y2="1045.6733"/></g><!--link nz.ac.wgtn.swen225.lc.domain.Chap to nz.ac.wgtn.swen225.lc.domain.tiles.Free--><g id="link_nz.ac.wgtn.swen225.lc.domain.Chap_nz.ac.wgtn.swen225.lc.domain.tiles.Free"><path codeLine="79" d="M745.09,973.73 C662.59,1009.32 545.16,1055.92 438,1083.76 C373.68,1100.47 349.85,1076.11 290,1104.98 C271.05,1114.12 253.78,1130.16 241.02,1144.25 " fill="none" id="nz.ac.wgtn.swen225.lc.domain.Chap-to-nz.ac.wgtn.swen225.lc.domain.tiles.Free" style="stroke:#181818;stroke-width:1.0;"/><polygon fill="#181818" points="238.21,1147.55,247.1712,1143.4638,241.5247,1143.8067,241.1818,1138.1602,238.21,1147.55" style="stroke:#181818;stroke-width:1.0;"/><text fill="#000000" font-family="sans-serif" font-size="13" lengthAdjust="spacing" textLength="17" x="497" y="1080.2551">tile</text></g><!--link nz.ac.wgtn.swen225.lc.domain.Chap to nz.ac.wgtn.swen225.lc.domain.items.Item--><g id="link_nz.ac.wgtn.swen225.lc.domain.Chap_nz.ac.wgtn.swen225.lc.domain.items.Item"><path codeLine="80" d="M960.77,1021.1 C990.52,1048.04 1022.67,1077.48 1052,1104.98 C1065.68,1117.81 1080.63,1132.28 1093.11,1144.48 " fill="none" id="nz.ac.wgtn.swen225.lc.domain.Chap-to-nz.ac.wgtn.swen225.lc.domain.items.Item" style="stroke:#181818;stroke-width:1.0;"/><polygon fill="#181818" points="1096.25,1147.52,1092.6218,1138.3638,1092.6789,1144.0204,1087.0224,1144.0775,1096.25,1147.52" style="stroke:#181818;stroke-width:1.0;"/><text fill="#000000" font-family="sans-serif" font-size="13" lengthAdjust="spacing" textLength="51" x="1026" y="1080.2551">inventory</text><text fill="#000000" font-family="sans-serif" font-size="13" lengthAdjust="spacing" textLength="5" x="1085.8516" y="1138.1458">*</text></g><!--reverse link nz.ac.wgtn.swen225.lc.domain.Chap to nz.ac.wgtn.swen225.lc.domain.Chap.Direction--><g id="link_nz.ac.wgtn.swen225.lc.domain.Chap_nz.ac.wgtn.swen225.lc.domain.Chap.Direction"><path codeLine="83" d="M912.5,1050.47 C922.9,1072.44 933.25,1094.31 942.24,1113.32 " fill="none" id="nz.ac.wgtn.swen225.lc.domain.Chap-backto-nz.ac.wgtn.swen225.lc.domain.Chap.Direction" style="stroke:#181818;stroke-width:1.0;"/><ellipse cx="909.1076" cy="1044.2785" fill="#FFFFFF" rx="8" ry="8" style="stroke:#181818;stroke-width:1.0;"/><line style="stroke:#181818;stroke-width:1.0;" x1="912.5353" x2="905.68" y1="1051.507" y2="1037.05"/><line style="stroke:#181818;stroke-width:1.0;" x1="901.8791" x2="916.3361" y1="1047.7061" y2="1040.8509"/></g><!--reverse link java.lang.Exception to nz.ac.wgtn.swen225.lc.domain.IllegalMove--><g id="link_java.lang.Exception_nz.ac.wgtn.swen225.lc.domain.IllegalMove"><path codeLine="84" d="M377,111.15 C377,189.71 377,351.97 377,421.05 " fill="none" id="java.lang.Exception-backto-nz.ac.wgtn.swen225.lc.domain.IllegalMove" style="stroke:#181818;stroke-width:1.0;"/><polygon fill="none" points="370,111.29,377,91.29,384,111.29,370,111.29" style="stroke:#181818;stroke-width:1.0;"/></g><text fill="#888888" font-family="sans-serif" font-size="10" lengthAdjust="spacing" textLength="184" x="576.5" y="1264.5809">UMLDoclet 2.1.0, PlantUML 1.2022.14</text><!--SRC=[fLPHRzem47xlhx0wJGfhYRPAUq5L9KQWGwE0MX2RgZvuuHgyEdPa6zgkwt-VxK0QIXpJZGS7-pv_kVjyEHz2236SWinm38Zz3d4StYUAXV8UsCd9vv36uPodc33qT720rh-OOYdH5ux575rVssUuK2czkT4eLFeTMLlG8nGQMuPt0YIeYLuFpD1eePu0sDwRW6el5M_7YWiPQCY0I7LQB9tje2qTOUeOwK7ZpNm7D80LKCEcCHKCARXiDfI902oN0ZfyoTHhvFDhXJeBd6c1pCEXZp45bldOAf2xler9-Gg2Y0Y85U6iCYuyd_SLf84PDE0dvnGmsyO8C4HUs09BBoR6RCeeZ- -w3yIgK8dIJctaCfWL9_CTKR-xrFxXCemfVWInxpa0MwQrQHtQmxbIMC7cfEoa-hoUfBQH-1aTZORde_xmt64TjwTNtSXXx8mkneFkn6cFkkteFs8fCcKJJx7WYsawTdaqcWqTfa6tDt6OBlldNoVkZoEoFaz0AkteoyJneH2MPzfk5YczAIypJlE5Jlm1t2e_eayf99ZM0oz9ib1xGFOYY_WzyoFseffcFhkNPapYksds3HxTa0vcemnOnBce1J6ktegR2SwIsfVd_jMN5OFhBIdjinKmVL7Kq7NJJ3tkWJFgpHQwx8xnKa9DfdKePp33b7eWfjPx81xX34HBPU-yUjIcI7iW0rtFFR0-k-Kz0jGdWFzyredO5iaorU9x0tc5hzUcS7F8rILaLBSsynbHYqhHT-hI-bNco7LXAiqSbQc42AwK82nfL97dtLApUOOEFnpMbt6bfP2X4QI5xFyA4bFPMoZMOs6qtOQnxNdVjP0frV36_RbpHihSkTtjtlY8RYraQ1eCSs-lFxvT7XkiwItqOzjwr6pk6-I_R2mkp6BpBxp28SKi2RiFCMJsTZtzeybAXtzGEl2NbhhOMKgRFCzUc9vA-L8YYRKm8D0jv-OnlHX4FAQWq4duAVnuZ7GZn9HUHUzN8AJc2Hf_0G00]--></g></svg>