<?xml version="1.0" encoding="UTF-8" standalone="no"?><svg xmlns="http://www.w3.org/2000/svg" xmlns:xlink="http://www.w3.org/1999/xlink" contentScriptType="application/ecmascript" contentStyleType="text/css" height="1181px" preserveAspectRatio="none" style="width:1273px;height:1181px;background:#FFFFFF;" version="1.1" viewBox="0 0 1273 1181" width="1273px" zoomAndPan="magnify"><defs><filter height="300%" id="f1upp11c92ie93" width="300%" x="-1" y="-1"><feGaussianBlur result="blurOut" stdDeviation="2.0"/><feColorMatrix in="blurOut" result="blurOut2" type="matrix" values="0 0 0 0 0 0 0 0 0 0 0 0 0 0 0 0 0 0 .4 0"/><feOffset dx="4.0" dy="4.0" in="blurOut2" result="blurOut3"/><feBlend in="SourceGraphic" in2="blurOut3" mode="normal"/></filter></defs><g><!--MD5=[a8970189bb39a092ded2bf845e77f238]
cluster nz.ac.wgtn.swen225.lc.domain--><polygon fill="#FFFFFF" filter="url(#f1upp11c92ie93)" points="300,141.602,517,141.602,524,166.6699,962,166.6699,962,1155.862,300,1155.862,300,141.602" style="stroke:#000000;stroke-width:1.5;"/><line style="stroke:#000000;stroke-width:1.5;" x1="300" x2="524" y1="166.6699" y2="166.6699"/><text fill="#000000" font-family="sans-serif" font-size="14" font-weight="bold" lengthAdjust="spacing" textLength="211" x="304" y="158.5679">nz.ac.wgtn.swen225.lc.domain</text><!--MD5=[10809eba07f71533df2cabafc6025fd9]
cluster nz.ac.wgtn.swen225.lc.domain.tiles--><polygon fill="#FFFFFF" filter="url(#f1upp11c92ie93)" points="16,1003.902,266,1003.902,273,1028.9699,276,1028.9699,276,1145.902,16,1145.902,16,1003.902" style="stroke:#000000;stroke-width:1.5;"/><line style="stroke:#000000;stroke-width:1.5;" x1="16" x2="273" y1="1028.9699" y2="1028.9699"/><text fill="#000000" font-family="sans-serif" font-size="14" font-weight="bold" lengthAdjust="spacing" textLength="244" x="20" y="1020.8679">nz.ac.wgtn.swen225.lc.domain.tiles</text><!--MD5=[2de5152d42c23948cff72f7687e4fe38]
cluster nz.ac.wgtn.swen225.lc.domain.items--><polygon fill="#FFFFFF" filter="url(#f1upp11c92ie93)" points="986,1003.902,1246,1003.902,1253,1028.9699,1256,1028.9699,1256,1145.902,986,1145.902,986,1003.902" style="stroke:#000000;stroke-width:1.5;"/><line style="stroke:#000000;stroke-width:1.5;" x1="986" x2="1253" y1="1028.9699" y2="1028.9699"/><text fill="#000000" font-family="sans-serif" font-size="14" font-weight="bold" lengthAdjust="spacing" textLength="254" x="990" y="1020.8679">nz.ac.wgtn.swen225.lc.domain.items</text><!--MD5=[aa8f7b917213fcc1c2766e2d59b49067]
cluster java.lang--><polygon fill="#FFFFFF" filter="url(#f1upp11c92ie93)" points="319,6.602,387,6.602,394,31.6699,437,31.6699,437,108.602,319,108.602,319,6.602" style="stroke:#000000;stroke-width:1.5;"/><line style="stroke:#000000;stroke-width:1.5;" x1="319" x2="394" y1="31.6699" y2="31.6699"/><text fill="#000000" font-family="sans-serif" font-size="14" font-weight="bold" lengthAdjust="spacing" textLength="62" x="323" y="23.5679">java.lang</text><!--MD5=[8c3c4742037a1c2996560502d672c845]
class nz.ac.wgtn.swen225.lc.domain.Board--><a href="Board.html" target="_top" title="Board.html" xlink:actuate="onRequest" xlink:href="Board.html" xlink:show="new" xlink:title="Board.html" xlink:type="simple"><rect codeLine="3" fill="#FEFECE" filter="url(#f1upp11c92ie93)" height="182.837" id="nz.ac.wgtn.swen225.lc.domain.Board" style="stroke:#A80036;stroke-width:1.5;" width="196" x="750" y="329.422"/><ellipse cx="826.75" cy="345.422" fill="#ADD1B2" rx="11" ry="11" style="stroke:#A80036;stroke-width:1.0;"/><path d="M826.2188,352.3439 Q824.4688,352.3439 823.3281,351.6095 Q822.2031,350.8595 821.6406,349.5157 Q821.0938,348.1564 821.0938,346.3595 Q821.0938,344.3282 821.75,342.8751 Q822.4063,341.422 823.6875,340.6407 Q824.9688,339.8595 826.8438,339.8595 Q827.7344,339.8595 828.4063,340.047 Q829.0781,340.2189 829.7656,340.5626 L828.9531,342.5782 Q828.3281,342.2657 827.7813,342.1407 Q827.25,342.0157 826.7656,342.0157 Q825.5938,342.0157 824.8906,342.547 Q824.1875,343.0782 823.8906,344.0314 Q823.5938,344.9845 823.5938,346.2501 Q823.5938,348.2657 824.3125,349.2345 Q825.0313,350.1876 826.625,350.1876 Q827.2188,350.1876 827.8438,350.0314 Q828.4688,349.8751 829.2969,349.5001 L829.2969,351.7189 Q828.5625,352.0314 827.7656,352.1876 Q826.9844,352.3439 826.2188,352.3439 Z " fill="#000000"/><text fill="#000000" font-family="sans-serif" font-size="12" lengthAdjust="spacing" textLength="34" x="847.25" y="350.078">Board</text><line style="stroke:#A80036;stroke-width:1.5;" x1="751" x2="945" y1="361.422" y2="361.422"/><line style="stroke:#A80036;stroke-width:1.5;" x1="751" x2="945" y1="369.422" y2="369.422"/><ellipse cx="761" cy="380.422" fill="#84BE84" rx="3" ry="3" style="stroke:#038048;stroke-width:1.0;"/><text fill="#000000" font-family="sans-serif" font-size="11" lengthAdjust="spacing" textLength="115" x="770" y="385.1809">Board(File, AudioUnit)</text><polygon fill="#FFFF44" points="761,390.4039,765,394.4039,761,398.4039,757,394.4039" style="stroke:#B38D22;stroke-width:1.0;"/><text fill="#000000" font-family="sans-serif" font-size="11" lengthAdjust="spacing" textLength="97" x="770" y="400.1628">resetTile(Tile): Free</text><ellipse cx="761" cy="410.3858" fill="#84BE84" rx="3" ry="3" style="stroke:#038048;stroke-width:1.0;"/><text fill="#000000" font-family="sans-serif" font-size="11" lengthAdjust="spacing" textLength="170" x="770" y="415.1447">getAutoActors(): List&lt;AutoActor&gt;</text><ellipse cx="761" cy="425.3676" fill="#84BE84" rx="3" ry="3" style="stroke:#038048;stroke-width:1.0;"/><text fill="#000000" font-family="sans-serif" font-size="11" lengthAdjust="spacing" textLength="161" x="770" y="430.1266">addAutoActor(AutoActor): void</text><ellipse cx="761" cy="440.3495" fill="#84BE84" rx="3" ry="3" style="stroke:#038048;stroke-width:1.0;"/><text fill="#000000" font-family="sans-serif" font-size="11" lengthAdjust="spacing" textLength="99" x="770" y="445.1084">getTile(int, int): Tile</text><ellipse cx="761" cy="455.3314" fill="#84BE84" rx="3" ry="3" style="stroke:#038048;stroke-width:1.0;"/><text fill="#000000" font-family="sans-serif" font-size="11" lengthAdjust="spacing" textLength="70" x="770" y="460.0903">getLevel(): int</text><ellipse cx="761" cy="470.3133" fill="#84BE84" rx="3" ry="3" style="stroke:#038048;stroke-width:1.0;"/><text fill="#000000" font-family="sans-serif" font-size="11" lengthAdjust="spacing" textLength="68" x="770" y="475.0722">getTime(): int</text><ellipse cx="761" cy="485.2952" fill="#84BE84" rx="3" ry="3" style="stroke:#038048;stroke-width:1.0;"/><text fill="#000000" font-family="sans-serif" font-size="11" lengthAdjust="spacing" textLength="153" x="770" y="490.0541">getBoardTreasureCount(): int</text><ellipse cx="761" cy="500.2771" fill="#84BE84" rx="3" ry="3" style="stroke:#038048;stroke-width:1.0;"/><text fill="#000000" font-family="sans-serif" font-size="11" lengthAdjust="spacing" textLength="135" x="770" y="505.036">getAudioUnit(): AudioUnit</text></a><!--MD5=[a432de8e576bd65c39c91dcbb783f2e6]
class nz.ac.wgtn.swen225.lc.domain.Chap--><a href="Chap.html" target="_top" title="Chap.html" xlink:actuate="onRequest" xlink:href="Chap.html" xlink:show="new" xlink:title="Chap.html" xlink:type="simple"><rect codeLine="15" fill="#FEFECE" filter="url(#f1upp11c92ie93)" height="197.8189" id="nz.ac.wgtn.swen225.lc.domain.Chap" style="stroke:#A80036;stroke-width:1.5;" width="180" x="695" y="741.082"/><ellipse cx="766.25" cy="757.082" fill="#ADD1B2" rx="11" ry="11" style="stroke:#A80036;stroke-width:1.0;"/><path d="M765.7188,764.0039 Q763.9688,764.0039 762.8281,763.2695 Q761.7031,762.5195 761.1406,761.1757 Q760.5938,759.8164 760.5938,758.0195 Q760.5938,755.9882 761.25,754.5351 Q761.9063,753.082 763.1875,752.3007 Q764.4688,751.5195 766.3438,751.5195 Q767.2344,751.5195 767.9063,751.707 Q768.5781,751.8789 769.2656,752.2226 L768.4531,754.2382 Q767.8281,753.9257 767.2813,753.8007 Q766.75,753.6757 766.2656,753.6757 Q765.0938,753.6757 764.3906,754.207 Q763.6875,754.7382 763.3906,755.6914 Q763.0938,756.6445 763.0938,757.9101 Q763.0938,759.9257 763.8125,760.8945 Q764.5313,761.8476 766.125,761.8476 Q766.7188,761.8476 767.3438,761.6914 Q767.9688,761.5351 768.7969,761.1601 L768.7969,763.3789 Q768.0625,763.6914 767.2656,763.8476 Q766.4844,764.0039 765.7188,764.0039 Z " fill="#000000"/><text fill="#000000" font-family="sans-serif" font-size="12" lengthAdjust="spacing" textLength="29" x="786.75" y="761.738">Chap</text><line style="stroke:#A80036;stroke-width:1.5;" x1="696" x2="874" y1="773.082" y2="773.082"/><line style="stroke:#A80036;stroke-width:1.5;" x1="696" x2="874" y1="781.082" y2="781.082"/><ellipse cx="706" cy="792.082" fill="#84BE84" rx="3" ry="3" style="stroke:#038048;stroke-width:1.0;"/><text fill="#000000" font-family="sans-serif" font-size="11" lengthAdjust="spacing" textLength="114" x="715" y="796.8409">Chap(Board, Free, int)</text><ellipse cx="706" cy="807.0639" fill="#84BE84" rx="3" ry="3" style="stroke:#038048;stroke-width:1.0;"/><text fill="#000000" font-family="sans-serif" font-size="11" lengthAdjust="spacing" textLength="107" x="715" y="811.8228">move(Direction): Tile</text><ellipse cx="706" cy="822.0458" fill="#84BE84" rx="3" ry="3" style="stroke:#038048;stroke-width:1.0;"/><text fill="#000000" font-family="sans-serif" font-size="11" lengthAdjust="spacing" textLength="123" x="715" y="826.8047">addItem(Item): boolean</text><ellipse cx="706" cy="837.0276" fill="#84BE84" rx="3" ry="3" style="stroke:#038048;stroke-width:1.0;"/><text fill="#000000" font-family="sans-serif" font-size="11" lengthAdjust="spacing" textLength="143" x="715" y="841.7866">removeItem(Item): boolean</text><ellipse cx="706" cy="852.0095" fill="#84BE84" rx="3" ry="3" style="stroke:#038048;stroke-width:1.0;"/><text fill="#000000" font-family="sans-serif" font-size="11" lengthAdjust="spacing" textLength="121" x="715" y="856.7684">hasItem(Item): boolean</text><ellipse cx="706" cy="866.9914" fill="#84BE84" rx="3" ry="3" style="stroke:#038048;stroke-width:1.0;"/><text fill="#000000" font-family="sans-serif" font-size="11" lengthAdjust="spacing" textLength="128" x="715" y="871.7503">canUnlockExit(): boolean</text><ellipse cx="706" cy="881.9733" fill="#84BE84" rx="3" ry="3" style="stroke:#038048;stroke-width:1.0;"/><text fill="#000000" font-family="sans-serif" font-size="11" lengthAdjust="spacing" textLength="101" x="715" y="886.7322">addTreasure(): void</text><ellipse cx="706" cy="896.9552" fill="#84BE84" rx="3" ry="3" style="stroke:#038048;stroke-width:1.0;"/><text fill="#000000" font-family="sans-serif" font-size="11" lengthAdjust="spacing" textLength="49" x="715" y="901.7141">getX(): int</text><ellipse cx="706" cy="911.9371" fill="#84BE84" rx="3" ry="3" style="stroke:#038048;stroke-width:1.0;"/><text fill="#000000" font-family="sans-serif" font-size="11" lengthAdjust="spacing" textLength="49" x="715" y="916.696">getY(): int</text><ellipse cx="706" cy="926.919" fill="#84BE84" rx="3" ry="3" style="stroke:#038048;stroke-width:1.0;"/><text fill="#000000" font-family="sans-serif" font-size="11" lengthAdjust="spacing" textLength="154" x="715" y="931.6779">getPlayerTreasureCount(): int</text></a><!--MD5=[88e60c564a3b2c176a47d4f878f8db1c]
class nz.ac.wgtn.swen225.lc.domain.Chap.State--><a href="Chap.State.html" target="_top" title="Chap.State.html" xlink:actuate="onRequest" xlink:href="Chap.State.html" xlink:show="new" xlink:title="Chap.State.html" xlink:type="simple"><rect codeLine="28" fill="#FEFECE" filter="url(#f1upp11c92ie93)" height="107.9276" id="nz.ac.wgtn.swen225.lc.domain.Chap.State" style="stroke:#A80036;stroke-width:1.5;" width="93" x="700.5" y="1031.932"/><ellipse cx="715.5" cy="1047.932" fill="#EB937F" rx="11" ry="11" style="stroke:#A80036;stroke-width:1.0;"/><path d="M711.8594,1054.432 L711.8594,1042.2914 L719.5156,1042.2914 L719.5156,1044.4164 L714.2344,1044.4164 L714.2344,1047.0726 L719.25,1047.0726 L719.25,1049.1976 L714.2344,1049.1976 L714.2344,1052.307 L719.5156,1052.307 L719.5156,1054.432 L711.8594,1054.432 Z " fill="#000000"/><text fill="#000000" font-family="sans-serif" font-size="12" lengthAdjust="spacing" textLength="61" x="729.5" y="1052.588">Chap.State</text><line style="stroke:#A80036;stroke-width:1.5;" x1="701.5" x2="792.5" y1="1063.932" y2="1063.932"/><ellipse cx="711.5" cy="1074.932" rx="3" ry="3" style="stroke:#038048;stroke-width:1.0;fill:none;"/><text fill="#000000" font-family="sans-serif" font-size="11" lengthAdjust="spacing" text-decoration="underline" textLength="54" x="720.5" y="1079.6909">ONGOING</text><ellipse cx="711.5" cy="1089.9139" rx="3" ry="3" style="stroke:#038048;stroke-width:1.0;fill:none;"/><text fill="#000000" font-family="sans-serif" font-size="11" lengthAdjust="spacing" text-decoration="underline" textLength="42" x="720.5" y="1094.6728">PAUSED</text><ellipse cx="711.5" cy="1104.8958" rx="3" ry="3" style="stroke:#038048;stroke-width:1.0;fill:none;"/><text fill="#000000" font-family="sans-serif" font-size="11" lengthAdjust="spacing" text-decoration="underline" textLength="65" x="720.5" y="1109.6547">COMPLETED</text><ellipse cx="711.5" cy="1119.8776" rx="3" ry="3" style="stroke:#038048;stroke-width:1.0;fill:none;"/><text fill="#000000" font-family="sans-serif" font-size="11" lengthAdjust="spacing" text-decoration="underline" textLength="29" x="720.5" y="1124.6366">DEAD</text><line style="stroke:#A80036;stroke-width:1.5;" x1="701.5" x2="792.5" y1="1131.8595" y2="1131.8595"/></a><!--MD5=[2705da881d125b32fc41d8eb57393c2c]
class nz.ac.wgtn.swen225.lc.domain.Chap.Direction--><a href="Chap.Direction.html" target="_top" title="Chap.Direction.html" xlink:actuate="onRequest" xlink:href="Chap.Direction.html" xlink:show="new" xlink:title="Chap.Direction.html" xlink:type="simple"><rect codeLine="35" fill="#FEFECE" filter="url(#f1upp11c92ie93)" height="107.9276" id="nz.ac.wgtn.swen225.lc.domain.Chap.Direction" style="stroke:#A80036;stroke-width:1.5;" width="115" x="828.5" y="1031.932"/><ellipse cx="843.5" cy="1047.932" fill="#EB937F" rx="11" ry="11" style="stroke:#A80036;stroke-width:1.0;"/><path d="M839.8594,1054.432 L839.8594,1042.2914 L847.5156,1042.2914 L847.5156,1044.4164 L842.2344,1044.4164 L842.2344,1047.0726 L847.25,1047.0726 L847.25,1049.1976 L842.2344,1049.1976 L842.2344,1052.307 L847.5156,1052.307 L847.5156,1054.432 L839.8594,1054.432 Z " fill="#000000"/><text fill="#000000" font-family="sans-serif" font-size="12" lengthAdjust="spacing" textLength="83" x="857.5" y="1052.588">Chap.Direction</text><line style="stroke:#A80036;stroke-width:1.5;" x1="829.5" x2="942.5" y1="1063.932" y2="1063.932"/><ellipse cx="839.5" cy="1074.932" rx="3" ry="3" style="stroke:#038048;stroke-width:1.0;fill:none;"/><text fill="#000000" font-family="sans-serif" font-size="11" lengthAdjust="spacing" text-decoration="underline" textLength="15" x="848.5" y="1079.6909">UP</text><ellipse cx="839.5" cy="1089.9139" rx="3" ry="3" style="stroke:#038048;stroke-width:1.0;fill:none;"/><text fill="#000000" font-family="sans-serif" font-size="11" lengthAdjust="spacing" text-decoration="underline" textLength="35" x="848.5" y="1094.6728">DOWN</text><ellipse cx="839.5" cy="1104.8958" rx="3" ry="3" style="stroke:#038048;stroke-width:1.0;fill:none;"/><text fill="#000000" font-family="sans-serif" font-size="11" lengthAdjust="spacing" text-decoration="underline" textLength="24" x="848.5" y="1109.6547">LEFT</text><ellipse cx="839.5" cy="1119.8776" rx="3" ry="3" style="stroke:#038048;stroke-width:1.0;fill:none;"/><text fill="#000000" font-family="sans-serif" font-size="11" lengthAdjust="spacing" text-decoration="underline" textLength="33" x="848.5" y="1124.6366">RIGHT</text><line style="stroke:#A80036;stroke-width:1.5;" x1="829.5" x2="942.5" y1="1131.8595" y2="1131.8595"/></a><!--MD5=[ded18389382344912cbae1820c762940]
class nz.ac.wgtn.swen225.lc.domain.DomainTest--><a href="DomainTest.html" target="_top" title="DomainTest.html" xlink:actuate="onRequest" xlink:href="DomainTest.html" xlink:show="new" xlink:title="DomainTest.html" xlink:type="simple"><rect codeLine="42" fill="#FEFECE" filter="url(#f1upp11c92ie93)" height="482.4747" id="nz.ac.wgtn.swen225.lc.domain.DomainTest" style="stroke:#A80036;stroke-width:1.5;" width="240" x="475" y="179.602"/><ellipse cx="556.75" cy="195.602" fill="#ADD1B2" rx="11" ry="11" style="stroke:#A80036;stroke-width:1.0;"/><path d="M556.2188,202.5239 Q554.4688,202.5239 553.3281,201.7895 Q552.2031,201.0395 551.6406,199.6957 Q551.0938,198.3364 551.0938,196.5395 Q551.0938,194.5082 551.75,193.0551 Q552.4063,191.602 553.6875,190.8207 Q554.9688,190.0395 556.8438,190.0395 Q557.7344,190.0395 558.4063,190.227 Q559.0781,190.3989 559.7656,190.7426 L558.9531,192.7582 Q558.3281,192.4457 557.7813,192.3207 Q557.25,192.1957 556.7656,192.1957 Q555.5938,192.1957 554.8906,192.727 Q554.1875,193.2582 553.8906,194.2114 Q553.5938,195.1645 553.5938,196.4301 Q553.5938,198.4457 554.3125,199.4145 Q555.0313,200.3676 556.625,200.3676 Q557.2188,200.3676 557.8438,200.2114 Q558.4688,200.0551 559.2969,199.6801 L559.2969,201.8989 Q558.5625,202.2114 557.7656,202.3676 Q556.9844,202.5239 556.2188,202.5239 Z " fill="#000000"/><text fill="#000000" font-family="sans-serif" font-size="12" lengthAdjust="spacing" textLength="68" x="577.25" y="200.258">DomainTest</text><line style="stroke:#A80036;stroke-width:1.5;" x1="476" x2="714" y1="211.602" y2="211.602"/><line style="stroke:#A80036;stroke-width:1.5;" x1="476" x2="714" y1="219.602" y2="219.602"/><ellipse cx="486" cy="230.602" fill="#84BE84" rx="3" ry="3" style="stroke:#038048;stroke-width:1.0;"/><text fill="#000000" font-family="sans-serif" font-size="11" lengthAdjust="spacing" textLength="52" x="495" y="235.3609">init(): void</text><ellipse cx="486" cy="245.5839" fill="#84BE84" rx="3" ry="3" style="stroke:#038048;stroke-width:1.0;"/><text fill="#000000" font-family="sans-serif" font-size="11" lengthAdjust="spacing" textLength="86" x="495" y="250.3428">testBoard(): void</text><ellipse cx="486" cy="260.5658" fill="#84BE84" rx="3" ry="3" style="stroke:#038048;stroke-width:1.0;"/><text fill="#000000" font-family="sans-serif" font-size="11" lengthAdjust="spacing" textLength="103" x="495" y="265.3247">testMoveLeft(): void</text><ellipse cx="486" cy="275.5476" fill="#84BE84" rx="3" ry="3" style="stroke:#038048;stroke-width:1.0;"/><text fill="#000000" font-family="sans-serif" font-size="11" lengthAdjust="spacing" textLength="135" x="495" y="280.3066">testMoveLeftIllegal(): void</text><ellipse cx="486" cy="290.5295" fill="#84BE84" rx="3" ry="3" style="stroke:#038048;stroke-width:1.0;"/><text fill="#000000" font-family="sans-serif" font-size="11" lengthAdjust="spacing" textLength="111" x="495" y="295.2884">testMoveRight(): void</text><ellipse cx="486" cy="305.5114" fill="#84BE84" rx="3" ry="3" style="stroke:#038048;stroke-width:1.0;"/><text fill="#000000" font-family="sans-serif" font-size="11" lengthAdjust="spacing" textLength="143" x="495" y="310.2703">testMoveRightIllegal(): void</text><ellipse cx="486" cy="320.4933" fill="#84BE84" rx="3" ry="3" style="stroke:#038048;stroke-width:1.0;"/><text fill="#000000" font-family="sans-serif" font-size="11" lengthAdjust="spacing" textLength="114" x="495" y="325.2522">testMoveDown(): void</text><ellipse cx="486" cy="335.4752" fill="#84BE84" rx="3" ry="3" style="stroke:#038048;stroke-width:1.0;"/><text fill="#000000" font-family="sans-serif" font-size="11" lengthAdjust="spacing" textLength="146" x="495" y="340.2341">testMoveDownIllegal(): void</text><ellipse cx="486" cy="350.4571" fill="#84BE84" rx="3" ry="3" style="stroke:#038048;stroke-width:1.0;"/><text fill="#000000" font-family="sans-serif" font-size="11" lengthAdjust="spacing" textLength="98" x="495" y="355.216">testMoveUp(): void</text><ellipse cx="486" cy="365.439" fill="#84BE84" rx="3" ry="3" style="stroke:#038048;stroke-width:1.0;"/><text fill="#000000" font-family="sans-serif" font-size="11" lengthAdjust="spacing" textLength="130" x="495" y="370.1979">testMoveUpIllegal(): void</text><ellipse cx="486" cy="380.4209" fill="#84BE84" rx="3" ry="3" style="stroke:#038048;stroke-width:1.0;"/><text fill="#000000" font-family="sans-serif" font-size="11" lengthAdjust="spacing" textLength="109" x="495" y="385.1798">testPickUpKey(): void</text><ellipse cx="486" cy="395.4027" fill="#84BE84" rx="3" ry="3" style="stroke:#038048;stroke-width:1.0;"/><text fill="#000000" font-family="sans-serif" font-size="11" lengthAdjust="spacing" textLength="130" x="495" y="400.1617">testCanOpenDoor(): void</text><ellipse cx="486" cy="410.3846" fill="#84BE84" rx="3" ry="3" style="stroke:#038048;stroke-width:1.0;"/><text fill="#000000" font-family="sans-serif" font-size="11" lengthAdjust="spacing" textLength="148" x="495" y="415.1435">testCannotOpenDoor(): void</text><ellipse cx="486" cy="425.3665" fill="#84BE84" rx="3" ry="3" style="stroke:#038048;stroke-width:1.0;"/><text fill="#000000" font-family="sans-serif" font-size="11" lengthAdjust="spacing" textLength="203" x="495" y="430.1254">testCannotOpenDoorWrongKey(): void</text><ellipse cx="486" cy="440.3484" fill="#84BE84" rx="3" ry="3" style="stroke:#038048;stroke-width:1.0;"/><text fill="#000000" font-family="sans-serif" font-size="11" lengthAdjust="spacing" textLength="136" x="495" y="445.1073">testPickUpTreasure(): void</text><ellipse cx="486" cy="455.3303" fill="#84BE84" rx="3" ry="3" style="stroke:#038048;stroke-width:1.0;"/><text fill="#000000" font-family="sans-serif" font-size="11" lengthAdjust="spacing" textLength="125" x="495" y="460.0892">testFullInventory(): void</text><ellipse cx="486" cy="470.3122" fill="#84BE84" rx="3" ry="3" style="stroke:#038048;stroke-width:1.0;"/><text fill="#000000" font-family="sans-serif" font-size="11" lengthAdjust="spacing" textLength="139" x="495" y="475.0711">testEmptyInventory(): void</text><ellipse cx="486" cy="485.2941" fill="#84BE84" rx="3" ry="3" style="stroke:#038048;stroke-width:1.0;"/><text fill="#000000" font-family="sans-serif" font-size="11" lengthAdjust="spacing" textLength="150" x="495" y="490.053">testMoveWhilePaused(): void</text><ellipse cx="486" cy="500.276" fill="#84BE84" rx="3" ry="3" style="stroke:#038048;stroke-width:1.0;"/><text fill="#000000" font-family="sans-serif" font-size="11" lengthAdjust="spacing" textLength="106" x="495" y="505.0349">testCloneWall(): void</text><ellipse cx="486" cy="515.2579" fill="#84BE84" rx="3" ry="3" style="stroke:#038048;stroke-width:1.0;"/><text fill="#000000" font-family="sans-serif" font-size="11" lengthAdjust="spacing" textLength="107" x="495" y="520.0168">testCloneFree(): void</text><ellipse cx="486" cy="530.2397" fill="#84BE84" rx="3" ry="3" style="stroke:#038048;stroke-width:1.0;"/><text fill="#000000" font-family="sans-serif" font-size="11" lengthAdjust="spacing" textLength="111" x="495" y="534.9987">testCloneDoor(): void</text><ellipse cx="486" cy="545.2216" fill="#84BE84" rx="3" ry="3" style="stroke:#038048;stroke-width:1.0;"/><text fill="#000000" font-family="sans-serif" font-size="11" lengthAdjust="spacing" textLength="121" x="495" y="549.9805">testCloneKeyTile(): void</text><ellipse cx="486" cy="560.2035" fill="#84BE84" rx="3" ry="3" style="stroke:#038048;stroke-width:1.0;"/><text fill="#000000" font-family="sans-serif" font-size="11" lengthAdjust="spacing" textLength="103" x="495" y="564.9624">testCloneExit(): void</text><ellipse cx="486" cy="575.1854" fill="#84BE84" rx="3" ry="3" style="stroke:#038048;stroke-width:1.0;"/><text fill="#000000" font-family="sans-serif" font-size="11" lengthAdjust="spacing" textLength="127" x="495" y="579.9443">testCloneExitLock(): void</text><ellipse cx="486" cy="590.1673" fill="#84BE84" rx="3" ry="3" style="stroke:#038048;stroke-width:1.0;"/><text fill="#000000" font-family="sans-serif" font-size="11" lengthAdjust="spacing" textLength="131" x="495" y="594.9262">testCloneInfoField(): void</text><ellipse cx="486" cy="605.1492" fill="#84BE84" rx="3" ry="3" style="stroke:#038048;stroke-width:1.0;"/><text fill="#000000" font-family="sans-serif" font-size="11" lengthAdjust="spacing" textLength="130" x="495" y="609.9081">testCloneTreasure(): void</text><ellipse cx="486" cy="620.1311" fill="#84BE84" rx="3" ry="3" style="stroke:#038048;stroke-width:1.0;"/><text fill="#000000" font-family="sans-serif" font-size="11" lengthAdjust="spacing" textLength="176" x="495" y="624.89">testIllegalArgumentKeyTile(): void</text><ellipse cx="486" cy="635.113" fill="#84BE84" rx="3" ry="3" style="stroke:#038048;stroke-width:1.0;"/><text fill="#000000" font-family="sans-serif" font-size="11" lengthAdjust="spacing" textLength="166" x="495" y="639.8719">testIllegalArgumentDoor(): void</text><ellipse cx="486" cy="650.0948" fill="#84BE84" rx="3" ry="3" style="stroke:#038048;stroke-width:1.0;"/><text fill="#000000" font-family="sans-serif" font-size="11" lengthAdjust="spacing" textLength="214" x="495" y="654.8538">testInfoFieldNotReplacedWithFree(): void</text></a><!--MD5=[0381bfc557782767b77a4a6d26ead892]
class nz.ac.wgtn.swen225.lc.domain.IllegalMove--><a href="IllegalMove.html" target="_top" title="IllegalMove.html" xlink:actuate="onRequest" xlink:href="IllegalMove.html" xlink:show="new" xlink:title="IllegalMove.html" xlink:type="simple"><rect codeLine="74" fill="#FEFECE" filter="url(#f1upp11c92ie93)" height="62.9819" id="nz.ac.wgtn.swen225.lc.domain.IllegalMove" style="stroke:#A80036;stroke-width:1.5;" width="125" x="315.5" y="389.352"/><ellipse cx="343.1" cy="405.352" fill="#ADD1B2" rx="11" ry="11" style="stroke:#A80036;stroke-width:1.0;"/><path d="M342.5688,412.2739 Q340.8188,412.2739 339.6781,411.5395 Q338.5531,410.7895 337.9906,409.4457 Q337.4438,408.0864 337.4438,406.2895 Q337.4438,404.2582 338.1,402.8051 Q338.7563,401.352 340.0375,400.5707 Q341.3188,399.7895 343.1938,399.7895 Q344.0844,399.7895 344.7563,399.977 Q345.4281,400.1489 346.1156,400.4926 L345.3031,402.5082 Q344.6781,402.1957 344.1313,402.0707 Q343.6,401.9457 343.1156,401.9457 Q341.9438,401.9457 341.2406,402.477 Q340.5375,403.0082 340.2406,403.9614 Q339.9438,404.9145 339.9438,406.1801 Q339.9438,408.1957 340.6625,409.1645 Q341.3813,410.1176 342.975,410.1176 Q343.5688,410.1176 344.1938,409.9614 Q344.8188,409.8051 345.6469,409.4301 L345.6469,411.6489 Q344.9125,411.9614 344.1156,412.1176 Q343.3344,412.2739 342.5688,412.2739 Z " fill="#000000"/><text fill="#000000" font-family="sans-serif" font-size="12" lengthAdjust="spacing" textLength="65" x="359.9" y="410.008">IllegalMove</text><line style="stroke:#A80036;stroke-width:1.5;" x1="316.5" x2="439.5" y1="421.352" y2="421.352"/><line style="stroke:#A80036;stroke-width:1.5;" x1="316.5" x2="439.5" y1="429.352" y2="429.352"/><ellipse cx="326.5" cy="440.352" fill="#84BE84" rx="3" ry="3" style="stroke:#038048;stroke-width:1.0;"/><text fill="#000000" font-family="sans-serif" font-size="11" lengthAdjust="spacing" textLength="99" x="335.5" y="445.1109">IllegalMove(String)</text></a><!--MD5=[02a1b30ec222ca2553512277ee8b5041]
class nz.ac.wgtn.swen225.lc.domain.tiles.Tile--><rect fill="#FEFECE" filter="url(#f1upp11c92ie93)" height="48" id="nz.ac.wgtn.swen225.lc.domain.tiles.Tile" style="stroke:#A80036;stroke-width:1.5;" width="52" x="91" y="1061.902"/><ellipse cx="106" cy="1077.902" fill="#ADD1B2" rx="11" ry="11" style="stroke:#A80036;stroke-width:1.0;"/><path d="M105.4688,1084.8239 Q103.7188,1084.8239 102.5781,1084.0895 Q101.4531,1083.3395 100.8906,1081.9957 Q100.3438,1080.6364 100.3438,1078.8395 Q100.3438,1076.8082 101,1075.3551 Q101.6563,1073.902 102.9375,1073.1207 Q104.2188,1072.3395 106.0938,1072.3395 Q106.9844,1072.3395 107.6563,1072.527 Q108.3281,1072.6989 109.0156,1073.0426 L108.2031,1075.0582 Q107.5781,1074.7457 107.0313,1074.6207 Q106.5,1074.4957 106.0156,1074.4957 Q104.8438,1074.4957 104.1406,1075.027 Q103.4375,1075.5582 103.1406,1076.5114 Q102.8438,1077.4645 102.8438,1078.7301 Q102.8438,1080.7457 103.5625,1081.7145 Q104.2813,1082.6676 105.875,1082.6676 Q106.4688,1082.6676 107.0938,1082.5114 Q107.7188,1082.3551 108.5469,1081.9801 L108.5469,1084.1989 Q107.8125,1084.5114 107.0156,1084.6676 Q106.2344,1084.8239 105.4688,1084.8239 Z " fill="#000000"/><text fill="#000000" font-family="sans-serif" font-size="12" lengthAdjust="spacing" textLength="20" x="120" y="1082.558">Tile</text><line style="stroke:#A80036;stroke-width:1.5;" x1="92" x2="142" y1="1093.902" y2="1093.902"/><line style="stroke:#A80036;stroke-width:1.5;" x1="92" x2="142" y1="1101.902" y2="1101.902"/><!--MD5=[90edbd7303723afe0a7c1ad75ffbeaa2]
class nz.ac.wgtn.swen225.lc.domain.tiles.Free--><rect fill="#FEFECE" filter="url(#f1upp11c92ie93)" height="48" id="nz.ac.wgtn.swen225.lc.domain.tiles.Free" style="stroke:#A80036;stroke-width:1.5;" width="57" x="202.5" y="1061.902"/><ellipse cx="217.5" cy="1077.902" fill="#ADD1B2" rx="11" ry="11" style="stroke:#A80036;stroke-width:1.0;"/><path d="M216.9688,1084.8239 Q215.2188,1084.8239 214.0781,1084.0895 Q212.9531,1083.3395 212.3906,1081.9957 Q211.8438,1080.6364 211.8438,1078.8395 Q211.8438,1076.8082 212.5,1075.3551 Q213.1563,1073.902 214.4375,1073.1207 Q215.7188,1072.3395 217.5938,1072.3395 Q218.4844,1072.3395 219.1563,1072.527 Q219.8281,1072.6989 220.5156,1073.0426 L219.7031,1075.0582 Q219.0781,1074.7457 218.5313,1074.6207 Q218,1074.4957 217.5156,1074.4957 Q216.3438,1074.4957 215.6406,1075.027 Q214.9375,1075.5582 214.6406,1076.5114 Q214.3438,1077.4645 214.3438,1078.7301 Q214.3438,1080.7457 215.0625,1081.7145 Q215.7813,1082.6676 217.375,1082.6676 Q217.9688,1082.6676 218.5938,1082.5114 Q219.2188,1082.3551 220.0469,1081.9801 L220.0469,1084.1989 Q219.3125,1084.5114 218.5156,1084.6676 Q217.7344,1084.8239 216.9688,1084.8239 Z " fill="#000000"/><text fill="#000000" font-family="sans-serif" font-size="12" lengthAdjust="spacing" textLength="25" x="231.5" y="1082.558">Free</text><line style="stroke:#A80036;stroke-width:1.5;" x1="203.5" x2="258.5" y1="1093.902" y2="1093.902"/><line style="stroke:#A80036;stroke-width:1.5;" x1="203.5" x2="258.5" y1="1101.902" y2="1101.902"/><!--MD5=[79cf4b4ecd0afc17190cd5c850597216]
class nz.ac.wgtn.swen225.lc.domain.items.Item--><rect fill="#FEFECE" filter="url(#f1upp11c92ie93)" height="48" id="nz.ac.wgtn.swen225.lc.domain.items.Item" style="stroke:#A80036;stroke-width:1.5;" width="58" x="1026" y="1061.902"/><ellipse cx="1041" cy="1077.902" fill="#ADD1B2" rx="11" ry="11" style="stroke:#A80036;stroke-width:1.0;"/><path d="M1040.4688,1084.8239 Q1038.7188,1084.8239 1037.5781,1084.0895 Q1036.4531,1083.3395 1035.8906,1081.9957 Q1035.3438,1080.6364 1035.3438,1078.8395 Q1035.3438,1076.8082 1036,1075.3551 Q1036.6563,1073.902 1037.9375,1073.1207 Q1039.2188,1072.3395 1041.0938,1072.3395 Q1041.9844,1072.3395 1042.6563,1072.527 Q1043.3281,1072.6989 1044.0156,1073.0426 L1043.2031,1075.0582 Q1042.5781,1074.7457 1042.0313,1074.6207 Q1041.5,1074.4957 1041.0156,1074.4957 Q1039.8438,1074.4957 1039.1406,1075.027 Q1038.4375,1075.5582 1038.1406,1076.5114 Q1037.8438,1077.4645 1037.8438,1078.7301 Q1037.8438,1080.7457 1038.5625,1081.7145 Q1039.2813,1082.6676 1040.875,1082.6676 Q1041.4688,1082.6676 1042.0938,1082.5114 Q1042.7188,1082.3551 1043.5469,1081.9801 L1043.5469,1084.1989 Q1042.8125,1084.5114 1042.0156,1084.6676 Q1041.2344,1084.8239 1040.4688,1084.8239 Z " fill="#000000"/><text fill="#000000" font-family="sans-serif" font-size="12" lengthAdjust="spacing" textLength="26" x="1055" y="1082.558">Item</text><line style="stroke:#A80036;stroke-width:1.5;" x1="1027" x2="1083" y1="1093.902" y2="1093.902"/><line style="stroke:#A80036;stroke-width:1.5;" x1="1027" x2="1083" y1="1101.902" y2="1101.902"/><!--MD5=[46c05dfe24a0851e179497c4631d3ff2]
class java.lang.Exception--><rect codeLine="90" fill="#FEFECE" filter="url(#f1upp11c92ie93)" height="48" id="java.lang.Exception" style="stroke:#A80036;stroke-width:1.5;" width="86" x="335" y="44.602"/><ellipse cx="350" cy="60.602" fill="#ADD1B2" rx="11" ry="11" style="stroke:#A80036;stroke-width:1.0;"/><path d="M349.4688,67.5239 Q347.7188,67.5239 346.5781,66.7895 Q345.4531,66.0395 344.8906,64.6957 Q344.3438,63.3364 344.3438,61.5395 Q344.3438,59.5082 345,58.0551 Q345.6563,56.602 346.9375,55.8207 Q348.2188,55.0395 350.0938,55.0395 Q350.9844,55.0395 351.6563,55.227 Q352.3281,55.3989 353.0156,55.7426 L352.2031,57.7582 Q351.5781,57.4457 351.0313,57.3207 Q350.5,57.1957 350.0156,57.1957 Q348.8438,57.1957 348.1406,57.727 Q347.4375,58.2582 347.1406,59.2114 Q346.8438,60.1645 346.8438,61.4301 Q346.8438,63.4457 347.5625,64.4145 Q348.2813,65.3676 349.875,65.3676 Q350.4688,65.3676 351.0938,65.2114 Q351.7188,65.0551 352.5469,64.6801 L352.5469,66.8989 Q351.8125,67.2114 351.0156,67.3676 Q350.2344,67.5239 349.4688,67.5239 Z " fill="#000000"/><text fill="#000000" font-family="sans-serif" font-size="12" lengthAdjust="spacing" textLength="54" x="364" y="65.258">Exception</text><line style="stroke:#A80036;stroke-width:1.5;" x1="336" x2="420" y1="76.602" y2="76.602"/><line style="stroke:#A80036;stroke-width:1.5;" x1="336" x2="420" y1="84.602" y2="84.602"/><!--MD5=[d8ee83f2aa47efd675bcc9ddc9b0c7dc]
link nz.ac.wgtn.swen225.lc.domain.Board to nz.ac.wgtn.swen225.lc.domain.tiles.Tile--><path codeLine="78" d="M818.51,512.482 C799.45,560.902 770.88,619.182 732,662.082 C540.73,873.102 396.63,805.302 185,995.902 C164.89,1014.012 146.54,1038.742 133.99,1057.542 " fill="none" id="nz.ac.wgtn.swen225.lc.domain.Board-to-nz.ac.wgtn.swen225.lc.domain.tiles.Tile" style="stroke:#A80036;stroke-width:1.0;"/><polygon fill="#A80036" points="130.92,1061.182,139.2196,1055.8794,133.677,1057.0108,132.5456,1051.4682,130.92,1061.182" style="stroke:#A80036;stroke-width:1.0;"/><text fill="#000000" font-family="sans-serif" font-size="13" lengthAdjust="spacing" textLength="24" x="646" y="845.389">tiles</text><text fill="#000000" font-family="sans-serif" font-size="13" lengthAdjust="spacing" textLength="7" x="126.8506" y="1050.1164">*</text><!--MD5=[1c81e67b2577dba1aac2fbcf0333c37b]
link nz.ac.wgtn.swen225.lc.domain.Board to nz.ac.wgtn.swen225.lc.domain.Chap--><path codeLine="79" d="M812.34,512.632 C793.6,568.942 774.88,643.252 777,711.082 C777.25,718.942 777.58,727.072 777.96,735.242 " fill="none" id="nz.ac.wgtn.swen225.lc.domain.Board-to-nz.ac.wgtn.swen225.lc.domain.Chap" style="stroke:#A80036;stroke-width:1.0;"/><polygon fill="#A80036" points="778.24,739.902,781.7974,730.718,777.9967,734.9079,773.8069,731.1073,778.24,739.902" style="stroke:#A80036;stroke-width:1.0;"/><text fill="#000000" font-family="sans-serif" font-size="13" lengthAdjust="spacing" textLength="29" x="778" y="706.979">chap</text><!--MD5=[5db0a4ca8961dec58bde78da1a624225]
link nz.ac.wgtn.swen225.lc.domain.Chap to nz.ac.wgtn.swen225.lc.domain.Board--><path codeLine="83" d="M806.62,740.682 C808.56,730.702 810.39,720.702 812,711.082 C822.71,647.152 831.71,574.772 838.04,518.412 " fill="none" id="nz.ac.wgtn.swen225.lc.domain.Chap-to-nz.ac.wgtn.swen225.lc.domain.Board" style="stroke:#A80036;stroke-width:1.0;"/><polygon fill="#A80036" points="838.68,513.672,833.6998,522.1689,838.1216,518.6407,841.6498,523.0624,838.68,513.672" style="stroke:#A80036;stroke-width:1.0;"/><text fill="#000000" font-family="sans-serif" font-size="13" lengthAdjust="spacing" textLength="36" x="815" y="706.979">board</text><!--MD5=[4132495fcf5c1cfd01e6c5a5f1c826a1]
link nz.ac.wgtn.swen225.lc.domain.Chap to nz.ac.wgtn.swen225.lc.domain.Chap.State--><path codeLine="80" d="M750.21,939.062 C747.68,949.042 745.53,959.102 744,968.902 C742.7,977.242 743.87,979.452 744,987.902 C744.19,1000.172 744.51,1013.312 744.88,1025.832 " fill="none" id="nz.ac.wgtn.swen225.lc.domain.Chap-to-nz.ac.wgtn.swen225.lc.domain.Chap.State" style="stroke:#A80036;stroke-width:1.0;"/><polygon fill="#A80036" points="745.05,1030.542,748.7913,1021.4314,744.9072,1025.544,740.7946,1021.6599,745.05,1030.542" style="stroke:#A80036;stroke-width:1.0;"/><text fill="#000000" font-family="sans-serif" font-size="13" lengthAdjust="spacing" textLength="30" x="745" y="983.799">state</text><!--MD5=[cf5c7bbb261f1216b4d1ddcb1cd1453f]
reverse link nz.ac.wgtn.swen225.lc.domain.Chap to nz.ac.wgtn.swen225.lc.domain.Chap.State--><path codeLine="84" d="M784.44,954.852 C783.39,966.062 781.95,977.232 780,987.902 C777.36,1002.332 772.99,1017.542 768.29,1031.522 " fill="none" id="nz.ac.wgtn.swen225.lc.domain.Chap-backto-nz.ac.wgtn.swen225.lc.domain.Chap.State" style="stroke:#A80036;stroke-width:1.0;"/><ellipse cx="785.0529" cy="947.9881" fill="#FFFFFF" rx="8" ry="8" style="stroke:#A80036;stroke-width:1.0;"/><line style="stroke:#A80036;stroke-width:1.0;" x1="784.4359" x2="785.67" y1="955.9643" y2="940.012"/><line style="stroke:#A80036;stroke-width:1.0;" x1="777.0768" x2="793.0291" y1="947.3711" y2="948.6052"/><!--MD5=[a08b1b3f3306989f200e82c701617f08]
link nz.ac.wgtn.swen225.lc.domain.Chap to nz.ac.wgtn.swen225.lc.domain.tiles.Free--><path codeLine="81" d="M694.84,883.672 C618.02,917.992 503.74,964.242 399,987.902 C377.47,992.762 319.41,985.392 300,995.902 C275.27,1009.282 256.55,1035.712 244.89,1056.312 " fill="none" id="nz.ac.wgtn.swen225.lc.domain.Chap-to-nz.ac.wgtn.swen225.lc.domain.tiles.Free" style="stroke:#A80036;stroke-width:1.0;"/><polygon fill="#A80036" points="242.08,1060.412,249.9244,1054.4567,244.4912,1056.0318,242.9161,1050.5987,242.08,1060.412" style="stroke:#A80036;stroke-width:1.0;"/><text fill="#000000" font-family="sans-serif" font-size="13" lengthAdjust="spacing" textLength="18" x="465" y="983.799">tile</text><!--MD5=[02607cffd098bf04a0c82dc4b74cafc6]
link nz.ac.wgtn.swen225.lc.domain.Chap to nz.ac.wgtn.swen225.lc.domain.items.Item--><path codeLine="82" d="M875.28,918.632 C903.3,943.102 934.14,970.392 962,995.902 C984.38,1016.382 1009.17,1040.162 1027.52,1057.982 " fill="none" id="nz.ac.wgtn.swen225.lc.domain.Chap-to-nz.ac.wgtn.swen225.lc.domain.items.Item" style="stroke:#A80036;stroke-width:1.0;"/><polygon fill="#A80036" points="1030.58,1060.922,1026.9148,1051.7805,1026.9948,1057.4368,1021.3385,1057.5168,1030.58,1060.922" style="stroke:#A80036;stroke-width:1.0;"/><text fill="#000000" font-family="sans-serif" font-size="13" lengthAdjust="spacing" textLength="58" x="953" y="983.799">inventory</text><text fill="#000000" font-family="sans-serif" font-size="13" lengthAdjust="spacing" textLength="7" x="1017.3452" y="1050.1849">*</text><!--MD5=[91655e24f052e3ab3887863afb67f7ed]
reverse link nz.ac.wgtn.swen225.lc.domain.Chap to nz.ac.wgtn.swen225.lc.domain.Chap.Direction--><path codeLine="85" d="M831.68,953.722 C842.95,980.942 854.48,1008.772 863.99,1031.752 " fill="none" id="nz.ac.wgtn.swen225.lc.domain.Chap-backto-nz.ac.wgtn.swen225.lc.domain.Chap.Direction" style="stroke:#A80036;stroke-width:1.0;"/><ellipse cx="828.7029" cy="947.5324" fill="#FFFFFF" rx="8" ry="8" style="stroke:#A80036;stroke-width:1.0;"/><line style="stroke:#A80036;stroke-width:1.0;" x1="831.7657" x2="825.64" y1="954.9229" y2="940.142"/><line style="stroke:#A80036;stroke-width:1.0;" x1="821.3124" x2="836.0933" y1="950.5953" y2="944.4696"/><!--MD5=[256faed44314ccfc38e76806f11679b2]
reverse link java.lang.Exception to nz.ac.wgtn.swen225.lc.domain.IllegalMove--><path codeLine="86" d="M378,113.612 C378,185.592 378,326.742 378,389.042 " fill="none" id="java.lang.Exception-backto-nz.ac.wgtn.swen225.lc.domain.IllegalMove" style="stroke:#A80036;stroke-width:1.0;"/><polygon fill="none" points="371,113.852,378,93.852,385,113.852,371,113.852" style="stroke:#A80036;stroke-width:1.0;"/><text fill="#888888" font-family="sans-serif" font-size="10" lengthAdjust="spacing" textLength="182" x="539" y="1172.552">UMLDoclet 2.0.14, PlantUML 1.2021.9</text><!--MD5=[24cc1ba2df7a3f30febf9a0565659e82]
@startuml
    namespace nz.ac.wgtn.swen225.lc.domain {

        class Board [[Board.html]] {
            +Board(File, AudioUnit)
            #resetTile(Tile): Free
            +getAutoActors(): List<AutoActor>
            +addAutoActor(AutoActor): void
            +getTile(int, int): Tile
            +getLevel(): int
            +getTime(): int
            +getBoardTreasureCount(): int
            +getAudioUnit(): AudioUnit
        }

        class Chap [[Chap.html]] {
            +Chap(Board, Free, int)
            +move(Direction): Tile
            +addItem(Item): boolean
            +removeItem(Item): boolean
            +hasItem(Item): boolean
            +canUnlockExit(): boolean
            +addTreasure(): void
            +getX(): int
            +getY(): int
            +getPlayerTreasureCount(): int
        }

        enum nz.ac.wgtn.swen225.lc.domain.Chap.State [[Chap.State.html]] {
            {static} +ONGOING
            {static} +PAUSED
            {static} +COMPLETED
            {static} +DEAD
        }

        enum nz.ac.wgtn.swen225.lc.domain.Chap.Direction [[Chap.Direction.html]] {
            {static} +UP
            {static} +DOWN
            {static} +LEFT
            {static} +RIGHT
        }

        class DomainTest [[DomainTest.html]] {
            +init(): void
            +testBoard(): void
            +testMoveLeft(): void
            +testMoveLeftIllegal(): void
            +testMoveRight(): void
            +testMoveRightIllegal(): void
            +testMoveDown(): void
            +testMoveDownIllegal(): void
            +testMoveUp(): void
            +testMoveUpIllegal(): void
            +testPickUpKey(): void
            +testCanOpenDoor(): void
            +testCannotOpenDoor(): void
            +testCannotOpenDoorWrongKey(): void
            +testPickUpTreasure(): void
            +testFullInventory(): void
            +testEmptyInventory(): void
            +testMoveWhilePaused(): void
            +testCloneWall(): void
            +testCloneFree(): void
            +testCloneDoor(): void
            +testCloneKeyTile(): void
            +testCloneExit(): void
            +testCloneExitLock(): void
            +testCloneInfoField(): void
            +testCloneTreasure(): void
            +testIllegalArgumentKeyTile(): void
            +testIllegalArgumentDoor(): void
            +testInfoFieldNotReplacedWithFree(): void
        }

        class IllegalMove [[IllegalMove.html]] {
            +IllegalMove(String)
        }

        Board - -> "*" nz.ac.wgtn.swen225.lc.domain.tiles.Tile: tiles
        Board - -> Chap: chap
        Chap - -> nz.ac.wgtn.swen225.lc.domain.Chap.State: state
        Chap - -> nz.ac.wgtn.swen225.lc.domain.tiles.Free: tile
        Chap - -> "*" nz.ac.wgtn.swen225.lc.domain.items.Item: inventory
        Chap - -> Board: board
        Chap +- - nz.ac.wgtn.swen225.lc.domain.Chap.State
        Chap +- - nz.ac.wgtn.swen225.lc.domain.Chap.Direction
        java.lang.Exception <|- - IllegalMove
    }

    namespace java.lang {
        class Exception {
        }
    }

    center footer UMLDoclet 2.0.14, PlantUML 1.2021.9
@enduml

PlantUML version 1.2021.9(Sun Jul 25 22:13:56 NZST 2021)
(APACHE source distribution)
Java Runtime: OpenJDK Runtime Environment
JVM: OpenJDK 64-Bit Server VM
Default Encoding: UTF-8
Language: en
Country: NZ
--></g></svg>