<?xml version="1.0" encoding="UTF-8" standalone="no"?><svg xmlns="http://www.w3.org/2000/svg" xmlns:xlink="http://www.w3.org/1999/xlink" contentScriptType="application/ecmascript" contentStyleType="text/css" height="310px" preserveAspectRatio="none" style="width:298px;height:310px;background:#FFFFFF;" version="1.1" viewBox="0 0 298 310" width="298px" zoomAndPan="magnify"><defs><filter height="300%" id="fugbis53k98g7" width="300%" x="-1" y="-1"><feGaussianBlur result="blurOut" stdDeviation="2.0"/><feColorMatrix in="blurOut" result="blurOut2" type="matrix" values="0 0 0 0 0 0 0 0 0 0 0 0 0 0 0 0 0 0 .4 0"/><feOffset dx="4.0" dy="4.0" in="blurOut2" result="blurOut3"/><feBlend in="SourceGraphic" in2="blurOut3" mode="normal"/></filter></defs><g><!--MD5=[6fe61a7350ae8130c2c1e7a75d99b07f]
cluster nz.ac.wgtn.swen225.lc.app.main--><polygon fill="#FFFFFF" filter="url(#fugbis53k98g7)" points="43,172,271,172,278,195.6094,281,195.6094,281,286,43,286,43,172" style="stroke:#000000;stroke-width:1.5;"/><line style="stroke:#000000;stroke-width:1.5;" x1="43" x2="278" y1="195.6094" y2="195.6094"/><text fill="#000000" font-family="sans-serif" font-size="14" font-weight="bold" lengthAdjust="spacing" textLength="222" x="47" y="188.5332">nz.ac.wgtn.swen225.lc.app.main</text><!--MD5=[535aab4de90d4dfa371a9b40d5438fc3]
cluster javax.swing--><polygon fill="#FFFFFF" filter="url(#fugbis53k98g7)" points="16,6,104,6,111,29.6094,260,29.6094,260,148,16,148,16,6" style="stroke:#000000;stroke-width:1.5;"/><line style="stroke:#000000;stroke-width:1.5;" x1="16" x2="111" y1="29.6094" y2="29.6094"/><text fill="#000000" font-family="sans-serif" font-size="14" font-weight="bold" lengthAdjust="spacing" textLength="82" x="20" y="22.5332">javax.swing</text><!--MD5=[37dca68de70a2dd471e0a6d927505486]
class nz.ac.wgtn.swen225.lc.app.main.Main--><a href="Main.html" target="_top" title="Main.html" xlink:actuate="onRequest" xlink:href="Main.html" xlink:show="new" xlink:title="Main.html" xlink:type="simple"><rect codeLine="3" fill="#FEFECE" filter="url(#fugbis53k98g7)" height="61.8359" id="nz.ac.wgtn.swen225.lc.app.main.Main" style="stroke:#A80036;stroke-width:1.5;" width="116" x="80" y="208"/><ellipse cx="121.1" cy="224" fill="#ADD1B2" rx="11" ry="11" style="stroke:#A80036;stroke-width:1.0;"/><path d="M123.8656,219.875 Q124.0219,219.6563 124.2094,219.5469 Q124.3969,219.4375 124.6156,219.4375 Q124.9906,219.4375 125.225,219.7031 Q125.4594,219.9531 125.4594,220.5625 L125.4594,222.0156 Q125.4594,222.625 125.225,222.8906 Q124.9906,223.1563 124.6156,223.1563 Q124.2719,223.1563 124.0688,222.9531 Q123.8656,222.7656 123.7563,222.25 Q123.7094,221.8906 123.5219,221.7031 Q123.1938,221.3281 122.5844,221.1094 Q121.975,220.8906 121.35,220.8906 Q120.5844,220.8906 119.9438,221.2188 Q119.3188,221.5469 118.8188,222.2969 Q118.3344,223.0469 118.3344,224.0781 L118.3344,225.1719 Q118.3344,226.4063 119.225,227.2344 Q120.1156,228.0469 121.7094,228.0469 Q122.6469,228.0469 123.3031,227.7969 Q123.6938,227.6406 124.1156,227.2031 Q124.3813,226.9375 124.5219,226.8594 Q124.6781,226.7813 124.8813,226.7813 Q125.2094,226.7813 125.4594,227.0469 Q125.725,227.2969 125.725,227.6406 Q125.725,227.9844 125.3813,228.3906 Q124.8813,228.9688 124.0844,229.2969 Q123.0063,229.75 121.7094,229.75 Q120.1938,229.75 118.9906,229.125 Q118.0063,228.625 117.3188,227.5625 Q116.6313,226.4844 116.6313,225.2031 L116.6313,224.0469 Q116.6313,222.7188 117.2406,221.5781 Q117.8656,220.4219 118.9594,219.8125 Q120.0531,219.1875 121.2875,219.1875 Q122.0219,219.1875 122.6625,219.3594 Q123.3188,219.5156 123.8656,219.875 Z " fill="#000000"/><text fill="#000000" font-family="sans-serif" font-size="12" lengthAdjust="spacing" textLength="26" x="140.9" y="228.9102">Main</text><line style="stroke:#A80036;stroke-width:1.5;" x1="81" x2="195" y1="240" y2="240"/><line style="stroke:#A80036;stroke-width:1.5;" x1="81" x2="195" y1="248" y2="248"/><ellipse cx="91" cy="259" fill="#84BE84" rx="3" ry="3" style="stroke:#038048;stroke-width:1.0;"/><text fill="#000000" font-family="sans-serif" font-size="11" lengthAdjust="spacing" text-decoration="underline" textLength="90" x="100" y="263.4189">main(String[]): void</text></a><!--MD5=[18a7562403221f513ca44e0f82c4c17a]
class javax.swing.JFrame--><rect codeLine="11" fill="#FEFECE" filter="url(#fugbis53k98g7)" height="89.5078" id="javax.swing.JFrame" style="stroke:#A80036;stroke-width:1.5;" width="212" x="32" y="42"/><ellipse cx="112.75" cy="58" fill="#ADD1B2" rx="11" ry="11" style="stroke:#A80036;stroke-width:1.0;"/><path d="M115.5156,53.875 Q115.6719,53.6563 115.8594,53.5469 Q116.0469,53.4375 116.2656,53.4375 Q116.6406,53.4375 116.875,53.7031 Q117.1094,53.9531 117.1094,54.5625 L117.1094,56.0156 Q117.1094,56.625 116.875,56.8906 Q116.6406,57.1563 116.2656,57.1563 Q115.9219,57.1563 115.7188,56.9531 Q115.5156,56.7656 115.4063,56.25 Q115.3594,55.8906 115.1719,55.7031 Q114.8438,55.3281 114.2344,55.1094 Q113.625,54.8906 113,54.8906 Q112.2344,54.8906 111.5938,55.2188 Q110.9688,55.5469 110.4688,56.2969 Q109.9844,57.0469 109.9844,58.0781 L109.9844,59.1719 Q109.9844,60.4063 110.875,61.2344 Q111.7656,62.0469 113.3594,62.0469 Q114.2969,62.0469 114.9531,61.7969 Q115.3438,61.6406 115.7656,61.2031 Q116.0313,60.9375 116.1719,60.8594 Q116.3281,60.7813 116.5313,60.7813 Q116.8594,60.7813 117.1094,61.0469 Q117.375,61.2969 117.375,61.6406 Q117.375,61.9844 117.0313,62.3906 Q116.5313,62.9688 115.7344,63.2969 Q114.6563,63.75 113.3594,63.75 Q111.8438,63.75 110.6406,63.125 Q109.6563,62.625 108.9688,61.5625 Q108.2813,60.4844 108.2813,59.2031 L108.2813,58.0469 Q108.2813,56.7188 108.8906,55.5781 Q109.5156,54.4219 110.6094,53.8125 Q111.7031,53.1875 112.9375,53.1875 Q113.6719,53.1875 114.3125,53.3594 Q114.9688,53.5156 115.5156,53.875 Z " fill="#000000"/><text fill="#000000" font-family="sans-serif" font-size="12" lengthAdjust="spacing" textLength="42" x="133.25" y="62.9102">JFrame</text><line style="stroke:#A80036;stroke-width:1.5;" x1="33" x2="243" y1="74" y2="74"/><polygon fill="none" points="43,80,47,84,43,88,39,84" style="stroke:#B38D22;stroke-width:1.0;"/><text fill="#000000" font-family="sans-serif" font-size="11" lengthAdjust="spacing" textLength="100" x="52" y="89.4189">rootPane: JRootPane</text><polygon fill="none" points="43,93.8359,47,97.8359,43,101.8359,39,97.8359" style="stroke:#B38D22;stroke-width:1.0;"/><text fill="#000000" font-family="sans-serif" font-size="11" lengthAdjust="spacing" textLength="169" x="52" y="103.2549">rootPaneCheckingEnabled: boolean</text><polygon fill="none" points="43,107.6719,47,111.6719,43,115.6719,39,111.6719" style="stroke:#B38D22;stroke-width:1.0;"/><text fill="#000000" font-family="sans-serif" font-size="11" lengthAdjust="spacing" textLength="186" x="52" y="117.0908">accessibleContext: AccessibleContext</text><line style="stroke:#A80036;stroke-width:1.5;" x1="33" x2="243" y1="123.5078" y2="123.5078"/><!--MD5=[f0ac3c4ca97870929c1a60334d18d4df]
reverse link javax.swing.JFrame to nz.ac.wgtn.swen225.lc.app.main.Main--><path codeLine="7" d="M138,152.48 C138,171.74 138,191.95 138,207.88 " fill="none" id="javax.swing.JFrame-backto-nz.ac.wgtn.swen225.lc.app.main.Main" style="stroke:#A80036;stroke-width:1.0;"/><polygon fill="none" points="131,152.19,138,132.19,145,152.19,131,152.19" style="stroke:#A80036;stroke-width:1.0;"/><text fill="#888888" font-family="sans-serif" font-size="10" lengthAdjust="spacing" textLength="184" x="50.5" y="302.3809">UMLDoclet 2.0.14, PlantUML 1.2021.9</text><!--MD5=[83c81f1280964c1d513dc637671f4888]
@startuml
    namespace nz.ac.wgtn.swen225.lc.app.main {

        class Main [[Main.html]] {
            {static} +main(String[]): void
        }

        javax.swing.JFrame <|- - Main
    }

    namespace javax.swing {
        class JFrame {
            #rootPane: JRootPane
            #rootPaneCheckingEnabled: boolean
            #accessibleContext: AccessibleContext
        }
    }

    center footer UMLDoclet 2.0.14, PlantUML 1.2021.9
@enduml

PlantUML version 1.2021.9(Sun Jul 25 17:13:56 ICT 2021)
(APACHE source distribution)
Java Runtime: OpenJDK Runtime Environment
JVM: OpenJDK 64-Bit Server VM
Default Encoding: Cp1252
Language: en
Country: NZ
--></g></svg>