<?xml version="1.0" encoding="UTF-8" standalone="no"?><svg xmlns="http://www.w3.org/2000/svg" xmlns:xlink="http://www.w3.org/1999/xlink" contentStyleType="text/css" height="327px" preserveAspectRatio="none" style="width:310px;height:327px;background:#FFFFFF;" version="1.1" viewBox="0 0 310 327" width="310px" zoomAndPan="magnify"><defs/><g><!--cluster nz.ac.wgtn.swen225.lc.app.main--><g id="cluster_nz.ac.wgtn.swen225.lc.app.main"><path d="M67.5,183 L290.5,183 A3.75,3.75 0 0 1 293,185.5 L300,206.6094 L300.5,206.6094 A2.5,2.5 0 0 1 303,209.1094 L303,298.5 A2.5,2.5 0 0 1 300.5,301 L67.5,301 A2.5,2.5 0 0 1 65,298.5 L65,185.5 A2.5,2.5 0 0 1 67.5,183 " fill="none" style="stroke:#000000;stroke-width:1.5;"/><line style="stroke:#000000;stroke-width:1.5;" x1="65" x2="300" y1="206.6094" y2="206.6094"/><text fill="#000000" font-family="sans-serif" font-size="14" font-weight="bold" lengthAdjust="spacing" textLength="222" x="69" y="199.5332">nz.ac.wgtn.swen225.lc.app.main</text></g><!--cluster javax.swing--><g id="cluster_javax.swing"><path d="M8.5,6 L91.5,6 A3.75,3.75 0 0 1 94,8.5 L101,29.6094 L299.5,29.6094 A2.5,2.5 0 0 1 302,32.1094 L302,156.5 A2.5,2.5 0 0 1 299.5,159 L8.5,159 A2.5,2.5 0 0 1 6,156.5 L6,8.5 A2.5,2.5 0 0 1 8.5,6 " fill="none" style="stroke:#000000;stroke-width:1.5;"/><line style="stroke:#000000;stroke-width:1.5;" x1="6" x2="101" y1="29.6094" y2="29.6094"/><text fill="#000000" font-family="sans-serif" font-size="14" font-weight="bold" lengthAdjust="spacing" textLength="82" x="10" y="22.5332">javax.swing</text></g><!--class nz.ac.wgtn.swen225.lc.app.main.Main--><a href="Main.html" target="_top" title="Main.html" xlink:actuate="onRequest" xlink:href="Main.html" xlink:show="new" xlink:title="Main.html" xlink:type="simple"><g id="elem_nz.ac.wgtn.swen225.lc.app.main.Main"><rect codeLine="3" fill="#F1F1F1" height="65.6094" id="nz.ac.wgtn.swen225.lc.app.main.Main" rx="2.5" ry="2.5" style="stroke:#181818;stroke-width:0.5;" width="145" x="81.5" y="219"/><ellipse cx="134.75" cy="235" fill="#ADD1B2" rx="11" ry="11" style="stroke:#181818;stroke-width:1.0;"/><path d="M137.5156,230.875 Q137.6719,230.6563 137.8594,230.5469 Q138.0469,230.4375 138.2656,230.4375 Q138.6406,230.4375 138.875,230.7031 Q139.1094,230.9531 139.1094,231.5625 L139.1094,233.0156 Q139.1094,233.625 138.875,233.8906 Q138.6406,234.1563 138.2656,234.1563 Q137.9219,234.1563 137.7188,233.9531 Q137.5156,233.7656 137.4063,233.25 Q137.3594,232.8906 137.1719,232.7031 Q136.8438,232.3281 136.2344,232.1094 Q135.625,231.8906 135,231.8906 Q134.2344,231.8906 133.5938,232.2188 Q132.9688,232.5469 132.4688,233.2969 Q131.9844,234.0469 131.9844,235.0781 L131.9844,236.1719 Q131.9844,237.4063 132.875,238.2344 Q133.7656,239.0469 135.3594,239.0469 Q136.2969,239.0469 136.9531,238.7969 Q137.3438,238.6406 137.7656,238.2031 Q138.0313,237.9375 138.1719,237.8594 Q138.3281,237.7813 138.5313,237.7813 Q138.8594,237.7813 139.1094,238.0469 Q139.375,238.2969 139.375,238.6406 Q139.375,238.9844 139.0313,239.3906 Q138.5313,239.9688 137.7344,240.2969 Q136.6563,240.75 135.3594,240.75 Q133.8438,240.75 132.6406,240.125 Q131.6563,239.625 130.9688,238.5625 Q130.2813,237.4844 130.2813,236.2031 L130.2813,235.0469 Q130.2813,233.7188 130.8906,232.5781 Q131.5156,231.4219 132.6094,230.8125 Q133.7031,230.1875 134.9375,230.1875 Q135.6719,230.1875 136.3125,230.3594 Q136.9688,230.5156 137.5156,230.875 Z " fill="#000000"/><text fill="#000000" font-family="sans-serif" font-size="14" lengthAdjust="spacing" textLength="30" x="155.25" y="240.7285">Main</text><line style="stroke:#181818;stroke-width:0.5;" x1="82.5" x2="225.5" y1="251" y2="251"/><line style="stroke:#181818;stroke-width:0.5;" x1="82.5" x2="225.5" y1="259" y2="259"/><ellipse cx="92.5" cy="273.3047" fill="#84BE84" rx="3" ry="3" style="stroke:#038048;stroke-width:1.0;"/><text fill="#000000" font-family="sans-serif" font-size="14" lengthAdjust="spacing" text-decoration="underline" textLength="119" x="101.5" y="277.5332">main(String[]): void</text></g></a><!--class javax.swing.JFrame--><g id="elem_javax.swing.JFrame"><rect codeLine="11" fill="#F1F1F1" height="100.8281" id="javax.swing.JFrame" rx="2.5" ry="2.5" style="stroke:#181818;stroke-width:0.5;" width="263" x="22.5" y="42"/><ellipse cx="126.25" cy="58" fill="#ADD1B2" rx="11" ry="11" style="stroke:#181818;stroke-width:1.0;"/><path d="M129.0156,53.875 Q129.1719,53.6563 129.3594,53.5469 Q129.5469,53.4375 129.7656,53.4375 Q130.1406,53.4375 130.375,53.7031 Q130.6094,53.9531 130.6094,54.5625 L130.6094,56.0156 Q130.6094,56.625 130.375,56.8906 Q130.1406,57.1563 129.7656,57.1563 Q129.4219,57.1563 129.2188,56.9531 Q129.0156,56.7656 128.9063,56.25 Q128.8594,55.8906 128.6719,55.7031 Q128.3438,55.3281 127.7344,55.1094 Q127.125,54.8906 126.5,54.8906 Q125.7344,54.8906 125.0938,55.2188 Q124.4688,55.5469 123.9688,56.2969 Q123.4844,57.0469 123.4844,58.0781 L123.4844,59.1719 Q123.4844,60.4063 124.375,61.2344 Q125.2656,62.0469 126.8594,62.0469 Q127.7969,62.0469 128.4531,61.7969 Q128.8438,61.6406 129.2656,61.2031 Q129.5313,60.9375 129.6719,60.8594 Q129.8281,60.7813 130.0313,60.7813 Q130.3594,60.7813 130.6094,61.0469 Q130.875,61.2969 130.875,61.6406 Q130.875,61.9844 130.5313,62.3906 Q130.0313,62.9688 129.2344,63.2969 Q128.1563,63.75 126.8594,63.75 Q125.3438,63.75 124.1406,63.125 Q123.1563,62.625 122.4688,61.5625 Q121.7813,60.4844 121.7813,59.2031 L121.7813,58.0469 Q121.7813,56.7188 122.3906,55.5781 Q123.0156,54.4219 124.1094,53.8125 Q125.2031,53.1875 126.4375,53.1875 Q127.1719,53.1875 127.8125,53.3594 Q128.4688,53.5156 129.0156,53.875 Z " fill="#000000"/><text fill="#000000" font-family="sans-serif" font-size="14" lengthAdjust="spacing" textLength="47" x="146.75" y="63.7285">JFrame</text><line style="stroke:#181818;stroke-width:0.5;" x1="23.5" x2="284.5" y1="74" y2="74"/><polygon fill="none" points="33.5,83.3047,37.5,87.3047,33.5,91.3047,29.5,87.3047" style="stroke:#B38D22;stroke-width:1.0;"/><text fill="#000000" font-family="sans-serif" font-size="14" lengthAdjust="spacing" textLength="135" x="42.5" y="92.5332">rootPane: JRootPane</text><polygon fill="none" points="33.5,100.9141,37.5,104.9141,33.5,108.9141,29.5,104.9141" style="stroke:#B38D22;stroke-width:1.0;"/><text fill="#000000" font-family="sans-serif" font-size="14" lengthAdjust="spacing" textLength="228" x="42.5" y="110.1426">rootPaneCheckingEnabled: boolean</text><polygon fill="none" points="33.5,118.5234,37.5,122.5234,33.5,126.5234,29.5,122.5234" style="stroke:#B38D22;stroke-width:1.0;"/><text fill="#000000" font-family="sans-serif" font-size="14" lengthAdjust="spacing" textLength="237" x="42.5" y="127.752">accessibleContext: AccessibleContext</text><line style="stroke:#181818;stroke-width:0.5;" x1="23.5" x2="284.5" y1="134.8281" y2="134.8281"/></g><!--reverse link javax.swing.JFrame to nz.ac.wgtn.swen225.lc.app.main.Main--><g id="link_javax.swing.JFrame_nz.ac.wgtn.swen225.lc.app.main.Main"><path codeLine="7" d="M154,163.42 C154,182.75 154,202.81 154,218.84 " fill="none" id="javax.swing.JFrame-backto-nz.ac.wgtn.swen225.lc.app.main.Main" style="stroke:#181818;stroke-width:1.0;"/><polygon fill="none" points="147,163.33,154,143.33,161,163.33,147,163.33" style="stroke:#181818;stroke-width:1.0;"/></g><text fill="#888888" font-family="sans-serif" font-size="10" lengthAdjust="spacing" textLength="184" x="56" y="317.3809">UMLDoclet 2.1.0, PlantUML 1.2022.14</text><!--SRC=[ROz1ImCn48Nl-oi6H6ZH1btmidYHLW_5Gb4yBNkOJgTjD3jPah0jrlvtixhOj3YN2JDVtdi3021Ois-G6EHJ8QdjEeZoMvOylrE653QDgb4BxBCC-YA3tiEicvPbrzGcrAQg8WD9xNt0eEa0Lvt0u3KuBUko6XRGMhtyGmz7uNTiSHVT8wUcJov6W_klqUZ7AalOO-ZaH-B-6x1NE0rruQmDSnGkOFhIF_y7nXkcZwZxABWml2nWOQrXb5CQYTXx7OcnbS2xKC33-IWvDJc2E2uThA9TR6-pvuabmm5oTQjkhc5kK4ASmcNBpcihW-4t]--></g></svg>