<?xml version="1.0" encoding="UTF-8" standalone="no"?><svg xmlns="http://www.w3.org/2000/svg" xmlns:xlink="http://www.w3.org/1999/xlink" contentScriptType="application/ecmascript" contentStyleType="text/css" height="148px" preserveAspectRatio="none" style="width:274px;height:148px;background:#FFFFFF;" version="1.1" viewBox="0 0 274 148" width="274px" zoomAndPan="magnify"><defs><filter height="300%" id="fyku947zvfrwv" width="300%" x="-1" y="-1"><feGaussianBlur result="blurOut" stdDeviation="2.0"/><feColorMatrix in="blurOut" result="blurOut2" type="matrix" values="0 0 0 0 0 0 0 0 0 0 0 0 0 0 0 0 0 0 .4 0"/><feOffset dx="4.0" dy="4.0" in="blurOut2" result="blurOut3"/><feBlend in="SourceGraphic" in2="blurOut3" mode="normal"/></filter></defs><g><!--MD5=[aed1d2a8604fe3741566071179cfd1e8]
cluster nz.ac.wgtn.swen225.lc.app.input--><polygon fill="#FFFFFF" filter="url(#fyku947zvfrwv)" points="16,6.602,247,6.602,254,31.6699,257,31.6699,257,123.582,16,123.582,16,6.602" style="stroke:#000000;stroke-width:1.5;"/><line style="stroke:#000000;stroke-width:1.5;" x1="16" x2="254" y1="31.6699" y2="31.6699"/><text fill="#000000" font-family="sans-serif" font-size="14" font-weight="bold" lengthAdjust="spacing" textLength="225" x="20" y="23.5679">nz.ac.wgtn.swen225.lc.app.input</text><!--MD5=[21a7979ff18fd6b178f86758294129e3]
class nz.ac.wgtn.swen225.lc.app.input.KeyboardInputHandler--><a href="KeyboardInputHandler.html" target="_top" title="KeyboardInputHandler.html" xlink:actuate="onRequest" xlink:href="KeyboardInputHandler.html" xlink:show="new" xlink:title="KeyboardInputHandler.html" xlink:type="simple"><rect codeLine="3" fill="#FEFECE" filter="url(#fyku947zvfrwv)" height="62.9819" id="nz.ac.wgtn.swen225.lc.app.input.KeyboardInputHandler" style="stroke:#A80036;stroke-width:1.5;" width="175" x="48.5" y="44.602"/><ellipse cx="70.7" cy="60.602" fill="#ADD1B2" rx="11" ry="11" style="stroke:#A80036;stroke-width:1.0;"/><path d="M70.1688,67.5239 Q68.4188,67.5239 67.2781,66.7895 Q66.1531,66.0395 65.5906,64.6957 Q65.0438,63.3364 65.0438,61.5395 Q65.0438,59.5082 65.7,58.0551 Q66.3563,56.602 67.6375,55.8207 Q68.9188,55.0395 70.7938,55.0395 Q71.6844,55.0395 72.3563,55.227 Q73.0281,55.3989 73.7156,55.7426 L72.9031,57.7582 Q72.2781,57.4457 71.7313,57.3207 Q71.2,57.1957 70.7156,57.1957 Q69.5438,57.1957 68.8406,57.727 Q68.1375,58.2582 67.8406,59.2114 Q67.5438,60.1645 67.5438,61.4301 Q67.5438,63.4457 68.2625,64.4145 Q68.9813,65.3676 70.575,65.3676 Q71.1688,65.3676 71.7938,65.2114 Q72.4188,65.0551 73.2469,64.6801 L73.2469,66.8989 Q72.5125,67.2114 71.7156,67.3676 Q70.9344,67.5239 70.1688,67.5239 Z " fill="#000000"/><text fill="#000000" font-family="sans-serif" font-size="12" lengthAdjust="spacing" textLength="127" x="86.3" y="65.258">KeyboardInputHandler</text><line style="stroke:#A80036;stroke-width:1.5;" x1="49.5" x2="222.5" y1="76.602" y2="76.602"/><line style="stroke:#A80036;stroke-width:1.5;" x1="49.5" x2="222.5" y1="84.602" y2="84.602"/><ellipse cx="59.5" cy="95.602" fill="#84BE84" rx="3" ry="3" style="stroke:#038048;stroke-width:1.0;"/><text fill="#000000" font-family="sans-serif" font-size="11" lengthAdjust="spacing" textLength="149" x="68.5" y="100.3609">KeyboardInputHandler(App)</text></a><text fill="#888888" font-family="sans-serif" font-size="10" lengthAdjust="spacing" textLength="182" x="39.5" y="140.272">UMLDoclet 2.0.14, PlantUML 1.2021.9</text><!--MD5=[e2d5f1d209520d556c8a0bb255b01e68]
@startuml
    namespace nz.ac.wgtn.swen225.lc.app.input {

        class KeyboardInputHandler [[KeyboardInputHandler.html]] {
            +KeyboardInputHandler(App)
        }

    }

    center footer UMLDoclet 2.0.14, PlantUML 1.2021.9
@enduml

PlantUML version 1.2021.9(Sun Jul 25 22:13:56 NZST 2021)
(APACHE source distribution)
Java Runtime: OpenJDK Runtime Environment
JVM: OpenJDK 64-Bit Server VM
Default Encoding: UTF-8
Language: en
Country: NZ
--></g></svg>