<?xml version="1.0" encoding="UTF-8" standalone="no"?><svg xmlns="http://www.w3.org/2000/svg" xmlns:xlink="http://www.w3.org/1999/xlink" contentStyleType="text/css" height="409px" preserveAspectRatio="none" style="width:397px;height:409px;background:#FFFFFF;" version="1.1" viewBox="0 0 397 409" width="397px" zoomAndPan="magnify"><defs/><g><!--class nz.ac.wgtn.swen225.lc.app.App--><a href="App.html" target="_top" title="App.html" xlink:actuate="onRequest" xlink:href="App.html" xlink:show="new" xlink:title="App.html" xlink:type="simple"><g id="elem_nz.ac.wgtn.swen225.lc.app.App"><rect codeLine="5" fill="#F1F1F1" height="249.8906" id="nz.ac.wgtn.swen225.lc.app.App" rx="2.5" ry="2.5" style="stroke:#181818;stroke-width:0.5;" width="318" x="7" y="133"/><ellipse cx="97.75" cy="153.0938" fill="#ADD1B2" rx="11" ry="11" style="stroke:#181818;stroke-width:1.0;"/><path d="M100.5156,148.9688 Q100.6719,148.75 100.8594,148.6406 Q101.0469,148.5313 101.2656,148.5313 Q101.6406,148.5313 101.875,148.7969 Q102.1094,149.0469 102.1094,149.6563 L102.1094,151.1094 Q102.1094,151.7188 101.875,151.9844 Q101.6406,152.25 101.2656,152.25 Q100.9219,152.25 100.7188,152.0469 Q100.5156,151.8594 100.4063,151.3438 Q100.3594,150.9844 100.1719,150.7969 Q99.8438,150.4219 99.2344,150.2031 Q98.625,149.9844 98,149.9844 Q97.2344,149.9844 96.5938,150.3125 Q95.9688,150.6406 95.4688,151.3906 Q94.9844,152.1406 94.9844,153.1719 L94.9844,154.2656 Q94.9844,155.5 95.875,156.3281 Q96.7656,157.1406 98.3594,157.1406 Q99.2969,157.1406 99.9531,156.8906 Q100.3438,156.7344 100.7656,156.2969 Q101.0313,156.0313 101.1719,155.9531 Q101.3281,155.875 101.5313,155.875 Q101.8594,155.875 102.1094,156.1406 Q102.375,156.3906 102.375,156.7344 Q102.375,157.0781 102.0313,157.4844 Q101.5313,158.0625 100.7344,158.3906 Q99.6563,158.8438 98.3594,158.8438 Q96.8438,158.8438 95.6406,158.2188 Q94.6563,157.7188 93.9688,156.6563 Q93.2813,155.5781 93.2813,154.2969 L93.2813,153.1406 Q93.2813,151.8125 93.8906,150.6719 Q94.5156,149.5156 95.6094,148.9063 Q96.7031,148.2813 97.9375,148.2813 Q98.6719,148.2813 99.3125,148.4531 Q99.9688,148.6094 100.5156,148.9688 Z " fill="#000000"/><text fill="#000000" font-family="sans-serif" font-size="14" lengthAdjust="spacing" textLength="25" x="169.75" y="152.5332">App</text><text fill="#000000" font-family="sans-serif" font-size="10" lengthAdjust="spacing" textLength="128" x="118.25" y="165.9902">nz.ac.wgtn.swen225.lc.app</text><line style="stroke:#181818;stroke-width:0.5;" x1="8" x2="324" y1="173.1875" y2="173.1875"/><ellipse cx="18" cy="187.4922" fill="none" rx="3" ry="3" style="stroke:#038048;stroke-width:1.0;"/><text fill="#000000" font-family="sans-serif" font-size="14" lengthAdjust="spacing" textLength="137" x="27" y="191.7207">treasureLabel: JLabel</text><ellipse cx="18" cy="205.1016" fill="none" rx="3" ry="3" style="stroke:#038048;stroke-width:1.0;"/><text fill="#000000" font-family="sans-serif" font-size="14" lengthAdjust="spacing" textLength="106" x="27" y="209.3301">paused: boolean</text><line style="stroke:#181818;stroke-width:0.5;" x1="8" x2="324" y1="216.4063" y2="216.4063"/><ellipse cx="18" cy="230.7109" fill="#84BE84" rx="3" ry="3" style="stroke:#038048;stroke-width:1.0;"/><text fill="#000000" font-family="sans-serif" font-size="14" lengthAdjust="spacing" textLength="102" x="27" y="234.9395">setup(File): void</text><ellipse cx="18" cy="248.3203" fill="#84BE84" rx="3" ry="3" style="stroke:#038048;stroke-width:1.0;"/><text fill="#000000" font-family="sans-serif" font-size="14" lengthAdjust="spacing" textLength="173" x="27" y="252.5488">createInventory(int): JPanel</text><ellipse cx="18" cy="265.9297" fill="#84BE84" rx="3" ry="3" style="stroke:#038048;stroke-width:1.0;"/><text fill="#000000" font-family="sans-serif" font-size="14" lengthAdjust="spacing" textLength="180" x="27" y="270.1582">updateInventory(Item[]): void</text><ellipse cx="18" cy="283.5391" fill="#84BE84" rx="3" ry="3" style="stroke:#038048;stroke-width:1.0;"/><text fill="#000000" font-family="sans-serif" font-size="14" lengthAdjust="spacing" textLength="292" x="27" y="287.7676">createLabel(String, Font, Color, Color): JLabel</text><ellipse cx="18" cy="301.1484" fill="#84BE84" rx="3" ry="3" style="stroke:#038048;stroke-width:1.0;"/><text fill="#000000" font-family="sans-serif" font-size="14" lengthAdjust="spacing" textLength="162" x="27" y="305.377">setPaused(boolean): void</text><ellipse cx="18" cy="318.7578" fill="#84BE84" rx="3" ry="3" style="stroke:#038048;stroke-width:1.0;"/><text fill="#000000" font-family="sans-serif" font-size="14" lengthAdjust="spacing" textLength="154" x="27" y="322.9863">moveAction(String): void</text><ellipse cx="18" cy="336.3672" fill="#84BE84" rx="3" ry="3" style="stroke:#038048;stroke-width:1.0;"/><text fill="#000000" font-family="sans-serif" font-size="14" lengthAdjust="spacing" textLength="223" x="27" y="340.5957">actionPerformed(ActionEvent): void</text><ellipse cx="18" cy="353.9766" fill="#84BE84" rx="3" ry="3" style="stroke:#038048;stroke-width:1.0;"/><text fill="#000000" font-family="sans-serif" font-size="14" lengthAdjust="spacing" text-decoration="underline" textLength="158" x="27" y="358.2051">getRenderer(): Renderer</text><ellipse cx="18" cy="371.5859" fill="#84BE84" rx="3" ry="3" style="stroke:#038048;stroke-width:1.0;"/><text fill="#000000" font-family="sans-serif" font-size="14" lengthAdjust="spacing" text-decoration="underline" textLength="114" x="27" y="375.8145">getBoard(): Board</text></g></a><!--class javax.swing.JPanel--><g id="elem_javax.swing.JPanel"><rect codeLine="19" fill="#F1F1F1" height="40.1875" id="javax.swing.JPanel" rx="2.5" ry="2.5" style="stroke:#181818;stroke-width:0.5;" width="86" x="22" y="20"/><ellipse cx="37" cy="40.0938" fill="#ADD1B2" rx="11" ry="11" style="stroke:#181818;stroke-width:1.0;"/><path d="M39.7656,35.9688 Q39.9219,35.75 40.1094,35.6406 Q40.2969,35.5313 40.5156,35.5313 Q40.8906,35.5313 41.125,35.7969 Q41.3594,36.0469 41.3594,36.6563 L41.3594,38.1094 Q41.3594,38.7188 41.125,38.9844 Q40.8906,39.25 40.5156,39.25 Q40.1719,39.25 39.9688,39.0469 Q39.7656,38.8594 39.6563,38.3438 Q39.6094,37.9844 39.4219,37.7969 Q39.0938,37.4219 38.4844,37.2031 Q37.875,36.9844 37.25,36.9844 Q36.4844,36.9844 35.8438,37.3125 Q35.2188,37.6406 34.7188,38.3906 Q34.2344,39.1406 34.2344,40.1719 L34.2344,41.2656 Q34.2344,42.5 35.125,43.3281 Q36.0156,44.1406 37.6094,44.1406 Q38.5469,44.1406 39.2031,43.8906 Q39.5938,43.7344 40.0156,43.2969 Q40.2813,43.0313 40.4219,42.9531 Q40.5781,42.875 40.7813,42.875 Q41.1094,42.875 41.3594,43.1406 Q41.625,43.3906 41.625,43.7344 Q41.625,44.0781 41.2813,44.4844 Q40.7813,45.0625 39.9844,45.3906 Q38.9063,45.8438 37.6094,45.8438 Q36.0938,45.8438 34.8906,45.2188 Q33.9063,44.7188 33.2188,43.6563 Q32.5313,42.5781 32.5313,41.2969 L32.5313,40.1406 Q32.5313,38.8125 33.1406,37.6719 Q33.7656,36.5156 34.8594,35.9063 Q35.9531,35.2813 37.1875,35.2813 Q37.9219,35.2813 38.5625,35.4531 Q39.2188,35.6094 39.7656,35.9688 Z " fill="#000000"/><text fill="#000000" font-family="sans-serif" font-size="14" lengthAdjust="spacing" textLength="42" x="57" y="39.5332">JPanel</text><text fill="#000000" font-family="sans-serif" font-size="10" lengthAdjust="spacing" textLength="54" x="51" y="52.9902">javax.swing</text></g><!--class java.awt.event.ActionListener--><g id="elem_java.awt.event.ActionListener"><rect codeLine="20" fill="#F1F1F1" height="65.7969" id="java.awt.event.ActionListener" rx="2.5" ry="2.5" style="stroke:#181818;stroke-width:0.5;" width="247" x="143.5" y="7"/><ellipse cx="217.75" cy="27.0938" fill="#B4A7E5" rx="11" ry="11" style="stroke:#181818;stroke-width:1.0;"/><path d="M218.7031,23.7344 L218.7031,30.3906 L220.4219,30.3906 Q221.0313,30.3906 221.2969,30.625 Q221.5625,30.8594 221.5625,31.25 Q221.5625,31.625 221.2969,31.8594 Q221.0313,32.0938 220.4219,32.0938 L215.2813,32.0938 Q214.6719,32.0938 214.4063,31.8594 Q214.1406,31.625 214.1406,31.2344 Q214.1406,30.8594 214.4063,30.625 Q214.6719,30.3906 215.2813,30.3906 L217,30.3906 L217,23.7344 L215.2813,23.7344 Q214.6719,23.7344 214.4063,23.5 Q214.1406,23.2656 214.1406,22.875 Q214.1406,22.5 214.4063,22.2656 Q214.6719,22.0313 215.2813,22.0313 L220.4219,22.0313 Q221.0313,22.0313 221.2969,22.2656 Q221.5625,22.5 221.5625,22.875 Q221.5625,23.2656 221.2969,23.5 Q221.0313,23.7344 220.4219,23.7344 L218.7031,23.7344 Z " fill="#000000"/><text fill="#000000" font-family="sans-serif" font-size="14" font-style="italic" lengthAdjust="spacing" textLength="90" x="238.25" y="26.5332">ActionListener</text><text fill="#000000" font-family="sans-serif" font-size="10" font-style="italic" lengthAdjust="spacing" textLength="68" x="249.25" y="39.9902">java.awt.event</text><line style="stroke:#181818;stroke-width:0.5;" x1="144.5" x2="389.5" y1="47.1875" y2="47.1875"/><ellipse cx="154.5" cy="61.4922" fill="#84BE84" rx="3" ry="3" style="stroke:#038048;stroke-width:1.0;"/><text fill="#000000" font-family="sans-serif" font-size="14" font-style="italic" lengthAdjust="spacing" textLength="221" x="163.5" y="65.7207">actionPerformed(ActionEvent): void</text></g><!--reverse link javax.swing.JPanel to nz.ac.wgtn.swen225.lc.app.App--><g id="link_javax.swing.JPanel_nz.ac.wgtn.swen225.lc.app.App"><path codeLine="24" d="M82.49,78.4 C89.77,93.97 98.68,113.02 107.93,132.82 " fill="none" id="javax.swing.JPanel-backto-nz.ac.wgtn.swen225.lc.app.App" style="stroke:#181818;stroke-width:1.0;"/><polygon fill="none" points="76.09,81.25,73.96,60.17,88.78,75.32,76.09,81.25" style="stroke:#181818;stroke-width:1.0;"/></g><!--reverse link java.awt.event.ActionListener to nz.ac.wgtn.swen225.lc.app.App--><g id="link_java.awt.event.ActionListener_nz.ac.wgtn.swen225.lc.app.App"><path codeLine="25" d="M243.29,91.71 C237.42,104.25 230.88,118.25 224.15,132.64 " fill="none" id="java.awt.event.ActionListener-backto-nz.ac.wgtn.swen225.lc.app.App" style="stroke:#181818;stroke-width:1.0;stroke-dasharray:7.0,7.0;"/><polygon fill="none" points="237.07,88.49,251.88,73.34,249.75,94.42,237.07,88.49" style="stroke:#181818;stroke-width:1.0;"/></g><text fill="#888888" font-family="sans-serif" font-size="10" lengthAdjust="spacing" textLength="184" x="99.75" y="399.2715">UMLDoclet 2.1.0, PlantUML 1.2022.14</text><!--SRC=[ZLDDRzim3BtlLn052ZXeAhJ1TWc20jr7WHOP4ApeASk1iPb4Wom94kEiJVFVHojUuoRDLXzCYNnwVdoY0G0YCLWiANhCwPuy1cGNm3fB7wGC2rqGKEdv4MQQJ17tioNnmaawvNE3CSB98Eedwbz-lBhs_gTjTXTNzabXhbPpjYgkoFPwdvJ95Nf_0XZXQ5K92up7ybOBBira0klqiVevuq0Obu66E2NJXxiKTsMFoqX57wRE6KAxAqZVIv_TQ4ETFbHE5xjIBfHCjxOYArOyPjgoOEv6QDlCIr-yGjqobUF94RAaAhldeEsy2pVESXU-EED24pg7oaNWA8dF6kq7rAMhw3fdxMp3V830L1rHcBbG2jCM_QsMl8zTHqRM-GREviG_o1OKA6I2-hj-6_dPOIXgM5eapERjKTZwrvg6NrZXRxbg4PxklxLNBRF5VT4lmzaUgzJ7K4ScIs6FK-6A5TKzlj3kKkhrqTOahN4QEOXZctVxrdHwA1m6p-Vd_nxebvF7jGsUbVeFoTPfgYs2cNDrUFW-_Efo8xzrJrsgYowC35gMB9nM568zBPq_]--></g></svg>