<?xml version="1.0" encoding="UTF-8" standalone="no"?><svg xmlns="http://www.w3.org/2000/svg" xmlns:xlink="http://www.w3.org/1999/xlink" contentScriptType="application/ecmascript" contentStyleType="text/css" height="369px" preserveAspectRatio="none" style="width:341px;height:369px;background:#FFFFFF;" version="1.1" viewBox="0 0 341 369" width="341px" zoomAndPan="magnify"><defs><filter height="300%" id="f1ivn8ugrah2dy" width="300%" x="-1" y="-1"><feGaussianBlur result="blurOut" stdDeviation="2.0"/><feColorMatrix in="blurOut" result="blurOut2" type="matrix" values="0 0 0 0 0 0 0 0 0 0 0 0 0 0 0 0 0 0 .4 0"/><feOffset dx="4.0" dy="4.0" in="blurOut2" result="blurOut3"/><feBlend in="SourceGraphic" in2="blurOut3" mode="normal"/></filter></defs><g><!--MD5=[9fc35523cf5606b74c28fbd8f122de5d]
class nz.ac.wgtn.swen225.lc.app.App--><a href="App.html" target="_top" title="App.html" xlink:actuate="onRequest" xlink:href="App.html" xlink:show="new" xlink:title="App.html" xlink:type="simple"><rect codeLine="5" fill="#FEFECE" filter="url(#f1ivn8ugrah2dy)" height="208.3828" id="nz.ac.wgtn.swen225.lc.app.App" style="stroke:#A80036;stroke-width:1.5;" width="245" x="16.5" y="129"/><ellipse cx="70.75" cy="149.0938" fill="#ADD1B2" rx="11" ry="11" style="stroke:#A80036;stroke-width:1.0;"/><path d="M73.5156,144.9688 Q73.6719,144.75 73.8594,144.6406 Q74.0469,144.5313 74.2656,144.5313 Q74.6406,144.5313 74.875,144.7969 Q75.1094,145.0469 75.1094,145.6563 L75.1094,147.1094 Q75.1094,147.7188 74.875,147.9844 Q74.6406,148.25 74.2656,148.25 Q73.9219,148.25 73.7188,148.0469 Q73.5156,147.8594 73.4063,147.3438 Q73.3594,146.9844 73.1719,146.7969 Q72.8438,146.4219 72.2344,146.2031 Q71.625,145.9844 71,145.9844 Q70.2344,145.9844 69.5938,146.3125 Q68.9688,146.6406 68.4688,147.3906 Q67.9844,148.1406 67.9844,149.1719 L67.9844,150.2656 Q67.9844,151.5 68.875,152.3281 Q69.7656,153.1406 71.3594,153.1406 Q72.2969,153.1406 72.9531,152.8906 Q73.3438,152.7344 73.7656,152.2969 Q74.0313,152.0313 74.1719,151.9531 Q74.3281,151.875 74.5313,151.875 Q74.8594,151.875 75.1094,152.1406 Q75.375,152.3906 75.375,152.7344 Q75.375,153.0781 75.0313,153.4844 Q74.5313,154.0625 73.7344,154.3906 Q72.6563,154.8438 71.3594,154.8438 Q69.8438,154.8438 68.6406,154.2188 Q67.6563,153.7188 66.9688,152.6563 Q66.2813,151.5781 66.2813,150.2969 L66.2813,149.1406 Q66.2813,147.8125 66.8906,146.6719 Q67.5156,145.5156 68.6094,144.9063 Q69.7031,144.2813 70.9375,144.2813 Q71.6719,144.2813 72.3125,144.4531 Q72.9688,144.6094 73.5156,144.9688 Z " fill="#000000"/><text fill="#000000" font-family="sans-serif" font-size="14" lengthAdjust="spacing" textLength="25" x="142.75" y="148.5332">App</text><text fill="#000000" font-family="sans-serif" font-size="10" lengthAdjust="spacing" textLength="128" x="91.25" y="161.9902">nz.ac.wgtn.swen225.lc.app</text><line style="stroke:#A80036;stroke-width:1.5;" x1="17.5" x2="260.5" y1="169.1875" y2="169.1875"/><ellipse cx="27.5" cy="180.1875" rx="3" ry="3" style="stroke:#038048;stroke-width:1.0;fill:none;"/><text fill="#000000" font-family="sans-serif" font-size="11" lengthAdjust="spacing" textLength="104" x="36.5" y="184.6064">treasureLabel: JLabel</text><ellipse cx="27.5" cy="194.0234" rx="3" ry="3" style="stroke:#038048;stroke-width:1.0;fill:none;"/><text fill="#000000" font-family="sans-serif" font-size="11" lengthAdjust="spacing" textLength="80" x="36.5" y="198.4424">paused: boolean</text><line style="stroke:#A80036;stroke-width:1.5;" x1="17.5" x2="260.5" y1="204.8594" y2="204.8594"/><ellipse cx="27.5" cy="215.8594" fill="#84BE84" rx="3" ry="3" style="stroke:#038048;stroke-width:1.0;"/><text fill="#000000" font-family="sans-serif" font-size="11" lengthAdjust="spacing" textLength="77" x="36.5" y="220.2783">setup(File): void</text><ellipse cx="27.5" cy="229.6953" fill="#84BE84" rx="3" ry="3" style="stroke:#038048;stroke-width:1.0;"/><text fill="#000000" font-family="sans-serif" font-size="11" lengthAdjust="spacing" textLength="132" x="36.5" y="234.1143">createInventory(int): JPanel</text><ellipse cx="27.5" cy="243.5313" fill="#84BE84" rx="3" ry="3" style="stroke:#038048;stroke-width:1.0;"/><text fill="#000000" font-family="sans-serif" font-size="11" lengthAdjust="spacing" textLength="137" x="36.5" y="247.9502">updateInventory(Item[]): void</text><ellipse cx="27.5" cy="257.3672" fill="#84BE84" rx="3" ry="3" style="stroke:#038048;stroke-width:1.0;"/><text fill="#000000" font-family="sans-serif" font-size="11" lengthAdjust="spacing" textLength="219" x="36.5" y="261.7861">createLabel(String, Font, Color, Color): JLabel</text><ellipse cx="27.5" cy="271.2031" fill="#84BE84" rx="3" ry="3" style="stroke:#038048;stroke-width:1.0;"/><text fill="#000000" font-family="sans-serif" font-size="11" lengthAdjust="spacing" textLength="123" x="36.5" y="275.6221">setPaused(boolean): void</text><ellipse cx="27.5" cy="285.0391" fill="#84BE84" rx="3" ry="3" style="stroke:#038048;stroke-width:1.0;"/><text fill="#000000" font-family="sans-serif" font-size="11" lengthAdjust="spacing" textLength="119" x="36.5" y="289.458">moveAction(String): void</text><ellipse cx="27.5" cy="298.875" fill="#84BE84" rx="3" ry="3" style="stroke:#038048;stroke-width:1.0;"/><text fill="#000000" font-family="sans-serif" font-size="11" lengthAdjust="spacing" textLength="171" x="36.5" y="303.2939">actionPerformed(ActionEvent): void</text><ellipse cx="27.5" cy="312.7109" fill="#84BE84" rx="3" ry="3" style="stroke:#038048;stroke-width:1.0;"/><text fill="#000000" font-family="sans-serif" font-size="11" lengthAdjust="spacing" text-decoration="underline" textLength="119" x="36.5" y="317.1299">getRenderer(): Renderer</text><ellipse cx="27.5" cy="326.5469" fill="#84BE84" rx="3" ry="3" style="stroke:#038048;stroke-width:1.0;"/><text fill="#000000" font-family="sans-serif" font-size="11" lengthAdjust="spacing" text-decoration="underline" textLength="87" x="36.5" y="330.9658">getBoard(): Board</text></a><!--MD5=[56a185cb33bdc7c23303e5865f20a19b]
class javax.swing.JPanel--><rect codeLine="19" fill="#FEFECE" filter="url(#f1ivn8ugrah2dy)" height="40.1875" id="javax.swing.JPanel" style="stroke:#A80036;stroke-width:1.5;" width="86" x="7" y="18"/><ellipse cx="22" cy="38.0938" fill="#ADD1B2" rx="11" ry="11" style="stroke:#A80036;stroke-width:1.0;"/><path d="M24.7656,33.9688 Q24.9219,33.75 25.1094,33.6406 Q25.2969,33.5313 25.5156,33.5313 Q25.8906,33.5313 26.125,33.7969 Q26.3594,34.0469 26.3594,34.6563 L26.3594,36.1094 Q26.3594,36.7188 26.125,36.9844 Q25.8906,37.25 25.5156,37.25 Q25.1719,37.25 24.9688,37.0469 Q24.7656,36.8594 24.6563,36.3438 Q24.6094,35.9844 24.4219,35.7969 Q24.0938,35.4219 23.4844,35.2031 Q22.875,34.9844 22.25,34.9844 Q21.4844,34.9844 20.8438,35.3125 Q20.2188,35.6406 19.7188,36.3906 Q19.2344,37.1406 19.2344,38.1719 L19.2344,39.2656 Q19.2344,40.5 20.125,41.3281 Q21.0156,42.1406 22.6094,42.1406 Q23.5469,42.1406 24.2031,41.8906 Q24.5938,41.7344 25.0156,41.2969 Q25.2813,41.0313 25.4219,40.9531 Q25.5781,40.875 25.7813,40.875 Q26.1094,40.875 26.3594,41.1406 Q26.625,41.3906 26.625,41.7344 Q26.625,42.0781 26.2813,42.4844 Q25.7813,43.0625 24.9844,43.3906 Q23.9063,43.8438 22.6094,43.8438 Q21.0938,43.8438 19.8906,43.2188 Q18.9063,42.7188 18.2188,41.6563 Q17.5313,40.5781 17.5313,39.2969 L17.5313,38.1406 Q17.5313,36.8125 18.1406,35.6719 Q18.7656,34.5156 19.8594,33.9063 Q20.9531,33.2813 22.1875,33.2813 Q22.9219,33.2813 23.5625,33.4531 Q24.2188,33.6094 24.7656,33.9688 Z " fill="#000000"/><text fill="#000000" font-family="sans-serif" font-size="14" lengthAdjust="spacing" textLength="42" x="42" y="37.5332">JPanel</text><text fill="#000000" font-family="sans-serif" font-size="10" lengthAdjust="spacing" textLength="54" x="36" y="50.9902">javax.swing</text><!--MD5=[6631281fcee7fc541b441b6c950a0fa0]
class java.awt.event.ActionListener--><rect codeLine="20" fill="#FEFECE" filter="url(#f1ivn8ugrah2dy)" height="62.0234" id="java.awt.event.ActionListener" style="stroke:#A80036;stroke-width:1.5;" width="199" x="128.5" y="7"/><ellipse cx="178.75" cy="27.0938" fill="#B4A7E5" rx="11" ry="11" style="stroke:#A80036;stroke-width:1.0;"/><path d="M179.7031,23.7344 L179.7031,30.3906 L181.4219,30.3906 Q182.0313,30.3906 182.2969,30.625 Q182.5625,30.8594 182.5625,31.25 Q182.5625,31.625 182.2969,31.8594 Q182.0313,32.0938 181.4219,32.0938 L176.2813,32.0938 Q175.6719,32.0938 175.4063,31.8594 Q175.1406,31.625 175.1406,31.2344 Q175.1406,30.8594 175.4063,30.625 Q175.6719,30.3906 176.2813,30.3906 L178,30.3906 L178,23.7344 L176.2813,23.7344 Q175.6719,23.7344 175.4063,23.5 Q175.1406,23.2656 175.1406,22.875 Q175.1406,22.5 175.4063,22.2656 Q175.6719,22.0313 176.2813,22.0313 L181.4219,22.0313 Q182.0313,22.0313 182.2969,22.2656 Q182.5625,22.5 182.5625,22.875 Q182.5625,23.2656 182.2969,23.5 Q182.0313,23.7344 181.4219,23.7344 L179.7031,23.7344 Z " fill="#000000"/><text fill="#000000" font-family="sans-serif" font-size="14" font-style="italic" lengthAdjust="spacing" textLength="90" x="199.25" y="26.5332">ActionListener</text><text fill="#000000" font-family="sans-serif" font-size="10" font-style="italic" lengthAdjust="spacing" textLength="68" x="210.25" y="39.9902">java.awt.event</text><line style="stroke:#A80036;stroke-width:1.5;" x1="129.5" x2="326.5" y1="47.1875" y2="47.1875"/><ellipse cx="139.5" cy="58.1875" fill="#84BE84" rx="3" ry="3" style="stroke:#038048;stroke-width:1.0;"/><text fill="#000000" font-family="sans-serif" font-size="11" font-style="italic" lengthAdjust="spacing" textLength="173" x="148.5" y="62.6064">actionPerformed(ActionEvent): void</text><!--MD5=[c35d268dc0f32632045be5a42b412a8c]
reverse link javax.swing.JPanel to nz.ac.wgtn.swen225.lc.app.App--><path codeLine="24" d="M67.25,76.42 C74.27,91.62 82.75,110.01 91.38,128.74 " fill="none" id="javax.swing.JPanel-backto-nz.ac.wgtn.swen225.lc.app.App" style="stroke:#A80036;stroke-width:1.0;"/><polygon fill="none" points="60.88,79.3,58.86,58.21,73.59,73.44,60.88,79.3" style="stroke:#A80036;stroke-width:1.0;"/><!--MD5=[9ac2613807cff2d7966d6d4b76bd1b2f]
reverse link java.awt.event.ActionListener to nz.ac.wgtn.swen225.lc.app.App--><path codeLine="25" d="M205.55,87.68 C199.7,100.36 193.18,114.51 186.56,128.86 " fill="none" id="java.awt.event.ActionListener-backto-nz.ac.wgtn.swen225.lc.app.App" style="stroke:#A80036;stroke-width:1.0;stroke-dasharray:7.0,7.0;"/><polygon fill="none" points="199.36,84.39,214.09,69.16,212.08,90.25,199.36,84.39" style="stroke:#A80036;stroke-width:1.0;"/><text fill="#888888" font-family="sans-serif" font-size="10" lengthAdjust="spacing" textLength="184" x="72.25" y="360.7637">UMLDoclet 2.0.14, PlantUML 1.2021.9</text><!--MD5=[9249fdfd4f206435277efc02356c7f0c]
@startuml
    set namespaceSeparator none
    hide empty fields
    hide empty methods

    class "<size:14>App\n<size:10>nz.ac.wgtn.swen225.lc.app" as nz.ac.wgtn.swen225.lc.app.App [[App.html]] {
        +treasureLabel: JLabel
        +paused: boolean
        +setup(File): void
        +createInventory(int): JPanel
        +updateInventory(Item[]): void
        +createLabel(String, Font, Color, Color): JLabel
        +setPaused(boolean): void
        +moveAction(String): void
        +actionPerformed(ActionEvent): void
        {static} +getRenderer(): Renderer
        {static} +getBoard(): Board
    }

    class "<size:14>JPanel\n<size:10>javax.swing" as javax.swing.JPanel
    interface "<size:14>ActionListener\n<size:10>java.awt.event" as java.awt.event.ActionListener {
        {abstract} +actionPerformed(ActionEvent): void
    }

    javax.swing.JPanel <|- - nz.ac.wgtn.swen225.lc.app.App
    java.awt.event.ActionListener <|.. nz.ac.wgtn.swen225.lc.app.App

    center footer UMLDoclet 2.0.14, PlantUML 1.2021.9
@enduml

PlantUML version 1.2021.9(Sun Jul 25 17:13:56 ICT 2021)
(APACHE source distribution)
Java Runtime: OpenJDK Runtime Environment
JVM: OpenJDK 64-Bit Server VM
Default Encoding: Cp1252
Language: en
Country: NZ
--></g></svg>