<?xml version="1.0" encoding="UTF-8" standalone="no"?><svg xmlns="http://www.w3.org/2000/svg" xmlns:xlink="http://www.w3.org/1999/xlink" contentScriptType="application/ecmascript" contentStyleType="text/css" height="179px" preserveAspectRatio="none" style="width:191px;height:179px;background:#FFFFFF;" version="1.1" viewBox="0 0 191 179" width="191px" zoomAndPan="magnify"><defs><filter height="300%" id="fihvlm4nj54na" width="300%" x="-1" y="-1"><feGaussianBlur result="blurOut" stdDeviation="2.0"/><feColorMatrix in="blurOut" result="blurOut2" type="matrix" values="0 0 0 0 0 0 0 0 0 0 0 0 0 0 0 0 0 0 .4 0"/><feOffset dx="4.0" dy="4.0" in="blurOut2" result="blurOut3"/><feBlend in="SourceGraphic" in2="blurOut3" mode="normal"/></filter></defs><g><!--MD5=[331d9ed393c04a193b97f083c6e07884]
class nz.ac.wgtn.swen225.lc.app.KeyBindingsPanel--><a href="KeyBindingsPanel.html" target="_top" title="KeyBindingsPanel.html" xlink:actuate="onRequest" xlink:href="KeyBindingsPanel.html" xlink:show="new" xlink:title="KeyBindingsPanel.html" xlink:type="simple"><rect codeLine="5" fill="#FEFECE" filter="url(#fihvlm4nj54na)" height="40.1875" id="nz.ac.wgtn.swen225.lc.app.KeyBindingsPanel" style="stroke:#A80036;stroke-width:1.5;" width="160" x="15" y="107"/><ellipse cx="30" cy="127.0938" fill="#ADD1B2" rx="11" ry="11" style="stroke:#A80036;stroke-width:1.0;"/><path d="M32.7656,122.9688 Q32.9219,122.75 33.1094,122.6406 Q33.2969,122.5313 33.5156,122.5313 Q33.8906,122.5313 34.125,122.7969 Q34.3594,123.0469 34.3594,123.6563 L34.3594,125.1094 Q34.3594,125.7188 34.125,125.9844 Q33.8906,126.25 33.5156,126.25 Q33.1719,126.25 32.9688,126.0469 Q32.7656,125.8594 32.6563,125.3438 Q32.6094,124.9844 32.4219,124.7969 Q32.0938,124.4219 31.4844,124.2031 Q30.875,123.9844 30.25,123.9844 Q29.4844,123.9844 28.8438,124.3125 Q28.2188,124.6406 27.7188,125.3906 Q27.2344,126.1406 27.2344,127.1719 L27.2344,128.2656 Q27.2344,129.5 28.125,130.3281 Q29.0156,131.1406 30.6094,131.1406 Q31.5469,131.1406 32.2031,130.8906 Q32.5938,130.7344 33.0156,130.2969 Q33.2813,130.0313 33.4219,129.9531 Q33.5781,129.875 33.7813,129.875 Q34.1094,129.875 34.3594,130.1406 Q34.625,130.3906 34.625,130.7344 Q34.625,131.0781 34.2813,131.4844 Q33.7813,132.0625 32.9844,132.3906 Q31.9063,132.8438 30.6094,132.8438 Q29.0938,132.8438 27.8906,132.2188 Q26.9063,131.7188 26.2188,130.6563 Q25.5313,129.5781 25.5313,128.2969 L25.5313,127.1406 Q25.5313,125.8125 26.1406,124.6719 Q26.7656,123.5156 27.8594,122.9063 Q28.9531,122.2813 30.1875,122.2813 Q30.9219,122.2813 31.5625,122.4531 Q32.2188,122.6094 32.7656,122.9688 Z " fill="#000000"/><text fill="#000000" font-family="sans-serif" font-size="14" lengthAdjust="spacing" textLength="114" x="51" y="126.5332">KeyBindingsPanel</text><text fill="#000000" font-family="sans-serif" font-size="10" lengthAdjust="spacing" textLength="128" x="44" y="139.9902">nz.ac.wgtn.swen225.lc.app</text></a><!--MD5=[56a185cb33bdc7c23303e5865f20a19b]
class javax.swing.JPanel--><rect codeLine="8" fill="#FEFECE" filter="url(#fihvlm4nj54na)" height="40.1875" id="javax.swing.JPanel" style="stroke:#A80036;stroke-width:1.5;" width="86" x="52" y="7"/><ellipse cx="67" cy="27.0938" fill="#ADD1B2" rx="11" ry="11" style="stroke:#A80036;stroke-width:1.0;"/><path d="M69.7656,22.9688 Q69.9219,22.75 70.1094,22.6406 Q70.2969,22.5313 70.5156,22.5313 Q70.8906,22.5313 71.125,22.7969 Q71.3594,23.0469 71.3594,23.6563 L71.3594,25.1094 Q71.3594,25.7188 71.125,25.9844 Q70.8906,26.25 70.5156,26.25 Q70.1719,26.25 69.9688,26.0469 Q69.7656,25.8594 69.6563,25.3438 Q69.6094,24.9844 69.4219,24.7969 Q69.0938,24.4219 68.4844,24.2031 Q67.875,23.9844 67.25,23.9844 Q66.4844,23.9844 65.8438,24.3125 Q65.2188,24.6406 64.7188,25.3906 Q64.2344,26.1406 64.2344,27.1719 L64.2344,28.2656 Q64.2344,29.5 65.125,30.3281 Q66.0156,31.1406 67.6094,31.1406 Q68.5469,31.1406 69.2031,30.8906 Q69.5938,30.7344 70.0156,30.2969 Q70.2813,30.0313 70.4219,29.9531 Q70.5781,29.875 70.7813,29.875 Q71.1094,29.875 71.3594,30.1406 Q71.625,30.3906 71.625,30.7344 Q71.625,31.0781 71.2813,31.4844 Q70.7813,32.0625 69.9844,32.3906 Q68.9063,32.8438 67.6094,32.8438 Q66.0938,32.8438 64.8906,32.2188 Q63.9063,31.7188 63.2188,30.6563 Q62.5313,29.5781 62.5313,28.2969 L62.5313,27.1406 Q62.5313,25.8125 63.1406,24.6719 Q63.7656,23.5156 64.8594,22.9063 Q65.9531,22.2813 67.1875,22.2813 Q67.9219,22.2813 68.5625,22.4531 Q69.2188,22.6094 69.7656,22.9688 Z " fill="#000000"/><text fill="#000000" font-family="sans-serif" font-size="14" lengthAdjust="spacing" textLength="42" x="87" y="26.5332">JPanel</text><text fill="#000000" font-family="sans-serif" font-size="10" lengthAdjust="spacing" textLength="54" x="81" y="39.9902">javax.swing</text><!--MD5=[db2ffdcbcd9e00df0ae157c4af52b27e]
reverse link javax.swing.JPanel to nz.ac.wgtn.swen225.lc.app.KeyBindingsPanel--><path codeLine="10" d="M95,67.69 C95,81.13 95,95.55 95,106.68 " fill="none" id="javax.swing.JPanel-backto-nz.ac.wgtn.swen225.lc.app.KeyBindingsPanel" style="stroke:#A80036;stroke-width:1.0;"/><polygon fill="none" points="88,67.36,95,47.36,102,67.36,88,67.36" style="stroke:#A80036;stroke-width:1.0;"/><text fill="#888888" font-family="sans-serif" font-size="10" lengthAdjust="spacing" textLength="184" x="0" y="170.5684">UMLDoclet 2.0.14, PlantUML 1.2021.9</text><!--MD5=[95c77193c0525bf215f7350f57bd2471]
@startuml
    set namespaceSeparator none
    hide empty fields
    hide empty methods

    class "<size:14>KeyBindingsPanel\n<size:10>nz.ac.wgtn.swen225.lc.app" as nz.ac.wgtn.swen225.lc.app.KeyBindingsPanel [[KeyBindingsPanel.html]] {
    }

    class "<size:14>JPanel\n<size:10>javax.swing" as javax.swing.JPanel

    javax.swing.JPanel <|- - nz.ac.wgtn.swen225.lc.app.KeyBindingsPanel

    center footer UMLDoclet 2.0.14, PlantUML 1.2021.9
@enduml

PlantUML version 1.2021.9(Sun Jul 25 17:13:56 ICT 2021)
(APACHE source distribution)
Java Runtime: OpenJDK Runtime Environment
JVM: OpenJDK 64-Bit Server VM
Default Encoding: Cp1252
Language: en
Country: NZ
--></g></svg>