<?xml version="1.0" encoding="UTF-8" standalone="no"?><svg xmlns="http://www.w3.org/2000/svg" xmlns:xlink="http://www.w3.org/1999/xlink" contentScriptType="application/ecmascript" contentStyleType="text/css" height="278px" preserveAspectRatio="none" style="width:204px;height:278px;background:#FFFFFF;" version="1.1" viewBox="0 0 204 278" width="204px" zoomAndPan="magnify"><defs><filter height="300%" id="fdg7h6xjcgdot" width="300%" x="-1" y="-1"><feGaussianBlur result="blurOut" stdDeviation="2.0"/><feColorMatrix in="blurOut" result="blurOut2" type="matrix" values="0 0 0 0 0 0 0 0 0 0 0 0 0 0 0 0 0 0 .4 0"/><feOffset dx="4.0" dy="4.0" in="blurOut2" result="blurOut3"/><feBlend in="SourceGraphic" in2="blurOut3" mode="normal"/></filter></defs><g><!--MD5=[0f5c56363665156088b2c85c39f1be82]
class nz.ac.wgtn.swen225.lc.app.MenuPanel--><a href="MenuPanel.html" target="_top" title="MenuPanel.html" xlink:actuate="onRequest" xlink:href="MenuPanel.html" xlink:show="new" xlink:title="MenuPanel.html" xlink:type="simple"><rect codeLine="5" fill="#FEFECE" filter="url(#fdg7h6xjcgdot)" height="139.2031" id="nz.ac.wgtn.swen225.lc.app.MenuPanel" style="stroke:#A80036;stroke-width:1.5;" width="181" x="9" y="107"/><ellipse cx="33.45" cy="127.0938" fill="#ADD1B2" rx="11" ry="11" style="stroke:#A80036;stroke-width:1.0;"/><path d="M36.2156,122.9688 Q36.3719,122.75 36.5594,122.6406 Q36.7469,122.5313 36.9656,122.5313 Q37.3406,122.5313 37.575,122.7969 Q37.8094,123.0469 37.8094,123.6563 L37.8094,125.1094 Q37.8094,125.7188 37.575,125.9844 Q37.3406,126.25 36.9656,126.25 Q36.6219,126.25 36.4188,126.0469 Q36.2156,125.8594 36.1063,125.3438 Q36.0594,124.9844 35.8719,124.7969 Q35.5438,124.4219 34.9344,124.2031 Q34.325,123.9844 33.7,123.9844 Q32.9344,123.9844 32.2938,124.3125 Q31.6688,124.6406 31.1688,125.3906 Q30.6844,126.1406 30.6844,127.1719 L30.6844,128.2656 Q30.6844,129.5 31.575,130.3281 Q32.4656,131.1406 34.0594,131.1406 Q34.9969,131.1406 35.6531,130.8906 Q36.0438,130.7344 36.4656,130.2969 Q36.7313,130.0313 36.8719,129.9531 Q37.0281,129.875 37.2313,129.875 Q37.5594,129.875 37.8094,130.1406 Q38.075,130.3906 38.075,130.7344 Q38.075,131.0781 37.7313,131.4844 Q37.2313,132.0625 36.4344,132.3906 Q35.3563,132.8438 34.0594,132.8438 Q32.5438,132.8438 31.3406,132.2188 Q30.3563,131.7188 29.6688,130.6563 Q28.9813,129.5781 28.9813,128.2969 L28.9813,127.1406 Q28.9813,125.8125 29.5906,124.6719 Q30.2156,123.5156 31.3094,122.9063 Q32.4031,122.2813 33.6375,122.2813 Q34.3719,122.2813 35.0125,122.4531 Q35.6688,122.6094 36.2156,122.9688 Z " fill="#000000"/><text fill="#000000" font-family="sans-serif" font-size="14" lengthAdjust="spacing" textLength="71" x="78.05" y="126.5332">MenuPanel</text><text fill="#000000" font-family="sans-serif" font-size="10" lengthAdjust="spacing" textLength="128" x="49.55" y="139.9902">nz.ac.wgtn.swen225.lc.app</text><line style="stroke:#A80036;stroke-width:1.5;" x1="10" x2="189" y1="147.1875" y2="147.1875"/><ellipse cx="20" cy="158.1875" rx="3" ry="3" style="stroke:#038048;stroke-width:1.0;fill:none;"/><text fill="#000000" font-family="sans-serif" font-size="11" lengthAdjust="spacing" textLength="108" x="29" y="162.6064">levelSelected: boolean</text><line style="stroke:#A80036;stroke-width:1.5;" x1="10" x2="189" y1="169.0234" y2="169.0234"/><polygon fill="#FFFF44" points="20,175.0234,24,179.0234,20,183.0234,16,179.0234" style="stroke:#B38D22;stroke-width:1.0;"/><text fill="#000000" font-family="sans-serif" font-size="11" lengthAdjust="spacing" textLength="155" x="29" y="184.4424">paintComponent(Graphics): void</text><ellipse cx="20" cy="193.8594" fill="#84BE84" rx="3" ry="3" style="stroke:#038048;stroke-width:1.0;"/><text fill="#000000" font-family="sans-serif" font-size="11" lengthAdjust="spacing" textLength="119" x="29" y="198.2783">getStartButton(): JButton</text><ellipse cx="20" cy="207.6953" fill="#84BE84" rx="3" ry="3" style="stroke:#038048;stroke-width:1.0;"/><text fill="#000000" font-family="sans-serif" font-size="11" lengthAdjust="spacing" textLength="152" x="29" y="212.1143">getLevelSelectButton(): JButton</text><ellipse cx="20" cy="221.5313" fill="#84BE84" rx="3" ry="3" style="stroke:#038048;stroke-width:1.0;"/><text fill="#000000" font-family="sans-serif" font-size="11" lengthAdjust="spacing" textLength="108" x="29" y="225.9502">getSelectedLevel(): int</text><ellipse cx="20" cy="235.3672" fill="#84BE84" rx="3" ry="3" style="stroke:#038048;stroke-width:1.0;"/><text fill="#000000" font-family="sans-serif" font-size="11" lengthAdjust="spacing" textLength="117" x="29" y="239.7861">getHelpButton(): JButton</text></a><!--MD5=[56a185cb33bdc7c23303e5865f20a19b]
class javax.swing.JPanel--><rect codeLine="14" fill="#FEFECE" filter="url(#fdg7h6xjcgdot)" height="40.1875" id="javax.swing.JPanel" style="stroke:#A80036;stroke-width:1.5;" width="86" x="56.5" y="7"/><ellipse cx="71.5" cy="27.0938" fill="#ADD1B2" rx="11" ry="11" style="stroke:#A80036;stroke-width:1.0;"/><path d="M74.2656,22.9688 Q74.4219,22.75 74.6094,22.6406 Q74.7969,22.5313 75.0156,22.5313 Q75.3906,22.5313 75.625,22.7969 Q75.8594,23.0469 75.8594,23.6563 L75.8594,25.1094 Q75.8594,25.7188 75.625,25.9844 Q75.3906,26.25 75.0156,26.25 Q74.6719,26.25 74.4688,26.0469 Q74.2656,25.8594 74.1563,25.3438 Q74.1094,24.9844 73.9219,24.7969 Q73.5938,24.4219 72.9844,24.2031 Q72.375,23.9844 71.75,23.9844 Q70.9844,23.9844 70.3438,24.3125 Q69.7188,24.6406 69.2188,25.3906 Q68.7344,26.1406 68.7344,27.1719 L68.7344,28.2656 Q68.7344,29.5 69.625,30.3281 Q70.5156,31.1406 72.1094,31.1406 Q73.0469,31.1406 73.7031,30.8906 Q74.0938,30.7344 74.5156,30.2969 Q74.7813,30.0313 74.9219,29.9531 Q75.0781,29.875 75.2813,29.875 Q75.6094,29.875 75.8594,30.1406 Q76.125,30.3906 76.125,30.7344 Q76.125,31.0781 75.7813,31.4844 Q75.2813,32.0625 74.4844,32.3906 Q73.4063,32.8438 72.1094,32.8438 Q70.5938,32.8438 69.3906,32.2188 Q68.4063,31.7188 67.7188,30.6563 Q67.0313,29.5781 67.0313,28.2969 L67.0313,27.1406 Q67.0313,25.8125 67.6406,24.6719 Q68.2656,23.5156 69.3594,22.9063 Q70.4531,22.2813 71.6875,22.2813 Q72.4219,22.2813 73.0625,22.4531 Q73.7188,22.6094 74.2656,22.9688 Z " fill="#000000"/><text fill="#000000" font-family="sans-serif" font-size="14" lengthAdjust="spacing" textLength="42" x="91.5" y="26.5332">JPanel</text><text fill="#000000" font-family="sans-serif" font-size="10" lengthAdjust="spacing" textLength="54" x="85.5" y="39.9902">javax.swing</text><!--MD5=[0b388f9e113e969e662705fa5e196f8a]
reverse link javax.swing.JPanel to nz.ac.wgtn.swen225.lc.app.MenuPanel--><path codeLine="16" d="M99.5,67.54 C99.5,79.63 99.5,93.31 99.5,106.76 " fill="none" id="javax.swing.JPanel-backto-nz.ac.wgtn.swen225.lc.app.MenuPanel" style="stroke:#A80036;stroke-width:1.0;"/><polygon fill="none" points="92.5,67.28,99.5,47.28,106.5,67.28,92.5,67.28" style="stroke:#A80036;stroke-width:1.0;"/><text fill="#888888" font-family="sans-serif" font-size="10" lengthAdjust="spacing" textLength="184" x="3.5" y="269.584">UMLDoclet 2.0.14, PlantUML 1.2021.9</text><!--MD5=[76041c1fa5a38611915315dde0608e05]
@startuml
    set namespaceSeparator none
    hide empty fields
    hide empty methods

    class "<size:14>MenuPanel\n<size:10>nz.ac.wgtn.swen225.lc.app" as nz.ac.wgtn.swen225.lc.app.MenuPanel [[MenuPanel.html]] {
        +levelSelected: boolean
        #paintComponent(Graphics): void
        +getStartButton(): JButton
        +getLevelSelectButton(): JButton
        +getSelectedLevel(): int
        +getHelpButton(): JButton
    }

    class "<size:14>JPanel\n<size:10>javax.swing" as javax.swing.JPanel

    javax.swing.JPanel <|- - nz.ac.wgtn.swen225.lc.app.MenuPanel

    center footer UMLDoclet 2.0.14, PlantUML 1.2021.9
@enduml

PlantUML version 1.2021.9(Sun Jul 25 17:13:56 ICT 2021)
(APACHE source distribution)
Java Runtime: OpenJDK Runtime Environment
JVM: OpenJDK 64-Bit Server VM
Default Encoding: Cp1252
Language: en
Country: NZ
--></g></svg>