<?xml version="1.0" encoding="UTF-8" standalone="no"?><svg xmlns="http://www.w3.org/2000/svg" xmlns:xlink="http://www.w3.org/1999/xlink" contentStyleType="text/css" height="295px" preserveAspectRatio="none" style="width:247px;height:295px;background:#FFFFFF;" version="1.1" viewBox="0 0 247 295" width="247px" zoomAndPan="magnify"><defs/><g><!--class nz.ac.wgtn.swen225.lc.app.MenuPanel--><a href="MenuPanel.html" target="_top" title="MenuPanel.html" xlink:actuate="onRequest" xlink:href="MenuPanel.html" xlink:show="new" xlink:title="MenuPanel.html" xlink:type="simple"><g id="elem_nz.ac.wgtn.swen225.lc.app.MenuPanel"><rect codeLine="5" fill="#F1F1F1" height="161.8438" id="nz.ac.wgtn.swen225.lc.app.MenuPanel" rx="2.5" ry="2.5" style="stroke:#181818;stroke-width:0.5;" width="231" x="9" y="107"/><ellipse cx="56.25" cy="127.0938" fill="#ADD1B2" rx="11" ry="11" style="stroke:#181818;stroke-width:1.0;"/><path d="M59.0156,122.9688 Q59.1719,122.75 59.3594,122.6406 Q59.5469,122.5313 59.7656,122.5313 Q60.1406,122.5313 60.375,122.7969 Q60.6094,123.0469 60.6094,123.6563 L60.6094,125.1094 Q60.6094,125.7188 60.375,125.9844 Q60.1406,126.25 59.7656,126.25 Q59.4219,126.25 59.2188,126.0469 Q59.0156,125.8594 58.9063,125.3438 Q58.8594,124.9844 58.6719,124.7969 Q58.3438,124.4219 57.7344,124.2031 Q57.125,123.9844 56.5,123.9844 Q55.7344,123.9844 55.0938,124.3125 Q54.4688,124.6406 53.9688,125.3906 Q53.4844,126.1406 53.4844,127.1719 L53.4844,128.2656 Q53.4844,129.5 54.375,130.3281 Q55.2656,131.1406 56.8594,131.1406 Q57.7969,131.1406 58.4531,130.8906 Q58.8438,130.7344 59.2656,130.2969 Q59.5313,130.0313 59.6719,129.9531 Q59.8281,129.875 60.0313,129.875 Q60.3594,129.875 60.6094,130.1406 Q60.875,130.3906 60.875,130.7344 Q60.875,131.0781 60.5313,131.4844 Q60.0313,132.0625 59.2344,132.3906 Q58.1563,132.8438 56.8594,132.8438 Q55.3438,132.8438 54.1406,132.2188 Q53.1563,131.7188 52.4688,130.6563 Q51.7813,129.5781 51.7813,128.2969 L51.7813,127.1406 Q51.7813,125.8125 52.3906,124.6719 Q53.0156,123.5156 54.1094,122.9063 Q55.2031,122.2813 56.4375,122.2813 Q57.1719,122.2813 57.8125,122.4531 Q58.4688,122.6094 59.0156,122.9688 Z " fill="#000000"/><text fill="#000000" font-family="sans-serif" font-size="14" lengthAdjust="spacing" textLength="71" x="105.25" y="126.5332">MenuPanel</text><text fill="#000000" font-family="sans-serif" font-size="10" lengthAdjust="spacing" textLength="128" x="76.75" y="139.9902">nz.ac.wgtn.swen225.lc.app</text><line style="stroke:#181818;stroke-width:0.5;" x1="10" x2="239" y1="147.1875" y2="147.1875"/><ellipse cx="20" cy="161.4922" fill="none" rx="3" ry="3" style="stroke:#038048;stroke-width:1.0;"/><text fill="#000000" font-family="sans-serif" font-size="14" lengthAdjust="spacing" textLength="143" x="29" y="165.7207">levelSelected: boolean</text><line style="stroke:#181818;stroke-width:0.5;" x1="10" x2="239" y1="172.7969" y2="172.7969"/><polygon fill="#FFFF44" points="20,182.1016,24,186.1016,20,190.1016,16,186.1016" style="stroke:#B38D22;stroke-width:1.0;"/><text fill="#000000" font-family="sans-serif" font-size="14" lengthAdjust="spacing" textLength="205" x="29" y="191.3301">paintComponent(Graphics): void</text><ellipse cx="20" cy="204.7109" fill="#84BE84" rx="3" ry="3" style="stroke:#038048;stroke-width:1.0;"/><text fill="#000000" font-family="sans-serif" font-size="14" lengthAdjust="spacing" textLength="156" x="29" y="208.9395">getStartButton(): JButton</text><ellipse cx="20" cy="222.3203" fill="#84BE84" rx="3" ry="3" style="stroke:#038048;stroke-width:1.0;"/><text fill="#000000" font-family="sans-serif" font-size="14" lengthAdjust="spacing" textLength="199" x="29" y="226.5488">getLevelSelectButton(): JButton</text><ellipse cx="20" cy="239.9297" fill="#84BE84" rx="3" ry="3" style="stroke:#038048;stroke-width:1.0;"/><text fill="#000000" font-family="sans-serif" font-size="14" lengthAdjust="spacing" textLength="142" x="29" y="244.1582">getSelectedLevel(): int</text><ellipse cx="20" cy="257.5391" fill="#84BE84" rx="3" ry="3" style="stroke:#038048;stroke-width:1.0;"/><text fill="#000000" font-family="sans-serif" font-size="14" lengthAdjust="spacing" textLength="154" x="29" y="261.7676">getHelpButton(): JButton</text></g></a><!--class javax.swing.JPanel--><g id="elem_javax.swing.JPanel"><rect codeLine="14" fill="#F1F1F1" height="40.1875" id="javax.swing.JPanel" rx="2.5" ry="2.5" style="stroke:#181818;stroke-width:0.5;" width="86" x="81.5" y="7"/><ellipse cx="96.5" cy="27.0938" fill="#ADD1B2" rx="11" ry="11" style="stroke:#181818;stroke-width:1.0;"/><path d="M99.2656,22.9688 Q99.4219,22.75 99.6094,22.6406 Q99.7969,22.5313 100.0156,22.5313 Q100.3906,22.5313 100.625,22.7969 Q100.8594,23.0469 100.8594,23.6563 L100.8594,25.1094 Q100.8594,25.7188 100.625,25.9844 Q100.3906,26.25 100.0156,26.25 Q99.6719,26.25 99.4688,26.0469 Q99.2656,25.8594 99.1563,25.3438 Q99.1094,24.9844 98.9219,24.7969 Q98.5938,24.4219 97.9844,24.2031 Q97.375,23.9844 96.75,23.9844 Q95.9844,23.9844 95.3438,24.3125 Q94.7188,24.6406 94.2188,25.3906 Q93.7344,26.1406 93.7344,27.1719 L93.7344,28.2656 Q93.7344,29.5 94.625,30.3281 Q95.5156,31.1406 97.1094,31.1406 Q98.0469,31.1406 98.7031,30.8906 Q99.0938,30.7344 99.5156,30.2969 Q99.7813,30.0313 99.9219,29.9531 Q100.0781,29.875 100.2813,29.875 Q100.6094,29.875 100.8594,30.1406 Q101.125,30.3906 101.125,30.7344 Q101.125,31.0781 100.7813,31.4844 Q100.2813,32.0625 99.4844,32.3906 Q98.4063,32.8438 97.1094,32.8438 Q95.5938,32.8438 94.3906,32.2188 Q93.4063,31.7188 92.7188,30.6563 Q92.0313,29.5781 92.0313,28.2969 L92.0313,27.1406 Q92.0313,25.8125 92.6406,24.6719 Q93.2656,23.5156 94.3594,22.9063 Q95.4531,22.2813 96.6875,22.2813 Q97.4219,22.2813 98.0625,22.4531 Q98.7188,22.6094 99.2656,22.9688 Z " fill="#000000"/><text fill="#000000" font-family="sans-serif" font-size="14" lengthAdjust="spacing" textLength="42" x="116.5" y="26.5332">JPanel</text><text fill="#000000" font-family="sans-serif" font-size="10" lengthAdjust="spacing" textLength="54" x="110.5" y="39.9902">javax.swing</text></g><!--reverse link javax.swing.JPanel to nz.ac.wgtn.swen225.lc.app.MenuPanel--><g id="link_javax.swing.JPanel_nz.ac.wgtn.swen225.lc.app.MenuPanel"><path codeLine="16" d="M124.5,67.25 C124.5,79.28 124.5,92.99 124.5,106.72 " fill="none" id="javax.swing.JPanel-backto-nz.ac.wgtn.swen225.lc.app.MenuPanel" style="stroke:#181818;stroke-width:1.0;"/><polygon fill="none" points="117.5,67.18,124.5,47.18,131.5,67.18,117.5,67.18" style="stroke:#181818;stroke-width:1.0;"/></g><text fill="#888888" font-family="sans-serif" font-size="10" lengthAdjust="spacing" textLength="184" x="24.5" y="285.2246">UMLDoclet 2.1.0, PlantUML 1.2022.14</text><!--SRC=[ZL9DJm8n4BtxAoOO4upI0D4B8HpKH4CW8I6UaCFO7TYQxhJP3ekY_dUx2uBWH-obxNklRsPU2W0GI80ne-1HqvWyvYWk1tPCHv66r2G4b7bvWPaXcuH3D2D9NOGhN5iC0MhTO5RKQLtqXiIB4JBP1zvWpHwl56grd0khi2Hkjo-LrGgzhm46-9LLMo-OJBPdbKfcfrDuhSgNwynIGNPCbhHGqe57vomXR_bZZuRbscK-ZiXIlytHfqQ7qmuKpYGxdpd9M32NguM8utha- -lZdcImg_QtyBEZwa4fYbti2Ux8-fyjtdyEjt-Ox1CM-1nZCpolilnoLslnskWx3jstHkC_sMywYS5H3ZFdokr-EBXnsiQFr5OjrJo7aKMMYC99GNamvK0V]--></g></svg>