<?xml version="1.0" encoding="UTF-8" standalone="no"?><svg xmlns="http://www.w3.org/2000/svg" xmlns:xlink="http://www.w3.org/1999/xlink" contentStyleType="text/css" height="812px" preserveAspectRatio="none" style="width:1550px;height:812px;background:#FFFFFF;" version="1.1" viewBox="0 0 1550 812" width="1550px" zoomAndPan="magnify"><defs/><g><!--cluster nz.ac.wgtn.swen225.lc.app--><g id="cluster_nz.ac.wgtn.swen225.lc.app"><path d="M8.5,192 L194.5,192 A3.75,3.75 0 0 1 197,194.5 L204,215.6094 L1052.5,215.6094 A2.5,2.5 0 0 1 1055,218.1094 L1055,783.5 A2.5,2.5 0 0 1 1052.5,786 L8.5,786 A2.5,2.5 0 0 1 6,783.5 L6,194.5 A2.5,2.5 0 0 1 8.5,192 " fill="none" style="stroke:#000000;stroke-width:1.5;"/><line style="stroke:#000000;stroke-width:1.5;" x1="6" x2="204" y1="215.6094" y2="215.6094"/><text fill="#000000" font-family="sans-serif" font-size="14" font-weight="bold" lengthAdjust="spacing" textLength="185" x="10" y="208.5332">nz.ac.wgtn.swen225.lc.app</text></g><!--cluster javax.swing--><g id="cluster_javax.swing"><path d="M518.5,6 L601.5,6 A3.75,3.75 0 0 1 604,8.5 L611,29.6094 L918.5,29.6094 A2.5,2.5 0 0 1 921,32.1094 L921,156.5 A2.5,2.5 0 0 1 918.5,159 L518.5,159 A2.5,2.5 0 0 1 516,156.5 L516,8.5 A2.5,2.5 0 0 1 518.5,6 " fill="none" style="stroke:#000000;stroke-width:1.5;"/><line style="stroke:#000000;stroke-width:1.5;" x1="516" x2="611" y1="29.6094" y2="29.6094"/><text fill="#000000" font-family="sans-serif" font-size="14" font-weight="bold" lengthAdjust="spacing" textLength="82" x="520" y="22.5332">javax.swing</text></g><!--cluster java.awt.event--><g id="cluster_java.awt.event"><path d="M1131.5,262 L1234.5,262 A3.75,3.75 0 0 1 1237,264.5 L1244,285.6094 L1406.5,285.6094 A2.5,2.5 0 0 1 1409,288.1094 L1409,377.5 A2.5,2.5 0 0 1 1406.5,380 L1131.5,380 A2.5,2.5 0 0 1 1129,377.5 L1129,264.5 A2.5,2.5 0 0 1 1131.5,262 " fill="none" style="stroke:#000000;stroke-width:1.5;"/><line style="stroke:#000000;stroke-width:1.5;" x1="1129" x2="1244" y1="285.6094" y2="285.6094"/><text fill="#000000" font-family="sans-serif" font-size="14" font-weight="bold" lengthAdjust="spacing" textLength="102" x="1133" y="278.5332">java.awt.event</text></g><!--cluster java.lang--><g id="cluster_java.lang"><path d="M1435.5,271 L1499.5,271 A3.75,3.75 0 0 1 1502,273.5 L1509,294.6094 L1540.5,294.6094 A2.5,2.5 0 0 1 1543,297.1094 L1543,368.5 A2.5,2.5 0 0 1 1540.5,371 L1435.5,371 A2.5,2.5 0 0 1 1433,368.5 L1433,273.5 A2.5,2.5 0 0 1 1435.5,271 " fill="none" style="stroke:#000000;stroke-width:1.5;"/><line style="stroke:#000000;stroke-width:1.5;" x1="1433" x2="1509" y1="294.6094" y2="294.6094"/><text fill="#000000" font-family="sans-serif" font-size="14" font-weight="bold" lengthAdjust="spacing" textLength="63" x="1437" y="287.5332">java.lang</text></g><!--class nz.ac.wgtn.swen225.lc.app.App--><a href="App.html" target="_top" title="App.html" xlink:actuate="onRequest" xlink:href="App.html" xlink:show="new" xlink:title="App.html" xlink:type="simple"><g id="elem_nz.ac.wgtn.swen225.lc.app.App"><rect codeLine="3" fill="#F1F1F1" height="241.7031" id="nz.ac.wgtn.swen225.lc.app.App" rx="2.5" ry="2.5" style="stroke:#181818;stroke-width:0.5;" width="318" x="528" y="528"/><ellipse cx="670.25" cy="544" fill="#ADD1B2" rx="11" ry="11" style="stroke:#181818;stroke-width:1.0;"/><path d="M673.0156,539.875 Q673.1719,539.6563 673.3594,539.5469 Q673.5469,539.4375 673.7656,539.4375 Q674.1406,539.4375 674.375,539.7031 Q674.6094,539.9531 674.6094,540.5625 L674.6094,542.0156 Q674.6094,542.625 674.375,542.8906 Q674.1406,543.1563 673.7656,543.1563 Q673.4219,543.1563 673.2188,542.9531 Q673.0156,542.7656 672.9063,542.25 Q672.8594,541.8906 672.6719,541.7031 Q672.3438,541.3281 671.7344,541.1094 Q671.125,540.8906 670.5,540.8906 Q669.7344,540.8906 669.0938,541.2188 Q668.4688,541.5469 667.9688,542.2969 Q667.4844,543.0469 667.4844,544.0781 L667.4844,545.1719 Q667.4844,546.4063 668.375,547.2344 Q669.2656,548.0469 670.8594,548.0469 Q671.7969,548.0469 672.4531,547.7969 Q672.8438,547.6406 673.2656,547.2031 Q673.5313,546.9375 673.6719,546.8594 Q673.8281,546.7813 674.0313,546.7813 Q674.3594,546.7813 674.6094,547.0469 Q674.875,547.2969 674.875,547.6406 Q674.875,547.9844 674.5313,548.3906 Q674.0313,548.9688 673.2344,549.2969 Q672.1563,549.75 670.8594,549.75 Q669.3438,549.75 668.1406,549.125 Q667.1563,548.625 666.4688,547.5625 Q665.7813,546.4844 665.7813,545.2031 L665.7813,544.0469 Q665.7813,542.7188 666.3906,541.5781 Q667.0156,540.4219 668.1094,539.8125 Q669.2031,539.1875 670.4375,539.1875 Q671.1719,539.1875 671.8125,539.3594 Q672.4688,539.5156 673.0156,539.875 Z " fill="#000000"/><text fill="#000000" font-family="sans-serif" font-size="14" lengthAdjust="spacing" textLength="25" x="690.75" y="549.7285">App</text><line style="stroke:#181818;stroke-width:0.5;" x1="529" x2="845" y1="560" y2="560"/><ellipse cx="539" cy="574.3047" fill="none" rx="3" ry="3" style="stroke:#038048;stroke-width:1.0;"/><text fill="#000000" font-family="sans-serif" font-size="14" lengthAdjust="spacing" textLength="137" x="548" y="578.5332">treasureLabel: JLabel</text><ellipse cx="539" cy="591.9141" fill="none" rx="3" ry="3" style="stroke:#038048;stroke-width:1.0;"/><text fill="#000000" font-family="sans-serif" font-size="14" lengthAdjust="spacing" textLength="106" x="548" y="596.1426">paused: boolean</text><line style="stroke:#181818;stroke-width:0.5;" x1="529" x2="845" y1="603.2188" y2="603.2188"/><ellipse cx="539" cy="617.5234" fill="#84BE84" rx="3" ry="3" style="stroke:#038048;stroke-width:1.0;"/><text fill="#000000" font-family="sans-serif" font-size="14" lengthAdjust="spacing" textLength="102" x="548" y="621.752">setup(File): void</text><ellipse cx="539" cy="635.1328" fill="#84BE84" rx="3" ry="3" style="stroke:#038048;stroke-width:1.0;"/><text fill="#000000" font-family="sans-serif" font-size="14" lengthAdjust="spacing" textLength="173" x="548" y="639.3613">createInventory(int): JPanel</text><ellipse cx="539" cy="652.7422" fill="#84BE84" rx="3" ry="3" style="stroke:#038048;stroke-width:1.0;"/><text fill="#000000" font-family="sans-serif" font-size="14" lengthAdjust="spacing" textLength="180" x="548" y="656.9707">updateInventory(Item[]): void</text><ellipse cx="539" cy="670.3516" fill="#84BE84" rx="3" ry="3" style="stroke:#038048;stroke-width:1.0;"/><text fill="#000000" font-family="sans-serif" font-size="14" lengthAdjust="spacing" textLength="292" x="548" y="674.5801">createLabel(String, Font, Color, Color): JLabel</text><ellipse cx="539" cy="687.9609" fill="#84BE84" rx="3" ry="3" style="stroke:#038048;stroke-width:1.0;"/><text fill="#000000" font-family="sans-serif" font-size="14" lengthAdjust="spacing" textLength="162" x="548" y="692.1895">setPaused(boolean): void</text><ellipse cx="539" cy="705.5703" fill="#84BE84" rx="3" ry="3" style="stroke:#038048;stroke-width:1.0;"/><text fill="#000000" font-family="sans-serif" font-size="14" lengthAdjust="spacing" textLength="154" x="548" y="709.7988">moveAction(String): void</text><ellipse cx="539" cy="723.1797" fill="#84BE84" rx="3" ry="3" style="stroke:#038048;stroke-width:1.0;"/><text fill="#000000" font-family="sans-serif" font-size="14" lengthAdjust="spacing" textLength="223" x="548" y="727.4082">actionPerformed(ActionEvent): void</text><ellipse cx="539" cy="740.7891" fill="#84BE84" rx="3" ry="3" style="stroke:#038048;stroke-width:1.0;"/><text fill="#000000" font-family="sans-serif" font-size="14" lengthAdjust="spacing" text-decoration="underline" textLength="158" x="548" y="745.0176">getRenderer(): Renderer</text><ellipse cx="539" cy="758.3984" fill="#84BE84" rx="3" ry="3" style="stroke:#038048;stroke-width:1.0;"/><text fill="#000000" font-family="sans-serif" font-size="14" lengthAdjust="spacing" text-decoration="underline" textLength="114" x="548" y="762.627">getBoard(): Board</text></g></a><!--class nz.ac.wgtn.swen225.lc.app.HelpDialog--><a href="HelpDialog.html" target="_top" title="HelpDialog.html" xlink:actuate="onRequest" xlink:href="HelpDialog.html" xlink:show="new" xlink:title="HelpDialog.html" xlink:type="simple"><g id="elem_nz.ac.wgtn.swen225.lc.app.HelpDialog"><rect codeLine="17" fill="#F1F1F1" height="65.6094" id="nz.ac.wgtn.swen225.lc.app.HelpDialog" rx="2.5" ry="2.5" style="stroke:#181818;stroke-width:0.5;" width="151" x="887.5" y="298"/><ellipse cx="925.45" cy="314" fill="#ADD1B2" rx="11" ry="11" style="stroke:#181818;stroke-width:1.0;"/><path d="M928.2156,309.875 Q928.3719,309.6563 928.5594,309.5469 Q928.7469,309.4375 928.9656,309.4375 Q929.3406,309.4375 929.575,309.7031 Q929.8094,309.9531 929.8094,310.5625 L929.8094,312.0156 Q929.8094,312.625 929.575,312.8906 Q929.3406,313.1563 928.9656,313.1563 Q928.6219,313.1563 928.4188,312.9531 Q928.2156,312.7656 928.1063,312.25 Q928.0594,311.8906 927.8719,311.7031 Q927.5438,311.3281 926.9344,311.1094 Q926.325,310.8906 925.7,310.8906 Q924.9344,310.8906 924.2938,311.2188 Q923.6688,311.5469 923.1688,312.2969 Q922.6844,313.0469 922.6844,314.0781 L922.6844,315.1719 Q922.6844,316.4063 923.575,317.2344 Q924.4656,318.0469 926.0594,318.0469 Q926.9969,318.0469 927.6531,317.7969 Q928.0438,317.6406 928.4656,317.2031 Q928.7313,316.9375 928.8719,316.8594 Q929.0281,316.7813 929.2313,316.7813 Q929.5594,316.7813 929.8094,317.0469 Q930.075,317.2969 930.075,317.6406 Q930.075,317.9844 929.7313,318.3906 Q929.2313,318.9688 928.4344,319.2969 Q927.3563,319.75 926.0594,319.75 Q924.5438,319.75 923.3406,319.125 Q922.3563,318.625 921.6688,317.5625 Q920.9813,316.4844 920.9813,315.2031 L920.9813,314.0469 Q920.9813,312.7188 921.5906,311.5781 Q922.2156,310.4219 923.3094,309.8125 Q924.4031,309.1875 925.6375,309.1875 Q926.3719,309.1875 927.0125,309.3594 Q927.6688,309.5156 928.2156,309.875 Z " fill="#000000"/><text fill="#000000" font-family="sans-serif" font-size="14" lengthAdjust="spacing" textLength="68" x="944.55" y="319.7285">HelpDialog</text><line style="stroke:#181818;stroke-width:0.5;" x1="888.5" x2="1037.5" y1="330" y2="330"/><line style="stroke:#181818;stroke-width:0.5;" x1="888.5" x2="1037.5" y1="338" y2="338"/><ellipse cx="898.5" cy="352.3047" fill="#84BE84" rx="3" ry="3" style="stroke:#038048;stroke-width:1.0;"/><text fill="#000000" font-family="sans-serif" font-size="14" lengthAdjust="spacing" textLength="125" x="907.5" y="356.5332">HelpDialog(JFrame)</text></g></a><!--class nz.ac.wgtn.swen225.lc.app.KeyBindingsPanel--><a href="KeyBindingsPanel.html" target="_top" title="KeyBindingsPanel.html" xlink:actuate="onRequest" xlink:href="KeyBindingsPanel.html" xlink:show="new" xlink:title="KeyBindingsPanel.html" xlink:type="simple"><g id="elem_nz.ac.wgtn.swen225.lc.app.KeyBindingsPanel"><rect codeLine="21" fill="#F1F1F1" height="48" id="nz.ac.wgtn.swen225.lc.app.KeyBindingsPanel" rx="2.5" ry="2.5" style="stroke:#181818;stroke-width:0.5;" width="146" x="440" y="307"/><ellipse cx="455" cy="323" fill="#ADD1B2" rx="11" ry="11" style="stroke:#181818;stroke-width:1.0;"/><path d="M457.7656,318.875 Q457.9219,318.6563 458.1094,318.5469 Q458.2969,318.4375 458.5156,318.4375 Q458.8906,318.4375 459.125,318.7031 Q459.3594,318.9531 459.3594,319.5625 L459.3594,321.0156 Q459.3594,321.625 459.125,321.8906 Q458.8906,322.1563 458.5156,322.1563 Q458.1719,322.1563 457.9688,321.9531 Q457.7656,321.7656 457.6563,321.25 Q457.6094,320.8906 457.4219,320.7031 Q457.0938,320.3281 456.4844,320.1094 Q455.875,319.8906 455.25,319.8906 Q454.4844,319.8906 453.8438,320.2188 Q453.2188,320.5469 452.7188,321.2969 Q452.2344,322.0469 452.2344,323.0781 L452.2344,324.1719 Q452.2344,325.4063 453.125,326.2344 Q454.0156,327.0469 455.6094,327.0469 Q456.5469,327.0469 457.2031,326.7969 Q457.5938,326.6406 458.0156,326.2031 Q458.2813,325.9375 458.4219,325.8594 Q458.5781,325.7813 458.7813,325.7813 Q459.1094,325.7813 459.3594,326.0469 Q459.625,326.2969 459.625,326.6406 Q459.625,326.9844 459.2813,327.3906 Q458.7813,327.9688 457.9844,328.2969 Q456.9063,328.75 455.6094,328.75 Q454.0938,328.75 452.8906,328.125 Q451.9063,327.625 451.2188,326.5625 Q450.5313,325.4844 450.5313,324.2031 L450.5313,323.0469 Q450.5313,321.7188 451.1406,320.5781 Q451.7656,319.4219 452.8594,318.8125 Q453.9531,318.1875 455.1875,318.1875 Q455.9219,318.1875 456.5625,318.3594 Q457.2188,318.5156 457.7656,318.875 Z " fill="#000000"/><text fill="#000000" font-family="sans-serif" font-size="14" lengthAdjust="spacing" textLength="114" x="469" y="328.7285">KeyBindingsPanel</text><line style="stroke:#181818;stroke-width:0.5;" x1="441" x2="585" y1="339" y2="339"/><line style="stroke:#181818;stroke-width:0.5;" x1="441" x2="585" y1="347" y2="347"/></g></a><!--class nz.ac.wgtn.swen225.lc.app.MenuPanel--><a href="MenuPanel.html" target="_top" title="MenuPanel.html" xlink:actuate="onRequest" xlink:href="MenuPanel.html" xlink:show="new" xlink:title="MenuPanel.html" xlink:type="simple"><g id="elem_nz.ac.wgtn.swen225.lc.app.MenuPanel"><rect codeLine="24" fill="#F1F1F1" height="153.6563" id="nz.ac.wgtn.swen225.lc.app.MenuPanel" rx="2.5" ry="2.5" style="stroke:#181818;stroke-width:0.5;" width="231" x="621.5" y="254"/><ellipse cx="697.25" cy="270" fill="#ADD1B2" rx="11" ry="11" style="stroke:#181818;stroke-width:1.0;"/><path d="M700.0156,265.875 Q700.1719,265.6563 700.3594,265.5469 Q700.5469,265.4375 700.7656,265.4375 Q701.1406,265.4375 701.375,265.7031 Q701.6094,265.9531 701.6094,266.5625 L701.6094,268.0156 Q701.6094,268.625 701.375,268.8906 Q701.1406,269.1563 700.7656,269.1563 Q700.4219,269.1563 700.2188,268.9531 Q700.0156,268.7656 699.9063,268.25 Q699.8594,267.8906 699.6719,267.7031 Q699.3438,267.3281 698.7344,267.1094 Q698.125,266.8906 697.5,266.8906 Q696.7344,266.8906 696.0938,267.2188 Q695.4688,267.5469 694.9688,268.2969 Q694.4844,269.0469 694.4844,270.0781 L694.4844,271.1719 Q694.4844,272.4063 695.375,273.2344 Q696.2656,274.0469 697.8594,274.0469 Q698.7969,274.0469 699.4531,273.7969 Q699.8438,273.6406 700.2656,273.2031 Q700.5313,272.9375 700.6719,272.8594 Q700.8281,272.7813 701.0313,272.7813 Q701.3594,272.7813 701.6094,273.0469 Q701.875,273.2969 701.875,273.6406 Q701.875,273.9844 701.5313,274.3906 Q701.0313,274.9688 700.2344,275.2969 Q699.1563,275.75 697.8594,275.75 Q696.3438,275.75 695.1406,275.125 Q694.1563,274.625 693.4688,273.5625 Q692.7813,272.4844 692.7813,271.2031 L692.7813,270.0469 Q692.7813,268.7188 693.3906,267.5781 Q694.0156,266.4219 695.1094,265.8125 Q696.2031,265.1875 697.4375,265.1875 Q698.1719,265.1875 698.8125,265.3594 Q699.4688,265.5156 700.0156,265.875 Z " fill="#000000"/><text fill="#000000" font-family="sans-serif" font-size="14" lengthAdjust="spacing" textLength="71" x="717.75" y="275.7285">MenuPanel</text><line style="stroke:#181818;stroke-width:0.5;" x1="622.5" x2="851.5" y1="286" y2="286"/><ellipse cx="632.5" cy="300.3047" fill="none" rx="3" ry="3" style="stroke:#038048;stroke-width:1.0;"/><text fill="#000000" font-family="sans-serif" font-size="14" lengthAdjust="spacing" textLength="143" x="641.5" y="304.5332">levelSelected: boolean</text><line style="stroke:#181818;stroke-width:0.5;" x1="622.5" x2="851.5" y1="311.6094" y2="311.6094"/><polygon fill="#FFFF44" points="632.5,320.9141,636.5,324.9141,632.5,328.9141,628.5,324.9141" style="stroke:#B38D22;stroke-width:1.0;"/><text fill="#000000" font-family="sans-serif" font-size="14" lengthAdjust="spacing" textLength="205" x="641.5" y="330.1426">paintComponent(Graphics): void</text><ellipse cx="632.5" cy="343.5234" fill="#84BE84" rx="3" ry="3" style="stroke:#038048;stroke-width:1.0;"/><text fill="#000000" font-family="sans-serif" font-size="14" lengthAdjust="spacing" textLength="156" x="641.5" y="347.752">getStartButton(): JButton</text><ellipse cx="632.5" cy="361.1328" fill="#84BE84" rx="3" ry="3" style="stroke:#038048;stroke-width:1.0;"/><text fill="#000000" font-family="sans-serif" font-size="14" lengthAdjust="spacing" textLength="199" x="641.5" y="365.3613">getLevelSelectButton(): JButton</text><ellipse cx="632.5" cy="378.7422" fill="#84BE84" rx="3" ry="3" style="stroke:#038048;stroke-width:1.0;"/><text fill="#000000" font-family="sans-serif" font-size="14" lengthAdjust="spacing" textLength="142" x="641.5" y="382.9707">getSelectedLevel(): int</text><ellipse cx="632.5" cy="396.3516" fill="#84BE84" rx="3" ry="3" style="stroke:#038048;stroke-width:1.0;"/><text fill="#000000" font-family="sans-serif" font-size="14" lengthAdjust="spacing" textLength="154" x="641.5" y="400.5801">getHelpButton(): JButton</text></g></a><!--class nz.ac.wgtn.swen225.lc.app.Move--><a href="Move.html" target="_top" title="Move.html" xlink:actuate="onRequest" xlink:href="Move.html" xlink:show="new" xlink:title="Move.html" xlink:type="simple"><g id="elem_nz.ac.wgtn.swen225.lc.app.Move"><rect codeLine="33" fill="#F1F1F1" height="100.8281" id="nz.ac.wgtn.swen225.lc.app.Move" rx="2.5" ry="2.5" style="stroke:#181818;stroke-width:0.5;" width="158" x="881" y="598.5"/><ellipse cx="938.75" cy="614.5" fill="#ADD1B2" rx="11" ry="11" style="stroke:#181818;stroke-width:1.0;"/><path d="M941.5156,610.375 Q941.6719,610.1563 941.8594,610.0469 Q942.0469,609.9375 942.2656,609.9375 Q942.6406,609.9375 942.875,610.2031 Q943.1094,610.4531 943.1094,611.0625 L943.1094,612.5156 Q943.1094,613.125 942.875,613.3906 Q942.6406,613.6563 942.2656,613.6563 Q941.9219,613.6563 941.7188,613.4531 Q941.5156,613.2656 941.4063,612.75 Q941.3594,612.3906 941.1719,612.2031 Q940.8438,611.8281 940.2344,611.6094 Q939.625,611.3906 939,611.3906 Q938.2344,611.3906 937.5938,611.7188 Q936.9688,612.0469 936.4688,612.7969 Q935.9844,613.5469 935.9844,614.5781 L935.9844,615.6719 Q935.9844,616.9063 936.875,617.7344 Q937.7656,618.5469 939.3594,618.5469 Q940.2969,618.5469 940.9531,618.2969 Q941.3438,618.1406 941.7656,617.7031 Q942.0313,617.4375 942.1719,617.3594 Q942.3281,617.2813 942.5313,617.2813 Q942.8594,617.2813 943.1094,617.5469 Q943.375,617.7969 943.375,618.1406 Q943.375,618.4844 943.0313,618.8906 Q942.5313,619.4688 941.7344,619.7969 Q940.6563,620.25 939.3594,620.25 Q937.8438,620.25 936.6406,619.625 Q935.6563,619.125 934.9688,618.0625 Q934.2813,616.9844 934.2813,615.7031 L934.2813,614.5469 Q934.2813,613.2188 934.8906,612.0781 Q935.5156,610.9219 936.6094,610.3125 Q937.7031,609.6875 938.9375,609.6875 Q939.6719,609.6875 940.3125,609.8594 Q940.9688,610.0156 941.5156,610.375 Z " fill="#000000"/><text fill="#000000" font-family="sans-serif" font-size="14" lengthAdjust="spacing" textLength="34" x="959.25" y="620.2285">Move</text><line style="stroke:#181818;stroke-width:0.5;" x1="882" x2="1038" y1="630.5" y2="630.5"/><line style="stroke:#181818;stroke-width:0.5;" x1="882" x2="1038" y1="638.5" y2="638.5"/><ellipse cx="892" cy="652.8047" fill="#84BE84" rx="3" ry="3" style="stroke:#038048;stroke-width:1.0;"/><text fill="#000000" font-family="sans-serif" font-size="14" lengthAdjust="spacing" textLength="132" x="901" y="657.0332">Move(String, double)</text><ellipse cx="892" cy="670.4141" fill="#84BE84" rx="3" ry="3" style="stroke:#038048;stroke-width:1.0;"/><text fill="#000000" font-family="sans-serif" font-size="14" lengthAdjust="spacing" textLength="89" x="901" y="674.6426">move(): String</text><ellipse cx="892" cy="688.0234" fill="#84BE84" rx="3" ry="3" style="stroke:#038048;stroke-width:1.0;"/><text fill="#000000" font-family="sans-serif" font-size="14" lengthAdjust="spacing" textLength="87" x="901" y="692.252">time(): double</text></g></a><!--class nz.ac.wgtn.swen225.lc.app.PausedPanel--><a href="PausedPanel.html" target="_top" title="PausedPanel.html" xlink:actuate="onRequest" xlink:href="PausedPanel.html" xlink:show="new" xlink:title="PausedPanel.html" xlink:type="simple"><g id="elem_nz.ac.wgtn.swen225.lc.app.PausedPanel"><rect codeLine="39" fill="#F1F1F1" height="48" id="nz.ac.wgtn.swen225.lc.app.PausedPanel" rx="2.5" ry="2.5" style="stroke:#181818;stroke-width:0.5;" width="116" x="22" y="307"/><ellipse cx="37" cy="323" fill="#ADD1B2" rx="11" ry="11" style="stroke:#181818;stroke-width:1.0;"/><path d="M39.7656,318.875 Q39.9219,318.6563 40.1094,318.5469 Q40.2969,318.4375 40.5156,318.4375 Q40.8906,318.4375 41.125,318.7031 Q41.3594,318.9531 41.3594,319.5625 L41.3594,321.0156 Q41.3594,321.625 41.125,321.8906 Q40.8906,322.1563 40.5156,322.1563 Q40.1719,322.1563 39.9688,321.9531 Q39.7656,321.7656 39.6563,321.25 Q39.6094,320.8906 39.4219,320.7031 Q39.0938,320.3281 38.4844,320.1094 Q37.875,319.8906 37.25,319.8906 Q36.4844,319.8906 35.8438,320.2188 Q35.2188,320.5469 34.7188,321.2969 Q34.2344,322.0469 34.2344,323.0781 L34.2344,324.1719 Q34.2344,325.4063 35.125,326.2344 Q36.0156,327.0469 37.6094,327.0469 Q38.5469,327.0469 39.2031,326.7969 Q39.5938,326.6406 40.0156,326.2031 Q40.2813,325.9375 40.4219,325.8594 Q40.5781,325.7813 40.7813,325.7813 Q41.1094,325.7813 41.3594,326.0469 Q41.625,326.2969 41.625,326.6406 Q41.625,326.9844 41.2813,327.3906 Q40.7813,327.9688 39.9844,328.2969 Q38.9063,328.75 37.6094,328.75 Q36.0938,328.75 34.8906,328.125 Q33.9063,327.625 33.2188,326.5625 Q32.5313,325.4844 32.5313,324.2031 L32.5313,323.0469 Q32.5313,321.7188 33.1406,320.5781 Q33.7656,319.4219 34.8594,318.8125 Q35.9531,318.1875 37.1875,318.1875 Q37.9219,318.1875 38.5625,318.3594 Q39.2188,318.5156 39.7656,318.875 Z " fill="#000000"/><text fill="#000000" font-family="sans-serif" font-size="14" lengthAdjust="spacing" textLength="84" x="51" y="328.7285">PausedPanel</text><line style="stroke:#181818;stroke-width:0.5;" x1="23" x2="137" y1="339" y2="339"/><line style="stroke:#181818;stroke-width:0.5;" x1="23" x2="137" y1="347" y2="347"/></g></a><!--class nz.ac.wgtn.swen225.lc.app.RecorderPanel--><a href="RecorderPanel.html" target="_top" title="RecorderPanel.html" xlink:actuate="onRequest" xlink:href="RecorderPanel.html" xlink:show="new" xlink:title="RecorderPanel.html" xlink:type="simple"><g id="elem_nz.ac.wgtn.swen225.lc.app.RecorderPanel"><rect codeLine="41" fill="#F1F1F1" height="206.4844" id="nz.ac.wgtn.swen225.lc.app.RecorderPanel" rx="2.5" ry="2.5" style="stroke:#181818;stroke-width:0.5;" width="231" x="173.5" y="228"/><ellipse cx="237.25" cy="244" fill="#ADD1B2" rx="11" ry="11" style="stroke:#181818;stroke-width:1.0;"/><path d="M240.0156,239.875 Q240.1719,239.6563 240.3594,239.5469 Q240.5469,239.4375 240.7656,239.4375 Q241.1406,239.4375 241.375,239.7031 Q241.6094,239.9531 241.6094,240.5625 L241.6094,242.0156 Q241.6094,242.625 241.375,242.8906 Q241.1406,243.1563 240.7656,243.1563 Q240.4219,243.1563 240.2188,242.9531 Q240.0156,242.7656 239.9063,242.25 Q239.8594,241.8906 239.6719,241.7031 Q239.3438,241.3281 238.7344,241.1094 Q238.125,240.8906 237.5,240.8906 Q236.7344,240.8906 236.0938,241.2188 Q235.4688,241.5469 234.9688,242.2969 Q234.4844,243.0469 234.4844,244.0781 L234.4844,245.1719 Q234.4844,246.4063 235.375,247.2344 Q236.2656,248.0469 237.8594,248.0469 Q238.7969,248.0469 239.4531,247.7969 Q239.8438,247.6406 240.2656,247.2031 Q240.5313,246.9375 240.6719,246.8594 Q240.8281,246.7813 241.0313,246.7813 Q241.3594,246.7813 241.6094,247.0469 Q241.875,247.2969 241.875,247.6406 Q241.875,247.9844 241.5313,248.3906 Q241.0313,248.9688 240.2344,249.2969 Q239.1563,249.75 237.8594,249.75 Q236.3438,249.75 235.1406,249.125 Q234.1563,248.625 233.4688,247.5625 Q232.7813,246.4844 232.7813,245.2031 L232.7813,244.0469 Q232.7813,242.7188 233.3906,241.5781 Q234.0156,240.4219 235.1094,239.8125 Q236.2031,239.1875 237.4375,239.1875 Q238.1719,239.1875 238.8125,239.3594 Q239.4688,239.5156 240.0156,239.875 Z " fill="#000000"/><text fill="#000000" font-family="sans-serif" font-size="14" lengthAdjust="spacing" textLength="95" x="257.75" y="249.7285">RecorderPanel</text><line style="stroke:#181818;stroke-width:0.5;" x1="174.5" x2="403.5" y1="260" y2="260"/><ellipse cx="184.5" cy="274.3047" fill="none" rx="3" ry="3" style="stroke:#038048;stroke-width:1.0;"/><text fill="#000000" font-family="sans-serif" font-size="14" lengthAdjust="spacing" text-decoration="underline" textLength="119" x="193.5" y="278.5332">recording: boolean</text><ellipse cx="184.5" cy="291.9141" fill="none" rx="3" ry="3" style="stroke:#038048;stroke-width:1.0;"/><text fill="#000000" font-family="sans-serif" font-size="14" lengthAdjust="spacing" text-decoration="underline" textLength="49" x="193.5" y="296.1426">time: int</text><ellipse cx="184.5" cy="309.5234" fill="none" rx="3" ry="3" style="stroke:#038048;stroke-width:1.0;"/><text fill="#000000" font-family="sans-serif" font-size="14" lengthAdjust="spacing" text-decoration="underline" textLength="58" x="193.5" y="313.752">count: int</text><line style="stroke:#181818;stroke-width:0.5;" x1="174.5" x2="403.5" y1="320.8281" y2="320.8281"/><ellipse cx="184.5" cy="335.1328" fill="#84BE84" rx="3" ry="3" style="stroke:#038048;stroke-width:1.0;"/><text fill="#000000" font-family="sans-serif" font-size="14" lengthAdjust="spacing" textLength="130" x="193.5" y="339.3613">RecorderPanel(App)</text><ellipse cx="184.5" cy="352.7422" fill="#84BE84" rx="3" ry="3" style="stroke:#038048;stroke-width:1.0;"/><text fill="#000000" font-family="sans-serif" font-size="14" lengthAdjust="spacing" textLength="137" x="193.5" y="356.9707">startRecording(): void</text><ellipse cx="184.5" cy="370.3516" fill="#84BE84" rx="3" ry="3" style="stroke:#038048;stroke-width:1.0;"/><text fill="#000000" font-family="sans-serif" font-size="14" lengthAdjust="spacing" textLength="136" x="193.5" y="374.5801">stopRecording(): void</text><ellipse cx="184.5" cy="387.9609" fill="#84BE84" rx="3" ry="3" style="stroke:#038048;stroke-width:1.0;"/><text fill="#000000" font-family="sans-serif" font-size="14" lengthAdjust="spacing" textLength="141" x="193.5" y="392.1895">saveEndingInfo(): void</text><polygon fill="#FFFF44" points="184.5,400.5703,188.5,404.5703,184.5,408.5703,180.5,404.5703" style="stroke:#B38D22;stroke-width:1.0;"/><text fill="#000000" font-family="sans-serif" font-size="14" lengthAdjust="spacing" textLength="205" x="193.5" y="409.7988">paintComponent(Graphics): void</text><ellipse cx="184.5" cy="423.1797" fill="#84BE84" rx="3" ry="3" style="stroke:#038048;stroke-width:1.0;"/><text fill="#000000" font-family="sans-serif" font-size="14" lengthAdjust="spacing" textLength="114" x="193.5" y="427.4082">getFileCount(): int</text></g></a><!--class javax.swing.JPanel--><g id="elem_javax.swing.JPanel"><rect codeLine="66" fill="#F1F1F1" height="48" id="javax.swing.JPanel" rx="2.5" ry="2.5" style="stroke:#181818;stroke-width:0.5;" width="74" x="532" y="68.5"/><ellipse cx="547" cy="84.5" fill="#ADD1B2" rx="11" ry="11" style="stroke:#181818;stroke-width:1.0;"/><path d="M549.7656,80.375 Q549.9219,80.1563 550.1094,80.0469 Q550.2969,79.9375 550.5156,79.9375 Q550.8906,79.9375 551.125,80.2031 Q551.3594,80.4531 551.3594,81.0625 L551.3594,82.5156 Q551.3594,83.125 551.125,83.3906 Q550.8906,83.6563 550.5156,83.6563 Q550.1719,83.6563 549.9688,83.4531 Q549.7656,83.2656 549.6563,82.75 Q549.6094,82.3906 549.4219,82.2031 Q549.0938,81.8281 548.4844,81.6094 Q547.875,81.3906 547.25,81.3906 Q546.4844,81.3906 545.8438,81.7188 Q545.2188,82.0469 544.7188,82.7969 Q544.2344,83.5469 544.2344,84.5781 L544.2344,85.6719 Q544.2344,86.9063 545.125,87.7344 Q546.0156,88.5469 547.6094,88.5469 Q548.5469,88.5469 549.2031,88.2969 Q549.5938,88.1406 550.0156,87.7031 Q550.2813,87.4375 550.4219,87.3594 Q550.5781,87.2813 550.7813,87.2813 Q551.1094,87.2813 551.3594,87.5469 Q551.625,87.7969 551.625,88.1406 Q551.625,88.4844 551.2813,88.8906 Q550.7813,89.4688 549.9844,89.7969 Q548.9063,90.25 547.6094,90.25 Q546.0938,90.25 544.8906,89.625 Q543.9063,89.125 543.2188,88.0625 Q542.5313,86.9844 542.5313,85.7031 L542.5313,84.5469 Q542.5313,83.2188 543.1406,82.0781 Q543.7656,80.9219 544.8594,80.3125 Q545.9531,79.6875 547.1875,79.6875 Q547.9219,79.6875 548.5625,79.8594 Q549.2188,80.0156 549.7656,80.375 Z " fill="#000000"/><text fill="#000000" font-family="sans-serif" font-size="14" lengthAdjust="spacing" textLength="42" x="561" y="90.2285">JPanel</text><line style="stroke:#181818;stroke-width:0.5;" x1="533" x2="605" y1="100.5" y2="100.5"/><line style="stroke:#181818;stroke-width:0.5;" x1="533" x2="605" y1="108.5" y2="108.5"/></g><!--class javax.swing.JDialog--><g id="elem_javax.swing.JDialog"><rect codeLine="68" fill="#F1F1F1" height="100.8281" id="javax.swing.JDialog" rx="2.5" ry="2.5" style="stroke:#181818;stroke-width:0.5;" width="263" x="641.5" y="42"/><ellipse cx="745.75" cy="58" fill="#ADD1B2" rx="11" ry="11" style="stroke:#181818;stroke-width:1.0;"/><path d="M748.5156,53.875 Q748.6719,53.6563 748.8594,53.5469 Q749.0469,53.4375 749.2656,53.4375 Q749.6406,53.4375 749.875,53.7031 Q750.1094,53.9531 750.1094,54.5625 L750.1094,56.0156 Q750.1094,56.625 749.875,56.8906 Q749.6406,57.1563 749.2656,57.1563 Q748.9219,57.1563 748.7188,56.9531 Q748.5156,56.7656 748.4063,56.25 Q748.3594,55.8906 748.1719,55.7031 Q747.8438,55.3281 747.2344,55.1094 Q746.625,54.8906 746,54.8906 Q745.2344,54.8906 744.5938,55.2188 Q743.9688,55.5469 743.4688,56.2969 Q742.9844,57.0469 742.9844,58.0781 L742.9844,59.1719 Q742.9844,60.4063 743.875,61.2344 Q744.7656,62.0469 746.3594,62.0469 Q747.2969,62.0469 747.9531,61.7969 Q748.3438,61.6406 748.7656,61.2031 Q749.0313,60.9375 749.1719,60.8594 Q749.3281,60.7813 749.5313,60.7813 Q749.8594,60.7813 750.1094,61.0469 Q750.375,61.2969 750.375,61.6406 Q750.375,61.9844 750.0313,62.3906 Q749.5313,62.9688 748.7344,63.2969 Q747.6563,63.75 746.3594,63.75 Q744.8438,63.75 743.6406,63.125 Q742.6563,62.625 741.9688,61.5625 Q741.2813,60.4844 741.2813,59.2031 L741.2813,58.0469 Q741.2813,56.7188 741.8906,55.5781 Q742.5156,54.4219 743.6094,53.8125 Q744.7031,53.1875 745.9375,53.1875 Q746.6719,53.1875 747.3125,53.3594 Q747.9688,53.5156 748.5156,53.875 Z " fill="#000000"/><text fill="#000000" font-family="sans-serif" font-size="14" lengthAdjust="spacing" textLength="46" x="766.25" y="63.7285">JDialog</text><line style="stroke:#181818;stroke-width:0.5;" x1="642.5" x2="903.5" y1="74" y2="74"/><polygon fill="none" points="652.5,83.3047,656.5,87.3047,652.5,91.3047,648.5,87.3047" style="stroke:#B38D22;stroke-width:1.0;"/><text fill="#000000" font-family="sans-serif" font-size="14" lengthAdjust="spacing" textLength="135" x="661.5" y="92.5332">rootPane: JRootPane</text><polygon fill="none" points="652.5,100.9141,656.5,104.9141,652.5,108.9141,648.5,104.9141" style="stroke:#B38D22;stroke-width:1.0;"/><text fill="#000000" font-family="sans-serif" font-size="14" lengthAdjust="spacing" textLength="228" x="661.5" y="110.1426">rootPaneCheckingEnabled: boolean</text><polygon fill="none" points="652.5,118.5234,656.5,122.5234,652.5,126.5234,648.5,122.5234" style="stroke:#B38D22;stroke-width:1.0;"/><text fill="#000000" font-family="sans-serif" font-size="14" lengthAdjust="spacing" textLength="237" x="661.5" y="127.752">accessibleContext: AccessibleContext</text><line style="stroke:#181818;stroke-width:0.5;" x1="642.5" x2="903.5" y1="134.8281" y2="134.8281"/></g><!--class java.awt.event.ActionListener--><g id="elem_java.awt.event.ActionListener"><rect codeLine="76" fill="#F1F1F1" height="65.6094" id="java.awt.event.ActionListener" rx="2.5" ry="2.5" style="stroke:#181818;stroke-width:0.5;" width="247" x="1145.5" y="298"/><ellipse cx="1219.75" cy="314" fill="#B4A7E5" rx="11" ry="11" style="stroke:#181818;stroke-width:1.0;"/><path d="M1220.7031,310.6406 L1220.7031,317.2969 L1222.4219,317.2969 Q1223.0313,317.2969 1223.2969,317.5313 Q1223.5625,317.7656 1223.5625,318.1563 Q1223.5625,318.5313 1223.2969,318.7656 Q1223.0313,319 1222.4219,319 L1217.2813,319 Q1216.6719,319 1216.4063,318.7656 Q1216.1406,318.5313 1216.1406,318.1406 Q1216.1406,317.7656 1216.4063,317.5313 Q1216.6719,317.2969 1217.2813,317.2969 L1219,317.2969 L1219,310.6406 L1217.2813,310.6406 Q1216.6719,310.6406 1216.4063,310.4063 Q1216.1406,310.1719 1216.1406,309.7813 Q1216.1406,309.4063 1216.4063,309.1719 Q1216.6719,308.9375 1217.2813,308.9375 L1222.4219,308.9375 Q1223.0313,308.9375 1223.2969,309.1719 Q1223.5625,309.4063 1223.5625,309.7813 Q1223.5625,310.1719 1223.2969,310.4063 Q1223.0313,310.6406 1222.4219,310.6406 L1220.7031,310.6406 Z " fill="#000000"/><text fill="#000000" font-family="sans-serif" font-size="14" font-style="italic" lengthAdjust="spacing" textLength="90" x="1240.25" y="319.7285">ActionListener</text><line style="stroke:#181818;stroke-width:0.5;" x1="1146.5" x2="1391.5" y1="330" y2="330"/><line style="stroke:#181818;stroke-width:0.5;" x1="1146.5" x2="1391.5" y1="338" y2="338"/><ellipse cx="1156.5" cy="352.3047" fill="#84BE84" rx="3" ry="3" style="stroke:#038048;stroke-width:1.0;"/><text fill="#000000" font-family="sans-serif" font-size="14" font-style="italic" lengthAdjust="spacing" textLength="221" x="1165.5" y="356.5332">actionPerformed(ActionEvent): void</text></g><!--class java.lang.Record--><g id="elem_java.lang.Record"><rect codeLine="82" fill="#F1F1F1" height="48" id="java.lang.Record" rx="2.5" ry="2.5" style="stroke:#181818;stroke-width:0.5;" width="78" x="1449" y="307"/><ellipse cx="1464" cy="323" fill="#A9DCDF" rx="11" ry="11" style="stroke:#181818;stroke-width:1.0;"/><path d="M1466.1875,324.7656 L1462.0469,324.7656 L1461.625,325.7969 L1462.0469,325.7969 Q1462.6563,325.7969 1462.9219,326.0313 Q1463.1875,326.2656 1463.1875,326.6563 Q1463.1875,327.0313 1462.9219,327.2656 Q1462.6563,327.5 1462.0469,327.5 L1459.75,327.5 Q1459.1406,327.5 1458.8906,327.2656 Q1458.625,327.0313 1458.625,326.6406 Q1458.625,326.2656 1458.9063,326.0313 Q1459.1719,325.7813 1459.7969,325.7969 L1462.4688,319.1406 L1461.3594,319.1406 Q1460.75,319.1406 1460.4844,318.9063 Q1460.2188,318.6719 1460.2188,318.2813 Q1460.2188,317.9063 1460.4844,317.6719 Q1460.75,317.4375 1461.3594,317.4375 L1465.0313,317.4375 L1468.4219,325.7969 Q1469.0156,325.7969 1469.2031,325.9375 Q1469.5938,326.2031 1469.5938,326.6563 Q1469.5938,327.0313 1469.3281,327.2656 Q1469.0781,327.5 1468.4688,327.5 L1466.1719,327.5 Q1465.5625,327.5 1465.2969,327.2656 Q1465.0313,327.0313 1465.0313,326.6406 Q1465.0313,326.2656 1465.2969,326.0313 Q1465.5625,325.7969 1466.1719,325.7969 L1466.5938,325.7969 L1466.1875,324.7656 Z M1465.4688,323.0625 L1464.1094,319.6875 L1462.7344,323.0625 L1465.4688,323.0625 Z " fill="#000000"/><text fill="#000000" font-family="sans-serif" font-size="14" font-style="italic" lengthAdjust="spacing" textLength="46" x="1478" y="328.7285">Record</text><line style="stroke:#181818;stroke-width:0.5;" x1="1450" x2="1526" y1="339" y2="339"/><line style="stroke:#181818;stroke-width:0.5;" x1="1450" x2="1526" y1="347" y2="347"/></g><!--reverse link javax.swing.JPanel to nz.ac.wgtn.swen225.lc.app.App--><g id="link_javax.swing.JPanel_nz.ac.wgtn.swen225.lc.app.App"><path codeLine="53" d="M589.86,134.15 C598.59,146.95 610,159.64 624,167 C666.52,189.35 1022.71,149.37 1056,184 C1133.01,264.1 1114.81,339.73 1056,434 C1005.71,514.61 946.19,480.34 864,528 C858.06,531.45 852.05,535.02 846.02,538.69 " fill="none" id="javax.swing.JPanel-backto-nz.ac.wgtn.swen225.lc.app.App" style="stroke:#181818;stroke-width:1.0;"/><polygon fill="none" points="583.6,137.31,579.33,116.55,595.61,130.12,583.6,137.31" style="stroke:#181818;stroke-width:1.0;"/></g><!--reverse link java.awt.event.ActionListener to nz.ac.wgtn.swen225.lc.app.App--><g id="link_java.awt.event.ActionListener_nz.ac.wgtn.swen225.lc.app.App"><path codeLine="54" d="M1238.82,381.06 C1212.14,419.76 1169.52,471.5 1118,498 C1016.92,550 970.52,488.31 864,528 C858,530.24 852,532.72 846.04,535.4 " fill="none" id="java.awt.event.ActionListener-backto-nz.ac.wgtn.swen225.lc.app.App" style="stroke:#181818;stroke-width:1.0;stroke-dasharray:7.0,7.0;"/><polygon fill="none" points="1233.03,377.12,1249.93,364.33,1244.69,384.86,1233.03,377.12" style="stroke:#181818;stroke-width:1.0;"/></g><!--reverse link javax.swing.JDialog to nz.ac.wgtn.swen225.lc.app.HelpDialog--><g id="link_javax.swing.JDialog_nz.ac.wgtn.swen225.lc.app.HelpDialog"><path codeLine="55" d="M845.57,157.32 C854.15,165.97 862.5,174.98 870,184 C900.26,220.4 928.49,267.27 945.73,297.95 " fill="none" id="javax.swing.JDialog-backto-nz.ac.wgtn.swen225.lc.app.HelpDialog" style="stroke:#181818;stroke-width:1.0;"/><polygon fill="none" points="840.49,162.13,831.05,143.16,850.26,152.11,840.49,162.13" style="stroke:#181818;stroke-width:1.0;"/></g><!--reverse link javax.swing.JPanel to nz.ac.wgtn.swen225.lc.app.KeyBindingsPanel--><g id="link_javax.swing.JPanel_nz.ac.wgtn.swen225.lc.app.KeyBindingsPanel"><path codeLine="56" d="M558.88,136.24 C547.04,186.26 527.86,267.26 518.49,306.8 " fill="none" id="javax.swing.JPanel-backto-nz.ac.wgtn.swen225.lc.app.KeyBindingsPanel" style="stroke:#181818;stroke-width:1.0;"/><polygon fill="none" points="552.11,134.46,563.53,116.61,565.73,137.68,552.11,134.46" style="stroke:#181818;stroke-width:1.0;"/></g><!--reverse link javax.swing.JPanel to nz.ac.wgtn.swen225.lc.app.MenuPanel--><g id="link_javax.swing.JPanel_nz.ac.wgtn.swen225.lc.app.MenuPanel"><path codeLine="57" d="M597.2,133.2 C620.54,166.06 654.38,213.7 682.92,253.87 " fill="none" id="javax.swing.JPanel-backto-nz.ac.wgtn.swen225.lc.app.MenuPanel" style="stroke:#181818;stroke-width:1.0;"/><polygon fill="none" points="591.29,136.97,585.41,116.61,602.7,128.86,591.29,136.97" style="stroke:#181818;stroke-width:1.0;"/></g><!--reverse link java.lang.Record to nz.ac.wgtn.swen225.lc.app.Move--><g id="link_java.lang.Record_nz.ac.wgtn.swen225.lc.app.Move"><path codeLine="58" d="M1463.55,372 C1449.52,392.5 1430.45,416.72 1409,434 C1294.69,526.11 1134.2,590.26 1039.27,622.96 " fill="none" id="java.lang.Record-backto-nz.ac.wgtn.swen225.lc.app.Move" style="stroke:#181818;stroke-width:1.0;"/><polygon fill="none" points="1457.72,368.13,1474.51,355.21,1469.44,375.78,1457.72,368.13" style="stroke:#181818;stroke-width:1.0;"/></g><!--reverse link javax.swing.JPanel to nz.ac.wgtn.swen225.lc.app.PausedPanel--><g id="link_javax.swing.JPanel_nz.ac.wgtn.swen225.lc.app.PausedPanel"><path codeLine="59" d="M511.88,99.99 C412.09,112.29 211.38,141.61 156,184 C115.38,215.09 94.41,274.08 85.47,306.76 " fill="none" id="javax.swing.JPanel-backto-nz.ac.wgtn.swen225.lc.app.PausedPanel" style="stroke:#181818;stroke-width:1.0;"/><polygon fill="none" points="511.14,93.03,531.83,97.59,512.81,106.93,511.14,93.03" style="stroke:#181818;stroke-width:1.0;"/></g><!--reverse link javax.swing.JPanel to nz.ac.wgtn.swen225.lc.app.RecorderPanel--><g id="link_javax.swing.JPanel_nz.ac.wgtn.swen225.lc.app.RecorderPanel"><path codeLine="60" d="M514.06,122.77 C485.62,139.08 451.08,160.75 423,184 C406.97,197.27 391.03,212.43 376.03,227.83 " fill="none" id="javax.swing.JPanel-backto-nz.ac.wgtn.swen225.lc.app.RecorderPanel" style="stroke:#181818;stroke-width:1.0;"/><polygon fill="none" points="510.87,116.53,531.74,112.86,517.71,128.75,510.87,116.53" style="stroke:#181818;stroke-width:1.0;"/></g><!--link nz.ac.wgtn.swen225.lc.app.RecorderPanel to nz.ac.wgtn.swen225.lc.app.App--><g id="link_nz.ac.wgtn.swen225.lc.app.RecorderPanel_nz.ac.wgtn.swen225.lc.app.App"><path codeLine="61" d="M404.65,423.82 C444.34,455.34 489.43,491.13 531.74,524.73 " fill="none" id="nz.ac.wgtn.swen225.lc.app.RecorderPanel-to-nz.ac.wgtn.swen225.lc.app.App" style="stroke:#181818;stroke-width:1.0;"/><polygon fill="#181818" points="535.82,527.97,531.2676,519.2364,531.9073,524.857,526.2867,525.4967,535.82,527.97" style="stroke:#181818;stroke-width:1.0;"/><text fill="#000000" font-family="sans-serif" font-size="13" lengthAdjust="spacing" textLength="21" x="489" y="486.4951">app</text></g><!--link nz.ac.wgtn.swen225.lc.app.RecorderPanel to nz.ac.wgtn.swen225.lc.app.Move--><g id="link_nz.ac.wgtn.swen225.lc.app.RecorderPanel_nz.ac.wgtn.swen225.lc.app.Move"><path codeLine="62" d="M404.76,424.71 C410.79,428.07 416.89,431.19 423,434 C514.07,475.8 778.73,475.37 864,528 C890.29,544.23 912.44,570.33 928.81,594.05 " fill="none" id="nz.ac.wgtn.swen225.lc.app.RecorderPanel-to-nz.ac.wgtn.swen225.lc.app.Move" style="stroke:#181818;stroke-width:1.0;"/><polygon fill="#181818" points="931.8,598.44,930.0515,588.7476,928.9904,594.304,923.434,593.243,931.8,598.44" style="stroke:#181818;stroke-width:1.0;"/><text fill="#000000" font-family="sans-serif" font-size="13" lengthAdjust="spacing" textLength="37" x="787.5" y="478.4951">moves</text><text fill="#000000" font-family="sans-serif" font-size="13" lengthAdjust="spacing" textLength="58" x="777" y="494.8467">movesList</text><text fill="#000000" font-family="sans-serif" font-size="13" lengthAdjust="spacing" textLength="5" x="922.4828" y="587.7369">*</text></g><text fill="#888888" font-family="sans-serif" font-size="10" lengthAdjust="spacing" textLength="184" x="676" y="802.3809">UMLDoclet 2.1.0, PlantUML 1.2022.14</text><!--SRC=[bLPDJnin4BtpAonGfKqXLelKIrHLWW0jD4XHK4-KW-CTmhPUUsNF1bhAV-zulp-9s4FiNJ_FFC-y6OSnnhI8mIL20jD_kP3ySOEQkqVGnyUVk99S90bxtjjZnIELS8wTqCVRM_hb3nYhkpj2iCPpY1Q4Ioqin1hKZ5rbOnkIYDH1E6DhOnG8tLvqW6aIN4GA9ZEsDL7ONfPa7k5IRq6ZiN-2I2FXhfP2TxsaITX2NYB4jtUl6CsO1ZTe8xqvOXT6un6R6sLiCKo6JqE4bzc1Wk8yWovYiuKJYP7HXOT1bCWGIx3tniPaCTznxeymX7zsA32IB-nm0xW27O856n2od8-ZJusmeOTcamhtqattDr39MIIKsL3MwvUHvDU0uEh2ahmcuvQ_mv_JI8SK2fTbZ-ntF_MzzAnSWqxBxTLyX9s2BQWRK21nJ7u7YI15pKsS64r13xvQaJn4qWrcYy9uWyBYQOf8UVNwoASzsABsl1jSCimsUI0nwe5yfCTDzSD4ylCHec4aE7wf4dzeqhLg9A-Ii7UMWpfL7yNPMhvnd4TUAMN26cy5gov-1T9OadAve_K-V99QvZO34zVXNDT0pxuVvdfTcbJZG1vQR0BgYPs8EQ-ELSaY61IHGvFiWeWjd6TbSQdlpI3chRhr_NNkJzNLLoDZlyHMFD5zG7vvtc3Pvt_JgRy1MXWk7f63xr4yxrUBo25ei0Jdl0UlJ1Pj9RDPDuwTxhjDOkU6gYsqMIj1k3po1OxqlTDOGx8xiIrvLEYsfAVJBpv2CoOQOUf3zj_lP_ncp5UX-wcpmGTwhv6r-a9lK6gKHrvJ1SLcK-q0Yioqw-h06eD-AxMRLJ4T1imVGFucp-TQK3COwxH2Id0kMdiXQeGdAh2JxgSEnS5Zrl9h42P9qoNg8Hr9Tdg5M3kqTEk-lEdkVOsDbrN3I-cWrS-QsoLugkoUOaV3Z-l5cP4Aa1tpZ_p34LkIFQIlxDqMhFD_7oR_0G00]--></g></svg>