<?xml version="1.0" encoding="UTF-8" standalone="no"?><svg xmlns="http://www.w3.org/2000/svg" xmlns:xlink="http://www.w3.org/1999/xlink" contentScriptType="application/ecmascript" contentStyleType="text/css" height="724px" preserveAspectRatio="none" style="width:1361px;height:724px;background:#FFFFFF;" version="1.1" viewBox="0 0 1361 724" width="1361px" zoomAndPan="magnify"><defs><filter height="300%" id="f1lug9pioitlny" width="300%" x="-1" y="-1"><feGaussianBlur result="blurOut" stdDeviation="2.0"/><feColorMatrix in="blurOut" result="blurOut2" type="matrix" values="0 0 0 0 0 0 0 0 0 0 0 0 0 0 0 0 0 0 .4 0"/><feOffset dx="4.0" dy="4.0" in="blurOut2" result="blurOut3"/><feBlend in="SourceGraphic" in2="blurOut3" mode="normal"/></filter></defs><g><!--MD5=[248738fc5a140cde2865c68e3316b0c0]
cluster nz.ac.wgtn.swen225.lc.app--><polygon fill="#FFFFFF" filter="url(#f1lug9pioitlny)" points="16,181,207,181,214,204.6094,910,204.6094,910,700,16,700,16,181" style="stroke:#000000;stroke-width:1.5;"/><line style="stroke:#000000;stroke-width:1.5;" x1="16" x2="214" y1="204.6094" y2="204.6094"/><text fill="#000000" font-family="sans-serif" font-size="14" font-weight="bold" lengthAdjust="spacing" textLength="185" x="20" y="197.5332">nz.ac.wgtn.swen225.lc.app</text><!--MD5=[535aab4de90d4dfa371a9b40d5438fc3]
cluster javax.swing--><polygon fill="#FFFFFF" filter="url(#f1lug9pioitlny)" points="454,6,542,6,549,29.6094,803,29.6094,803,148,454,148,454,6" style="stroke:#000000;stroke-width:1.5;"/><line style="stroke:#000000;stroke-width:1.5;" x1="454" x2="549" y1="29.6094" y2="29.6094"/><text fill="#000000" font-family="sans-serif" font-size="14" font-weight="bold" lengthAdjust="spacing" textLength="82" x="458" y="22.5332">javax.swing</text><!--MD5=[d63c23c2d4b14118d71bd46d55a646bd]
cluster java.awt.event--><polygon fill="#FFFFFF" filter="url(#f1lug9pioitlny)" points="984,236.5,1092,236.5,1099,260.1094,1216,260.1094,1216,350.5,984,350.5,984,236.5" style="stroke:#000000;stroke-width:1.5;"/><line style="stroke:#000000;stroke-width:1.5;" x1="984" x2="1099" y1="260.1094" y2="260.1094"/><text fill="#000000" font-family="sans-serif" font-size="14" font-weight="bold" lengthAdjust="spacing" textLength="102" x="988" y="253.0332">java.awt.event</text><!--MD5=[aa8f7b917213fcc1c2766e2d59b49067]
cluster java.lang--><polygon fill="#FFFFFF" filter="url(#f1lug9pioitlny)" points="1240,243.5,1309,243.5,1316,267.1094,1344,267.1094,1344,343.5,1240,343.5,1240,243.5" style="stroke:#000000;stroke-width:1.5;"/><line style="stroke:#000000;stroke-width:1.5;" x1="1240" x2="1316" y1="267.1094" y2="267.1094"/><text fill="#000000" font-family="sans-serif" font-size="14" font-weight="bold" lengthAdjust="spacing" textLength="63" x="1244" y="260.0332">java.lang</text><!--MD5=[9fc35523cf5606b74c28fbd8f122de5d]
class nz.ac.wgtn.swen225.lc.app.App--><a href="App.html" target="_top" title="App.html" xlink:actuate="onRequest" xlink:href="App.html" xlink:show="new" xlink:title="App.html" xlink:type="simple"><rect codeLine="3" fill="#FEFECE" filter="url(#f1lug9pioitlny)" height="200.1953" id="nz.ac.wgtn.swen225.lc.app.App" style="stroke:#A80036;stroke-width:1.5;" width="245" x="487.5" y="484"/><ellipse cx="595.25" cy="500" fill="#ADD1B2" rx="11" ry="11" style="stroke:#A80036;stroke-width:1.0;"/><path d="M598.0156,495.875 Q598.1719,495.6563 598.3594,495.5469 Q598.5469,495.4375 598.7656,495.4375 Q599.1406,495.4375 599.375,495.7031 Q599.6094,495.9531 599.6094,496.5625 L599.6094,498.0156 Q599.6094,498.625 599.375,498.8906 Q599.1406,499.1563 598.7656,499.1563 Q598.4219,499.1563 598.2188,498.9531 Q598.0156,498.7656 597.9063,498.25 Q597.8594,497.8906 597.6719,497.7031 Q597.3438,497.3281 596.7344,497.1094 Q596.125,496.8906 595.5,496.8906 Q594.7344,496.8906 594.0938,497.2188 Q593.4688,497.5469 592.9688,498.2969 Q592.4844,499.0469 592.4844,500.0781 L592.4844,501.1719 Q592.4844,502.4063 593.375,503.2344 Q594.2656,504.0469 595.8594,504.0469 Q596.7969,504.0469 597.4531,503.7969 Q597.8438,503.6406 598.2656,503.2031 Q598.5313,502.9375 598.6719,502.8594 Q598.8281,502.7813 599.0313,502.7813 Q599.3594,502.7813 599.6094,503.0469 Q599.875,503.2969 599.875,503.6406 Q599.875,503.9844 599.5313,504.3906 Q599.0313,504.9688 598.2344,505.2969 Q597.1563,505.75 595.8594,505.75 Q594.3438,505.75 593.1406,505.125 Q592.1563,504.625 591.4688,503.5625 Q590.7813,502.4844 590.7813,501.2031 L590.7813,500.0469 Q590.7813,498.7188 591.3906,497.5781 Q592.0156,496.4219 593.1094,495.8125 Q594.2031,495.1875 595.4375,495.1875 Q596.1719,495.1875 596.8125,495.3594 Q597.4688,495.5156 598.0156,495.875 Z " fill="#000000"/><text fill="#000000" font-family="sans-serif" font-size="12" lengthAdjust="spacing" textLength="21" x="615.75" y="504.9102">App</text><line style="stroke:#A80036;stroke-width:1.5;" x1="488.5" x2="731.5" y1="516" y2="516"/><ellipse cx="498.5" cy="527" rx="3" ry="3" style="stroke:#038048;stroke-width:1.0;fill:none;"/><text fill="#000000" font-family="sans-serif" font-size="11" lengthAdjust="spacing" textLength="104" x="507.5" y="531.4189">treasureLabel: JLabel</text><ellipse cx="498.5" cy="540.8359" rx="3" ry="3" style="stroke:#038048;stroke-width:1.0;fill:none;"/><text fill="#000000" font-family="sans-serif" font-size="11" lengthAdjust="spacing" textLength="80" x="507.5" y="545.2549">paused: boolean</text><line style="stroke:#A80036;stroke-width:1.5;" x1="488.5" x2="731.5" y1="551.6719" y2="551.6719"/><ellipse cx="498.5" cy="562.6719" fill="#84BE84" rx="3" ry="3" style="stroke:#038048;stroke-width:1.0;"/><text fill="#000000" font-family="sans-serif" font-size="11" lengthAdjust="spacing" textLength="77" x="507.5" y="567.0908">setup(File): void</text><ellipse cx="498.5" cy="576.5078" fill="#84BE84" rx="3" ry="3" style="stroke:#038048;stroke-width:1.0;"/><text fill="#000000" font-family="sans-serif" font-size="11" lengthAdjust="spacing" textLength="132" x="507.5" y="580.9268">createInventory(int): JPanel</text><ellipse cx="498.5" cy="590.3438" fill="#84BE84" rx="3" ry="3" style="stroke:#038048;stroke-width:1.0;"/><text fill="#000000" font-family="sans-serif" font-size="11" lengthAdjust="spacing" textLength="137" x="507.5" y="594.7627">updateInventory(Item[]): void</text><ellipse cx="498.5" cy="604.1797" fill="#84BE84" rx="3" ry="3" style="stroke:#038048;stroke-width:1.0;"/><text fill="#000000" font-family="sans-serif" font-size="11" lengthAdjust="spacing" textLength="219" x="507.5" y="608.5986">createLabel(String, Font, Color, Color): JLabel</text><ellipse cx="498.5" cy="618.0156" fill="#84BE84" rx="3" ry="3" style="stroke:#038048;stroke-width:1.0;"/><text fill="#000000" font-family="sans-serif" font-size="11" lengthAdjust="spacing" textLength="123" x="507.5" y="622.4346">setPaused(boolean): void</text><ellipse cx="498.5" cy="631.8516" fill="#84BE84" rx="3" ry="3" style="stroke:#038048;stroke-width:1.0;"/><text fill="#000000" font-family="sans-serif" font-size="11" lengthAdjust="spacing" textLength="119" x="507.5" y="636.2705">moveAction(String): void</text><ellipse cx="498.5" cy="645.6875" fill="#84BE84" rx="3" ry="3" style="stroke:#038048;stroke-width:1.0;"/><text fill="#000000" font-family="sans-serif" font-size="11" lengthAdjust="spacing" textLength="171" x="507.5" y="650.1064">actionPerformed(ActionEvent): void</text><ellipse cx="498.5" cy="659.5234" fill="#84BE84" rx="3" ry="3" style="stroke:#038048;stroke-width:1.0;"/><text fill="#000000" font-family="sans-serif" font-size="11" lengthAdjust="spacing" text-decoration="underline" textLength="119" x="507.5" y="663.9424">getRenderer(): Renderer</text><ellipse cx="498.5" cy="673.3594" fill="#84BE84" rx="3" ry="3" style="stroke:#038048;stroke-width:1.0;"/><text fill="#000000" font-family="sans-serif" font-size="11" lengthAdjust="spacing" text-decoration="underline" textLength="87" x="507.5" y="677.7783">getBoard(): Board</text></a><!--MD5=[4f4638f4b3d6e0d30020f57568a13590]
class nz.ac.wgtn.swen225.lc.app.HelpDialog--><a href="HelpDialog.html" target="_top" title="HelpDialog.html" xlink:actuate="onRequest" xlink:href="HelpDialog.html" xlink:show="new" xlink:title="HelpDialog.html" xlink:type="simple"><rect codeLine="17" fill="#FEFECE" filter="url(#f1lug9pioitlny)" height="61.8359" id="nz.ac.wgtn.swen225.lc.app.HelpDialog" style="stroke:#A80036;stroke-width:1.5;" width="119" x="774.5" y="272.5"/><ellipse cx="800.75" cy="288.5" fill="#ADD1B2" rx="11" ry="11" style="stroke:#A80036;stroke-width:1.0;"/><path d="M803.5156,284.375 Q803.6719,284.1563 803.8594,284.0469 Q804.0469,283.9375 804.2656,283.9375 Q804.6406,283.9375 804.875,284.2031 Q805.1094,284.4531 805.1094,285.0625 L805.1094,286.5156 Q805.1094,287.125 804.875,287.3906 Q804.6406,287.6563 804.2656,287.6563 Q803.9219,287.6563 803.7188,287.4531 Q803.5156,287.2656 803.4063,286.75 Q803.3594,286.3906 803.1719,286.2031 Q802.8438,285.8281 802.2344,285.6094 Q801.625,285.3906 801,285.3906 Q800.2344,285.3906 799.5938,285.7188 Q798.9688,286.0469 798.4688,286.7969 Q797.9844,287.5469 797.9844,288.5781 L797.9844,289.6719 Q797.9844,290.9063 798.875,291.7344 Q799.7656,292.5469 801.3594,292.5469 Q802.2969,292.5469 802.9531,292.2969 Q803.3438,292.1406 803.7656,291.7031 Q804.0313,291.4375 804.1719,291.3594 Q804.3281,291.2813 804.5313,291.2813 Q804.8594,291.2813 805.1094,291.5469 Q805.375,291.7969 805.375,292.1406 Q805.375,292.4844 805.0313,292.8906 Q804.5313,293.4688 803.7344,293.7969 Q802.6563,294.25 801.3594,294.25 Q799.8438,294.25 798.6406,293.625 Q797.6563,293.125 796.9688,292.0625 Q796.2813,290.9844 796.2813,289.7031 L796.2813,288.5469 Q796.2813,287.2188 796.8906,286.0781 Q797.5156,284.9219 798.6094,284.3125 Q799.7031,283.6875 800.9375,283.6875 Q801.6719,283.6875 802.3125,283.8594 Q802.9688,284.0156 803.5156,284.375 Z " fill="#000000"/><text fill="#000000" font-family="sans-serif" font-size="12" lengthAdjust="spacing" textLength="62" x="817.25" y="293.4102">HelpDialog</text><line style="stroke:#A80036;stroke-width:1.5;" x1="775.5" x2="892.5" y1="304.5" y2="304.5"/><line style="stroke:#A80036;stroke-width:1.5;" x1="775.5" x2="892.5" y1="312.5" y2="312.5"/><ellipse cx="785.5" cy="323.5" fill="#84BE84" rx="3" ry="3" style="stroke:#038048;stroke-width:1.0;"/><text fill="#000000" font-family="sans-serif" font-size="11" lengthAdjust="spacing" textLength="93" x="794.5" y="327.9189">HelpDialog(JFrame)</text></a><!--MD5=[331d9ed393c04a193b97f083c6e07884]
class nz.ac.wgtn.swen225.lc.app.KeyBindingsPanel--><a href="KeyBindingsPanel.html" target="_top" title="KeyBindingsPanel.html" xlink:actuate="onRequest" xlink:href="KeyBindingsPanel.html" xlink:show="new" xlink:title="KeyBindingsPanel.html" xlink:type="simple"><rect codeLine="21" fill="#FEFECE" filter="url(#f1lug9pioitlny)" height="48" id="nz.ac.wgtn.swen225.lc.app.KeyBindingsPanel" style="stroke:#A80036;stroke-width:1.5;" width="133" x="390.5" y="279.5"/><ellipse cx="405.5" cy="295.5" fill="#ADD1B2" rx="11" ry="11" style="stroke:#A80036;stroke-width:1.0;"/><path d="M408.2656,291.375 Q408.4219,291.1563 408.6094,291.0469 Q408.7969,290.9375 409.0156,290.9375 Q409.3906,290.9375 409.625,291.2031 Q409.8594,291.4531 409.8594,292.0625 L409.8594,293.5156 Q409.8594,294.125 409.625,294.3906 Q409.3906,294.6563 409.0156,294.6563 Q408.6719,294.6563 408.4688,294.4531 Q408.2656,294.2656 408.1563,293.75 Q408.1094,293.3906 407.9219,293.2031 Q407.5938,292.8281 406.9844,292.6094 Q406.375,292.3906 405.75,292.3906 Q404.9844,292.3906 404.3438,292.7188 Q403.7188,293.0469 403.2188,293.7969 Q402.7344,294.5469 402.7344,295.5781 L402.7344,296.6719 Q402.7344,297.9063 403.625,298.7344 Q404.5156,299.5469 406.1094,299.5469 Q407.0469,299.5469 407.7031,299.2969 Q408.0938,299.1406 408.5156,298.7031 Q408.7813,298.4375 408.9219,298.3594 Q409.0781,298.2813 409.2813,298.2813 Q409.6094,298.2813 409.8594,298.5469 Q410.125,298.7969 410.125,299.1406 Q410.125,299.4844 409.7813,299.8906 Q409.2813,300.4688 408.4844,300.7969 Q407.4063,301.25 406.1094,301.25 Q404.5938,301.25 403.3906,300.625 Q402.4063,300.125 401.7188,299.0625 Q401.0313,297.9844 401.0313,296.7031 L401.0313,295.5469 Q401.0313,294.2188 401.6406,293.0781 Q402.2656,291.9219 403.3594,291.3125 Q404.4531,290.6875 405.6875,290.6875 Q406.4219,290.6875 407.0625,290.8594 Q407.7188,291.0156 408.2656,291.375 Z " fill="#000000"/><text fill="#000000" font-family="sans-serif" font-size="12" lengthAdjust="spacing" textLength="101" x="419.5" y="300.4102">KeyBindingsPanel</text><line style="stroke:#A80036;stroke-width:1.5;" x1="391.5" x2="522.5" y1="311.5" y2="311.5"/><line style="stroke:#A80036;stroke-width:1.5;" x1="391.5" x2="522.5" y1="319.5" y2="319.5"/></a><!--MD5=[0f5c56363665156088b2c85c39f1be82]
class nz.ac.wgtn.swen225.lc.app.MenuPanel--><a href="MenuPanel.html" target="_top" title="MenuPanel.html" xlink:actuate="onRequest" xlink:href="MenuPanel.html" xlink:show="new" xlink:title="MenuPanel.html" xlink:type="simple"><rect codeLine="24" fill="#FEFECE" filter="url(#f1lug9pioitlny)" height="131.0156" id="nz.ac.wgtn.swen225.lc.app.MenuPanel" style="stroke:#A80036;stroke-width:1.5;" width="181" x="558.5" y="238"/><ellipse cx="613.75" cy="254" fill="#ADD1B2" rx="11" ry="11" style="stroke:#A80036;stroke-width:1.0;"/><path d="M616.5156,249.875 Q616.6719,249.6563 616.8594,249.5469 Q617.0469,249.4375 617.2656,249.4375 Q617.6406,249.4375 617.875,249.7031 Q618.1094,249.9531 618.1094,250.5625 L618.1094,252.0156 Q618.1094,252.625 617.875,252.8906 Q617.6406,253.1563 617.2656,253.1563 Q616.9219,253.1563 616.7188,252.9531 Q616.5156,252.7656 616.4063,252.25 Q616.3594,251.8906 616.1719,251.7031 Q615.8438,251.3281 615.2344,251.1094 Q614.625,250.8906 614,250.8906 Q613.2344,250.8906 612.5938,251.2188 Q611.9688,251.5469 611.4688,252.2969 Q610.9844,253.0469 610.9844,254.0781 L610.9844,255.1719 Q610.9844,256.4063 611.875,257.2344 Q612.7656,258.0469 614.3594,258.0469 Q615.2969,258.0469 615.9531,257.7969 Q616.3438,257.6406 616.7656,257.2031 Q617.0313,256.9375 617.1719,256.8594 Q617.3281,256.7813 617.5313,256.7813 Q617.8594,256.7813 618.1094,257.0469 Q618.375,257.2969 618.375,257.6406 Q618.375,257.9844 618.0313,258.3906 Q617.5313,258.9688 616.7344,259.2969 Q615.6563,259.75 614.3594,259.75 Q612.8438,259.75 611.6406,259.125 Q610.6563,258.625 609.9688,257.5625 Q609.2813,256.4844 609.2813,255.2031 L609.2813,254.0469 Q609.2813,252.7188 609.8906,251.5781 Q610.5156,250.4219 611.6094,249.8125 Q612.7031,249.1875 613.9375,249.1875 Q614.6719,249.1875 615.3125,249.3594 Q615.9688,249.5156 616.5156,249.875 Z " fill="#000000"/><text fill="#000000" font-family="sans-serif" font-size="12" lengthAdjust="spacing" textLength="62" x="634.25" y="258.9102">MenuPanel</text><line style="stroke:#A80036;stroke-width:1.5;" x1="559.5" x2="738.5" y1="270" y2="270"/><ellipse cx="569.5" cy="281" rx="3" ry="3" style="stroke:#038048;stroke-width:1.0;fill:none;"/><text fill="#000000" font-family="sans-serif" font-size="11" lengthAdjust="spacing" textLength="108" x="578.5" y="285.4189">levelSelected: boolean</text><line style="stroke:#A80036;stroke-width:1.5;" x1="559.5" x2="738.5" y1="291.8359" y2="291.8359"/><polygon fill="#FFFF44" points="569.5,297.8359,573.5,301.8359,569.5,305.8359,565.5,301.8359" style="stroke:#B38D22;stroke-width:1.0;"/><text fill="#000000" font-family="sans-serif" font-size="11" lengthAdjust="spacing" textLength="155" x="578.5" y="307.2549">paintComponent(Graphics): void</text><ellipse cx="569.5" cy="316.6719" fill="#84BE84" rx="3" ry="3" style="stroke:#038048;stroke-width:1.0;"/><text fill="#000000" font-family="sans-serif" font-size="11" lengthAdjust="spacing" textLength="119" x="578.5" y="321.0908">getStartButton(): JButton</text><ellipse cx="569.5" cy="330.5078" fill="#84BE84" rx="3" ry="3" style="stroke:#038048;stroke-width:1.0;"/><text fill="#000000" font-family="sans-serif" font-size="11" lengthAdjust="spacing" textLength="152" x="578.5" y="334.9268">getLevelSelectButton(): JButton</text><ellipse cx="569.5" cy="344.3438" fill="#84BE84" rx="3" ry="3" style="stroke:#038048;stroke-width:1.0;"/><text fill="#000000" font-family="sans-serif" font-size="11" lengthAdjust="spacing" textLength="108" x="578.5" y="348.7627">getSelectedLevel(): int</text><ellipse cx="569.5" cy="358.1797" fill="#84BE84" rx="3" ry="3" style="stroke:#038048;stroke-width:1.0;"/><text fill="#000000" font-family="sans-serif" font-size="11" lengthAdjust="spacing" textLength="117" x="578.5" y="362.5986">getHelpButton(): JButton</text></a><!--MD5=[b6f1f9181290e61c6ac9ea2ceb6f9ec3]
class nz.ac.wgtn.swen225.lc.app.Move--><a href="Move.html" target="_top" title="Move.html" xlink:actuate="onRequest" xlink:href="Move.html" xlink:show="new" xlink:title="Move.html" xlink:type="simple"><rect codeLine="33" fill="#FEFECE" filter="url(#f1lug9pioitlny)" height="89.5078" id="nz.ac.wgtn.swen225.lc.app.Move" style="stroke:#A80036;stroke-width:1.5;" width="126" x="768" y="539"/><ellipse cx="812.75" cy="555" fill="#ADD1B2" rx="11" ry="11" style="stroke:#A80036;stroke-width:1.0;"/><path d="M815.5156,550.875 Q815.6719,550.6563 815.8594,550.5469 Q816.0469,550.4375 816.2656,550.4375 Q816.6406,550.4375 816.875,550.7031 Q817.1094,550.9531 817.1094,551.5625 L817.1094,553.0156 Q817.1094,553.625 816.875,553.8906 Q816.6406,554.1563 816.2656,554.1563 Q815.9219,554.1563 815.7188,553.9531 Q815.5156,553.7656 815.4063,553.25 Q815.3594,552.8906 815.1719,552.7031 Q814.8438,552.3281 814.2344,552.1094 Q813.625,551.8906 813,551.8906 Q812.2344,551.8906 811.5938,552.2188 Q810.9688,552.5469 810.4688,553.2969 Q809.9844,554.0469 809.9844,555.0781 L809.9844,556.1719 Q809.9844,557.4063 810.875,558.2344 Q811.7656,559.0469 813.3594,559.0469 Q814.2969,559.0469 814.9531,558.7969 Q815.3438,558.6406 815.7656,558.2031 Q816.0313,557.9375 816.1719,557.8594 Q816.3281,557.7813 816.5313,557.7813 Q816.8594,557.7813 817.1094,558.0469 Q817.375,558.2969 817.375,558.6406 Q817.375,558.9844 817.0313,559.3906 Q816.5313,559.9688 815.7344,560.2969 Q814.6563,560.75 813.3594,560.75 Q811.8438,560.75 810.6406,560.125 Q809.6563,559.625 808.9688,558.5625 Q808.2813,557.4844 808.2813,556.2031 L808.2813,555.0469 Q808.2813,553.7188 808.8906,552.5781 Q809.5156,551.4219 810.6094,550.8125 Q811.7031,550.1875 812.9375,550.1875 Q813.6719,550.1875 814.3125,550.3594 Q814.9688,550.5156 815.5156,550.875 Z " fill="#000000"/><text fill="#000000" font-family="sans-serif" font-size="12" lengthAdjust="spacing" textLength="28" x="833.25" y="559.9102">Move</text><line style="stroke:#A80036;stroke-width:1.5;" x1="769" x2="893" y1="571" y2="571"/><line style="stroke:#A80036;stroke-width:1.5;" x1="769" x2="893" y1="579" y2="579"/><ellipse cx="779" cy="590" fill="#84BE84" rx="3" ry="3" style="stroke:#038048;stroke-width:1.0;"/><text fill="#000000" font-family="sans-serif" font-size="11" lengthAdjust="spacing" textLength="100" x="788" y="594.4189">Move(String, double)</text><ellipse cx="779" cy="603.8359" fill="#84BE84" rx="3" ry="3" style="stroke:#038048;stroke-width:1.0;"/><text fill="#000000" font-family="sans-serif" font-size="11" lengthAdjust="spacing" textLength="68" x="788" y="608.2549">move(): String</text><ellipse cx="779" cy="617.6719" fill="#84BE84" rx="3" ry="3" style="stroke:#038048;stroke-width:1.0;"/><text fill="#000000" font-family="sans-serif" font-size="11" lengthAdjust="spacing" textLength="65" x="788" y="622.0908">time(): double</text></a><!--MD5=[b0d3cf715baee45c652ddaee02483b9c]
class nz.ac.wgtn.swen225.lc.app.PausedPanel--><a href="PausedPanel.html" target="_top" title="PausedPanel.html" xlink:actuate="onRequest" xlink:href="PausedPanel.html" xlink:show="new" xlink:title="PausedPanel.html" xlink:type="simple"><rect codeLine="39" fill="#FEFECE" filter="url(#f1lug9pioitlny)" height="48" id="nz.ac.wgtn.swen225.lc.app.PausedPanel" style="stroke:#A80036;stroke-width:1.5;" width="107" x="32.5" y="279.5"/><ellipse cx="47.5" cy="295.5" fill="#ADD1B2" rx="11" ry="11" style="stroke:#A80036;stroke-width:1.0;"/><path d="M50.2656,291.375 Q50.4219,291.1563 50.6094,291.0469 Q50.7969,290.9375 51.0156,290.9375 Q51.3906,290.9375 51.625,291.2031 Q51.8594,291.4531 51.8594,292.0625 L51.8594,293.5156 Q51.8594,294.125 51.625,294.3906 Q51.3906,294.6563 51.0156,294.6563 Q50.6719,294.6563 50.4688,294.4531 Q50.2656,294.2656 50.1563,293.75 Q50.1094,293.3906 49.9219,293.2031 Q49.5938,292.8281 48.9844,292.6094 Q48.375,292.3906 47.75,292.3906 Q46.9844,292.3906 46.3438,292.7188 Q45.7188,293.0469 45.2188,293.7969 Q44.7344,294.5469 44.7344,295.5781 L44.7344,296.6719 Q44.7344,297.9063 45.625,298.7344 Q46.5156,299.5469 48.1094,299.5469 Q49.0469,299.5469 49.7031,299.2969 Q50.0938,299.1406 50.5156,298.7031 Q50.7813,298.4375 50.9219,298.3594 Q51.0781,298.2813 51.2813,298.2813 Q51.6094,298.2813 51.8594,298.5469 Q52.125,298.7969 52.125,299.1406 Q52.125,299.4844 51.7813,299.8906 Q51.2813,300.4688 50.4844,300.7969 Q49.4063,301.25 48.1094,301.25 Q46.5938,301.25 45.3906,300.625 Q44.4063,300.125 43.7188,299.0625 Q43.0313,297.9844 43.0313,296.7031 L43.0313,295.5469 Q43.0313,294.2188 43.6406,293.0781 Q44.2656,291.9219 45.3594,291.3125 Q46.4531,290.6875 47.6875,290.6875 Q48.4219,290.6875 49.0625,290.8594 Q49.7188,291.0156 50.2656,291.375 Z " fill="#000000"/><text fill="#000000" font-family="sans-serif" font-size="12" lengthAdjust="spacing" textLength="75" x="61.5" y="300.4102">PausedPanel</text><line style="stroke:#A80036;stroke-width:1.5;" x1="33.5" x2="138.5" y1="311.5" y2="311.5"/><line style="stroke:#A80036;stroke-width:1.5;" x1="33.5" x2="138.5" y1="319.5" y2="319.5"/></a><!--MD5=[5585b2ebbed2e466772d341602320f92]
class nz.ac.wgtn.swen225.lc.app.RecorderPanel--><a href="RecorderPanel.html" target="_top" title="RecorderPanel.html" xlink:actuate="onRequest" xlink:href="RecorderPanel.html" xlink:show="new" xlink:title="RecorderPanel.html" xlink:type="simple"><rect codeLine="41" fill="#FEFECE" filter="url(#f1lug9pioitlny)" height="172.5234" id="nz.ac.wgtn.swen225.lc.app.RecorderPanel" style="stroke:#A80036;stroke-width:1.5;" width="181" x="174.5" y="217"/><ellipse cx="219.25" cy="233" fill="#ADD1B2" rx="11" ry="11" style="stroke:#A80036;stroke-width:1.0;"/><path d="M222.0156,228.875 Q222.1719,228.6563 222.3594,228.5469 Q222.5469,228.4375 222.7656,228.4375 Q223.1406,228.4375 223.375,228.7031 Q223.6094,228.9531 223.6094,229.5625 L223.6094,231.0156 Q223.6094,231.625 223.375,231.8906 Q223.1406,232.1563 222.7656,232.1563 Q222.4219,232.1563 222.2188,231.9531 Q222.0156,231.7656 221.9063,231.25 Q221.8594,230.8906 221.6719,230.7031 Q221.3438,230.3281 220.7344,230.1094 Q220.125,229.8906 219.5,229.8906 Q218.7344,229.8906 218.0938,230.2188 Q217.4688,230.5469 216.9688,231.2969 Q216.4844,232.0469 216.4844,233.0781 L216.4844,234.1719 Q216.4844,235.4063 217.375,236.2344 Q218.2656,237.0469 219.8594,237.0469 Q220.7969,237.0469 221.4531,236.7969 Q221.8438,236.6406 222.2656,236.2031 Q222.5313,235.9375 222.6719,235.8594 Q222.8281,235.7813 223.0313,235.7813 Q223.3594,235.7813 223.6094,236.0469 Q223.875,236.2969 223.875,236.6406 Q223.875,236.9844 223.5313,237.3906 Q223.0313,237.9688 222.2344,238.2969 Q221.1563,238.75 219.8594,238.75 Q218.3438,238.75 217.1406,238.125 Q216.1563,237.625 215.4688,236.5625 Q214.7813,235.4844 214.7813,234.2031 L214.7813,233.0469 Q214.7813,231.7188 215.3906,230.5781 Q216.0156,229.4219 217.1094,228.8125 Q218.2031,228.1875 219.4375,228.1875 Q220.1719,228.1875 220.8125,228.3594 Q221.4688,228.5156 222.0156,228.875 Z " fill="#000000"/><text fill="#000000" font-family="sans-serif" font-size="12" lengthAdjust="spacing" textLength="83" x="239.75" y="237.9102">RecorderPanel</text><line style="stroke:#A80036;stroke-width:1.5;" x1="175.5" x2="354.5" y1="249" y2="249"/><ellipse cx="185.5" cy="260" rx="3" ry="3" style="stroke:#038048;stroke-width:1.0;fill:none;"/><text fill="#000000" font-family="sans-serif" font-size="11" lengthAdjust="spacing" text-decoration="underline" textLength="90" x="194.5" y="264.4189">recording: boolean</text><ellipse cx="185.5" cy="273.8359" rx="3" ry="3" style="stroke:#038048;stroke-width:1.0;fill:none;"/><text fill="#000000" font-family="sans-serif" font-size="11" lengthAdjust="spacing" text-decoration="underline" textLength="36" x="194.5" y="278.2549">time: int</text><ellipse cx="185.5" cy="287.6719" rx="3" ry="3" style="stroke:#038048;stroke-width:1.0;fill:none;"/><text fill="#000000" font-family="sans-serif" font-size="11" lengthAdjust="spacing" text-decoration="underline" textLength="44" x="194.5" y="292.0908">count: int</text><line style="stroke:#A80036;stroke-width:1.5;" x1="175.5" x2="354.5" y1="298.5078" y2="298.5078"/><ellipse cx="185.5" cy="309.5078" fill="#84BE84" rx="3" ry="3" style="stroke:#038048;stroke-width:1.0;"/><text fill="#000000" font-family="sans-serif" font-size="11" lengthAdjust="spacing" textLength="99" x="194.5" y="313.9268">RecorderPanel(App)</text><ellipse cx="185.5" cy="323.3438" fill="#84BE84" rx="3" ry="3" style="stroke:#038048;stroke-width:1.0;"/><text fill="#000000" font-family="sans-serif" font-size="11" lengthAdjust="spacing" textLength="105" x="194.5" y="327.7627">startRecording(): void</text><ellipse cx="185.5" cy="337.1797" fill="#84BE84" rx="3" ry="3" style="stroke:#038048;stroke-width:1.0;"/><text fill="#000000" font-family="sans-serif" font-size="11" lengthAdjust="spacing" textLength="104" x="194.5" y="341.5986">stopRecording(): void</text><ellipse cx="185.5" cy="351.0156" fill="#84BE84" rx="3" ry="3" style="stroke:#038048;stroke-width:1.0;"/><text fill="#000000" font-family="sans-serif" font-size="11" lengthAdjust="spacing" textLength="108" x="194.5" y="355.4346">saveEndingInfo(): void</text><polygon fill="#FFFF44" points="185.5,359.8516,189.5,363.8516,185.5,367.8516,181.5,363.8516" style="stroke:#B38D22;stroke-width:1.0;"/><text fill="#000000" font-family="sans-serif" font-size="11" lengthAdjust="spacing" textLength="155" x="194.5" y="369.2705">paintComponent(Graphics): void</text><ellipse cx="185.5" cy="378.6875" fill="#84BE84" rx="3" ry="3" style="stroke:#038048;stroke-width:1.0;"/><text fill="#000000" font-family="sans-serif" font-size="11" lengthAdjust="spacing" textLength="84" x="194.5" y="383.1064">getFileCount(): int</text></a><!--MD5=[56a185cb33bdc7c23303e5865f20a19b]
class javax.swing.JPanel--><rect codeLine="66" fill="#FEFECE" filter="url(#f1lug9pioitlny)" height="48" id="javax.swing.JPanel" style="stroke:#A80036;stroke-width:1.5;" width="70" x="470" y="63"/><ellipse cx="485" cy="79" fill="#ADD1B2" rx="11" ry="11" style="stroke:#A80036;stroke-width:1.0;"/><path d="M487.7656,74.875 Q487.9219,74.6563 488.1094,74.5469 Q488.2969,74.4375 488.5156,74.4375 Q488.8906,74.4375 489.125,74.7031 Q489.3594,74.9531 489.3594,75.5625 L489.3594,77.0156 Q489.3594,77.625 489.125,77.8906 Q488.8906,78.1563 488.5156,78.1563 Q488.1719,78.1563 487.9688,77.9531 Q487.7656,77.7656 487.6563,77.25 Q487.6094,76.8906 487.4219,76.7031 Q487.0938,76.3281 486.4844,76.1094 Q485.875,75.8906 485.25,75.8906 Q484.4844,75.8906 483.8438,76.2188 Q483.2188,76.5469 482.7188,77.2969 Q482.2344,78.0469 482.2344,79.0781 L482.2344,80.1719 Q482.2344,81.4063 483.125,82.2344 Q484.0156,83.0469 485.6094,83.0469 Q486.5469,83.0469 487.2031,82.7969 Q487.5938,82.6406 488.0156,82.2031 Q488.2813,81.9375 488.4219,81.8594 Q488.5781,81.7813 488.7813,81.7813 Q489.1094,81.7813 489.3594,82.0469 Q489.625,82.2969 489.625,82.6406 Q489.625,82.9844 489.2813,83.3906 Q488.7813,83.9688 487.9844,84.2969 Q486.9063,84.75 485.6094,84.75 Q484.0938,84.75 482.8906,84.125 Q481.9063,83.625 481.2188,82.5625 Q480.5313,81.4844 480.5313,80.2031 L480.5313,79.0469 Q480.5313,77.7188 481.1406,76.5781 Q481.7656,75.4219 482.8594,74.8125 Q483.9531,74.1875 485.1875,74.1875 Q485.9219,74.1875 486.5625,74.3594 Q487.2188,74.5156 487.7656,74.875 Z " fill="#000000"/><text fill="#000000" font-family="sans-serif" font-size="12" lengthAdjust="spacing" textLength="38" x="499" y="83.9102">JPanel</text><line style="stroke:#A80036;stroke-width:1.5;" x1="471" x2="539" y1="95" y2="95"/><line style="stroke:#A80036;stroke-width:1.5;" x1="471" x2="539" y1="103" y2="103"/><!--MD5=[c13749207e1e160b2790bec8d09e837f]
class javax.swing.JDialog--><rect codeLine="68" fill="#FEFECE" filter="url(#f1lug9pioitlny)" height="89.5078" id="javax.swing.JDialog" style="stroke:#A80036;stroke-width:1.5;" width="212" x="575" y="42"/><ellipse cx="655.75" cy="58" fill="#ADD1B2" rx="11" ry="11" style="stroke:#A80036;stroke-width:1.0;"/><path d="M658.5156,53.875 Q658.6719,53.6563 658.8594,53.5469 Q659.0469,53.4375 659.2656,53.4375 Q659.6406,53.4375 659.875,53.7031 Q660.1094,53.9531 660.1094,54.5625 L660.1094,56.0156 Q660.1094,56.625 659.875,56.8906 Q659.6406,57.1563 659.2656,57.1563 Q658.9219,57.1563 658.7188,56.9531 Q658.5156,56.7656 658.4063,56.25 Q658.3594,55.8906 658.1719,55.7031 Q657.8438,55.3281 657.2344,55.1094 Q656.625,54.8906 656,54.8906 Q655.2344,54.8906 654.5938,55.2188 Q653.9688,55.5469 653.4688,56.2969 Q652.9844,57.0469 652.9844,58.0781 L652.9844,59.1719 Q652.9844,60.4063 653.875,61.2344 Q654.7656,62.0469 656.3594,62.0469 Q657.2969,62.0469 657.9531,61.7969 Q658.3438,61.6406 658.7656,61.2031 Q659.0313,60.9375 659.1719,60.8594 Q659.3281,60.7813 659.5313,60.7813 Q659.8594,60.7813 660.1094,61.0469 Q660.375,61.2969 660.375,61.6406 Q660.375,61.9844 660.0313,62.3906 Q659.5313,62.9688 658.7344,63.2969 Q657.6563,63.75 656.3594,63.75 Q654.8438,63.75 653.6406,63.125 Q652.6563,62.625 651.9688,61.5625 Q651.2813,60.4844 651.2813,59.2031 L651.2813,58.0469 Q651.2813,56.7188 651.8906,55.5781 Q652.5156,54.4219 653.6094,53.8125 Q654.7031,53.1875 655.9375,53.1875 Q656.6719,53.1875 657.3125,53.3594 Q657.9688,53.5156 658.5156,53.875 Z " fill="#000000"/><text fill="#000000" font-family="sans-serif" font-size="12" lengthAdjust="spacing" textLength="42" x="676.25" y="62.9102">JDialog</text><line style="stroke:#A80036;stroke-width:1.5;" x1="576" x2="786" y1="74" y2="74"/><polygon fill="none" points="586,80,590,84,586,88,582,84" style="stroke:#B38D22;stroke-width:1.0;"/><text fill="#000000" font-family="sans-serif" font-size="11" lengthAdjust="spacing" textLength="100" x="595" y="89.4189">rootPane: JRootPane</text><polygon fill="none" points="586,93.8359,590,97.8359,586,101.8359,582,97.8359" style="stroke:#B38D22;stroke-width:1.0;"/><text fill="#000000" font-family="sans-serif" font-size="11" lengthAdjust="spacing" textLength="169" x="595" y="103.2549">rootPaneCheckingEnabled: boolean</text><polygon fill="none" points="586,107.6719,590,111.6719,586,115.6719,582,111.6719" style="stroke:#B38D22;stroke-width:1.0;"/><text fill="#000000" font-family="sans-serif" font-size="11" lengthAdjust="spacing" textLength="186" x="595" y="117.0908">accessibleContext: AccessibleContext</text><line style="stroke:#A80036;stroke-width:1.5;" x1="576" x2="786" y1="123.5078" y2="123.5078"/><!--MD5=[6631281fcee7fc541b441b6c950a0fa0]
class java.awt.event.ActionListener--><rect codeLine="76" fill="#FEFECE" filter="url(#f1lug9pioitlny)" height="61.8359" id="java.awt.event.ActionListener" style="stroke:#A80036;stroke-width:1.5;" width="199" x="1000.5" y="272.5"/><ellipse cx="1056.75" cy="288.5" fill="#B4A7E5" rx="11" ry="11" style="stroke:#A80036;stroke-width:1.0;"/><path d="M1057.7031,285.1406 L1057.7031,291.7969 L1059.4219,291.7969 Q1060.0313,291.7969 1060.2969,292.0313 Q1060.5625,292.2656 1060.5625,292.6563 Q1060.5625,293.0313 1060.2969,293.2656 Q1060.0313,293.5 1059.4219,293.5 L1054.2813,293.5 Q1053.6719,293.5 1053.4063,293.2656 Q1053.1406,293.0313 1053.1406,292.6406 Q1053.1406,292.2656 1053.4063,292.0313 Q1053.6719,291.7969 1054.2813,291.7969 L1056,291.7969 L1056,285.1406 L1054.2813,285.1406 Q1053.6719,285.1406 1053.4063,284.9063 Q1053.1406,284.6719 1053.1406,284.2813 Q1053.1406,283.9063 1053.4063,283.6719 Q1053.6719,283.4375 1054.2813,283.4375 L1059.4219,283.4375 Q1060.0313,283.4375 1060.2969,283.6719 Q1060.5625,283.9063 1060.5625,284.2813 Q1060.5625,284.6719 1060.2969,284.9063 Q1060.0313,285.1406 1059.4219,285.1406 L1057.7031,285.1406 Z " fill="#000000"/><text fill="#000000" font-family="sans-serif" font-size="12" font-style="italic" lengthAdjust="spacing" textLength="78" x="1077.25" y="293.4102">ActionListener</text><line style="stroke:#A80036;stroke-width:1.5;" x1="1001.5" x2="1198.5" y1="304.5" y2="304.5"/><line style="stroke:#A80036;stroke-width:1.5;" x1="1001.5" x2="1198.5" y1="312.5" y2="312.5"/><ellipse cx="1011.5" cy="323.5" fill="#84BE84" rx="3" ry="3" style="stroke:#038048;stroke-width:1.0;"/><text fill="#000000" font-family="sans-serif" font-size="11" font-style="italic" lengthAdjust="spacing" textLength="173" x="1020.5" y="327.9189">actionPerformed(ActionEvent): void</text><!--MD5=[aeced6b90a5f9cea7e9b0d4e8b5a9b7c]
class java.lang.Record--><rect codeLine="82" fill="#FEFECE" filter="url(#f1lug9pioitlny)" height="48" id="java.lang.Record" style="stroke:#A80036;stroke-width:1.5;" width="72" x="1256" y="279.5"/><ellipse cx="1271" cy="295.5" fill="#A9DCDF" rx="11" ry="11" style="stroke:#A80036;stroke-width:1.0;"/><path d="M1273.1875,297.2656 L1269.0469,297.2656 L1268.625,298.2969 L1269.0469,298.2969 Q1269.6563,298.2969 1269.9219,298.5313 Q1270.1875,298.7656 1270.1875,299.1563 Q1270.1875,299.5313 1269.9219,299.7656 Q1269.6563,300 1269.0469,300 L1266.75,300 Q1266.1406,300 1265.8906,299.7656 Q1265.625,299.5313 1265.625,299.1406 Q1265.625,298.7656 1265.9063,298.5313 Q1266.1719,298.2813 1266.7969,298.2969 L1269.4688,291.6406 L1268.3594,291.6406 Q1267.75,291.6406 1267.4844,291.4063 Q1267.2188,291.1719 1267.2188,290.7813 Q1267.2188,290.4063 1267.4844,290.1719 Q1267.75,289.9375 1268.3594,289.9375 L1272.0313,289.9375 L1275.4219,298.2969 Q1276.0156,298.2969 1276.2031,298.4375 Q1276.5938,298.7031 1276.5938,299.1563 Q1276.5938,299.5313 1276.3281,299.7656 Q1276.0781,300 1275.4688,300 L1273.1719,300 Q1272.5625,300 1272.2969,299.7656 Q1272.0313,299.5313 1272.0313,299.1406 Q1272.0313,298.7656 1272.2969,298.5313 Q1272.5625,298.2969 1273.1719,298.2969 L1273.5938,298.2969 L1273.1875,297.2656 Z M1272.4688,295.5625 L1271.1094,292.1875 L1269.7344,295.5625 L1272.4688,295.5625 Z " fill="#000000"/><text fill="#000000" font-family="sans-serif" font-size="12" font-style="italic" lengthAdjust="spacing" textLength="40" x="1285" y="300.4102">Record</text><line style="stroke:#A80036;stroke-width:1.5;" x1="1257" x2="1327" y1="311.5" y2="311.5"/><line style="stroke:#A80036;stroke-width:1.5;" x1="1257" x2="1327" y1="319.5" y2="319.5"/><!--MD5=[c35d268dc0f32632045be5a42b412a8c]
reverse link javax.swing.JPanel to nz.ac.wgtn.swen225.lc.app.App--><path codeLine="53" d="M527.37,128.2 C535.52,139.12 545.79,149.67 558,156 C592.86,174.08 883.91,144.57 911,173 C977.54,242.82 958.91,306.29 911,390 C870.03,461.58 820.36,439.38 751,484 C744.96,487.88 738.82,491.91 732.64,496.02 " fill="none" id="javax.swing.JPanel-backto-nz.ac.wgtn.swen225.lc.app.App" style="stroke:#A80036;stroke-width:1.0;"/><polygon fill="none" points="521.4,131.86,516.33,111.29,533.12,124.21,521.4,131.86" style="stroke:#A80036;stroke-width:1.0;"/><!--MD5=[9ac2613807cff2d7966d6d4b76bd1b2f]
reverse link java.awt.event.ActionListener to nz.ac.wgtn.swen225.lc.app.App--><path codeLine="54" d="M1072.9,352.03 C1050.68,386.31 1015.93,430.52 973,454 C885.65,501.77 843.71,447.7 751,484 C744.87,486.4 738.76,489.12 732.7,492.08 " fill="none" id="java.awt.event.ActionListener-backto-nz.ac.wgtn.swen225.lc.app.App" style="stroke:#A80036;stroke-width:1.0;stroke-dasharray:7.0,7.0;"/><polygon fill="none" points="1067.16,348,1083.65,334.68,1079.06,355.37,1067.16,348" style="stroke:#A80036;stroke-width:1.0;"/><!--MD5=[2ba0c4f26897cb6a0b75eed88c3788bd]
reverse link javax.swing.JDialog to nz.ac.wgtn.swen225.lc.app.HelpDialog--><path codeLine="55" d="M736.59,147.29 C743.72,155.72 750.71,164.43 757,173 C780.75,205.37 803.7,245.48 818.28,272.41 " fill="none" id="javax.swing.JDialog-backto-nz.ac.wgtn.swen225.lc.app.HelpDialog" style="stroke:#A80036;stroke-width:1.0;"/><polygon fill="none" points="731.18,151.74,723.31,132.07,741.73,142.54,731.18,151.74" style="stroke:#A80036;stroke-width:1.0;"/><!--MD5=[db2ffdcbcd9e00df0ae157c4af52b27e]
reverse link javax.swing.JPanel to nz.ac.wgtn.swen225.lc.app.KeyBindingsPanel--><path codeLine="56" d="M495.4,130.89 C485.39,175.63 470.07,244.08 462.15,279.49 " fill="none" id="javax.swing.JPanel-backto-nz.ac.wgtn.swen225.lc.app.KeyBindingsPanel" style="stroke:#A80036;stroke-width:1.0;"/><polygon fill="none" points="488.57,129.35,499.77,111.36,502.24,132.41,488.57,129.35" style="stroke:#A80036;stroke-width:1.0;"/><!--MD5=[0b388f9e113e969e662705fa5e196f8a]
reverse link javax.swing.JPanel to nz.ac.wgtn.swen225.lc.app.MenuPanel--><path codeLine="57" d="M532.08,128.34 C552.73,159.1 581.6,202.1 605.48,237.67 " fill="none" id="javax.swing.JPanel-backto-nz.ac.wgtn.swen225.lc.app.MenuPanel" style="stroke:#A80036;stroke-width:1.0;"/><polygon fill="none" points="526.02,131.87,520.68,111.36,537.64,124.07,526.02,131.87" style="stroke:#A80036;stroke-width:1.0;"/><!--MD5=[fee308393f04e1703a161fad968d8518]
reverse link java.lang.Record to nz.ac.wgtn.swen225.lc.app.Move--><path codeLine="58" d="M1262.48,343.8 C1249.41,359.47 1233.13,376.86 1216,390 C1113.52,468.62 974.04,529.02 894.15,559.99 " fill="none" id="java.lang.Record-backto-nz.ac.wgtn.swen225.lc.app.Move" style="stroke:#A80036;stroke-width:1.0;"/><polygon fill="none" points="1257.34,339.02,1275.29,327.76,1268.28,347.76,1257.34,339.02" style="stroke:#A80036;stroke-width:1.0;"/><!--MD5=[7bd0b3f03182b91aa693ae9e3447ea73]
reverse link javax.swing.JPanel to nz.ac.wgtn.swen225.lc.app.PausedPanel--><path codeLine="59" d="M449.88,88.19 C375.94,91.16 243.9,106.33 157,173 C121.71,200.08 101.64,249.94 92.37,279.26 " fill="none" id="javax.swing.JPanel-backto-nz.ac.wgtn.swen225.lc.app.PausedPanel" style="stroke:#A80036;stroke-width:1.0;"/><polygon fill="none" points="449.79,81.19,469.97,87.63,450.18,95.18,449.79,81.19" style="stroke:#A80036;stroke-width:1.0;"/><!--MD5=[89794c46b6e0bc488d743c184975ef1c]
reverse link javax.swing.JPanel to nz.ac.wgtn.swen225.lc.app.RecorderPanel--><path codeLine="60" d="M452.47,116.79 C427.17,131.88 397.16,151.65 373,173 C358.08,186.18 343.47,201.5 330.06,216.89 " fill="none" id="javax.swing.JPanel-backto-nz.ac.wgtn.swen225.lc.app.RecorderPanel" style="stroke:#A80036;stroke-width:1.0;"/><polygon fill="none" points="449.1,110.65,469.91,106.67,456.13,122.76,449.1,110.65" style="stroke:#A80036;stroke-width:1.0;"/><!--MD5=[32300d5f35b8ea6e0d94dcf21675c077]
link nz.ac.wgtn.swen225.lc.app.RecorderPanel to nz.ac.wgtn.swen225.lc.app.App--><path codeLine="61" d="M355.64,377.67 C394.62,409.13 440.84,446.45 483.13,480.58 " fill="none" id="nz.ac.wgtn.swen225.lc.app.RecorderPanel-to-nz.ac.wgtn.swen225.lc.app.App" style="stroke:#A80036;stroke-width:1.0;"/><polygon fill="#A80036" points="487.21,483.88,482.7122,475.1182,483.3168,480.7426,477.6924,481.3473,487.21,483.88" style="stroke:#A80036;stroke-width:1.0;"/><text fill="#000000" font-family="sans-serif" font-size="13" lengthAdjust="spacing" textLength="21" x="448" y="442.4951">app</text><!--MD5=[4dc2f0501f788a079689ebd3156f0926]
link nz.ac.wgtn.swen225.lc.app.RecorderPanel to nz.ac.wgtn.swen225.lc.app.Move--><path codeLine="62" d="M355.74,380.51 C361.43,383.95 367.21,387.15 373,390 C450.48,428.1 677.06,437.79 750,484 C770.23,496.82 787.79,516.4 801.34,534.78 " fill="none" id="nz.ac.wgtn.swen225.lc.app.RecorderPanel-to-nz.ac.wgtn.swen225.lc.app.Move" style="stroke:#A80036;stroke-width:1.0;"/><polygon fill="#A80036" points="804.35,538.93,802.3035,529.2961,801.4142,534.8826,795.8277,533.9933,804.35,538.93" style="stroke:#A80036;stroke-width:1.0;"/><text fill="#000000" font-family="sans-serif" font-size="13" lengthAdjust="spacing" textLength="37" x="670.5" y="434.4951">moves</text><text fill="#000000" font-family="sans-serif" font-size="13" lengthAdjust="spacing" textLength="58" x="660" y="450.8467">movesList</text><text fill="#000000" font-family="sans-serif" font-size="13" lengthAdjust="spacing" textLength="5" x="794.7042" y="528.0343">*</text><text fill="#888888" font-family="sans-serif" font-size="10" lengthAdjust="spacing" textLength="184" x="582" y="716.3809">UMLDoclet 2.0.14, PlantUML 1.2021.9</text><!--MD5=[538bead4a77647a7a9021279547755f1]
@startuml
    namespace nz.ac.wgtn.swen225.lc.app {

        class App [[App.html]] {
            +treasureLabel: JLabel
            +paused: boolean
            +setup(File): void
            +createInventory(int): JPanel
            +updateInventory(Item[]): void
            +createLabel(String, Font, Color, Color): JLabel
            +setPaused(boolean): void
            +moveAction(String): void
            +actionPerformed(ActionEvent): void
            {static} +getRenderer(): Renderer
            {static} +getBoard(): Board
        }

        class HelpDialog [[HelpDialog.html]] {
            +HelpDialog(JFrame)
        }

        class KeyBindingsPanel [[KeyBindingsPanel.html]] {
        }

        class MenuPanel [[MenuPanel.html]] {
            +levelSelected: boolean
            #paintComponent(Graphics): void
            +getStartButton(): JButton
            +getLevelSelectButton(): JButton
            +getSelectedLevel(): int
            +getHelpButton(): JButton
        }

        class Move [[Move.html]] {
            +Move(String, double)
            +move(): String
            +time(): double
        }

        class PausedPanel [[PausedPanel.html]]

        class RecorderPanel [[RecorderPanel.html]] {
            {static} +recording: boolean
            {static} +time: int
            {static} +count: int
            +RecorderPanel(App)
            +startRecording(): void
            +stopRecording(): void
            +saveEndingInfo(): void
            #paintComponent(Graphics): void
            +getFileCount(): int
        }

        javax.swing.JPanel <|- - App
        java.awt.event.ActionListener <|.. App
        javax.swing.JDialog <|- - HelpDialog
        javax.swing.JPanel <|- - KeyBindingsPanel
        javax.swing.JPanel <|- - MenuPanel
        java.lang.Record <|- - Move
        javax.swing.JPanel <|- - PausedPanel
        javax.swing.JPanel <|- - RecorderPanel
        RecorderPanel - -> App: app
        RecorderPanel - -> "*" Move: moves\nmovesList
    }

    namespace javax.swing {
        class JPanel {
        }
        class JDialog {
            #rootPane: JRootPane
            #rootPaneCheckingEnabled: boolean
            #accessibleContext: AccessibleContext
        }
    }

    namespace java.awt.event {
        interface ActionListener {
            {abstract} +actionPerformed(ActionEvent): void
        }
    }

    namespace java.lang {
        abstract class Record
    }

    center footer UMLDoclet 2.0.14, PlantUML 1.2021.9
@enduml

PlantUML version 1.2021.9(Sun Jul 25 17:13:56 ICT 2021)
(APACHE source distribution)
Java Runtime: OpenJDK Runtime Environment
JVM: OpenJDK 64-Bit Server VM
Default Encoding: Cp1252
Language: en
Country: NZ
--></g></svg>