<?xml version="1.0" encoding="UTF-8" standalone="no"?><svg xmlns="http://www.w3.org/2000/svg" xmlns:xlink="http://www.w3.org/1999/xlink" contentStyleType="text/css" height="401px" preserveAspectRatio="none" style="width:249px;height:401px;background:#FFFFFF;" version="1.1" viewBox="0 0 249 401" width="249px" zoomAndPan="magnify"><defs/><g><!--class nz.ac.wgtn.swen225.lc.app.RecorderPanel--><a href="RecorderPanel.html" target="_top" title="RecorderPanel.html" xlink:actuate="onRequest" xlink:href="RecorderPanel.html" xlink:show="new" xlink:title="RecorderPanel.html" xlink:type="simple"><g id="elem_nz.ac.wgtn.swen225.lc.app.RecorderPanel"><rect codeLine="5" fill="#F1F1F1" height="267.5" id="nz.ac.wgtn.swen225.lc.app.RecorderPanel" rx="2.5" ry="2.5" style="stroke:#181818;stroke-width:0.5;" width="233" x="9" y="107"/><ellipse cx="57.25" cy="127.0938" fill="#ADD1B2" rx="11" ry="11" style="stroke:#181818;stroke-width:1.0;"/><path d="M60.0156,122.9688 Q60.1719,122.75 60.3594,122.6406 Q60.5469,122.5313 60.7656,122.5313 Q61.1406,122.5313 61.375,122.7969 Q61.6094,123.0469 61.6094,123.6563 L61.6094,125.1094 Q61.6094,125.7188 61.375,125.9844 Q61.1406,126.25 60.7656,126.25 Q60.4219,126.25 60.2188,126.0469 Q60.0156,125.8594 59.9063,125.3438 Q59.8594,124.9844 59.6719,124.7969 Q59.3438,124.4219 58.7344,124.2031 Q58.125,123.9844 57.5,123.9844 Q56.7344,123.9844 56.0938,124.3125 Q55.4688,124.6406 54.9688,125.3906 Q54.4844,126.1406 54.4844,127.1719 L54.4844,128.2656 Q54.4844,129.5 55.375,130.3281 Q56.2656,131.1406 57.8594,131.1406 Q58.7969,131.1406 59.4531,130.8906 Q59.8438,130.7344 60.2656,130.2969 Q60.5313,130.0313 60.6719,129.9531 Q60.8281,129.875 61.0313,129.875 Q61.3594,129.875 61.6094,130.1406 Q61.875,130.3906 61.875,130.7344 Q61.875,131.0781 61.5313,131.4844 Q61.0313,132.0625 60.2344,132.3906 Q59.1563,132.8438 57.8594,132.8438 Q56.3438,132.8438 55.1406,132.2188 Q54.1563,131.7188 53.4688,130.6563 Q52.7813,129.5781 52.7813,128.2969 L52.7813,127.1406 Q52.7813,125.8125 53.3906,124.6719 Q54.0156,123.5156 55.1094,122.9063 Q56.2031,122.2813 57.4375,122.2813 Q58.1719,122.2813 58.8125,122.4531 Q59.4688,122.6094 60.0156,122.9688 Z " fill="#000000"/><text fill="#000000" font-family="sans-serif" font-size="14" lengthAdjust="spacing" textLength="95" x="94.25" y="126.5332">RecorderPanel</text><text fill="#000000" font-family="sans-serif" font-size="10" lengthAdjust="spacing" textLength="128" x="77.75" y="139.9902">nz.ac.wgtn.swen225.lc.app</text><line style="stroke:#181818;stroke-width:0.5;" x1="10" x2="241" y1="147.1875" y2="147.1875"/><ellipse cx="20" cy="161.4922" fill="none" rx="3" ry="3" style="stroke:#038048;stroke-width:1.0;"/><text fill="#000000" font-family="sans-serif" font-size="14" lengthAdjust="spacing" text-decoration="underline" textLength="155" x="29" y="165.7207">moves: ArrayList&lt;Move&gt;</text><ellipse cx="20" cy="179.1016" fill="none" rx="3" ry="3" style="stroke:#038048;stroke-width:1.0;"/><text fill="#000000" font-family="sans-serif" font-size="14" lengthAdjust="spacing" text-decoration="underline" textLength="119" x="29" y="183.3301">recording: boolean</text><ellipse cx="20" cy="196.7109" fill="none" rx="3" ry="3" style="stroke:#038048;stroke-width:1.0;"/><text fill="#000000" font-family="sans-serif" font-size="14" lengthAdjust="spacing" text-decoration="underline" textLength="49" x="29" y="200.9395">time: int</text><ellipse cx="20" cy="214.3203" fill="none" rx="3" ry="3" style="stroke:#038048;stroke-width:1.0;"/><text fill="#000000" font-family="sans-serif" font-size="14" lengthAdjust="spacing" text-decoration="underline" textLength="58" x="29" y="218.5488">count: int</text><ellipse cx="20" cy="231.9297" fill="none" rx="3" ry="3" style="stroke:#038048;stroke-width:1.0;"/><text fill="#000000" font-family="sans-serif" font-size="14" lengthAdjust="spacing" text-decoration="underline" textLength="57" x="29" y="236.1582">app: App</text><line style="stroke:#181818;stroke-width:0.5;" x1="10" x2="241" y1="243.2344" y2="243.2344"/><ellipse cx="20" cy="257.5391" fill="#84BE84" rx="3" ry="3" style="stroke:#038048;stroke-width:1.0;"/><text fill="#000000" font-family="sans-serif" font-size="14" lengthAdjust="spacing" textLength="130" x="29" y="261.7676">RecorderPanel(App)</text><ellipse cx="20" cy="275.1484" fill="#84BE84" rx="3" ry="3" style="stroke:#038048;stroke-width:1.0;"/><text fill="#000000" font-family="sans-serif" font-size="14" lengthAdjust="spacing" textLength="137" x="29" y="279.377">startRecording(): void</text><ellipse cx="20" cy="292.7578" fill="#84BE84" rx="3" ry="3" style="stroke:#038048;stroke-width:1.0;"/><text fill="#000000" font-family="sans-serif" font-size="14" lengthAdjust="spacing" textLength="136" x="29" y="296.9863">stopRecording(): void</text><ellipse cx="20" cy="310.3672" fill="#84BE84" rx="3" ry="3" style="stroke:#038048;stroke-width:1.0;"/><text fill="#000000" font-family="sans-serif" font-size="14" lengthAdjust="spacing" textLength="141" x="29" y="314.5957">saveEndingInfo(): void</text><polygon fill="#FFFF44" points="20,322.9766,24,326.9766,20,330.9766,16,326.9766" style="stroke:#B38D22;stroke-width:1.0;"/><text fill="#000000" font-family="sans-serif" font-size="14" lengthAdjust="spacing" textLength="205" x="29" y="332.2051">paintComponent(Graphics): void</text><ellipse cx="20" cy="345.5859" fill="#84BE84" rx="3" ry="3" style="stroke:#038048;stroke-width:1.0;"/><text fill="#000000" font-family="sans-serif" font-size="14" lengthAdjust="spacing" textLength="114" x="29" y="349.8145">getFileCount(): int</text><ellipse cx="20" cy="363.1953" fill="#84BE84" rx="3" ry="3" style="stroke:#038048;stroke-width:1.0;"/><text fill="#000000" font-family="sans-serif" font-size="14" lengthAdjust="spacing" textLength="207" x="29" y="367.4238">getMovesList(): ArrayList&lt;Move&gt;</text></g></a><!--class javax.swing.JPanel--><g id="elem_javax.swing.JPanel"><rect codeLine="20" fill="#F1F1F1" height="40.1875" id="javax.swing.JPanel" rx="2.5" ry="2.5" style="stroke:#181818;stroke-width:0.5;" width="86" x="82.5" y="7"/><ellipse cx="97.5" cy="27.0938" fill="#ADD1B2" rx="11" ry="11" style="stroke:#181818;stroke-width:1.0;"/><path d="M100.2656,22.9688 Q100.4219,22.75 100.6094,22.6406 Q100.7969,22.5313 101.0156,22.5313 Q101.3906,22.5313 101.625,22.7969 Q101.8594,23.0469 101.8594,23.6563 L101.8594,25.1094 Q101.8594,25.7188 101.625,25.9844 Q101.3906,26.25 101.0156,26.25 Q100.6719,26.25 100.4688,26.0469 Q100.2656,25.8594 100.1563,25.3438 Q100.1094,24.9844 99.9219,24.7969 Q99.5938,24.4219 98.9844,24.2031 Q98.375,23.9844 97.75,23.9844 Q96.9844,23.9844 96.3438,24.3125 Q95.7188,24.6406 95.2188,25.3906 Q94.7344,26.1406 94.7344,27.1719 L94.7344,28.2656 Q94.7344,29.5 95.625,30.3281 Q96.5156,31.1406 98.1094,31.1406 Q99.0469,31.1406 99.7031,30.8906 Q100.0938,30.7344 100.5156,30.2969 Q100.7813,30.0313 100.9219,29.9531 Q101.0781,29.875 101.2813,29.875 Q101.6094,29.875 101.8594,30.1406 Q102.125,30.3906 102.125,30.7344 Q102.125,31.0781 101.7813,31.4844 Q101.2813,32.0625 100.4844,32.3906 Q99.4063,32.8438 98.1094,32.8438 Q96.5938,32.8438 95.3906,32.2188 Q94.4063,31.7188 93.7188,30.6563 Q93.0313,29.5781 93.0313,28.2969 L93.0313,27.1406 Q93.0313,25.8125 93.6406,24.6719 Q94.2656,23.5156 95.3594,22.9063 Q96.4531,22.2813 97.6875,22.2813 Q98.4219,22.2813 99.0625,22.4531 Q99.7188,22.6094 100.2656,22.9688 Z " fill="#000000"/><text fill="#000000" font-family="sans-serif" font-size="14" lengthAdjust="spacing" textLength="42" x="117.5" y="26.5332">JPanel</text><text fill="#000000" font-family="sans-serif" font-size="10" lengthAdjust="spacing" textLength="54" x="111.5" y="39.9902">javax.swing</text></g><!--reverse link javax.swing.JPanel to nz.ac.wgtn.swen225.lc.app.RecorderPanel--><g id="link_javax.swing.JPanel_nz.ac.wgtn.swen225.lc.app.RecorderPanel"><path codeLine="22" d="M125.5,67.58 C125.5,79.18 125.5,92.55 125.5,106.62 " fill="none" id="javax.swing.JPanel-backto-nz.ac.wgtn.swen225.lc.app.RecorderPanel" style="stroke:#181818;stroke-width:1.0;"/><polygon fill="none" points="118.5,67.19,125.5,47.19,132.5,67.19,118.5,67.19" style="stroke:#181818;stroke-width:1.0;"/></g><text fill="#888888" font-family="sans-serif" font-size="10" lengthAdjust="spacing" textLength="184" x="25.5" y="390.8809">UMLDoclet 2.1.0, PlantUML 1.2022.14</text><!--SRC=[ZPDRImCn48NV_HM38hIemHPzMKf1lA6qK2e-QH_6TDgDP2SXYLkrzh-Rj5LxMSLzMNA-sSEPoIm0WAS0Z0LvYvBkoAB3O1omOTg9678r9A32XZSOAT93lwaM578JvRakDNeFkosltYbhdBJx98qRakiXatxafNxSvdU1Kap6WOMV43URfq9BWTRk0dhubOerFtXuM3kBF1HwC83fF4fwfZvWK7861uKfoMTmvXo-TPGFhMuKsXM5RkweU9p1ap6Qa2kAWYee0yMXWadpmk4t67k88QpzHWTh7TGYgl-m-9aB_Qz0jNe6fL73LMxiNnXBkkJ4RdXajlYUnHZot1GstZM7shL3colfjtp65AwKflFKM79PRIt1D4gVXffWrOHdrSjnkxaLprZYQxpoc7Y-1ojdiIXU66thqFeuElhltYpJn9x9mSYOzBhlTYwCrF5dQ8g6E3w4daOEKONzafnNXclrJm00]--></g></svg>