<?xml version="1.0" encoding="UTF-8" standalone="no"?><svg xmlns="http://www.w3.org/2000/svg" xmlns:xlink="http://www.w3.org/1999/xlink" contentScriptType="application/ecmascript" contentStyleType="text/css" height="361px" preserveAspectRatio="none" style="width:210px;height:361px;background:#FFFFFF;" version="1.1" viewBox="0 0 210 361" width="210px" zoomAndPan="magnify"><defs><filter height="300%" id="f1makruh0576j7" width="300%" x="-1" y="-1"><feGaussianBlur result="blurOut" stdDeviation="2.0"/><feColorMatrix in="blurOut" result="blurOut2" type="matrix" values="0 0 0 0 0 0 0 0 0 0 0 0 0 0 0 0 0 0 .4 0"/><feOffset dx="4.0" dy="4.0" in="blurOut2" result="blurOut3"/><feBlend in="SourceGraphic" in2="blurOut3" mode="normal"/></filter></defs><g><!--MD5=[5585b2ebbed2e466772d341602320f92]
class nz.ac.wgtn.swen225.lc.app.RecorderPanel--><a href="RecorderPanel.html" target="_top" title="RecorderPanel.html" xlink:actuate="onRequest" xlink:href="RecorderPanel.html" xlink:show="new" xlink:title="RecorderPanel.html" xlink:type="simple"><rect codeLine="5" fill="#FEFECE" filter="url(#f1makruh0576j7)" height="222.2188" id="nz.ac.wgtn.swen225.lc.app.RecorderPanel" style="stroke:#A80036;stroke-width:1.5;" width="187" x="9" y="107"/><ellipse cx="36.15" cy="127.0938" fill="#ADD1B2" rx="11" ry="11" style="stroke:#A80036;stroke-width:1.0;"/><path d="M38.9156,122.9688 Q39.0719,122.75 39.2594,122.6406 Q39.4469,122.5313 39.6656,122.5313 Q40.0406,122.5313 40.275,122.7969 Q40.5094,123.0469 40.5094,123.6563 L40.5094,125.1094 Q40.5094,125.7188 40.275,125.9844 Q40.0406,126.25 39.6656,126.25 Q39.3219,126.25 39.1188,126.0469 Q38.9156,125.8594 38.8063,125.3438 Q38.7594,124.9844 38.5719,124.7969 Q38.2438,124.4219 37.6344,124.2031 Q37.025,123.9844 36.4,123.9844 Q35.6344,123.9844 34.9938,124.3125 Q34.3688,124.6406 33.8688,125.3906 Q33.3844,126.1406 33.3844,127.1719 L33.3844,128.2656 Q33.3844,129.5 34.275,130.3281 Q35.1656,131.1406 36.7594,131.1406 Q37.6969,131.1406 38.3531,130.8906 Q38.7438,130.7344 39.1656,130.2969 Q39.4313,130.0313 39.5719,129.9531 Q39.7281,129.875 39.9313,129.875 Q40.2594,129.875 40.5094,130.1406 Q40.775,130.3906 40.775,130.7344 Q40.775,131.0781 40.4313,131.4844 Q39.9313,132.0625 39.1344,132.3906 Q38.0563,132.8438 36.7594,132.8438 Q35.2438,132.8438 34.0406,132.2188 Q33.0563,131.7188 32.3688,130.6563 Q31.6813,129.5781 31.6813,128.2969 L31.6813,127.1406 Q31.6813,125.8125 32.2906,124.6719 Q32.9156,123.5156 34.0094,122.9063 Q35.1031,122.2813 36.3375,122.2813 Q37.0719,122.2813 37.7125,122.4531 Q38.3688,122.6094 38.9156,122.9688 Z " fill="#000000"/><text fill="#000000" font-family="sans-serif" font-size="14" lengthAdjust="spacing" textLength="95" x="69.35" y="126.5332">RecorderPanel</text><text fill="#000000" font-family="sans-serif" font-size="10" lengthAdjust="spacing" textLength="128" x="52.85" y="139.9902">nz.ac.wgtn.swen225.lc.app</text><line style="stroke:#A80036;stroke-width:1.5;" x1="10" x2="195" y1="147.1875" y2="147.1875"/><ellipse cx="20" cy="158.1875" rx="3" ry="3" style="stroke:#038048;stroke-width:1.0;fill:none;"/><text fill="#000000" font-family="sans-serif" font-size="11" lengthAdjust="spacing" text-decoration="underline" textLength="121" x="29" y="162.6064">moves: ArrayList&lt;Move&gt;</text><ellipse cx="20" cy="172.0234" rx="3" ry="3" style="stroke:#038048;stroke-width:1.0;fill:none;"/><text fill="#000000" font-family="sans-serif" font-size="11" lengthAdjust="spacing" text-decoration="underline" textLength="90" x="29" y="176.4424">recording: boolean</text><ellipse cx="20" cy="185.8594" rx="3" ry="3" style="stroke:#038048;stroke-width:1.0;fill:none;"/><text fill="#000000" font-family="sans-serif" font-size="11" lengthAdjust="spacing" text-decoration="underline" textLength="36" x="29" y="190.2783">time: int</text><ellipse cx="20" cy="199.6953" rx="3" ry="3" style="stroke:#038048;stroke-width:1.0;fill:none;"/><text fill="#000000" font-family="sans-serif" font-size="11" lengthAdjust="spacing" text-decoration="underline" textLength="44" x="29" y="204.1143">count: int</text><ellipse cx="20" cy="213.5313" rx="3" ry="3" style="stroke:#038048;stroke-width:1.0;fill:none;"/><text fill="#000000" font-family="sans-serif" font-size="11" lengthAdjust="spacing" text-decoration="underline" textLength="44" x="29" y="217.9502">app: App</text><line style="stroke:#A80036;stroke-width:1.5;" x1="10" x2="195" y1="224.3672" y2="224.3672"/><ellipse cx="20" cy="235.3672" fill="#84BE84" rx="3" ry="3" style="stroke:#038048;stroke-width:1.0;"/><text fill="#000000" font-family="sans-serif" font-size="11" lengthAdjust="spacing" textLength="99" x="29" y="239.7861">RecorderPanel(App)</text><ellipse cx="20" cy="249.2031" fill="#84BE84" rx="3" ry="3" style="stroke:#038048;stroke-width:1.0;"/><text fill="#000000" font-family="sans-serif" font-size="11" lengthAdjust="spacing" textLength="105" x="29" y="253.6221">startRecording(): void</text><ellipse cx="20" cy="263.0391" fill="#84BE84" rx="3" ry="3" style="stroke:#038048;stroke-width:1.0;"/><text fill="#000000" font-family="sans-serif" font-size="11" lengthAdjust="spacing" textLength="104" x="29" y="267.458">stopRecording(): void</text><ellipse cx="20" cy="276.875" fill="#84BE84" rx="3" ry="3" style="stroke:#038048;stroke-width:1.0;"/><text fill="#000000" font-family="sans-serif" font-size="11" lengthAdjust="spacing" textLength="108" x="29" y="281.2939">saveEndingInfo(): void</text><polygon fill="#FFFF44" points="20,285.7109,24,289.7109,20,293.7109,16,289.7109" style="stroke:#B38D22;stroke-width:1.0;"/><text fill="#000000" font-family="sans-serif" font-size="11" lengthAdjust="spacing" textLength="155" x="29" y="295.1299">paintComponent(Graphics): void</text><ellipse cx="20" cy="304.5469" fill="#84BE84" rx="3" ry="3" style="stroke:#038048;stroke-width:1.0;"/><text fill="#000000" font-family="sans-serif" font-size="11" lengthAdjust="spacing" textLength="84" x="29" y="308.9658">getFileCount(): int</text><ellipse cx="20" cy="318.3828" fill="#84BE84" rx="3" ry="3" style="stroke:#038048;stroke-width:1.0;"/><text fill="#000000" font-family="sans-serif" font-size="11" lengthAdjust="spacing" textLength="161" x="29" y="322.8018">getMovesList(): ArrayList&lt;Move&gt;</text></a><!--MD5=[56a185cb33bdc7c23303e5865f20a19b]
class javax.swing.JPanel--><rect codeLine="20" fill="#FEFECE" filter="url(#f1makruh0576j7)" height="40.1875" id="javax.swing.JPanel" style="stroke:#A80036;stroke-width:1.5;" width="86" x="59.5" y="7"/><ellipse cx="74.5" cy="27.0938" fill="#ADD1B2" rx="11" ry="11" style="stroke:#A80036;stroke-width:1.0;"/><path d="M77.2656,22.9688 Q77.4219,22.75 77.6094,22.6406 Q77.7969,22.5313 78.0156,22.5313 Q78.3906,22.5313 78.625,22.7969 Q78.8594,23.0469 78.8594,23.6563 L78.8594,25.1094 Q78.8594,25.7188 78.625,25.9844 Q78.3906,26.25 78.0156,26.25 Q77.6719,26.25 77.4688,26.0469 Q77.2656,25.8594 77.1563,25.3438 Q77.1094,24.9844 76.9219,24.7969 Q76.5938,24.4219 75.9844,24.2031 Q75.375,23.9844 74.75,23.9844 Q73.9844,23.9844 73.3438,24.3125 Q72.7188,24.6406 72.2188,25.3906 Q71.7344,26.1406 71.7344,27.1719 L71.7344,28.2656 Q71.7344,29.5 72.625,30.3281 Q73.5156,31.1406 75.1094,31.1406 Q76.0469,31.1406 76.7031,30.8906 Q77.0938,30.7344 77.5156,30.2969 Q77.7813,30.0313 77.9219,29.9531 Q78.0781,29.875 78.2813,29.875 Q78.6094,29.875 78.8594,30.1406 Q79.125,30.3906 79.125,30.7344 Q79.125,31.0781 78.7813,31.4844 Q78.2813,32.0625 77.4844,32.3906 Q76.4063,32.8438 75.1094,32.8438 Q73.5938,32.8438 72.3906,32.2188 Q71.4063,31.7188 70.7188,30.6563 Q70.0313,29.5781 70.0313,28.2969 L70.0313,27.1406 Q70.0313,25.8125 70.6406,24.6719 Q71.2656,23.5156 72.3594,22.9063 Q73.4531,22.2813 74.6875,22.2813 Q75.4219,22.2813 76.0625,22.4531 Q76.7188,22.6094 77.2656,22.9688 Z " fill="#000000"/><text fill="#000000" font-family="sans-serif" font-size="14" lengthAdjust="spacing" textLength="42" x="94.5" y="26.5332">JPanel</text><text fill="#000000" font-family="sans-serif" font-size="10" lengthAdjust="spacing" textLength="54" x="88.5" y="39.9902">javax.swing</text><!--MD5=[89794c46b6e0bc488d743c184975ef1c]
reverse link javax.swing.JPanel to nz.ac.wgtn.swen225.lc.app.RecorderPanel--><path codeLine="22" d="M102.5,67.41 C102.5,79.26 102.5,92.87 102.5,106.97 " fill="none" id="javax.swing.JPanel-backto-nz.ac.wgtn.swen225.lc.app.RecorderPanel" style="stroke:#A80036;stroke-width:1.0;"/><polygon fill="none" points="95.5,67.16,102.5,47.16,109.5,67.16,95.5,67.16" style="stroke:#A80036;stroke-width:1.0;"/><text fill="#888888" font-family="sans-serif" font-size="10" lengthAdjust="spacing" textLength="184" x="6.5" y="352.5996">UMLDoclet 2.0.14, PlantUML 1.2021.9</text><!--MD5=[3d71ac6add515d732f60cfac42aba345]
@startuml
    set namespaceSeparator none
    hide empty fields
    hide empty methods

    class "<size:14>RecorderPanel\n<size:10>nz.ac.wgtn.swen225.lc.app" as nz.ac.wgtn.swen225.lc.app.RecorderPanel [[RecorderPanel.html]] {
        {static} +moves: ArrayList<Move>
        {static} +recording: boolean
        {static} +time: int
        {static} +count: int
        {static} +app: App
        +RecorderPanel(App)
        +startRecording(): void
        +stopRecording(): void
        +saveEndingInfo(): void
        #paintComponent(Graphics): void
        +getFileCount(): int
        +getMovesList(): ArrayList<Move>
    }

    class "<size:14>JPanel\n<size:10>javax.swing" as javax.swing.JPanel

    javax.swing.JPanel <|- - nz.ac.wgtn.swen225.lc.app.RecorderPanel

    center footer UMLDoclet 2.0.14, PlantUML 1.2021.9
@enduml

PlantUML version 1.2021.9(Sun Jul 25 17:13:56 ICT 2021)
(APACHE source distribution)
Java Runtime: OpenJDK Runtime Environment
JVM: OpenJDK 64-Bit Server VM
Default Encoding: Cp1252
Language: en
Country: NZ
--></g></svg>