<?xml version="1.0" encoding="UTF-8" standalone="no"?><svg xmlns="http://www.w3.org/2000/svg" xmlns:xlink="http://www.w3.org/1999/xlink" contentScriptType="application/ecmascript" contentStyleType="text/css" height="199px" preserveAspectRatio="none" style="width:473px;height:199px;background:#FFFFFF;" version="1.1" viewBox="0 0 473 199" width="473px" zoomAndPan="magnify"><defs><filter height="300%" id="f1oyzenj5ke78l" width="300%" x="-1" y="-1"><feGaussianBlur result="blurOut" stdDeviation="2.0"/><feColorMatrix in="blurOut" result="blurOut2" type="matrix" values="0 0 0 0 0 0 0 0 0 0 0 0 0 0 0 0 0 0 .4 0"/><feOffset dx="4.0" dy="4.0" in="blurOut2" result="blurOut3"/><feBlend in="SourceGraphic" in2="blurOut3" mode="normal"/></filter></defs><g><!--MD5=[52540deb13144cb2b9caea8cc0bdbe1f]
cluster nz.ac.wgtn.swen225.lc.recorder--><polygon fill="#FFFFFF" filter="url(#f1oyzenj5ke78l)" points="16,6,243,6,250,29.6094,456,29.6094,456,175,16,175,16,6" style="stroke:#000000;stroke-width:1.5;"/><line style="stroke:#000000;stroke-width:1.5;" x1="16" x2="250" y1="29.6094" y2="29.6094"/><text fill="#000000" font-family="sans-serif" font-size="14" font-weight="bold" lengthAdjust="spacing" textLength="221" x="20" y="22.5332">nz.ac.wgtn.swen225.lc.recorder</text><!--MD5=[9dc795ca8d2b9bfa0842f62df34c7352]
class nz.ac.wgtn.swen225.lc.recorder.Recorder--><a href="Recorder.html" target="_top" title="Recorder.html" xlink:actuate="onRequest" xlink:href="Recorder.html" xlink:show="new" xlink:title="Recorder.html" xlink:type="simple"><rect codeLine="3" fill="#FEFECE" filter="url(#f1oyzenj5ke78l)" height="89.5078" id="nz.ac.wgtn.swen225.lc.recorder.Recorder" style="stroke:#A80036;stroke-width:1.5;" width="229" x="210.5" y="55.5"/><ellipse cx="295.25" cy="71.5" fill="#ADD1B2" rx="11" ry="11" style="stroke:#A80036;stroke-width:1.0;"/><path d="M298.0156,67.375 Q298.1719,67.1563 298.3594,67.0469 Q298.5469,66.9375 298.7656,66.9375 Q299.1406,66.9375 299.375,67.2031 Q299.6094,67.4531 299.6094,68.0625 L299.6094,69.5156 Q299.6094,70.125 299.375,70.3906 Q299.1406,70.6563 298.7656,70.6563 Q298.4219,70.6563 298.2188,70.4531 Q298.0156,70.2656 297.9063,69.75 Q297.8594,69.3906 297.6719,69.2031 Q297.3438,68.8281 296.7344,68.6094 Q296.125,68.3906 295.5,68.3906 Q294.7344,68.3906 294.0938,68.7188 Q293.4688,69.0469 292.9688,69.7969 Q292.4844,70.5469 292.4844,71.5781 L292.4844,72.6719 Q292.4844,73.9063 293.375,74.7344 Q294.2656,75.5469 295.8594,75.5469 Q296.7969,75.5469 297.4531,75.2969 Q297.8438,75.1406 298.2656,74.7031 Q298.5313,74.4375 298.6719,74.3594 Q298.8281,74.2813 299.0313,74.2813 Q299.3594,74.2813 299.6094,74.5469 Q299.875,74.7969 299.875,75.1406 Q299.875,75.4844 299.5313,75.8906 Q299.0313,76.4688 298.2344,76.7969 Q297.1563,77.25 295.8594,77.25 Q294.3438,77.25 293.1406,76.625 Q292.1563,76.125 291.4688,75.0625 Q290.7813,73.9844 290.7813,72.7031 L290.7813,71.5469 Q290.7813,70.2188 291.3906,69.0781 Q292.0156,67.9219 293.1094,67.3125 Q294.2031,66.6875 295.4375,66.6875 Q296.1719,66.6875 296.8125,66.8594 Q297.4688,67.0156 298.0156,67.375 Z " fill="#000000"/><text fill="#000000" font-family="sans-serif" font-size="12" lengthAdjust="spacing" textLength="51" x="315.75" y="76.4102">Recorder</text><line style="stroke:#A80036;stroke-width:1.5;" x1="211.5" x2="438.5" y1="87.5" y2="87.5"/><line style="stroke:#A80036;stroke-width:1.5;" x1="211.5" x2="438.5" y1="95.5" y2="95.5"/><ellipse cx="221.5" cy="106.5" fill="#84BE84" rx="3" ry="3" style="stroke:#038048;stroke-width:1.0;"/><text fill="#000000" font-family="sans-serif" font-size="11" lengthAdjust="spacing" textLength="184" x="230.5" y="110.9189">loadSave(File, App): ArrayList&lt;Move&gt;</text><ellipse cx="221.5" cy="120.3359" fill="#84BE84" rx="3" ry="3" style="stroke:#038048;stroke-width:1.0;"/><text fill="#000000" font-family="sans-serif" font-size="11" lengthAdjust="spacing" text-decoration="underline" textLength="186" x="230.5" y="124.7549">step(App, File, ArrayList&lt;Move&gt;): void</text><ellipse cx="221.5" cy="134.1719" fill="#84BE84" rx="3" ry="3" style="stroke:#038048;stroke-width:1.0;"/><text fill="#000000" font-family="sans-serif" font-size="11" lengthAdjust="spacing" text-decoration="underline" textLength="203" x="230.5" y="138.5908">auto(App, File, ArrayList&lt;Move&gt;, int): void</text></a><!--MD5=[2726b0fe1b8020dced1783bb7bc2c1df]
class nz.ac.wgtn.swen225.lc.recorder.RecorderTest--><a href="RecorderTest.html" target="_top" title="RecorderTest.html" xlink:actuate="onRequest" xlink:href="RecorderTest.html" xlink:show="new" xlink:title="RecorderTest.html" xlink:type="simple"><rect codeLine="9" fill="#FEFECE" filter="url(#f1oyzenj5ke78l)" height="117.1797" id="nz.ac.wgtn.swen225.lc.recorder.RecorderTest" style="stroke:#A80036;stroke-width:1.5;" width="143" x="32.5" y="42"/><ellipse cx="63.7" cy="58" fill="#ADD1B2" rx="11" ry="11" style="stroke:#A80036;stroke-width:1.0;"/><path d="M66.4656,53.875 Q66.6219,53.6563 66.8094,53.5469 Q66.9969,53.4375 67.2156,53.4375 Q67.5906,53.4375 67.825,53.7031 Q68.0594,53.9531 68.0594,54.5625 L68.0594,56.0156 Q68.0594,56.625 67.825,56.8906 Q67.5906,57.1563 67.2156,57.1563 Q66.8719,57.1563 66.6688,56.9531 Q66.4656,56.7656 66.3563,56.25 Q66.3094,55.8906 66.1219,55.7031 Q65.7938,55.3281 65.1844,55.1094 Q64.575,54.8906 63.95,54.8906 Q63.1844,54.8906 62.5438,55.2188 Q61.9188,55.5469 61.4188,56.2969 Q60.9344,57.0469 60.9344,58.0781 L60.9344,59.1719 Q60.9344,60.4063 61.825,61.2344 Q62.7156,62.0469 64.3094,62.0469 Q65.2469,62.0469 65.9031,61.7969 Q66.2938,61.6406 66.7156,61.2031 Q66.9813,60.9375 67.1219,60.8594 Q67.2781,60.7813 67.4813,60.7813 Q67.8094,60.7813 68.0594,61.0469 Q68.325,61.2969 68.325,61.6406 Q68.325,61.9844 67.9813,62.3906 Q67.4813,62.9688 66.6844,63.2969 Q65.6063,63.75 64.3094,63.75 Q62.7938,63.75 61.5906,63.125 Q60.6063,62.625 59.9188,61.5625 Q59.2313,60.4844 59.2313,59.2031 L59.2313,58.0469 Q59.2313,56.7188 59.8406,55.5781 Q60.4656,54.4219 61.5594,53.8125 Q62.6531,53.1875 63.8875,53.1875 Q64.6219,53.1875 65.2625,53.3594 Q65.9188,53.5156 66.4656,53.875 Z " fill="#000000"/><text fill="#000000" font-family="sans-serif" font-size="12" lengthAdjust="spacing" textLength="75" x="81.3" y="62.9102">RecorderTest</text><line style="stroke:#A80036;stroke-width:1.5;" x1="33.5" x2="174.5" y1="74" y2="74"/><line style="stroke:#A80036;stroke-width:1.5;" x1="33.5" x2="174.5" y1="82" y2="82"/><ellipse cx="43.5" cy="93" fill="#84BE84" rx="3" ry="3" style="stroke:#038048;stroke-width:1.0;"/><text fill="#000000" font-family="sans-serif" font-size="11" lengthAdjust="spacing" textLength="71" x="52.5" y="97.4189">initialise(): void</text><ellipse cx="43.5" cy="106.8359" fill="#84BE84" rx="3" ry="3" style="stroke:#038048;stroke-width:1.0;"/><text fill="#000000" font-family="sans-serif" font-size="11" lengthAdjust="spacing" textLength="117" x="52.5" y="111.2549">testStepAndAuto(): void</text><ellipse cx="43.5" cy="120.6719" fill="#84BE84" rx="3" ry="3" style="stroke:#038048;stroke-width:1.0;"/><text fill="#000000" font-family="sans-serif" font-size="11" lengthAdjust="spacing" textLength="101" x="52.5" y="125.0908">testRecording(): void</text><ellipse cx="43.5" cy="134.5078" fill="#84BE84" rx="3" ry="3" style="stroke:#038048;stroke-width:1.0;"/><text fill="#000000" font-family="sans-serif" font-size="11" lengthAdjust="spacing" textLength="85" x="52.5" y="138.9268">testSaving(): void</text><ellipse cx="43.5" cy="148.3438" fill="#84BE84" rx="3" ry="3" style="stroke:#038048;stroke-width:1.0;"/><text fill="#000000" font-family="sans-serif" font-size="11" lengthAdjust="spacing" textLength="90" x="52.5" y="152.7627">testLoading(): void</text></a><text fill="#888888" font-family="sans-serif" font-size="10" lengthAdjust="spacing" textLength="184" x="138" y="191.3809">UMLDoclet 2.0.14, PlantUML 1.2021.9</text><!--MD5=[7d6f35383c67221b3d6411f94338db5b]
@startuml
    namespace nz.ac.wgtn.swen225.lc.recorder {

        class Recorder [[Recorder.html]] {
            +loadSave(File, App): ArrayList<Move>
            {static} +step(App, File, ArrayList<Move>): void
            {static} +auto(App, File, ArrayList<Move>, int): void
        }

        class RecorderTest [[RecorderTest.html]] {
            +initialise(): void
            +testStepAndAuto(): void
            +testRecording(): void
            +testSaving(): void
            +testLoading(): void
        }

    }

    center footer UMLDoclet 2.0.14, PlantUML 1.2021.9
@enduml

PlantUML version 1.2021.9(Sun Jul 25 17:13:56 ICT 2021)
(APACHE source distribution)
Java Runtime: OpenJDK Runtime Environment
JVM: OpenJDK 64-Bit Server VM
Default Encoding: Cp1252
Language: en
Country: NZ
--></g></svg>