<?xml version="1.0" encoding="UTF-8" standalone="no"?><svg xmlns="http://www.w3.org/2000/svg" xmlns:xlink="http://www.w3.org/1999/xlink" contentStyleType="text/css" height="220px" preserveAspectRatio="none" style="width:547px;height:220px;background:#FFFFFF;" version="1.1" viewBox="0 0 547 220" width="547px" zoomAndPan="magnify"><defs/><g><!--cluster nz.ac.wgtn.swen225.lc.recorder--><g id="cluster_nz.ac.wgtn.swen225.lc.recorder"><path d="M8.5,6 L230.5,6 A3.75,3.75 0 0 1 233,8.5 L240,29.6094 L537.5,29.6094 A2.5,2.5 0 0 1 540,32.1094 L540,191.55 A2.5,2.5 0 0 1 537.5,194.05 L8.5,194.05 A2.5,2.5 0 0 1 6,191.55 L6,8.5 A2.5,2.5 0 0 1 8.5,6 " fill="none" style="stroke:#000000;stroke-width:1.5;"/><line style="stroke:#000000;stroke-width:1.5;" x1="6" x2="240" y1="29.6094" y2="29.6094"/><text fill="#000000" font-family="sans-serif" font-size="14" font-weight="bold" lengthAdjust="spacing" textLength="221" x="10" y="22.5332">nz.ac.wgtn.swen225.lc.recorder</text></g><!--class nz.ac.wgtn.swen225.lc.recorder.Recorder--><a href="Recorder.html" target="_top" title="Recorder.html" xlink:actuate="onRequest" xlink:href="Recorder.html" xlink:show="new" xlink:title="Recorder.html" xlink:type="simple"><g id="elem_nz.ac.wgtn.swen225.lc.recorder.Recorder"><rect codeLine="3" fill="#F1F1F1" height="100.8281" id="nz.ac.wgtn.swen225.lc.recorder.Recorder" rx="2.5" ry="2.5" style="stroke:#181818;stroke-width:0.5;" width="291" x="232.5" y="59.61"/><ellipse cx="344.25" cy="75.61" fill="#ADD1B2" rx="11" ry="11" style="stroke:#181818;stroke-width:1.0;"/><path d="M347.0156,71.485 Q347.1719,71.2663 347.3594,71.1569 Q347.5469,71.0475 347.7656,71.0475 Q348.1406,71.0475 348.375,71.3131 Q348.6094,71.5631 348.6094,72.1725 L348.6094,73.6256 Q348.6094,74.235 348.375,74.5006 Q348.1406,74.7663 347.7656,74.7663 Q347.4219,74.7663 347.2188,74.5631 Q347.0156,74.3756 346.9063,73.86 Q346.8594,73.5006 346.6719,73.3131 Q346.3438,72.9381 345.7344,72.7194 Q345.125,72.5006 344.5,72.5006 Q343.7344,72.5006 343.0938,72.8288 Q342.4688,73.1569 341.9688,73.9069 Q341.4844,74.6569 341.4844,75.6881 L341.4844,76.7819 Q341.4844,78.0163 342.375,78.8444 Q343.2656,79.6569 344.8594,79.6569 Q345.7969,79.6569 346.4531,79.4069 Q346.8438,79.2506 347.2656,78.8131 Q347.5313,78.5475 347.6719,78.4694 Q347.8281,78.3913 348.0313,78.3913 Q348.3594,78.3913 348.6094,78.6569 Q348.875,78.9069 348.875,79.2506 Q348.875,79.5944 348.5313,80.0006 Q348.0313,80.5788 347.2344,80.9069 Q346.1563,81.36 344.8594,81.36 Q343.3438,81.36 342.1406,80.735 Q341.1563,80.235 340.4688,79.1725 Q339.7813,78.0944 339.7813,76.8131 L339.7813,75.6569 Q339.7813,74.3288 340.3906,73.1881 Q341.0156,72.0319 342.1094,71.4225 Q343.2031,70.7975 344.4375,70.7975 Q345.1719,70.7975 345.8125,70.9694 Q346.4688,71.1256 347.0156,71.485 Z " fill="#000000"/><text fill="#000000" font-family="sans-serif" font-size="14" lengthAdjust="spacing" textLength="59" x="364.75" y="81.3385">Recorder</text><line style="stroke:#181818;stroke-width:0.5;" x1="233.5" x2="522.5" y1="91.61" y2="91.61"/><line style="stroke:#181818;stroke-width:0.5;" x1="233.5" x2="522.5" y1="99.61" y2="99.61"/><ellipse cx="243.5" cy="113.9147" fill="#84BE84" rx="3" ry="3" style="stroke:#038048;stroke-width:1.0;"/><text fill="#000000" font-family="sans-serif" font-size="14" lengthAdjust="spacing" textLength="239" x="252.5" y="118.1432">loadSave(File, App): ArrayList&lt;Move&gt;</text><ellipse cx="243.5" cy="131.5241" fill="#84BE84" rx="3" ry="3" style="stroke:#038048;stroke-width:1.0;"/><text fill="#000000" font-family="sans-serif" font-size="14" lengthAdjust="spacing" text-decoration="underline" textLength="241" x="252.5" y="135.7526">step(App, File, ArrayList&lt;Move&gt;): void</text><ellipse cx="243.5" cy="149.1334" fill="#84BE84" rx="3" ry="3" style="stroke:#038048;stroke-width:1.0;"/><text fill="#000000" font-family="sans-serif" font-size="14" lengthAdjust="spacing" text-decoration="underline" textLength="265" x="252.5" y="153.362">auto(App, File, ArrayList&lt;Move&gt;, int): void</text></g></a><!--class nz.ac.wgtn.swen225.lc.recorder.RecorderTest--><a href="RecorderTest.html" target="_top" title="RecorderTest.html" xlink:actuate="onRequest" xlink:href="RecorderTest.html" xlink:show="new" xlink:title="RecorderTest.html" xlink:type="simple"><g id="elem_nz.ac.wgtn.swen225.lc.recorder.RecorderTest"><rect codeLine="9" fill="#F1F1F1" height="136.0469" id="nz.ac.wgtn.swen225.lc.recorder.RecorderTest" rx="2.5" ry="2.5" style="stroke:#181818;stroke-width:0.5;" width="176" x="22" y="42"/><ellipse cx="62.65" cy="58" fill="#ADD1B2" rx="11" ry="11" style="stroke:#181818;stroke-width:1.0;"/><path d="M65.4156,53.875 Q65.5719,53.6563 65.7594,53.5469 Q65.9469,53.4375 66.1656,53.4375 Q66.5406,53.4375 66.775,53.7031 Q67.0094,53.9531 67.0094,54.5625 L67.0094,56.0156 Q67.0094,56.625 66.775,56.8906 Q66.5406,57.1563 66.1656,57.1563 Q65.8219,57.1563 65.6188,56.9531 Q65.4156,56.7656 65.3063,56.25 Q65.2594,55.8906 65.0719,55.7031 Q64.7438,55.3281 64.1344,55.1094 Q63.525,54.8906 62.9,54.8906 Q62.1344,54.8906 61.4938,55.2188 Q60.8688,55.5469 60.3688,56.2969 Q59.8844,57.0469 59.8844,58.0781 L59.8844,59.1719 Q59.8844,60.4063 60.775,61.2344 Q61.6656,62.0469 63.2594,62.0469 Q64.1969,62.0469 64.8531,61.7969 Q65.2438,61.6406 65.6656,61.2031 Q65.9313,60.9375 66.0719,60.8594 Q66.2281,60.7813 66.4313,60.7813 Q66.7594,60.7813 67.0094,61.0469 Q67.275,61.2969 67.275,61.6406 Q67.275,61.9844 66.9313,62.3906 Q66.4313,62.9688 65.6344,63.2969 Q64.5563,63.75 63.2594,63.75 Q61.7438,63.75 60.5406,63.125 Q59.5563,62.625 58.8688,61.5625 Q58.1813,60.4844 58.1813,59.2031 L58.1813,58.0469 Q58.1813,56.7188 58.7906,55.5781 Q59.4156,54.4219 60.5094,53.8125 Q61.6031,53.1875 62.8375,53.1875 Q63.5719,53.1875 64.2125,53.3594 Q64.8688,53.5156 65.4156,53.875 Z " fill="#000000"/><text fill="#000000" font-family="sans-serif" font-size="14" lengthAdjust="spacing" textLength="87" x="82.35" y="63.7285">RecorderTest</text><line style="stroke:#181818;stroke-width:0.5;" x1="23" x2="197" y1="74" y2="74"/><line style="stroke:#181818;stroke-width:0.5;" x1="23" x2="197" y1="82" y2="82"/><ellipse cx="33" cy="96.3047" fill="#84BE84" rx="3" ry="3" style="stroke:#038048;stroke-width:1.0;"/><text fill="#000000" font-family="sans-serif" font-size="14" lengthAdjust="spacing" textLength="94" x="42" y="100.5332">initialise(): void</text><ellipse cx="33" cy="113.9141" fill="#84BE84" rx="3" ry="3" style="stroke:#038048;stroke-width:1.0;"/><text fill="#000000" font-family="sans-serif" font-size="14" lengthAdjust="spacing" textLength="150" x="42" y="118.1426">testStepAndAuto(): void</text><ellipse cx="33" cy="131.5234" fill="#84BE84" rx="3" ry="3" style="stroke:#038048;stroke-width:1.0;"/><text fill="#000000" font-family="sans-serif" font-size="14" lengthAdjust="spacing" textLength="132" x="42" y="135.752">testRecording(): void</text><ellipse cx="33" cy="149.1328" fill="#84BE84" rx="3" ry="3" style="stroke:#038048;stroke-width:1.0;"/><text fill="#000000" font-family="sans-serif" font-size="14" lengthAdjust="spacing" textLength="110" x="42" y="153.3613">testSaving(): void</text><ellipse cx="33" cy="166.7422" fill="#84BE84" rx="3" ry="3" style="stroke:#038048;stroke-width:1.0;"/><text fill="#000000" font-family="sans-serif" font-size="14" lengthAdjust="spacing" textLength="118" x="42" y="170.9707">testLoading(): void</text></g></a><text fill="#888888" font-family="sans-serif" font-size="10" lengthAdjust="spacing" textLength="184" x="174.5" y="210.4309">UMLDoclet 2.1.0, PlantUML 1.2022.14</text><!--SRC=[VP71QiCm38RlVGfT1Ya9PWliCiOWC7PAOQpRgVGW7BKJk7AmjPIjzDtdi1JQqKGNsPQ-t_fj00317SKMBO7y6BHclrKnSKzIblV6MHF8-j1GWCDi1aDOXp72swcoMfsMvbDtRhrElN0MkVFOBB6Zx8KT5L2rxVm1gX3mk-QeZmlVqTC5SOYAolO8ULHgimGKCB2NLDBfF3SZC7wfdu0BOD7_2iSnc-yKzSnglnsnoyBAw3XITcs-N1EwJBugQQf-mj6clxjOjXCws4tMw_Jqrne6cqEo99e-SkDzdpuMzREtZXHASsTk2tXrA9fEuQQZ4DbBDly5]--></g></svg>