<?xml version="1.0" encoding="UTF-8" standalone="no"?><svg xmlns="http://www.w3.org/2000/svg" xmlns:xlink="http://www.w3.org/1999/xlink" contentScriptType="application/ecmascript" contentStyleType="text/css" height="208px" preserveAspectRatio="none" style="width:602px;height:208px;background:#FFFFFF;" version="1.1" viewBox="0 0 602 208" width="602px" zoomAndPan="magnify"><defs><filter height="300%" id="f1lh3wde08hst8" width="300%" x="-1" y="-1"><feGaussianBlur result="blurOut" stdDeviation="2.0"/><feColorMatrix in="blurOut" result="blurOut2" type="matrix" values="0 0 0 0 0 0 0 0 0 0 0 0 0 0 0 0 0 0 .4 0"/><feOffset dx="4.0" dy="4.0" in="blurOut2" result="blurOut3"/><feBlend in="SourceGraphic" in2="blurOut3" mode="normal"/></filter></defs><g><!--MD5=[52540deb13144cb2b9caea8cc0bdbe1f]
cluster nz.ac.wgtn.swen225.lc.recorder--><polygon fill="#FFFFFF" filter="url(#f1lh3wde08hst8)" points="16,6.602,239,6.602,246,31.6699,585,31.6699,585,183.512,16,183.512,16,6.602" style="stroke:#000000;stroke-width:1.5;"/><line style="stroke:#000000;stroke-width:1.5;" x1="16" x2="246" y1="31.6699" y2="31.6699"/><text fill="#000000" font-family="sans-serif" font-size="14" font-weight="bold" lengthAdjust="spacing" textLength="217" x="20" y="23.5679">nz.ac.wgtn.swen225.lc.recorder</text><!--MD5=[9dc795ca8d2b9bfa0842f62df34c7352]
class nz.ac.wgtn.swen225.lc.recorder.Recorder--><a href="Recorder.html" target="_top" title="Recorder.html" xlink:actuate="onRequest" xlink:href="Recorder.html" xlink:show="new" xlink:title="Recorder.html" xlink:type="simple"><rect codeLine="3" fill="#FEFECE" filter="url(#f1lh3wde08hst8)" height="122.9094" id="nz.ac.wgtn.swen225.lc.recorder.Recorder" style="stroke:#A80036;stroke-width:1.5;" width="353" x="215.5" y="44.602"/><ellipse cx="362.25" cy="60.602" fill="#ADD1B2" rx="11" ry="11" style="stroke:#A80036;stroke-width:1.0;"/><path d="M361.7188,67.5239 Q359.9688,67.5239 358.8281,66.7895 Q357.7031,66.0395 357.1406,64.6957 Q356.5938,63.3364 356.5938,61.5395 Q356.5938,59.5082 357.25,58.0551 Q357.9063,56.602 359.1875,55.8207 Q360.4688,55.0395 362.3438,55.0395 Q363.2344,55.0395 363.9063,55.227 Q364.5781,55.3989 365.2656,55.7426 L364.4531,57.7582 Q363.8281,57.4457 363.2813,57.3207 Q362.75,57.1957 362.2656,57.1957 Q361.0938,57.1957 360.3906,57.727 Q359.6875,58.2582 359.3906,59.2114 Q359.0938,60.1645 359.0938,61.4301 Q359.0938,63.4457 359.8125,64.4145 Q360.5313,65.3676 362.125,65.3676 Q362.7188,65.3676 363.3438,65.2114 Q363.9688,65.0551 364.7969,64.6801 L364.7969,66.8989 Q364.0625,67.2114 363.2656,67.3676 Q362.4844,67.5239 361.7188,67.5239 Z " fill="#000000"/><text fill="#000000" font-family="sans-serif" font-size="12" lengthAdjust="spacing" textLength="51" x="382.75" y="65.258">Recorder</text><line style="stroke:#A80036;stroke-width:1.5;" x1="216.5" x2="567.5" y1="76.602" y2="76.602"/><line style="stroke:#A80036;stroke-width:1.5;" x1="216.5" x2="567.5" y1="84.602" y2="84.602"/><ellipse cx="226.5" cy="95.602" fill="#84BE84" rx="3" ry="3" style="stroke:#038048;stroke-width:1.0;"/><text fill="#000000" font-family="sans-serif" font-size="11" lengthAdjust="spacing" textLength="327" x="235.5" y="100.3609">Recorder(ArrayList&lt;Move&gt;, int, int, int, int, int, int, Tile[], Chap)</text><ellipse cx="226.5" cy="110.5839" fill="#84BE84" rx="3" ry="3" style="stroke:#038048;stroke-width:1.0;"/><text fill="#000000" font-family="sans-serif" font-size="11" lengthAdjust="spacing" textLength="54" x="235.5" y="115.3428">Recorder()</text><ellipse cx="226.5" cy="125.5658" fill="#84BE84" rx="3" ry="3" style="stroke:#038048;stroke-width:1.0;"/><text fill="#000000" font-family="sans-serif" font-size="11" lengthAdjust="spacing" textLength="120" x="235.5" y="130.3247">saveRecorder(int): void</text><ellipse cx="226.5" cy="140.5476" fill="#84BE84" rx="3" ry="3" style="stroke:#038048;stroke-width:1.0;"/><text fill="#000000" font-family="sans-serif" font-size="11" lengthAdjust="spacing" textLength="192" x="235.5" y="145.3066">loadSave(File, App): ArrayList&lt;Move&gt;</text><ellipse cx="226.5" cy="155.5295" fill="#84BE84" rx="3" ry="3" style="stroke:#038048;stroke-width:1.0;"/><text fill="#000000" font-family="sans-serif" font-size="11" lengthAdjust="spacing" textLength="86" x="235.5" y="160.2884">step(Move): void</text></a><!--MD5=[2726b0fe1b8020dced1783bb7bc2c1df]
class nz.ac.wgtn.swen225.lc.recorder.RecorderTest--><a href="RecorderTest.html" target="_top" title="RecorderTest.html" xlink:actuate="onRequest" xlink:href="RecorderTest.html" xlink:show="new" xlink:title="RecorderTest.html" xlink:type="simple"><rect codeLine="11" fill="#FEFECE" filter="url(#f1lh3wde08hst8)" height="122.9094" id="nz.ac.wgtn.swen225.lc.recorder.RecorderTest" style="stroke:#A80036;stroke-width:1.5;" width="149" x="31.5" y="44.602"/><ellipse cx="65.4" cy="60.602" fill="#ADD1B2" rx="11" ry="11" style="stroke:#A80036;stroke-width:1.0;"/><path d="M64.8688,67.5239 Q63.1188,67.5239 61.9781,66.7895 Q60.8531,66.0395 60.2906,64.6957 Q59.7438,63.3364 59.7438,61.5395 Q59.7438,59.5082 60.4,58.0551 Q61.0563,56.602 62.3375,55.8207 Q63.6188,55.0395 65.4938,55.0395 Q66.3844,55.0395 67.0563,55.227 Q67.7281,55.3989 68.4156,55.7426 L67.6031,57.7582 Q66.9781,57.4457 66.4313,57.3207 Q65.9,57.1957 65.4156,57.1957 Q64.2438,57.1957 63.5406,57.727 Q62.8375,58.2582 62.5406,59.2114 Q62.2438,60.1645 62.2438,61.4301 Q62.2438,63.4457 62.9625,64.4145 Q63.6813,65.3676 65.275,65.3676 Q65.8688,65.3676 66.4938,65.2114 Q67.1188,65.0551 67.9469,64.6801 L67.9469,66.8989 Q67.2125,67.2114 66.4156,67.3676 Q65.6344,67.5239 64.8688,67.5239 Z " fill="#000000"/><text fill="#000000" font-family="sans-serif" font-size="12" lengthAdjust="spacing" textLength="75" x="83.6" y="65.258">RecorderTest</text><line style="stroke:#A80036;stroke-width:1.5;" x1="32.5" x2="179.5" y1="76.602" y2="76.602"/><line style="stroke:#A80036;stroke-width:1.5;" x1="32.5" x2="179.5" y1="84.602" y2="84.602"/><ellipse cx="42.5" cy="95.602" fill="#84BE84" rx="3" ry="3" style="stroke:#038048;stroke-width:1.0;"/><text fill="#000000" font-family="sans-serif" font-size="11" lengthAdjust="spacing" textLength="78" x="51.5" y="100.3609">initialise(): void</text><ellipse cx="42.5" cy="110.5839" fill="#84BE84" rx="3" ry="3" style="stroke:#038048;stroke-width:1.0;"/><text fill="#000000" font-family="sans-serif" font-size="11" lengthAdjust="spacing" textLength="123" x="51.5" y="115.3428">testStepAndAuto(): void</text><ellipse cx="42.5" cy="125.5658" fill="#84BE84" rx="3" ry="3" style="stroke:#038048;stroke-width:1.0;"/><text fill="#000000" font-family="sans-serif" font-size="11" lengthAdjust="spacing" textLength="108" x="51.5" y="130.3247">testRecording(): void</text><ellipse cx="42.5" cy="140.5476" fill="#84BE84" rx="3" ry="3" style="stroke:#038048;stroke-width:1.0;"/><text fill="#000000" font-family="sans-serif" font-size="11" lengthAdjust="spacing" textLength="89" x="51.5" y="145.3066">testSaving(): void</text><ellipse cx="42.5" cy="155.5295" fill="#84BE84" rx="3" ry="3" style="stroke:#038048;stroke-width:1.0;"/><text fill="#000000" font-family="sans-serif" font-size="11" lengthAdjust="spacing" textLength="97" x="51.5" y="160.2884">testLoading(): void</text></a><text fill="#888888" font-family="sans-serif" font-size="10" lengthAdjust="spacing" textLength="182" x="203.5" y="200.202">UMLDoclet 2.0.14, PlantUML 1.2021.9</text><!--MD5=[088c935bb01b4be1af3ac09fd16c6532]
@startuml
    namespace nz.ac.wgtn.swen225.lc.recorder {

        class Recorder [[Recorder.html]] {
            +Recorder(ArrayList<Move>, int, int, int, int, int, int, Tile[], Chap)
            +Recorder()
            +saveRecorder(int): void
            +loadSave(File, App): ArrayList<Move>
            +step(Move): void
        }

        class RecorderTest [[RecorderTest.html]] {
            +initialise(): void
            +testStepAndAuto(): void
            +testRecording(): void
            +testSaving(): void
            +testLoading(): void
        }

    }

    center footer UMLDoclet 2.0.14, PlantUML 1.2021.9
@enduml

PlantUML version 1.2021.9(Sun Jul 25 22:13:56 NZST 2021)
(APACHE source distribution)
Java Runtime: OpenJDK Runtime Environment
JVM: OpenJDK 64-Bit Server VM
Default Encoding: UTF-8
Language: en
Country: NZ
--></g></svg>