<?xml version="1.0" encoding="UTF-8" standalone="no"?><svg xmlns="http://www.w3.org/2000/svg" xmlns:xlink="http://www.w3.org/1999/xlink" contentScriptType="application/ecmascript" contentStyleType="text/css" height="282px" preserveAspectRatio="none" style="width:313px;height:282px;background:#FFFFFF;" version="1.1" viewBox="0 0 313 282" width="313px" zoomAndPan="magnify"><defs><filter height="300%" id="foyc2rjok135p" width="300%" x="-1" y="-1"><feGaussianBlur result="blurOut" stdDeviation="2.0"/><feColorMatrix in="blurOut" result="blurOut2" type="matrix" values="0 0 0 0 0 0 0 0 0 0 0 0 0 0 0 0 0 0 .4 0"/><feOffset dx="4.0" dy="4.0" in="blurOut2" result="blurOut3"/><feBlend in="SourceGraphic" in2="blurOut3" mode="normal"/></filter></defs><g><!--MD5=[9dc795ca8d2b9bfa0842f62df34c7352]
class nz.ac.wgtn.swen225.lc.recorder.Recorder--><a href="Recorder.html" target="_top" title="Recorder.html" xlink:actuate="onRequest" xlink:href="Recorder.html" xlink:show="new" xlink:title="Recorder.html" xlink:type="simple"><rect codeLine="5" fill="#FEFECE" filter="url(#foyc2rjok135p)" height="249.8906" id="nz.ac.wgtn.swen225.lc.recorder.Recorder" style="stroke:#A80036;stroke-width:1.5;" width="292" x="7" y="7"/><ellipse cx="74.25" cy="27.0938" fill="#ADD1B2" rx="11" ry="11" style="stroke:#A80036;stroke-width:1.0;"/><path d="M77.0156,22.9688 Q77.1719,22.75 77.3594,22.6406 Q77.5469,22.5313 77.7656,22.5313 Q78.1406,22.5313 78.375,22.7969 Q78.6094,23.0469 78.6094,23.6563 L78.6094,25.1094 Q78.6094,25.7188 78.375,25.9844 Q78.1406,26.25 77.7656,26.25 Q77.4219,26.25 77.2188,26.0469 Q77.0156,25.8594 76.9063,25.3438 Q76.8594,24.9844 76.6719,24.7969 Q76.3438,24.4219 75.7344,24.2031 Q75.125,23.9844 74.5,23.9844 Q73.7344,23.9844 73.0938,24.3125 Q72.4688,24.6406 71.9688,25.3906 Q71.4844,26.1406 71.4844,27.1719 L71.4844,28.2656 Q71.4844,29.5 72.375,30.3281 Q73.2656,31.1406 74.8594,31.1406 Q75.7969,31.1406 76.4531,30.8906 Q76.8438,30.7344 77.2656,30.2969 Q77.5313,30.0313 77.6719,29.9531 Q77.8281,29.875 78.0313,29.875 Q78.3594,29.875 78.6094,30.1406 Q78.875,30.3906 78.875,30.7344 Q78.875,31.0781 78.5313,31.4844 Q78.0313,32.0625 77.2344,32.3906 Q76.1563,32.8438 74.8594,32.8438 Q73.3438,32.8438 72.1406,32.2188 Q71.1563,31.7188 70.4688,30.6563 Q69.7813,29.5781 69.7813,28.2969 L69.7813,27.1406 Q69.7813,25.8125 70.3906,24.6719 Q71.0156,23.5156 72.1094,22.9063 Q73.2031,22.2813 74.4375,22.2813 Q75.1719,22.2813 75.8125,22.4531 Q76.4688,22.6094 77.0156,22.9688 Z " fill="#000000"/><text fill="#000000" font-family="sans-serif" font-size="14" lengthAdjust="spacing" textLength="59" x="139.75" y="26.5332">Recorder</text><text fill="#000000" font-family="sans-serif" font-size="10" lengthAdjust="spacing" textLength="149" x="94.75" y="39.9902">nz.ac.wgtn.swen225.lc.recorder</text><line style="stroke:#A80036;stroke-width:1.5;" x1="8" x2="298" y1="47.1875" y2="47.1875"/><rect fill="none" height="6" style="stroke:#C82930;stroke-width:1.0;" width="6" x="15" y="55.1875"/><text fill="#000000" font-family="sans-serif" font-size="11" lengthAdjust="spacing" textLength="138" x="27" y="62.6064">movesList: ArrayList&lt;Move&gt;</text><rect fill="none" height="6" style="stroke:#C82930;stroke-width:1.0;" width="6" x="15" y="69.0234"/><text fill="#000000" font-family="sans-serif" font-size="11" lengthAdjust="spacing" textLength="23" x="27" y="76.4424">x: int</text><rect fill="none" height="6" style="stroke:#C82930;stroke-width:1.0;" width="6" x="15" y="82.8594"/><text fill="#000000" font-family="sans-serif" font-size="11" lengthAdjust="spacing" textLength="23" x="27" y="90.2783">y: int</text><rect fill="none" height="6" style="stroke:#C82930;stroke-width:1.0;" width="6" x="15" y="96.6953"/><text fill="#000000" font-family="sans-serif" font-size="11" lengthAdjust="spacing" textLength="145" x="27" y="104.1143">numberOfTreasuresPlayer: int</text><rect fill="none" height="6" style="stroke:#C82930;stroke-width:1.0;" width="6" x="15" y="110.5313"/><text fill="#000000" font-family="sans-serif" font-size="11" lengthAdjust="spacing" textLength="144" x="27" y="117.9502">numberOfTreasuresBoard: int</text><polygon fill="none" points="18,123.3672,14,129.3672,22,129.3672" style="stroke:#1963A0;stroke-width:1.0;"/><text fill="#000000" font-family="sans-serif" font-size="11" lengthAdjust="spacing" textLength="56" x="27" y="131.7861">initLevel: int</text><polygon fill="none" points="18,137.2031,14,143.2031,22,143.2031" style="stroke:#1963A0;stroke-width:1.0;"/><text fill="#000000" font-family="sans-serif" font-size="11" lengthAdjust="spacing" textLength="55" x="27" y="145.6221">timeLeft: int</text><polygon fill="none" points="18,151.0391,14,157.0391,22,157.0391" style="stroke:#1963A0;stroke-width:1.0;"/><text fill="#000000" font-family="sans-serif" font-size="11" lengthAdjust="spacing" textLength="56" x="27" y="159.458">board: Tile[]</text><line style="stroke:#A80036;stroke-width:1.5;" x1="8" x2="298" y1="165.875" y2="165.875"/><ellipse cx="18" cy="176.875" fill="#84BE84" rx="3" ry="3" style="stroke:#038048;stroke-width:1.0;"/><text fill="#000000" font-family="sans-serif" font-size="11" lengthAdjust="spacing" textLength="266" x="27" y="181.2939">Recorder(ArrayList&lt;Move&gt;, int, int, int, int, int, int, Tile[])</text><ellipse cx="18" cy="190.7109" fill="#84BE84" rx="3" ry="3" style="stroke:#038048;stroke-width:1.0;"/><text fill="#000000" font-family="sans-serif" font-size="11" lengthAdjust="spacing" textLength="53" x="27" y="195.1299">Recorder()</text><ellipse cx="18" cy="204.5469" fill="#84BE84" rx="3" ry="3" style="stroke:#038048;stroke-width:1.0;"/><text fill="#000000" font-family="sans-serif" font-size="11" lengthAdjust="spacing" textLength="114" x="27" y="208.9658">saveRecorder(int): void</text><ellipse cx="18" cy="218.3828" fill="#84BE84" rx="3" ry="3" style="stroke:#038048;stroke-width:1.0;"/><text fill="#000000" font-family="sans-serif" font-size="11" lengthAdjust="spacing" textLength="184" x="27" y="222.8018">loadSave(File, App): ArrayList&lt;Move&gt;</text><ellipse cx="18" cy="232.2188" fill="#84BE84" rx="3" ry="3" style="stroke:#038048;stroke-width:1.0;"/><text fill="#000000" font-family="sans-serif" font-size="11" lengthAdjust="spacing" textLength="81" x="27" y="236.6377">step(Move): void</text><ellipse cx="18" cy="246.0547" fill="#84BE84" rx="3" ry="3" style="stroke:#038048;stroke-width:1.0;"/><text fill="#000000" font-family="sans-serif" font-size="11" lengthAdjust="spacing" text-decoration="underline" textLength="98" x="27" y="250.4736">auto(Move, int): void</text></a><text fill="#888888" font-family="sans-serif" font-size="10" lengthAdjust="spacing" textLength="184" x="61" y="274.2715">UMLDoclet 2.0.14, PlantUML 1.2021.9</text><!--MD5=[acf6219e517e3a45273dab2edf17e9d3]
@startuml
    set namespaceSeparator none
    hide empty fields
    hide empty methods

    class "<size:14>Recorder\n<size:10>nz.ac.wgtn.swen225.lc.recorder" as nz.ac.wgtn.swen225.lc.recorder.Recorder [[Recorder.html]] {
        -movesList: ArrayList<Move>
        -x: int
        -y: int
        -numberOfTreasuresPlayer: int
        -numberOfTreasuresBoard: int
        ~initLevel: int
        ~timeLeft: int
        ~board: Tile[]
        +Recorder(ArrayList<Move>, int, int, int, int, int, int, Tile[])
        +Recorder()
        +saveRecorder(int): void
        +loadSave(File, App): ArrayList<Move>
        +step(Move): void
        {static} +auto(Move, int): void
    }

    center footer UMLDoclet 2.0.14, PlantUML 1.2021.9
@enduml

PlantUML version 1.2021.9(Sun Jul 25 22:13:56 NZST 2021)
(APACHE source distribution)
Java Runtime: OpenJDK Runtime Environment
JVM: OpenJDK 64-Bit Server VM
Default Encoding: Cp1252
Language: en
Country: NZ
--></g></svg>