<?xml version="1.0" encoding="UTF-8" standalone="no"?><svg xmlns="http://www.w3.org/2000/svg" xmlns:xlink="http://www.w3.org/1999/xlink" contentScriptType="application/ecmascript" contentStyleType="text/css" height="356px" preserveAspectRatio="none" style="width:250px;height:356px;background:#FFFFFF;" version="1.1" viewBox="0 0 250 356" width="250px" zoomAndPan="magnify"><defs><filter height="300%" id="f1opoeqr96alp4" width="300%" x="-1" y="-1"><feGaussianBlur result="blurOut" stdDeviation="2.0"/><feColorMatrix in="blurOut" result="blurOut2" type="matrix" values="0 0 0 0 0 0 0 0 0 0 0 0 0 0 0 0 0 0 .4 0"/><feOffset dx="4.0" dy="4.0" in="blurOut2" result="blurOut3"/><feBlend in="SourceGraphic" in2="blurOut3" mode="normal"/></filter></defs><g><!--MD5=[8a7daa3f025fa236b1ffbc611c26624f]
class nz.ac.wgtn.swen225.lc.persistency.AutoActor--><a href="AutoActor.html" target="_top" title="AutoActor.html" xlink:actuate="onRequest" xlink:href="AutoActor.html" xlink:show="new" xlink:title="AutoActor.html" xlink:type="simple"><rect codeLine="5" fill="#FEFECE" filter="url(#f1opoeqr96alp4)" height="117.3672" id="nz.ac.wgtn.swen225.lc.persistency.AutoActor" style="stroke:#A80036;stroke-width:1.5;" width="229" x="7" y="107"/><ellipse cx="37.75" cy="127.0938" fill="#ADD1B2" rx="11" ry="11" style="stroke:#A80036;stroke-width:1.0;"/><path d="M40.5156,122.9688 Q40.6719,122.75 40.8594,122.6406 Q41.0469,122.5313 41.2656,122.5313 Q41.6406,122.5313 41.875,122.7969 Q42.1094,123.0469 42.1094,123.6563 L42.1094,125.1094 Q42.1094,125.7188 41.875,125.9844 Q41.6406,126.25 41.2656,126.25 Q40.9219,126.25 40.7188,126.0469 Q40.5156,125.8594 40.4063,125.3438 Q40.3594,124.9844 40.1719,124.7969 Q39.8438,124.4219 39.2344,124.2031 Q38.625,123.9844 38,123.9844 Q37.2344,123.9844 36.5938,124.3125 Q35.9688,124.6406 35.4688,125.3906 Q34.9844,126.1406 34.9844,127.1719 L34.9844,128.2656 Q34.9844,129.5 35.875,130.3281 Q36.7656,131.1406 38.3594,131.1406 Q39.2969,131.1406 39.9531,130.8906 Q40.3438,130.7344 40.7656,130.2969 Q41.0313,130.0313 41.1719,129.9531 Q41.3281,129.875 41.5313,129.875 Q41.8594,129.875 42.1094,130.1406 Q42.375,130.3906 42.375,130.7344 Q42.375,131.0781 42.0313,131.4844 Q41.5313,132.0625 40.7344,132.3906 Q39.6563,132.8438 38.3594,132.8438 Q36.8438,132.8438 35.6406,132.2188 Q34.6563,131.7188 33.9688,130.6563 Q33.2813,129.5781 33.2813,128.2969 L33.2813,127.1406 Q33.2813,125.8125 33.8906,124.6719 Q34.5156,123.5156 35.6094,122.9063 Q36.7031,122.2813 37.9375,122.2813 Q38.6719,122.2813 39.3125,122.4531 Q39.9688,122.6094 40.5156,122.9688 Z " fill="#000000"/><text fill="#000000" font-family="sans-serif" font-size="14" lengthAdjust="spacing" textLength="62" x="105.25" y="126.5332">AutoActor</text><text fill="#000000" font-family="sans-serif" font-size="10" lengthAdjust="spacing" textLength="162" x="55.25" y="139.9902">nz.ac.wgtn.swen225.lc.persistency</text><line style="stroke:#A80036;stroke-width:1.5;" x1="8" x2="235" y1="147.1875" y2="147.1875"/><ellipse cx="18" cy="158.1875" fill="#84BE84" rx="3" ry="3" style="stroke:#038048;stroke-width:1.0;"/><text fill="#000000" font-family="sans-serif" font-size="11" lengthAdjust="spacing" textLength="203" x="27" y="162.6064">AutoActor(int, int, Direction, Instant, Chap)</text><ellipse cx="18" cy="172.0234" fill="#84BE84" rx="3" ry="3" style="stroke:#038048;stroke-width:1.0;"/><text fill="#000000" font-family="sans-serif" font-size="11" lengthAdjust="spacing" textLength="58" x="27" y="176.4424">AutoActor()</text><ellipse cx="18" cy="185.8594" fill="#84BE84" rx="3" ry="3" style="stroke:#038048;stroke-width:1.0;"/><text fill="#000000" font-family="sans-serif" font-size="11" lengthAdjust="spacing" textLength="112" x="27" y="190.2783">move(Tile[]): AutoActor</text><ellipse cx="18" cy="199.6953" fill="#84BE84" rx="3" ry="3" style="stroke:#038048;stroke-width:1.0;"/><text fill="#000000" font-family="sans-serif" font-size="11" lengthAdjust="spacing" textLength="47" x="27" y="204.1143">getX(): int</text><ellipse cx="18" cy="213.5313" fill="#84BE84" rx="3" ry="3" style="stroke:#038048;stroke-width:1.0;"/><text fill="#000000" font-family="sans-serif" font-size="11" lengthAdjust="spacing" textLength="48" x="27" y="217.9502">getY(): int</text></a><!--MD5=[5a5af9b0547913863cbe0ddf55a9ab5e]
class java.io.Serializable--><rect codeLine="13" fill="#FEFECE" filter="url(#f1opoeqr96alp4)" height="40.1875" id="java.io.Serializable" style="stroke:#A80036;stroke-width:1.5;" width="105" x="69" y="7"/><ellipse cx="84" cy="27.0938" fill="#B4A7E5" rx="11" ry="11" style="stroke:#A80036;stroke-width:1.0;"/><path d="M84.9531,23.7344 L84.9531,30.3906 L86.6719,30.3906 Q87.2813,30.3906 87.5469,30.625 Q87.8125,30.8594 87.8125,31.25 Q87.8125,31.625 87.5469,31.8594 Q87.2813,32.0938 86.6719,32.0938 L81.5313,32.0938 Q80.9219,32.0938 80.6563,31.8594 Q80.3906,31.625 80.3906,31.2344 Q80.3906,30.8594 80.6563,30.625 Q80.9219,30.3906 81.5313,30.3906 L83.25,30.3906 L83.25,23.7344 L81.5313,23.7344 Q80.9219,23.7344 80.6563,23.5 Q80.3906,23.2656 80.3906,22.875 Q80.3906,22.5 80.6563,22.2656 Q80.9219,22.0313 81.5313,22.0313 L86.6719,22.0313 Q87.2813,22.0313 87.5469,22.2656 Q87.8125,22.5 87.8125,22.875 Q87.8125,23.2656 87.5469,23.5 Q87.2813,23.7344 86.6719,23.7344 L84.9531,23.7344 Z " fill="#000000"/><text fill="#000000" font-family="sans-serif" font-size="14" font-style="italic" lengthAdjust="spacing" textLength="73" x="98" y="26.5332">Serializable</text><text fill="#000000" font-family="sans-serif" font-size="10" font-style="italic" lengthAdjust="spacing" textLength="31" x="119" y="39.9902">java.io</text><!--MD5=[802bed04ee0ed964813dfc37091afa9c]
class nz.ac.wgtn.swen225.lc.persistency.AutoActor.Direction--><a href="AutoActor.Direction.html" target="_top" title="AutoActor.Direction.html" xlink:actuate="onRequest" xlink:href="AutoActor.Direction.html" xlink:show="new" xlink:title="AutoActor.Direction.html" xlink:type="simple"><rect codeLine="14" fill="#FEFECE" filter="url(#f1opoeqr96alp4)" height="40.1875" id="nz.ac.wgtn.swen225.lc.persistency.AutoActor.Direction" style="stroke:#A80036;stroke-width:1.5;" width="194" x="24.5" y="284"/><ellipse cx="39.5" cy="304.0938" fill="#EB937F" rx="11" ry="11" style="stroke:#A80036;stroke-width:1.0;"/><path d="M38.3594,304.8906 L38.3594,307.3906 L42.6875,307.3906 L42.6875,306.4688 Q42.6875,305.8594 42.9219,305.5938 Q43.1719,305.3281 43.5469,305.3281 Q43.9219,305.3281 44.1563,305.5938 Q44.3906,305.8594 44.3906,306.4688 L44.3906,309.0938 L36.3906,309.0938 Q35.7656,309.0938 35.5,308.8594 Q35.25,308.625 35.25,308.2344 Q35.25,307.8594 35.5156,307.625 Q35.7813,307.3906 36.3906,307.3906 L36.6563,307.3906 L36.6563,300.7344 L36.3906,300.7344 Q35.7656,300.7344 35.5,300.5 Q35.25,300.2656 35.25,299.875 Q35.25,299.5 35.5,299.2656 Q35.7656,299.0313 36.3906,299.0313 L44.0156,299.0313 L44.0156,301.625 Q44.0156,302.2344 43.7813,302.5 Q43.5625,302.75 43.1719,302.75 Q42.7969,302.75 42.5625,302.5 Q42.3281,302.2344 42.3281,301.625 L42.3281,300.7344 L38.3594,300.7344 L38.3594,303.1875 L39.8438,303.1875 Q39.8438,302.5313 39.9688,302.3438 Q40.2344,301.9375 40.7031,301.9375 Q41.0781,301.9375 41.3125,302.2031 Q41.5469,302.4531 41.5469,303.0625 L41.5469,305.0313 Q41.5469,305.5781 41.4219,305.7656 Q41.1563,306.1563 40.7031,306.1563 Q40.2344,306.1563 39.9688,305.75 Q39.8438,305.5625 39.8438,304.8906 L38.3594,304.8906 Z " fill="#000000"/><text fill="#000000" font-family="sans-serif" font-size="14" lengthAdjust="spacing" textLength="122" x="73.5" y="303.5332">AutoActor.Direction</text><text fill="#000000" font-family="sans-serif" font-size="10" lengthAdjust="spacing" textLength="162" x="53.5" y="316.9902">nz.ac.wgtn.swen225.lc.persistency</text></a><!--MD5=[b39875d9a98ecf2dfd53eb1fb1f4c6c0]
reverse link java.io.Serializable to nz.ac.wgtn.swen225.lc.persistency.AutoActor--><path codeLine="16" d="M121.5,67.38 C121.5,79.73 121.5,93.63 121.5,106.97 " fill="none" id="java.io.Serializable-backto-nz.ac.wgtn.swen225.lc.persistency.AutoActor" style="stroke:#A80036;stroke-width:1.0;stroke-dasharray:7.0,7.0;"/><polygon fill="none" points="114.5,67.27,121.5,47.27,128.5,67.27,114.5,67.27" style="stroke:#A80036;stroke-width:1.0;"/><!--MD5=[f81e2b2fb034a3d397378f3930f95abd]
reverse link nz.ac.wgtn.swen225.lc.persistency.AutoActor to nz.ac.wgtn.swen225.lc.persistency.AutoActor.Direction--><path codeLine="17" d="M121.5,239.42 C121.5,255.8 121.5,271.82 121.5,283.68 " fill="none" id="nz.ac.wgtn.swen225.lc.persistency.AutoActor-backto-nz.ac.wgtn.swen225.lc.persistency.AutoActor.Direction" style="stroke:#A80036;stroke-width:1.0;"/><ellipse cx="121.5" cy="232.39" fill="#FFFFFF" rx="8" ry="8" style="stroke:#A80036;stroke-width:1.0;"/><line style="stroke:#A80036;stroke-width:1.0;" x1="121.5" x2="121.5" y1="240.39" y2="224.39"/><line style="stroke:#A80036;stroke-width:1.0;" x1="113.5" x2="129.5" y1="232.39" y2="232.39"/><text fill="#888888" font-family="sans-serif" font-size="10" lengthAdjust="spacing" textLength="184" x="26.5" y="347.5684">UMLDoclet 2.0.14, PlantUML 1.2021.9</text><!--MD5=[4a1700a120b30c1cd458a3b5ce836a98]
@startuml
    set namespaceSeparator none
    hide empty fields
    hide empty methods

    class "<size:14>AutoActor\n<size:10>nz.ac.wgtn.swen225.lc.persistency" as nz.ac.wgtn.swen225.lc.persistency.AutoActor [[AutoActor.html]] {
        +AutoActor(int, int, Direction, Instant, Chap)
        +AutoActor()
        +move(Tile[]): AutoActor
        +getX(): int
        +getY(): int
    }

    interface "<size:14>Serializable\n<size:10>java.io" as java.io.Serializable
    enum "<size:14>AutoActor.Direction\n<size:10>nz.ac.wgtn.swen225.lc.persistency" as nz.ac.wgtn.swen225.lc.persistency.AutoActor.Direction [[AutoActor.Direction.html]]

    java.io.Serializable <|.. nz.ac.wgtn.swen225.lc.persistency.AutoActor
    nz.ac.wgtn.swen225.lc.persistency.AutoActor +- - nz.ac.wgtn.swen225.lc.persistency.AutoActor.Direction

    center footer UMLDoclet 2.0.14, PlantUML 1.2021.9
@enduml

PlantUML version 1.2021.9(Sun Jul 25 17:13:56 ICT 2021)
(APACHE source distribution)
Java Runtime: OpenJDK Runtime Environment
JVM: OpenJDK 64-Bit Server VM
Default Encoding: Cp1252
Language: en
Country: NZ
--></g></svg>