<?xml version="1.0" encoding="UTF-8" standalone="no"?><svg xmlns="http://www.w3.org/2000/svg" xmlns:xlink="http://www.w3.org/1999/xlink" contentStyleType="text/css" height="368px" preserveAspectRatio="none" style="width:306px;height:368px;background:#FFFFFF;" version="1.1" viewBox="0 0 306 368" width="306px" zoomAndPan="magnify"><defs/><g><!--class nz.ac.wgtn.swen225.lc.persistency.AutoActor--><a href="AutoActor.html" target="_top" title="AutoActor.html" xlink:actuate="onRequest" xlink:href="AutoActor.html" xlink:show="new" xlink:title="AutoActor.html" xlink:type="simple"><g id="elem_nz.ac.wgtn.swen225.lc.persistency.AutoActor"><rect codeLine="5" fill="#F1F1F1" height="136.2344" id="nz.ac.wgtn.swen225.lc.persistency.AutoActor" rx="2.5" ry="2.5" style="stroke:#181818;stroke-width:0.5;" width="292" x="7" y="107"/><ellipse cx="67.75" cy="127.0938" fill="#ADD1B2" rx="11" ry="11" style="stroke:#181818;stroke-width:1.0;"/><path d="M70.5156,122.9688 Q70.6719,122.75 70.8594,122.6406 Q71.0469,122.5313 71.2656,122.5313 Q71.6406,122.5313 71.875,122.7969 Q72.1094,123.0469 72.1094,123.6563 L72.1094,125.1094 Q72.1094,125.7188 71.875,125.9844 Q71.6406,126.25 71.2656,126.25 Q70.9219,126.25 70.7188,126.0469 Q70.5156,125.8594 70.4063,125.3438 Q70.3594,124.9844 70.1719,124.7969 Q69.8438,124.4219 69.2344,124.2031 Q68.625,123.9844 68,123.9844 Q67.2344,123.9844 66.5938,124.3125 Q65.9688,124.6406 65.4688,125.3906 Q64.9844,126.1406 64.9844,127.1719 L64.9844,128.2656 Q64.9844,129.5 65.875,130.3281 Q66.7656,131.1406 68.3594,131.1406 Q69.2969,131.1406 69.9531,130.8906 Q70.3438,130.7344 70.7656,130.2969 Q71.0313,130.0313 71.1719,129.9531 Q71.3281,129.875 71.5313,129.875 Q71.8594,129.875 72.1094,130.1406 Q72.375,130.3906 72.375,130.7344 Q72.375,131.0781 72.0313,131.4844 Q71.5313,132.0625 70.7344,132.3906 Q69.6563,132.8438 68.3594,132.8438 Q66.8438,132.8438 65.6406,132.2188 Q64.6563,131.7188 63.9688,130.6563 Q63.2813,129.5781 63.2813,128.2969 L63.2813,127.1406 Q63.2813,125.8125 63.8906,124.6719 Q64.5156,123.5156 65.6094,122.9063 Q66.7031,122.2813 67.9375,122.2813 Q68.6719,122.2813 69.3125,122.4531 Q69.9688,122.6094 70.5156,122.9688 Z " fill="#000000"/><text fill="#000000" font-family="sans-serif" font-size="14" lengthAdjust="spacing" textLength="62" x="138.25" y="126.5332">AutoActor</text><text fill="#000000" font-family="sans-serif" font-size="10" lengthAdjust="spacing" textLength="162" x="88.25" y="139.9902">nz.ac.wgtn.swen225.lc.persistency</text><line style="stroke:#181818;stroke-width:0.5;" x1="8" x2="298" y1="147.1875" y2="147.1875"/><ellipse cx="18" cy="161.4922" fill="#84BE84" rx="3" ry="3" style="stroke:#038048;stroke-width:1.0;"/><text fill="#000000" font-family="sans-serif" font-size="14" lengthAdjust="spacing" textLength="266" x="27" y="165.7207">AutoActor(int, int, Direction, Instant, Chap)</text><ellipse cx="18" cy="179.1016" fill="#84BE84" rx="3" ry="3" style="stroke:#038048;stroke-width:1.0;"/><text fill="#000000" font-family="sans-serif" font-size="14" lengthAdjust="spacing" textLength="72" x="27" y="183.3301">AutoActor()</text><ellipse cx="18" cy="196.7109" fill="#84BE84" rx="3" ry="3" style="stroke:#038048;stroke-width:1.0;"/><text fill="#000000" font-family="sans-serif" font-size="14" lengthAdjust="spacing" textLength="145" x="27" y="200.9395">move(Tile[]): AutoActor</text><ellipse cx="18" cy="214.3203" fill="#84BE84" rx="3" ry="3" style="stroke:#038048;stroke-width:1.0;"/><text fill="#000000" font-family="sans-serif" font-size="14" lengthAdjust="spacing" textLength="61" x="27" y="218.5488">getX(): int</text><ellipse cx="18" cy="231.9297" fill="#84BE84" rx="3" ry="3" style="stroke:#038048;stroke-width:1.0;"/><text fill="#000000" font-family="sans-serif" font-size="14" lengthAdjust="spacing" textLength="62" x="27" y="236.1582">getY(): int</text></g></a><!--class java.io.Serializable--><g id="elem_java.io.Serializable"><rect codeLine="13" fill="#F1F1F1" height="40.1875" id="java.io.Serializable" rx="2.5" ry="2.5" style="stroke:#181818;stroke-width:0.5;" width="105" x="100.5" y="7"/><ellipse cx="115.5" cy="27.0938" fill="#B4A7E5" rx="11" ry="11" style="stroke:#181818;stroke-width:1.0;"/><path d="M116.4531,23.7344 L116.4531,30.3906 L118.1719,30.3906 Q118.7813,30.3906 119.0469,30.625 Q119.3125,30.8594 119.3125,31.25 Q119.3125,31.625 119.0469,31.8594 Q118.7813,32.0938 118.1719,32.0938 L113.0313,32.0938 Q112.4219,32.0938 112.1563,31.8594 Q111.8906,31.625 111.8906,31.2344 Q111.8906,30.8594 112.1563,30.625 Q112.4219,30.3906 113.0313,30.3906 L114.75,30.3906 L114.75,23.7344 L113.0313,23.7344 Q112.4219,23.7344 112.1563,23.5 Q111.8906,23.2656 111.8906,22.875 Q111.8906,22.5 112.1563,22.2656 Q112.4219,22.0313 113.0313,22.0313 L118.1719,22.0313 Q118.7813,22.0313 119.0469,22.2656 Q119.3125,22.5 119.3125,22.875 Q119.3125,23.2656 119.0469,23.5 Q118.7813,23.7344 118.1719,23.7344 L116.4531,23.7344 Z " fill="#000000"/><text fill="#000000" font-family="sans-serif" font-size="14" font-style="italic" lengthAdjust="spacing" textLength="73" x="129.5" y="26.5332">Serializable</text><text fill="#000000" font-family="sans-serif" font-size="10" font-style="italic" lengthAdjust="spacing" textLength="31" x="150.5" y="39.9902">java.io</text></g><!--class nz.ac.wgtn.swen225.lc.persistency.AutoActor.Direction--><a href="AutoActor.Direction.html" target="_top" title="AutoActor.Direction.html" xlink:actuate="onRequest" xlink:href="AutoActor.Direction.html" xlink:show="new" xlink:title="AutoActor.Direction.html" xlink:type="simple"><g id="elem_nz.ac.wgtn.swen225.lc.persistency.AutoActor.Direction"><rect codeLine="14" fill="#F1F1F1" height="40.1875" id="nz.ac.wgtn.swen225.lc.persistency.AutoActor.Direction" rx="2.5" ry="2.5" style="stroke:#181818;stroke-width:0.5;" width="194" x="56" y="303"/><ellipse cx="71" cy="323.0938" fill="#EB937F" rx="11" ry="11" style="stroke:#181818;stroke-width:1.0;"/><path d="M69.8594,323.8906 L69.8594,326.3906 L74.1875,326.3906 L74.1875,325.4688 Q74.1875,324.8594 74.4219,324.5938 Q74.6719,324.3281 75.0469,324.3281 Q75.4219,324.3281 75.6563,324.5938 Q75.8906,324.8594 75.8906,325.4688 L75.8906,328.0938 L67.8906,328.0938 Q67.2656,328.0938 67,327.8594 Q66.75,327.625 66.75,327.2344 Q66.75,326.8594 67.0156,326.625 Q67.2813,326.3906 67.8906,326.3906 L68.1563,326.3906 L68.1563,319.7344 L67.8906,319.7344 Q67.2656,319.7344 67,319.5 Q66.75,319.2656 66.75,318.875 Q66.75,318.5 67,318.2656 Q67.2656,318.0313 67.8906,318.0313 L75.5156,318.0313 L75.5156,320.625 Q75.5156,321.2344 75.2813,321.5 Q75.0625,321.75 74.6719,321.75 Q74.2969,321.75 74.0625,321.5 Q73.8281,321.2344 73.8281,320.625 L73.8281,319.7344 L69.8594,319.7344 L69.8594,322.1875 L71.3438,322.1875 Q71.3438,321.5313 71.4688,321.3438 Q71.7344,320.9375 72.2031,320.9375 Q72.5781,320.9375 72.8125,321.2031 Q73.0469,321.4531 73.0469,322.0625 L73.0469,324.0313 Q73.0469,324.5781 72.9219,324.7656 Q72.6563,325.1563 72.2031,325.1563 Q71.7344,325.1563 71.4688,324.75 Q71.3438,324.5625 71.3438,323.8906 L69.8594,323.8906 Z " fill="#000000"/><text fill="#000000" font-family="sans-serif" font-size="14" lengthAdjust="spacing" textLength="122" x="105" y="322.5332">AutoActor.Direction</text><text fill="#000000" font-family="sans-serif" font-size="10" lengthAdjust="spacing" textLength="162" x="85" y="335.9902">nz.ac.wgtn.swen225.lc.persistency</text></g></a><!--reverse link java.io.Serializable to nz.ac.wgtn.swen225.lc.persistency.AutoActor--><g id="link_java.io.Serializable_nz.ac.wgtn.swen225.lc.persistency.AutoActor"><path codeLine="16" d="M153,67.48 C153,79.66 153,93.44 153,106.95 " fill="none" id="java.io.Serializable-backto-nz.ac.wgtn.swen225.lc.persistency.AutoActor" style="stroke:#181818;stroke-width:1.0;stroke-dasharray:7.0,7.0;"/><polygon fill="none" points="146,67.09,153,47.09,160,67.09,146,67.09" style="stroke:#181818;stroke-width:1.0;"/></g><!--reverse link nz.ac.wgtn.swen225.lc.persistency.AutoActor to nz.ac.wgtn.swen225.lc.persistency.AutoActor.Direction--><g id="link_nz.ac.wgtn.swen225.lc.persistency.AutoActor_nz.ac.wgtn.swen225.lc.persistency.AutoActor.Direction"><path codeLine="17" d="M153,258.17 C153,274.95 153,291.07 153,302.91 " fill="none" id="nz.ac.wgtn.swen225.lc.persistency.AutoActor-backto-nz.ac.wgtn.swen225.lc.persistency.AutoActor.Direction" style="stroke:#181818;stroke-width:1.0;"/><ellipse cx="153" cy="251.02" fill="#FFFFFF" rx="8" ry="8" style="stroke:#181818;stroke-width:1.0;"/><line style="stroke:#181818;stroke-width:1.0;" x1="153" x2="153" y1="259.02" y2="243.02"/><line style="stroke:#181818;stroke-width:1.0;" x1="145" x2="161" y1="251.02" y2="251.02"/></g><text fill="#888888" font-family="sans-serif" font-size="10" lengthAdjust="spacing" textLength="184" x="54" y="358.5684">UMLDoclet 2.1.0, PlantUML 1.2022.14</text><!--SRC=[jPDHQy8m4CVVzoaEOT2Y7YhRYuWWysMmmS0DDfmFjtZQZ3GfJLJijk- -j9PQHs4uM1_Iz7VNkzp_BW00bXreYjac97Z62QNaJ0hQQBxmPeZaae7ZnErX9LajxKyQiukCnmKNYgo5riZAZ8Vzg_5auyn4-82lkcIziSwG1ExMJgFTiHuChb49J3YrqZhMOjy2il2h5rQnOJwlzXYvM2qMy54S9t_QbIsGsdMWMAOoPU6aqHsurTPHpcuYIiActsemDbiE7gNY-I8SGkLoT5YpUmwyoMSvWIzr-7KGotzoklAormIRSIf9oOpU5DSqUwSjeJI5CkKUwwv5FDQRk4bxhAhzpouSivpqew9bPmwbDzK0eq_4Sp8MaSwPatQt-xUAok7cl66mCYP_FTtVJOrG_leCi8-z3ZmeFqQUmkKsZsPq47u3]--></g></svg>