<?xml version="1.0" encoding="UTF-8" standalone="no"?><svg xmlns="http://www.w3.org/2000/svg" xmlns:xlink="http://www.w3.org/1999/xlink" contentStyleType="text/css" height="965px" preserveAspectRatio="none" style="width:1195px;height:965px;background:#FFFFFF;" version="1.1" viewBox="0 0 1195 965" width="1195px" zoomAndPan="magnify"><defs/><g><!--cluster nz.ac.wgtn.swen225.lc.persistency--><g id="cluster_nz.ac.wgtn.swen225.lc.persistency"><path d="M8.5,6 L250.5,6 A3.75,3.75 0 0 1 253,8.5 L260,29.6094 L1023.5,29.6094 A2.5,2.5 0 0 1 1026,32.1094 L1026,936.5 A2.5,2.5 0 0 1 1023.5,939 L8.5,939 A2.5,2.5 0 0 1 6,936.5 L6,8.5 A2.5,2.5 0 0 1 8.5,6 " fill="none" style="stroke:#000000;stroke-width:1.5;"/><line style="stroke:#000000;stroke-width:1.5;" x1="6" x2="260" y1="29.6094" y2="29.6094"/><text fill="#000000" font-family="sans-serif" font-size="14" font-weight="bold" lengthAdjust="spacing" textLength="241" x="10" y="22.5332">nz.ac.wgtn.swen225.lc.persistency</text></g><!--cluster java.io--><g id="cluster_java.io"><path d="M1052.5,226 L1099.5,226 A3.75,3.75 0 0 1 1102,228.5 L1109,249.6094 L1185.5,249.6094 A2.5,2.5 0 0 1 1188,252.1094 L1188,323.5 A2.5,2.5 0 0 1 1185.5,326 L1052.5,326 A2.5,2.5 0 0 1 1050,323.5 L1050,228.5 A2.5,2.5 0 0 1 1052.5,226 " fill="none" style="stroke:#000000;stroke-width:1.5;"/><line style="stroke:#000000;stroke-width:1.5;" x1="1050" x2="1109" y1="249.6094" y2="249.6094"/><text fill="#000000" font-family="sans-serif" font-size="14" font-weight="bold" lengthAdjust="spacing" textLength="46" x="1054" y="242.5332">java.io</text></g><!--class nz.ac.wgtn.swen225.lc.persistency.AutoActor--><a href="AutoActor.html" target="_top" title="AutoActor.html" xlink:actuate="onRequest" xlink:href="AutoActor.html" xlink:show="new" xlink:title="AutoActor.html" xlink:type="simple"><g id="elem_nz.ac.wgtn.swen225.lc.persistency.AutoActor"><rect codeLine="3" fill="#F1F1F1" height="136.0469" id="nz.ac.wgtn.swen225.lc.persistency.AutoActor" rx="2.5" ry="2.5" style="stroke:#181818;stroke-width:0.5;" width="292" x="686" y="608"/><ellipse cx="796.75" cy="624" fill="#ADD1B2" rx="11" ry="11" style="stroke:#181818;stroke-width:1.0;"/><path d="M799.5156,619.875 Q799.6719,619.6563 799.8594,619.5469 Q800.0469,619.4375 800.2656,619.4375 Q800.6406,619.4375 800.875,619.7031 Q801.1094,619.9531 801.1094,620.5625 L801.1094,622.0156 Q801.1094,622.625 800.875,622.8906 Q800.6406,623.1563 800.2656,623.1563 Q799.9219,623.1563 799.7188,622.9531 Q799.5156,622.7656 799.4063,622.25 Q799.3594,621.8906 799.1719,621.7031 Q798.8438,621.3281 798.2344,621.1094 Q797.625,620.8906 797,620.8906 Q796.2344,620.8906 795.5938,621.2188 Q794.9688,621.5469 794.4688,622.2969 Q793.9844,623.0469 793.9844,624.0781 L793.9844,625.1719 Q793.9844,626.4063 794.875,627.2344 Q795.7656,628.0469 797.3594,628.0469 Q798.2969,628.0469 798.9531,627.7969 Q799.3438,627.6406 799.7656,627.2031 Q800.0313,626.9375 800.1719,626.8594 Q800.3281,626.7813 800.5313,626.7813 Q800.8594,626.7813 801.1094,627.0469 Q801.375,627.2969 801.375,627.6406 Q801.375,627.9844 801.0313,628.3906 Q800.5313,628.9688 799.7344,629.2969 Q798.6563,629.75 797.3594,629.75 Q795.8438,629.75 794.6406,629.125 Q793.6563,628.625 792.9688,627.5625 Q792.2813,626.4844 792.2813,625.2031 L792.2813,624.0469 Q792.2813,622.7188 792.8906,621.5781 Q793.5156,620.4219 794.6094,619.8125 Q795.7031,619.1875 796.9375,619.1875 Q797.6719,619.1875 798.3125,619.3594 Q798.9688,619.5156 799.5156,619.875 Z " fill="#000000"/><text fill="#000000" font-family="sans-serif" font-size="14" lengthAdjust="spacing" textLength="62" x="817.25" y="629.7285">AutoActor</text><line style="stroke:#181818;stroke-width:0.5;" x1="687" x2="977" y1="640" y2="640"/><line style="stroke:#181818;stroke-width:0.5;" x1="687" x2="977" y1="648" y2="648"/><ellipse cx="697" cy="662.3047" fill="#84BE84" rx="3" ry="3" style="stroke:#038048;stroke-width:1.0;"/><text fill="#000000" font-family="sans-serif" font-size="14" lengthAdjust="spacing" textLength="266" x="706" y="666.5332">AutoActor(int, int, Direction, Instant, Chap)</text><ellipse cx="697" cy="679.9141" fill="#84BE84" rx="3" ry="3" style="stroke:#038048;stroke-width:1.0;"/><text fill="#000000" font-family="sans-serif" font-size="14" lengthAdjust="spacing" textLength="72" x="706" y="684.1426">AutoActor()</text><ellipse cx="697" cy="697.5234" fill="#84BE84" rx="3" ry="3" style="stroke:#038048;stroke-width:1.0;"/><text fill="#000000" font-family="sans-serif" font-size="14" lengthAdjust="spacing" textLength="145" x="706" y="701.752">move(Tile[]): AutoActor</text><ellipse cx="697" cy="715.1328" fill="#84BE84" rx="3" ry="3" style="stroke:#038048;stroke-width:1.0;"/><text fill="#000000" font-family="sans-serif" font-size="14" lengthAdjust="spacing" textLength="61" x="706" y="719.3613">getX(): int</text><ellipse cx="697" cy="732.7422" fill="#84BE84" rx="3" ry="3" style="stroke:#038048;stroke-width:1.0;"/><text fill="#000000" font-family="sans-serif" font-size="14" lengthAdjust="spacing" textLength="62" x="706" y="736.9707">getY(): int</text></g></a><!--class nz.ac.wgtn.swen225.lc.persistency.AutoActor.Direction--><a href="AutoActor.Direction.html" target="_top" title="AutoActor.Direction.html" xlink:actuate="onRequest" xlink:href="AutoActor.Direction.html" xlink:show="new" xlink:title="AutoActor.Direction.html" xlink:type="simple"><g id="elem_nz.ac.wgtn.swen225.lc.persistency.AutoActor.Direction"><rect codeLine="11" fill="#F1F1F1" height="118.4375" id="nz.ac.wgtn.swen225.lc.persistency.AutoActor.Direction" rx="2.5" ry="2.5" style="stroke:#181818;stroke-width:0.5;" width="154" x="755" y="805"/><ellipse cx="770" cy="821" fill="#EB937F" rx="11" ry="11" style="stroke:#181818;stroke-width:1.0;"/><path d="M768.8594,821.7969 L768.8594,824.2969 L773.1875,824.2969 L773.1875,823.375 Q773.1875,822.7656 773.4219,822.5 Q773.6719,822.2344 774.0469,822.2344 Q774.4219,822.2344 774.6563,822.5 Q774.8906,822.7656 774.8906,823.375 L774.8906,826 L766.8906,826 Q766.2656,826 766,825.7656 Q765.75,825.5313 765.75,825.1406 Q765.75,824.7656 766.0156,824.5313 Q766.2813,824.2969 766.8906,824.2969 L767.1563,824.2969 L767.1563,817.6406 L766.8906,817.6406 Q766.2656,817.6406 766,817.4063 Q765.75,817.1719 765.75,816.7813 Q765.75,816.4063 766,816.1719 Q766.2656,815.9375 766.8906,815.9375 L774.5156,815.9375 L774.5156,818.5313 Q774.5156,819.1406 774.2813,819.4063 Q774.0625,819.6563 773.6719,819.6563 Q773.2969,819.6563 773.0625,819.4063 Q772.8281,819.1406 772.8281,818.5313 L772.8281,817.6406 L768.8594,817.6406 L768.8594,820.0938 L770.3438,820.0938 Q770.3438,819.4375 770.4688,819.25 Q770.7344,818.8438 771.2031,818.8438 Q771.5781,818.8438 771.8125,819.1094 Q772.0469,819.3594 772.0469,819.9688 L772.0469,821.9375 Q772.0469,822.4844 771.9219,822.6719 Q771.6563,823.0625 771.2031,823.0625 Q770.7344,823.0625 770.4688,822.6563 Q770.3438,822.4688 770.3438,821.7969 L768.8594,821.7969 Z " fill="#000000"/><text fill="#000000" font-family="sans-serif" font-size="14" lengthAdjust="spacing" textLength="122" x="784" y="826.7285">AutoActor.Direction</text><line style="stroke:#181818;stroke-width:0.5;" x1="756" x2="908" y1="837" y2="837"/><ellipse cx="766" cy="851.3047" fill="none" rx="3" ry="3" style="stroke:#038048;stroke-width:1.0;"/><text fill="#000000" font-family="sans-serif" font-size="14" lengthAdjust="spacing" text-decoration="underline" textLength="18" x="775" y="855.5332">UP</text><ellipse cx="766" cy="868.9141" fill="none" rx="3" ry="3" style="stroke:#038048;stroke-width:1.0;"/><text fill="#000000" font-family="sans-serif" font-size="14" lengthAdjust="spacing" text-decoration="underline" textLength="43" x="775" y="873.1426">DOWN</text><ellipse cx="766" cy="886.5234" fill="none" rx="3" ry="3" style="stroke:#038048;stroke-width:1.0;"/><text fill="#000000" font-family="sans-serif" font-size="14" lengthAdjust="spacing" text-decoration="underline" textLength="35" x="775" y="890.752">LEFT</text><ellipse cx="766" cy="904.1328" fill="none" rx="3" ry="3" style="stroke:#038048;stroke-width:1.0;"/><text fill="#000000" font-family="sans-serif" font-size="14" lengthAdjust="spacing" text-decoration="underline" textLength="42" x="775" y="908.3613">RIGHT</text><line style="stroke:#181818;stroke-width:0.5;" x1="756" x2="908" y1="915.4375" y2="915.4375"/></g></a><!--class nz.ac.wgtn.swen225.lc.persistency.Persistency--><a href="Persistency.html" target="_top" title="Persistency.html" xlink:actuate="onRequest" xlink:href="Persistency.html" xlink:show="new" xlink:title="Persistency.html" xlink:type="simple"><g id="elem_nz.ac.wgtn.swen225.lc.persistency.Persistency"><rect codeLine="18" fill="#F1F1F1" height="488.2344" id="nz.ac.wgtn.swen225.lc.persistency.Persistency" rx="2.5" ry="2.5" style="stroke:#181818;stroke-width:0.5;" width="542" x="468" y="42"/><ellipse cx="698.25" cy="58" fill="#ADD1B2" rx="11" ry="11" style="stroke:#181818;stroke-width:1.0;"/><path d="M701.0156,53.875 Q701.1719,53.6563 701.3594,53.5469 Q701.5469,53.4375 701.7656,53.4375 Q702.1406,53.4375 702.375,53.7031 Q702.6094,53.9531 702.6094,54.5625 L702.6094,56.0156 Q702.6094,56.625 702.375,56.8906 Q702.1406,57.1563 701.7656,57.1563 Q701.4219,57.1563 701.2188,56.9531 Q701.0156,56.7656 700.9063,56.25 Q700.8594,55.8906 700.6719,55.7031 Q700.3438,55.3281 699.7344,55.1094 Q699.125,54.8906 698.5,54.8906 Q697.7344,54.8906 697.0938,55.2188 Q696.4688,55.5469 695.9688,56.2969 Q695.4844,57.0469 695.4844,58.0781 L695.4844,59.1719 Q695.4844,60.4063 696.375,61.2344 Q697.2656,62.0469 698.8594,62.0469 Q699.7969,62.0469 700.4531,61.7969 Q700.8438,61.6406 701.2656,61.2031 Q701.5313,60.9375 701.6719,60.8594 Q701.8281,60.7813 702.0313,60.7813 Q702.3594,60.7813 702.6094,61.0469 Q702.875,61.2969 702.875,61.6406 Q702.875,61.9844 702.5313,62.3906 Q702.0313,62.9688 701.2344,63.2969 Q700.1563,63.75 698.8594,63.75 Q697.3438,63.75 696.1406,63.125 Q695.1563,62.625 694.4688,61.5625 Q693.7813,60.4844 693.7813,59.2031 L693.7813,58.0469 Q693.7813,56.7188 694.3906,55.5781 Q695.0156,54.4219 696.1094,53.8125 Q697.2031,53.1875 698.4375,53.1875 Q699.1719,53.1875 699.8125,53.3594 Q700.4688,53.5156 701.0156,53.875 Z " fill="#000000"/><text fill="#000000" font-family="sans-serif" font-size="14" lengthAdjust="spacing" textLength="73" x="718.75" y="63.7285">Persistency</text><line style="stroke:#181818;stroke-width:0.5;" x1="469" x2="1009" y1="74" y2="74"/><ellipse cx="479" cy="88.3047" fill="none" rx="3" ry="3" style="stroke:#038048;stroke-width:1.0;"/><text fill="#000000" font-family="sans-serif" font-size="14" lengthAdjust="spacing" textLength="203" x="488" y="92.5332">originalBoardTreasureCount: int</text><ellipse cx="479" cy="105.9141" fill="none" rx="3" ry="3" style="stroke:#038048;stroke-width:1.0;"/><text fill="#000000" font-family="sans-serif" font-size="14" lengthAdjust="spacing" text-decoration="underline" textLength="68" x="488" y="110.1426">level1: File</text><ellipse cx="479" cy="123.5234" fill="none" rx="3" ry="3" style="stroke:#038048;stroke-width:1.0;"/><text fill="#000000" font-family="sans-serif" font-size="14" lengthAdjust="spacing" text-decoration="underline" textLength="68" x="488" y="127.752">level2: File</text><ellipse cx="479" cy="141.1328" fill="none" rx="3" ry="3" style="stroke:#038048;stroke-width:1.0;"/><text fill="#000000" font-family="sans-serif" font-size="14" lengthAdjust="spacing" textLength="141" x="488" y="145.3613">actions: Stack&lt;String&gt;</text><ellipse cx="479" cy="158.7422" fill="none" rx="3" ry="3" style="stroke:#038048;stroke-width:1.0;"/><text fill="#000000" font-family="sans-serif" font-size="14" lengthAdjust="spacing" textLength="70" x="488" y="162.9707">playerX: int</text><ellipse cx="479" cy="176.3516" fill="none" rx="3" ry="3" style="stroke:#038048;stroke-width:1.0;"/><text fill="#000000" font-family="sans-serif" font-size="14" lengthAdjust="spacing" textLength="71" x="488" y="180.5801">playerY: int</text><ellipse cx="479" cy="193.9609" fill="none" rx="3" ry="3" style="stroke:#038048;stroke-width:1.0;"/><text fill="#000000" font-family="sans-serif" font-size="14" lengthAdjust="spacing" textLength="158" x="488" y="198.1895">playerTreasureCount: int</text><ellipse cx="479" cy="211.5703" fill="none" rx="3" ry="3" style="stroke:#038048;stroke-width:1.0;"/><text fill="#000000" font-family="sans-serif" font-size="14" lengthAdjust="spacing" textLength="156" x="488" y="215.7988">boardTreasureCount: int</text><ellipse cx="479" cy="229.1797" fill="none" rx="3" ry="3" style="stroke:#038048;stroke-width:1.0;"/><text fill="#000000" font-family="sans-serif" font-size="14" lengthAdjust="spacing" textLength="73" x="488" y="233.4082">timeLeft: int</text><ellipse cx="479" cy="246.7891" fill="none" rx="3" ry="3" style="stroke:#038048;stroke-width:1.0;"/><text fill="#000000" font-family="sans-serif" font-size="14" lengthAdjust="spacing" textLength="52" x="488" y="251.0176">level: int</text><ellipse cx="479" cy="264.3984" fill="none" rx="3" ry="3" style="stroke:#038048;stroke-width:1.0;"/><text fill="#000000" font-family="sans-serif" font-size="14" lengthAdjust="spacing" textLength="102" x="488" y="268.627">message: String</text><ellipse cx="479" cy="282.0078" fill="none" rx="3" ry="3" style="stroke:#038048;stroke-width:1.0;"/><text fill="#000000" font-family="sans-serif" font-size="14" lengthAdjust="spacing" textLength="148" x="488" y="286.2363">newFileNumToSave: int</text><ellipse cx="479" cy="299.6172" fill="none" rx="3" ry="3" style="stroke:#038048;stroke-width:1.0;"/><text fill="#000000" font-family="sans-serif" font-size="14" lengthAdjust="spacing" textLength="208" x="488" y="303.8457">actionsToSave: ArrayList&lt;Move&gt;</text><ellipse cx="479" cy="317.2266" fill="none" rx="3" ry="3" style="stroke:#038048;stroke-width:1.0;"/><text fill="#000000" font-family="sans-serif" font-size="14" lengthAdjust="spacing" textLength="119" x="488" y="321.4551">playerXToSave: int</text><ellipse cx="479" cy="334.8359" fill="none" rx="3" ry="3" style="stroke:#038048;stroke-width:1.0;"/><text fill="#000000" font-family="sans-serif" font-size="14" lengthAdjust="spacing" textLength="120" x="488" y="339.0645">playerYToSave: int</text><ellipse cx="479" cy="352.4453" fill="none" rx="3" ry="3" style="stroke:#038048;stroke-width:1.0;"/><text fill="#000000" font-family="sans-serif" font-size="14" lengthAdjust="spacing" textLength="207" x="488" y="356.6738">playerTreasureCountToSave: int</text><ellipse cx="479" cy="370.0547" fill="none" rx="3" ry="3" style="stroke:#038048;stroke-width:1.0;"/><text fill="#000000" font-family="sans-serif" font-size="14" lengthAdjust="spacing" textLength="205" x="488" y="374.2832">boardTreasureCountToSave: int</text><ellipse cx="479" cy="387.6641" fill="none" rx="3" ry="3" style="stroke:#038048;stroke-width:1.0;"/><text fill="#000000" font-family="sans-serif" font-size="14" lengthAdjust="spacing" textLength="101" x="488" y="391.8926">levelToSave: int</text><ellipse cx="479" cy="405.2734" fill="none" rx="3" ry="3" style="stroke:#038048;stroke-width:1.0;"/><text fill="#000000" font-family="sans-serif" font-size="14" lengthAdjust="spacing" textLength="122" x="488" y="409.502">timeLeftToSave: int</text><line style="stroke:#181818;stroke-width:0.5;" x1="469" x2="1009" y1="416.5781" y2="416.5781"/><ellipse cx="479" cy="430.8828" fill="#84BE84" rx="3" ry="3" style="stroke:#038048;stroke-width:1.0;"/><text fill="#000000" font-family="sans-serif" font-size="14" lengthAdjust="spacing" textLength="108" x="488" y="435.1113">Persistency(App)</text><ellipse cx="479" cy="448.4922" fill="#84BE84" rx="3" ry="3" style="stroke:#038048;stroke-width:1.0;"/><text fill="#000000" font-family="sans-serif" font-size="14" lengthAdjust="spacing" textLength="83" x="488" y="452.7207">Persistency()</text><ellipse cx="479" cy="466.1016" fill="#84BE84" rx="3" ry="3" style="stroke:#038048;stroke-width:1.0;"/><text fill="#000000" font-family="sans-serif" font-size="14" lengthAdjust="spacing" textLength="137" x="488" y="470.3301">loadGame(File): Tile[]</text><ellipse cx="479" cy="483.7109" fill="#84BE84" rx="3" ry="3" style="stroke:#038048;stroke-width:1.0;"/><text fill="#000000" font-family="sans-serif" font-size="14" lengthAdjust="spacing" textLength="516" x="488" y="487.9395">setSaveParameters(int, ArrayList&lt;Move&gt;, int, int, int, int, int, int, Tile[], Chap): void</text><ellipse cx="479" cy="501.3203" fill="#84BE84" rx="3" ry="3" style="stroke:#038048;stroke-width:1.0;"/><text fill="#000000" font-family="sans-serif" font-size="14" lengthAdjust="spacing" textLength="149" x="488" y="505.5488">saveGame(String): void</text><ellipse cx="479" cy="518.9297" fill="#84BE84" rx="3" ry="3" style="stroke:#038048;stroke-width:1.0;"/><text fill="#000000" font-family="sans-serif" font-size="14" lengthAdjust="spacing" textLength="129" x="488" y="523.1582">resumeGame(): void</text></g></a><!--class nz.ac.wgtn.swen225.lc.persistency.PersistencyTest--><a href="PersistencyTest.html" target="_top" title="PersistencyTest.html" xlink:actuate="onRequest" xlink:href="PersistencyTest.html" xlink:show="new" xlink:title="PersistencyTest.html" xlink:type="simple"><g id="elem_nz.ac.wgtn.swen225.lc.persistency.PersistencyTest"><rect codeLine="46" fill="#F1F1F1" height="136.0469" id="nz.ac.wgtn.swen225.lc.persistency.PersistencyTest" rx="2.5" ry="2.5" style="stroke:#181818;stroke-width:0.5;" width="194" x="239" y="218"/><ellipse cx="281.45" cy="234" fill="#ADD1B2" rx="11" ry="11" style="stroke:#181818;stroke-width:1.0;"/><path d="M284.2156,229.875 Q284.3719,229.6563 284.5594,229.5469 Q284.7469,229.4375 284.9656,229.4375 Q285.3406,229.4375 285.575,229.7031 Q285.8094,229.9531 285.8094,230.5625 L285.8094,232.0156 Q285.8094,232.625 285.575,232.8906 Q285.3406,233.1563 284.9656,233.1563 Q284.6219,233.1563 284.4188,232.9531 Q284.2156,232.7656 284.1063,232.25 Q284.0594,231.8906 283.8719,231.7031 Q283.5438,231.3281 282.9344,231.1094 Q282.325,230.8906 281.7,230.8906 Q280.9344,230.8906 280.2938,231.2188 Q279.6688,231.5469 279.1688,232.2969 Q278.6844,233.0469 278.6844,234.0781 L278.6844,235.1719 Q278.6844,236.4063 279.575,237.2344 Q280.4656,238.0469 282.0594,238.0469 Q282.9969,238.0469 283.6531,237.7969 Q284.0438,237.6406 284.4656,237.2031 Q284.7313,236.9375 284.8719,236.8594 Q285.0281,236.7813 285.2313,236.7813 Q285.5594,236.7813 285.8094,237.0469 Q286.075,237.2969 286.075,237.6406 Q286.075,237.9844 285.7313,238.3906 Q285.2313,238.9688 284.4344,239.2969 Q283.3563,239.75 282.0594,239.75 Q280.5438,239.75 279.3406,239.125 Q278.3563,238.625 277.6688,237.5625 Q276.9813,236.4844 276.9813,235.2031 L276.9813,234.0469 Q276.9813,232.7188 277.5906,231.5781 Q278.2156,230.4219 279.3094,229.8125 Q280.4031,229.1875 281.6375,229.1875 Q282.3719,229.1875 283.0125,229.3594 Q283.6688,229.5156 284.2156,229.875 Z " fill="#000000"/><text fill="#000000" font-family="sans-serif" font-size="14" lengthAdjust="spacing" textLength="101" x="301.55" y="239.7285">PersistencyTest</text><line style="stroke:#181818;stroke-width:0.5;" x1="240" x2="432" y1="250" y2="250"/><line style="stroke:#181818;stroke-width:0.5;" x1="240" x2="432" y1="258" y2="258"/><ellipse cx="250" cy="272.3047" fill="#84BE84" rx="3" ry="3" style="stroke:#038048;stroke-width:1.0;"/><text fill="#000000" font-family="sans-serif" font-size="14" lengthAdjust="spacing" textLength="160" x="259" y="276.5332">testLoadLevelOne(): void</text><ellipse cx="250" cy="289.9141" fill="#84BE84" rx="3" ry="3" style="stroke:#038048;stroke-width:1.0;"/><text fill="#000000" font-family="sans-serif" font-size="14" lengthAdjust="spacing" textLength="159" x="259" y="294.1426">testLoadLevelTwo(): void</text><ellipse cx="250" cy="307.5234" fill="#84BE84" rx="3" ry="3" style="stroke:#038048;stroke-width:1.0;"/><text fill="#000000" font-family="sans-serif" font-size="14" lengthAdjust="spacing" textLength="109" x="259" y="311.752">loadGame(): void</text><ellipse cx="250" cy="325.1328" fill="#84BE84" rx="3" ry="3" style="stroke:#038048;stroke-width:1.0;"/><text fill="#000000" font-family="sans-serif" font-size="14" lengthAdjust="spacing" textLength="157" x="259" y="329.3613">testResumeGame(): void</text><ellipse cx="250" cy="342.7422" fill="#84BE84" rx="3" ry="3" style="stroke:#038048;stroke-width:1.0;"/><text fill="#000000" font-family="sans-serif" font-size="14" lengthAdjust="spacing" textLength="168" x="259" y="346.9707">testGetItemByName(): void</text></g></a><!--class nz.ac.wgtn.swen225.lc.persistency.PluginLoader--><a href="PluginLoader.html" target="_top" title="PluginLoader.html" xlink:actuate="onRequest" xlink:href="PluginLoader.html" xlink:show="new" xlink:title="PluginLoader.html" xlink:type="simple"><g id="elem_nz.ac.wgtn.swen225.lc.persistency.PluginLoader"><rect codeLine="54" fill="#F1F1F1" height="83.2188" id="nz.ac.wgtn.swen225.lc.persistency.PluginLoader" rx="2.5" ry="2.5" style="stroke:#181818;stroke-width:0.5;" width="182" x="22" y="244.5"/><ellipse cx="61.75" cy="260.5" fill="#ADD1B2" rx="11" ry="11" style="stroke:#181818;stroke-width:1.0;"/><path d="M64.5156,256.375 Q64.6719,256.1563 64.8594,256.0469 Q65.0469,255.9375 65.2656,255.9375 Q65.6406,255.9375 65.875,256.2031 Q66.1094,256.4531 66.1094,257.0625 L66.1094,258.5156 Q66.1094,259.125 65.875,259.3906 Q65.6406,259.6563 65.2656,259.6563 Q64.9219,259.6563 64.7188,259.4531 Q64.5156,259.2656 64.4063,258.75 Q64.3594,258.3906 64.1719,258.2031 Q63.8438,257.8281 63.2344,257.6094 Q62.625,257.3906 62,257.3906 Q61.2344,257.3906 60.5938,257.7188 Q59.9688,258.0469 59.4688,258.7969 Q58.9844,259.5469 58.9844,260.5781 L58.9844,261.6719 Q58.9844,262.9063 59.875,263.7344 Q60.7656,264.5469 62.3594,264.5469 Q63.2969,264.5469 63.9531,264.2969 Q64.3438,264.1406 64.7656,263.7031 Q65.0313,263.4375 65.1719,263.3594 Q65.3281,263.2813 65.5313,263.2813 Q65.8594,263.2813 66.1094,263.5469 Q66.375,263.7969 66.375,264.1406 Q66.375,264.4844 66.0313,264.8906 Q65.5313,265.4688 64.7344,265.7969 Q63.6563,266.25 62.3594,266.25 Q60.8438,266.25 59.6406,265.625 Q58.6563,265.125 57.9688,264.0625 Q57.2813,262.9844 57.2813,261.7031 L57.2813,260.5469 Q57.2813,259.2188 57.8906,258.0781 Q58.5156,256.9219 59.6094,256.3125 Q60.7031,255.6875 61.9375,255.6875 Q62.6719,255.6875 63.3125,255.8594 Q63.9688,256.0156 64.5156,256.375 Z " fill="#000000"/><text fill="#000000" font-family="sans-serif" font-size="14" lengthAdjust="spacing" textLength="84" x="81.25" y="266.2285">PluginLoader</text><rect fill="#FFFFFF" height="17.0938" style="stroke:#181818;stroke-width:1.0;stroke-dasharray:2.0,2.0;" width="9" x="198" y="241.5"/><text fill="#000000" font-family="sans-serif" font-size="12" font-style="italic" lengthAdjust="spacing" textLength="7" x="199" y="254.957">T</text><line style="stroke:#181818;stroke-width:0.5;" x1="23" x2="203" y1="276.5" y2="276.5"/><line style="stroke:#181818;stroke-width:0.5;" x1="23" x2="203" y1="284.5" y2="284.5"/><ellipse cx="33" cy="298.8047" fill="#84BE84" rx="3" ry="3" style="stroke:#038048;stroke-width:1.0;"/><text fill="#000000" font-family="sans-serif" font-size="14" lengthAdjust="spacing" textLength="154" x="42" y="303.0332">PluginLoader(Class&lt;T&gt;)</text><ellipse cx="33" cy="316.4141" fill="#84BE84" rx="3" ry="3" style="stroke:#038048;stroke-width:1.0;"/><text fill="#000000" font-family="sans-serif" font-size="14" lengthAdjust="spacing" textLength="156" x="42" y="320.6426">getPlugins(): Iterable&lt;T&gt;</text></g></a><!--class java.io.Serializable--><g id="elem_java.io.Serializable"><rect codeLine="65" fill="#F1F1F1" height="48" id="java.io.Serializable" rx="2.5" ry="2.5" style="stroke:#181818;stroke-width:0.5;" width="105" x="1066.5" y="262"/><ellipse cx="1081.5" cy="278" fill="#B4A7E5" rx="11" ry="11" style="stroke:#181818;stroke-width:1.0;"/><path d="M1082.4531,274.6406 L1082.4531,281.2969 L1084.1719,281.2969 Q1084.7813,281.2969 1085.0469,281.5313 Q1085.3125,281.7656 1085.3125,282.1563 Q1085.3125,282.5313 1085.0469,282.7656 Q1084.7813,283 1084.1719,283 L1079.0313,283 Q1078.4219,283 1078.1563,282.7656 Q1077.8906,282.5313 1077.8906,282.1406 Q1077.8906,281.7656 1078.1563,281.5313 Q1078.4219,281.2969 1079.0313,281.2969 L1080.75,281.2969 L1080.75,274.6406 L1079.0313,274.6406 Q1078.4219,274.6406 1078.1563,274.4063 Q1077.8906,274.1719 1077.8906,273.7813 Q1077.8906,273.4063 1078.1563,273.1719 Q1078.4219,272.9375 1079.0313,272.9375 L1084.1719,272.9375 Q1084.7813,272.9375 1085.0469,273.1719 Q1085.3125,273.4063 1085.3125,273.7813 Q1085.3125,274.1719 1085.0469,274.4063 Q1084.7813,274.6406 1084.1719,274.6406 L1082.4531,274.6406 Z " fill="#000000"/><text fill="#000000" font-family="sans-serif" font-size="14" font-style="italic" lengthAdjust="spacing" textLength="73" x="1095.5" y="283.7285">Serializable</text><line style="stroke:#181818;stroke-width:0.5;" x1="1067.5" x2="1170.5" y1="294" y2="294"/><line style="stroke:#181818;stroke-width:0.5;" x1="1067.5" x2="1170.5" y1="302" y2="302"/></g><!--reverse link java.io.Serializable to nz.ac.wgtn.swen225.lc.persistency.AutoActor--><g id="link_java.io.Serializable_nz.ac.wgtn.swen225.lc.persistency.AutoActor"><path codeLine="59" d="M1110.28,329.93 C1098.18,381.49 1072.36,468.67 1026,530 C1003.62,559.6 973.62,586.03 943.91,607.95 " fill="none" id="java.io.Serializable-backto-nz.ac.wgtn.swen225.lc.persistency.AutoActor" style="stroke:#181818;stroke-width:1.0;stroke-dasharray:7.0,7.0;"/><polygon fill="none" points="1103.49,328.21,1114.65,310.2,1117.16,331.24,1103.49,328.21" style="stroke:#181818;stroke-width:1.0;"/></g><!--reverse link nz.ac.wgtn.swen225.lc.persistency.AutoActor to nz.ac.wgtn.swen225.lc.persistency.AutoActor.Direction--><g id="link_nz.ac.wgtn.swen225.lc.persistency.AutoActor_nz.ac.wgtn.swen225.lc.persistency.AutoActor.Direction"><path codeLine="60" d="M832,759.31 C832,774.67 832,790.42 832,804.87 " fill="none" id="nz.ac.wgtn.swen225.lc.persistency.AutoActor-backto-nz.ac.wgtn.swen225.lc.persistency.AutoActor.Direction" style="stroke:#181818;stroke-width:1.0;"/><ellipse cx="832" cy="752.15" fill="#FFFFFF" rx="8" ry="8" style="stroke:#181818;stroke-width:1.0;"/><line style="stroke:#181818;stroke-width:1.0;" x1="832" x2="832" y1="760.15" y2="744.15"/><line style="stroke:#181818;stroke-width:1.0;" x1="824" x2="840" y1="752.15" y2="752.15"/></g><!--link nz.ac.wgtn.swen225.lc.persistency.Persistency to nz.ac.wgtn.swen225.lc.persistency.AutoActor--><g id="link_nz.ac.wgtn.swen225.lc.persistency.Persistency_nz.ac.wgtn.swen225.lc.persistency.AutoActor"><path codeLine="61" d="M797.3,530.25 C803.56,556.36 809.52,581.21 814.67,602.7 " fill="none" id="nz.ac.wgtn.swen225.lc.persistency.Persistency-to-nz.ac.wgtn.swen225.lc.persistency.AutoActor" style="stroke:#181818;stroke-width:1.0;"/><polygon fill="#181818" points="815.89,607.81,817.6954,598.128,814.7313,602.9461,809.9132,599.982,815.89,607.81" style="stroke:#181818;stroke-width:1.0;"/><text fill="#000000" font-family="sans-serif" font-size="13" lengthAdjust="spacing" textLength="36" x="808" y="574.4951">actors</text><text fill="#000000" font-family="sans-serif" font-size="13" lengthAdjust="spacing" textLength="5" x="808.8545" y="596.9885">*</text></g><text fill="#888888" font-family="sans-serif" font-size="10" lengthAdjust="spacing" textLength="184" x="498.5" y="955.3809">UMLDoclet 2.1.0, PlantUML 1.2022.14</text><!--SRC=[dLLTRzem57tdLrYL9eK1regq5uIGAAmCYL9KKgqLui4D5-hDiP7jW6ZN_pwRfFaYBjNoa83FyVKzvzhN2274IGXgIm90_0MJ0EytccEr1zvkVySim5kGYYeDF3YWrreD9K_0Y5Ae7sdH3xIGQB58V-Dd7RBbqh1Hxccak4UvRgBZQqWb19eAtaHZhZInOuDdigsxffQ0KEp0yoc3nRBUoR8faZQW7pm3cnLFWCSoy9P911w5vqt1cUvKJS6DTBJQbrSZMzFW3JNkPmvWUFjhwe0cFwvz1tGt7ltqgtJ5fPlbwhfOvFuvoYSatL1Es9KWSkLB82gIC10HrwVEPaams06xxA1hKwEFAEqAIeCSRLCTDDSa-DETQqdvfbVaR1avW7oeg6wCF3gHCneQJvyGsj0qX0cigw2ZhefnSzmKsO1LPVKKGGvxwyCq2dqn9pkec9-uyextfII7YQbTzyOSXcftdB4IZyxW1HESt5E_dDIZDKxqtLCd8RTPlVwst2poQ0bYWgn6fjzvrcDpyEFEKUGeq7RP6P66g4sik5sLR4xwb_CLHqwQMGVj15sLbZ5h75E9Tq4bHuAAmfXLnZywpZueNJpITiHnhBM19iQMYIt9BJzTwPJbxqKrAxNN6UFEhIZbZ42FDOHNX-ddXBF8z2MR7CYktxF2SoCErNcADx1npDJwoUqGqvHDmgGaoHC3mwlAvJVP4Km5deEaXD4NIqNTlnXNN4hPfTbejVxlWabZvRjugzL35rylilWTHEn7rNB9PjTzadBE6hDpGQujbfUHdns0fQ2r4FPpVpCPYe21HcryYRyrJItC3Mv6qPUTpKjmh_uF]--></g></svg>