<?xml version="1.0" encoding="UTF-8" standalone="no"?><svg xmlns="http://www.w3.org/2000/svg" xmlns:xlink="http://www.w3.org/1999/xlink" contentScriptType="application/ecmascript" contentStyleType="text/css" height="835px" preserveAspectRatio="none" style="width:1003px;height:835px;background:#FFFFFF;" version="1.1" viewBox="0 0 1003 835" width="1003px" zoomAndPan="magnify"><defs><filter height="300%" id="f8hs8bft9i6ao" width="300%" x="-1" y="-1"><feGaussianBlur result="blurOut" stdDeviation="2.0"/><feColorMatrix in="blurOut" result="blurOut2" type="matrix" values="0 0 0 0 0 0 0 0 0 0 0 0 0 0 0 0 0 0 .4 0"/><feOffset dx="4.0" dy="4.0" in="blurOut2" result="blurOut3"/><feBlend in="SourceGraphic" in2="blurOut3" mode="normal"/></filter></defs><g><!--MD5=[4b7d2fd9f412d52128a393c62b344a69]
cluster nz.ac.wgtn.swen225.lc.persistency--><polygon fill="#FFFFFF" filter="url(#f8hs8bft9i6ao)" points="16,6,263,6,270,29.6094,830,29.6094,830,811,16,811,16,6" style="stroke:#000000;stroke-width:1.5;"/><line style="stroke:#000000;stroke-width:1.5;" x1="16" x2="270" y1="29.6094" y2="29.6094"/><text fill="#000000" font-family="sans-serif" font-size="14" font-weight="bold" lengthAdjust="spacing" textLength="241" x="20" y="22.5332">nz.ac.wgtn.swen225.lc.persistency</text><!--MD5=[0d852700fdad35b7061d461d6907a324]
cluster java.io--><polygon fill="#FFFFFF" filter="url(#f8hs8bft9i6ao)" points="854,179,906,179,913,202.6094,986,202.6094,986,279,854,279,854,179" style="stroke:#000000;stroke-width:1.5;"/><line style="stroke:#000000;stroke-width:1.5;" x1="854" x2="913" y1="202.6094" y2="202.6094"/><text fill="#000000" font-family="sans-serif" font-size="14" font-weight="bold" lengthAdjust="spacing" textLength="46" x="858" y="195.5332">java.io</text><!--MD5=[8a7daa3f025fa236b1ffbc611c26624f]
class nz.ac.wgtn.swen225.lc.persistency.AutoActor--><a href="AutoActor.html" target="_top" title="AutoActor.html" xlink:actuate="onRequest" xlink:href="AutoActor.html" xlink:show="new" xlink:title="AutoActor.html" xlink:type="simple"><rect codeLine="3" fill="#FEFECE" filter="url(#f8hs8bft9i6ao)" height="117.1797" id="nz.ac.wgtn.swen225.lc.persistency.AutoActor" style="stroke:#A80036;stroke-width:1.5;" width="229" x="560.5" y="514"/><ellipse cx="645.25" cy="530" fill="#ADD1B2" rx="11" ry="11" style="stroke:#A80036;stroke-width:1.0;"/><path d="M648.0156,525.875 Q648.1719,525.6563 648.3594,525.5469 Q648.5469,525.4375 648.7656,525.4375 Q649.1406,525.4375 649.375,525.7031 Q649.6094,525.9531 649.6094,526.5625 L649.6094,528.0156 Q649.6094,528.625 649.375,528.8906 Q649.1406,529.1563 648.7656,529.1563 Q648.4219,529.1563 648.2188,528.9531 Q648.0156,528.7656 647.9063,528.25 Q647.8594,527.8906 647.6719,527.7031 Q647.3438,527.3281 646.7344,527.1094 Q646.125,526.8906 645.5,526.8906 Q644.7344,526.8906 644.0938,527.2188 Q643.4688,527.5469 642.9688,528.2969 Q642.4844,529.0469 642.4844,530.0781 L642.4844,531.1719 Q642.4844,532.4063 643.375,533.2344 Q644.2656,534.0469 645.8594,534.0469 Q646.7969,534.0469 647.4531,533.7969 Q647.8438,533.6406 648.2656,533.2031 Q648.5313,532.9375 648.6719,532.8594 Q648.8281,532.7813 649.0313,532.7813 Q649.3594,532.7813 649.6094,533.0469 Q649.875,533.2969 649.875,533.6406 Q649.875,533.9844 649.5313,534.3906 Q649.0313,534.9688 648.2344,535.2969 Q647.1563,535.75 645.8594,535.75 Q644.3438,535.75 643.1406,535.125 Q642.1563,534.625 641.4688,533.5625 Q640.7813,532.4844 640.7813,531.2031 L640.7813,530.0469 Q640.7813,528.7188 641.3906,527.5781 Q642.0156,526.4219 643.1094,525.8125 Q644.2031,525.1875 645.4375,525.1875 Q646.1719,525.1875 646.8125,525.3594 Q647.4688,525.5156 648.0156,525.875 Z " fill="#000000"/><text fill="#000000" font-family="sans-serif" font-size="12" lengthAdjust="spacing" textLength="51" x="665.75" y="534.9102">AutoActor</text><line style="stroke:#A80036;stroke-width:1.5;" x1="561.5" x2="788.5" y1="546" y2="546"/><line style="stroke:#A80036;stroke-width:1.5;" x1="561.5" x2="788.5" y1="554" y2="554"/><ellipse cx="571.5" cy="565" fill="#84BE84" rx="3" ry="3" style="stroke:#038048;stroke-width:1.0;"/><text fill="#000000" font-family="sans-serif" font-size="11" lengthAdjust="spacing" textLength="203" x="580.5" y="569.4189">AutoActor(int, int, Direction, Instant, Chap)</text><ellipse cx="571.5" cy="578.8359" fill="#84BE84" rx="3" ry="3" style="stroke:#038048;stroke-width:1.0;"/><text fill="#000000" font-family="sans-serif" font-size="11" lengthAdjust="spacing" textLength="58" x="580.5" y="583.2549">AutoActor()</text><ellipse cx="571.5" cy="592.6719" fill="#84BE84" rx="3" ry="3" style="stroke:#038048;stroke-width:1.0;"/><text fill="#000000" font-family="sans-serif" font-size="11" lengthAdjust="spacing" textLength="112" x="580.5" y="597.0908">move(Tile[]): AutoActor</text><ellipse cx="571.5" cy="606.5078" fill="#84BE84" rx="3" ry="3" style="stroke:#038048;stroke-width:1.0;"/><text fill="#000000" font-family="sans-serif" font-size="11" lengthAdjust="spacing" textLength="47" x="580.5" y="610.9268">getX(): int</text><ellipse cx="571.5" cy="620.3438" fill="#84BE84" rx="3" ry="3" style="stroke:#038048;stroke-width:1.0;"/><text fill="#000000" font-family="sans-serif" font-size="11" lengthAdjust="spacing" textLength="48" x="580.5" y="624.7627">getY(): int</text></a><!--MD5=[802bed04ee0ed964813dfc37091afa9c]
class nz.ac.wgtn.swen225.lc.persistency.AutoActor.Direction--><a href="AutoActor.Direction.html" target="_top" title="AutoActor.Direction.html" xlink:actuate="onRequest" xlink:href="AutoActor.Direction.html" xlink:show="new" xlink:title="AutoActor.Direction.html" xlink:type="simple"><rect codeLine="11" fill="#FEFECE" filter="url(#f8hs8bft9i6ao)" height="103.3438" id="nz.ac.wgtn.swen225.lc.persistency.AutoActor.Direction" style="stroke:#A80036;stroke-width:1.5;" width="135" x="607.5" y="692"/><ellipse cx="622.5" cy="708" fill="#EB937F" rx="11" ry="11" style="stroke:#A80036;stroke-width:1.0;"/><path d="M621.3594,708.7969 L621.3594,711.2969 L625.6875,711.2969 L625.6875,710.375 Q625.6875,709.7656 625.9219,709.5 Q626.1719,709.2344 626.5469,709.2344 Q626.9219,709.2344 627.1563,709.5 Q627.3906,709.7656 627.3906,710.375 L627.3906,713 L619.3906,713 Q618.7656,713 618.5,712.7656 Q618.25,712.5313 618.25,712.1406 Q618.25,711.7656 618.5156,711.5313 Q618.7813,711.2969 619.3906,711.2969 L619.6563,711.2969 L619.6563,704.6406 L619.3906,704.6406 Q618.7656,704.6406 618.5,704.4063 Q618.25,704.1719 618.25,703.7813 Q618.25,703.4063 618.5,703.1719 Q618.7656,702.9375 619.3906,702.9375 L627.0156,702.9375 L627.0156,705.5313 Q627.0156,706.1406 626.7813,706.4063 Q626.5625,706.6563 626.1719,706.6563 Q625.7969,706.6563 625.5625,706.4063 Q625.3281,706.1406 625.3281,705.5313 L625.3281,704.6406 L621.3594,704.6406 L621.3594,707.0938 L622.8438,707.0938 Q622.8438,706.4375 622.9688,706.25 Q623.2344,705.8438 623.7031,705.8438 Q624.0781,705.8438 624.3125,706.1094 Q624.5469,706.3594 624.5469,706.9688 L624.5469,708.9375 Q624.5469,709.4844 624.4219,709.6719 Q624.1563,710.0625 623.7031,710.0625 Q623.2344,710.0625 622.9688,709.6563 Q622.8438,709.4688 622.8438,708.7969 L621.3594,708.7969 Z " fill="#000000"/><text fill="#000000" font-family="sans-serif" font-size="12" lengthAdjust="spacing" textLength="103" x="636.5" y="712.9102">AutoActor.Direction</text><line style="stroke:#A80036;stroke-width:1.5;" x1="608.5" x2="741.5" y1="724" y2="724"/><ellipse cx="618.5" cy="735" rx="3" ry="3" style="stroke:#038048;stroke-width:1.0;fill:none;"/><text fill="#000000" font-family="sans-serif" font-size="11" lengthAdjust="spacing" text-decoration="underline" textLength="13" x="627.5" y="739.4189">UP</text><ellipse cx="618.5" cy="748.8359" rx="3" ry="3" style="stroke:#038048;stroke-width:1.0;fill:none;"/><text fill="#000000" font-family="sans-serif" font-size="11" lengthAdjust="spacing" text-decoration="underline" textLength="32" x="627.5" y="753.2549">DOWN</text><ellipse cx="618.5" cy="762.6719" rx="3" ry="3" style="stroke:#038048;stroke-width:1.0;fill:none;"/><text fill="#000000" font-family="sans-serif" font-size="11" lengthAdjust="spacing" text-decoration="underline" textLength="24" x="627.5" y="767.0908">LEFT</text><ellipse cx="618.5" cy="776.5078" rx="3" ry="3" style="stroke:#038048;stroke-width:1.0;fill:none;"/><text fill="#000000" font-family="sans-serif" font-size="11" lengthAdjust="spacing" text-decoration="underline" textLength="30" x="627.5" y="780.9268">RIGHT</text><line style="stroke:#A80036;stroke-width:1.5;" x1="608.5" x2="741.5" y1="787.3438" y2="787.3438"/></a><!--MD5=[f18dd593c0168d1416235e319e5a8b45]
class nz.ac.wgtn.swen225.lc.persistency.Persistency--><a href="Persistency.html" target="_top" title="Persistency.html" xlink:actuate="onRequest" xlink:href="Persistency.html" xlink:show="new" xlink:title="Persistency.html" xlink:type="simple"><rect codeLine="18" fill="#FEFECE" filter="url(#f8hs8bft9i6ao)" height="393.8984" id="nz.ac.wgtn.swen225.lc.persistency.Persistency" style="stroke:#A80036;stroke-width:1.5;" width="416" x="398" y="42"/><ellipse cx="569.75" cy="58" fill="#ADD1B2" rx="11" ry="11" style="stroke:#A80036;stroke-width:1.0;"/><path d="M572.5156,53.875 Q572.6719,53.6563 572.8594,53.5469 Q573.0469,53.4375 573.2656,53.4375 Q573.6406,53.4375 573.875,53.7031 Q574.1094,53.9531 574.1094,54.5625 L574.1094,56.0156 Q574.1094,56.625 573.875,56.8906 Q573.6406,57.1563 573.2656,57.1563 Q572.9219,57.1563 572.7188,56.9531 Q572.5156,56.7656 572.4063,56.25 Q572.3594,55.8906 572.1719,55.7031 Q571.8438,55.3281 571.2344,55.1094 Q570.625,54.8906 570,54.8906 Q569.2344,54.8906 568.5938,55.2188 Q567.9688,55.5469 567.4688,56.2969 Q566.9844,57.0469 566.9844,58.0781 L566.9844,59.1719 Q566.9844,60.4063 567.875,61.2344 Q568.7656,62.0469 570.3594,62.0469 Q571.2969,62.0469 571.9531,61.7969 Q572.3438,61.6406 572.7656,61.2031 Q573.0313,60.9375 573.1719,60.8594 Q573.3281,60.7813 573.5313,60.7813 Q573.8594,60.7813 574.1094,61.0469 Q574.375,61.2969 574.375,61.6406 Q574.375,61.9844 574.0313,62.3906 Q573.5313,62.9688 572.7344,63.2969 Q571.6563,63.75 570.3594,63.75 Q568.8438,63.75 567.6406,63.125 Q566.6563,62.625 565.9688,61.5625 Q565.2813,60.4844 565.2813,59.2031 L565.2813,58.0469 Q565.2813,56.7188 565.8906,55.5781 Q566.5156,54.4219 567.6094,53.8125 Q568.7031,53.1875 569.9375,53.1875 Q570.6719,53.1875 571.3125,53.3594 Q571.9688,53.5156 572.5156,53.875 Z " fill="#000000"/><text fill="#000000" font-family="sans-serif" font-size="12" lengthAdjust="spacing" textLength="64" x="590.25" y="62.9102">Persistency</text><line style="stroke:#A80036;stroke-width:1.5;" x1="399" x2="813" y1="74" y2="74"/><ellipse cx="409" cy="85" rx="3" ry="3" style="stroke:#038048;stroke-width:1.0;fill:none;"/><text fill="#000000" font-family="sans-serif" font-size="11" lengthAdjust="spacing" textLength="152" x="418" y="89.4189">originalBoardTreasureCount: int</text><ellipse cx="409" cy="98.8359" rx="3" ry="3" style="stroke:#038048;stroke-width:1.0;fill:none;"/><text fill="#000000" font-family="sans-serif" font-size="11" lengthAdjust="spacing" text-decoration="underline" textLength="50" x="418" y="103.2549">level1: File</text><ellipse cx="409" cy="112.6719" rx="3" ry="3" style="stroke:#038048;stroke-width:1.0;fill:none;"/><text fill="#000000" font-family="sans-serif" font-size="11" lengthAdjust="spacing" text-decoration="underline" textLength="50" x="418" y="117.0908">level2: File</text><ellipse cx="409" cy="126.5078" rx="3" ry="3" style="stroke:#038048;stroke-width:1.0;fill:none;"/><text fill="#000000" font-family="sans-serif" font-size="11" lengthAdjust="spacing" textLength="108" x="418" y="130.9268">actions: Stack&lt;String&gt;</text><ellipse cx="409" cy="140.3438" rx="3" ry="3" style="stroke:#038048;stroke-width:1.0;fill:none;"/><text fill="#000000" font-family="sans-serif" font-size="11" lengthAdjust="spacing" textLength="54" x="418" y="144.7627">playerX: int</text><ellipse cx="409" cy="154.1797" rx="3" ry="3" style="stroke:#038048;stroke-width:1.0;fill:none;"/><text fill="#000000" font-family="sans-serif" font-size="11" lengthAdjust="spacing" textLength="55" x="418" y="158.5986">playerY: int</text><ellipse cx="409" cy="168.0156" rx="3" ry="3" style="stroke:#038048;stroke-width:1.0;fill:none;"/><text fill="#000000" font-family="sans-serif" font-size="11" lengthAdjust="spacing" textLength="119" x="418" y="172.4346">playerTreasureCount: int</text><ellipse cx="409" cy="181.8516" rx="3" ry="3" style="stroke:#038048;stroke-width:1.0;fill:none;"/><text fill="#000000" font-family="sans-serif" font-size="11" lengthAdjust="spacing" textLength="117" x="418" y="186.2705">boardTreasureCount: int</text><ellipse cx="409" cy="195.6875" rx="3" ry="3" style="stroke:#038048;stroke-width:1.0;fill:none;"/><text fill="#000000" font-family="sans-serif" font-size="11" lengthAdjust="spacing" textLength="55" x="418" y="200.1064">timeLeft: int</text><ellipse cx="409" cy="209.5234" rx="3" ry="3" style="stroke:#038048;stroke-width:1.0;fill:none;"/><text fill="#000000" font-family="sans-serif" font-size="11" lengthAdjust="spacing" textLength="39" x="418" y="213.9424">level: int</text><ellipse cx="409" cy="223.3594" rx="3" ry="3" style="stroke:#038048;stroke-width:1.0;fill:none;"/><text fill="#000000" font-family="sans-serif" font-size="11" lengthAdjust="spacing" textLength="78" x="418" y="227.7783">message: String</text><ellipse cx="409" cy="237.1953" rx="3" ry="3" style="stroke:#038048;stroke-width:1.0;fill:none;"/><text fill="#000000" font-family="sans-serif" font-size="11" lengthAdjust="spacing" textLength="113" x="418" y="241.6143">newFileNumToSave: int</text><ellipse cx="409" cy="251.0313" rx="3" ry="3" style="stroke:#038048;stroke-width:1.0;fill:none;"/><text fill="#000000" font-family="sans-serif" font-size="11" lengthAdjust="spacing" textLength="161" x="418" y="255.4502">actionsToSave: ArrayList&lt;Move&gt;</text><ellipse cx="409" cy="264.8672" rx="3" ry="3" style="stroke:#038048;stroke-width:1.0;fill:none;"/><text fill="#000000" font-family="sans-serif" font-size="11" lengthAdjust="spacing" textLength="91" x="418" y="269.2861">playerXToSave: int</text><ellipse cx="409" cy="278.7031" rx="3" ry="3" style="stroke:#038048;stroke-width:1.0;fill:none;"/><text fill="#000000" font-family="sans-serif" font-size="11" lengthAdjust="spacing" textLength="92" x="418" y="283.1221">playerYToSave: int</text><ellipse cx="409" cy="292.5391" rx="3" ry="3" style="stroke:#038048;stroke-width:1.0;fill:none;"/><text fill="#000000" font-family="sans-serif" font-size="11" lengthAdjust="spacing" textLength="156" x="418" y="296.958">playerTreasureCountToSave: int</text><ellipse cx="409" cy="306.375" rx="3" ry="3" style="stroke:#038048;stroke-width:1.0;fill:none;"/><text fill="#000000" font-family="sans-serif" font-size="11" lengthAdjust="spacing" textLength="154" x="418" y="310.7939">boardTreasureCountToSave: int</text><ellipse cx="409" cy="320.2109" rx="3" ry="3" style="stroke:#038048;stroke-width:1.0;fill:none;"/><text fill="#000000" font-family="sans-serif" font-size="11" lengthAdjust="spacing" textLength="76" x="418" y="324.6299">levelToSave: int</text><ellipse cx="409" cy="334.0469" rx="3" ry="3" style="stroke:#038048;stroke-width:1.0;fill:none;"/><text fill="#000000" font-family="sans-serif" font-size="11" lengthAdjust="spacing" textLength="92" x="418" y="338.4658">timeLeftToSave: int</text><line style="stroke:#A80036;stroke-width:1.5;" x1="399" x2="813" y1="344.8828" y2="344.8828"/><ellipse cx="409" cy="355.8828" fill="#84BE84" rx="3" ry="3" style="stroke:#038048;stroke-width:1.0;"/><text fill="#000000" font-family="sans-serif" font-size="11" lengthAdjust="spacing" textLength="85" x="418" y="360.3018">Persistency(App)</text><ellipse cx="409" cy="369.7188" fill="#84BE84" rx="3" ry="3" style="stroke:#038048;stroke-width:1.0;"/><text fill="#000000" font-family="sans-serif" font-size="11" lengthAdjust="spacing" textLength="65" x="418" y="374.1377">Persistency()</text><ellipse cx="409" cy="383.5547" fill="#84BE84" rx="3" ry="3" style="stroke:#038048;stroke-width:1.0;"/><text fill="#000000" font-family="sans-serif" font-size="11" lengthAdjust="spacing" textLength="100" x="418" y="387.9736">loadGame(File): Tile[]</text><ellipse cx="409" cy="397.3906" fill="#84BE84" rx="3" ry="3" style="stroke:#038048;stroke-width:1.0;"/><text fill="#000000" font-family="sans-serif" font-size="11" lengthAdjust="spacing" textLength="390" x="418" y="401.8096">setSaveParameters(int, ArrayList&lt;Move&gt;, int, int, int, int, int, int, Tile[], Chap): void</text><ellipse cx="409" cy="411.2266" fill="#84BE84" rx="3" ry="3" style="stroke:#038048;stroke-width:1.0;"/><text fill="#000000" font-family="sans-serif" font-size="11" lengthAdjust="spacing" textLength="114" x="418" y="415.6455">saveGame(String): void</text><ellipse cx="409" cy="425.0625" fill="#84BE84" rx="3" ry="3" style="stroke:#038048;stroke-width:1.0;"/><text fill="#000000" font-family="sans-serif" font-size="11" lengthAdjust="spacing" textLength="98" x="418" y="429.4814">resumeGame(): void</text></a><!--MD5=[ce05eba7b4cf2e0f8fe5a1af518330d4]
class nz.ac.wgtn.swen225.lc.persistency.PersistencyTest--><a href="PersistencyTest.html" target="_top" title="PersistencyTest.html" xlink:actuate="onRequest" xlink:href="PersistencyTest.html" xlink:show="new" xlink:title="PersistencyTest.html" xlink:type="simple"><rect codeLine="46" fill="#FEFECE" filter="url(#f8hs8bft9i6ao)" height="117.1797" id="nz.ac.wgtn.swen225.lc.persistency.PersistencyTest" style="stroke:#A80036;stroke-width:1.5;" width="154" x="209" y="180.5"/><ellipse cx="239.3" cy="196.5" fill="#ADD1B2" rx="11" ry="11" style="stroke:#A80036;stroke-width:1.0;"/><path d="M242.0656,192.375 Q242.2219,192.1563 242.4094,192.0469 Q242.5969,191.9375 242.8156,191.9375 Q243.1906,191.9375 243.425,192.2031 Q243.6594,192.4531 243.6594,193.0625 L243.6594,194.5156 Q243.6594,195.125 243.425,195.3906 Q243.1906,195.6563 242.8156,195.6563 Q242.4719,195.6563 242.2688,195.4531 Q242.0656,195.2656 241.9563,194.75 Q241.9094,194.3906 241.7219,194.2031 Q241.3938,193.8281 240.7844,193.6094 Q240.175,193.3906 239.55,193.3906 Q238.7844,193.3906 238.1438,193.7188 Q237.5188,194.0469 237.0188,194.7969 Q236.5344,195.5469 236.5344,196.5781 L236.5344,197.6719 Q236.5344,198.9063 237.425,199.7344 Q238.3156,200.5469 239.9094,200.5469 Q240.8469,200.5469 241.5031,200.2969 Q241.8938,200.1406 242.3156,199.7031 Q242.5813,199.4375 242.7219,199.3594 Q242.8781,199.2813 243.0813,199.2813 Q243.4094,199.2813 243.6594,199.5469 Q243.925,199.7969 243.925,200.1406 Q243.925,200.4844 243.5813,200.8906 Q243.0813,201.4688 242.2844,201.7969 Q241.2063,202.25 239.9094,202.25 Q238.3938,202.25 237.1906,201.625 Q236.2063,201.125 235.5188,200.0625 Q234.8313,198.9844 234.8313,197.7031 L234.8313,196.5469 Q234.8313,195.2188 235.4406,194.0781 Q236.0656,192.9219 237.1594,192.3125 Q238.2531,191.6875 239.4875,191.6875 Q240.2219,191.6875 240.8625,191.8594 Q241.5188,192.0156 242.0656,192.375 Z " fill="#000000"/><text fill="#000000" font-family="sans-serif" font-size="12" lengthAdjust="spacing" textLength="88" x="256.7" y="201.4102">PersistencyTest</text><line style="stroke:#A80036;stroke-width:1.5;" x1="210" x2="362" y1="212.5" y2="212.5"/><line style="stroke:#A80036;stroke-width:1.5;" x1="210" x2="362" y1="220.5" y2="220.5"/><ellipse cx="220" cy="231.5" fill="#84BE84" rx="3" ry="3" style="stroke:#038048;stroke-width:1.0;"/><text fill="#000000" font-family="sans-serif" font-size="11" lengthAdjust="spacing" textLength="122" x="229" y="235.9189">testLoadLevelOne(): void</text><ellipse cx="220" cy="245.3359" fill="#84BE84" rx="3" ry="3" style="stroke:#038048;stroke-width:1.0;"/><text fill="#000000" font-family="sans-serif" font-size="11" lengthAdjust="spacing" textLength="124" x="229" y="249.7549">testLoadLevelTwo(): void</text><ellipse cx="220" cy="259.1719" fill="#84BE84" rx="3" ry="3" style="stroke:#038048;stroke-width:1.0;"/><text fill="#000000" font-family="sans-serif" font-size="11" lengthAdjust="spacing" textLength="82" x="229" y="263.5908">loadGame(): void</text><ellipse cx="220" cy="273.0078" fill="#84BE84" rx="3" ry="3" style="stroke:#038048;stroke-width:1.0;"/><text fill="#000000" font-family="sans-serif" font-size="11" lengthAdjust="spacing" textLength="119" x="229" y="277.4268">testResumeGame(): void</text><ellipse cx="220" cy="286.8438" fill="#84BE84" rx="3" ry="3" style="stroke:#038048;stroke-width:1.0;"/><text fill="#000000" font-family="sans-serif" font-size="11" lengthAdjust="spacing" textLength="128" x="229" y="291.2627">testGetItemByName(): void</text></a><!--MD5=[56d9889baefa39fdd528430fbbf826e8]
class nz.ac.wgtn.swen225.lc.persistency.PluginLoader--><a href="PluginLoader.html" target="_top" title="PluginLoader.html" xlink:actuate="onRequest" xlink:href="PluginLoader.html" xlink:show="new" xlink:title="PluginLoader.html" xlink:type="simple"><rect codeLine="54" fill="#FEFECE" filter="url(#f8hs8bft9i6ao)" height="75.6719" id="nz.ac.wgtn.swen225.lc.persistency.PluginLoader" style="stroke:#A80036;stroke-width:1.5;" width="142" x="32" y="201"/><ellipse cx="58.25" cy="217" fill="#ADD1B2" rx="11" ry="11" style="stroke:#A80036;stroke-width:1.0;"/><path d="M61.0156,212.875 Q61.1719,212.6563 61.3594,212.5469 Q61.5469,212.4375 61.7656,212.4375 Q62.1406,212.4375 62.375,212.7031 Q62.6094,212.9531 62.6094,213.5625 L62.6094,215.0156 Q62.6094,215.625 62.375,215.8906 Q62.1406,216.1563 61.7656,216.1563 Q61.4219,216.1563 61.2188,215.9531 Q61.0156,215.7656 60.9063,215.25 Q60.8594,214.8906 60.6719,214.7031 Q60.3438,214.3281 59.7344,214.1094 Q59.125,213.8906 58.5,213.8906 Q57.7344,213.8906 57.0938,214.2188 Q56.4688,214.5469 55.9688,215.2969 Q55.4844,216.0469 55.4844,217.0781 L55.4844,218.1719 Q55.4844,219.4063 56.375,220.2344 Q57.2656,221.0469 58.8594,221.0469 Q59.7969,221.0469 60.4531,220.7969 Q60.8438,220.6406 61.2656,220.2031 Q61.5313,219.9375 61.6719,219.8594 Q61.8281,219.7813 62.0313,219.7813 Q62.3594,219.7813 62.6094,220.0469 Q62.875,220.2969 62.875,220.6406 Q62.875,220.9844 62.5313,221.3906 Q62.0313,221.9688 61.2344,222.2969 Q60.1563,222.75 58.8594,222.75 Q57.3438,222.75 56.1406,222.125 Q55.1563,221.625 54.4688,220.5625 Q53.7813,219.4844 53.7813,218.2031 L53.7813,217.0469 Q53.7813,215.7188 54.3906,214.5781 Q55.0156,213.4219 56.1094,212.8125 Q57.2031,212.1875 58.4375,212.1875 Q59.1719,212.1875 59.8125,212.3594 Q60.4688,212.5156 61.0156,212.875 Z " fill="#000000"/><text fill="#000000" font-family="sans-serif" font-size="12" lengthAdjust="spacing" textLength="74" x="74.75" y="221.9102">PluginLoader</text><rect fill="#FFFFFF" height="17.0938" style="stroke:#000000;stroke-width:1.0;stroke-dasharray:2.0,2.0;" width="9" x="168" y="198"/><text fill="#000000" font-family="sans-serif" font-size="12" font-style="italic" lengthAdjust="spacing" textLength="7" x="169" y="211.457">T</text><line style="stroke:#A80036;stroke-width:1.5;" x1="33" x2="173" y1="233" y2="233"/><line style="stroke:#A80036;stroke-width:1.5;" x1="33" x2="173" y1="241" y2="241"/><ellipse cx="43" cy="252" fill="#84BE84" rx="3" ry="3" style="stroke:#038048;stroke-width:1.0;"/><text fill="#000000" font-family="sans-serif" font-size="11" lengthAdjust="spacing" textLength="115" x="52" y="256.4189">PluginLoader(Class&lt;T&gt;)</text><ellipse cx="43" cy="265.8359" fill="#84BE84" rx="3" ry="3" style="stroke:#038048;stroke-width:1.0;"/><text fill="#000000" font-family="sans-serif" font-size="11" lengthAdjust="spacing" textLength="116" x="52" y="270.2549">getPlugins(): Iterable&lt;T&gt;</text></a><!--MD5=[5a5af9b0547913863cbe0ddf55a9ab5e]
class java.io.Serializable--><rect codeLine="65" fill="#FEFECE" filter="url(#f8hs8bft9i6ao)" height="48" id="java.io.Serializable" style="stroke:#A80036;stroke-width:1.5;" width="99" x="870.5" y="215"/><ellipse cx="885.5" cy="231" fill="#B4A7E5" rx="11" ry="11" style="stroke:#A80036;stroke-width:1.0;"/><path d="M886.4531,227.6406 L886.4531,234.2969 L888.1719,234.2969 Q888.7813,234.2969 889.0469,234.5313 Q889.3125,234.7656 889.3125,235.1563 Q889.3125,235.5313 889.0469,235.7656 Q888.7813,236 888.1719,236 L883.0313,236 Q882.4219,236 882.1563,235.7656 Q881.8906,235.5313 881.8906,235.1406 Q881.8906,234.7656 882.1563,234.5313 Q882.4219,234.2969 883.0313,234.2969 L884.75,234.2969 L884.75,227.6406 L883.0313,227.6406 Q882.4219,227.6406 882.1563,227.4063 Q881.8906,227.1719 881.8906,226.7813 Q881.8906,226.4063 882.1563,226.1719 Q882.4219,225.9375 883.0313,225.9375 L888.1719,225.9375 Q888.7813,225.9375 889.0469,226.1719 Q889.3125,226.4063 889.3125,226.7813 Q889.3125,227.1719 889.0469,227.4063 Q888.7813,227.6406 888.1719,227.6406 L886.4531,227.6406 Z " fill="#000000"/><text fill="#000000" font-family="sans-serif" font-size="12" font-style="italic" lengthAdjust="spacing" textLength="67" x="899.5" y="235.9102">Serializable</text><line style="stroke:#A80036;stroke-width:1.5;" x1="871.5" x2="968.5" y1="247" y2="247"/><line style="stroke:#A80036;stroke-width:1.5;" x1="871.5" x2="968.5" y1="255" y2="255"/><!--MD5=[b39875d9a98ecf2dfd53eb1fb1f4c6c0]
reverse link java.io.Serializable to nz.ac.wgtn.swen225.lc.persistency.AutoActor--><path codeLine="59" d="M906.52,282.12 C891.89,323.8 865.75,388.13 830,436 C808.61,464.64 780.28,491.58 753.7,513.78 " fill="none" id="java.io.Serializable-backto-nz.ac.wgtn.swen225.lc.persistency.AutoActor" style="stroke:#A80036;stroke-width:1.0;stroke-dasharray:7.0,7.0;"/><polygon fill="none" points="899.91,279.83,912.94,263.12,913.17,284.31,899.91,279.83" style="stroke:#A80036;stroke-width:1.0;"/><!--MD5=[f81e2b2fb034a3d397378f3930f95abd]
reverse link nz.ac.wgtn.swen225.lc.persistency.AutoActor to nz.ac.wgtn.swen225.lc.persistency.AutoActor.Direction--><path codeLine="60" d="M675,646.29 C675,661.65 675,677.53 675,691.85 " fill="none" id="nz.ac.wgtn.swen225.lc.persistency.AutoActor-backto-nz.ac.wgtn.swen225.lc.persistency.AutoActor.Direction" style="stroke:#A80036;stroke-width:1.0;"/><ellipse cx="675" cy="639.19" fill="#FFFFFF" rx="8" ry="8" style="stroke:#A80036;stroke-width:1.0;"/><line style="stroke:#A80036;stroke-width:1.0;" x1="675" x2="675" y1="647.19" y2="631.19"/><line style="stroke:#A80036;stroke-width:1.0;" x1="667" x2="683" y1="639.19" y2="639.19"/><!--MD5=[5fde3ddd98fdd968c4cfc724373a7846]
link nz.ac.wgtn.swen225.lc.persistency.Persistency to nz.ac.wgtn.swen225.lc.persistency.AutoActor--><path codeLine="61" d="M646.84,436.19 C652.28,462.33 657.5,487.43 661.94,508.76 " fill="none" id="nz.ac.wgtn.swen225.lc.persistency.Persistency-to-nz.ac.wgtn.swen225.lc.persistency.AutoActor" style="stroke:#A80036;stroke-width:1.0;"/><polygon fill="#A80036" points="662.99,513.81,665.0827,504.186,661.9765,508.9138,657.2487,505.8076,662.99,513.81" style="stroke:#A80036;stroke-width:1.0;"/><text fill="#000000" font-family="sans-serif" font-size="13" lengthAdjust="spacing" textLength="36" x="657" y="480.4951">actors</text><text fill="#000000" font-family="sans-serif" font-size="13" lengthAdjust="spacing" textLength="5" x="656.2216" y="503.1877">*</text><text fill="#888888" font-family="sans-serif" font-size="10" lengthAdjust="spacing" textLength="184" x="403" y="827.3809">UMLDoclet 2.0.14, PlantUML 1.2021.9</text><!--MD5=[490784dd4148fbb32a2e672a71cfab10]
@startuml
    namespace nz.ac.wgtn.swen225.lc.persistency {

        class AutoActor [[AutoActor.html]] {
            +AutoActor(int, int, Direction, Instant, Chap)
            +AutoActor()
            +move(Tile[]): AutoActor
            +getX(): int
            +getY(): int
        }

        enum nz.ac.wgtn.swen225.lc.persistency.AutoActor.Direction [[AutoActor.Direction.html]] {
            {static} +UP
            {static} +DOWN
            {static} +LEFT
            {static} +RIGHT
        }

        class Persistency [[Persistency.html]] {
            +originalBoardTreasureCount: int
            {static} +level1: File
            {static} +level2: File
            +actions: Stack<String>
            +playerX: int
            +playerY: int
            +playerTreasureCount: int
            +boardTreasureCount: int
            +timeLeft: int
            +level: int
            +message: String
            +newFileNumToSave: int
            +actionsToSave: ArrayList<Move>
            +playerXToSave: int
            +playerYToSave: int
            +playerTreasureCountToSave: int
            +boardTreasureCountToSave: int
            +levelToSave: int
            +timeLeftToSave: int
            +Persistency(App)
            +Persistency()
            +loadGame(File): Tile[]
            +setSaveParameters(int, ArrayList<Move>, int, int, int, int, int, int, Tile[], Chap): void
            +saveGame(String): void
            +resumeGame(): void
        }

        class PersistencyTest [[PersistencyTest.html]] {
            +testLoadLevelOne(): void
            +testLoadLevelTwo(): void
            +loadGame(): void
            +testResumeGame(): void
            +testGetItemByName(): void
        }

        class PluginLoader<T> [[PluginLoader.html]] {
            +PluginLoader(Class<T>)
            +getPlugins(): Iterable<T>
        }

        java.io.Serializable <|.. AutoActor
        AutoActor +- - nz.ac.wgtn.swen225.lc.persistency.AutoActor.Direction
        Persistency - -> "*" AutoActor: actors
    }

    namespace java.io {
        interface Serializable
    }

    center footer UMLDoclet 2.0.14, PlantUML 1.2021.9
@enduml

PlantUML version 1.2021.9(Sun Jul 25 17:13:56 ICT 2021)
(APACHE source distribution)
Java Runtime: OpenJDK Runtime Environment
JVM: OpenJDK 64-Bit Server VM
Default Encoding: Cp1252
Language: en
Country: NZ
--></g></svg>