<?xml version="1.0" encoding="UTF-8" standalone="no"?><svg xmlns="http://www.w3.org/2000/svg" xmlns:xlink="http://www.w3.org/1999/xlink" contentScriptType="application/ecmascript" contentStyleType="text/css" height="462px" preserveAspectRatio="none" style="width:437px;height:462px;background:#FFFFFF;" version="1.1" viewBox="0 0 437 462" width="437px" zoomAndPan="magnify"><defs><filter height="300%" id="fke30866l9w8m" width="300%" x="-1" y="-1"><feGaussianBlur result="blurOut" stdDeviation="2.0"/><feColorMatrix in="blurOut" result="blurOut2" type="matrix" values="0 0 0 0 0 0 0 0 0 0 0 0 0 0 0 0 0 0 .4 0"/><feOffset dx="4.0" dy="4.0" in="blurOut2" result="blurOut3"/><feBlend in="SourceGraphic" in2="blurOut3" mode="normal"/></filter></defs><g><!--MD5=[f18dd593c0168d1416235e319e5a8b45]
class nz.ac.wgtn.swen225.lc.persistency.Persistency--><a href="Persistency.html" target="_top" title="Persistency.html" xlink:actuate="onRequest" xlink:href="Persistency.html" xlink:show="new" xlink:title="Persistency.html" xlink:type="simple"><rect codeLine="5" fill="#FEFECE" filter="url(#fke30866l9w8m)" height="429.7578" id="nz.ac.wgtn.swen225.lc.persistency.Persistency" style="stroke:#A80036;stroke-width:1.5;" width="416" x="7" y="7"/><ellipse cx="129.75" cy="27.0938" fill="#ADD1B2" rx="11" ry="11" style="stroke:#A80036;stroke-width:1.0;"/><path d="M132.5156,22.9688 Q132.6719,22.75 132.8594,22.6406 Q133.0469,22.5313 133.2656,22.5313 Q133.6406,22.5313 133.875,22.7969 Q134.1094,23.0469 134.1094,23.6563 L134.1094,25.1094 Q134.1094,25.7188 133.875,25.9844 Q133.6406,26.25 133.2656,26.25 Q132.9219,26.25 132.7188,26.0469 Q132.5156,25.8594 132.4063,25.3438 Q132.3594,24.9844 132.1719,24.7969 Q131.8438,24.4219 131.2344,24.2031 Q130.625,23.9844 130,23.9844 Q129.2344,23.9844 128.5938,24.3125 Q127.9688,24.6406 127.4688,25.3906 Q126.9844,26.1406 126.9844,27.1719 L126.9844,28.2656 Q126.9844,29.5 127.875,30.3281 Q128.7656,31.1406 130.3594,31.1406 Q131.2969,31.1406 131.9531,30.8906 Q132.3438,30.7344 132.7656,30.2969 Q133.0313,30.0313 133.1719,29.9531 Q133.3281,29.875 133.5313,29.875 Q133.8594,29.875 134.1094,30.1406 Q134.375,30.3906 134.375,30.7344 Q134.375,31.0781 134.0313,31.4844 Q133.5313,32.0625 132.7344,32.3906 Q131.6563,32.8438 130.3594,32.8438 Q128.8438,32.8438 127.6406,32.2188 Q126.6563,31.7188 125.9688,30.6563 Q125.2813,29.5781 125.2813,28.2969 L125.2813,27.1406 Q125.2813,25.8125 125.8906,24.6719 Q126.5156,23.5156 127.6094,22.9063 Q128.7031,22.2813 129.9375,22.2813 Q130.6719,22.2813 131.3125,22.4531 Q131.9688,22.6094 132.5156,22.9688 Z " fill="#000000"/><text fill="#000000" font-family="sans-serif" font-size="14" lengthAdjust="spacing" textLength="73" x="194.75" y="26.5332">Persistency</text><text fill="#000000" font-family="sans-serif" font-size="10" lengthAdjust="spacing" textLength="162" x="150.25" y="39.9902">nz.ac.wgtn.swen225.lc.persistency</text><line style="stroke:#A80036;stroke-width:1.5;" x1="8" x2="422" y1="47.1875" y2="47.1875"/><ellipse cx="18" cy="58.1875" rx="3" ry="3" style="stroke:#038048;stroke-width:1.0;fill:none;"/><text fill="#000000" font-family="sans-serif" font-size="11" lengthAdjust="spacing" textLength="144" x="27" y="62.6064">actors: ArrayList&lt;AutoActor&gt;</text><ellipse cx="18" cy="72.0234" rx="3" ry="3" style="stroke:#038048;stroke-width:1.0;fill:none;"/><text fill="#000000" font-family="sans-serif" font-size="11" lengthAdjust="spacing" textLength="152" x="27" y="76.4424">originalBoardTreasureCount: int</text><ellipse cx="18" cy="85.8594" rx="3" ry="3" style="stroke:#038048;stroke-width:1.0;fill:none;"/><text fill="#000000" font-family="sans-serif" font-size="11" lengthAdjust="spacing" text-decoration="underline" textLength="50" x="27" y="90.2783">level1: File</text><ellipse cx="18" cy="99.6953" rx="3" ry="3" style="stroke:#038048;stroke-width:1.0;fill:none;"/><text fill="#000000" font-family="sans-serif" font-size="11" lengthAdjust="spacing" text-decoration="underline" textLength="50" x="27" y="104.1143">level2: File</text><ellipse cx="18" cy="113.5313" rx="3" ry="3" style="stroke:#038048;stroke-width:1.0;fill:none;"/><text fill="#000000" font-family="sans-serif" font-size="11" lengthAdjust="spacing" textLength="108" x="27" y="117.9502">actions: Stack&lt;String&gt;</text><ellipse cx="18" cy="127.3672" rx="3" ry="3" style="stroke:#038048;stroke-width:1.0;fill:none;"/><text fill="#000000" font-family="sans-serif" font-size="11" lengthAdjust="spacing" textLength="54" x="27" y="131.7861">playerX: int</text><ellipse cx="18" cy="141.2031" rx="3" ry="3" style="stroke:#038048;stroke-width:1.0;fill:none;"/><text fill="#000000" font-family="sans-serif" font-size="11" lengthAdjust="spacing" textLength="55" x="27" y="145.6221">playerY: int</text><ellipse cx="18" cy="155.0391" rx="3" ry="3" style="stroke:#038048;stroke-width:1.0;fill:none;"/><text fill="#000000" font-family="sans-serif" font-size="11" lengthAdjust="spacing" textLength="119" x="27" y="159.458">playerTreasureCount: int</text><ellipse cx="18" cy="168.875" rx="3" ry="3" style="stroke:#038048;stroke-width:1.0;fill:none;"/><text fill="#000000" font-family="sans-serif" font-size="11" lengthAdjust="spacing" textLength="117" x="27" y="173.2939">boardTreasureCount: int</text><ellipse cx="18" cy="182.7109" rx="3" ry="3" style="stroke:#038048;stroke-width:1.0;fill:none;"/><text fill="#000000" font-family="sans-serif" font-size="11" lengthAdjust="spacing" textLength="55" x="27" y="187.1299">timeLeft: int</text><ellipse cx="18" cy="196.5469" rx="3" ry="3" style="stroke:#038048;stroke-width:1.0;fill:none;"/><text fill="#000000" font-family="sans-serif" font-size="11" lengthAdjust="spacing" textLength="39" x="27" y="200.9658">level: int</text><ellipse cx="18" cy="210.3828" rx="3" ry="3" style="stroke:#038048;stroke-width:1.0;fill:none;"/><text fill="#000000" font-family="sans-serif" font-size="11" lengthAdjust="spacing" textLength="78" x="27" y="214.8018">message: String</text><ellipse cx="18" cy="224.2188" rx="3" ry="3" style="stroke:#038048;stroke-width:1.0;fill:none;"/><text fill="#000000" font-family="sans-serif" font-size="11" lengthAdjust="spacing" textLength="113" x="27" y="228.6377">newFileNumToSave: int</text><ellipse cx="18" cy="238.0547" rx="3" ry="3" style="stroke:#038048;stroke-width:1.0;fill:none;"/><text fill="#000000" font-family="sans-serif" font-size="11" lengthAdjust="spacing" textLength="161" x="27" y="242.4736">actionsToSave: ArrayList&lt;Move&gt;</text><ellipse cx="18" cy="251.8906" rx="3" ry="3" style="stroke:#038048;stroke-width:1.0;fill:none;"/><text fill="#000000" font-family="sans-serif" font-size="11" lengthAdjust="spacing" textLength="91" x="27" y="256.3096">playerXToSave: int</text><ellipse cx="18" cy="265.7266" rx="3" ry="3" style="stroke:#038048;stroke-width:1.0;fill:none;"/><text fill="#000000" font-family="sans-serif" font-size="11" lengthAdjust="spacing" textLength="92" x="27" y="270.1455">playerYToSave: int</text><ellipse cx="18" cy="279.5625" rx="3" ry="3" style="stroke:#038048;stroke-width:1.0;fill:none;"/><text fill="#000000" font-family="sans-serif" font-size="11" lengthAdjust="spacing" textLength="156" x="27" y="283.9814">playerTreasureCountToSave: int</text><ellipse cx="18" cy="293.3984" rx="3" ry="3" style="stroke:#038048;stroke-width:1.0;fill:none;"/><text fill="#000000" font-family="sans-serif" font-size="11" lengthAdjust="spacing" textLength="154" x="27" y="297.8174">boardTreasureCountToSave: int</text><ellipse cx="18" cy="307.2344" rx="3" ry="3" style="stroke:#038048;stroke-width:1.0;fill:none;"/><text fill="#000000" font-family="sans-serif" font-size="11" lengthAdjust="spacing" textLength="76" x="27" y="311.6533">levelToSave: int</text><ellipse cx="18" cy="321.0703" rx="3" ry="3" style="stroke:#038048;stroke-width:1.0;fill:none;"/><text fill="#000000" font-family="sans-serif" font-size="11" lengthAdjust="spacing" textLength="92" x="27" y="325.4893">timeLeftToSave: int</text><line style="stroke:#A80036;stroke-width:1.5;" x1="8" x2="422" y1="331.9063" y2="331.9063"/><ellipse cx="18" cy="342.9063" fill="#84BE84" rx="3" ry="3" style="stroke:#038048;stroke-width:1.0;"/><text fill="#000000" font-family="sans-serif" font-size="11" lengthAdjust="spacing" textLength="85" x="27" y="347.3252">Persistency(App)</text><ellipse cx="18" cy="356.7422" fill="#84BE84" rx="3" ry="3" style="stroke:#038048;stroke-width:1.0;"/><text fill="#000000" font-family="sans-serif" font-size="11" lengthAdjust="spacing" textLength="65" x="27" y="361.1611">Persistency()</text><ellipse cx="18" cy="370.5781" fill="#84BE84" rx="3" ry="3" style="stroke:#038048;stroke-width:1.0;"/><text fill="#000000" font-family="sans-serif" font-size="11" lengthAdjust="spacing" textLength="100" x="27" y="374.9971">loadGame(File): Tile[]</text><ellipse cx="18" cy="384.4141" fill="#84BE84" rx="3" ry="3" style="stroke:#038048;stroke-width:1.0;"/><text fill="#000000" font-family="sans-serif" font-size="11" lengthAdjust="spacing" textLength="390" x="27" y="388.833">setSaveParameters(int, ArrayList&lt;Move&gt;, int, int, int, int, int, int, Tile[], Chap): void</text><ellipse cx="18" cy="398.25" fill="#84BE84" rx="3" ry="3" style="stroke:#038048;stroke-width:1.0;"/><text fill="#000000" font-family="sans-serif" font-size="11" lengthAdjust="spacing" textLength="114" x="27" y="402.6689">saveGame(String): void</text><ellipse cx="18" cy="412.0859" fill="#84BE84" rx="3" ry="3" style="stroke:#038048;stroke-width:1.0;"/><text fill="#000000" font-family="sans-serif" font-size="11" lengthAdjust="spacing" textLength="98" x="27" y="416.5049">resumeGame(): void</text><ellipse cx="18" cy="425.9219" fill="#84BE84" rx="3" ry="3" style="stroke:#038048;stroke-width:1.0;"/><text fill="#000000" font-family="sans-serif" font-size="11" lengthAdjust="spacing" textLength="141" x="27" y="430.3408">getActors(): List&lt;AutoActor&gt;</text></a><text fill="#888888" font-family="sans-serif" font-size="10" lengthAdjust="spacing" textLength="184" x="123" y="454.1387">UMLDoclet 2.0.14, PlantUML 1.2021.9</text><!--MD5=[d3157a3bd34a3e2148c0b46c90b0ae3c]
@startuml
    set namespaceSeparator none
    hide empty fields
    hide empty methods

    class "<size:14>Persistency\n<size:10>nz.ac.wgtn.swen225.lc.persistency" as nz.ac.wgtn.swen225.lc.persistency.Persistency [[Persistency.html]] {
        +actors: ArrayList<AutoActor>
        +originalBoardTreasureCount: int
        {static} +level1: File
        {static} +level2: File
        +actions: Stack<String>
        +playerX: int
        +playerY: int
        +playerTreasureCount: int
        +boardTreasureCount: int
        +timeLeft: int
        +level: int
        +message: String
        +newFileNumToSave: int
        +actionsToSave: ArrayList<Move>
        +playerXToSave: int
        +playerYToSave: int
        +playerTreasureCountToSave: int
        +boardTreasureCountToSave: int
        +levelToSave: int
        +timeLeftToSave: int
        +Persistency(App)
        +Persistency()
        +loadGame(File): Tile[]
        +setSaveParameters(int, ArrayList<Move>, int, int, int, int, int, int, Tile[], Chap): void
        +saveGame(String): void
        +resumeGame(): void
        +getActors(): List<AutoActor>
    }

    center footer UMLDoclet 2.0.14, PlantUML 1.2021.9
@enduml

PlantUML version 1.2021.9(Sun Jul 25 17:13:56 ICT 2021)
(APACHE source distribution)
Java Runtime: OpenJDK Runtime Environment
JVM: OpenJDK 64-Bit Server VM
Default Encoding: Cp1252
Language: en
Country: NZ
--></g></svg>