<?xml version="1.0" encoding="UTF-8" standalone="no"?><svg xmlns="http://www.w3.org/2000/svg" xmlns:xlink="http://www.w3.org/1999/xlink" contentStyleType="text/css" height="566px" preserveAspectRatio="none" style="width:563px;height:566px;background:#FFFFFF;" version="1.1" viewBox="0 0 563 566" width="563px" zoomAndPan="magnify"><defs/><g><!--class nz.ac.wgtn.swen225.lc.persistency.Persistency--><a href="Persistency.html" target="_top" title="Persistency.html" xlink:actuate="onRequest" xlink:href="Persistency.html" xlink:show="new" xlink:title="Persistency.html" xlink:type="simple"><g id="elem_nz.ac.wgtn.swen225.lc.persistency.Persistency"><rect codeLine="5" fill="#F1F1F1" height="531.6406" id="nz.ac.wgtn.swen225.lc.persistency.Persistency" rx="2.5" ry="2.5" style="stroke:#181818;stroke-width:0.5;" width="542" x="7" y="7"/><ellipse cx="192.75" cy="27.0938" fill="#ADD1B2" rx="11" ry="11" style="stroke:#181818;stroke-width:1.0;"/><path d="M195.5156,22.9688 Q195.6719,22.75 195.8594,22.6406 Q196.0469,22.5313 196.2656,22.5313 Q196.6406,22.5313 196.875,22.7969 Q197.1094,23.0469 197.1094,23.6563 L197.1094,25.1094 Q197.1094,25.7188 196.875,25.9844 Q196.6406,26.25 196.2656,26.25 Q195.9219,26.25 195.7188,26.0469 Q195.5156,25.8594 195.4063,25.3438 Q195.3594,24.9844 195.1719,24.7969 Q194.8438,24.4219 194.2344,24.2031 Q193.625,23.9844 193,23.9844 Q192.2344,23.9844 191.5938,24.3125 Q190.9688,24.6406 190.4688,25.3906 Q189.9844,26.1406 189.9844,27.1719 L189.9844,28.2656 Q189.9844,29.5 190.875,30.3281 Q191.7656,31.1406 193.3594,31.1406 Q194.2969,31.1406 194.9531,30.8906 Q195.3438,30.7344 195.7656,30.2969 Q196.0313,30.0313 196.1719,29.9531 Q196.3281,29.875 196.5313,29.875 Q196.8594,29.875 197.1094,30.1406 Q197.375,30.3906 197.375,30.7344 Q197.375,31.0781 197.0313,31.4844 Q196.5313,32.0625 195.7344,32.3906 Q194.6563,32.8438 193.3594,32.8438 Q191.8438,32.8438 190.6406,32.2188 Q189.6563,31.7188 188.9688,30.6563 Q188.2813,29.5781 188.2813,28.2969 L188.2813,27.1406 Q188.2813,25.8125 188.8906,24.6719 Q189.5156,23.5156 190.6094,22.9063 Q191.7031,22.2813 192.9375,22.2813 Q193.6719,22.2813 194.3125,22.4531 Q194.9688,22.6094 195.5156,22.9688 Z " fill="#000000"/><text fill="#000000" font-family="sans-serif" font-size="14" lengthAdjust="spacing" textLength="73" x="257.75" y="26.5332">Persistency</text><text fill="#000000" font-family="sans-serif" font-size="10" lengthAdjust="spacing" textLength="162" x="213.25" y="39.9902">nz.ac.wgtn.swen225.lc.persistency</text><line style="stroke:#181818;stroke-width:0.5;" x1="8" x2="548" y1="47.1875" y2="47.1875"/><ellipse cx="18" cy="61.4922" fill="none" rx="3" ry="3" style="stroke:#038048;stroke-width:1.0;"/><text fill="#000000" font-family="sans-serif" font-size="14" lengthAdjust="spacing" textLength="181" x="27" y="65.7207">actors: ArrayList&lt;AutoActor&gt;</text><ellipse cx="18" cy="79.1016" fill="none" rx="3" ry="3" style="stroke:#038048;stroke-width:1.0;"/><text fill="#000000" font-family="sans-serif" font-size="14" lengthAdjust="spacing" textLength="203" x="27" y="83.3301">originalBoardTreasureCount: int</text><ellipse cx="18" cy="96.7109" fill="none" rx="3" ry="3" style="stroke:#038048;stroke-width:1.0;"/><text fill="#000000" font-family="sans-serif" font-size="14" lengthAdjust="spacing" text-decoration="underline" textLength="68" x="27" y="100.9395">level1: File</text><ellipse cx="18" cy="114.3203" fill="none" rx="3" ry="3" style="stroke:#038048;stroke-width:1.0;"/><text fill="#000000" font-family="sans-serif" font-size="14" lengthAdjust="spacing" text-decoration="underline" textLength="68" x="27" y="118.5488">level2: File</text><ellipse cx="18" cy="131.9297" fill="none" rx="3" ry="3" style="stroke:#038048;stroke-width:1.0;"/><text fill="#000000" font-family="sans-serif" font-size="14" lengthAdjust="spacing" textLength="141" x="27" y="136.1582">actions: Stack&lt;String&gt;</text><ellipse cx="18" cy="149.5391" fill="none" rx="3" ry="3" style="stroke:#038048;stroke-width:1.0;"/><text fill="#000000" font-family="sans-serif" font-size="14" lengthAdjust="spacing" textLength="70" x="27" y="153.7676">playerX: int</text><ellipse cx="18" cy="167.1484" fill="none" rx="3" ry="3" style="stroke:#038048;stroke-width:1.0;"/><text fill="#000000" font-family="sans-serif" font-size="14" lengthAdjust="spacing" textLength="71" x="27" y="171.377">playerY: int</text><ellipse cx="18" cy="184.7578" fill="none" rx="3" ry="3" style="stroke:#038048;stroke-width:1.0;"/><text fill="#000000" font-family="sans-serif" font-size="14" lengthAdjust="spacing" textLength="158" x="27" y="188.9863">playerTreasureCount: int</text><ellipse cx="18" cy="202.3672" fill="none" rx="3" ry="3" style="stroke:#038048;stroke-width:1.0;"/><text fill="#000000" font-family="sans-serif" font-size="14" lengthAdjust="spacing" textLength="156" x="27" y="206.5957">boardTreasureCount: int</text><ellipse cx="18" cy="219.9766" fill="none" rx="3" ry="3" style="stroke:#038048;stroke-width:1.0;"/><text fill="#000000" font-family="sans-serif" font-size="14" lengthAdjust="spacing" textLength="73" x="27" y="224.2051">timeLeft: int</text><ellipse cx="18" cy="237.5859" fill="none" rx="3" ry="3" style="stroke:#038048;stroke-width:1.0;"/><text fill="#000000" font-family="sans-serif" font-size="14" lengthAdjust="spacing" textLength="52" x="27" y="241.8145">level: int</text><ellipse cx="18" cy="255.1953" fill="none" rx="3" ry="3" style="stroke:#038048;stroke-width:1.0;"/><text fill="#000000" font-family="sans-serif" font-size="14" lengthAdjust="spacing" textLength="102" x="27" y="259.4238">message: String</text><ellipse cx="18" cy="272.8047" fill="none" rx="3" ry="3" style="stroke:#038048;stroke-width:1.0;"/><text fill="#000000" font-family="sans-serif" font-size="14" lengthAdjust="spacing" textLength="148" x="27" y="277.0332">newFileNumToSave: int</text><ellipse cx="18" cy="290.4141" fill="none" rx="3" ry="3" style="stroke:#038048;stroke-width:1.0;"/><text fill="#000000" font-family="sans-serif" font-size="14" lengthAdjust="spacing" textLength="208" x="27" y="294.6426">actionsToSave: ArrayList&lt;Move&gt;</text><ellipse cx="18" cy="308.0234" fill="none" rx="3" ry="3" style="stroke:#038048;stroke-width:1.0;"/><text fill="#000000" font-family="sans-serif" font-size="14" lengthAdjust="spacing" textLength="119" x="27" y="312.252">playerXToSave: int</text><ellipse cx="18" cy="325.6328" fill="none" rx="3" ry="3" style="stroke:#038048;stroke-width:1.0;"/><text fill="#000000" font-family="sans-serif" font-size="14" lengthAdjust="spacing" textLength="120" x="27" y="329.8613">playerYToSave: int</text><ellipse cx="18" cy="343.2422" fill="none" rx="3" ry="3" style="stroke:#038048;stroke-width:1.0;"/><text fill="#000000" font-family="sans-serif" font-size="14" lengthAdjust="spacing" textLength="207" x="27" y="347.4707">playerTreasureCountToSave: int</text><ellipse cx="18" cy="360.8516" fill="none" rx="3" ry="3" style="stroke:#038048;stroke-width:1.0;"/><text fill="#000000" font-family="sans-serif" font-size="14" lengthAdjust="spacing" textLength="205" x="27" y="365.0801">boardTreasureCountToSave: int</text><ellipse cx="18" cy="378.4609" fill="none" rx="3" ry="3" style="stroke:#038048;stroke-width:1.0;"/><text fill="#000000" font-family="sans-serif" font-size="14" lengthAdjust="spacing" textLength="101" x="27" y="382.6895">levelToSave: int</text><ellipse cx="18" cy="396.0703" fill="none" rx="3" ry="3" style="stroke:#038048;stroke-width:1.0;"/><text fill="#000000" font-family="sans-serif" font-size="14" lengthAdjust="spacing" textLength="122" x="27" y="400.2988">timeLeftToSave: int</text><line style="stroke:#181818;stroke-width:0.5;" x1="8" x2="548" y1="407.375" y2="407.375"/><ellipse cx="18" cy="421.6797" fill="#84BE84" rx="3" ry="3" style="stroke:#038048;stroke-width:1.0;"/><text fill="#000000" font-family="sans-serif" font-size="14" lengthAdjust="spacing" textLength="108" x="27" y="425.9082">Persistency(App)</text><ellipse cx="18" cy="439.2891" fill="#84BE84" rx="3" ry="3" style="stroke:#038048;stroke-width:1.0;"/><text fill="#000000" font-family="sans-serif" font-size="14" lengthAdjust="spacing" textLength="83" x="27" y="443.5176">Persistency()</text><ellipse cx="18" cy="456.8984" fill="#84BE84" rx="3" ry="3" style="stroke:#038048;stroke-width:1.0;"/><text fill="#000000" font-family="sans-serif" font-size="14" lengthAdjust="spacing" textLength="137" x="27" y="461.127">loadGame(File): Tile[]</text><ellipse cx="18" cy="474.5078" fill="#84BE84" rx="3" ry="3" style="stroke:#038048;stroke-width:1.0;"/><text fill="#000000" font-family="sans-serif" font-size="14" lengthAdjust="spacing" textLength="516" x="27" y="478.7363">setSaveParameters(int, ArrayList&lt;Move&gt;, int, int, int, int, int, int, Tile[], Chap): void</text><ellipse cx="18" cy="492.1172" fill="#84BE84" rx="3" ry="3" style="stroke:#038048;stroke-width:1.0;"/><text fill="#000000" font-family="sans-serif" font-size="14" lengthAdjust="spacing" textLength="149" x="27" y="496.3457">saveGame(String): void</text><ellipse cx="18" cy="509.7266" fill="#84BE84" rx="3" ry="3" style="stroke:#038048;stroke-width:1.0;"/><text fill="#000000" font-family="sans-serif" font-size="14" lengthAdjust="spacing" textLength="129" x="27" y="513.9551">resumeGame(): void</text><ellipse cx="18" cy="527.3359" fill="#84BE84" rx="3" ry="3" style="stroke:#038048;stroke-width:1.0;"/><text fill="#000000" font-family="sans-serif" font-size="14" lengthAdjust="spacing" textLength="178" x="27" y="531.5645">getActors(): List&lt;AutoActor&gt;</text></g></a><text fill="#888888" font-family="sans-serif" font-size="10" lengthAdjust="spacing" textLength="184" x="185.5" y="556.0215">UMLDoclet 2.1.0, PlantUML 1.2022.14</text><!--SRC=[XLHHQzim47xVhpWAXOG4quJjnOH0rhAzf2EG35QoFDpaYoCcIqQI7TBI_xwJuywkuxP-iF3tVRxxxgGJ080Z3nepSZaAMbEE5hsne8scJqp3GIO4bEN-17j9Ad5TD2D_C0nNk53e75pDd7oaUF9vlYBhfFEanUcthj6RkNwCK4J7rEl87KbFfryY9QAyqLu1ElXG5RMYmtRR-eeEFbEx7JnLfi8pGi5bkHWMrk9foRhPel1c4T1vep9MfbAZ-chG9XjBw0fBjwRGFWQf_N_Xa_FefNY6aQAIr2I6RrBHM_IqGmSpqcXsi_Oe_ixMtagTjcpa2azaVxtEMQCFlUWxNaT_FYXcv6L6IzftuSfx1-E3uZ2bu3nuRWXDnr3ZZoBRc3MMrFclhlY5QtRXtfHqMNblZBh-TxXNHVRgBdlHAwjAxsLUUjLBjexWO97dmtwc1Ik3oNUUla7etJ263I_RNSFpT8OqAvvAdZEECU1yusxxnb2XRxxEKSTmUy2SavH69gqK7B-oSDxH2zwIAxApue9BoLSJv0BLDrJFzRL0cit3tfYm_BnVtXcX-EAPHfFePWmhXTep2jTbQ9FHW-4_]--></g></svg>