<?xml version="1.0" encoding="UTF-8" standalone="no"?><svg xmlns="http://www.w3.org/2000/svg" xmlns:xlink="http://www.w3.org/1999/xlink" contentStyleType="text/css" height="252px" preserveAspectRatio="none" style="width:220px;height:252px;background:#FFFFFF;" version="1.1" viewBox="0 0 220 252" width="220px" zoomAndPan="magnify"><defs/><g><!--class nz.ac.wgtn.swen225.lc.domain.items.Key.Colour--><a href="Key.Colour.html" target="_top" title="Key.Colour.html" xlink:actuate="onRequest" xlink:href="Key.Colour.html" xlink:show="new" xlink:title="Key.Colour.html" xlink:type="simple"><g id="elem_nz.ac.wgtn.swen225.lc.domain.items.Key.Colour"><rect codeLine="5" fill="#F1F1F1" height="118.625" id="nz.ac.wgtn.swen225.lc.domain.items.Key.Colour" rx="2.5" ry="2.5" style="stroke:#181818;stroke-width:0.5;" width="206" x="7" y="107.19"/><ellipse cx="22" cy="127.2838" fill="#EB937F" rx="11" ry="11" style="stroke:#181818;stroke-width:1.0;"/><path d="M20.8594,128.0806 L20.8594,130.5806 L25.1875,130.5806 L25.1875,129.6588 Q25.1875,129.0494 25.4219,128.7838 Q25.6719,128.5181 26.0469,128.5181 Q26.4219,128.5181 26.6563,128.7838 Q26.8906,129.0494 26.8906,129.6588 L26.8906,132.2838 L18.8906,132.2838 Q18.2656,132.2838 18,132.0494 Q17.75,131.815 17.75,131.4244 Q17.75,131.0494 18.0156,130.815 Q18.2813,130.5806 18.8906,130.5806 L19.1563,130.5806 L19.1563,123.9244 L18.8906,123.9244 Q18.2656,123.9244 18,123.69 Q17.75,123.4556 17.75,123.065 Q17.75,122.69 18,122.4556 Q18.2656,122.2213 18.8906,122.2213 L26.5156,122.2213 L26.5156,124.815 Q26.5156,125.4244 26.2813,125.69 Q26.0625,125.94 25.6719,125.94 Q25.2969,125.94 25.0625,125.69 Q24.8281,125.4244 24.8281,124.815 L24.8281,123.9244 L20.8594,123.9244 L20.8594,126.3775 L22.3438,126.3775 Q22.3438,125.7213 22.4688,125.5338 Q22.7344,125.1275 23.2031,125.1275 Q23.5781,125.1275 23.8125,125.3931 Q24.0469,125.6431 24.0469,126.2525 L24.0469,128.2213 Q24.0469,128.7681 23.9219,128.9556 Q23.6563,129.3463 23.2031,129.3463 Q22.7344,129.3463 22.4688,128.94 Q22.3438,128.7525 22.3438,128.0806 L20.8594,128.0806 Z " fill="#000000"/><text fill="#000000" font-family="sans-serif" font-size="14" lengthAdjust="spacing" textLength="70" x="88" y="126.7232">Key.Colour</text><text fill="#000000" font-family="sans-serif" font-size="10" lengthAdjust="spacing" textLength="174" x="36" y="140.1802">nz.ac.wgtn.swen225.lc.domain.items</text><line style="stroke:#181818;stroke-width:0.5;" x1="8" x2="212" y1="147.3775" y2="147.3775"/><ellipse cx="18" cy="161.6822" fill="none" rx="3" ry="3" style="stroke:#038048;stroke-width:1.0;"/><text fill="#000000" font-family="sans-serif" font-size="14" lengthAdjust="spacing" text-decoration="underline" textLength="35" x="27" y="165.9107">BLUE</text><ellipse cx="18" cy="179.2916" fill="none" rx="3" ry="3" style="stroke:#038048;stroke-width:1.0;"/><text fill="#000000" font-family="sans-serif" font-size="14" lengthAdjust="spacing" text-decoration="underline" textLength="48" x="27" y="183.5201">GREEN</text><ellipse cx="18" cy="196.9009" fill="none" rx="3" ry="3" style="stroke:#038048;stroke-width:1.0;"/><text fill="#000000" font-family="sans-serif" font-size="14" lengthAdjust="spacing" text-decoration="underline" textLength="58" x="27" y="201.1295">YELLOW</text><ellipse cx="18" cy="214.5103" fill="none" rx="3" ry="3" style="stroke:#038048;stroke-width:1.0;"/><text fill="#000000" font-family="sans-serif" font-size="14" lengthAdjust="spacing" text-decoration="underline" textLength="29" x="27" y="218.7388">RED</text></g></a><!--class nz.ac.wgtn.swen225.lc.domain.items.Key--><a href="Key.html" target="_top" title="Key.html" xlink:actuate="onRequest" xlink:href="Key.html" xlink:show="new" xlink:title="Key.html" xlink:type="simple"><g id="elem_nz.ac.wgtn.swen225.lc.domain.items.Key"><rect codeLine="12" fill="#F1F1F1" height="40.1875" id="nz.ac.wgtn.swen225.lc.domain.items.Key" rx="2.5" ry="2.5" style="stroke:#181818;stroke-width:0.5;" width="206" x="7" y="7"/><ellipse cx="22" cy="27.0938" fill="#ADD1B2" rx="11" ry="11" style="stroke:#181818;stroke-width:1.0;"/><path d="M24.7656,22.9688 Q24.9219,22.75 25.1094,22.6406 Q25.2969,22.5313 25.5156,22.5313 Q25.8906,22.5313 26.125,22.7969 Q26.3594,23.0469 26.3594,23.6563 L26.3594,25.1094 Q26.3594,25.7188 26.125,25.9844 Q25.8906,26.25 25.5156,26.25 Q25.1719,26.25 24.9688,26.0469 Q24.7656,25.8594 24.6563,25.3438 Q24.6094,24.9844 24.4219,24.7969 Q24.0938,24.4219 23.4844,24.2031 Q22.875,23.9844 22.25,23.9844 Q21.4844,23.9844 20.8438,24.3125 Q20.2188,24.6406 19.7188,25.3906 Q19.2344,26.1406 19.2344,27.1719 L19.2344,28.2656 Q19.2344,29.5 20.125,30.3281 Q21.0156,31.1406 22.6094,31.1406 Q23.5469,31.1406 24.2031,30.8906 Q24.5938,30.7344 25.0156,30.2969 Q25.2813,30.0313 25.4219,29.9531 Q25.5781,29.875 25.7813,29.875 Q26.1094,29.875 26.3594,30.1406 Q26.625,30.3906 26.625,30.7344 Q26.625,31.0781 26.2813,31.4844 Q25.7813,32.0625 24.9844,32.3906 Q23.9063,32.8438 22.6094,32.8438 Q21.0938,32.8438 19.8906,32.2188 Q18.9063,31.7188 18.2188,30.6563 Q17.5313,29.5781 17.5313,28.2969 L17.5313,27.1406 Q17.5313,25.8125 18.1406,24.6719 Q18.7656,23.5156 19.8594,22.9063 Q20.9531,22.2813 22.1875,22.2813 Q22.9219,22.2813 23.5625,22.4531 Q24.2188,22.6094 24.7656,22.9688 Z " fill="#000000"/><text fill="#000000" font-family="sans-serif" font-size="14" lengthAdjust="spacing" textLength="24" x="111" y="26.5332">Key</text><text fill="#000000" font-family="sans-serif" font-size="10" lengthAdjust="spacing" textLength="174" x="36" y="39.9902">nz.ac.wgtn.swen225.lc.domain.items</text></g></a><!--reverse link nz.ac.wgtn.swen225.lc.domain.items.Key to nz.ac.wgtn.swen225.lc.domain.items.Key.Colour--><g id="link_nz.ac.wgtn.swen225.lc.domain.items.Key_nz.ac.wgtn.swen225.lc.domain.items.Key.Colour"><path codeLine="14" d="M110,63.43 C110,76.7 110,92.16 110,106.97 " fill="none" id="nz.ac.wgtn.swen225.lc.domain.items.Key-backto-nz.ac.wgtn.swen225.lc.domain.items.Key.Colour" style="stroke:#181818;stroke-width:1.0;"/><ellipse cx="110" cy="56.49" fill="#FFFFFF" rx="8" ry="8" style="stroke:#181818;stroke-width:1.0;"/><line style="stroke:#181818;stroke-width:1.0;" x1="110" x2="110" y1="64.49" y2="48.49"/><line style="stroke:#181818;stroke-width:1.0;" x1="102" x2="118" y1="56.49" y2="56.49"/></g><text fill="#888888" font-family="sans-serif" font-size="10" lengthAdjust="spacing" textLength="184" x="11" y="242.1959">UMLDoclet 2.1.0, PlantUML 1.2022.14</text><!--SRC=[jP9BIyD0483l_egX82XjXpReHKeFsk31-A1IH6eFosPg5dPdGsPhQKl_ksaIA4f0FJYNPRxPrpSC081G05QE95UQdYbNXGg-0FPC9sKPCfCIaCl31fQ6R2hVgQEG-H9Nd7Zbe3CIiwMhuSNuZZPuuwrV5M_SmC6OjwWqhjy3ewo9e-WIhSRKEsKOJI0d7L02Fs_3u_KmdnyJp8ApYmNigYyTOYT11QFtqBrEPd4Blft6yKCBVusJvF6bfJ2D9nNTrzxQAf6lulzbtAZMZlNhlppOxVV_rjN6ZJXG0Kll3yliFfbuRSkfYN28WnuyMSMXf73wGOKOpsVddm00]--></g></svg>