<?xml version="1.0" encoding="UTF-8" standalone="no"?><svg xmlns="http://www.w3.org/2000/svg" xmlns:xlink="http://www.w3.org/1999/xlink" contentScriptType="application/ecmascript" contentStyleType="text/css" height="325px" preserveAspectRatio="none" style="width:333px;height:325px;background:#FFFFFF;" version="1.1" viewBox="0 0 333 325" width="333px" zoomAndPan="magnify"><defs><filter height="300%" id="f14k66sxx2vd8q" width="300%" x="-1" y="-1"><feGaussianBlur result="blurOut" stdDeviation="2.0"/><feColorMatrix in="blurOut" result="blurOut2" type="matrix" values="0 0 0 0 0 0 0 0 0 0 0 0 0 0 0 0 0 0 .4 0"/><feOffset dx="4.0" dy="4.0" in="blurOut2" result="blurOut3"/><feBlend in="SourceGraphic" in2="blurOut3" mode="normal"/></filter></defs><g><!--MD5=[33263ba4a3562d8c6d6d5065b9651afc]
class nz.ac.wgtn.swen225.lc.domain.items.Key--><a href="Key.html" target="_top" title="Key.html" xlink:actuate="onRequest" xlink:href="Key.html" xlink:show="new" xlink:title="Key.html" xlink:type="simple"><rect codeLine="5" fill="#FEFECE" filter="url(#f14k66sxx2vd8q)" height="80.6517" id="nz.ac.wgtn.swen225.lc.domain.items.Key" style="stroke:#A80036;stroke-width:1.5;" width="210" x="27" y="109.69"/><ellipse cx="42" cy="131.034" fill="#ADD1B2" rx="11" ry="11" style="stroke:#A80036;stroke-width:1.0;"/><path d="M41.4688,137.9558 Q39.7188,137.9558 38.5781,137.2215 Q37.4531,136.4715 36.8906,135.1277 Q36.3438,133.7683 36.3438,131.9715 Q36.3438,129.9402 37,128.4871 Q37.6563,127.034 38.9375,126.2527 Q40.2188,125.4715 42.0938,125.4715 Q42.9844,125.4715 43.6563,125.659 Q44.3281,125.8308 45.0156,126.1746 L44.2031,128.1902 Q43.5781,127.8777 43.0313,127.7527 Q42.5,127.6277 42.0156,127.6277 Q40.8438,127.6277 40.1406,128.159 Q39.4375,128.6902 39.1406,129.6433 Q38.8438,130.5965 38.8438,131.8621 Q38.8438,133.8777 39.5625,134.8465 Q40.2813,135.7996 41.875,135.7996 Q42.4688,135.7996 43.0938,135.6433 Q43.7188,135.4871 44.5469,135.1121 L44.5469,137.3308 Q43.8125,137.6433 43.0156,137.7996 Q42.2344,137.9558 41.4688,137.9558 Z " fill="#000000"/><text fill="#000000" font-family="sans-serif" font-size="14" lengthAdjust="spacing" textLength="24" x="133" y="129.6559">Key</text><text fill="#000000" font-family="sans-serif" font-size="10" lengthAdjust="spacing" textLength="178" x="56" y="144.4479">nz.ac.wgtn.swen225.lc.domain.items</text><line style="stroke:#A80036;stroke-width:1.5;" x1="28" x2="236" y1="152.3779" y2="152.3779"/><ellipse cx="38" cy="163.3779" fill="#84BE84" rx="3" ry="3" style="stroke:#038048;stroke-width:1.0;"/><text fill="#000000" font-family="sans-serif" font-size="11" lengthAdjust="spacing" textLength="61" x="47" y="168.1368">Key(Colour)</text><ellipse cx="38" cy="178.3598" fill="#84BE84" rx="3" ry="3" style="stroke:#038048;stroke-width:1.0;"/><text fill="#000000" font-family="sans-serif" font-size="11" lengthAdjust="spacing" textLength="82" x="47" y="183.1187">colour(): Colour</text></a><!--MD5=[aeced6b90a5f9cea7e9b0d4e8b5a9b7c]
class java.lang.Record--><rect codeLine="10" fill="#FEFECE" filter="url(#f14k66sxx2vd8q)" height="42.6879" id="java.lang.Record" style="stroke:#A80036;stroke-width:1.5;" width="76" x="7" y="7"/><ellipse cx="22" cy="28.344" fill="#A9DCDF" rx="11" ry="11" style="stroke:#A80036;stroke-width:1.0;"/><path d="M17.1719,34.094 L20.5156,21.9065 L23.6563,21.9065 L27.0313,34.094 L24.5625,34.094 L23.8281,31.0783 L20.3125,31.0783 L19.5625,34.094 L17.1719,34.094 Z M21.5781,26.0471 L20.8281,29.0471 L23.3438,29.0471 L22.625,26.0471 Q22.4844,25.469 22.3594,24.9221 Q22.2344,24.3596 22.0938,23.7815 Q21.9844,24.3596 21.8438,24.9221 Q21.7031,25.469 21.5781,26.0471 Z " fill="#000000"/><text fill="#000000" font-family="sans-serif" font-size="14" font-style="italic" lengthAdjust="spacing" textLength="43" x="36.5" y="26.9659">Record</text><text fill="#000000" font-family="sans-serif" font-size="10" font-style="italic" lengthAdjust="spacing" textLength="44" x="36" y="41.7579">java.lang</text><!--MD5=[79cf4b4ecd0afc17190cd5c850597216]
class nz.ac.wgtn.swen225.lc.domain.items.Item--><a href="Item.html" target="_top" title="Item.html" xlink:actuate="onRequest" xlink:href="Item.html" xlink:show="new" xlink:title="Item.html" xlink:type="simple"><rect codeLine="11" fill="#FEFECE" filter="url(#f14k66sxx2vd8q)" height="42.6879" id="nz.ac.wgtn.swen225.lc.domain.items.Item" style="stroke:#A80036;stroke-width:1.5;" width="201" x="118.5" y="7"/><ellipse cx="133.5" cy="28.344" fill="#B4A7E5" rx="11" ry="11" style="stroke:#A80036;stroke-width:1.0;"/><path d="M129.5313,34.844 L129.5313,33.1408 L131.8906,32.8752 L131.8906,24.6721 L129.5313,24.4065 L129.5313,22.7033 L136.6719,22.7033 L136.6719,24.4065 L134.25,24.6721 L134.25,32.8752 L136.6719,33.1408 L136.6719,34.844 L129.5313,34.844 Z " fill="#000000"/><text fill="#000000" font-family="sans-serif" font-size="14" font-style="italic" lengthAdjust="spacing" textLength="29" x="217.5" y="26.9659">Item</text><text fill="#000000" font-family="sans-serif" font-size="10" font-style="italic" lengthAdjust="spacing" textLength="169" x="147.5" y="41.7579">nz.ac.wgtn.swen225.lc.domain.items</text></a><!--MD5=[eaa084a661f43fd9820f39df5da5e3cd]
class nz.ac.wgtn.swen225.lc.domain.items.Key.Colour--><a href="Key.Colour.html" target="_top" title="Key.Colour.html" xlink:actuate="onRequest" xlink:href="Key.Colour.html" xlink:show="new" xlink:title="Key.Colour.html" xlink:type="simple"><rect codeLine="12" fill="#FEFECE" filter="url(#f14k66sxx2vd8q)" height="42.6879" id="nz.ac.wgtn.swen225.lc.domain.items.Key.Colour" style="stroke:#A80036;stroke-width:1.5;" width="210" x="27" y="250.34"/><ellipse cx="42" cy="271.684" fill="#EB937F" rx="11" ry="11" style="stroke:#A80036;stroke-width:1.0;"/><path d="M38.3594,278.184 L38.3594,266.0433 L46.0156,266.0433 L46.0156,268.1683 L40.7344,268.1683 L40.7344,270.8246 L45.75,270.8246 L45.75,272.9496 L40.7344,272.9496 L40.7344,276.059 L46.0156,276.059 L46.0156,278.184 L38.3594,278.184 Z " fill="#000000"/><text fill="#000000" font-family="sans-serif" font-size="14" lengthAdjust="spacing" textLength="72" x="109" y="270.3059">Key.Colour</text><text fill="#000000" font-family="sans-serif" font-size="10" lengthAdjust="spacing" textLength="178" x="56" y="285.0979">nz.ac.wgtn.swen225.lc.domain.items</text></a><!--MD5=[c5ffb01d86f775a2bbda104a7481f294]
reverse link java.lang.Record to nz.ac.wgtn.swen225.lc.domain.items.Key--><path codeLine="14" d="M71.99,66.47 C81.89,80.09 93.13,95.56 103.19,109.39 " fill="none" id="java.lang.Record-backto-nz.ac.wgtn.swen225.lc.domain.items.Key" style="stroke:#A80036;stroke-width:1.0;"/><polygon fill="none" points="66.05,71.21,59.96,50.92,77.38,62.98,66.05,71.21" style="stroke:#A80036;stroke-width:1.0;"/><!--MD5=[4baffe0663e8cf563b0133e851681f4e]
reverse link nz.ac.wgtn.swen225.lc.domain.items.Item to nz.ac.wgtn.swen225.lc.domain.items.Key--><path codeLine="15" d="M192.01,66.47 C182.11,80.09 170.87,95.56 160.81,109.39 " fill="none" id="nz.ac.wgtn.swen225.lc.domain.items.Item-backto-nz.ac.wgtn.swen225.lc.domain.items.Key" style="stroke:#A80036;stroke-width:1.0;stroke-dasharray:7.0,7.0;"/><polygon fill="none" points="186.62,62.98,204.04,50.92,197.95,71.21,186.62,62.98" style="stroke:#A80036;stroke-width:1.0;"/><!--MD5=[d1764850d17250fae41739f82b1d0f23]
reverse link nz.ac.wgtn.swen225.lc.domain.items.Key to nz.ac.wgtn.swen225.lc.domain.items.Key.Colour--><path codeLine="16" d="M132,206.41 C132,221.95 132,237.9 132,250.02 " fill="none" id="nz.ac.wgtn.swen225.lc.domain.items.Key-backto-nz.ac.wgtn.swen225.lc.domain.items.Key.Colour" style="stroke:#A80036;stroke-width:1.0;"/><ellipse cx="132" cy="199.53" fill="#FFFFFF" rx="8" ry="8" style="stroke:#A80036;stroke-width:1.0;"/><line style="stroke:#A80036;stroke-width:1.0;" x1="132" x2="132" y1="207.53" y2="191.53"/><line style="stroke:#A80036;stroke-width:1.0;" x1="124" x2="140" y1="199.53" y2="199.53"/><text fill="#888888" font-family="sans-serif" font-size="10" lengthAdjust="spacing" textLength="182" x="69.25" y="316.7179">UMLDoclet 2.0.14, PlantUML 1.2021.9</text><!--MD5=[04976b570091d925ededd418118070d5]
@startuml
    set namespaceSeparator none
    hide empty fields
    hide empty methods

    class "<size:14>Key\n<size:10>nz.ac.wgtn.swen225.lc.domain.items" as nz.ac.wgtn.swen225.lc.domain.items.Key [[Key.html]] {
        +Key(Colour)
        +colour(): Colour
    }

    abstract class "<size:14>Record\n<size:10>java.lang" as java.lang.Record
    interface "<size:14>Item\n<size:10>nz.ac.wgtn.swen225.lc.domain.items" as nz.ac.wgtn.swen225.lc.domain.items.Item [[Item.html]]
    enum "<size:14>Key.Colour\n<size:10>nz.ac.wgtn.swen225.lc.domain.items" as nz.ac.wgtn.swen225.lc.domain.items.Key.Colour [[Key.Colour.html]]

    java.lang.Record <|- - nz.ac.wgtn.swen225.lc.domain.items.Key
    nz.ac.wgtn.swen225.lc.domain.items.Item <|.. nz.ac.wgtn.swen225.lc.domain.items.Key
    nz.ac.wgtn.swen225.lc.domain.items.Key +- - nz.ac.wgtn.swen225.lc.domain.items.Key.Colour

    center footer UMLDoclet 2.0.14, PlantUML 1.2021.9
@enduml

PlantUML version 1.2021.9(Sun Jul 25 22:13:56 NZST 2021)
(APACHE source distribution)
Java Runtime: OpenJDK Runtime Environment
JVM: OpenJDK 64-Bit Server VM
Default Encoding: UTF-8
Language: en
Country: NZ
--></g></svg>