<?xml version="1.0" encoding="UTF-8" standalone="no"?><svg xmlns="http://www.w3.org/2000/svg" xmlns:xlink="http://www.w3.org/1999/xlink" contentStyleType="text/css" height="316px" preserveAspectRatio="none" style="width:331px;height:316px;background:#FFFFFF;" version="1.1" viewBox="0 0 331 316" width="331px" zoomAndPan="magnify"><defs/><g><!--class nz.ac.wgtn.swen225.lc.domain.items.Key--><a href="Key.html" target="_top" title="Key.html" xlink:actuate="onRequest" xlink:href="Key.html" xlink:show="new" xlink:title="Key.html" xlink:type="simple"><g id="elem_nz.ac.wgtn.swen225.lc.domain.items.Key"><rect codeLine="5" fill="#F1F1F1" height="83.4063" id="nz.ac.wgtn.swen225.lc.domain.items.Key" rx="2.5" ry="2.5" style="stroke:#181818;stroke-width:0.5;" width="206" x="31" y="107.19"/><ellipse cx="46" cy="127.2837" fill="#ADD1B2" rx="11" ry="11" style="stroke:#181818;stroke-width:1.0;"/><path d="M48.7656,123.1587 Q48.9219,122.94 49.1094,122.8306 Q49.2969,122.7212 49.5156,122.7212 Q49.8906,122.7212 50.125,122.9869 Q50.3594,123.2369 50.3594,123.8462 L50.3594,125.2994 Q50.3594,125.9087 50.125,126.1744 Q49.8906,126.44 49.5156,126.44 Q49.1719,126.44 48.9688,126.2369 Q48.7656,126.0494 48.6563,125.5337 Q48.6094,125.1744 48.4219,124.9869 Q48.0938,124.6119 47.4844,124.3931 Q46.875,124.1744 46.25,124.1744 Q45.4844,124.1744 44.8438,124.5025 Q44.2188,124.8306 43.7188,125.5806 Q43.2344,126.3306 43.2344,127.3619 L43.2344,128.4556 Q43.2344,129.69 44.125,130.5181 Q45.0156,131.3306 46.6094,131.3306 Q47.5469,131.3306 48.2031,131.0806 Q48.5938,130.9244 49.0156,130.4869 Q49.2813,130.2212 49.4219,130.1431 Q49.5781,130.065 49.7813,130.065 Q50.1094,130.065 50.3594,130.3306 Q50.625,130.5806 50.625,130.9244 Q50.625,131.2681 50.2813,131.6744 Q49.7813,132.2525 48.9844,132.5806 Q47.9063,133.0337 46.6094,133.0337 Q45.0938,133.0337 43.8906,132.4087 Q42.9063,131.9087 42.2188,130.8462 Q41.5313,129.7681 41.5313,128.4869 L41.5313,127.3306 Q41.5313,126.0025 42.1406,124.8619 Q42.7656,123.7056 43.8594,123.0962 Q44.9531,122.4712 46.1875,122.4712 Q46.9219,122.4712 47.5625,122.6431 Q48.2188,122.7994 48.7656,123.1587 Z " fill="#000000"/><text fill="#000000" font-family="sans-serif" font-size="14" lengthAdjust="spacing" textLength="24" x="135" y="126.7232">Key</text><text fill="#000000" font-family="sans-serif" font-size="10" lengthAdjust="spacing" textLength="174" x="60" y="140.1802">nz.ac.wgtn.swen225.lc.domain.items</text><line style="stroke:#181818;stroke-width:0.5;" x1="32" x2="236" y1="147.3775" y2="147.3775"/><ellipse cx="42" cy="161.6822" fill="#84BE84" rx="3" ry="3" style="stroke:#038048;stroke-width:1.0;"/><text fill="#000000" font-family="sans-serif" font-size="14" lengthAdjust="spacing" textLength="76" x="51" y="165.9107">Key(Colour)</text><ellipse cx="42" cy="179.2916" fill="#84BE84" rx="3" ry="3" style="stroke:#038048;stroke-width:1.0;"/><text fill="#000000" font-family="sans-serif" font-size="14" lengthAdjust="spacing" textLength="99" x="51" y="183.5201">colour(): Colour</text></g></a><!--class java.lang.Record--><g id="elem_java.lang.Record"><rect codeLine="10" fill="#F1F1F1" height="40.1875" id="java.lang.Record" rx="2.5" ry="2.5" style="stroke:#181818;stroke-width:0.5;" width="78" x="7" y="7"/><ellipse cx="22" cy="27.0938" fill="#A9DCDF" rx="11" ry="11" style="stroke:#181818;stroke-width:1.0;"/><path d="M24.1875,28.8594 L20.0469,28.8594 L19.625,29.8906 L20.0469,29.8906 Q20.6563,29.8906 20.9219,30.125 Q21.1875,30.3594 21.1875,30.75 Q21.1875,31.125 20.9219,31.3594 Q20.6563,31.5938 20.0469,31.5938 L17.75,31.5938 Q17.1406,31.5938 16.8906,31.3594 Q16.625,31.125 16.625,30.7344 Q16.625,30.3594 16.9063,30.125 Q17.1719,29.875 17.7969,29.8906 L20.4688,23.2344 L19.3594,23.2344 Q18.75,23.2344 18.4844,23 Q18.2188,22.7656 18.2188,22.375 Q18.2188,22 18.4844,21.7656 Q18.75,21.5313 19.3594,21.5313 L23.0313,21.5313 L26.4219,29.8906 Q27.0156,29.8906 27.2031,30.0313 Q27.5938,30.2969 27.5938,30.75 Q27.5938,31.125 27.3281,31.3594 Q27.0781,31.5938 26.4688,31.5938 L24.1719,31.5938 Q23.5625,31.5938 23.2969,31.3594 Q23.0313,31.125 23.0313,30.7344 Q23.0313,30.3594 23.2969,30.125 Q23.5625,29.8906 24.1719,29.8906 L24.5938,29.8906 L24.1875,28.8594 Z M23.4688,27.1563 L22.1094,23.7813 L20.7344,27.1563 L23.4688,27.1563 Z " fill="#000000"/><text fill="#000000" font-family="sans-serif" font-size="14" font-style="italic" lengthAdjust="spacing" textLength="46" x="36" y="26.5332">Record</text><text fill="#000000" font-family="sans-serif" font-size="10" font-style="italic" lengthAdjust="spacing" textLength="43" x="37.5" y="39.9902">java.lang</text></g><!--class nz.ac.wgtn.swen225.lc.domain.items.Item--><a href="Item.html" target="_top" title="Item.html" xlink:actuate="onRequest" xlink:href="Item.html" xlink:show="new" xlink:title="Item.html" xlink:type="simple"><g id="elem_nz.ac.wgtn.swen225.lc.domain.items.Item"><rect codeLine="11" fill="#F1F1F1" height="40.1875" id="nz.ac.wgtn.swen225.lc.domain.items.Item" rx="2.5" ry="2.5" style="stroke:#181818;stroke-width:0.5;" width="204" x="120" y="7"/><ellipse cx="135" cy="27.0938" fill="#B4A7E5" rx="11" ry="11" style="stroke:#181818;stroke-width:1.0;"/><path d="M135.9531,23.7344 L135.9531,30.3906 L137.6719,30.3906 Q138.2813,30.3906 138.5469,30.625 Q138.8125,30.8594 138.8125,31.25 Q138.8125,31.625 138.5469,31.8594 Q138.2813,32.0938 137.6719,32.0938 L132.5313,32.0938 Q131.9219,32.0938 131.6563,31.8594 Q131.3906,31.625 131.3906,31.2344 Q131.3906,30.8594 131.6563,30.625 Q131.9219,30.3906 132.5313,30.3906 L134.25,30.3906 L134.25,23.7344 L132.5313,23.7344 Q131.9219,23.7344 131.6563,23.5 Q131.3906,23.2656 131.3906,22.875 Q131.3906,22.5 131.6563,22.2656 Q131.9219,22.0313 132.5313,22.0313 L137.6719,22.0313 Q138.2813,22.0313 138.5469,22.2656 Q138.8125,22.5 138.8125,22.875 Q138.8125,23.2656 138.5469,23.5 Q138.2813,23.7344 137.6719,23.7344 L135.9531,23.7344 Z " fill="#000000"/><text fill="#000000" font-family="sans-serif" font-size="14" font-style="italic" lengthAdjust="spacing" textLength="27" x="221.5" y="26.5332">Item</text><text fill="#000000" font-family="sans-serif" font-size="10" font-style="italic" lengthAdjust="spacing" textLength="172" x="149" y="39.9902">nz.ac.wgtn.swen225.lc.domain.items</text></g></a><!--class nz.ac.wgtn.swen225.lc.domain.items.Key.Colour--><a href="Key.Colour.html" target="_top" title="Key.Colour.html" xlink:actuate="onRequest" xlink:href="Key.Colour.html" xlink:show="new" xlink:title="Key.Colour.html" xlink:type="simple"><g id="elem_nz.ac.wgtn.swen225.lc.domain.items.Key.Colour"><rect codeLine="12" fill="#F1F1F1" height="40.1875" id="nz.ac.wgtn.swen225.lc.domain.items.Key.Colour" rx="2.5" ry="2.5" style="stroke:#181818;stroke-width:0.5;" width="206" x="31" y="250.59"/><ellipse cx="46" cy="270.6838" fill="#EB937F" rx="11" ry="11" style="stroke:#181818;stroke-width:1.0;"/><path d="M44.8594,271.4806 L44.8594,273.9806 L49.1875,273.9806 L49.1875,273.0588 Q49.1875,272.4494 49.4219,272.1838 Q49.6719,271.9181 50.0469,271.9181 Q50.4219,271.9181 50.6563,272.1838 Q50.8906,272.4494 50.8906,273.0588 L50.8906,275.6838 L42.8906,275.6838 Q42.2656,275.6838 42,275.4494 Q41.75,275.215 41.75,274.8244 Q41.75,274.4494 42.0156,274.215 Q42.2813,273.9806 42.8906,273.9806 L43.1563,273.9806 L43.1563,267.3244 L42.8906,267.3244 Q42.2656,267.3244 42,267.09 Q41.75,266.8556 41.75,266.465 Q41.75,266.09 42,265.8556 Q42.2656,265.6213 42.8906,265.6213 L50.5156,265.6213 L50.5156,268.215 Q50.5156,268.8244 50.2813,269.09 Q50.0625,269.34 49.6719,269.34 Q49.2969,269.34 49.0625,269.09 Q48.8281,268.8244 48.8281,268.215 L48.8281,267.3244 L44.8594,267.3244 L44.8594,269.7775 L46.3438,269.7775 Q46.3438,269.1213 46.4688,268.9338 Q46.7344,268.5275 47.2031,268.5275 Q47.5781,268.5275 47.8125,268.7931 Q48.0469,269.0431 48.0469,269.6525 L48.0469,271.6213 Q48.0469,272.1681 47.9219,272.3556 Q47.6563,272.7463 47.2031,272.7463 Q46.7344,272.7463 46.4688,272.34 Q46.3438,272.1525 46.3438,271.4806 L44.8594,271.4806 Z " fill="#000000"/><text fill="#000000" font-family="sans-serif" font-size="14" lengthAdjust="spacing" textLength="70" x="112" y="270.1232">Key.Colour</text><text fill="#000000" font-family="sans-serif" font-size="10" lengthAdjust="spacing" textLength="174" x="60" y="283.5802">nz.ac.wgtn.swen225.lc.domain.items</text></g></a><!--reverse link java.lang.Record to nz.ac.wgtn.swen225.lc.domain.items.Key--><g id="link_java.lang.Record_nz.ac.wgtn.swen225.lc.domain.items.Key"><path codeLine="14" d="M72.71,64.45 C82.58,77.89 93.83,93.21 103.98,107.02 " fill="none" id="java.lang.Record-backto-nz.ac.wgtn.swen225.lc.domain.items.Key" style="stroke:#181818;stroke-width:1.0;"/><polygon fill="none" points="66.53,68.87,60.33,48.61,77.82,60.58,66.53,68.87" style="stroke:#181818;stroke-width:1.0;"/></g><!--reverse link nz.ac.wgtn.swen225.lc.domain.items.Item to nz.ac.wgtn.swen225.lc.domain.items.Key--><g id="link_nz.ac.wgtn.swen225.lc.domain.items.Item_nz.ac.wgtn.swen225.lc.domain.items.Key"><path codeLine="15" d="M195.29,64.45 C185.42,77.89 174.17,93.21 164.02,107.02 " fill="none" id="nz.ac.wgtn.swen225.lc.domain.items.Item-backto-nz.ac.wgtn.swen225.lc.domain.items.Key" style="stroke:#181818;stroke-width:1.0;stroke-dasharray:7.0,7.0;"/><polygon fill="none" points="190.18,60.58,207.67,48.61,201.47,68.87,190.18,60.58" style="stroke:#181818;stroke-width:1.0;"/></g><!--reverse link nz.ac.wgtn.swen225.lc.domain.items.Key to nz.ac.wgtn.swen225.lc.domain.items.Key.Colour--><g id="link_nz.ac.wgtn.swen225.lc.domain.items.Key_nz.ac.wgtn.swen225.lc.domain.items.Key.Colour"><path codeLine="16" d="M134,206.75 C134,222.35 134,238.22 134,250.12 " fill="none" id="nz.ac.wgtn.swen225.lc.domain.items.Key-backto-nz.ac.wgtn.swen225.lc.domain.items.Key.Colour" style="stroke:#181818;stroke-width:1.0;"/><ellipse cx="134" cy="199.78" fill="#FFFFFF" rx="8" ry="8" style="stroke:#181818;stroke-width:1.0;"/><line style="stroke:#181818;stroke-width:1.0;" x1="134" x2="134" y1="207.78" y2="191.78"/><line style="stroke:#181818;stroke-width:1.0;" x1="126" x2="142" y1="199.78" y2="199.78"/></g><text fill="#888888" font-family="sans-serif" font-size="10" lengthAdjust="spacing" textLength="184" x="66.5" y="306.1584">UMLDoclet 2.1.0, PlantUML 1.2022.14</text><!--SRC=[jLDDJm8n4BtxAoOa9hj19a3qGWWNlHWrCHfFo67i3cnDFqXR823-TxlTLH4FSf0UsioRvlNDcmu0WES0XZJxEGb-v3av2jQ1iOPFOXfAMJ2mdeSrJ2Mhmk-ZcaDf8vnmeSXxQ0sztF2WTpwwuVMpQQBko6oG1AvcmQ1ViUdtBr09BAmcQL06rhu5vE7lQnXvOJoEEvP1gya4tjBprMf7DBkqoYvS_WsA16Jv0EfKohpNekd51qSY_5B_mCAwOgU0LreIAZApfFChmlfY8fCci9j6BtTuhgFcezXG4KSVggCn8cbWiz0_cu1rrSVgHKFVjAGEFWKbHVjMmN3RwHn8dWWEDMEuHVndtkgljGzMsrJVZ0DNlm6crbR7qztjbHKg3bmVUzWzW_leI8Wed2xPUMbDbdy0]--></g></svg>