<?xml version="1.0" encoding="UTF-8" standalone="no"?><svg xmlns="http://www.w3.org/2000/svg" xmlns:xlink="http://www.w3.org/1999/xlink" contentScriptType="application/ecmascript" contentStyleType="text/css" height="439px" preserveAspectRatio="none" style="width:427px;height:439px;background:#FFFFFF;" version="1.1" viewBox="0 0 427 439" width="427px" zoomAndPan="magnify"><defs><filter height="300%" id="f517m0wdnokmf" width="300%" x="-1" y="-1"><feGaussianBlur result="blurOut" stdDeviation="2.0"/><feColorMatrix in="blurOut" result="blurOut2" type="matrix" values="0 0 0 0 0 0 0 0 0 0 0 0 0 0 0 0 0 0 .4 0"/><feOffset dx="4.0" dy="4.0" in="blurOut2" result="blurOut3"/><feBlend in="SourceGraphic" in2="blurOut3" mode="normal"/></filter></defs><g><!--MD5=[2de5152d42c23948cff72f7687e4fe38]
cluster nz.ac.wgtn.swen225.lc.domain.items--><polygon fill="#FFFFFF" filter="url(#f517m0wdnokmf)" points="16,6.602,276,6.602,283,31.6699,286,31.6699,286,414.492,16,414.492,16,6.602" style="stroke:#000000;stroke-width:1.5;"/><line style="stroke:#000000;stroke-width:1.5;" x1="16" x2="283" y1="31.6699" y2="31.6699"/><text fill="#000000" font-family="sans-serif" font-size="14" font-weight="bold" lengthAdjust="spacing" textLength="254" x="20" y="23.5679">nz.ac.wgtn.swen225.lc.domain.items</text><!--MD5=[aa8f7b917213fcc1c2766e2d59b49067]
cluster java.lang--><polygon fill="#FFFFFF" filter="url(#f517m0wdnokmf)" points="310,6.602,378,6.602,385,31.6699,410,31.6699,410,108.602,310,108.602,310,6.602" style="stroke:#000000;stroke-width:1.5;"/><line style="stroke:#000000;stroke-width:1.5;" x1="310" x2="385" y1="31.6699" y2="31.6699"/><text fill="#000000" font-family="sans-serif" font-size="14" font-weight="bold" lengthAdjust="spacing" textLength="62" x="314" y="23.5679">java.lang</text><!--MD5=[79cf4b4ecd0afc17190cd5c850597216]
class nz.ac.wgtn.swen225.lc.domain.items.Item--><a href="Item.html" target="_top" title="Item.html" xlink:actuate="onRequest" xlink:href="Item.html" xlink:show="new" xlink:title="Item.html" xlink:type="simple"><rect codeLine="3" fill="#FEFECE" filter="url(#f517m0wdnokmf)" height="48" id="nz.ac.wgtn.swen225.lc.domain.items.Item" style="stroke:#A80036;stroke-width:1.5;" width="57" x="187.5" y="44.602"/><ellipse cx="202.5" cy="60.602" fill="#B4A7E5" rx="11" ry="11" style="stroke:#A80036;stroke-width:1.0;"/><path d="M198.5313,67.102 L198.5313,65.3989 L200.8906,65.1332 L200.8906,56.9301 L198.5313,56.6645 L198.5313,54.9614 L205.6719,54.9614 L205.6719,56.6645 L203.25,56.9301 L203.25,65.1332 L205.6719,65.3989 L205.6719,67.102 L198.5313,67.102 Z " fill="#000000"/><text fill="#000000" font-family="sans-serif" font-size="12" font-style="italic" lengthAdjust="spacing" textLength="25" x="216.5" y="65.258">Item</text><line style="stroke:#A80036;stroke-width:1.5;" x1="188.5" x2="243.5" y1="76.602" y2="76.602"/><line style="stroke:#A80036;stroke-width:1.5;" x1="188.5" x2="243.5" y1="84.602" y2="84.602"/></a><!--MD5=[33263ba4a3562d8c6d6d5065b9651afc]
class nz.ac.wgtn.swen225.lc.domain.items.Key--><a href="Key.html" target="_top" title="Key.html" xlink:actuate="onRequest" xlink:href="Key.html" xlink:show="new" xlink:title="Key.html" xlink:type="simple"><rect codeLine="5" fill="#FEFECE" filter="url(#f517m0wdnokmf)" height="77.9638" id="nz.ac.wgtn.swen225.lc.domain.items.Key" style="stroke:#A80036;stroke-width:1.5;" width="108" x="162" y="152.602"/><ellipse cx="202.2" cy="168.602" fill="#ADD1B2" rx="11" ry="11" style="stroke:#A80036;stroke-width:1.0;"/><path d="M201.6688,175.5239 Q199.9188,175.5239 198.7781,174.7895 Q197.6531,174.0395 197.0906,172.6957 Q196.5438,171.3364 196.5438,169.5395 Q196.5438,167.5082 197.2,166.0551 Q197.8563,164.602 199.1375,163.8207 Q200.4188,163.0395 202.2938,163.0395 Q203.1844,163.0395 203.8563,163.227 Q204.5281,163.3989 205.2156,163.7426 L204.4031,165.7582 Q203.7781,165.4457 203.2313,165.3207 Q202.7,165.1957 202.2156,165.1957 Q201.0438,165.1957 200.3406,165.727 Q199.6375,166.2582 199.3406,167.2114 Q199.0438,168.1645 199.0438,169.4301 Q199.0438,171.4457 199.7625,172.4145 Q200.4813,173.3676 202.075,173.3676 Q202.6688,173.3676 203.2938,173.2114 Q203.9188,173.0551 204.7469,172.6801 L204.7469,174.8989 Q204.0125,175.2114 203.2156,175.3676 Q202.4344,175.5239 201.6688,175.5239 Z " fill="#000000"/><text fill="#000000" font-family="sans-serif" font-size="12" lengthAdjust="spacing" textLength="20" x="221.8" y="173.258">Key</text><line style="stroke:#A80036;stroke-width:1.5;" x1="163" x2="269" y1="184.602" y2="184.602"/><line style="stroke:#A80036;stroke-width:1.5;" x1="163" x2="269" y1="192.602" y2="192.602"/><ellipse cx="173" cy="203.602" fill="#84BE84" rx="3" ry="3" style="stroke:#038048;stroke-width:1.0;"/><text fill="#000000" font-family="sans-serif" font-size="11" lengthAdjust="spacing" textLength="61" x="182" y="208.3609">Key(Colour)</text><ellipse cx="173" cy="218.5839" fill="#84BE84" rx="3" ry="3" style="stroke:#038048;stroke-width:1.0;"/><text fill="#000000" font-family="sans-serif" font-size="11" lengthAdjust="spacing" textLength="82" x="182" y="223.3428">colour(): Colour</text></a><!--MD5=[eaa084a661f43fd9820f39df5da5e3cd]
class nz.ac.wgtn.swen225.lc.domain.items.Key.Colour--><a href="Key.Colour.html" target="_top" title="Key.Colour.html" xlink:actuate="onRequest" xlink:href="Key.Colour.html" xlink:show="new" xlink:title="Key.Colour.html" xlink:type="simple"><rect codeLine="10" fill="#FEFECE" filter="url(#f517m0wdnokmf)" height="107.9276" id="nz.ac.wgtn.swen225.lc.domain.items.Key.Colour" style="stroke:#A80036;stroke-width:1.5;" width="92" x="170" y="290.562"/><ellipse cx="185" cy="306.562" fill="#EB937F" rx="11" ry="11" style="stroke:#A80036;stroke-width:1.0;"/><path d="M181.3594,313.062 L181.3594,300.9214 L189.0156,300.9214 L189.0156,303.0464 L183.7344,303.0464 L183.7344,305.7026 L188.75,305.7026 L188.75,307.8276 L183.7344,307.8276 L183.7344,310.937 L189.0156,310.937 L189.0156,313.062 L181.3594,313.062 Z " fill="#000000"/><text fill="#000000" font-family="sans-serif" font-size="12" lengthAdjust="spacing" textLength="60" x="199" y="311.218">Key.Colour</text><line style="stroke:#A80036;stroke-width:1.5;" x1="171" x2="261" y1="322.562" y2="322.562"/><ellipse cx="181" cy="333.562" rx="3" ry="3" style="stroke:#038048;stroke-width:1.0;fill:none;"/><text fill="#000000" font-family="sans-serif" font-size="11" lengthAdjust="spacing" text-decoration="underline" textLength="27" x="190" y="338.3209">BLUE</text><ellipse cx="181" cy="348.5439" rx="3" ry="3" style="stroke:#038048;stroke-width:1.0;fill:none;"/><text fill="#000000" font-family="sans-serif" font-size="11" lengthAdjust="spacing" text-decoration="underline" textLength="35" x="190" y="353.3028">GREEN</text><ellipse cx="181" cy="363.5258" rx="3" ry="3" style="stroke:#038048;stroke-width:1.0;fill:none;"/><text fill="#000000" font-family="sans-serif" font-size="11" lengthAdjust="spacing" text-decoration="underline" textLength="43" x="190" y="368.2847">YELLOW</text><ellipse cx="181" cy="378.5076" rx="3" ry="3" style="stroke:#038048;stroke-width:1.0;fill:none;"/><text fill="#000000" font-family="sans-serif" font-size="11" lengthAdjust="spacing" text-decoration="underline" textLength="21" x="190" y="383.2666">RED</text><line style="stroke:#A80036;stroke-width:1.5;" x1="171" x2="261" y1="390.4895" y2="390.4895"/></a><!--MD5=[aeced6b90a5f9cea7e9b0d4e8b5a9b7c]
class java.lang.Record--><rect codeLine="23" fill="#FEFECE" filter="url(#f517m0wdnokmf)" height="48" id="java.lang.Record" style="stroke:#A80036;stroke-width:1.5;" width="69" x="325.5" y="44.602"/><ellipse cx="340.5" cy="60.602" fill="#A9DCDF" rx="11" ry="11" style="stroke:#A80036;stroke-width:1.0;"/><path d="M335.6719,66.352 L339.0156,54.1645 L342.1563,54.1645 L345.5313,66.352 L343.0625,66.352 L342.3281,63.3364 L338.8125,63.3364 L338.0625,66.352 L335.6719,66.352 Z M340.0781,58.3051 L339.3281,61.3051 L341.8438,61.3051 L341.125,58.3051 Q340.9844,57.727 340.8594,57.1801 Q340.7344,56.6176 340.5938,56.0395 Q340.4844,56.6176 340.3438,57.1801 Q340.2031,57.727 340.0781,58.3051 Z " fill="#000000"/><text fill="#000000" font-family="sans-serif" font-size="12" font-style="italic" lengthAdjust="spacing" textLength="37" x="354.5" y="65.258">Record</text><line style="stroke:#A80036;stroke-width:1.5;" x1="326.5" x2="393.5" y1="76.602" y2="76.602"/><line style="stroke:#A80036;stroke-width:1.5;" x1="326.5" x2="393.5" y1="84.602" y2="84.602"/><!--MD5=[c5ffb01d86f775a2bbda104a7481f294]
reverse link java.lang.Record to nz.ac.wgtn.swen225.lc.domain.items.Key--><path codeLine="17" d="M316.27,106.342 C298.95,120.892 279.02,137.632 261.53,152.332 " fill="none" id="java.lang.Record-backto-nz.ac.wgtn.swen225.lc.domain.items.Key" style="stroke:#A80036;stroke-width:1.0;"/><polygon fill="none" points="311.42,100.432,331.24,92.932,320.43,111.152,311.42,100.432" style="stroke:#A80036;stroke-width:1.0;"/><!--MD5=[4baffe0663e8cf563b0133e851681f4e]
reverse link nz.ac.wgtn.swen225.lc.domain.items.Item to nz.ac.wgtn.swen225.lc.domain.items.Key--><path codeLine="18" d="M216,113.592 C216,126.362 216,140.202 216,152.572 " fill="none" id="nz.ac.wgtn.swen225.lc.domain.items.Item-backto-nz.ac.wgtn.swen225.lc.domain.items.Key" style="stroke:#A80036;stroke-width:1.0;stroke-dasharray:7.0,7.0;"/><polygon fill="none" points="209,113.932,216,93.932,223,113.932,209,113.932" style="stroke:#A80036;stroke-width:1.0;"/><!--MD5=[d1764850d17250fae41739f82b1d0f23]
reverse link nz.ac.wgtn.swen225.lc.domain.items.Key to nz.ac.wgtn.swen225.lc.domain.items.Key.Colour--><path codeLine="19" d="M216,247.002 C216,261.102 216,276.272 216,290.312 " fill="none" id="nz.ac.wgtn.swen225.lc.domain.items.Key-backto-nz.ac.wgtn.swen225.lc.domain.items.Key.Colour" style="stroke:#A80036;stroke-width:1.0;"/><ellipse cx="216" cy="240.062" fill="#FFFFFF" rx="8" ry="8" style="stroke:#A80036;stroke-width:1.0;"/><line style="stroke:#A80036;stroke-width:1.0;" x1="216" x2="216" y1="248.062" y2="232.062"/><line style="stroke:#A80036;stroke-width:1.0;" x1="208" x2="224" y1="240.062" y2="240.062"/><text fill="#888888" font-family="sans-serif" font-size="10" lengthAdjust="spacing" textLength="182" x="116" y="431.182">UMLDoclet 2.0.14, PlantUML 1.2021.9</text><!--MD5=[b3ee2771cf84e55117c6eff8b3b4e103]
@startuml
    namespace nz.ac.wgtn.swen225.lc.domain.items {

        interface Item [[Item.html]]

        class Key [[Key.html]] {
            +Key(Colour)
            +colour(): Colour
        }

        enum nz.ac.wgtn.swen225.lc.domain.items.Key.Colour [[Key.Colour.html]] {
            {static} +BLUE
            {static} +GREEN
            {static} +YELLOW
            {static} +RED
        }

        java.lang.Record <|- - Key
        Item <|.. Key
        Key +- - nz.ac.wgtn.swen225.lc.domain.items.Key.Colour
    }

    namespace java.lang {
        abstract class Record
    }

    center footer UMLDoclet 2.0.14, PlantUML 1.2021.9
@enduml

PlantUML version 1.2021.9(Sun Jul 25 22:13:56 NZST 2021)
(APACHE source distribution)
Java Runtime: OpenJDK Runtime Environment
JVM: OpenJDK 64-Bit Server VM
Default Encoding: UTF-8
Language: en
Country: NZ
--></g></svg>