<?xml version="1.0" encoding="UTF-8" standalone="no"?><svg xmlns="http://www.w3.org/2000/svg" xmlns:xlink="http://www.w3.org/1999/xlink" contentStyleType="text/css" height="578px" preserveAspectRatio="none" style="width:296px;height:578px;background:#FFFFFF;" version="1.1" viewBox="0 0 296 578" width="296px" zoomAndPan="magnify"><defs/><g><!--cluster nz.ac.wgtn.swen225.lc.domain.items--><g id="cluster_nz.ac.wgtn.swen225.lc.domain.items"><path d="M23.5,130 L276.5,130 A3.75,3.75 0 0 1 279,132.5 L286,153.6094 L286.5,153.6094 A2.5,2.5 0 0 1 289,156.1094 L289,549.16 A2.5,2.5 0 0 1 286.5,551.66 L23.5,551.66 A2.5,2.5 0 0 1 21,549.16 L21,132.5 A2.5,2.5 0 0 1 23.5,130 " fill="none" style="stroke:#000000;stroke-width:1.5;"/><line style="stroke:#000000;stroke-width:1.5;" x1="21" x2="286" y1="153.6094" y2="153.6094"/><text fill="#000000" font-family="sans-serif" font-size="14" font-weight="bold" lengthAdjust="spacing" textLength="252" x="25" y="146.5332">nz.ac.wgtn.swen225.lc.domain.items</text></g><!--cluster java.lang--><g id="cluster_java.lang"><path d="M8.5,6 L72.5,6 A3.75,3.75 0 0 1 75,8.5 L82,29.6094 L244.5,29.6094 A2.5,2.5 0 0 1 247,32.1094 L247,103.5 A2.5,2.5 0 0 1 244.5,106 L8.5,106 A2.5,2.5 0 0 1 6,103.5 L6,8.5 A2.5,2.5 0 0 1 8.5,6 " fill="none" style="stroke:#000000;stroke-width:1.5;"/><line style="stroke:#000000;stroke-width:1.5;" x1="6" x2="82" y1="29.6094" y2="29.6094"/><text fill="#000000" font-family="sans-serif" font-size="14" font-weight="bold" lengthAdjust="spacing" textLength="63" x="10" y="22.5332">java.lang</text></g><!--class nz.ac.wgtn.swen225.lc.domain.items.Item--><a href="Item.html" target="_top" title="Item.html" xlink:actuate="onRequest" xlink:href="Item.html" xlink:show="new" xlink:title="Item.html" xlink:type="simple"><g id="elem_nz.ac.wgtn.swen225.lc.domain.items.Item"><rect codeLine="3" fill="#F1F1F1" height="48" id="nz.ac.wgtn.swen225.lc.domain.items.Item" rx="2.5" ry="2.5" style="stroke:#181818;stroke-width:0.5;" width="59" x="50.5" y="166"/><ellipse cx="65.5" cy="182" fill="#B4A7E5" rx="11" ry="11" style="stroke:#181818;stroke-width:1.0;"/><path d="M66.4531,178.6406 L66.4531,185.2969 L68.1719,185.2969 Q68.7813,185.2969 69.0469,185.5312 Q69.3125,185.7656 69.3125,186.1562 Q69.3125,186.5312 69.0469,186.7656 Q68.7813,187 68.1719,187 L63.0313,187 Q62.4219,187 62.1563,186.7656 Q61.8906,186.5312 61.8906,186.1406 Q61.8906,185.7656 62.1563,185.5312 Q62.4219,185.2969 63.0313,185.2969 L64.75,185.2969 L64.75,178.6406 L63.0313,178.6406 Q62.4219,178.6406 62.1563,178.4062 Q61.8906,178.1719 61.8906,177.7812 Q61.8906,177.4062 62.1563,177.1719 Q62.4219,176.9375 63.0313,176.9375 L68.1719,176.9375 Q68.7813,176.9375 69.0469,177.1719 Q69.3125,177.4062 69.3125,177.7812 Q69.3125,178.1719 69.0469,178.4062 Q68.7813,178.6406 68.1719,178.6406 L66.4531,178.6406 Z " fill="#000000"/><text fill="#000000" font-family="sans-serif" font-size="14" font-style="italic" lengthAdjust="spacing" textLength="27" x="79.5" y="187.7285">Item</text><line style="stroke:#181818;stroke-width:0.5;" x1="51.5" x2="108.5" y1="198" y2="198"/><line style="stroke:#181818;stroke-width:0.5;" x1="51.5" x2="108.5" y1="206" y2="206"/></g></a><!--class nz.ac.wgtn.swen225.lc.domain.items.Key--><a href="Key.html" target="_top" title="Key.html" xlink:actuate="onRequest" xlink:href="Key.html" xlink:show="new" xlink:title="Key.html" xlink:type="simple"><g id="elem_nz.ac.wgtn.swen225.lc.domain.items.Key"><rect codeLine="5" fill="#F1F1F1" height="83.2188" id="nz.ac.wgtn.swen225.lc.domain.items.Key" rx="2.5" ry="2.5" style="stroke:#181818;stroke-width:0.5;" width="125" x="45.5" y="274"/><ellipse cx="91.75" cy="290" fill="#ADD1B2" rx="11" ry="11" style="stroke:#181818;stroke-width:1.0;"/><path d="M94.5156,285.875 Q94.6719,285.6562 94.8594,285.5469 Q95.0469,285.4375 95.2656,285.4375 Q95.6406,285.4375 95.875,285.7031 Q96.1094,285.9531 96.1094,286.5625 L96.1094,288.0156 Q96.1094,288.625 95.875,288.8906 Q95.6406,289.1562 95.2656,289.1562 Q94.9219,289.1562 94.7188,288.9531 Q94.5156,288.7656 94.4063,288.25 Q94.3594,287.8906 94.1719,287.7031 Q93.8438,287.3281 93.2344,287.1094 Q92.625,286.8906 92,286.8906 Q91.2344,286.8906 90.5938,287.2187 Q89.9688,287.5469 89.4688,288.2969 Q88.9844,289.0469 88.9844,290.0781 L88.9844,291.1719 Q88.9844,292.4062 89.875,293.2344 Q90.7656,294.0469 92.3594,294.0469 Q93.2969,294.0469 93.9531,293.7969 Q94.3438,293.6406 94.7656,293.2031 Q95.0313,292.9375 95.1719,292.8594 Q95.3281,292.7812 95.5313,292.7812 Q95.8594,292.7812 96.1094,293.0469 Q96.375,293.2969 96.375,293.6406 Q96.375,293.9844 96.0313,294.3906 Q95.5313,294.9687 94.7344,295.2969 Q93.6563,295.75 92.3594,295.75 Q90.8438,295.75 89.6406,295.125 Q88.6563,294.625 87.9688,293.5625 Q87.2813,292.4844 87.2813,291.2031 L87.2813,290.0469 Q87.2813,288.7187 87.8906,287.5781 Q88.5156,286.4219 89.6094,285.8125 Q90.7031,285.1875 91.9375,285.1875 Q92.6719,285.1875 93.3125,285.3594 Q93.9688,285.5156 94.5156,285.875 Z " fill="#000000"/><text fill="#000000" font-family="sans-serif" font-size="14" lengthAdjust="spacing" textLength="24" x="112.25" y="295.7285">Key</text><line style="stroke:#181818;stroke-width:0.5;" x1="46.5" x2="169.5" y1="306" y2="306"/><line style="stroke:#181818;stroke-width:0.5;" x1="46.5" x2="169.5" y1="314" y2="314"/><ellipse cx="56.5" cy="328.3047" fill="#84BE84" rx="3" ry="3" style="stroke:#038048;stroke-width:1.0;"/><text fill="#000000" font-family="sans-serif" font-size="14" lengthAdjust="spacing" textLength="76" x="65.5" y="332.5332">Key(Colour)</text><ellipse cx="56.5" cy="345.9141" fill="#84BE84" rx="3" ry="3" style="stroke:#038048;stroke-width:1.0;"/><text fill="#000000" font-family="sans-serif" font-size="14" lengthAdjust="spacing" textLength="99" x="65.5" y="350.1426">colour(): Colour</text></g></a><!--class nz.ac.wgtn.swen225.lc.domain.items.Key.Colour--><a href="Key.Colour.html" target="_top" title="Key.Colour.html" xlink:actuate="onRequest" xlink:href="Key.Colour.html" xlink:show="new" xlink:title="Key.Colour.html" xlink:type="simple"><g id="elem_nz.ac.wgtn.swen225.lc.domain.items.Key.Colour"><rect codeLine="10" fill="#F1F1F1" height="118.4375" id="nz.ac.wgtn.swen225.lc.domain.items.Key.Colour" rx="2.5" ry="2.5" style="stroke:#181818;stroke-width:0.5;" width="102" x="57" y="417.22"/><ellipse cx="72" cy="433.22" fill="#EB937F" rx="11" ry="11" style="stroke:#181818;stroke-width:1.0;"/><path d="M70.8594,434.0169 L70.8594,436.5169 L75.1875,436.5169 L75.1875,435.595 Q75.1875,434.9856 75.4219,434.72 Q75.6719,434.4544 76.0469,434.4544 Q76.4219,434.4544 76.6563,434.72 Q76.8906,434.9856 76.8906,435.595 L76.8906,438.22 L68.8906,438.22 Q68.2656,438.22 68,437.9856 Q67.75,437.7512 67.75,437.3606 Q67.75,436.9856 68.0156,436.7512 Q68.2813,436.5169 68.8906,436.5169 L69.1563,436.5169 L69.1563,429.8606 L68.8906,429.8606 Q68.2656,429.8606 68,429.6262 Q67.75,429.3919 67.75,429.0012 Q67.75,428.6262 68,428.3919 Q68.2656,428.1575 68.8906,428.1575 L76.5156,428.1575 L76.5156,430.7512 Q76.5156,431.3606 76.2813,431.6262 Q76.0625,431.8762 75.6719,431.8762 Q75.2969,431.8762 75.0625,431.6262 Q74.8281,431.3606 74.8281,430.7512 L74.8281,429.8606 L70.8594,429.8606 L70.8594,432.3137 L72.3438,432.3137 Q72.3438,431.6575 72.4688,431.47 Q72.7344,431.0637 73.2031,431.0637 Q73.5781,431.0637 73.8125,431.3294 Q74.0469,431.5794 74.0469,432.1887 L74.0469,434.1575 Q74.0469,434.7044 73.9219,434.8919 Q73.6563,435.2825 73.2031,435.2825 Q72.7344,435.2825 72.4688,434.8762 Q72.3438,434.6887 72.3438,434.0169 L70.8594,434.0169 Z " fill="#000000"/><text fill="#000000" font-family="sans-serif" font-size="14" lengthAdjust="spacing" textLength="70" x="86" y="438.9485">Key.Colour</text><line style="stroke:#181818;stroke-width:0.5;" x1="58" x2="158" y1="449.22" y2="449.22"/><ellipse cx="68" cy="463.5247" fill="none" rx="3" ry="3" style="stroke:#038048;stroke-width:1.0;"/><text fill="#000000" font-family="sans-serif" font-size="14" lengthAdjust="spacing" text-decoration="underline" textLength="35" x="77" y="467.7532">BLUE</text><ellipse cx="68" cy="481.1341" fill="none" rx="3" ry="3" style="stroke:#038048;stroke-width:1.0;"/><text fill="#000000" font-family="sans-serif" font-size="14" lengthAdjust="spacing" text-decoration="underline" textLength="48" x="77" y="485.3626">GREEN</text><ellipse cx="68" cy="498.7434" fill="none" rx="3" ry="3" style="stroke:#038048;stroke-width:1.0;"/><text fill="#000000" font-family="sans-serif" font-size="14" lengthAdjust="spacing" text-decoration="underline" textLength="58" x="77" y="502.972">YELLOW</text><ellipse cx="68" cy="516.3528" fill="none" rx="3" ry="3" style="stroke:#038048;stroke-width:1.0;"/><text fill="#000000" font-family="sans-serif" font-size="14" lengthAdjust="spacing" text-decoration="underline" textLength="29" x="77" y="520.5813">RED</text><line style="stroke:#181818;stroke-width:0.5;" x1="58" x2="158" y1="527.6575" y2="527.6575"/></g></a><!--class java.lang.Cloneable--><g id="elem_java.lang.Cloneable"><rect codeLine="24" fill="#F1F1F1" height="48" id="java.lang.Cloneable" rx="2.5" ry="2.5" style="stroke:#181818;stroke-width:0.5;" width="96" x="22" y="42"/><ellipse cx="37" cy="58" fill="#B4A7E5" rx="11" ry="11" style="stroke:#181818;stroke-width:1.0;"/><path d="M37.9531,54.6406 L37.9531,61.2969 L39.6719,61.2969 Q40.2813,61.2969 40.5469,61.5313 Q40.8125,61.7656 40.8125,62.1563 Q40.8125,62.5313 40.5469,62.7656 Q40.2813,63 39.6719,63 L34.5313,63 Q33.9219,63 33.6563,62.7656 Q33.3906,62.5313 33.3906,62.1406 Q33.3906,61.7656 33.6563,61.5313 Q33.9219,61.2969 34.5313,61.2969 L36.25,61.2969 L36.25,54.6406 L34.5313,54.6406 Q33.9219,54.6406 33.6563,54.4063 Q33.3906,54.1719 33.3906,53.7813 Q33.3906,53.4063 33.6563,53.1719 Q33.9219,52.9375 34.5313,52.9375 L39.6719,52.9375 Q40.2813,52.9375 40.5469,53.1719 Q40.8125,53.4063 40.8125,53.7813 Q40.8125,54.1719 40.5469,54.4063 Q40.2813,54.6406 39.6719,54.6406 L37.9531,54.6406 Z " fill="#000000"/><text fill="#000000" font-family="sans-serif" font-size="14" font-style="italic" lengthAdjust="spacing" textLength="64" x="51" y="63.7285">Cloneable</text><line style="stroke:#181818;stroke-width:0.5;" x1="23" x2="117" y1="74" y2="74"/><line style="stroke:#181818;stroke-width:0.5;" x1="23" x2="117" y1="82" y2="82"/></g><!--class java.lang.Record--><g id="elem_java.lang.Record"><rect codeLine="25" fill="#F1F1F1" height="48" id="java.lang.Record" rx="2.5" ry="2.5" style="stroke:#181818;stroke-width:0.5;" width="78" x="153" y="42"/><ellipse cx="168" cy="58" fill="#A9DCDF" rx="11" ry="11" style="stroke:#181818;stroke-width:1.0;"/><path d="M170.1875,59.7656 L166.0469,59.7656 L165.625,60.7969 L166.0469,60.7969 Q166.6563,60.7969 166.9219,61.0313 Q167.1875,61.2656 167.1875,61.6563 Q167.1875,62.0313 166.9219,62.2656 Q166.6563,62.5 166.0469,62.5 L163.75,62.5 Q163.1406,62.5 162.8906,62.2656 Q162.625,62.0313 162.625,61.6406 Q162.625,61.2656 162.9063,61.0313 Q163.1719,60.7813 163.7969,60.7969 L166.4688,54.1406 L165.3594,54.1406 Q164.75,54.1406 164.4844,53.9063 Q164.2188,53.6719 164.2188,53.2813 Q164.2188,52.9063 164.4844,52.6719 Q164.75,52.4375 165.3594,52.4375 L169.0313,52.4375 L172.4219,60.7969 Q173.0156,60.7969 173.2031,60.9375 Q173.5938,61.2031 173.5938,61.6563 Q173.5938,62.0313 173.3281,62.2656 Q173.0781,62.5 172.4688,62.5 L170.1719,62.5 Q169.5625,62.5 169.2969,62.2656 Q169.0313,62.0313 169.0313,61.6406 Q169.0313,61.2656 169.2969,61.0313 Q169.5625,60.7969 170.1719,60.7969 L170.5938,60.7969 L170.1875,59.7656 Z M169.4688,58.0625 L168.1094,54.6875 L166.7344,58.0625 L169.4688,58.0625 Z " fill="#000000"/><text fill="#000000" font-family="sans-serif" font-size="14" font-style="italic" lengthAdjust="spacing" textLength="46" x="182" y="63.7285">Record</text><line style="stroke:#181818;stroke-width:0.5;" x1="154" x2="230" y1="74" y2="74"/><line style="stroke:#181818;stroke-width:0.5;" x1="154" x2="230" y1="82" y2="82"/></g><!--reverse link java.lang.Cloneable to nz.ac.wgtn.swen225.lc.domain.items.Item--><g id="link_java.lang.Cloneable_nz.ac.wgtn.swen225.lc.domain.items.Item"><path codeLine="17" d="M73.6,110.89 C75.12,129.47 76.83,150.36 78.1,165.86 " fill="none" id="java.lang.Cloneable-backto-nz.ac.wgtn.swen225.lc.domain.items.Item" style="stroke:#181818;stroke-width:1.0;"/><polygon fill="none" points="66.56,111.74,71.9,91.24,80.52,110.6,66.56,111.74" style="stroke:#181818;stroke-width:1.0;"/></g><!--reverse link java.lang.Record to nz.ac.wgtn.swen225.lc.domain.items.Key--><g id="link_java.lang.Record_nz.ac.wgtn.swen225.lc.domain.items.Key"><path codeLine="18" d="M177.43,109.95 C161.82,155.96 137.23,228.44 121.89,273.66 " fill="none" id="java.lang.Record-backto-nz.ac.wgtn.swen225.lc.domain.items.Key" style="stroke:#181818;stroke-width:1.0;"/><polygon fill="none" points="171.04,107.99,184.1,91.3,184.3,112.49,171.04,107.99" style="stroke:#181818;stroke-width:1.0;"/></g><!--reverse link nz.ac.wgtn.swen225.lc.domain.items.Item to nz.ac.wgtn.swen225.lc.domain.items.Key--><g id="link_nz.ac.wgtn.swen225.lc.domain.items.Item_nz.ac.wgtn.swen225.lc.domain.items.Key"><path codeLine="19" d="M89.82,234.35 C92.73,247.22 95.91,261.26 98.79,273.95 " fill="none" id="nz.ac.wgtn.swen225.lc.domain.items.Item-backto-nz.ac.wgtn.swen225.lc.domain.items.Key" style="stroke:#181818;stroke-width:1.0;stroke-dasharray:7.0,7.0;"/><polygon fill="none" points="82.86,236.31,85.27,215.25,96.51,233.21,82.86,236.31" style="stroke:#181818;stroke-width:1.0;"/></g><!--reverse link nz.ac.wgtn.swen225.lc.domain.items.Key to nz.ac.wgtn.swen225.lc.domain.items.Key.Colour--><g id="link_nz.ac.wgtn.swen225.lc.domain.items.Key_nz.ac.wgtn.swen225.lc.domain.items.Key.Colour"><path codeLine="20" d="M108,373.51 C108,387.64 108,402.81 108,417.02 " fill="none" id="nz.ac.wgtn.swen225.lc.domain.items.Key-backto-nz.ac.wgtn.swen225.lc.domain.items.Key.Colour" style="stroke:#181818;stroke-width:1.0;"/><ellipse cx="108" cy="366.52" fill="#FFFFFF" rx="8" ry="8" style="stroke:#181818;stroke-width:1.0;"/><line style="stroke:#181818;stroke-width:1.0;" x1="108" x2="108" y1="374.52" y2="358.52"/><line style="stroke:#181818;stroke-width:1.0;" x1="100" x2="116" y1="366.52" y2="366.52"/></g><text fill="#888888" font-family="sans-serif" font-size="10" lengthAdjust="spacing" textLength="184" x="49" y="568.0409">UMLDoclet 2.1.0, PlantUML 1.2022.14</text><!--SRC=[bPBVIyCm4CVV-rVSYz1ITsZ15zcJMn6n_g0mHCOUikmsAsaYJRQXs_vtaxQq7RIWUMZeVRwv- -Po002IvQI_62UGFyWuxZT6ejwJZA8R51nNAcUPnCnGhk7WUL2lJ1egrkxSWqKmdxiDFqmk5ejMnGNJ6Xxfsmhij-Os3tHMQ8a_KK9jY-0Sy3Be1xTGuOQUsX8aj_aVlAChNsMflLG__POEsZ2JyHE4Tyai7a3tQHm_3x3tE4bUtWPW6a_xRlB9TWm5ankS22M9BGN1-3WQbHtkKQN4LR6g9FP2ZQ9yaF4HyIpg7Y6qod-rokjOR2UbiT3fMZiFZVc6iQKs1UEc7eVATpSr9tSQragvRVQKJ1KNP232QxowX5TRozWeNEoeq9cIVl0B]--></g></svg>