<?xml version="1.0" encoding="UTF-8" standalone="no"?><svg xmlns="http://www.w3.org/2000/svg" xmlns:xlink="http://www.w3.org/1999/xlink" contentStyleType="text/css" height="286px" preserveAspectRatio="none" style="width:224px;height:286px;background:#FFFFFF;" version="1.1" viewBox="0 0 224 286" width="224px" zoomAndPan="magnify"><defs/><g><!--class nz.ac.wgtn.swen225.lc.renderer.AudioUnit--><a href="AudioUnit.html" target="_top" title="AudioUnit.html" xlink:actuate="onRequest" xlink:href="AudioUnit.html" xlink:show="new" xlink:title="AudioUnit.html" xlink:type="simple"><g id="elem_nz.ac.wgtn.swen225.lc.renderer.AudioUnit"><rect codeLine="5" fill="#F1F1F1" height="153.8438" id="nz.ac.wgtn.swen225.lc.renderer.AudioUnit" rx="2.5" ry="2.5" style="stroke:#181818;stroke-width:0.5;" width="210" x="7" y="7"/><ellipse cx="35.05" cy="27.0938" fill="#ADD1B2" rx="11" ry="11" style="stroke:#181818;stroke-width:1.0;"/><path d="M37.8156,22.9688 Q37.9719,22.75 38.1594,22.6406 Q38.3469,22.5313 38.5656,22.5313 Q38.9406,22.5313 39.175,22.7969 Q39.4094,23.0469 39.4094,23.6563 L39.4094,25.1094 Q39.4094,25.7188 39.175,25.9844 Q38.9406,26.25 38.5656,26.25 Q38.2219,26.25 38.0188,26.0469 Q37.8156,25.8594 37.7063,25.3438 Q37.6594,24.9844 37.4719,24.7969 Q37.1438,24.4219 36.5344,24.2031 Q35.925,23.9844 35.3,23.9844 Q34.5344,23.9844 33.8938,24.3125 Q33.2688,24.6406 32.7688,25.3906 Q32.2844,26.1406 32.2844,27.1719 L32.2844,28.2656 Q32.2844,29.5 33.175,30.3281 Q34.0656,31.1406 35.6594,31.1406 Q36.5969,31.1406 37.2531,30.8906 Q37.6438,30.7344 38.0656,30.2969 Q38.3313,30.0313 38.4719,29.9531 Q38.6281,29.875 38.8313,29.875 Q39.1594,29.875 39.4094,30.1406 Q39.675,30.3906 39.675,30.7344 Q39.675,31.0781 39.3313,31.4844 Q38.8313,32.0625 38.0344,32.3906 Q36.9563,32.8438 35.6594,32.8438 Q34.1438,32.8438 32.9406,32.2188 Q31.9562,31.7188 31.2687,30.6563 Q30.5812,29.5781 30.5812,28.2969 L30.5812,27.1406 Q30.5812,25.8125 31.1906,24.6719 Q31.8156,23.5156 32.9094,22.9063 Q34.0031,22.2813 35.2375,22.2813 Q35.9719,22.2813 36.6125,22.4531 Q37.2688,22.6094 37.8156,22.9688 Z " fill="#000000"/><text fill="#000000" font-family="sans-serif" font-size="14" lengthAdjust="spacing" textLength="60" x="96.45" y="26.5332">AudioUnit</text><text fill="#000000" font-family="sans-serif" font-size="10" lengthAdjust="spacing" textLength="149" x="51.95" y="39.9902">nz.ac.wgtn.swen225.lc.renderer</text><line style="stroke:#181818;stroke-width:0.5;" x1="8" x2="216" y1="47.1875" y2="47.1875"/><ellipse cx="18" cy="61.4922" fill="#84BE84" rx="3" ry="3" style="stroke:#038048;stroke-width:1.0;"/><text fill="#000000" font-family="sans-serif" font-size="14" lengthAdjust="spacing" textLength="184" x="27" y="65.7207">startBackgroundMusic(): void</text><ellipse cx="18" cy="79.1016" fill="#84BE84" rx="3" ry="3" style="stroke:#038048;stroke-width:1.0;"/><text fill="#000000" font-family="sans-serif" font-size="14" lengthAdjust="spacing" textLength="134" x="27" y="83.3301">startAmbience(): void</text><ellipse cx="18" cy="96.7109" fill="#84BE84" rx="3" ry="3" style="stroke:#038048;stroke-width:1.0;"/><text fill="#000000" font-family="sans-serif" font-size="14" lengthAdjust="spacing" textLength="143" x="27" y="100.9395">playSeagullSFX(): void</text><ellipse cx="18" cy="114.3203" fill="#84BE84" rx="3" ry="3" style="stroke:#038048;stroke-width:1.0;"/><text fill="#000000" font-family="sans-serif" font-size="14" lengthAdjust="spacing" textLength="123" x="27" y="118.5488">playFishSFX(): void</text><ellipse cx="18" cy="131.9297" fill="#84BE84" rx="3" ry="3" style="stroke:#038048;stroke-width:1.0;"/><text fill="#000000" font-family="sans-serif" font-size="14" lengthAdjust="spacing" textLength="171" x="27" y="136.1582">playSound(AudioClip): void</text><ellipse cx="18" cy="149.5391" fill="#84BE84" rx="3" ry="3" style="stroke:#038048;stroke-width:1.0;"/><text fill="#000000" font-family="sans-serif" font-size="14" lengthAdjust="spacing" textLength="86" x="27" y="153.7676">stopAll(): void</text></g></a><!--class nz.ac.wgtn.swen225.lc.renderer.AudioUnit.AudioClip--><a href="AudioUnit.AudioClip.html" target="_top" title="AudioUnit.AudioClip.html" xlink:actuate="onRequest" xlink:href="AudioUnit.AudioClip.html" xlink:show="new" xlink:title="AudioUnit.AudioClip.html" xlink:type="simple"><g id="elem_nz.ac.wgtn.swen225.lc.renderer.AudioUnit.AudioClip"><rect codeLine="13" fill="#F1F1F1" height="40.1875" id="nz.ac.wgtn.swen225.lc.renderer.AudioUnit.AudioClip" rx="2.5" ry="2.5" style="stroke:#181818;stroke-width:0.5;" width="181" x="21.5" y="220.84"/><ellipse cx="36.5" cy="240.9338" fill="#EB937F" rx="11" ry="11" style="stroke:#181818;stroke-width:1.0;"/><path d="M35.3594,241.7306 L35.3594,244.2306 L39.6875,244.2306 L39.6875,243.3088 Q39.6875,242.6994 39.9219,242.4338 Q40.1719,242.1681 40.5469,242.1681 Q40.9219,242.1681 41.1563,242.4338 Q41.3906,242.6994 41.3906,243.3088 L41.3906,245.9338 L33.3906,245.9338 Q32.7656,245.9338 32.5,245.6994 Q32.25,245.465 32.25,245.0744 Q32.25,244.6994 32.5156,244.465 Q32.7813,244.2306 33.3906,244.2306 L33.6563,244.2306 L33.6563,237.5744 L33.3906,237.5744 Q32.7656,237.5744 32.5,237.34 Q32.25,237.1056 32.25,236.715 Q32.25,236.34 32.5,236.1056 Q32.7656,235.8713 33.3906,235.8713 L41.0156,235.8713 L41.0156,238.465 Q41.0156,239.0744 40.7813,239.34 Q40.5625,239.59 40.1719,239.59 Q39.7969,239.59 39.5625,239.34 Q39.3281,239.0744 39.3281,238.465 L39.3281,237.5744 L35.3594,237.5744 L35.3594,240.0275 L36.8438,240.0275 Q36.8438,239.3713 36.9688,239.1838 Q37.2344,238.7775 37.7031,238.7775 Q38.0781,238.7775 38.3125,239.0431 Q38.5469,239.2931 38.5469,239.9025 L38.5469,241.8713 Q38.5469,242.4181 38.4219,242.6056 Q38.1563,242.9963 37.7031,242.9963 Q37.2344,242.9963 36.9688,242.59 Q36.8438,242.4025 36.8438,241.7306 L35.3594,241.7306 Z " fill="#000000"/><text fill="#000000" font-family="sans-serif" font-size="14" lengthAdjust="spacing" textLength="124" x="63" y="240.3732">AudioUnit.AudioClip</text><text fill="#000000" font-family="sans-serif" font-size="10" lengthAdjust="spacing" textLength="149" x="50.5" y="253.8302">nz.ac.wgtn.swen225.lc.renderer</text></g></a><!--reverse link nz.ac.wgtn.swen225.lc.renderer.AudioUnit to nz.ac.wgtn.swen225.lc.renderer.AudioUnit.AudioClip--><g id="link_nz.ac.wgtn.swen225.lc.renderer.AudioUnit_nz.ac.wgtn.swen225.lc.renderer.AudioUnit.AudioClip"><path codeLine="15" d="M112,177.01 C112,193.46 112,209 112,220.52 " fill="none" id="nz.ac.wgtn.swen225.lc.renderer.AudioUnit-backto-nz.ac.wgtn.swen225.lc.renderer.AudioUnit.AudioClip" style="stroke:#181818;stroke-width:1.0;"/><ellipse cx="112" cy="170.07" fill="#FFFFFF" rx="8" ry="8" style="stroke:#181818;stroke-width:1.0;"/><line style="stroke:#181818;stroke-width:1.0;" x1="112" x2="112" y1="178.07" y2="162.07"/><line style="stroke:#181818;stroke-width:1.0;" x1="104" x2="120" y1="170.07" y2="170.07"/></g><text fill="#888888" font-family="sans-serif" font-size="10" lengthAdjust="spacing" textLength="184" x="13" y="276.4084">UMLDoclet 2.1.0, PlantUML 1.2022.14</text><!--SRC=[jL9HIyCm47xtLnm3eMCkR4LVXWogiYS7GXa8SmynkRN1v5AIT6CJ_xjTBPNDAYAOXoHytzrtntS70E0n0763lk02Koouuy4w84juLj6GAuc0fWWxM2lKqf-Y1aDkAxZ6XURUG-_QgprEnfVJf9JABaY59sgmqPJsZ0kspG8nlqMAuokc1ND84Xsw7d0FFuUmLXMMo_RFyc3qQWMlTIE7C_21kt33nKlcR4boNdebelu4DbR9awZ4F2iaWL_fGlDTYZmhjKvdZztyJFdyMp8zr8xgFc-rAZhgsoBH-YZvhRwHIjDb9cl5_iVMJ_qZWrkqiVfZvB-UrM0u_4C7pLuX1NImjlRmBERtTrReQdDZDcQZ2tZGd4A5mla6dLUMelux]--></g></svg>