<?xml version="1.0" encoding="UTF-8" standalone="no"?><svg xmlns="http://www.w3.org/2000/svg" xmlns:xlink="http://www.w3.org/1999/xlink" contentScriptType="application/ecmascript" contentStyleType="text/css" height="282px" preserveAspectRatio="none" style="width:207px;height:282px;background:#FFFFFF;" version="1.1" viewBox="0 0 207 282" width="207px" zoomAndPan="magnify"><defs><filter height="300%" id="f17typrlacopb6" width="300%" x="-1" y="-1"><feGaussianBlur result="blurOut" stdDeviation="2.0"/><feColorMatrix in="blurOut" result="blurOut2" type="matrix" values="0 0 0 0 0 0 0 0 0 0 0 0 0 0 0 0 0 0 .4 0"/><feOffset dx="4.0" dy="4.0" in="blurOut2" result="blurOut3"/><feBlend in="SourceGraphic" in2="blurOut3" mode="normal"/></filter></defs><g><!--MD5=[a2a94dd40b70946556e1557bafa67b3c]
class nz.ac.wgtn.swen225.lc.renderer.AudioUnit--><a href="AudioUnit.html" target="_top" title="AudioUnit.html" xlink:actuate="onRequest" xlink:href="AudioUnit.html" xlink:show="new" xlink:title="AudioUnit.html" xlink:type="simple"><rect codeLine="5" fill="#FEFECE" filter="url(#f17typrlacopb6)" height="140.5792" id="nz.ac.wgtn.swen225.lc.renderer.AudioUnit" style="stroke:#A80036;stroke-width:1.5;" width="186" x="7" y="7"/><ellipse cx="22" cy="28.344" fill="#ADD1B2" rx="11" ry="11" style="stroke:#A80036;stroke-width:1.0;"/><path d="M21.4688,35.2658 Q19.7188,35.2658 18.5781,34.5315 Q17.4531,33.7815 16.8906,32.4377 Q16.3438,31.0783 16.3438,29.2815 Q16.3438,27.2502 17,25.7971 Q17.6563,24.344 18.9375,23.5627 Q20.2188,22.7815 22.0938,22.7815 Q22.9844,22.7815 23.6563,22.969 Q24.3281,23.1408 25.0156,23.4846 L24.2031,25.5002 Q23.5781,25.1877 23.0313,25.0627 Q22.5,24.9377 22.0156,24.9377 Q20.8438,24.9377 20.1406,25.469 Q19.4375,26.0002 19.1406,26.9533 Q18.8438,27.9065 18.8438,29.1721 Q18.8438,31.1877 19.5625,32.1565 Q20.2813,33.1096 21.875,33.1096 Q22.4688,33.1096 23.0938,32.9533 Q23.7188,32.7971 24.5469,32.4221 L24.5469,34.6408 Q23.8125,34.9533 23.0156,35.1096 Q22.2344,35.2658 21.4688,35.2658 Z " fill="#000000"/><text fill="#000000" font-family="sans-serif" font-size="14" lengthAdjust="spacing" textLength="67" x="79.5" y="26.9659">AudioUnit</text><text fill="#000000" font-family="sans-serif" font-size="10" lengthAdjust="spacing" textLength="154" x="36" y="41.7579">nz.ac.wgtn.swen225.lc.renderer</text><line style="stroke:#A80036;stroke-width:1.5;" x1="8" x2="192" y1="49.6879" y2="49.6879"/><ellipse cx="18" cy="60.6879" fill="#84BE84" rx="3" ry="3" style="stroke:#038048;stroke-width:1.0;"/><text fill="#000000" font-family="sans-serif" font-size="11" lengthAdjust="spacing" textLength="153" x="27" y="65.4468">startBackgroundMusic(): void</text><ellipse cx="18" cy="75.6698" fill="#84BE84" rx="3" ry="3" style="stroke:#038048;stroke-width:1.0;"/><text fill="#000000" font-family="sans-serif" font-size="11" lengthAdjust="spacing" textLength="110" x="27" y="80.4287">startAmbience(): void</text><ellipse cx="18" cy="90.6517" fill="#84BE84" rx="3" ry="3" style="stroke:#038048;stroke-width:1.0;"/><text fill="#000000" font-family="sans-serif" font-size="11" lengthAdjust="spacing" textLength="113" x="27" y="95.4106">playSeagullSFX(): void</text><ellipse cx="18" cy="105.6336" fill="#84BE84" rx="3" ry="3" style="stroke:#038048;stroke-width:1.0;"/><text fill="#000000" font-family="sans-serif" font-size="11" lengthAdjust="spacing" textLength="96" x="27" y="110.3925">playFishSFX(): void</text><ellipse cx="18" cy="120.6155" fill="#84BE84" rx="3" ry="3" style="stroke:#038048;stroke-width:1.0;"/><text fill="#000000" font-family="sans-serif" font-size="11" lengthAdjust="spacing" textLength="142" x="27" y="125.3744">playSound(AudioClip): void</text><ellipse cx="18" cy="135.5973" fill="#84BE84" rx="3" ry="3" style="stroke:#038048;stroke-width:1.0;"/><text fill="#000000" font-family="sans-serif" font-size="11" lengthAdjust="spacing" textLength="71" x="27" y="140.3563">stopAll(): void</text></a><!--MD5=[3c1e86fd4f009387ffc78abbf8c78168]
class nz.ac.wgtn.swen225.lc.renderer.AudioUnit.AudioClip--><a href="AudioUnit.AudioClip.html" target="_top" title="AudioUnit.AudioClip.html" xlink:actuate="onRequest" xlink:href="AudioUnit.AudioClip.html" xlink:show="new" xlink:title="AudioUnit.AudioClip.html" xlink:type="simple"><rect codeLine="13" fill="#FEFECE" filter="url(#f17typrlacopb6)" height="42.6879" id="nz.ac.wgtn.swen225.lc.renderer.AudioUnit.AudioClip" style="stroke:#A80036;stroke-width:1.5;" width="186" x="7" y="207.58"/><ellipse cx="22" cy="228.924" fill="#EB937F" rx="11" ry="11" style="stroke:#A80036;stroke-width:1.0;"/><path d="M18.3594,235.424 L18.3594,223.2833 L26.0156,223.2833 L26.0156,225.4083 L20.7344,225.4083 L20.7344,228.0646 L25.75,228.0646 L25.75,230.1896 L20.7344,230.1896 L20.7344,233.299 L26.0156,233.299 L26.0156,235.424 L18.3594,235.424 Z " fill="#000000"/><text fill="#000000" font-family="sans-serif" font-size="14" lengthAdjust="spacing" textLength="136" x="45" y="227.5459">AudioUnit.AudioClip</text><text fill="#000000" font-family="sans-serif" font-size="10" lengthAdjust="spacing" textLength="154" x="36" y="242.3379">nz.ac.wgtn.swen225.lc.renderer</text></a><!--MD5=[ab80afdc0ee7e57af166d6c8f623f50c]
reverse link nz.ac.wgtn.swen225.lc.renderer.AudioUnit to nz.ac.wgtn.swen225.lc.renderer.AudioUnit.AudioClip--><path codeLine="15" d="M100,163.6 C100,179.92 100,195.56 100,207.33 " fill="none" id="nz.ac.wgtn.swen225.lc.renderer.AudioUnit-backto-nz.ac.wgtn.swen225.lc.renderer.AudioUnit.AudioClip" style="stroke:#A80036;stroke-width:1.0;"/><ellipse cx="100" cy="156.85" fill="#FFFFFF" rx="8" ry="8" style="stroke:#A80036;stroke-width:1.0;"/><line style="stroke:#A80036;stroke-width:1.0;" x1="100" x2="100" y1="164.85" y2="148.85"/><line style="stroke:#A80036;stroke-width:1.0;" x1="92" x2="108" y1="156.85" y2="156.85"/><text fill="#888888" font-family="sans-serif" font-size="10" lengthAdjust="spacing" textLength="182" x="6" y="273.9579">UMLDoclet 2.0.14, PlantUML 1.2021.9</text><!--MD5=[73fbff914866787c1776210837686f30]
@startuml
    set namespaceSeparator none
    hide empty fields
    hide empty methods

    class "<size:14>AudioUnit\n<size:10>nz.ac.wgtn.swen225.lc.renderer" as nz.ac.wgtn.swen225.lc.renderer.AudioUnit [[AudioUnit.html]] {
        +startBackgroundMusic(): void
        +startAmbience(): void
        +playSeagullSFX(): void
        +playFishSFX(): void
        +playSound(AudioClip): void
        +stopAll(): void
    }
    enum "<size:14>AudioUnit.AudioClip\n<size:10>nz.ac.wgtn.swen225.lc.renderer" as nz.ac.wgtn.swen225.lc.renderer.AudioUnit.AudioClip [[AudioUnit.AudioClip.html]]

    nz.ac.wgtn.swen225.lc.renderer.AudioUnit +- - nz.ac.wgtn.swen225.lc.renderer.AudioUnit.AudioClip

    center footer UMLDoclet 2.0.14, PlantUML 1.2021.9
@enduml

PlantUML version 1.2021.9(Sun Jul 25 22:13:56 NZST 2021)
(APACHE source distribution)
Java Runtime: OpenJDK Runtime Environment
JVM: OpenJDK 64-Bit Server VM
Default Encoding: UTF-8
Language: en
Country: NZ
--></g></svg>