<?xml version="1.0" encoding="UTF-8" standalone="no"?><svg xmlns="http://www.w3.org/2000/svg" xmlns:xlink="http://www.w3.org/1999/xlink" contentScriptType="application/ecmascript" contentStyleType="text/css" height="342px" preserveAspectRatio="none" style="width:259px;height:342px;background:#FFFFFF;" version="1.1" viewBox="0 0 259 342" width="259px" zoomAndPan="magnify"><defs><filter height="300%" id="fmpacscwglyv9" width="300%" x="-1" y="-1"><feGaussianBlur result="blurOut" stdDeviation="2.0"/><feColorMatrix in="blurOut" result="blurOut2" type="matrix" values="0 0 0 0 0 0 0 0 0 0 0 0 0 0 0 0 0 0 .4 0"/><feOffset dx="4.0" dy="4.0" in="blurOut2" result="blurOut3"/><feBlend in="SourceGraphic" in2="blurOut3" mode="normal"/></filter></defs><g><!--MD5=[4e2bc18e85765381726e3364af178b80]
class nz.ac.wgtn.swen225.lc.renderer.Camera--><a href="Camera.html" target="_top" title="Camera.html" xlink:actuate="onRequest" xlink:href="Camera.html" xlink:show="new" xlink:title="Camera.html" xlink:type="simple"><rect codeLine="5" fill="#FEFECE" filter="url(#fmpacscwglyv9)" height="200.5068" id="nz.ac.wgtn.swen225.lc.renderer.Camera" style="stroke:#A80036;stroke-width:1.5;" width="238" x="7" y="7"/><ellipse cx="45.4" cy="28.344" fill="#ADD1B2" rx="11" ry="11" style="stroke:#A80036;stroke-width:1.0;"/><path d="M44.8688,35.2658 Q43.1188,35.2658 41.9781,34.5315 Q40.8531,33.7815 40.2906,32.4377 Q39.7438,31.0783 39.7438,29.2815 Q39.7438,27.2502 40.4,25.7971 Q41.0563,24.344 42.3375,23.5627 Q43.6188,22.7815 45.4938,22.7815 Q46.3844,22.7815 47.0563,22.969 Q47.7281,23.1408 48.4156,23.4846 L47.6031,25.5002 Q46.9781,25.1877 46.4313,25.0627 Q45.9,24.9377 45.4156,24.9377 Q44.2438,24.9377 43.5406,25.469 Q42.8375,26.0002 42.5406,26.9533 Q42.2438,27.9065 42.2438,29.1721 Q42.2438,31.1877 42.9625,32.1565 Q43.6813,33.1096 45.275,33.1096 Q45.8688,33.1096 46.4938,32.9533 Q47.1188,32.7971 47.9469,32.4221 L47.9469,34.6408 Q47.2125,34.9533 46.4156,35.1096 Q45.6344,35.2658 44.8688,35.2658 Z " fill="#000000"/><text fill="#000000" font-family="sans-serif" font-size="14" lengthAdjust="spacing" textLength="52" x="115.6" y="26.9659">Camera</text><text fill="#000000" font-family="sans-serif" font-size="10" lengthAdjust="spacing" textLength="154" x="64.6" y="41.7579">nz.ac.wgtn.swen225.lc.renderer</text><line style="stroke:#A80036;stroke-width:1.5;" x1="8" x2="244" y1="49.6879" y2="49.6879"/><ellipse cx="18" cy="60.6879" fill="#84BE84" rx="3" ry="3" style="stroke:#038048;stroke-width:1.0;"/><text fill="#000000" font-family="sans-serif" font-size="11" lengthAdjust="spacing" textLength="212" x="27" y="65.4468">Camera(double, double, double, double)</text><ellipse cx="18" cy="75.6698" fill="#84BE84" rx="3" ry="3" style="stroke:#038048;stroke-width:1.0;"/><text fill="#000000" font-family="sans-serif" font-size="11" lengthAdjust="spacing" textLength="182" x="27" y="80.4287">updateCameraPosition(Chap): void</text><ellipse cx="18" cy="90.6517" fill="#84BE84" rx="3" ry="3" style="stroke:#038048;stroke-width:1.0;"/><text fill="#000000" font-family="sans-serif" font-size="11" lengthAdjust="spacing" textLength="97" x="27" y="95.4106">getWidth(): double</text><ellipse cx="18" cy="105.6336" fill="#84BE84" rx="3" ry="3" style="stroke:#038048;stroke-width:1.0;"/><text fill="#000000" font-family="sans-serif" font-size="11" lengthAdjust="spacing" textLength="101" x="27" y="110.3925">getHeight(): double</text><ellipse cx="18" cy="120.6155" fill="#84BE84" rx="3" ry="3" style="stroke:#038048;stroke-width:1.0;"/><text fill="#000000" font-family="sans-serif" font-size="11" lengthAdjust="spacing" textLength="72" x="27" y="125.3744">getX(): double</text><ellipse cx="18" cy="135.5973" fill="#84BE84" rx="3" ry="3" style="stroke:#038048;stroke-width:1.0;"/><text fill="#000000" font-family="sans-serif" font-size="11" lengthAdjust="spacing" textLength="72" x="27" y="140.3563">getY(): double</text><ellipse cx="18" cy="150.5792" fill="#84BE84" rx="3" ry="3" style="stroke:#038048;stroke-width:1.0;"/><text fill="#000000" font-family="sans-serif" font-size="11" lengthAdjust="spacing" textLength="81" x="27" y="155.3381">getState(): State</text><ellipse cx="18" cy="165.5611" fill="#84BE84" rx="3" ry="3" style="stroke:#038048;stroke-width:1.0;"/><text fill="#000000" font-family="sans-serif" font-size="11" lengthAdjust="spacing" textLength="102" x="27" y="170.32">setState(State): void</text><ellipse cx="18" cy="180.543" fill="#84BE84" rx="3" ry="3" style="stroke:#038048;stroke-width:1.0;"/><text fill="#000000" font-family="sans-serif" font-size="11" lengthAdjust="spacing" textLength="93" x="27" y="185.3019">setX(double): void</text><ellipse cx="18" cy="195.5249" fill="#84BE84" rx="3" ry="3" style="stroke:#038048;stroke-width:1.0;"/><text fill="#000000" font-family="sans-serif" font-size="11" lengthAdjust="spacing" textLength="93" x="27" y="200.2838">setY(double): void</text></a><!--MD5=[932d56a9087dae8b25465a7d9bd34994]
class nz.ac.wgtn.swen225.lc.renderer.Camera.State--><a href="Camera.State.html" target="_top" title="Camera.State.html" xlink:actuate="onRequest" xlink:href="Camera.State.html" xlink:show="new" xlink:title="Camera.State.html" xlink:type="simple"><rect codeLine="17" fill="#FEFECE" filter="url(#fmpacscwglyv9)" height="42.6879" id="nz.ac.wgtn.swen225.lc.renderer.Camera.State" style="stroke:#A80036;stroke-width:1.5;" width="186" x="33" y="267.5"/><ellipse cx="48" cy="288.844" fill="#EB937F" rx="11" ry="11" style="stroke:#A80036;stroke-width:1.0;"/><path d="M44.3594,295.344 L44.3594,283.2033 L52.0156,283.2033 L52.0156,285.3283 L46.7344,285.3283 L46.7344,287.9846 L51.75,287.9846 L51.75,290.1096 L46.7344,290.1096 L46.7344,293.219 L52.0156,293.219 L52.0156,295.344 L44.3594,295.344 Z " fill="#000000"/><text fill="#000000" font-family="sans-serif" font-size="14" lengthAdjust="spacing" textLength="90" x="94" y="287.4659">Camera.State</text><text fill="#000000" font-family="sans-serif" font-size="10" lengthAdjust="spacing" textLength="154" x="62" y="302.2579">nz.ac.wgtn.swen225.lc.renderer</text></a><!--MD5=[85a601e519c898f4e3e87b10eff2c898]
reverse link nz.ac.wgtn.swen225.lc.renderer.Camera to nz.ac.wgtn.swen225.lc.renderer.Camera.State--><path codeLine="19" d="M126,223.63 C126,240.22 126,255.54 126,267.05 " fill="none" id="nz.ac.wgtn.swen225.lc.renderer.Camera-backto-nz.ac.wgtn.swen225.lc.renderer.Camera.State" style="stroke:#A80036;stroke-width:1.0;"/><ellipse cx="126" cy="216.76" fill="#FFFFFF" rx="8" ry="8" style="stroke:#A80036;stroke-width:1.0;"/><line style="stroke:#A80036;stroke-width:1.0;" x1="126" x2="126" y1="224.76" y2="208.76"/><line style="stroke:#A80036;stroke-width:1.0;" x1="118" x2="134" y1="216.76" y2="216.76"/><text fill="#888888" font-family="sans-serif" font-size="10" lengthAdjust="spacing" textLength="182" x="32" y="333.8779">UMLDoclet 2.0.14, PlantUML 1.2021.9</text><!--MD5=[302e30f8ca1ab6967ed3b32ed93d4403]
@startuml
    set namespaceSeparator none
    hide empty fields
    hide empty methods

    class "<size:14>Camera\n<size:10>nz.ac.wgtn.swen225.lc.renderer" as nz.ac.wgtn.swen225.lc.renderer.Camera [[Camera.html]] {
        +Camera(double, double, double, double)
        +updateCameraPosition(Chap): void
        +getWidth(): double
        +getHeight(): double
        +getX(): double
        +getY(): double
        +getState(): State
        +setState(State): void
        +setX(double): void
        +setY(double): void
    }
    enum "<size:14>Camera.State\n<size:10>nz.ac.wgtn.swen225.lc.renderer" as nz.ac.wgtn.swen225.lc.renderer.Camera.State [[Camera.State.html]]

    nz.ac.wgtn.swen225.lc.renderer.Camera +- - nz.ac.wgtn.swen225.lc.renderer.Camera.State

    center footer UMLDoclet 2.0.14, PlantUML 1.2021.9
@enduml

PlantUML version 1.2021.9(Sun Jul 25 22:13:56 NZST 2021)
(APACHE source distribution)
Java Runtime: OpenJDK Runtime Environment
JVM: OpenJDK 64-Bit Server VM
Default Encoding: UTF-8
Language: en
Country: NZ
--></g></svg>