<?xml version="1.0" encoding="UTF-8" standalone="no"?><svg xmlns="http://www.w3.org/2000/svg" xmlns:xlink="http://www.w3.org/1999/xlink" contentStyleType="text/css" height="1098px" preserveAspectRatio="none" style="width:695px;height:1098px;background:#FFFFFF;" version="1.1" viewBox="0 0 695 1098" width="695px" zoomAndPan="magnify"><defs/><g><!--cluster nz.ac.wgtn.swen225.lc.renderer--><g id="cluster_nz.ac.wgtn.swen225.lc.renderer"><path d="M8.5,139 L231.5,139 A3.75,3.75 0 0 1 234,141.5 L241,162.6094 L685.5,162.6094 A2.5,2.5 0 0 1 688,165.1094 L688,1069.61 A2.5,2.5 0 0 1 685.5,1072.11 L8.5,1072.11 A2.5,2.5 0 0 1 6,1069.61 L6,141.5 A2.5,2.5 0 0 1 8.5,139 " fill="none" style="stroke:#000000;stroke-width:1.5;"/><line style="stroke:#000000;stroke-width:1.5;" x1="6" x2="241" y1="162.6094" y2="162.6094"/><text fill="#000000" font-family="sans-serif" font-size="14" font-weight="bold" lengthAdjust="spacing" textLength="222" x="10" y="155.5332">nz.ac.wgtn.swen225.lc.renderer</text></g><!--cluster javax.swing--><g id="cluster_javax.swing"><path d="M213.5,6 L296.5,6 A3.75,3.75 0 0 1 299,8.5 L306,29.6094 L314.5,29.6094 A2.5,2.5 0 0 1 317,32.1094 L317,103.5 A2.5,2.5 0 0 1 314.5,106 L213.5,106 A2.5,2.5 0 0 1 211,103.5 L211,8.5 A2.5,2.5 0 0 1 213.5,6 " fill="none" style="stroke:#000000;stroke-width:1.5;"/><line style="stroke:#000000;stroke-width:1.5;" x1="211" x2="306" y1="29.6094" y2="29.6094"/><text fill="#000000" font-family="sans-serif" font-size="14" font-weight="bold" lengthAdjust="spacing" textLength="82" x="215" y="22.5332">javax.swing</text></g><!--class nz.ac.wgtn.swen225.lc.renderer.AudioUnit--><a href="AudioUnit.html" target="_top" title="AudioUnit.html" xlink:actuate="onRequest" xlink:href="AudioUnit.html" xlink:show="new" xlink:title="AudioUnit.html" xlink:type="simple"><g id="elem_nz.ac.wgtn.swen225.lc.renderer.AudioUnit"><rect codeLine="3" fill="#F1F1F1" height="153.6563" id="nz.ac.wgtn.swen225.lc.renderer.AudioUnit" rx="2.5" ry="2.5" style="stroke:#181818;stroke-width:0.5;" width="210" x="462" y="175"/><ellipse cx="532.75" cy="191" fill="#ADD1B2" rx="11" ry="11" style="stroke:#181818;stroke-width:1.0;"/><path d="M535.5156,186.875 Q535.6719,186.6562 535.8594,186.5469 Q536.0469,186.4375 536.2656,186.4375 Q536.6406,186.4375 536.875,186.7031 Q537.1094,186.9531 537.1094,187.5625 L537.1094,189.0156 Q537.1094,189.625 536.875,189.8906 Q536.6406,190.1562 536.2656,190.1562 Q535.9219,190.1562 535.7188,189.9531 Q535.5156,189.7656 535.4063,189.25 Q535.3594,188.8906 535.1719,188.7031 Q534.8438,188.3281 534.2344,188.1094 Q533.625,187.8906 533,187.8906 Q532.2344,187.8906 531.5938,188.2187 Q530.9688,188.5469 530.4688,189.2969 Q529.9844,190.0469 529.9844,191.0781 L529.9844,192.1719 Q529.9844,193.4062 530.875,194.2344 Q531.7656,195.0469 533.3594,195.0469 Q534.2969,195.0469 534.9531,194.7969 Q535.3438,194.6406 535.7656,194.2031 Q536.0313,193.9375 536.1719,193.8594 Q536.3281,193.7812 536.5313,193.7812 Q536.8594,193.7812 537.1094,194.0469 Q537.375,194.2969 537.375,194.6406 Q537.375,194.9844 537.0313,195.3906 Q536.5313,195.9687 535.7344,196.2969 Q534.6563,196.75 533.3594,196.75 Q531.8438,196.75 530.6406,196.125 Q529.6563,195.625 528.9688,194.5625 Q528.2813,193.4844 528.2813,192.2031 L528.2813,191.0469 Q528.2813,189.7187 528.8906,188.5781 Q529.5156,187.4219 530.6094,186.8125 Q531.7031,186.1875 532.9375,186.1875 Q533.6719,186.1875 534.3125,186.3594 Q534.9688,186.5156 535.5156,186.875 Z " fill="#000000"/><text fill="#000000" font-family="sans-serif" font-size="14" lengthAdjust="spacing" textLength="60" x="553.25" y="196.7285">AudioUnit</text><line style="stroke:#181818;stroke-width:0.5;" x1="463" x2="671" y1="207" y2="207"/><line style="stroke:#181818;stroke-width:0.5;" x1="463" x2="671" y1="215" y2="215"/><ellipse cx="473" cy="229.3047" fill="#84BE84" rx="3" ry="3" style="stroke:#038048;stroke-width:1.0;"/><text fill="#000000" font-family="sans-serif" font-size="14" lengthAdjust="spacing" textLength="184" x="482" y="233.5332">startBackgroundMusic(): void</text><ellipse cx="473" cy="246.9141" fill="#84BE84" rx="3" ry="3" style="stroke:#038048;stroke-width:1.0;"/><text fill="#000000" font-family="sans-serif" font-size="14" lengthAdjust="spacing" textLength="134" x="482" y="251.1426">startAmbience(): void</text><ellipse cx="473" cy="264.5234" fill="#84BE84" rx="3" ry="3" style="stroke:#038048;stroke-width:1.0;"/><text fill="#000000" font-family="sans-serif" font-size="14" lengthAdjust="spacing" textLength="143" x="482" y="268.752">playSeagullSFX(): void</text><ellipse cx="473" cy="282.1328" fill="#84BE84" rx="3" ry="3" style="stroke:#038048;stroke-width:1.0;"/><text fill="#000000" font-family="sans-serif" font-size="14" lengthAdjust="spacing" textLength="123" x="482" y="286.3613">playFishSFX(): void</text><ellipse cx="473" cy="299.7422" fill="#84BE84" rx="3" ry="3" style="stroke:#038048;stroke-width:1.0;"/><text fill="#000000" font-family="sans-serif" font-size="14" lengthAdjust="spacing" textLength="171" x="482" y="303.9707">playSound(AudioClip): void</text><ellipse cx="473" cy="317.3516" fill="#84BE84" rx="3" ry="3" style="stroke:#038048;stroke-width:1.0;"/><text fill="#000000" font-family="sans-serif" font-size="14" lengthAdjust="spacing" textLength="86" x="482" y="321.5801">stopAll(): void</text></g></a><!--class nz.ac.wgtn.swen225.lc.renderer.AudioUnit.AudioClip--><a href="AudioUnit.AudioClip.html" target="_top" title="AudioUnit.AudioClip.html" xlink:actuate="onRequest" xlink:href="AudioUnit.AudioClip.html" xlink:show="new" xlink:title="AudioUnit.AudioClip.html" xlink:type="simple"><g id="elem_nz.ac.wgtn.swen225.lc.renderer.AudioUnit.AudioClip"><rect codeLine="12" fill="#F1F1F1" height="259.3125" id="nz.ac.wgtn.swen225.lc.renderer.AudioUnit.AudioClip" rx="2.5" ry="2.5" style="stroke:#181818;stroke-width:0.5;" width="156" x="516" y="494.7"/><ellipse cx="531" cy="510.7" fill="#EB937F" rx="11" ry="11" style="stroke:#181818;stroke-width:1.0;"/><path d="M529.8594,511.4969 L529.8594,513.9969 L534.1875,513.9969 L534.1875,513.075 Q534.1875,512.4656 534.4219,512.2 Q534.6719,511.9344 535.0469,511.9344 Q535.4219,511.9344 535.6563,512.2 Q535.8906,512.4656 535.8906,513.075 L535.8906,515.7 L527.8906,515.7 Q527.2656,515.7 527,515.4656 Q526.75,515.2312 526.75,514.8406 Q526.75,514.4656 527.0156,514.2312 Q527.2813,513.9969 527.8906,513.9969 L528.1563,513.9969 L528.1563,507.3406 L527.8906,507.3406 Q527.2656,507.3406 527,507.1062 Q526.75,506.8719 526.75,506.4812 Q526.75,506.1062 527,505.8719 Q527.2656,505.6375 527.8906,505.6375 L535.5156,505.6375 L535.5156,508.2312 Q535.5156,508.8406 535.2813,509.1062 Q535.0625,509.3562 534.6719,509.3562 Q534.2969,509.3562 534.0625,509.1062 Q533.8281,508.8406 533.8281,508.2312 L533.8281,507.3406 L529.8594,507.3406 L529.8594,509.7937 L531.3438,509.7937 Q531.3438,509.1375 531.4688,508.95 Q531.7344,508.5437 532.2031,508.5437 Q532.5781,508.5437 532.8125,508.8094 Q533.0469,509.0594 533.0469,509.6687 L533.0469,511.6375 Q533.0469,512.1844 532.9219,512.3719 Q532.6563,512.7625 532.2031,512.7625 Q531.7344,512.7625 531.4688,512.3562 Q531.3438,512.1687 531.3438,511.4969 L529.8594,511.4969 Z " fill="#000000"/><text fill="#000000" font-family="sans-serif" font-size="14" lengthAdjust="spacing" textLength="124" x="545" y="516.4285">AudioUnit.AudioClip</text><line style="stroke:#181818;stroke-width:0.5;" x1="517" x2="671" y1="526.7" y2="526.7"/><ellipse cx="527" cy="541.0047" fill="none" rx="3" ry="3" style="stroke:#038048;stroke-width:1.0;"/><text fill="#000000" font-family="sans-serif" font-size="14" lengthAdjust="spacing" text-decoration="underline" textLength="97" x="536" y="545.2332">BACKGROUND</text><ellipse cx="527" cy="558.6141" fill="none" rx="3" ry="3" style="stroke:#038048;stroke-width:1.0;"/><text fill="#000000" font-family="sans-serif" font-size="14" lengthAdjust="spacing" text-decoration="underline" textLength="69" x="536" y="562.8426">AMBIENCE</text><ellipse cx="527" cy="576.2234" fill="none" rx="3" ry="3" style="stroke:#038048;stroke-width:1.0;"/><text fill="#000000" font-family="sans-serif" font-size="14" lengthAdjust="spacing" text-decoration="underline" textLength="71" x="536" y="580.452">SEAGULL1</text><ellipse cx="527" cy="593.8328" fill="none" rx="3" ry="3" style="stroke:#038048;stroke-width:1.0;"/><text fill="#000000" font-family="sans-serif" font-size="14" lengthAdjust="spacing" text-decoration="underline" textLength="71" x="536" y="598.0613">SEAGULL2</text><ellipse cx="527" cy="611.4422" fill="none" rx="3" ry="3" style="stroke:#038048;stroke-width:1.0;"/><text fill="#000000" font-family="sans-serif" font-size="14" lengthAdjust="spacing" text-decoration="underline" textLength="71" x="536" y="615.6707">SEAGULL3</text><ellipse cx="527" cy="629.0516" fill="none" rx="3" ry="3" style="stroke:#038048;stroke-width:1.0;"/><text fill="#000000" font-family="sans-serif" font-size="14" lengthAdjust="spacing" text-decoration="underline" textLength="95" x="536" y="633.2801">FISH_CAUGHT</text><ellipse cx="527" cy="646.6609" fill="none" rx="3" ry="3" style="stroke:#038048;stroke-width:1.0;"/><text fill="#000000" font-family="sans-serif" font-size="14" lengthAdjust="spacing" text-decoration="underline" textLength="110" x="536" y="650.8895">ENEMY_ATTACK</text><ellipse cx="527" cy="664.2703" fill="none" rx="3" ry="3" style="stroke:#038048;stroke-width:1.0;"/><text fill="#000000" font-family="sans-serif" font-size="14" lengthAdjust="spacing" text-decoration="underline" textLength="80" x="536" y="668.4988">DOOROPEN</text><ellipse cx="527" cy="681.8797" fill="none" rx="3" ry="3" style="stroke:#038048;stroke-width:1.0;"/><text fill="#000000" font-family="sans-serif" font-size="14" lengthAdjust="spacing" text-decoration="underline" textLength="92" x="536" y="686.1082">KEYCOLLECT</text><ellipse cx="527" cy="699.4891" fill="none" rx="3" ry="3" style="stroke:#038048;stroke-width:1.0;"/><text fill="#000000" font-family="sans-serif" font-size="14" lengthAdjust="spacing" text-decoration="underline" textLength="38" x="536" y="703.7176">FISH1</text><ellipse cx="527" cy="717.0984" fill="none" rx="3" ry="3" style="stroke:#038048;stroke-width:1.0;"/><text fill="#000000" font-family="sans-serif" font-size="14" lengthAdjust="spacing" text-decoration="underline" textLength="38" x="536" y="721.327">FISH2</text><ellipse cx="527" cy="734.7078" fill="none" rx="3" ry="3" style="stroke:#038048;stroke-width:1.0;"/><text fill="#000000" font-family="sans-serif" font-size="14" lengthAdjust="spacing" text-decoration="underline" textLength="38" x="536" y="738.9363">FISH3</text><line style="stroke:#181818;stroke-width:0.5;" x1="517" x2="671" y1="746.0125" y2="746.0125"/></g></a><!--class nz.ac.wgtn.swen225.lc.renderer.Camera--><a href="Camera.html" target="_top" title="Camera.html" xlink:actuate="onRequest" xlink:href="Camera.html" xlink:show="new" xlink:title="Camera.html" xlink:type="simple"><g id="elem_nz.ac.wgtn.swen225.lc.renderer.Camera"><rect codeLine="27" fill="#F1F1F1" height="188.875" id="nz.ac.wgtn.swen225.lc.renderer.Camera" rx="2.5" ry="2.5" style="stroke:#181818;stroke-width:0.5;" width="282" x="22" y="529.92"/><ellipse cx="133.75" cy="545.92" fill="#ADD1B2" rx="11" ry="11" style="stroke:#181818;stroke-width:1.0;"/><path d="M136.5156,541.795 Q136.6719,541.5762 136.8594,541.4669 Q137.0469,541.3575 137.2656,541.3575 Q137.6406,541.3575 137.875,541.6231 Q138.1094,541.8731 138.1094,542.4825 L138.1094,543.9356 Q138.1094,544.545 137.875,544.8106 Q137.6406,545.0762 137.2656,545.0762 Q136.9219,545.0762 136.7188,544.8731 Q136.5156,544.6856 136.4063,544.17 Q136.3594,543.8106 136.1719,543.6231 Q135.8438,543.2481 135.2344,543.0294 Q134.625,542.8106 134,542.8106 Q133.2344,542.8106 132.5938,543.1387 Q131.9688,543.4669 131.4688,544.2169 Q130.9844,544.9669 130.9844,545.9981 L130.9844,547.0919 Q130.9844,548.3262 131.875,549.1544 Q132.7656,549.9669 134.3594,549.9669 Q135.2969,549.9669 135.9531,549.7169 Q136.3438,549.5606 136.7656,549.1231 Q137.0313,548.8575 137.1719,548.7794 Q137.3281,548.7012 137.5313,548.7012 Q137.8594,548.7012 138.1094,548.9669 Q138.375,549.2169 138.375,549.5606 Q138.375,549.9044 138.0313,550.3106 Q137.5313,550.8887 136.7344,551.2169 Q135.6563,551.67 134.3594,551.67 Q132.8438,551.67 131.6406,551.045 Q130.6563,550.545 129.9688,549.4825 Q129.2813,548.4044 129.2813,547.1231 L129.2813,545.9669 Q129.2813,544.6387 129.8906,543.4981 Q130.5156,542.3419 131.6094,541.7325 Q132.7031,541.1075 133.9375,541.1075 Q134.6719,541.1075 135.3125,541.2794 Q135.9688,541.4356 136.5156,541.795 Z " fill="#000000"/><text fill="#000000" font-family="sans-serif" font-size="14" lengthAdjust="spacing" textLength="50" x="154.25" y="551.6485">Camera</text><line style="stroke:#181818;stroke-width:0.5;" x1="23" x2="303" y1="561.92" y2="561.92"/><line style="stroke:#181818;stroke-width:0.5;" x1="23" x2="303" y1="569.92" y2="569.92"/><ellipse cx="33" cy="584.2247" fill="#84BE84" rx="3" ry="3" style="stroke:#038048;stroke-width:1.0;"/><text fill="#000000" font-family="sans-serif" font-size="14" lengthAdjust="spacing" textLength="256" x="42" y="588.4532">Camera(double, double, double, double)</text><ellipse cx="33" cy="601.8341" fill="#84BE84" rx="3" ry="3" style="stroke:#038048;stroke-width:1.0;"/><text fill="#000000" font-family="sans-serif" font-size="14" lengthAdjust="spacing" textLength="222" x="42" y="606.0626">updateCameraPosition(Chap): void</text><ellipse cx="33" cy="619.4434" fill="#84BE84" rx="3" ry="3" style="stroke:#038048;stroke-width:1.0;"/><text fill="#000000" font-family="sans-serif" font-size="14" lengthAdjust="spacing" textLength="117" x="42" y="623.672">getWidth(): double</text><ellipse cx="33" cy="637.0528" fill="#84BE84" rx="3" ry="3" style="stroke:#038048;stroke-width:1.0;"/><text fill="#000000" font-family="sans-serif" font-size="14" lengthAdjust="spacing" textLength="121" x="42" y="641.2813">getHeight(): double</text><ellipse cx="33" cy="654.6622" fill="#84BE84" rx="3" ry="3" style="stroke:#038048;stroke-width:1.0;"/><text fill="#000000" font-family="sans-serif" font-size="14" lengthAdjust="spacing" textLength="89" x="42" y="658.8907">getX(): double</text><ellipse cx="33" cy="672.2716" fill="#84BE84" rx="3" ry="3" style="stroke:#038048;stroke-width:1.0;"/><text fill="#000000" font-family="sans-serif" font-size="14" lengthAdjust="spacing" textLength="90" x="42" y="676.5001">getY(): double</text><ellipse cx="33" cy="689.8809" fill="#84BE84" rx="3" ry="3" style="stroke:#038048;stroke-width:1.0;"/><text fill="#000000" font-family="sans-serif" font-size="14" lengthAdjust="spacing" textLength="114" x="42" y="694.1095">setX(double): void</text><ellipse cx="33" cy="707.4903" fill="#84BE84" rx="3" ry="3" style="stroke:#038048;stroke-width:1.0;"/><text fill="#000000" font-family="sans-serif" font-size="14" lengthAdjust="spacing" textLength="115" x="42" y="711.7188">setY(double): void</text></g></a><!--class nz.ac.wgtn.swen225.lc.renderer.Camera.State--><a href="Camera.State.html" target="_top" title="Camera.State.html" xlink:actuate="onRequest" xlink:href="Camera.State.html" xlink:show="new" xlink:title="Camera.State.html" xlink:type="simple"><g id="elem_nz.ac.wgtn.swen225.lc.renderer.Camera.State"><rect codeLine="38" fill="#F1F1F1" height="136.0469" id="nz.ac.wgtn.swen225.lc.renderer.Camera.State" rx="2.5" ry="2.5" style="stroke:#181818;stroke-width:0.5;" width="119" x="102.5" y="920.06"/><ellipse cx="117.5" cy="936.06" fill="#EB937F" rx="11" ry="11" style="stroke:#181818;stroke-width:1.0;"/><path d="M116.3594,936.8569 L116.3594,939.3569 L120.6875,939.3569 L120.6875,938.435 Q120.6875,937.8256 120.9219,937.56 Q121.1719,937.2944 121.5469,937.2944 Q121.9219,937.2944 122.1563,937.56 Q122.3906,937.8256 122.3906,938.435 L122.3906,941.06 L114.3906,941.06 Q113.7656,941.06 113.5,940.8256 Q113.25,940.5913 113.25,940.2006 Q113.25,939.8256 113.5156,939.5913 Q113.7813,939.3569 114.3906,939.3569 L114.6563,939.3569 L114.6563,932.7006 L114.3906,932.7006 Q113.7656,932.7006 113.5,932.4663 Q113.25,932.2319 113.25,931.8413 Q113.25,931.4663 113.5,931.2319 Q113.7656,930.9975 114.3906,930.9975 L122.0156,930.9975 L122.0156,933.5913 Q122.0156,934.2006 121.7813,934.4663 Q121.5625,934.7163 121.1719,934.7163 Q120.7969,934.7163 120.5625,934.4663 Q120.3281,934.2006 120.3281,933.5913 L120.3281,932.7006 L116.3594,932.7006 L116.3594,935.1538 L117.8438,935.1538 Q117.8438,934.4975 117.9688,934.31 Q118.2344,933.9038 118.7031,933.9038 Q119.0781,933.9038 119.3125,934.1694 Q119.5469,934.4194 119.5469,935.0288 L119.5469,936.9975 Q119.5469,937.5444 119.4219,937.7319 Q119.1563,938.1225 118.7031,938.1225 Q118.2344,938.1225 117.9688,937.7163 Q117.8438,937.5288 117.8438,936.8569 L116.3594,936.8569 Z " fill="#000000"/><text fill="#000000" font-family="sans-serif" font-size="14" lengthAdjust="spacing" textLength="87" x="131.5" y="941.7885">Camera.State</text><line style="stroke:#181818;stroke-width:0.5;" x1="103.5" x2="220.5" y1="952.06" y2="952.06"/><ellipse cx="113.5" cy="966.3647" fill="none" rx="3" ry="3" style="stroke:#038048;stroke-width:1.0;"/><text fill="#000000" font-family="sans-serif" font-size="14" lengthAdjust="spacing" text-decoration="underline" textLength="30" x="122.5" y="970.5932">IDLE</text><ellipse cx="113.5" cy="983.9741" fill="none" rx="3" ry="3" style="stroke:#038048;stroke-width:1.0;"/><text fill="#000000" font-family="sans-serif" font-size="14" lengthAdjust="spacing" text-decoration="underline" textLength="18" x="122.5" y="988.2026">UP</text><ellipse cx="113.5" cy="1001.5834" fill="none" rx="3" ry="3" style="stroke:#038048;stroke-width:1.0;"/><text fill="#000000" font-family="sans-serif" font-size="14" lengthAdjust="spacing" text-decoration="underline" textLength="43" x="122.5" y="1005.812">DOWN</text><ellipse cx="113.5" cy="1019.1928" fill="none" rx="3" ry="3" style="stroke:#038048;stroke-width:1.0;"/><text fill="#000000" font-family="sans-serif" font-size="14" lengthAdjust="spacing" text-decoration="underline" textLength="35" x="122.5" y="1023.4213">LEFT</text><ellipse cx="113.5" cy="1036.8022" fill="none" rx="3" ry="3" style="stroke:#038048;stroke-width:1.0;"/><text fill="#000000" font-family="sans-serif" font-size="14" lengthAdjust="spacing" text-decoration="underline" textLength="42" x="122.5" y="1041.0307">RIGHT</text><line style="stroke:#181818;stroke-width:0.5;" x1="103.5" x2="220.5" y1="1048.1069" y2="1048.1069"/></g></a><!--class nz.ac.wgtn.swen225.lc.renderer.Renderer--><a href="Renderer.html" target="_top" title="Renderer.html" xlink:actuate="onRequest" xlink:href="Renderer.html" xlink:show="new" xlink:title="Renderer.html" xlink:type="simple"><g id="elem_nz.ac.wgtn.swen225.lc.renderer.Renderer"><rect codeLine="46" fill="#F1F1F1" height="136.0469" id="nz.ac.wgtn.swen225.lc.renderer.Renderer" rx="2.5" ry="2.5" style="stroke:#181818;stroke-width:0.5;" width="258" x="135" y="183.81"/><ellipse cx="229.75" cy="199.81" fill="#ADD1B2" rx="11" ry="11" style="stroke:#181818;stroke-width:1.0;"/><path d="M232.5156,195.685 Q232.6719,195.4662 232.8594,195.3569 Q233.0469,195.2475 233.2656,195.2475 Q233.6406,195.2475 233.875,195.5131 Q234.1094,195.7631 234.1094,196.3725 L234.1094,197.8256 Q234.1094,198.435 233.875,198.7006 Q233.6406,198.9662 233.2656,198.9662 Q232.9219,198.9662 232.7188,198.7631 Q232.5156,198.5756 232.4063,198.06 Q232.3594,197.7006 232.1719,197.5131 Q231.8438,197.1381 231.2344,196.9194 Q230.625,196.7006 230,196.7006 Q229.2344,196.7006 228.5938,197.0287 Q227.9688,197.3569 227.4688,198.1069 Q226.9844,198.8569 226.9844,199.8881 L226.9844,200.9819 Q226.9844,202.2162 227.875,203.0444 Q228.7656,203.8569 230.3594,203.8569 Q231.2969,203.8569 231.9531,203.6069 Q232.3438,203.4506 232.7656,203.0131 Q233.0313,202.7475 233.1719,202.6694 Q233.3281,202.5912 233.5313,202.5912 Q233.8594,202.5912 234.1094,202.8569 Q234.375,203.1069 234.375,203.4506 Q234.375,203.7944 234.0313,204.2006 Q233.5313,204.7787 232.7344,205.1069 Q231.6563,205.56 230.3594,205.56 Q228.8438,205.56 227.6406,204.935 Q226.6563,204.435 225.9688,203.3725 Q225.2813,202.2944 225.2813,201.0131 L225.2813,199.8569 Q225.2813,198.5287 225.8906,197.3881 Q226.5156,196.2319 227.6094,195.6225 Q228.7031,194.9975 229.9375,194.9975 Q230.6719,194.9975 231.3125,195.1694 Q231.9688,195.3256 232.5156,195.685 Z " fill="#000000"/><text fill="#000000" font-family="sans-serif" font-size="14" lengthAdjust="spacing" textLength="60" x="250.25" y="205.5385">Renderer</text><line style="stroke:#181818;stroke-width:0.5;" x1="136" x2="392" y1="215.81" y2="215.81"/><ellipse cx="146" cy="230.1147" fill="none" rx="3" ry="3" style="stroke:#038048;stroke-width:1.0;"/><text fill="#000000" font-family="sans-serif" font-size="14" lengthAdjust="spacing" textLength="75" x="155" y="234.3432">timer: Timer</text><line style="stroke:#181818;stroke-width:0.5;" x1="136" x2="392" y1="241.4194" y2="241.4194"/><ellipse cx="146" cy="255.7241" fill="#84BE84" rx="3" ry="3" style="stroke:#038048;stroke-width:1.0;"/><text fill="#000000" font-family="sans-serif" font-size="14" lengthAdjust="spacing" textLength="232" x="155" y="259.9526">Renderer(Board, int, AudioUnit, App)</text><ellipse cx="146" cy="273.3334" fill="#84BE84" rx="3" ry="3" style="stroke:#038048;stroke-width:1.0;"/><text fill="#000000" font-family="sans-serif" font-size="14" lengthAdjust="spacing" textLength="131" x="155" y="277.562">draw(Graphics): void</text><ellipse cx="146" cy="290.9428" fill="#84BE84" rx="3" ry="3" style="stroke:#038048;stroke-width:1.0;"/><text fill="#000000" font-family="sans-serif" font-size="14" lengthAdjust="spacing" textLength="134" x="155" y="295.1713">playSound(Tile): void</text><ellipse cx="146" cy="308.5522" fill="#84BE84" rx="3" ry="3" style="stroke:#038048;stroke-width:1.0;"/><text fill="#000000" font-family="sans-serif" font-size="14" lengthAdjust="spacing" textLength="132" x="155" y="312.7807">paint(Graphics): void</text></g></a><!--class nz.ac.wgtn.swen225.lc.renderer.Renderer.Images--><a href="Renderer.Images.html" target="_top" title="Renderer.Images.html" xlink:actuate="onRequest" xlink:href="Renderer.Images.html" xlink:show="new" xlink:title="Renderer.Images.html" xlink:type="simple"><g id="elem_nz.ac.wgtn.swen225.lc.renderer.Renderer.Images"><rect codeLine="54" fill="#F1F1F1" height="435.4063" id="nz.ac.wgtn.swen225.lc.renderer.Renderer.Images" rx="2.5" ry="2.5" style="stroke:#181818;stroke-width:0.5;" width="141" x="339.5" y="406.66"/><ellipse cx="354.5" cy="422.66" fill="#EB937F" rx="11" ry="11" style="stroke:#181818;stroke-width:1.0;"/><path d="M353.3594,423.4569 L353.3594,425.9569 L357.6875,425.9569 L357.6875,425.035 Q357.6875,424.4256 357.9219,424.16 Q358.1719,423.8944 358.5469,423.8944 Q358.9219,423.8944 359.1563,424.16 Q359.3906,424.4256 359.3906,425.035 L359.3906,427.66 L351.3906,427.66 Q350.7656,427.66 350.5,427.4256 Q350.25,427.1912 350.25,426.8006 Q350.25,426.4256 350.5156,426.1912 Q350.7813,425.9569 351.3906,425.9569 L351.6563,425.9569 L351.6563,419.3006 L351.3906,419.3006 Q350.7656,419.3006 350.5,419.0662 Q350.25,418.8319 350.25,418.4412 Q350.25,418.0662 350.5,417.8319 Q350.7656,417.5975 351.3906,417.5975 L359.0156,417.5975 L359.0156,420.1912 Q359.0156,420.8006 358.7813,421.0662 Q358.5625,421.3162 358.1719,421.3162 Q357.7969,421.3162 357.5625,421.0662 Q357.3281,420.8006 357.3281,420.1912 L357.3281,419.3006 L353.3594,419.3006 L353.3594,421.7537 L354.8438,421.7537 Q354.8438,421.0975 354.9688,420.91 Q355.2344,420.5037 355.7031,420.5037 Q356.0781,420.5037 356.3125,420.7694 Q356.5469,421.0194 356.5469,421.6287 L356.5469,423.5975 Q356.5469,424.1444 356.4219,424.3319 Q356.1563,424.7225 355.7031,424.7225 Q355.2344,424.7225 354.9688,424.3162 Q354.8438,424.1287 354.8438,423.4569 L353.3594,423.4569 Z " fill="#000000"/><text fill="#000000" font-family="sans-serif" font-size="14" lengthAdjust="spacing" textLength="109" x="368.5" y="428.3885">Renderer.Images</text><line style="stroke:#181818;stroke-width:0.5;" x1="340.5" x2="479.5" y1="438.66" y2="438.66"/><ellipse cx="350.5" cy="452.9647" fill="none" rx="3" ry="3" style="stroke:#038048;stroke-width:1.0;"/><text fill="#000000" font-family="sans-serif" font-size="14" lengthAdjust="spacing" text-decoration="underline" textLength="85" x="359.5" y="457.1932">DOOR_BLUE</text><ellipse cx="350.5" cy="470.5741" fill="none" rx="3" ry="3" style="stroke:#038048;stroke-width:1.0;"/><text fill="#000000" font-family="sans-serif" font-size="14" lengthAdjust="spacing" text-decoration="underline" textLength="98" x="359.5" y="474.8026">DOOR_GREEN</text><ellipse cx="350.5" cy="488.1834" fill="none" rx="3" ry="3" style="stroke:#038048;stroke-width:1.0;"/><text fill="#000000" font-family="sans-serif" font-size="14" lengthAdjust="spacing" text-decoration="underline" textLength="79" x="359.5" y="492.412">DOOR_RED</text><ellipse cx="350.5" cy="505.7928" fill="none" rx="3" ry="3" style="stroke:#038048;stroke-width:1.0;"/><text fill="#000000" font-family="sans-serif" font-size="14" lengthAdjust="spacing" text-decoration="underline" textLength="108" x="359.5" y="510.0213">DOOR_YELLOW</text><ellipse cx="350.5" cy="523.4022" fill="none" rx="3" ry="3" style="stroke:#038048;stroke-width:1.0;"/><text fill="#000000" font-family="sans-serif" font-size="14" lengthAdjust="spacing" text-decoration="underline" textLength="29" x="359.5" y="527.6307">EXIT</text><ellipse cx="350.5" cy="541.0116" fill="none" rx="3" ry="3" style="stroke:#038048;stroke-width:1.0;"/><text fill="#000000" font-family="sans-serif" font-size="14" lengthAdjust="spacing" text-decoration="underline" textLength="37" x="359.5" y="545.2401">FREE</text><ellipse cx="350.5" cy="558.6209" fill="none" rx="3" ry="3" style="stroke:#038048;stroke-width:1.0;"/><text fill="#000000" font-family="sans-serif" font-size="14" lengthAdjust="spacing" text-decoration="underline" textLength="60" x="359.5" y="562.8495">INFOBOX</text><ellipse cx="350.5" cy="576.2303" fill="none" rx="3" ry="3" style="stroke:#038048;stroke-width:1.0;"/><text fill="#000000" font-family="sans-serif" font-size="14" lengthAdjust="spacing" text-decoration="underline" textLength="70" x="359.5" y="580.4588">KEY_BLUE</text><ellipse cx="350.5" cy="593.8397" fill="none" rx="3" ry="3" style="stroke:#038048;stroke-width:1.0;"/><text fill="#000000" font-family="sans-serif" font-size="14" lengthAdjust="spacing" text-decoration="underline" textLength="83" x="359.5" y="598.0682">KEY_GREEN</text><ellipse cx="350.5" cy="611.4491" fill="none" rx="3" ry="3" style="stroke:#038048;stroke-width:1.0;"/><text fill="#000000" font-family="sans-serif" font-size="14" lengthAdjust="spacing" text-decoration="underline" textLength="64" x="359.5" y="615.6776">KEY_RED</text><ellipse cx="350.5" cy="629.0584" fill="none" rx="3" ry="3" style="stroke:#038048;stroke-width:1.0;"/><text fill="#000000" font-family="sans-serif" font-size="14" lengthAdjust="spacing" text-decoration="underline" textLength="93" x="359.5" y="633.287">KEY_YELLOW</text><ellipse cx="350.5" cy="646.6678" fill="none" rx="3" ry="3" style="stroke:#038048;stroke-width:1.0;"/><text fill="#000000" font-family="sans-serif" font-size="14" lengthAdjust="spacing" text-decoration="underline" textLength="38" x="359.5" y="650.8963">WALL</text><ellipse cx="350.5" cy="664.2772" fill="none" rx="3" ry="3" style="stroke:#038048;stroke-width:1.0;"/><text fill="#000000" font-family="sans-serif" font-size="14" lengthAdjust="spacing" text-decoration="underline" textLength="38" x="359.5" y="668.5057">BOAT</text><ellipse cx="350.5" cy="681.8866" fill="none" rx="3" ry="3" style="stroke:#038048;stroke-width:1.0;"/><text fill="#000000" font-family="sans-serif" font-size="14" lengthAdjust="spacing" text-decoration="underline" textLength="106" x="359.5" y="686.1151">SEAGULL_LEFT</text><ellipse cx="350.5" cy="699.4959" fill="none" rx="3" ry="3" style="stroke:#038048;stroke-width:1.0;"/><text fill="#000000" font-family="sans-serif" font-size="14" lengthAdjust="spacing" text-decoration="underline" textLength="113" x="359.5" y="703.7245">SEAGULL_RIGHT</text><ellipse cx="350.5" cy="717.1053" fill="none" rx="3" ry="3" style="stroke:#038048;stroke-width:1.0;"/><text fill="#000000" font-family="sans-serif" font-size="14" lengthAdjust="spacing" text-decoration="underline" textLength="47" x="359.5" y="721.3338">ENEMY</text><ellipse cx="350.5" cy="734.7147" fill="none" rx="3" ry="3" style="stroke:#038048;stroke-width:1.0;"/><text fill="#000000" font-family="sans-serif" font-size="14" lengthAdjust="spacing" text-decoration="underline" textLength="30" x="359.5" y="738.9432">FISH</text><ellipse cx="350.5" cy="752.3241" fill="none" rx="3" ry="3" style="stroke:#038048;stroke-width:1.0;"/><text fill="#000000" font-family="sans-serif" font-size="14" lengthAdjust="spacing" text-decoration="underline" textLength="55" x="359.5" y="756.5526">BOTTLE</text><ellipse cx="350.5" cy="769.9334" fill="none" rx="3" ry="3" style="stroke:#038048;stroke-width:1.0;"/><text fill="#000000" font-family="sans-serif" font-size="14" lengthAdjust="spacing" text-decoration="underline" textLength="75" x="359.5" y="774.162">EXIT_LOCK</text><ellipse cx="350.5" cy="787.5428" fill="none" rx="3" ry="3" style="stroke:#038048;stroke-width:1.0;"/><text fill="#000000" font-family="sans-serif" font-size="14" lengthAdjust="spacing" text-decoration="underline" textLength="76" x="359.5" y="791.7713">INFOPANEL</text><ellipse cx="350.5" cy="805.1522" fill="none" rx="3" ry="3" style="stroke:#038048;stroke-width:1.0;"/><text fill="#000000" font-family="sans-serif" font-size="14" lengthAdjust="spacing" text-decoration="underline" textLength="82" x="359.5" y="809.3807">WHIRLPOOL</text><ellipse cx="350.5" cy="822.7616" fill="none" rx="3" ry="3" style="stroke:#038048;stroke-width:1.0;"/><text fill="#000000" font-family="sans-serif" font-size="14" lengthAdjust="spacing" text-decoration="underline" textLength="40" x="359.5" y="826.9901">DOCK</text><line style="stroke:#181818;stroke-width:0.5;" x1="340.5" x2="479.5" y1="834.0662" y2="834.0662"/></g></a><!--class javax.swing.JPanel--><g id="elem_javax.swing.JPanel"><rect codeLine="88" fill="#F1F1F1" height="48" id="javax.swing.JPanel" rx="2.5" ry="2.5" style="stroke:#181818;stroke-width:0.5;" width="74" x="227" y="42"/><ellipse cx="242" cy="58" fill="#ADD1B2" rx="11" ry="11" style="stroke:#181818;stroke-width:1.0;"/><path d="M244.7656,53.875 Q244.9219,53.6563 245.1094,53.5469 Q245.2969,53.4375 245.5156,53.4375 Q245.8906,53.4375 246.125,53.7031 Q246.3594,53.9531 246.3594,54.5625 L246.3594,56.0156 Q246.3594,56.625 246.125,56.8906 Q245.8906,57.1563 245.5156,57.1563 Q245.1719,57.1563 244.9688,56.9531 Q244.7656,56.7656 244.6563,56.25 Q244.6094,55.8906 244.4219,55.7031 Q244.0938,55.3281 243.4844,55.1094 Q242.875,54.8906 242.25,54.8906 Q241.4844,54.8906 240.8438,55.2188 Q240.2188,55.5469 239.7188,56.2969 Q239.2344,57.0469 239.2344,58.0781 L239.2344,59.1719 Q239.2344,60.4063 240.125,61.2344 Q241.0156,62.0469 242.6094,62.0469 Q243.5469,62.0469 244.2031,61.7969 Q244.5938,61.6406 245.0156,61.2031 Q245.2813,60.9375 245.4219,60.8594 Q245.5781,60.7813 245.7813,60.7813 Q246.1094,60.7813 246.3594,61.0469 Q246.625,61.2969 246.625,61.6406 Q246.625,61.9844 246.2813,62.3906 Q245.7813,62.9688 244.9844,63.2969 Q243.9063,63.75 242.6094,63.75 Q241.0938,63.75 239.8906,63.125 Q238.9063,62.625 238.2188,61.5625 Q237.5313,60.4844 237.5313,59.2031 L237.5313,58.0469 Q237.5313,56.7188 238.1406,55.5781 Q238.7656,54.4219 239.8594,53.8125 Q240.9531,53.1875 242.1875,53.1875 Q242.9219,53.1875 243.5625,53.3594 Q244.2188,53.5156 244.7656,53.875 Z " fill="#000000"/><text fill="#000000" font-family="sans-serif" font-size="14" lengthAdjust="spacing" textLength="42" x="256" y="63.7285">JPanel</text><line style="stroke:#181818;stroke-width:0.5;" x1="228" x2="300" y1="74" y2="74"/><line style="stroke:#181818;stroke-width:0.5;" x1="228" x2="300" y1="82" y2="82"/></g><!--reverse link nz.ac.wgtn.swen225.lc.renderer.AudioUnit to nz.ac.wgtn.swen225.lc.renderer.AudioUnit.AudioClip--><g id="link_nz.ac.wgtn.swen225.lc.renderer.AudioUnit_nz.ac.wgtn.swen225.lc.renderer.AudioUnit.AudioClip"><path codeLine="79" d="M573.71,344.97 C577,390.04 581.01,445.05 584.59,494.23 " fill="none" id="nz.ac.wgtn.swen225.lc.renderer.AudioUnit-backto-nz.ac.wgtn.swen225.lc.renderer.AudioUnit.AudioClip" style="stroke:#181818;stroke-width:1.0;"/><ellipse cx="573.1468" cy="338.1285" fill="#FFFFFF" rx="8" ry="8" style="stroke:#181818;stroke-width:1.0;"/><line style="stroke:#181818;stroke-width:1.0;" x1="573.7335" x2="572.56" y1="346.1069" y2="330.15"/><line style="stroke:#181818;stroke-width:1.0;" x1="565.1683" x2="581.1252" y1="338.7152" y2="337.5417"/></g><!--link nz.ac.wgtn.swen225.lc.renderer.Camera to nz.ac.wgtn.swen225.lc.renderer.Camera.State--><g id="link_nz.ac.wgtn.swen225.lc.renderer.Camera_nz.ac.wgtn.swen225.lc.renderer.Camera.State"><path codeLine="80" d="M146.55,719.18 C139.85,769.84 134.94,833.44 141,890.06 C141.84,897.93 143.06,906.1 144.48,914.2 " fill="none" id="nz.ac.wgtn.swen225.lc.renderer.Camera-to-nz.ac.wgtn.swen225.lc.renderer.Camera.State" style="stroke:#181818;stroke-width:1.0;"/><polygon fill="#181818" points="145.5,918.8,147.8133,909.2267,144.5993,913.8818,139.9441,910.6678,145.5,918.8" style="stroke:#181818;stroke-width:1.0;"/><text fill="#000000" font-family="sans-serif" font-size="13" lengthAdjust="spacing" textLength="29" x="142" y="886.5551">state</text></g><!--reverse link nz.ac.wgtn.swen225.lc.renderer.Camera to nz.ac.wgtn.swen225.lc.renderer.Camera.State--><g id="link_nz.ac.wgtn.swen225.lc.renderer.Camera_nz.ac.wgtn.swen225.lc.renderer.Camera.State"><path codeLine="81" d="M174.31,734.95 C177.7,782.64 179.65,839.14 176,890.06 C175.31,899.65 174.25,909.74 173,919.63 " fill="none" id="nz.ac.wgtn.swen225.lc.renderer.Camera-backto-nz.ac.wgtn.swen225.lc.renderer.Camera.State" style="stroke:#181818;stroke-width:1.0;"/><ellipse cx="173.7119" cy="728.1173" fill="#FFFFFF" rx="8" ry="8" style="stroke:#181818;stroke-width:1.0;"/><line style="stroke:#181818;stroke-width:1.0;" x1="174.3138" x2="173.11" y1="736.0946" y2="720.14"/><line style="stroke:#181818;stroke-width:1.0;" x1="165.7346" x2="181.6892" y1="728.7192" y2="727.5154"/></g><!--reverse link javax.swing.JPanel to nz.ac.wgtn.swen225.lc.renderer.Renderer--><g id="link_javax.swing.JPanel_nz.ac.wgtn.swen225.lc.renderer.Renderer"><path codeLine="82" d="M264,111.14 C264,132.8 264,159.36 264,183.48 " fill="none" id="javax.swing.JPanel-backto-nz.ac.wgtn.swen225.lc.renderer.Renderer" style="stroke:#181818;stroke-width:1.0;"/><polygon fill="none" points="257,111.28,264,91.28,271,111.28,257,111.28" style="stroke:#181818;stroke-width:1.0;"/></g><!--link nz.ac.wgtn.swen225.lc.renderer.Renderer to nz.ac.wgtn.swen225.lc.renderer.Camera--><g id="link_nz.ac.wgtn.swen225.lc.renderer.Renderer_nz.ac.wgtn.swen225.lc.renderer.Camera"><path codeLine="83" d="M245.71,319.93 C230.17,376.93 207.65,459.54 190.04,524.18 " fill="none" id="nz.ac.wgtn.swen225.lc.renderer.Renderer-to-nz.ac.wgtn.swen225.lc.renderer.Camera" style="stroke:#181818;stroke-width:1.0;"/><polygon fill="#181818" points="188.56,528.58,194.789,520.9512,189.8768,523.7565,187.0714,518.8443,188.56,528.58" style="stroke:#181818;stroke-width:1.0;"/><text fill="#000000" font-family="sans-serif" font-size="13" lengthAdjust="spacing" textLength="43" x="235" y="373.1551">camera</text></g><!--reverse link nz.ac.wgtn.swen225.lc.renderer.Renderer to nz.ac.wgtn.swen225.lc.renderer.Renderer.Images--><g id="link_nz.ac.wgtn.swen225.lc.renderer.Renderer_nz.ac.wgtn.swen225.lc.renderer.Renderer.Images"><path codeLine="84" d="M296.29,334.77 C309,367.04 324.14,405.45 339.15,443.55 " fill="none" id="nz.ac.wgtn.swen225.lc.renderer.Renderer-backto-nz.ac.wgtn.swen225.lc.renderer.Renderer.Images" style="stroke:#181818;stroke-width:1.0;"/><ellipse cx="293.373" cy="328.373" fill="#FFFFFF" rx="8" ry="8" style="stroke:#181818;stroke-width:1.0;"/><line style="stroke:#181818;stroke-width:1.0;" x1="296.306" x2="290.44" y1="335.8159" y2="320.93"/><line style="stroke:#181818;stroke-width:1.0;" x1="285.93" x2="300.8159" y1="331.3059" y2="325.44"/></g><text fill="#888888" font-family="sans-serif" font-size="10" lengthAdjust="spacing" textLength="184" x="248.5" y="1088.4909">UMLDoclet 2.1.0, PlantUML 1.2022.14</text><!--SRC=[dLPTRzem57tlh_3B9Af2j5Bj1KsJGWYGpH04YG2X2hc95xm59qgSTblN_xwOG0WbrxJZnIRd-kP-d7iSX13YP4lJc7WKyJyQyRIdG70jVQAytVwaXPwMKExJX2Re-UeAxNzUID8KwPdF8fSpWLQhSgzjn3Qyly-jKULtamgIY2xnVWP9b75_bANCQrntq6F4_1fBVVl0AFTelKaSajypIe8i36Vz1MpJP-b6QJ2JiJHsiHiXYu5uebWFmpCdByToK9vjBrHFEnQeVDr9sSgdzGLypiiYcFU2RhgwyMqmjTrn3p3GHrtB71ic0CzCVU1YVAk6sshu3e3xrcouDdHtC7G02tDiZfPhtN7oD02JdcrFxOav1k1lvjAmCJODHn74hG9hAx2xkluMT3VoGKb8thHY0n2z01j-b3s4j8dgr-lJCrdi4q6BavCePO95l65iI3qX0ohcp1SRoSZ2tHa-f2pO28N1Ge4j8IoLv_O9r4wAF5kFltDOzXMUvPsXnuBl_buQ3wk78UQx4v1mSuXisEn3D9jQLPQVqMLwqCtLwh05A2DOdbu7EN8vHGu76zs897uJCIwQHzdDjt7yYaf-GfuQWuJ46-Qb5tJFOK0ZOvA_2FJopbwMoLjR4j2qMexYoQMEIZbOTx5hgl31r0G5OsSmDNigU6bYRCyXpLfOeDRaxuMOEExRNNi1gvWgAGchSf8ud994bHdDTOoX-yNM7RNuhnL3SJ0v7OwQAq2XmM1WZWFEjcpH6jlWdIARCT779fJrV6XDySIsCKYIYklA11o_WMvQhV_u1YWTxM-NLklBUyInWsI4zBMNDyHIzL8U_q4UoQ_SdF50-peXd8Reyz_Srs5YIyDIt6IyXQiEydRhkSqRedab2LULAX-_JolHLSIYKDjzjC-L7bLyU9IBF93lKIGNTuHxaHTIWThQhVQnYIOXuI9_YZuyqYILb-_rFm00]--></g></svg>