<?xml version="1.0" encoding="UTF-8" standalone="no"?><svg xmlns="http://www.w3.org/2000/svg" xmlns:xlink="http://www.w3.org/1999/xlink" contentScriptType="application/ecmascript" contentStyleType="text/css" height="1017px" preserveAspectRatio="none" style="width:645px;height:1017px;background:#FFFFFF;" version="1.1" viewBox="0 0 645 1017" width="645px" zoomAndPan="magnify"><defs><filter height="300%" id="fo8j01qtnr1sn" width="300%" x="-1" y="-1"><feGaussianBlur result="blurOut" stdDeviation="2.0"/><feColorMatrix in="blurOut" result="blurOut2" type="matrix" values="0 0 0 0 0 0 0 0 0 0 0 0 0 0 0 0 0 0 .4 0"/><feOffset dx="4.0" dy="4.0" in="blurOut2" result="blurOut3"/><feBlend in="SourceGraphic" in2="blurOut3" mode="normal"/></filter></defs><g><!--MD5=[ff17a17c8d58aa71d00458aa20630b94]
cluster nz.ac.wgtn.swen225.lc.renderer--><polygon fill="#FFFFFF" filter="url(#fo8j01qtnr1sn)" points="16,141.602,240,141.602,247,166.6699,628,166.6699,628,992.002,16,992.002,16,141.602" style="stroke:#000000;stroke-width:1.5;"/><line style="stroke:#000000;stroke-width:1.5;" x1="16" x2="247" y1="166.6699" y2="166.6699"/><text fill="#000000" font-family="sans-serif" font-size="14" font-weight="bold" lengthAdjust="spacing" textLength="218" x="20" y="158.5679">nz.ac.wgtn.swen225.lc.renderer</text><!--MD5=[535aab4de90d4dfa371a9b40d5438fc3]
cluster javax.swing--><polygon fill="#FFFFFF" filter="url(#fo8j01qtnr1sn)" points="204,6.602,291,6.602,298,31.6699,302,31.6699,302,108.602,204,108.602,204,6.602" style="stroke:#000000;stroke-width:1.5;"/><line style="stroke:#000000;stroke-width:1.5;" x1="204" x2="298" y1="31.6699" y2="31.6699"/><text fill="#000000" font-family="sans-serif" font-size="14" font-weight="bold" lengthAdjust="spacing" textLength="81" x="208" y="23.5679">javax.swing</text><!--MD5=[a2a94dd40b70946556e1557bafa67b3c]
class nz.ac.wgtn.swen225.lc.renderer.AudioUnit--><a href="AudioUnit.html" target="_top" title="AudioUnit.html" xlink:actuate="onRequest" xlink:href="AudioUnit.html" xlink:show="new" xlink:title="AudioUnit.html" xlink:type="simple"><rect codeLine="3" fill="#FEFECE" filter="url(#fo8j01qtnr1sn)" height="137.8913" id="nz.ac.wgtn.swen225.lc.renderer.AudioUnit" style="stroke:#A80036;stroke-width:1.5;" width="179" x="433.5" y="179.602"/><ellipse cx="491.25" cy="195.602" fill="#ADD1B2" rx="11" ry="11" style="stroke:#A80036;stroke-width:1.0;"/><path d="M490.7188,202.5239 Q488.9688,202.5239 487.8281,201.7895 Q486.7031,201.0395 486.1406,199.6957 Q485.5938,198.3364 485.5938,196.5395 Q485.5938,194.5082 486.25,193.0551 Q486.9063,191.602 488.1875,190.8207 Q489.4688,190.0395 491.3438,190.0395 Q492.2344,190.0395 492.9063,190.227 Q493.5781,190.3989 494.2656,190.7426 L493.4531,192.7582 Q492.8281,192.4457 492.2813,192.3207 Q491.75,192.1957 491.2656,192.1957 Q490.0938,192.1957 489.3906,192.727 Q488.6875,193.2582 488.3906,194.2114 Q488.0938,195.1645 488.0938,196.4301 Q488.0938,198.4457 488.8125,199.4145 Q489.5313,200.3676 491.125,200.3676 Q491.7188,200.3676 492.3438,200.2114 Q492.9688,200.0551 493.7969,199.6801 L493.7969,201.8989 Q493.0625,202.2114 492.2656,202.3676 Q491.4844,202.5239 490.7188,202.5239 Z " fill="#000000"/><text fill="#000000" font-family="sans-serif" font-size="12" lengthAdjust="spacing" textLength="55" x="511.75" y="200.258">AudioUnit</text><line style="stroke:#A80036;stroke-width:1.5;" x1="434.5" x2="611.5" y1="211.602" y2="211.602"/><line style="stroke:#A80036;stroke-width:1.5;" x1="434.5" x2="611.5" y1="219.602" y2="219.602"/><ellipse cx="444.5" cy="230.602" fill="#84BE84" rx="3" ry="3" style="stroke:#038048;stroke-width:1.0;"/><text fill="#000000" font-family="sans-serif" font-size="11" lengthAdjust="spacing" textLength="153" x="453.5" y="235.3609">startBackgroundMusic(): void</text><ellipse cx="444.5" cy="245.5839" fill="#84BE84" rx="3" ry="3" style="stroke:#038048;stroke-width:1.0;"/><text fill="#000000" font-family="sans-serif" font-size="11" lengthAdjust="spacing" textLength="110" x="453.5" y="250.3428">startAmbience(): void</text><ellipse cx="444.5" cy="260.5658" fill="#84BE84" rx="3" ry="3" style="stroke:#038048;stroke-width:1.0;"/><text fill="#000000" font-family="sans-serif" font-size="11" lengthAdjust="spacing" textLength="113" x="453.5" y="265.3247">playSeagullSFX(): void</text><ellipse cx="444.5" cy="275.5476" fill="#84BE84" rx="3" ry="3" style="stroke:#038048;stroke-width:1.0;"/><text fill="#000000" font-family="sans-serif" font-size="11" lengthAdjust="spacing" textLength="96" x="453.5" y="280.3066">playFishSFX(): void</text><ellipse cx="444.5" cy="290.5295" fill="#84BE84" rx="3" ry="3" style="stroke:#038048;stroke-width:1.0;"/><text fill="#000000" font-family="sans-serif" font-size="11" lengthAdjust="spacing" textLength="142" x="453.5" y="295.2884">playSound(AudioClip): void</text><ellipse cx="444.5" cy="305.5114" fill="#84BE84" rx="3" ry="3" style="stroke:#038048;stroke-width:1.0;"/><text fill="#000000" font-family="sans-serif" font-size="11" lengthAdjust="spacing" textLength="71" x="453.5" y="310.2703">stopAll(): void</text></a><!--MD5=[3c1e86fd4f009387ffc78abbf8c78168]
class nz.ac.wgtn.swen225.lc.renderer.AudioUnit.AudioClip--><a href="AudioUnit.AudioClip.html" target="_top" title="AudioUnit.AudioClip.html" xlink:actuate="onRequest" xlink:href="AudioUnit.AudioClip.html" xlink:show="new" xlink:title="AudioUnit.AudioClip.html" xlink:type="simple"><rect codeLine="12" fill="#FEFECE" filter="url(#fo8j01qtnr1sn)" height="227.7827" id="nz.ac.wgtn.swen225.lc.renderer.AudioUnit.AudioClip" style="stroke:#A80036;stroke-width:1.5;" width="143" x="469.5" y="471.402"/><ellipse cx="484.5" cy="487.402" fill="#EB937F" rx="11" ry="11" style="stroke:#A80036;stroke-width:1.0;"/><path d="M480.8594,493.902 L480.8594,481.7614 L488.5156,481.7614 L488.5156,483.8864 L483.2344,483.8864 L483.2344,486.5426 L488.25,486.5426 L488.25,488.6676 L483.2344,488.6676 L483.2344,491.777 L488.5156,491.777 L488.5156,493.902 L480.8594,493.902 Z " fill="#000000"/><text fill="#000000" font-family="sans-serif" font-size="12" lengthAdjust="spacing" textLength="111" x="498.5" y="492.058">AudioUnit.AudioClip</text><line style="stroke:#A80036;stroke-width:1.5;" x1="470.5" x2="611.5" y1="503.402" y2="503.402"/><ellipse cx="480.5" cy="514.402" rx="3" ry="3" style="stroke:#038048;stroke-width:1.0;fill:none;"/><text fill="#000000" font-family="sans-serif" font-size="11" lengthAdjust="spacing" text-decoration="underline" textLength="76" x="489.5" y="519.1609">BACKGROUND</text><ellipse cx="480.5" cy="529.3839" rx="3" ry="3" style="stroke:#038048;stroke-width:1.0;fill:none;"/><text fill="#000000" font-family="sans-serif" font-size="11" lengthAdjust="spacing" text-decoration="underline" textLength="55" x="489.5" y="534.1428">AMBIENCE</text><ellipse cx="480.5" cy="544.3658" rx="3" ry="3" style="stroke:#038048;stroke-width:1.0;fill:none;"/><text fill="#000000" font-family="sans-serif" font-size="11" lengthAdjust="spacing" text-decoration="underline" textLength="53" x="489.5" y="549.1247">SEAGULL1</text><ellipse cx="480.5" cy="559.3476" rx="3" ry="3" style="stroke:#038048;stroke-width:1.0;fill:none;"/><text fill="#000000" font-family="sans-serif" font-size="11" lengthAdjust="spacing" text-decoration="underline" textLength="53" x="489.5" y="564.1066">SEAGULL2</text><ellipse cx="480.5" cy="574.3295" rx="3" ry="3" style="stroke:#038048;stroke-width:1.0;fill:none;"/><text fill="#000000" font-family="sans-serif" font-size="11" lengthAdjust="spacing" text-decoration="underline" textLength="53" x="489.5" y="579.0884">SEAGULL3</text><ellipse cx="480.5" cy="589.3114" rx="3" ry="3" style="stroke:#038048;stroke-width:1.0;fill:none;"/><text fill="#000000" font-family="sans-serif" font-size="11" lengthAdjust="spacing" text-decoration="underline" textLength="73" x="489.5" y="594.0703">FISH_CAUGHT</text><ellipse cx="480.5" cy="604.2933" rx="3" ry="3" style="stroke:#038048;stroke-width:1.0;fill:none;"/><text fill="#000000" font-family="sans-serif" font-size="11" lengthAdjust="spacing" text-decoration="underline" textLength="81" x="489.5" y="609.0522">ENEMY_ATTACK</text><ellipse cx="480.5" cy="619.2752" rx="3" ry="3" style="stroke:#038048;stroke-width:1.0;fill:none;"/><text fill="#000000" font-family="sans-serif" font-size="11" lengthAdjust="spacing" text-decoration="underline" textLength="63" x="489.5" y="624.0341">DOOROPEN</text><ellipse cx="480.5" cy="634.2571" rx="3" ry="3" style="stroke:#038048;stroke-width:1.0;fill:none;"/><text fill="#000000" font-family="sans-serif" font-size="11" lengthAdjust="spacing" text-decoration="underline" textLength="66" x="489.5" y="639.016">KEYCOLLECT</text><ellipse cx="480.5" cy="649.239" rx="3" ry="3" style="stroke:#038048;stroke-width:1.0;fill:none;"/><text fill="#000000" font-family="sans-serif" font-size="11" lengthAdjust="spacing" text-decoration="underline" textLength="30" x="489.5" y="653.9979">FISH1</text><ellipse cx="480.5" cy="664.2209" rx="3" ry="3" style="stroke:#038048;stroke-width:1.0;fill:none;"/><text fill="#000000" font-family="sans-serif" font-size="11" lengthAdjust="spacing" text-decoration="underline" textLength="30" x="489.5" y="668.9798">FISH2</text><ellipse cx="480.5" cy="679.2027" rx="3" ry="3" style="stroke:#038048;stroke-width:1.0;fill:none;"/><text fill="#000000" font-family="sans-serif" font-size="11" lengthAdjust="spacing" text-decoration="underline" textLength="30" x="489.5" y="683.9617">FISH3</text><line style="stroke:#A80036;stroke-width:1.5;" x1="470.5" x2="611.5" y1="691.1846" y2="691.1846"/></a><!--MD5=[4e2bc18e85765381726e3364af178b80]
class nz.ac.wgtn.swen225.lc.renderer.Camera--><a href="Camera.html" target="_top" title="Camera.html" xlink:actuate="onRequest" xlink:href="Camera.html" xlink:show="new" xlink:title="Camera.html" xlink:type="simple"><rect codeLine="27" fill="#FEFECE" filter="url(#fo8j01qtnr1sn)" height="167.8551" id="nz.ac.wgtn.swen225.lc.renderer.Camera" style="stroke:#A80036;stroke-width:1.5;" width="238" x="32" y="501.362"/><ellipse cx="124.25" cy="517.362" fill="#ADD1B2" rx="11" ry="11" style="stroke:#A80036;stroke-width:1.0;"/><path d="M123.7188,524.2839 Q121.9688,524.2839 120.8281,523.5495 Q119.7031,522.7995 119.1406,521.4557 Q118.5938,520.0964 118.5938,518.2995 Q118.5938,516.2682 119.25,514.8151 Q119.9063,513.362 121.1875,512.5807 Q122.4688,511.7995 124.3438,511.7995 Q125.2344,511.7995 125.9063,511.987 Q126.5781,512.1589 127.2656,512.5026 L126.4531,514.5182 Q125.8281,514.2057 125.2813,514.0807 Q124.75,513.9557 124.2656,513.9557 Q123.0938,513.9557 122.3906,514.487 Q121.6875,515.0182 121.3906,515.9714 Q121.0938,516.9245 121.0938,518.1901 Q121.0938,520.2057 121.8125,521.1745 Q122.5313,522.1276 124.125,522.1276 Q124.7188,522.1276 125.3438,521.9714 Q125.9688,521.8151 126.7969,521.4401 L126.7969,523.6589 Q126.0625,523.9714 125.2656,524.1276 Q124.4844,524.2839 123.7188,524.2839 Z " fill="#000000"/><text fill="#000000" font-family="sans-serif" font-size="12" lengthAdjust="spacing" textLength="45" x="144.75" y="522.018">Camera</text><line style="stroke:#A80036;stroke-width:1.5;" x1="33" x2="269" y1="533.362" y2="533.362"/><line style="stroke:#A80036;stroke-width:1.5;" x1="33" x2="269" y1="541.362" y2="541.362"/><ellipse cx="43" cy="552.362" fill="#84BE84" rx="3" ry="3" style="stroke:#038048;stroke-width:1.0;"/><text fill="#000000" font-family="sans-serif" font-size="11" lengthAdjust="spacing" textLength="212" x="52" y="557.1209">Camera(double, double, double, double)</text><ellipse cx="43" cy="567.3439" fill="#84BE84" rx="3" ry="3" style="stroke:#038048;stroke-width:1.0;"/><text fill="#000000" font-family="sans-serif" font-size="11" lengthAdjust="spacing" textLength="182" x="52" y="572.1028">updateCameraPosition(Chap): void</text><ellipse cx="43" cy="582.3258" fill="#84BE84" rx="3" ry="3" style="stroke:#038048;stroke-width:1.0;"/><text fill="#000000" font-family="sans-serif" font-size="11" lengthAdjust="spacing" textLength="97" x="52" y="587.0847">getWidth(): double</text><ellipse cx="43" cy="597.3076" fill="#84BE84" rx="3" ry="3" style="stroke:#038048;stroke-width:1.0;"/><text fill="#000000" font-family="sans-serif" font-size="11" lengthAdjust="spacing" textLength="101" x="52" y="602.0666">getHeight(): double</text><ellipse cx="43" cy="612.2895" fill="#84BE84" rx="3" ry="3" style="stroke:#038048;stroke-width:1.0;"/><text fill="#000000" font-family="sans-serif" font-size="11" lengthAdjust="spacing" textLength="72" x="52" y="617.0484">getX(): double</text><ellipse cx="43" cy="627.2714" fill="#84BE84" rx="3" ry="3" style="stroke:#038048;stroke-width:1.0;"/><text fill="#000000" font-family="sans-serif" font-size="11" lengthAdjust="spacing" textLength="72" x="52" y="632.0303">getY(): double</text><ellipse cx="43" cy="642.2533" fill="#84BE84" rx="3" ry="3" style="stroke:#038048;stroke-width:1.0;"/><text fill="#000000" font-family="sans-serif" font-size="11" lengthAdjust="spacing" textLength="93" x="52" y="647.0122">setX(double): void</text><ellipse cx="43" cy="657.2352" fill="#84BE84" rx="3" ry="3" style="stroke:#038048;stroke-width:1.0;"/><text fill="#000000" font-family="sans-serif" font-size="11" lengthAdjust="spacing" textLength="93" x="52" y="661.9941">setY(double): void</text></a><!--MD5=[932d56a9087dae8b25465a7d9bd34994]
class nz.ac.wgtn.swen225.lc.renderer.Camera.State--><a href="Camera.State.html" target="_top" title="Camera.State.html" xlink:actuate="onRequest" xlink:href="Camera.State.html" xlink:show="new" xlink:title="Camera.State.html" xlink:type="simple"><rect codeLine="38" fill="#FEFECE" filter="url(#fo8j01qtnr1sn)" height="122.9094" id="nz.ac.wgtn.swen225.lc.renderer.Camera.State" style="stroke:#A80036;stroke-width:1.5;" width="109" x="96.5" y="853.092"/><ellipse cx="111.5" cy="869.092" fill="#EB937F" rx="11" ry="11" style="stroke:#A80036;stroke-width:1.0;"/><path d="M107.8594,875.592 L107.8594,863.4514 L115.5156,863.4514 L115.5156,865.5764 L110.2344,865.5764 L110.2344,868.2326 L115.25,868.2326 L115.25,870.3576 L110.2344,870.3576 L110.2344,873.467 L115.5156,873.467 L115.5156,875.592 L107.8594,875.592 Z " fill="#000000"/><text fill="#000000" font-family="sans-serif" font-size="12" lengthAdjust="spacing" textLength="77" x="125.5" y="873.748">Camera.State</text><line style="stroke:#A80036;stroke-width:1.5;" x1="97.5" x2="204.5" y1="885.092" y2="885.092"/><ellipse cx="107.5" cy="896.092" rx="3" ry="3" style="stroke:#038048;stroke-width:1.0;fill:none;"/><text fill="#000000" font-family="sans-serif" font-size="11" lengthAdjust="spacing" text-decoration="underline" textLength="24" x="116.5" y="900.8509">IDLE</text><ellipse cx="107.5" cy="911.0739" rx="3" ry="3" style="stroke:#038048;stroke-width:1.0;fill:none;"/><text fill="#000000" font-family="sans-serif" font-size="11" lengthAdjust="spacing" text-decoration="underline" textLength="15" x="116.5" y="915.8328">UP</text><ellipse cx="107.5" cy="926.0558" rx="3" ry="3" style="stroke:#038048;stroke-width:1.0;fill:none;"/><text fill="#000000" font-family="sans-serif" font-size="11" lengthAdjust="spacing" text-decoration="underline" textLength="35" x="116.5" y="930.8147">DOWN</text><ellipse cx="107.5" cy="941.0376" rx="3" ry="3" style="stroke:#038048;stroke-width:1.0;fill:none;"/><text fill="#000000" font-family="sans-serif" font-size="11" lengthAdjust="spacing" text-decoration="underline" textLength="24" x="116.5" y="945.7966">LEFT</text><ellipse cx="107.5" cy="956.0195" rx="3" ry="3" style="stroke:#038048;stroke-width:1.0;fill:none;"/><text fill="#000000" font-family="sans-serif" font-size="11" lengthAdjust="spacing" text-decoration="underline" textLength="33" x="116.5" y="960.7784">RIGHT</text><line style="stroke:#A80036;stroke-width:1.5;" x1="97.5" x2="204.5" y1="968.0014" y2="968.0014"/></a><!--MD5=[0ebfb97f3cd9940840ca0fa6e6330c8c]
class nz.ac.wgtn.swen225.lc.renderer.Renderer--><a href="Renderer.html" target="_top" title="Renderer.html" xlink:actuate="onRequest" xlink:href="Renderer.html" xlink:show="new" xlink:title="Renderer.html" xlink:type="simple"><rect codeLine="46" fill="#FEFECE" filter="url(#fo8j01qtnr1sn)" height="107.9276" id="nz.ac.wgtn.swen225.lc.renderer.Renderer" style="stroke:#A80036;stroke-width:1.5;" width="219" x="143.5" y="194.582"/><ellipse cx="222.75" cy="210.582" fill="#ADD1B2" rx="11" ry="11" style="stroke:#A80036;stroke-width:1.0;"/><path d="M222.2188,217.5039 Q220.4688,217.5039 219.3281,216.7695 Q218.2031,216.0195 217.6406,214.6757 Q217.0938,213.3164 217.0938,211.5195 Q217.0938,209.4882 217.75,208.0351 Q218.4063,206.582 219.6875,205.8007 Q220.9688,205.0195 222.8438,205.0195 Q223.7344,205.0195 224.4063,205.207 Q225.0781,205.3789 225.7656,205.7226 L224.9531,207.7382 Q224.3281,207.4257 223.7813,207.3007 Q223.25,207.1757 222.7656,207.1757 Q221.5938,207.1757 220.8906,207.707 Q220.1875,208.2382 219.8906,209.1914 Q219.5938,210.1445 219.5938,211.4101 Q219.5938,213.4257 220.3125,214.3945 Q221.0313,215.3476 222.625,215.3476 Q223.2188,215.3476 223.8438,215.1914 Q224.4688,215.0351 225.2969,214.6601 L225.2969,216.8789 Q224.5625,217.1914 223.7656,217.3476 Q222.9844,217.5039 222.2188,217.5039 Z " fill="#000000"/><text fill="#000000" font-family="sans-serif" font-size="12" lengthAdjust="spacing" textLength="52" x="243.25" y="215.238">Renderer</text><line style="stroke:#A80036;stroke-width:1.5;" x1="144.5" x2="361.5" y1="226.582" y2="226.582"/><ellipse cx="154.5" cy="237.582" rx="3" ry="3" style="stroke:#038048;stroke-width:1.0;fill:none;"/><text fill="#000000" font-family="sans-serif" font-size="11" lengthAdjust="spacing" textLength="64" x="163.5" y="242.3409">timer: Timer</text><line style="stroke:#A80036;stroke-width:1.5;" x1="144.5" x2="361.5" y1="249.5639" y2="249.5639"/><ellipse cx="154.5" cy="260.5639" fill="#84BE84" rx="3" ry="3" style="stroke:#038048;stroke-width:1.0;"/><text fill="#000000" font-family="sans-serif" font-size="11" lengthAdjust="spacing" textLength="193" x="163.5" y="265.3228">Renderer(Board, int, AudioUnit, App)</text><ellipse cx="154.5" cy="275.5458" fill="#84BE84" rx="3" ry="3" style="stroke:#038048;stroke-width:1.0;"/><text fill="#000000" font-family="sans-serif" font-size="11" lengthAdjust="spacing" textLength="108" x="163.5" y="280.3047">draw(Graphics): void</text><ellipse cx="154.5" cy="290.5276" fill="#84BE84" rx="3" ry="3" style="stroke:#038048;stroke-width:1.0;"/><text fill="#000000" font-family="sans-serif" font-size="11" lengthAdjust="spacing" textLength="108" x="163.5" y="295.2866">paint(Graphics): void</text></a><!--MD5=[0a3c421ae1e10fcff188cf30253bf464]
class nz.ac.wgtn.swen225.lc.renderer.Renderer.Images--><a href="Renderer.Images.html" target="_top" title="Renderer.Images.html" xlink:actuate="onRequest" xlink:href="Renderer.Images.html" xlink:show="new" xlink:title="Renderer.Images.html" xlink:type="simple"><rect codeLine="53" fill="#FEFECE" filter="url(#fo8j01qtnr1sn)" height="377.6015" id="nz.ac.wgtn.swen225.lc.renderer.Renderer.Images" style="stroke:#A80036;stroke-width:1.5;" width="129" x="305.5" y="396.492"/><ellipse cx="320.5" cy="412.492" fill="#EB937F" rx="11" ry="11" style="stroke:#A80036;stroke-width:1.0;"/><path d="M316.8594,418.992 L316.8594,406.8514 L324.5156,406.8514 L324.5156,408.9764 L319.2344,408.9764 L319.2344,411.6326 L324.25,411.6326 L324.25,413.7576 L319.2344,413.7576 L319.2344,416.867 L324.5156,416.867 L324.5156,418.992 L316.8594,418.992 Z " fill="#000000"/><text fill="#000000" font-family="sans-serif" font-size="12" lengthAdjust="spacing" textLength="97" x="334.5" y="417.148">Renderer.Images</text><line style="stroke:#A80036;stroke-width:1.5;" x1="306.5" x2="433.5" y1="428.492" y2="428.492"/><ellipse cx="316.5" cy="439.492" rx="3" ry="3" style="stroke:#038048;stroke-width:1.0;fill:none;"/><text fill="#000000" font-family="sans-serif" font-size="11" lengthAdjust="spacing" text-decoration="underline" textLength="65" x="325.5" y="444.2509">DOOR_BLUE</text><ellipse cx="316.5" cy="454.4739" rx="3" ry="3" style="stroke:#038048;stroke-width:1.0;fill:none;"/><text fill="#000000" font-family="sans-serif" font-size="11" lengthAdjust="spacing" text-decoration="underline" textLength="73" x="325.5" y="459.2328">DOOR_GREEN</text><ellipse cx="316.5" cy="469.4558" rx="3" ry="3" style="stroke:#038048;stroke-width:1.0;fill:none;"/><text fill="#000000" font-family="sans-serif" font-size="11" lengthAdjust="spacing" text-decoration="underline" textLength="59" x="325.5" y="474.2147">DOOR_RED</text><ellipse cx="316.5" cy="484.4376" rx="3" ry="3" style="stroke:#038048;stroke-width:1.0;fill:none;"/><text fill="#000000" font-family="sans-serif" font-size="11" lengthAdjust="spacing" text-decoration="underline" textLength="81" x="325.5" y="489.1966">DOOR_YELLOW</text><ellipse cx="316.5" cy="499.4195" rx="3" ry="3" style="stroke:#038048;stroke-width:1.0;fill:none;"/><text fill="#000000" font-family="sans-serif" font-size="11" lengthAdjust="spacing" text-decoration="underline" textLength="22" x="325.5" y="504.1784">EXIT</text><ellipse cx="316.5" cy="514.4014" rx="3" ry="3" style="stroke:#038048;stroke-width:1.0;fill:none;"/><text fill="#000000" font-family="sans-serif" font-size="11" lengthAdjust="spacing" text-decoration="underline" textLength="25" x="325.5" y="519.1603">FREE</text><ellipse cx="316.5" cy="529.3833" rx="3" ry="3" style="stroke:#038048;stroke-width:1.0;fill:none;"/><text fill="#000000" font-family="sans-serif" font-size="11" lengthAdjust="spacing" text-decoration="underline" textLength="49" x="325.5" y="534.1422">INFOBOX</text><ellipse cx="316.5" cy="544.3652" rx="3" ry="3" style="stroke:#038048;stroke-width:1.0;fill:none;"/><text fill="#000000" font-family="sans-serif" font-size="11" lengthAdjust="spacing" text-decoration="underline" textLength="51" x="325.5" y="549.1241">KEY_BLUE</text><ellipse cx="316.5" cy="559.3471" rx="3" ry="3" style="stroke:#038048;stroke-width:1.0;fill:none;"/><text fill="#000000" font-family="sans-serif" font-size="11" lengthAdjust="spacing" text-decoration="underline" textLength="59" x="325.5" y="564.106">KEY_GREEN</text><ellipse cx="316.5" cy="574.329" rx="3" ry="3" style="stroke:#038048;stroke-width:1.0;fill:none;"/><text fill="#000000" font-family="sans-serif" font-size="11" lengthAdjust="spacing" text-decoration="underline" textLength="45" x="325.5" y="579.0879">KEY_RED</text><ellipse cx="316.5" cy="589.3109" rx="3" ry="3" style="stroke:#038048;stroke-width:1.0;fill:none;"/><text fill="#000000" font-family="sans-serif" font-size="11" lengthAdjust="spacing" text-decoration="underline" textLength="67" x="325.5" y="594.0698">KEY_YELLOW</text><ellipse cx="316.5" cy="604.2927" rx="3" ry="3" style="stroke:#038048;stroke-width:1.0;fill:none;"/><text fill="#000000" font-family="sans-serif" font-size="11" lengthAdjust="spacing" text-decoration="underline" textLength="29" x="325.5" y="609.0517">WALL</text><ellipse cx="316.5" cy="619.2746" rx="3" ry="3" style="stroke:#038048;stroke-width:1.0;fill:none;"/><text fill="#000000" font-family="sans-serif" font-size="11" lengthAdjust="spacing" text-decoration="underline" textLength="29" x="325.5" y="624.0335">BOAT</text><ellipse cx="316.5" cy="634.2565" rx="3" ry="3" style="stroke:#038048;stroke-width:1.0;fill:none;"/><text fill="#000000" font-family="sans-serif" font-size="11" lengthAdjust="spacing" text-decoration="underline" textLength="76" x="325.5" y="639.0154">SEAGULL_LEFT</text><ellipse cx="316.5" cy="649.2384" rx="3" ry="3" style="stroke:#038048;stroke-width:1.0;fill:none;"/><text fill="#000000" font-family="sans-serif" font-size="11" lengthAdjust="spacing" text-decoration="underline" textLength="85" x="325.5" y="653.9973">SEAGULL_RIGHT</text><ellipse cx="316.5" cy="664.2203" rx="3" ry="3" style="stroke:#038048;stroke-width:1.0;fill:none;"/><text fill="#000000" font-family="sans-serif" font-size="11" lengthAdjust="spacing" text-decoration="underline" textLength="36" x="325.5" y="668.9792">ENEMY</text><ellipse cx="316.5" cy="679.2022" rx="3" ry="3" style="stroke:#038048;stroke-width:1.0;fill:none;"/><text fill="#000000" font-family="sans-serif" font-size="11" lengthAdjust="spacing" text-decoration="underline" textLength="24" x="325.5" y="683.9611">FISH</text><ellipse cx="316.5" cy="694.1841" rx="3" ry="3" style="stroke:#038048;stroke-width:1.0;fill:none;"/><text fill="#000000" font-family="sans-serif" font-size="11" lengthAdjust="spacing" text-decoration="underline" textLength="40" x="325.5" y="698.943">BOTTLE</text><ellipse cx="316.5" cy="709.166" rx="3" ry="3" style="stroke:#038048;stroke-width:1.0;fill:none;"/><text fill="#000000" font-family="sans-serif" font-size="11" lengthAdjust="spacing" text-decoration="underline" textLength="56" x="325.5" y="713.9249">EXIT_LOCK</text><ellipse cx="316.5" cy="724.1479" rx="3" ry="3" style="stroke:#038048;stroke-width:1.0;fill:none;"/><text fill="#000000" font-family="sans-serif" font-size="11" lengthAdjust="spacing" text-decoration="underline" textLength="61" x="325.5" y="728.9068">INFOPANEL</text><ellipse cx="316.5" cy="739.1297" rx="3" ry="3" style="stroke:#038048;stroke-width:1.0;fill:none;"/><text fill="#000000" font-family="sans-serif" font-size="11" lengthAdjust="spacing" text-decoration="underline" textLength="66" x="325.5" y="743.8887">WHIRLPOOL</text><ellipse cx="316.5" cy="754.1116" rx="3" ry="3" style="stroke:#038048;stroke-width:1.0;fill:none;"/><text fill="#000000" font-family="sans-serif" font-size="11" lengthAdjust="spacing" text-decoration="underline" textLength="31" x="325.5" y="758.8705">DOCK</text><line style="stroke:#A80036;stroke-width:1.5;" x1="306.5" x2="433.5" y1="766.0935" y2="766.0935"/></a><!--MD5=[56a185cb33bdc7c23303e5865f20a19b]
class javax.swing.JPanel--><rect codeLine="87" fill="#FEFECE" filter="url(#fo8j01qtnr1sn)" height="48" id="javax.swing.JPanel" style="stroke:#A80036;stroke-width:1.5;" width="66" x="220" y="44.602"/><ellipse cx="235" cy="60.602" fill="#ADD1B2" rx="11" ry="11" style="stroke:#A80036;stroke-width:1.0;"/><path d="M234.4688,67.5239 Q232.7188,67.5239 231.5781,66.7895 Q230.4531,66.0395 229.8906,64.6957 Q229.3438,63.3364 229.3438,61.5395 Q229.3438,59.5082 230,58.0551 Q230.6563,56.602 231.9375,55.8207 Q233.2188,55.0395 235.0938,55.0395 Q235.9844,55.0395 236.6563,55.227 Q237.3281,55.3989 238.0156,55.7426 L237.2031,57.7582 Q236.5781,57.4457 236.0313,57.3207 Q235.5,57.1957 235.0156,57.1957 Q233.8438,57.1957 233.1406,57.727 Q232.4375,58.2582 232.1406,59.2114 Q231.8438,60.1645 231.8438,61.4301 Q231.8438,63.4457 232.5625,64.4145 Q233.2813,65.3676 234.875,65.3676 Q235.4688,65.3676 236.0938,65.2114 Q236.7188,65.0551 237.5469,64.6801 L237.5469,66.8989 Q236.8125,67.2114 236.0156,67.3676 Q235.2344,67.5239 234.4688,67.5239 Z " fill="#000000"/><text fill="#000000" font-family="sans-serif" font-size="12" lengthAdjust="spacing" textLength="34" x="249" y="65.258">JPanel</text><line style="stroke:#A80036;stroke-width:1.5;" x1="221" x2="285" y1="76.602" y2="76.602"/><line style="stroke:#A80036;stroke-width:1.5;" x1="221" x2="285" y1="84.602" y2="84.602"/><!--MD5=[ab80afdc0ee7e57af166d6c8f623f50c]
reverse link nz.ac.wgtn.swen225.lc.renderer.AudioUnit to nz.ac.wgtn.swen225.lc.renderer.AudioUnit.AudioClip--><path codeLine="78" d="M527.51,333.462 C529.75,375.122 532.49,426.042 534.91,471.102 " fill="none" id="nz.ac.wgtn.swen225.lc.renderer.AudioUnit-backto-nz.ac.wgtn.swen225.lc.renderer.AudioUnit.AudioClip" style="stroke:#A80036;stroke-width:1.0;"/><ellipse cx="527.0945" cy="326.6802" fill="#FFFFFF" rx="8" ry="8" style="stroke:#A80036;stroke-width:1.0;"/><line style="stroke:#A80036;stroke-width:1.0;" x1="527.5289" x2="526.66" y1="334.6684" y2="318.692"/><line style="stroke:#A80036;stroke-width:1.0;" x1="519.1063" x2="535.0827" y1="327.1146" y2="326.2457"/><!--MD5=[2e419264eafa0255a695fb5b5024b10c]
link nz.ac.wgtn.swen225.lc.renderer.Camera to nz.ac.wgtn.swen225.lc.renderer.Camera.State--><path codeLine="79" d="M134.62,669.692 C127.88,715.112 122.91,772.262 129,823.092 C129.94,830.912 131.32,839.042 132.93,847.062 " fill="none" id="nz.ac.wgtn.swen225.lc.renderer.Camera-to-nz.ac.wgtn.swen225.lc.renderer.Camera.State" style="stroke:#A80036;stroke-width:1.0;"/><polygon fill="#A80036" points="134.09,851.602,136.1827,841.978,133.0765,846.7058,128.3487,843.5996,134.09,851.602" style="stroke:#A80036;stroke-width:1.0;"/><text fill="#000000" font-family="sans-serif" font-size="13" lengthAdjust="spacing" textLength="30" x="130" y="818.989">state</text><!--MD5=[85a601e519c898f4e3e87b10eff2c898]
reverse link nz.ac.wgtn.swen225.lc.renderer.Camera to nz.ac.wgtn.swen225.lc.renderer.Camera.State--><path codeLine="80" d="M162.86,685.482 C166.38,727.892 168.47,777.942 165,823.092 C164.26,832.762 163.07,842.952 161.7,852.872 " fill="none" id="nz.ac.wgtn.swen225.lc.renderer.Camera-backto-nz.ac.wgtn.swen225.lc.renderer.Camera.State" style="stroke:#A80036;stroke-width:1.0;"/><ellipse cx="162.1585" cy="678.6005" fill="#FFFFFF" rx="8" ry="8" style="stroke:#A80036;stroke-width:1.0;"/><line style="stroke:#A80036;stroke-width:1.0;" x1="162.867" x2="161.45" y1="686.5691" y2="670.632"/><line style="stroke:#A80036;stroke-width:1.0;" x1="154.1899" x2="170.1271" y1="679.309" y2="677.8921"/><!--MD5=[ddeca16ffaa268ad62ce85e5a4f76da4]
reverse link javax.swing.JPanel to nz.ac.wgtn.swen225.lc.renderer.Renderer--><path codeLine="81" d="M253,113.642 C253,138.062 253,168.592 253,194.332 " fill="none" id="javax.swing.JPanel-backto-nz.ac.wgtn.swen225.lc.renderer.Renderer" style="stroke:#A80036;stroke-width:1.0;"/><polygon fill="none" points="246,113.862,253,93.862,260,113.862,246,113.862" style="stroke:#A80036;stroke-width:1.0;"/><!--MD5=[2934116d872e95d3e219885b2bd0358f]
link nz.ac.wgtn.swen225.lc.renderer.Renderer to nz.ac.wgtn.swen225.lc.renderer.Camera--><path codeLine="82" d="M236.73,302.962 C220.95,354.742 196.72,434.242 178.05,495.532 " fill="none" id="nz.ac.wgtn.swen225.lc.renderer.Renderer-to-nz.ac.wgtn.swen225.lc.renderer.Camera" style="stroke:#A80036;stroke-width:1.0;"/><polygon fill="#A80036" points="176.37,500.032,182.818,492.5873,177.8264,495.2488,175.1649,490.2571,176.37,500.032" style="stroke:#A80036;stroke-width:1.0;"/><text fill="#000000" font-family="sans-serif" font-size="13" lengthAdjust="spacing" textLength="44" x="223" y="362.389">camera</text><!--MD5=[ebd71bf1d8b3440bf16712fc387509fb]
reverse link nz.ac.wgtn.swen225.lc.renderer.Renderer to nz.ac.wgtn.swen225.lc.renderer.Renderer.Images--><path codeLine="83" d="M276.91,317.952 C285.23,341.752 295,369.702 305.03,398.392 " fill="none" id="nz.ac.wgtn.swen225.lc.renderer.Renderer-backto-nz.ac.wgtn.swen225.lc.renderer.Renderer.Images" style="stroke:#A80036;stroke-width:1.0;"/><ellipse cx="274.3138" cy="311.5125" fill="#FFFFFF" rx="8" ry="8" style="stroke:#A80036;stroke-width:1.0;"/><line style="stroke:#A80036;stroke-width:1.0;" x1="276.9576" x2="271.67" y1="319.063" y2="303.962"/><line style="stroke:#A80036;stroke-width:1.0;" x1="266.7633" x2="281.8643" y1="314.1563" y2="308.8687"/><text fill="#888888" font-family="sans-serif" font-size="10" lengthAdjust="spacing" textLength="182" x="225" y="1008.692">UMLDoclet 2.0.14, PlantUML 1.2021.9</text><!--MD5=[4edb91024af6e1f7298545a97e489828]
@startuml
    namespace nz.ac.wgtn.swen225.lc.renderer {

        class AudioUnit [[AudioUnit.html]] {
            +startBackgroundMusic(): void
            +startAmbience(): void
            +playSeagullSFX(): void
            +playFishSFX(): void
            +playSound(AudioClip): void
            +stopAll(): void
        }

        enum nz.ac.wgtn.swen225.lc.renderer.AudioUnit.AudioClip [[AudioUnit.AudioClip.html]] {
            {static} +BACKGROUND
            {static} +AMBIENCE
            {static} +SEAGULL1
            {static} +SEAGULL2
            {static} +SEAGULL3
            {static} +FISH_CAUGHT
            {static} +ENEMY_ATTACK
            {static} +DOOROPEN
            {static} +KEYCOLLECT
            {static} +FISH1
            {static} +FISH2
            {static} +FISH3
        }

        class Camera [[Camera.html]] {
            +Camera(double, double, double, double)
            +updateCameraPosition(Chap): void
            +getWidth(): double
            +getHeight(): double
            +getX(): double
            +getY(): double
            +setX(double): void
            +setY(double): void
        }

        enum nz.ac.wgtn.swen225.lc.renderer.Camera.State [[Camera.State.html]] {
            {static} +IDLE
            {static} +UP
            {static} +DOWN
            {static} +LEFT
            {static} +RIGHT
        }

        class Renderer [[Renderer.html]] {
            +timer: Timer
            +Renderer(Board, int, AudioUnit, App)
            +draw(Graphics): void
            +paint(Graphics): void
        }

        enum nz.ac.wgtn.swen225.lc.renderer.Renderer.Images [[Renderer.Images.html]] {
            {static} +DOOR_BLUE
            {static} +DOOR_GREEN
            {static} +DOOR_RED
            {static} +DOOR_YELLOW
            {static} +EXIT
            {static} +FREE
            {static} +INFOBOX
            {static} +KEY_BLUE
            {static} +KEY_GREEN
            {static} +KEY_RED
            {static} +KEY_YELLOW
            {static} +WALL
            {static} +BOAT
            {static} +SEAGULL_LEFT
            {static} +SEAGULL_RIGHT
            {static} +ENEMY
            {static} +FISH
            {static} +BOTTLE
            {static} +EXIT_LOCK
            {static} +INFOPANEL
            {static} +WHIRLPOOL
            {static} +DOCK
        }

        AudioUnit +- - nz.ac.wgtn.swen225.lc.renderer.AudioUnit.AudioClip
        Camera - -> nz.ac.wgtn.swen225.lc.renderer.Camera.State: state
        Camera +- - nz.ac.wgtn.swen225.lc.renderer.Camera.State
        javax.swing.JPanel <|- - Renderer
        Renderer - -> Camera: camera
        Renderer +- - nz.ac.wgtn.swen225.lc.renderer.Renderer.Images
    }

    namespace javax.swing {
        class JPanel {
        }
    }

    center footer UMLDoclet 2.0.14, PlantUML 1.2021.9
@enduml

PlantUML version 1.2021.9(Sun Jul 25 22:13:56 NZST 2021)
(APACHE source distribution)
Java Runtime: OpenJDK Runtime Environment
JVM: OpenJDK 64-Bit Server VM
Default Encoding: UTF-8
Language: en
Country: NZ
--></g></svg>