<?xml version="1.0" encoding="UTF-8" standalone="no"?><svg xmlns="http://www.w3.org/2000/svg" xmlns:xlink="http://www.w3.org/1999/xlink" contentStyleType="text/css" height="569px" preserveAspectRatio="none" style="width:196px;height:569px;background:#FFFFFF;" version="1.1" viewBox="0 0 196 569" width="196px" zoomAndPan="magnify"><defs/><g><!--class nz.ac.wgtn.swen225.lc.renderer.Renderer.Images--><a href="Renderer.Images.html" target="_top" title="Renderer.Images.html" xlink:actuate="onRequest" xlink:href="Renderer.Images.html" xlink:show="new" xlink:title="Renderer.Images.html" xlink:type="simple"><g id="elem_nz.ac.wgtn.swen225.lc.renderer.Renderer.Images"><rect codeLine="5" fill="#F1F1F1" height="435.5938" id="nz.ac.wgtn.swen225.lc.renderer.Renderer.Images" rx="2.5" ry="2.5" style="stroke:#181818;stroke-width:0.5;" width="181" x="8.5" y="107.19"/><ellipse cx="23.5" cy="127.2838" fill="#EB937F" rx="11" ry="11" style="stroke:#181818;stroke-width:1.0;"/><path d="M22.3594,128.0806 L22.3594,130.5806 L26.6875,130.5806 L26.6875,129.6588 Q26.6875,129.0494 26.9219,128.7838 Q27.1719,128.5181 27.5469,128.5181 Q27.9219,128.5181 28.1563,128.7838 Q28.3906,129.0494 28.3906,129.6588 L28.3906,132.2838 L20.3906,132.2838 Q19.7656,132.2838 19.5,132.0494 Q19.25,131.815 19.25,131.4244 Q19.25,131.0494 19.5156,130.815 Q19.7813,130.5806 20.3906,130.5806 L20.6563,130.5806 L20.6563,123.9244 L20.3906,123.9244 Q19.7656,123.9244 19.5,123.69 Q19.25,123.4556 19.25,123.065 Q19.25,122.69 19.5,122.4556 Q19.7656,122.2213 20.3906,122.2213 L28.0156,122.2213 L28.0156,124.815 Q28.0156,125.4244 27.7813,125.69 Q27.5625,125.94 27.1719,125.94 Q26.7969,125.94 26.5625,125.69 Q26.3281,125.4244 26.3281,124.815 L26.3281,123.9244 L22.3594,123.9244 L22.3594,126.3775 L23.8438,126.3775 Q23.8438,125.7213 23.9688,125.5338 Q24.2344,125.1275 24.7031,125.1275 Q25.0781,125.1275 25.3125,125.3931 Q25.5469,125.6431 25.5469,126.2525 L25.5469,128.2213 Q25.5469,128.7681 25.4219,128.9556 Q25.1563,129.3463 24.7031,129.3463 Q24.2344,129.3463 23.9688,128.94 Q23.8438,128.7525 23.8438,128.0806 L22.3594,128.0806 Z " fill="#000000"/><text fill="#000000" font-family="sans-serif" font-size="14" lengthAdjust="spacing" textLength="109" x="57.5" y="126.7232">Renderer.Images</text><text fill="#000000" font-family="sans-serif" font-size="10" lengthAdjust="spacing" textLength="149" x="37.5" y="140.1802">nz.ac.wgtn.swen225.lc.renderer</text><line style="stroke:#181818;stroke-width:0.5;" x1="9.5" x2="188.5" y1="147.3775" y2="147.3775"/><ellipse cx="19.5" cy="161.6822" fill="none" rx="3" ry="3" style="stroke:#038048;stroke-width:1.0;"/><text fill="#000000" font-family="sans-serif" font-size="14" lengthAdjust="spacing" text-decoration="underline" textLength="85" x="28.5" y="165.9107">DOOR_BLUE</text><ellipse cx="19.5" cy="179.2916" fill="none" rx="3" ry="3" style="stroke:#038048;stroke-width:1.0;"/><text fill="#000000" font-family="sans-serif" font-size="14" lengthAdjust="spacing" text-decoration="underline" textLength="98" x="28.5" y="183.5201">DOOR_GREEN</text><ellipse cx="19.5" cy="196.9009" fill="none" rx="3" ry="3" style="stroke:#038048;stroke-width:1.0;"/><text fill="#000000" font-family="sans-serif" font-size="14" lengthAdjust="spacing" text-decoration="underline" textLength="79" x="28.5" y="201.1295">DOOR_RED</text><ellipse cx="19.5" cy="214.5103" fill="none" rx="3" ry="3" style="stroke:#038048;stroke-width:1.0;"/><text fill="#000000" font-family="sans-serif" font-size="14" lengthAdjust="spacing" text-decoration="underline" textLength="108" x="28.5" y="218.7388">DOOR_YELLOW</text><ellipse cx="19.5" cy="232.1197" fill="none" rx="3" ry="3" style="stroke:#038048;stroke-width:1.0;"/><text fill="#000000" font-family="sans-serif" font-size="14" lengthAdjust="spacing" text-decoration="underline" textLength="29" x="28.5" y="236.3482">EXIT</text><ellipse cx="19.5" cy="249.7291" fill="none" rx="3" ry="3" style="stroke:#038048;stroke-width:1.0;"/><text fill="#000000" font-family="sans-serif" font-size="14" lengthAdjust="spacing" text-decoration="underline" textLength="37" x="28.5" y="253.9576">FREE</text><ellipse cx="19.5" cy="267.3384" fill="none" rx="3" ry="3" style="stroke:#038048;stroke-width:1.0;"/><text fill="#000000" font-family="sans-serif" font-size="14" lengthAdjust="spacing" text-decoration="underline" textLength="60" x="28.5" y="271.567">INFOBOX</text><ellipse cx="19.5" cy="284.9478" fill="none" rx="3" ry="3" style="stroke:#038048;stroke-width:1.0;"/><text fill="#000000" font-family="sans-serif" font-size="14" lengthAdjust="spacing" text-decoration="underline" textLength="70" x="28.5" y="289.1763">KEY_BLUE</text><ellipse cx="19.5" cy="302.5572" fill="none" rx="3" ry="3" style="stroke:#038048;stroke-width:1.0;"/><text fill="#000000" font-family="sans-serif" font-size="14" lengthAdjust="spacing" text-decoration="underline" textLength="83" x="28.5" y="306.7857">KEY_GREEN</text><ellipse cx="19.5" cy="320.1666" fill="none" rx="3" ry="3" style="stroke:#038048;stroke-width:1.0;"/><text fill="#000000" font-family="sans-serif" font-size="14" lengthAdjust="spacing" text-decoration="underline" textLength="64" x="28.5" y="324.3951">KEY_RED</text><ellipse cx="19.5" cy="337.7759" fill="none" rx="3" ry="3" style="stroke:#038048;stroke-width:1.0;"/><text fill="#000000" font-family="sans-serif" font-size="14" lengthAdjust="spacing" text-decoration="underline" textLength="93" x="28.5" y="342.0045">KEY_YELLOW</text><ellipse cx="19.5" cy="355.3853" fill="none" rx="3" ry="3" style="stroke:#038048;stroke-width:1.0;"/><text fill="#000000" font-family="sans-serif" font-size="14" lengthAdjust="spacing" text-decoration="underline" textLength="38" x="28.5" y="359.6138">WALL</text><ellipse cx="19.5" cy="372.9947" fill="none" rx="3" ry="3" style="stroke:#038048;stroke-width:1.0;"/><text fill="#000000" font-family="sans-serif" font-size="14" lengthAdjust="spacing" text-decoration="underline" textLength="38" x="28.5" y="377.2232">BOAT</text><ellipse cx="19.5" cy="390.6041" fill="none" rx="3" ry="3" style="stroke:#038048;stroke-width:1.0;"/><text fill="#000000" font-family="sans-serif" font-size="14" lengthAdjust="spacing" text-decoration="underline" textLength="106" x="28.5" y="394.8326">SEAGULL_LEFT</text><ellipse cx="19.5" cy="408.2134" fill="none" rx="3" ry="3" style="stroke:#038048;stroke-width:1.0;"/><text fill="#000000" font-family="sans-serif" font-size="14" lengthAdjust="spacing" text-decoration="underline" textLength="113" x="28.5" y="412.442">SEAGULL_RIGHT</text><ellipse cx="19.5" cy="425.8228" fill="none" rx="3" ry="3" style="stroke:#038048;stroke-width:1.0;"/><text fill="#000000" font-family="sans-serif" font-size="14" lengthAdjust="spacing" text-decoration="underline" textLength="47" x="28.5" y="430.0513">ENEMY</text><ellipse cx="19.5" cy="443.4322" fill="none" rx="3" ry="3" style="stroke:#038048;stroke-width:1.0;"/><text fill="#000000" font-family="sans-serif" font-size="14" lengthAdjust="spacing" text-decoration="underline" textLength="30" x="28.5" y="447.6607">FISH</text><ellipse cx="19.5" cy="461.0416" fill="none" rx="3" ry="3" style="stroke:#038048;stroke-width:1.0;"/><text fill="#000000" font-family="sans-serif" font-size="14" lengthAdjust="spacing" text-decoration="underline" textLength="55" x="28.5" y="465.2701">BOTTLE</text><ellipse cx="19.5" cy="478.6509" fill="none" rx="3" ry="3" style="stroke:#038048;stroke-width:1.0;"/><text fill="#000000" font-family="sans-serif" font-size="14" lengthAdjust="spacing" text-decoration="underline" textLength="75" x="28.5" y="482.8795">EXIT_LOCK</text><ellipse cx="19.5" cy="496.2603" fill="none" rx="3" ry="3" style="stroke:#038048;stroke-width:1.0;"/><text fill="#000000" font-family="sans-serif" font-size="14" lengthAdjust="spacing" text-decoration="underline" textLength="76" x="28.5" y="500.4888">INFOPANEL</text><ellipse cx="19.5" cy="513.8697" fill="none" rx="3" ry="3" style="stroke:#038048;stroke-width:1.0;"/><text fill="#000000" font-family="sans-serif" font-size="14" lengthAdjust="spacing" text-decoration="underline" textLength="82" x="28.5" y="518.0982">WHIRLPOOL</text><ellipse cx="19.5" cy="531.4791" fill="none" rx="3" ry="3" style="stroke:#038048;stroke-width:1.0;"/><text fill="#000000" font-family="sans-serif" font-size="14" lengthAdjust="spacing" text-decoration="underline" textLength="40" x="28.5" y="535.7076">DOCK</text></g></a><!--class nz.ac.wgtn.swen225.lc.renderer.Renderer--><a href="Renderer.html" target="_top" title="Renderer.html" xlink:actuate="onRequest" xlink:href="Renderer.html" xlink:show="new" xlink:title="Renderer.html" xlink:type="simple"><g id="elem_nz.ac.wgtn.swen225.lc.renderer.Renderer"><rect codeLine="30" fill="#F1F1F1" height="40.1875" id="nz.ac.wgtn.swen225.lc.renderer.Renderer" rx="2.5" ry="2.5" style="stroke:#181818;stroke-width:0.5;" width="181" x="8.5" y="7"/><ellipse cx="23.5" cy="27.0938" fill="#ADD1B2" rx="11" ry="11" style="stroke:#181818;stroke-width:1.0;"/><path d="M26.2656,22.9688 Q26.4219,22.75 26.6094,22.6406 Q26.7969,22.5313 27.0156,22.5313 Q27.3906,22.5313 27.625,22.7969 Q27.8594,23.0469 27.8594,23.6563 L27.8594,25.1094 Q27.8594,25.7188 27.625,25.9844 Q27.3906,26.25 27.0156,26.25 Q26.6719,26.25 26.4688,26.0469 Q26.2656,25.8594 26.1563,25.3438 Q26.1094,24.9844 25.9219,24.7969 Q25.5938,24.4219 24.9844,24.2031 Q24.375,23.9844 23.75,23.9844 Q22.9844,23.9844 22.3438,24.3125 Q21.7188,24.6406 21.2188,25.3906 Q20.7344,26.1406 20.7344,27.1719 L20.7344,28.2656 Q20.7344,29.5 21.625,30.3281 Q22.5156,31.1406 24.1094,31.1406 Q25.0469,31.1406 25.7031,30.8906 Q26.0938,30.7344 26.5156,30.2969 Q26.7813,30.0313 26.9219,29.9531 Q27.0781,29.875 27.2813,29.875 Q27.6094,29.875 27.8594,30.1406 Q28.125,30.3906 28.125,30.7344 Q28.125,31.0781 27.7813,31.4844 Q27.2813,32.0625 26.4844,32.3906 Q25.4063,32.8438 24.1094,32.8438 Q22.5938,32.8438 21.3906,32.2188 Q20.4063,31.7188 19.7188,30.6563 Q19.0313,29.5781 19.0313,28.2969 L19.0313,27.1406 Q19.0313,25.8125 19.6406,24.6719 Q20.2656,23.5156 21.3594,22.9063 Q22.4531,22.2813 23.6875,22.2813 Q24.4219,22.2813 25.0625,22.4531 Q25.7188,22.6094 26.2656,22.9688 Z " fill="#000000"/><text fill="#000000" font-family="sans-serif" font-size="14" lengthAdjust="spacing" textLength="60" x="82" y="26.5332">Renderer</text><text fill="#000000" font-family="sans-serif" font-size="10" lengthAdjust="spacing" textLength="149" x="37.5" y="39.9902">nz.ac.wgtn.swen225.lc.renderer</text></g></a><!--reverse link nz.ac.wgtn.swen225.lc.renderer.Renderer to nz.ac.wgtn.swen225.lc.renderer.Renderer.Images--><g id="link_nz.ac.wgtn.swen225.lc.renderer.Renderer_nz.ac.wgtn.swen225.lc.renderer.Renderer.Images"><path codeLine="32" d="M99,63.12 C99,75.46 99,90.39 99,106.79 " fill="none" id="nz.ac.wgtn.swen225.lc.renderer.Renderer-backto-nz.ac.wgtn.swen225.lc.renderer.Renderer.Images" style="stroke:#181818;stroke-width:1.0;"/><ellipse cx="99" cy="56.51" fill="#FFFFFF" rx="8" ry="8" style="stroke:#181818;stroke-width:1.0;"/><line style="stroke:#181818;stroke-width:1.0;" x1="99" x2="99" y1="64.51" y2="48.51"/><line style="stroke:#181818;stroke-width:1.0;" x1="91" x2="107" y1="56.51" y2="56.51"/></g><text fill="#888888" font-family="sans-serif" font-size="10" lengthAdjust="spacing" textLength="184" x="0" y="559.1646">UMLDoclet 2.1.0, PlantUML 1.2022.14</text><!--SRC=[jPHVQy8m5CNVzoakmc1ZCwXiBsC8TKOjnaQgek94GhrgeKsboIPJ_EvhjGz34jaUrfV0-UNFkJSd1G1Gg46A6DLM13Z0hKY5JbAGYSIR3CCcN29WlDLVi0enMgfBDKQzIJBvfAFyYA7qgi8zlbIVwZxA9QQO4ZSMQrJliY2LkjmJ4P3TMakYTYXhjMSI1IGjvfT0ABW-XLpi3RFPXK8sEexcSpYSdENVGMcXm-083qtE_KM3ZQYDjNrAFHlqQTE6ffGnFZPGEd671hcLdMEGNQ_56tnY85qwjHdFaSrtpiosSs9rFNOOCyWDxfYA6L2dFM9imMZh6lRTTiV4gKTxKrEFt477Q68uPDJIwWNZRrrBO_kEHqrLZJkkp_gSC-Fb5jiTpq4F8g6K8Ud_4l6VsJw7-cpYjyiVokK_lgQYI9GwMxvAadmOzLWp2QBiVr4ZLL9vX7uafCvKkFt4L8M9lBl_1W00]--></g></svg>