<?xml version="1.0" encoding="UTF-8" standalone="no"?><svg xmlns="http://www.w3.org/2000/svg" xmlns:xlink="http://www.w3.org/1999/xlink" contentScriptType="application/ecmascript" contentStyleType="text/css" height="393px" preserveAspectRatio="none" style="width:240px;height:393px;background:#FFFFFF;" version="1.1" viewBox="0 0 240 393" width="240px" zoomAndPan="magnify"><defs><filter height="300%" id="f1c4qlllngi9b1" width="300%" x="-1" y="-1"><feGaussianBlur result="blurOut" stdDeviation="2.0"/><feColorMatrix in="blurOut" result="blurOut2" type="matrix" values="0 0 0 0 0 0 0 0 0 0 0 0 0 0 0 0 0 0 .4 0"/><feOffset dx="4.0" dy="4.0" in="blurOut2" result="blurOut3"/><feBlend in="SourceGraphic" in2="blurOut3" mode="normal"/></filter></defs><g><!--MD5=[0ebfb97f3cd9940840ca0fa6e6330c8c]
class nz.ac.wgtn.swen225.lc.renderer.Renderer--><a href="Renderer.html" target="_top" title="Renderer.html" xlink:actuate="onRequest" xlink:href="Renderer.html" xlink:show="new" xlink:title="Renderer.html" xlink:type="simple"><rect codeLine="5" fill="#FEFECE" filter="url(#f1c4qlllngi9b1)" height="148.5792" id="nz.ac.wgtn.swen225.lc.renderer.Renderer" style="stroke:#A80036;stroke-width:1.5;" width="219" x="7" y="109.69"/><ellipse cx="36.85" cy="131.034" fill="#ADD1B2" rx="11" ry="11" style="stroke:#A80036;stroke-width:1.0;"/><path d="M36.3188,137.9558 Q34.5688,137.9558 33.4281,137.2215 Q32.3031,136.4715 31.7406,135.1277 Q31.1938,133.7683 31.1938,131.9715 Q31.1938,129.9402 31.85,128.4871 Q32.5063,127.034 33.7875,126.2527 Q35.0688,125.4715 36.9438,125.4715 Q37.8344,125.4715 38.5063,125.659 Q39.1781,125.8308 39.8656,126.1746 L39.0531,128.1902 Q38.4281,127.8777 37.8813,127.7527 Q37.35,127.6277 36.8656,127.6277 Q35.6938,127.6277 34.9906,128.159 Q34.2875,128.6902 33.9906,129.6433 Q33.6938,130.5965 33.6938,131.8621 Q33.6938,133.8777 34.4125,134.8465 Q35.1313,135.7996 36.725,135.7996 Q37.3188,135.7996 37.9438,135.6433 Q38.5688,135.4871 39.3969,135.1121 L39.3969,137.3308 Q38.6625,137.6433 37.8656,137.7996 Q37.0844,137.9558 36.3188,137.9558 Z " fill="#000000"/><text fill="#000000" font-family="sans-serif" font-size="14" lengthAdjust="spacing" textLength="63" x="99.65" y="129.6559">Renderer</text><text fill="#000000" font-family="sans-serif" font-size="10" lengthAdjust="spacing" textLength="154" x="54.15" y="144.4479">nz.ac.wgtn.swen225.lc.renderer</text><line style="stroke:#A80036;stroke-width:1.5;" x1="8" x2="225" y1="152.3779" y2="152.3779"/><ellipse cx="18" cy="163.3779" rx="3" ry="3" style="stroke:#038048;stroke-width:1.0;fill:none;"/><text fill="#000000" font-family="sans-serif" font-size="11" lengthAdjust="spacing" textLength="84" x="27" y="168.1368">camera: Camera</text><ellipse cx="18" cy="178.3598" rx="3" ry="3" style="stroke:#038048;stroke-width:1.0;fill:none;"/><text fill="#000000" font-family="sans-serif" font-size="11" lengthAdjust="spacing" textLength="64" x="27" y="183.1187">timer: Timer</text><line style="stroke:#A80036;stroke-width:1.5;" x1="8" x2="225" y1="190.3417" y2="190.3417"/><ellipse cx="18" cy="201.3417" fill="#84BE84" rx="3" ry="3" style="stroke:#038048;stroke-width:1.0;"/><text fill="#000000" font-family="sans-serif" font-size="11" lengthAdjust="spacing" textLength="193" x="27" y="206.1006">Renderer(Board, int, AudioUnit, App)</text><ellipse cx="18" cy="216.3236" fill="#84BE84" rx="3" ry="3" style="stroke:#038048;stroke-width:1.0;"/><text fill="#000000" font-family="sans-serif" font-size="11" lengthAdjust="spacing" textLength="108" x="27" y="221.0825">draw(Graphics): void</text><ellipse cx="18" cy="231.3055" fill="#84BE84" rx="3" ry="3" style="stroke:#038048;stroke-width:1.0;"/><text fill="#000000" font-family="sans-serif" font-size="11" lengthAdjust="spacing" textLength="109" x="27" y="236.0644">getCamera(): Camera</text><ellipse cx="18" cy="246.2873" fill="#84BE84" rx="3" ry="3" style="stroke:#038048;stroke-width:1.0;"/><text fill="#000000" font-family="sans-serif" font-size="11" lengthAdjust="spacing" textLength="108" x="27" y="251.0463">paint(Graphics): void</text></a><!--MD5=[56a185cb33bdc7c23303e5865f20a19b]
class javax.swing.JPanel--><rect codeLine="14" fill="#FEFECE" filter="url(#f1c4qlllngi9b1)" height="42.6879" id="javax.swing.JPanel" style="stroke:#A80036;stroke-width:1.5;" width="88" x="72.5" y="7"/><ellipse cx="87.5" cy="28.344" fill="#ADD1B2" rx="11" ry="11" style="stroke:#A80036;stroke-width:1.0;"/><path d="M86.9688,35.2658 Q85.2188,35.2658 84.0781,34.5315 Q82.9531,33.7815 82.3906,32.4377 Q81.8438,31.0783 81.8438,29.2815 Q81.8438,27.2502 82.5,25.7971 Q83.1563,24.344 84.4375,23.5627 Q85.7188,22.7815 87.5938,22.7815 Q88.4844,22.7815 89.1563,22.969 Q89.8281,23.1408 90.5156,23.4846 L89.7031,25.5002 Q89.0781,25.1877 88.5313,25.0627 Q88,24.9377 87.5156,24.9377 Q86.3438,24.9377 85.6406,25.469 Q84.9375,26.0002 84.6406,26.9533 Q84.3438,27.9065 84.3438,29.1721 Q84.3438,31.1877 85.0625,32.1565 Q85.7813,33.1096 87.375,33.1096 Q87.9688,33.1096 88.5938,32.9533 Q89.2188,32.7971 90.0469,32.4221 L90.0469,34.6408 Q89.3125,34.9533 88.5156,35.1096 Q87.7344,35.2658 86.9688,35.2658 Z " fill="#000000"/><text fill="#000000" font-family="sans-serif" font-size="14" lengthAdjust="spacing" textLength="41" x="109" y="26.9659">JPanel</text><text fill="#000000" font-family="sans-serif" font-size="10" lengthAdjust="spacing" textLength="56" x="101.5" y="41.7579">javax.swing</text><!--MD5=[0a3c421ae1e10fcff188cf30253bf464]
class nz.ac.wgtn.swen225.lc.renderer.Renderer.Images--><a href="Renderer.Images.html" target="_top" title="Renderer.Images.html" xlink:actuate="onRequest" xlink:href="Renderer.Images.html" xlink:show="new" xlink:title="Renderer.Images.html" xlink:type="simple"><rect codeLine="15" fill="#FEFECE" filter="url(#f1c4qlllngi9b1)" height="42.6879" id="nz.ac.wgtn.swen225.lc.renderer.Renderer.Images" style="stroke:#A80036;stroke-width:1.5;" width="186" x="23.5" y="318.27"/><ellipse cx="38.5" cy="339.614" fill="#EB937F" rx="11" ry="11" style="stroke:#A80036;stroke-width:1.0;"/><path d="M34.8594,346.114 L34.8594,333.9733 L42.5156,333.9733 L42.5156,336.0983 L37.2344,336.0983 L37.2344,338.7546 L42.25,338.7546 L42.25,340.8796 L37.2344,340.8796 L37.2344,343.989 L42.5156,343.989 L42.5156,346.114 L34.8594,346.114 Z " fill="#000000"/><text fill="#000000" font-family="sans-serif" font-size="14" lengthAdjust="spacing" textLength="117" x="71" y="338.2359">Renderer.Images</text><text fill="#000000" font-family="sans-serif" font-size="10" lengthAdjust="spacing" textLength="154" x="52.5" y="353.0279">nz.ac.wgtn.swen225.lc.renderer</text></a><!--MD5=[ddeca16ffaa268ad62ce85e5a4f76da4]
reverse link javax.swing.JPanel to nz.ac.wgtn.swen225.lc.renderer.Renderer--><path codeLine="17" d="M116.5,70.85 C116.5,82.81 116.5,96.23 116.5,109.51 " fill="none" id="javax.swing.JPanel-backto-nz.ac.wgtn.swen225.lc.renderer.Renderer" style="stroke:#A80036;stroke-width:1.0;"/><polygon fill="none" points="109.5,71.07,116.5,51.07,123.5,71.07,109.5,71.07" style="stroke:#A80036;stroke-width:1.0;"/><!--MD5=[ebd71bf1d8b3440bf16712fc387509fb]
reverse link nz.ac.wgtn.swen225.lc.renderer.Renderer to nz.ac.wgtn.swen225.lc.renderer.Renderer.Images--><path codeLine="18" d="M116.5,274.64 C116.5,290.82 116.5,306.22 116.5,317.85 " fill="none" id="nz.ac.wgtn.swen225.lc.renderer.Renderer-backto-nz.ac.wgtn.swen225.lc.renderer.Renderer.Images" style="stroke:#A80036;stroke-width:1.0;"/><ellipse cx="116.5" cy="267.65" fill="#FFFFFF" rx="8" ry="8" style="stroke:#A80036;stroke-width:1.0;"/><line style="stroke:#A80036;stroke-width:1.0;" x1="116.5" x2="116.5" y1="275.65" y2="259.65"/><line style="stroke:#A80036;stroke-width:1.0;" x1="108.5" x2="124.5" y1="267.65" y2="267.65"/><text fill="#888888" font-family="sans-serif" font-size="10" lengthAdjust="spacing" textLength="182" x="22.5" y="384.6479">UMLDoclet 2.0.14, PlantUML 1.2021.9</text><!--MD5=[3e5cffb01f09350c34d84805901eaa3f]
@startuml
    set namespaceSeparator none
    hide empty fields
    hide empty methods

    class "<size:14>Renderer\n<size:10>nz.ac.wgtn.swen225.lc.renderer" as nz.ac.wgtn.swen225.lc.renderer.Renderer [[Renderer.html]] {
        +camera: Camera
        +timer: Timer
        +Renderer(Board, int, AudioUnit, App)
        +draw(Graphics): void
        +getCamera(): Camera
        +paint(Graphics): void
    }

    class "<size:14>JPanel\n<size:10>javax.swing" as javax.swing.JPanel
    enum "<size:14>Renderer.Images\n<size:10>nz.ac.wgtn.swen225.lc.renderer" as nz.ac.wgtn.swen225.lc.renderer.Renderer.Images [[Renderer.Images.html]]

    javax.swing.JPanel <|- - nz.ac.wgtn.swen225.lc.renderer.Renderer
    nz.ac.wgtn.swen225.lc.renderer.Renderer +- - nz.ac.wgtn.swen225.lc.renderer.Renderer.Images

    center footer UMLDoclet 2.0.14, PlantUML 1.2021.9
@enduml

PlantUML version 1.2021.9(Sun Jul 25 22:13:56 NZST 2021)
(APACHE source distribution)
Java Runtime: OpenJDK Runtime Environment
JVM: OpenJDK 64-Bit Server VM
Default Encoding: UTF-8
Language: en
Country: NZ
--></g></svg>