<?xml version="1.0" encoding="UTF-8" standalone="no"?><svg xmlns="http://www.w3.org/2000/svg" xmlns:xlink="http://www.w3.org/1999/xlink" contentStyleType="text/css" height="412px" preserveAspectRatio="none" style="width:272px;height:412px;background:#FFFFFF;" version="1.1" viewBox="0 0 272 412" width="272px" zoomAndPan="magnify"><defs/><g><!--class nz.ac.wgtn.swen225.lc.renderer.Renderer--><a href="Renderer.html" target="_top" title="Renderer.html" xlink:actuate="onRequest" xlink:href="Renderer.html" xlink:show="new" xlink:title="Renderer.html" xlink:type="simple"><g id="elem_nz.ac.wgtn.swen225.lc.renderer.Renderer"><rect codeLine="5" fill="#F1F1F1" height="179.4531" id="nz.ac.wgtn.swen225.lc.renderer.Renderer" rx="2.5" ry="2.5" style="stroke:#181818;stroke-width:0.5;" width="258" x="7" y="107.19"/><ellipse cx="57.25" cy="127.2838" fill="#ADD1B2" rx="11" ry="11" style="stroke:#181818;stroke-width:1.0;"/><path d="M60.0156,123.1588 Q60.1719,122.94 60.3594,122.8306 Q60.5469,122.7213 60.7656,122.7213 Q61.1406,122.7213 61.375,122.9869 Q61.6094,123.2369 61.6094,123.8463 L61.6094,125.2994 Q61.6094,125.9088 61.375,126.1744 Q61.1406,126.44 60.7656,126.44 Q60.4219,126.44 60.2188,126.2369 Q60.0156,126.0494 59.9063,125.5338 Q59.8594,125.1744 59.6719,124.9869 Q59.3438,124.6119 58.7344,124.3931 Q58.125,124.1744 57.5,124.1744 Q56.7344,124.1744 56.0938,124.5025 Q55.4688,124.8306 54.9688,125.5806 Q54.4844,126.3306 54.4844,127.3619 L54.4844,128.4556 Q54.4844,129.69 55.375,130.5181 Q56.2656,131.3306 57.8594,131.3306 Q58.7969,131.3306 59.4531,131.0806 Q59.8438,130.9244 60.2656,130.4869 Q60.5313,130.2213 60.6719,130.1431 Q60.8281,130.065 61.0313,130.065 Q61.3594,130.065 61.6094,130.3306 Q61.875,130.5806 61.875,130.9244 Q61.875,131.2681 61.5313,131.6744 Q61.0313,132.2525 60.2344,132.5806 Q59.1563,133.0338 57.8594,133.0338 Q56.3438,133.0338 55.1406,132.4088 Q54.1563,131.9088 53.4688,130.8463 Q52.7813,129.7681 52.7813,128.4869 L52.7813,127.3306 Q52.7813,126.0025 53.3906,124.8619 Q54.0156,123.7056 55.1094,123.0963 Q56.2031,122.4713 57.4375,122.4713 Q58.1719,122.4713 58.8125,122.6431 Q59.4688,122.7994 60.0156,123.1588 Z " fill="#000000"/><text fill="#000000" font-family="sans-serif" font-size="14" lengthAdjust="spacing" textLength="60" x="122.25" y="126.7232">Renderer</text><text fill="#000000" font-family="sans-serif" font-size="10" lengthAdjust="spacing" textLength="149" x="77.75" y="140.1802">nz.ac.wgtn.swen225.lc.renderer</text><line style="stroke:#181818;stroke-width:0.5;" x1="8" x2="264" y1="147.3775" y2="147.3775"/><ellipse cx="18" cy="161.6822" fill="none" rx="3" ry="3" style="stroke:#038048;stroke-width:1.0;"/><text fill="#000000" font-family="sans-serif" font-size="14" lengthAdjust="spacing" textLength="105" x="27" y="165.9107">camera: Camera</text><ellipse cx="18" cy="179.2916" fill="none" rx="3" ry="3" style="stroke:#038048;stroke-width:1.0;"/><text fill="#000000" font-family="sans-serif" font-size="14" lengthAdjust="spacing" textLength="75" x="27" y="183.5201">timer: Timer</text><line style="stroke:#181818;stroke-width:0.5;" x1="8" x2="264" y1="190.5963" y2="190.5963"/><ellipse cx="18" cy="204.9009" fill="#84BE84" rx="3" ry="3" style="stroke:#038048;stroke-width:1.0;"/><text fill="#000000" font-family="sans-serif" font-size="14" lengthAdjust="spacing" textLength="232" x="27" y="209.1295">Renderer(Board, int, AudioUnit, App)</text><ellipse cx="18" cy="222.5103" fill="#84BE84" rx="3" ry="3" style="stroke:#038048;stroke-width:1.0;"/><text fill="#000000" font-family="sans-serif" font-size="14" lengthAdjust="spacing" textLength="131" x="27" y="226.7388">draw(Graphics): void</text><ellipse cx="18" cy="240.1197" fill="#84BE84" rx="3" ry="3" style="stroke:#038048;stroke-width:1.0;"/><text fill="#000000" font-family="sans-serif" font-size="14" lengthAdjust="spacing" textLength="134" x="27" y="244.3482">playSound(Tile): void</text><ellipse cx="18" cy="257.7291" fill="#84BE84" rx="3" ry="3" style="stroke:#038048;stroke-width:1.0;"/><text fill="#000000" font-family="sans-serif" font-size="14" lengthAdjust="spacing" textLength="138" x="27" y="261.9576">getCamera(): Camera</text><ellipse cx="18" cy="275.3384" fill="#84BE84" rx="3" ry="3" style="stroke:#038048;stroke-width:1.0;"/><text fill="#000000" font-family="sans-serif" font-size="14" lengthAdjust="spacing" textLength="132" x="27" y="279.567">paint(Graphics): void</text></g></a><!--class javax.swing.JPanel--><g id="elem_javax.swing.JPanel"><rect codeLine="15" fill="#F1F1F1" height="40.1875" id="javax.swing.JPanel" rx="2.5" ry="2.5" style="stroke:#181818;stroke-width:0.5;" width="86" x="93" y="7"/><ellipse cx="108" cy="27.0938" fill="#ADD1B2" rx="11" ry="11" style="stroke:#181818;stroke-width:1.0;"/><path d="M110.7656,22.9688 Q110.9219,22.75 111.1094,22.6406 Q111.2969,22.5313 111.5156,22.5313 Q111.8906,22.5313 112.125,22.7969 Q112.3594,23.0469 112.3594,23.6563 L112.3594,25.1094 Q112.3594,25.7188 112.125,25.9844 Q111.8906,26.25 111.5156,26.25 Q111.1719,26.25 110.9688,26.0469 Q110.7656,25.8594 110.6563,25.3438 Q110.6094,24.9844 110.4219,24.7969 Q110.0938,24.4219 109.4844,24.2031 Q108.875,23.9844 108.25,23.9844 Q107.4844,23.9844 106.8438,24.3125 Q106.2188,24.6406 105.7188,25.3906 Q105.2344,26.1406 105.2344,27.1719 L105.2344,28.2656 Q105.2344,29.5 106.125,30.3281 Q107.0156,31.1406 108.6094,31.1406 Q109.5469,31.1406 110.2031,30.8906 Q110.5938,30.7344 111.0156,30.2969 Q111.2813,30.0313 111.4219,29.9531 Q111.5781,29.875 111.7813,29.875 Q112.1094,29.875 112.3594,30.1406 Q112.625,30.3906 112.625,30.7344 Q112.625,31.0781 112.2813,31.4844 Q111.7813,32.0625 110.9844,32.3906 Q109.9063,32.8438 108.6094,32.8438 Q107.0938,32.8438 105.8906,32.2188 Q104.9063,31.7188 104.2188,30.6563 Q103.5313,29.5781 103.5313,28.2969 L103.5313,27.1406 Q103.5313,25.8125 104.1406,24.6719 Q104.7656,23.5156 105.8594,22.9063 Q106.9531,22.2813 108.1875,22.2813 Q108.9219,22.2813 109.5625,22.4531 Q110.2188,22.6094 110.7656,22.9688 Z " fill="#000000"/><text fill="#000000" font-family="sans-serif" font-size="14" lengthAdjust="spacing" textLength="42" x="128" y="26.5332">JPanel</text><text fill="#000000" font-family="sans-serif" font-size="10" lengthAdjust="spacing" textLength="54" x="122" y="39.9902">javax.swing</text></g><!--class nz.ac.wgtn.swen225.lc.renderer.Renderer.Images--><a href="Renderer.Images.html" target="_top" title="Renderer.Images.html" xlink:actuate="onRequest" xlink:href="Renderer.Images.html" xlink:show="new" xlink:title="Renderer.Images.html" xlink:type="simple"><g id="elem_nz.ac.wgtn.swen225.lc.renderer.Renderer.Images"><rect codeLine="16" fill="#F1F1F1" height="40.1875" id="nz.ac.wgtn.swen225.lc.renderer.Renderer.Images" rx="2.5" ry="2.5" style="stroke:#181818;stroke-width:0.5;" width="181" x="45.5" y="346.64"/><ellipse cx="60.5" cy="366.7338" fill="#EB937F" rx="11" ry="11" style="stroke:#181818;stroke-width:1.0;"/><path d="M59.3594,367.5306 L59.3594,370.0306 L63.6875,370.0306 L63.6875,369.1088 Q63.6875,368.4994 63.9219,368.2338 Q64.1719,367.9681 64.5469,367.9681 Q64.9219,367.9681 65.1563,368.2338 Q65.3906,368.4994 65.3906,369.1088 L65.3906,371.7338 L57.3906,371.7338 Q56.7656,371.7338 56.5,371.4994 Q56.25,371.265 56.25,370.8744 Q56.25,370.4994 56.5156,370.265 Q56.7813,370.0306 57.3906,370.0306 L57.6563,370.0306 L57.6563,363.3744 L57.3906,363.3744 Q56.7656,363.3744 56.5,363.14 Q56.25,362.9056 56.25,362.515 Q56.25,362.14 56.5,361.9056 Q56.7656,361.6713 57.3906,361.6713 L65.0156,361.6713 L65.0156,364.265 Q65.0156,364.8744 64.7813,365.14 Q64.5625,365.39 64.1719,365.39 Q63.7969,365.39 63.5625,365.14 Q63.3281,364.8744 63.3281,364.265 L63.3281,363.3744 L59.3594,363.3744 L59.3594,365.8275 L60.8438,365.8275 Q60.8438,365.1713 60.9688,364.9838 Q61.2344,364.5775 61.7031,364.5775 Q62.0781,364.5775 62.3125,364.8431 Q62.5469,365.0931 62.5469,365.7025 L62.5469,367.6713 Q62.5469,368.2181 62.4219,368.4056 Q62.1563,368.7963 61.7031,368.7963 Q61.2344,368.7963 60.9688,368.39 Q60.8438,368.2025 60.8438,367.5306 L59.3594,367.5306 Z " fill="#000000"/><text fill="#000000" font-family="sans-serif" font-size="14" lengthAdjust="spacing" textLength="109" x="94.5" y="366.1732">Renderer.Images</text><text fill="#000000" font-family="sans-serif" font-size="10" lengthAdjust="spacing" textLength="149" x="74.5" y="379.6302">nz.ac.wgtn.swen225.lc.renderer</text></g></a><!--reverse link javax.swing.JPanel to nz.ac.wgtn.swen225.lc.renderer.Renderer--><g id="link_javax.swing.JPanel_nz.ac.wgtn.swen225.lc.renderer.Renderer"><path codeLine="18" d="M136,68.54 C136,80.28 136,93.59 136,107.07 " fill="none" id="javax.swing.JPanel-backto-nz.ac.wgtn.swen225.lc.renderer.Renderer" style="stroke:#181818;stroke-width:1.0;"/><polygon fill="none" points="129,68.68,136,48.68,143,68.68,129,68.68" style="stroke:#181818;stroke-width:1.0;"/></g><!--reverse link nz.ac.wgtn.swen225.lc.renderer.Renderer to nz.ac.wgtn.swen225.lc.renderer.Renderer.Images--><g id="link_nz.ac.wgtn.swen225.lc.renderer.Renderer_nz.ac.wgtn.swen225.lc.renderer.Renderer.Images"><path codeLine="19" d="M136,302.65 C136,319.32 136,334.83 136,346.29 " fill="none" id="nz.ac.wgtn.swen225.lc.renderer.Renderer-backto-nz.ac.wgtn.swen225.lc.renderer.Renderer.Images" style="stroke:#181818;stroke-width:1.0;"/><ellipse cx="136" cy="295.74" fill="#FFFFFF" rx="8" ry="8" style="stroke:#181818;stroke-width:1.0;"/><line style="stroke:#181818;stroke-width:1.0;" x1="136" x2="136" y1="303.74" y2="287.74"/><line style="stroke:#181818;stroke-width:1.0;" x1="128" x2="144" y1="295.74" y2="295.74"/></g><text fill="#888888" font-family="sans-serif" font-size="10" lengthAdjust="spacing" textLength="184" x="37" y="402.2084">UMLDoclet 2.1.0, PlantUML 1.2022.14</text><!--SRC=[jLDDQm8n4BttLmn2OHSrgBINHOH-G6bfGQgUh8TXTzIKx2GaKQjj_tkpwufIfNXfBfEycRoyp4i001nvOCp96KnfG0OjUcs1DTD5ICDSPWIK6x-6gIILkTzeJdwk0rpYgKBdeDPrSaD9-whtIfoH9Vl65TJgyKPWAbOppyAjY3kTQw5IOQl26g23lql4ZXJ6uzrKp7sk9XFuB5KKevw6IrbCuAwCUzpBi4vWM8GzkYEARZNQh06IVGDk5fdK8vR5r9XuNvrPN4KF5irSfYvEOAbbjiyQXUk1Nd0M3QMYe_IC_5PJ51-hCnXEFadzVRh3JtraKWVzVSSbVeI-IPwLpJnOYsrnoKEyo4yO9Hvpd97x5xygxaFRjaZbtlQ2ntgX-zLiddj8oN7k0wgVprj9hKmWzc7xLEiYZ5wUxtMgmaVgYBPeDQ2la7r0uN99radDKVm3]--></g></svg>