<?xml version="1.0" encoding="UTF-8" standalone="no"?><svg xmlns="http://www.w3.org/2000/svg" xmlns:xlink="http://www.w3.org/1999/xlink" contentStyleType="text/css" height="588px" preserveAspectRatio="none" style="width:629px;height:588px;" version="1.1" viewBox="0 0 629 588" width="629px" zoomAndPan="magnify"><defs/><g><!--class nz.ac.wgtn.swen225.lc.app--><a href="nz\ac\wgtn\swen225\lc\app\package-summary.html" target="_top" title="nz\ac\wgtn\swen225\lc\app\package-summary.html" xlink:actuate="onRequest" xlink:href="nz\ac\wgtn\swen225\lc\app\package-summary.html" xlink:show="new" xlink:title="nz\ac\wgtn\swen225\lc\app\package-summary.html" xlink:type="simple"><g id="elem_nz.ac.wgtn.swen225.lc.app"><rect codeLine="30" fill="#F1F1F1" height="27.6094" id="nz.ac.wgtn.swen225.lc.app" rx="2.5" ry="2.5" style="stroke:#181818;stroke-width:0.5;" width="174" x="104.18" y="183"/><text fill="#000000" font-family="sans-serif" font-size="14" lengthAdjust="spacing" textLength="168" x="107.18" y="202.5332">nz.ac.wgtn.swen225.lc.app</text></g></a><!--class nz.ac.wgtn.swen225.lc.renderer--><a href="nz\ac\wgtn\swen225\lc\renderer\package-summary.html" target="_top" title="nz\ac\wgtn\swen225\lc\renderer\package-summary.html" xlink:actuate="onRequest" xlink:href="nz\ac\wgtn\swen225\lc\renderer\package-summary.html" xlink:show="new" xlink:title="nz\ac\wgtn\swen225\lc\renderer\package-summary.html" xlink:type="simple"><g id="elem_nz.ac.wgtn.swen225.lc.renderer"><rect codeLine="32" fill="#F1F1F1" height="27.6094" id="nz.ac.wgtn.swen225.lc.renderer" rx="2.5" ry="2.5" style="stroke:#181818;stroke-width:0.5;" width="205" x="88.68" y="271"/><text fill="#000000" font-family="sans-serif" font-size="14" lengthAdjust="spacing" textLength="199" x="91.68" y="290.5332">nz.ac.wgtn.swen225.lc.renderer</text></g></a><!--class nz.ac.wgtn.swen225.lc.domain--><a href="nz\ac\wgtn\swen225\lc\domain\package-summary.html" target="_top" title="nz\ac\wgtn\swen225\lc\domain\package-summary.html" xlink:actuate="onRequest" xlink:href="nz\ac\wgtn\swen225\lc\domain\package-summary.html" xlink:show="new" xlink:title="nz\ac\wgtn\swen225\lc\domain\package-summary.html" xlink:type="simple"><g id="elem_nz.ac.wgtn.swen225.lc.domain"><rect codeLine="34" fill="#F1F1F1" height="27.6094" id="nz.ac.wgtn.swen225.lc.domain" rx="2.5" ry="2.5" style="stroke:#181818;stroke-width:0.5;" width="196" x="135.18" y="447"/><text fill="#000000" font-family="sans-serif" font-size="14" lengthAdjust="spacing" textLength="190" x="138.18" y="466.5332">nz.ac.wgtn.swen225.lc.domain</text></g></a><!--class nz.ac.wgtn.swen225.lc.persistency--><a href="nz\ac\wgtn\swen225\lc\persistency\package-summary.html" target="_top" title="nz\ac\wgtn\swen225\lc\persistency\package-summary.html" xlink:actuate="onRequest" xlink:href="nz\ac\wgtn\swen225\lc\persistency\package-summary.html" xlink:show="new" xlink:title="nz\ac\wgtn\swen225\lc\persistency\package-summary.html" xlink:type="simple"><g id="elem_nz.ac.wgtn.swen225.lc.persistency"><rect codeLine="36" fill="#F1F1F1" height="27.6094" id="nz.ac.wgtn.swen225.lc.persistency" rx="2.5" ry="2.5" style="stroke:#181818;stroke-width:0.5;" width="222" x="400.18" y="271"/><text fill="#000000" font-family="sans-serif" font-size="14" lengthAdjust="spacing" textLength="216" x="403.18" y="290.5332">nz.ac.wgtn.swen225.lc.persistency</text></g></a><!--class nz.ac.wgtn.swen225.lc.domain.items--><a href="nz\ac\wgtn\swen225\lc\domain\items\package-summary.html" target="_top" title="nz\ac\wgtn\swen225\lc\domain\items\package-summary.html" xlink:actuate="onRequest" xlink:href="nz\ac\wgtn\swen225\lc\domain\items\package-summary.html" xlink:show="new" xlink:title="nz\ac\wgtn\swen225\lc\domain\items\package-summary.html" xlink:type="simple"><g id="elem_nz.ac.wgtn.swen225.lc.domain.items"><rect codeLine="38" fill="#F1F1F1" height="27.6094" id="nz.ac.wgtn.swen225.lc.domain.items" rx="2.5" ry="2.5" style="stroke:#181818;stroke-width:0.5;" width="233" x="191.68" y="535"/><text fill="#000000" font-family="sans-serif" font-size="14" lengthAdjust="spacing" textLength="227" x="194.68" y="554.5332">nz.ac.wgtn.swen225.lc.domain.items</text></g></a><!--class nz.ac.wgtn.swen225.lc.domain.tiles--><a href="nz\ac\wgtn\swen225\lc\domain\tiles\package-summary.html" target="_top" title="nz\ac\wgtn\swen225\lc\domain\tiles\package-summary.html" xlink:actuate="onRequest" xlink:href="nz\ac\wgtn\swen225\lc\domain\tiles\package-summary.html" xlink:show="new" xlink:title="nz\ac\wgtn\swen225\lc\domain\tiles\package-summary.html" xlink:type="simple"><g id="elem_nz.ac.wgtn.swen225.lc.domain.tiles"><rect codeLine="40" fill="#F1F1F1" height="27.6094" id="nz.ac.wgtn.swen225.lc.domain.tiles" rx="2.5" ry="2.5" style="stroke:#181818;stroke-width:0.5;" width="225" x="196.68" y="359"/><text fill="#000000" font-family="sans-serif" font-size="14" lengthAdjust="spacing" textLength="219" x="199.68" y="378.5332">nz.ac.wgtn.swen225.lc.domain.tiles</text></g></a><!--class nz.ac.wgtn.swen225.lc.app.main--><a href="nz\ac\wgtn\swen225\lc\app\main\package-summary.html" target="_top" title="nz\ac\wgtn\swen225\lc\app\main\package-summary.html" xlink:actuate="onRequest" xlink:href="nz\ac\wgtn\swen225\lc\app\main\package-summary.html" xlink:show="new" xlink:title="nz\ac\wgtn\swen225\lc\app\main\package-summary.html" xlink:type="simple"><g id="elem_nz.ac.wgtn.swen225.lc.app.main"><rect codeLine="42" fill="#F1F1F1" height="27.6094" id="nz.ac.wgtn.swen225.lc.app.main" rx="2.5" ry="2.5" style="stroke:#181818;stroke-width:0.5;" width="208" x="47.18" y="7"/><text fill="#000000" font-family="sans-serif" font-size="14" lengthAdjust="spacing" textLength="202" x="50.18" y="26.5332">nz.ac.wgtn.swen225.lc.app.main</text></g></a><!--class nz.ac.wgtn.swen225.lc.recorder--><a href="nz\ac\wgtn\swen225\lc\recorder\package-summary.html" target="_top" title="nz\ac\wgtn\swen225\lc\recorder\package-summary.html" xlink:actuate="onRequest" xlink:href="nz\ac\wgtn\swen225\lc\recorder\package-summary.html" xlink:show="new" xlink:title="nz\ac\wgtn\swen225\lc\recorder\package-summary.html" xlink:type="simple"><g id="elem_nz.ac.wgtn.swen225.lc.recorder"><rect codeLine="44" fill="#F1F1F1" height="27.6094" id="nz.ac.wgtn.swen225.lc.recorder" rx="2.5" ry="2.5" style="stroke:#181818;stroke-width:0.5;" width="204" x="49.18" y="95"/><text fill="#000000" font-family="sans-serif" font-size="14" lengthAdjust="spacing" textLength="198" x="52.18" y="114.5332">nz.ac.wgtn.swen225.lc.recorder</text></g></a><!--class nz.ac.wgtn.swen225.lc.app.input--><a href="nz\ac\wgtn\swen225\lc\app\input\package-summary.html" target="_top" title="nz\ac\wgtn\swen225\lc\app\input\package-summary.html" xlink:actuate="onRequest" xlink:href="nz\ac\wgtn\swen225\lc\app\input\package-summary.html" xlink:show="new" xlink:title="nz\ac\wgtn\swen225\lc\app\input\package-summary.html" xlink:type="simple"><g id="elem_nz.ac.wgtn.swen225.lc.app.input"><rect codeLine="46" fill="#F1F1F1" height="27.6094" id="nz.ac.wgtn.swen225.lc.app.input" rx="2.5" ry="2.5" style="stroke:#181818;stroke-width:0.5;" width="209" x="288.68" y="95"/><text fill="#000000" font-family="sans-serif" font-size="14" lengthAdjust="spacing" textLength="203" x="291.68" y="114.5332">nz.ac.wgtn.swen225.lc.app.input</text></g></a><!--link nz.ac.wgtn.swen225.lc.app to nz.ac.wgtn.swen225.lc.renderer--><g id="link_nz.ac.wgtn.swen225.lc.app_nz.ac.wgtn.swen225.lc.renderer"><path codeLine="7" d="M181.72,211.06 C177.79,225.58 177.38,249.15 180.49,265.55 " fill="none" id="nz.ac.wgtn.swen225.lc.app-to-nz.ac.wgtn.swen225.lc.renderer" style="stroke:#181818;stroke-width:1.0;"/><polygon fill="#181818" points="181.69,270.82,183.6094,261.16,180.5887,265.9428,175.8059,262.9221,181.69,270.82" style="stroke:#181818;stroke-width:1.0;"/></g><!--link nz.ac.wgtn.swen225.lc.renderer to nz.ac.wgtn.swen225.lc.app--><g id="link_nz.ac.wgtn.swen225.lc.renderer_nz.ac.wgtn.swen225.lc.app"><path codeLine="14" d="M201.23,270.82 C205.37,256.24 205.78,232.67 202.47,216.31 " fill="none" id="nz.ac.wgtn.swen225.lc.renderer-to-nz.ac.wgtn.swen225.lc.app" style="stroke:#181818;stroke-width:1.0;"/><polygon fill="#181818" points="201.2,211.06,199.4216,220.747,202.3723,215.9206,207.1986,218.8713,201.2,211.06" style="stroke:#181818;stroke-width:1.0;"/></g><!--link nz.ac.wgtn.swen225.lc.app to nz.ac.wgtn.swen225.lc.domain--><g id="link_nz.ac.wgtn.swen225.lc.app_nz.ac.wgtn.swen225.lc.domain"><path codeLine="8" d="M151.05,211.05 C109.76,227.01 53.77,257.14 71.18,299 C98.84,365.49 168.79,418.67 207.1,443.96 " fill="none" id="nz.ac.wgtn.swen225.lc.app-to-nz.ac.wgtn.swen225.lc.domain" style="stroke:#181818;stroke-width:1.0;"/><polygon fill="#181818" points="211.61,446.91,206.2549,438.6443,207.4214,444.1795,201.8861,445.3461,211.61,446.91" style="stroke:#181818;stroke-width:1.0;"/></g><!--link nz.ac.wgtn.swen225.lc.app to nz.ac.wgtn.swen225.lc.persistency--><g id="link_nz.ac.wgtn.swen225.lc.app_nz.ac.wgtn.swen225.lc.persistency"><path codeLine="9" d="M230.32,211.06 C284.83,226.86 383.35,253.37 448.19,269.7 " fill="none" id="nz.ac.wgtn.swen225.lc.app-to-nz.ac.wgtn.swen225.lc.persistency" style="stroke:#181818;stroke-width:1.0;"/><polygon fill="#181818" points="453.19,270.96,445.4457,264.8752,448.3427,269.7339,443.4839,272.6309,453.19,270.96" style="stroke:#181818;stroke-width:1.0;"/></g><!--link nz.ac.wgtn.swen225.lc.persistency to nz.ac.wgtn.swen225.lc.app--><g id="link_nz.ac.wgtn.swen225.lc.persistency_nz.ac.wgtn.swen225.lc.app"><path codeLine="18" d="M472.66,270.96 C418.43,255.17 319.93,228.66 254.82,212.32 " fill="none" id="nz.ac.wgtn.swen225.lc.persistency-to-nz.ac.wgtn.swen225.lc.app" style="stroke:#181818;stroke-width:1.0;"/><polygon fill="#181818" points="249.8,211.06,257.5569,217.1288,254.6499,212.276,259.5026,209.369,249.8,211.06" style="stroke:#181818;stroke-width:1.0;"/></g><!--link nz.ac.wgtn.swen225.lc.app to nz.ac.wgtn.swen225.lc.domain.items--><g id="link_nz.ac.wgtn.swen225.lc.app_nz.ac.wgtn.swen225.lc.domain.items"><path codeLine="10" d="M143.31,211.08 C113.7,221.91 78.05,240.58 60.18,271 C53.88,281.73 58.24,286.71 60.18,299 C73,380.22 60.57,415.37 117.18,475 C145.84,505.18 188.3,523.03 225.92,533.51 " fill="none" id="nz.ac.wgtn.swen225.lc.app-to-nz.ac.wgtn.swen225.lc.domain.items" style="stroke:#181818;stroke-width:1.0;"/><polygon fill="#181818" points="230.96,534.88,223.3265,528.6567,226.1355,533.5668,221.2254,536.3759,230.96,534.88" style="stroke:#181818;stroke-width:1.0;"/></g><!--link nz.ac.wgtn.swen225.lc.app to nz.ac.wgtn.swen225.lc.domain.tiles--><g id="link_nz.ac.wgtn.swen225.lc.app_nz.ac.wgtn.swen225.lc.domain.tiles"><path codeLine="11" d="M232.46,211.05 C260.13,222.2 294.45,241.24 311.18,271 C325.68,296.79 320.2,332.45 314.78,353.77 " fill="none" id="nz.ac.wgtn.swen225.lc.app-to-nz.ac.wgtn.swen225.lc.domain.tiles" style="stroke:#181818;stroke-width:1.0;"/><polygon fill="#181818" points="313.41,358.87,319.5911,351.2023,314.6965,354.0384,311.8604,349.1438,313.41,358.87" style="stroke:#181818;stroke-width:1.0;"/></g><!--link nz.ac.wgtn.swen225.lc.renderer to nz.ac.wgtn.swen225.lc.domain--><g id="link_nz.ac.wgtn.swen225.lc.renderer_nz.ac.wgtn.swen225.lc.domain"><path codeLine="12" d="M186.12,299.11 C179.32,318.73 169.17,356.65 179.18,387 C186.35,408.76 202.79,429.34 215.65,443.07 " fill="none" id="nz.ac.wgtn.swen225.lc.renderer-to-nz.ac.wgtn.swen225.lc.domain" style="stroke:#181818;stroke-width:1.0;"/><polygon fill="#181818" points="219.18,446.75,215.8496,437.4813,215.7239,443.1368,210.0684,443.0111,219.18,446.75" style="stroke:#181818;stroke-width:1.0;"/></g><!--link nz.ac.wgtn.swen225.lc.renderer to nz.ac.wgtn.swen225.lc.domain.tiles--><g id="link_nz.ac.wgtn.swen225.lc.renderer_nz.ac.wgtn.swen225.lc.domain.tiles"><path codeLine="13" d="M209.1,299.06 C229.98,314.28 264.49,339.43 287.03,355.85 " fill="none" id="nz.ac.wgtn.swen225.lc.renderer-to-nz.ac.wgtn.swen225.lc.domain.tiles" style="stroke:#181818;stroke-width:1.0;"/><polygon fill="#181818" points="291.09,358.82,286.182,350.2812,287.0525,355.8706,281.463,356.7411,291.09,358.82" style="stroke:#181818;stroke-width:1.0;"/></g><!--link nz.ac.wgtn.swen225.lc.persistency to nz.ac.wgtn.swen225.lc.domain--><g id="link_nz.ac.wgtn.swen225.lc.persistency_nz.ac.wgtn.swen225.lc.domain"><path codeLine="15" d="M505.15,299.12 C494.68,320.5 471.16,362.89 439.18,387 C400.17,416.41 348.28,434.71 306.35,445.62 " fill="none" id="nz.ac.wgtn.swen225.lc.persistency-to-nz.ac.wgtn.swen225.lc.domain" style="stroke:#181818;stroke-width:1.0;"/><polygon fill="#181818" points="301.28,446.92,310.9907,448.5641,306.1239,445.6805,309.0075,440.8138,301.28,446.92" style="stroke:#181818;stroke-width:1.0;"/></g><!--link nz.ac.wgtn.swen225.lc.persistency to nz.ac.wgtn.swen225.lc.domain.tiles--><g id="link_nz.ac.wgtn.swen225.lc.persistency_nz.ac.wgtn.swen225.lc.domain.tiles"><path codeLine="16" d="M480.5,299.06 C444.06,314.58 383.37,340.41 344.87,356.81 " fill="none" id="nz.ac.wgtn.swen225.lc.persistency-to-nz.ac.wgtn.swen225.lc.domain.tiles" style="stroke:#181818;stroke-width:1.0;"/><polygon fill="#181818" points="339.82,358.96,349.6676,359.1172,344.4209,357.0025,346.5356,351.7558,339.82,358.96" style="stroke:#181818;stroke-width:1.0;"/></g><!--link nz.ac.wgtn.swen225.lc.persistency to nz.ac.wgtn.swen225.lc.domain.items--><g id="link_nz.ac.wgtn.swen225.lc.persistency_nz.ac.wgtn.swen225.lc.domain.items"><path codeLine="17" d="M509,299.33 C505.24,319.55 496.13,358.63 478.18,387 C438.29,450.04 368.21,505.45 331.74,531.76 " fill="none" id="nz.ac.wgtn.swen225.lc.persistency-to-nz.ac.wgtn.swen225.lc.domain.items" style="stroke:#181818;stroke-width:1.0;"/><polygon fill="#181818" points="327.46,534.82,337.1033,532.8181,331.5209,531.903,332.4361,526.3207,327.46,534.82" style="stroke:#181818;stroke-width:1.0;"/></g><!--link nz.ac.wgtn.swen225.lc.app.main to nz.ac.wgtn.swen225.lc.recorder--><g id="link_nz.ac.wgtn.swen225.lc.app.main_nz.ac.wgtn.swen225.lc.recorder"><path codeLine="19" d="M151.18,35.06 C151.18,49.58 151.18,73.15 151.18,89.55 " fill="none" id="nz.ac.wgtn.swen225.lc.app.main-to-nz.ac.wgtn.swen225.lc.recorder" style="stroke:#181818;stroke-width:1.0;"/><polygon fill="#181818" points="151.18,94.82,155.18,85.82,151.18,89.82,147.18,85.82,151.18,94.82" style="stroke:#181818;stroke-width:1.0;"/></g><!--link nz.ac.wgtn.swen225.lc.app.main to nz.ac.wgtn.swen225.lc.persistency--><g id="link_nz.ac.wgtn.swen225.lc.app.main_nz.ac.wgtn.swen225.lc.persistency"><path codeLine="20" d="M255.27,28.51 C350.99,36.92 482.81,55.49 515.18,95 C555.82,144.6 532.1,228.59 518.58,265.58 " fill="none" id="nz.ac.wgtn.swen225.lc.app.main-to-nz.ac.wgtn.swen225.lc.persistency" style="stroke:#181818;stroke-width:1.0;"/><polygon fill="#181818" points="516.67,270.68,523.5566,263.6391,518.4131,265.9937,516.0585,260.8501,516.67,270.68" style="stroke:#181818;stroke-width:1.0;"/></g><!--link nz.ac.wgtn.swen225.lc.app.main to nz.ac.wgtn.swen225.lc.app--><g id="link_nz.ac.wgtn.swen225.lc.app.main_nz.ac.wgtn.swen225.lc.app"><path codeLine="21" d="M111.95,35.06 C68,51.93 6,83.83 31.18,123 C50.46,152.99 85.43,170.8 117.78,181.32 " fill="none" id="nz.ac.wgtn.swen225.lc.app.main-to-nz.ac.wgtn.swen225.lc.app" style="stroke:#181818;stroke-width:1.0;"/><polygon fill="#181818" points="122.94,182.94,115.5539,176.425,118.1701,181.4405,113.1547,184.0568,122.94,182.94" style="stroke:#181818;stroke-width:1.0;"/></g><!--link nz.ac.wgtn.swen225.lc.app.input to nz.ac.wgtn.swen225.lc.app--><g id="link_nz.ac.wgtn.swen225.lc.app.input_nz.ac.wgtn.swen225.lc.app"><path codeLine="22" d="M362.5,123.06 C326.06,138.58 265.37,164.41 226.87,180.81 " fill="none" id="nz.ac.wgtn.swen225.lc.app.input-to-nz.ac.wgtn.swen225.lc.app" style="stroke:#181818;stroke-width:1.0;"/><polygon fill="#181818" points="221.82,182.96,231.6676,183.1172,226.4209,181.0025,228.5356,175.7558,221.82,182.96" style="stroke:#181818;stroke-width:1.0;"/></g><!--link nz.ac.wgtn.swen225.lc.domain to nz.ac.wgtn.swen225.lc.domain.tiles--><g id="link_nz.ac.wgtn.swen225.lc.domain_nz.ac.wgtn.swen225.lc.domain.tiles"><path codeLine="23" d="M254.89,446.82 C272.2,431.99 293.89,407.85 304.86,391.46 " fill="none" id="nz.ac.wgtn.swen225.lc.domain-to-nz.ac.wgtn.swen225.lc.domain.tiles" style="stroke:#181818;stroke-width:1.0;"/><polygon fill="#181818" points="307.66,387.06,299.4499,392.5001,304.9728,391.2765,306.1964,396.7995,307.66,387.06" style="stroke:#181818;stroke-width:1.0;"/></g><!--link nz.ac.wgtn.swen225.lc.domain.tiles to nz.ac.wgtn.swen225.lc.domain--><g id="link_nz.ac.wgtn.swen225.lc.domain.tiles_nz.ac.wgtn.swen225.lc.domain"><path codeLine="26" d="M288.18,387.06 C271.12,401.84 249.44,425.97 238.21,442.4 " fill="none" id="nz.ac.wgtn.swen225.lc.domain.tiles-to-nz.ac.wgtn.swen225.lc.domain" style="stroke:#181818;stroke-width:1.0;"/><polygon fill="#181818" points="235.34,446.82,243.6057,441.4649,238.0705,442.6314,236.9039,437.0961,235.34,446.82" style="stroke:#181818;stroke-width:1.0;"/></g><!--link nz.ac.wgtn.swen225.lc.domain to nz.ac.wgtn.swen225.lc.domain.items--><g id="link_nz.ac.wgtn.swen225.lc.domain_nz.ac.wgtn.swen225.lc.domain.items"><path codeLine="24" d="M244.57,475.06 C257.57,489.96 278.87,514.39 293.2,530.82 " fill="none" id="nz.ac.wgtn.swen225.lc.domain-to-nz.ac.wgtn.swen225.lc.domain.items" style="stroke:#181818;stroke-width:1.0;"/><polygon fill="#181818" points="296.68,534.82,293.784,525.4065,293.3956,531.05,287.7521,530.6616,296.68,534.82" style="stroke:#181818;stroke-width:1.0;"/></g><!--link nz.ac.wgtn.swen225.lc.domain.tiles to nz.ac.wgtn.swen225.lc.domain.items--><g id="link_nz.ac.wgtn.swen225.lc.domain.tiles_nz.ac.wgtn.swen225.lc.domain.items"><path codeLine="25" d="M320.18,387.05 C334.76,405.97 357.72,442.34 349.18,475 C343.78,495.65 331.09,516.62 321.25,530.76 " fill="none" id="nz.ac.wgtn.swen225.lc.domain.tiles-to-nz.ac.wgtn.swen225.lc.domain.items" style="stroke:#181818;stroke-width:1.0;"/><polygon fill="#181818" points="318.29,534.92,326.7494,529.8763,321.1745,530.836,320.2149,525.2611,318.29,534.92" style="stroke:#181818;stroke-width:1.0;"/></g><!--link nz.ac.wgtn.swen225.lc.recorder to nz.ac.wgtn.swen225.lc.app--><g id="link_nz.ac.wgtn.swen225.lc.recorder_nz.ac.wgtn.swen225.lc.app"><path codeLine="27" d="M157.26,123.06 C164.07,137.71 175.16,161.56 182.8,177.98 " fill="none" id="nz.ac.wgtn.swen225.lc.recorder-to-nz.ac.wgtn.swen225.lc.app" style="stroke:#181818;stroke-width:1.0;"/><polygon fill="#181818" points="185.05,182.82,184.8789,172.9726,182.9403,178.2869,177.626,176.3482,185.05,182.82" style="stroke:#181818;stroke-width:1.0;"/></g><text fill="#888888" font-family="sans-serif" font-size="10" lengthAdjust="spacing" textLength="184" x="215.59" y="577.9902">UMLDoclet 2.1.0, PlantUML 1.2022.14</text><!--SRC=[lLPDImCn4BtxAmP1LB112ruzULGeYATk3p4xRKFpiIIffHN_kzd4XKNOf6qMJylEcxmtCvcPNG00k-6geOPA-A1iip9wgsgcXJRW35NMGwZS1RIUw41HYTx6y0tRGywxAQqmu6jU8p1kcEYzespS7fOSHMt_MYMwjVRcO5S7GXdPhPmYTeTgEdqaWX7QD32PF0sWFhGQ3Pgp2MejALTd7s_GM6uTAhOl385mXzAMaZWkC4NIrQka8aTpZ16Dppf1q2j_IKQdq6IJEeaiT-d7aQMBv57IYYN7Y6bJvyOentBqCEI8ylduZRLrPpF4ufTVzR4ykLlko_qpMt8wOrDaoXmOhc7clnrqXI2usiJecA3MmkNWoKkOpzMXegngmUeNh0IhF5WraMzYjr9IioTh9yLY0L-1-ZilqEsMOPNEerWgLd9OAEB5Chtn6jRgEOsKL-otR7R1Qop9qBjPoU1LBDdjetGxZdA3tKIbUZ9wZ99LM9Bfj89BJYog-Pz0lmkMMhUFzzUNP-r_ynnCoGEvluEPeCfvArnzjXserStj3m00]--></g></svg>