<?xml version="1.0" encoding="UTF-8" standalone="no"?><svg xmlns="http://www.w3.org/2000/svg" xmlns:xlink="http://www.w3.org/1999/xlink" contentStyleType="text/css" height="409px" preserveAspectRatio="none" style="width:397px;height:409px;background:#FFFFFF;" version="1.1" viewBox="0 0 397 409" width="397px" zoomAndPan="magnify"><defs/><g><!--class nz.ac.wgtn.swen225.lc.app.App--><a href="App.html" target="_top" title="App.html" xlink:actuate="onRequest" xlink:href="App.html" xlink:show="new" xlink:title="App.html" xlink:type="simple"><g id="elem_nz.ac.wgtn.swen225.lc.app.App"><rect codeLine="5" fill="#F1F1F1" height="249.8906" id="nz.ac.wgtn.swen225.lc.app.App" rx="2.5" ry="2.5" style="stroke:#181818;stroke-width:0.5;" width="318" x="7" y="132.8"/><ellipse cx="97.75" cy="152.8938" fill="#ADD1B2" rx="11" ry="11" style="stroke:#181818;stroke-width:1.0;"/><path d="M100.5156,148.7688 Q100.6719,148.55 100.8594,148.4406 Q101.0469,148.3313 101.2656,148.3313 Q101.6406,148.3313 101.875,148.5969 Q102.1094,148.8469 102.1094,149.4563 L102.1094,150.9094 Q102.1094,151.5188 101.875,151.7844 Q101.6406,152.05 101.2656,152.05 Q100.9219,152.05 100.7188,151.8469 Q100.5156,151.6594 100.4063,151.1438 Q100.3594,150.7844 100.1719,150.5969 Q99.8438,150.2219 99.2344,150.0031 Q98.625,149.7844 98,149.7844 Q97.2344,149.7844 96.5938,150.1125 Q95.9688,150.4406 95.4688,151.1906 Q94.9844,151.9406 94.9844,152.9719 L94.9844,154.0656 Q94.9844,155.3 95.875,156.1281 Q96.7656,156.9406 98.3594,156.9406 Q99.2969,156.9406 99.9531,156.6906 Q100.3438,156.5344 100.7656,156.0969 Q101.0313,155.8313 101.1719,155.7531 Q101.3281,155.675 101.5313,155.675 Q101.8594,155.675 102.1094,155.9406 Q102.375,156.1906 102.375,156.5344 Q102.375,156.8781 102.0313,157.2844 Q101.5313,157.8625 100.7344,158.1906 Q99.6563,158.6438 98.3594,158.6438 Q96.8438,158.6438 95.6406,158.0188 Q94.6563,157.5188 93.9688,156.4563 Q93.2813,155.3781 93.2813,154.0969 L93.2813,152.9406 Q93.2813,151.6125 93.8906,150.4719 Q94.5156,149.3156 95.6094,148.7063 Q96.7031,148.0813 97.9375,148.0813 Q98.6719,148.0813 99.3125,148.2531 Q99.9688,148.4094 100.5156,148.7688 Z " fill="#000000"/><text fill="#000000" font-family="sans-serif" font-size="14" lengthAdjust="spacing" textLength="25" x="169.75" y="152.3332">App</text><text fill="#000000" font-family="sans-serif" font-size="10" lengthAdjust="spacing" textLength="128" x="118.25" y="165.7902">nz.ac.wgtn.swen225.lc.app</text><line style="stroke:#181818;stroke-width:0.5;" x1="8" x2="324" y1="172.9875" y2="172.9875"/><ellipse cx="18" cy="187.2922" fill="none" rx="3" ry="3" style="stroke:#038048;stroke-width:1.0;"/><text fill="#000000" font-family="sans-serif" font-size="14" lengthAdjust="spacing" textLength="137" x="27" y="191.5207">treasureLabel: JLabel</text><ellipse cx="18" cy="204.9016" fill="none" rx="3" ry="3" style="stroke:#038048;stroke-width:1.0;"/><text fill="#000000" font-family="sans-serif" font-size="14" lengthAdjust="spacing" textLength="106" x="27" y="209.1301">paused: boolean</text><line style="stroke:#181818;stroke-width:0.5;" x1="8" x2="324" y1="216.2063" y2="216.2063"/><ellipse cx="18" cy="230.5109" fill="#84BE84" rx="3" ry="3" style="stroke:#038048;stroke-width:1.0;"/><text fill="#000000" font-family="sans-serif" font-size="14" lengthAdjust="spacing" textLength="102" x="27" y="234.7395">setup(File): void</text><ellipse cx="18" cy="248.1203" fill="#84BE84" rx="3" ry="3" style="stroke:#038048;stroke-width:1.0;"/><text fill="#000000" font-family="sans-serif" font-size="14" lengthAdjust="spacing" textLength="173" x="27" y="252.3488">createInventory(int): JPanel</text><ellipse cx="18" cy="265.7297" fill="#84BE84" rx="3" ry="3" style="stroke:#038048;stroke-width:1.0;"/><text fill="#000000" font-family="sans-serif" font-size="14" lengthAdjust="spacing" textLength="180" x="27" y="269.9582">updateInventory(Item[]): void</text><ellipse cx="18" cy="283.3391" fill="#84BE84" rx="3" ry="3" style="stroke:#038048;stroke-width:1.0;"/><text fill="#000000" font-family="sans-serif" font-size="14" lengthAdjust="spacing" textLength="292" x="27" y="287.5676">createLabel(String, Font, Color, Color): JLabel</text><ellipse cx="18" cy="300.9484" fill="#84BE84" rx="3" ry="3" style="stroke:#038048;stroke-width:1.0;"/><text fill="#000000" font-family="sans-serif" font-size="14" lengthAdjust="spacing" textLength="162" x="27" y="305.177">setPaused(boolean): void</text><ellipse cx="18" cy="318.5578" fill="#84BE84" rx="3" ry="3" style="stroke:#038048;stroke-width:1.0;"/><text fill="#000000" font-family="sans-serif" font-size="14" lengthAdjust="spacing" textLength="154" x="27" y="322.7863">moveAction(String): void</text><ellipse cx="18" cy="336.1672" fill="#84BE84" rx="3" ry="3" style="stroke:#038048;stroke-width:1.0;"/><text fill="#000000" font-family="sans-serif" font-size="14" lengthAdjust="spacing" textLength="223" x="27" y="340.3957">actionPerformed(ActionEvent): void</text><ellipse cx="18" cy="353.7766" fill="#84BE84" rx="3" ry="3" style="stroke:#038048;stroke-width:1.0;"/><text fill="#000000" font-family="sans-serif" font-size="14" lengthAdjust="spacing" text-decoration="underline" textLength="158" x="27" y="358.0051">getRenderer(): Renderer</text><ellipse cx="18" cy="371.3859" fill="#84BE84" rx="3" ry="3" style="stroke:#038048;stroke-width:1.0;"/><text fill="#000000" font-family="sans-serif" font-size="14" lengthAdjust="spacing" text-decoration="underline" textLength="114" x="27" y="375.6145">getBoard(): Board</text></g></a><!--class javax.swing.JPanel--><g id="elem_javax.swing.JPanel"><rect codeLine="19" fill="#F1F1F1" height="40.1875" id="javax.swing.JPanel" rx="2.5" ry="2.5" style="stroke:#181818;stroke-width:0.5;" width="86" x="22" y="19.81"/><ellipse cx="37" cy="39.9038" fill="#ADD1B2" rx="11" ry="11" style="stroke:#181818;stroke-width:1.0;"/><path d="M39.7656,35.7788 Q39.9219,35.56 40.1094,35.4506 Q40.2969,35.3413 40.5156,35.3413 Q40.8906,35.3413 41.125,35.6069 Q41.3594,35.8569 41.3594,36.4663 L41.3594,37.9194 Q41.3594,38.5288 41.125,38.7944 Q40.8906,39.06 40.5156,39.06 Q40.1719,39.06 39.9688,38.8569 Q39.7656,38.6694 39.6563,38.1538 Q39.6094,37.7944 39.4219,37.6069 Q39.0938,37.2319 38.4844,37.0131 Q37.875,36.7944 37.25,36.7944 Q36.4844,36.7944 35.8438,37.1225 Q35.2188,37.4506 34.7188,38.2006 Q34.2344,38.9506 34.2344,39.9819 L34.2344,41.0756 Q34.2344,42.31 35.125,43.1381 Q36.0156,43.9506 37.6094,43.9506 Q38.5469,43.9506 39.2031,43.7006 Q39.5938,43.5444 40.0156,43.1069 Q40.2813,42.8413 40.4219,42.7631 Q40.5781,42.685 40.7813,42.685 Q41.1094,42.685 41.3594,42.9506 Q41.625,43.2006 41.625,43.5444 Q41.625,43.8881 41.2813,44.2944 Q40.7813,44.8725 39.9844,45.2006 Q38.9063,45.6538 37.6094,45.6538 Q36.0938,45.6538 34.8906,45.0288 Q33.9063,44.5288 33.2188,43.4663 Q32.5313,42.3881 32.5313,41.1069 L32.5313,39.9506 Q32.5313,38.6225 33.1406,37.4819 Q33.7656,36.3256 34.8594,35.7163 Q35.9531,35.0913 37.1875,35.0913 Q37.9219,35.0913 38.5625,35.2631 Q39.2188,35.4194 39.7656,35.7788 Z " fill="#000000"/><text fill="#000000" font-family="sans-serif" font-size="14" lengthAdjust="spacing" textLength="42" x="57" y="39.3432">JPanel</text><text fill="#000000" font-family="sans-serif" font-size="10" lengthAdjust="spacing" textLength="54" x="51" y="52.8002">javax.swing</text></g><!--class java.awt.event.ActionListener--><g id="elem_java.awt.event.ActionListener"><rect codeLine="20" fill="#F1F1F1" height="65.7969" id="java.awt.event.ActionListener" rx="2.5" ry="2.5" style="stroke:#181818;stroke-width:0.5;" width="247" x="143.5" y="7"/><ellipse cx="217.75" cy="27.0938" fill="#B4A7E5" rx="11" ry="11" style="stroke:#181818;stroke-width:1.0;"/><path d="M218.7031,23.7344 L218.7031,30.3906 L220.4219,30.3906 Q221.0313,30.3906 221.2969,30.625 Q221.5625,30.8594 221.5625,31.25 Q221.5625,31.625 221.2969,31.8594 Q221.0313,32.0938 220.4219,32.0938 L215.2813,32.0938 Q214.6719,32.0938 214.4063,31.8594 Q214.1406,31.625 214.1406,31.2344 Q214.1406,30.8594 214.4063,30.625 Q214.6719,30.3906 215.2813,30.3906 L217,30.3906 L217,23.7344 L215.2813,23.7344 Q214.6719,23.7344 214.4063,23.5 Q214.1406,23.2656 214.1406,22.875 Q214.1406,22.5 214.4063,22.2656 Q214.6719,22.0313 215.2813,22.0313 L220.4219,22.0313 Q221.0313,22.0313 221.2969,22.2656 Q221.5625,22.5 221.5625,22.875 Q221.5625,23.2656 221.2969,23.5 Q221.0313,23.7344 220.4219,23.7344 L218.7031,23.7344 Z " fill="#000000"/><text fill="#000000" font-family="sans-serif" font-size="14" font-style="italic" lengthAdjust="spacing" textLength="90" x="238.25" y="26.5332">ActionListener</text><text fill="#000000" font-family="sans-serif" font-size="10" font-style="italic" lengthAdjust="spacing" textLength="68" x="249.25" y="39.9902">java.awt.event</text><line style="stroke:#181818;stroke-width:0.5;" x1="144.5" x2="389.5" y1="47.1875" y2="47.1875"/><ellipse cx="154.5" cy="61.4922" fill="#84BE84" rx="3" ry="3" style="stroke:#038048;stroke-width:1.0;"/><text fill="#000000" font-family="sans-serif" font-size="14" font-style="italic" lengthAdjust="spacing" textLength="221" x="163.5" y="65.7207">actionPerformed(ActionEvent): void</text></g><!--reverse link javax.swing.JPanel to nz.ac.wgtn.swen225.lc.app.App--><g id="link_javax.swing.JPanel_nz.ac.wgtn.swen225.lc.app.App"><path codeLine="24" d="M82.98,79.31 C90.12,94.59 98.78,113.09 107.77,132.31 " fill="none" id="javax.swing.JPanel-backto-nz.ac.wgtn.swen225.lc.app.App" style="stroke:#181818;stroke-width:1.0;"/><polygon fill="none" points="76.28,82.52,74.14,61.44,88.96,76.58,76.28,82.52" style="stroke:#181818;stroke-width:1.0;"/></g><!--reverse link java.awt.event.ActionListener to nz.ac.wgtn.swen225.lc.app.App--><g id="link_java.awt.event.ActionListener_nz.ac.wgtn.swen225.lc.app.App"><path codeLine="25" d="M243.08,92.02 C237.27,104.44 230.8,118.27 224.15,132.48 " fill="none" id="java.awt.event.ActionListener-backto-nz.ac.wgtn.swen225.lc.app.App" style="stroke:#181818;stroke-width:1.0;stroke-dasharray:7.0,7.0;"/><polygon fill="none" points="237.06,89.36,251.88,74.21,249.74,95.3,237.06,89.36" style="stroke:#181818;stroke-width:1.0;"/></g><text fill="#888888" font-family="sans-serif" font-size="10" lengthAdjust="spacing" textLength="184" x="99.75" y="399.0715">UMLDoclet 2.1.0, PlantUML 1.2022.14</text><!--SRC=[ZLDDRzim3BtlLn052ZXeAhJ1TWc20jr7WHOP4ApeASk1iPb4Wom94kEiJVFVHojUuoRDLXzCYNnwVdoY0G0YCLWiANhCwPuy1cGNm3fB7wGC2rqGKEdv4MQQJ17tioNnmaawvNE3CSB98Eedwbz-lBhs_gTjTXTNzabXhbPpjYgkoFPwdvJ95Nf_0XZXQ5K92up7ybOBBira0klqiVevuq0Obu66E2NJXxiKTsMFoqX57wRE6KAxAqZVIv_TQ4ETFbHE5xjIBfHCjxOYArOyPjgoOEv6QDlCIr-yGjqobUF94RAaAhldeEsy2pVESXU-EED24pg7oaNWA8dF6kq7rAMhw3fdxMp3V830L1rHcBbG2jCM_QsMl8zTHqRM-GREviG_o1OKA6I2-hj-6_dPOIXgM5eapERjKTZwrvg6NrZXRxbg4PxklxLNBRF5VT4lmzaUgzJ7K4ScIs6FK-6A5TKzlj3kKkhrqTOahN4QEOXZctVxrdHwA1m6p-Vd_nxebvF7jGsUbVeFoTPfgYs2cNDrUFW-_Efo8xzrJrsgYowC35gMB9nM568zBPq_]--></g></svg>