<?xml version="1.0" encoding="UTF-8" standalone="no"?><svg xmlns="http://www.w3.org/2000/svg" xmlns:xlink="http://www.w3.org/1999/xlink" contentScriptType="application/ecmascript" contentStyleType="text/css" height="373px" preserveAspectRatio="none" style="width:338px;height:373px;background:#FFFFFF;" version="1.1" viewBox="0 0 338 373" width="338px" zoomAndPan="magnify"><defs><filter height="300%" id="fn79rhdnjl26x" width="300%" x="-1" y="-1"><feGaussianBlur result="blurOut" stdDeviation="2.0"/><feColorMatrix in="blurOut" result="blurOut2" type="matrix" values="0 0 0 0 0 0 0 0 0 0 0 0 0 0 0 0 0 0 .4 0"/><feOffset dx="4.0" dy="4.0" in="blurOut2" result="blurOut3"/><feBlend in="SourceGraphic" in2="blurOut3" mode="normal"/></filter></defs><g><!--MD5=[9fc35523cf5606b74c28fbd8f122de5d]
class nz.ac.wgtn.swen225.lc.app.App--><a href="App.html" target="_top" title="App.html" xlink:actuate="onRequest" xlink:href="App.html" xlink:show="new" xlink:title="App.html" xlink:type="simple"><rect codeLine="5" fill="#FEFECE" filter="url(#fn79rhdnjl26x)" height="208.5068" id="nz.ac.wgtn.swen225.lc.app.App" style="stroke:#A80036;stroke-width:1.5;" width="261" x="8.5" y="132.67"/><ellipse cx="69.75" cy="154.014" fill="#ADD1B2" rx="11" ry="11" style="stroke:#A80036;stroke-width:1.0;"/><path d="M69.2188,160.9358 Q67.4688,160.9358 66.3281,160.2015 Q65.2031,159.4515 64.6406,158.1077 Q64.0938,156.7483 64.0938,154.9515 Q64.0938,152.9202 64.75,151.4671 Q65.4063,150.014 66.6875,149.2327 Q67.9688,148.4515 69.8438,148.4515 Q70.7344,148.4515 71.4063,148.639 Q72.0781,148.8108 72.7656,149.1546 L71.9531,151.1702 Q71.3281,150.8577 70.7813,150.7327 Q70.25,150.6077 69.7656,150.6077 Q68.5938,150.6077 67.8906,151.139 Q67.1875,151.6702 66.8906,152.6233 Q66.5938,153.5765 66.5938,154.8421 Q66.5938,156.8577 67.3125,157.8265 Q68.0313,158.7796 69.625,158.7796 Q70.2188,158.7796 70.8438,158.6233 Q71.4688,158.4671 72.2969,158.0921 L72.2969,160.3108 Q71.5625,160.6233 70.7656,160.7796 Q69.9844,160.9358 69.2188,160.9358 Z " fill="#000000"/><text fill="#000000" font-family="sans-serif" font-size="14" lengthAdjust="spacing" textLength="27" x="141.75" y="152.6359">App</text><text fill="#000000" font-family="sans-serif" font-size="10" lengthAdjust="spacing" textLength="130" x="90.25" y="167.4279">nz.ac.wgtn.swen225.lc.app</text><line style="stroke:#A80036;stroke-width:1.5;" x1="9.5" x2="268.5" y1="175.3579" y2="175.3579"/><ellipse cx="19.5" cy="186.3579" rx="3" ry="3" style="stroke:#038048;stroke-width:1.0;fill:none;"/><text fill="#000000" font-family="sans-serif" font-size="11" lengthAdjust="spacing" textLength="109" x="28.5" y="191.1168">treasureLabel: JLabel</text><ellipse cx="19.5" cy="201.3398" rx="3" ry="3" style="stroke:#038048;stroke-width:1.0;fill:none;"/><text fill="#000000" font-family="sans-serif" font-size="11" lengthAdjust="spacing" textLength="87" x="28.5" y="206.0987">paused: boolean</text><line style="stroke:#A80036;stroke-width:1.5;" x1="9.5" x2="268.5" y1="213.3217" y2="213.3217"/><ellipse cx="19.5" cy="224.3217" fill="#84BE84" rx="3" ry="3" style="stroke:#038048;stroke-width:1.0;"/><text fill="#000000" font-family="sans-serif" font-size="11" lengthAdjust="spacing" textLength="82" x="28.5" y="229.0806">setup(File): void</text><ellipse cx="19.5" cy="239.3036" fill="#84BE84" rx="3" ry="3" style="stroke:#038048;stroke-width:1.0;"/><text fill="#000000" font-family="sans-serif" font-size="11" lengthAdjust="spacing" textLength="142" x="28.5" y="244.0625">createInventory(int): JPanel</text><ellipse cx="19.5" cy="254.2855" fill="#84BE84" rx="3" ry="3" style="stroke:#038048;stroke-width:1.0;"/><text fill="#000000" font-family="sans-serif" font-size="11" lengthAdjust="spacing" textLength="156" x="28.5" y="259.0444">updateInventory(Item[]): void</text><ellipse cx="19.5" cy="269.2673" fill="#84BE84" rx="3" ry="3" style="stroke:#038048;stroke-width:1.0;"/><text fill="#000000" font-family="sans-serif" font-size="11" lengthAdjust="spacing" textLength="235" x="28.5" y="274.0263">createLabel(String, Font, Color, Color): JLabel</text><ellipse cx="19.5" cy="284.2492" fill="#84BE84" rx="3" ry="3" style="stroke:#038048;stroke-width:1.0;"/><text fill="#000000" font-family="sans-serif" font-size="11" lengthAdjust="spacing" textLength="131" x="28.5" y="289.0081">setPaused(boolean): void</text><ellipse cx="19.5" cy="299.2311" fill="#84BE84" rx="3" ry="3" style="stroke:#038048;stroke-width:1.0;"/><text fill="#000000" font-family="sans-serif" font-size="11" lengthAdjust="spacing" textLength="186" x="28.5" y="303.99">actionPerformed(ActionEvent): void</text><ellipse cx="19.5" cy="314.213" fill="#84BE84" rx="3" ry="3" style="stroke:#038048;stroke-width:1.0;"/><text fill="#000000" font-family="sans-serif" font-size="11" lengthAdjust="spacing" text-decoration="underline" textLength="127" x="28.5" y="318.9719">getRenderer(): Renderer</text><ellipse cx="19.5" cy="329.1949" fill="#84BE84" rx="3" ry="3" style="stroke:#038048;stroke-width:1.0;"/><text fill="#000000" font-family="sans-serif" font-size="11" lengthAdjust="spacing" text-decoration="underline" textLength="93" x="28.5" y="333.9538">getBoard(): Board</text></a><!--MD5=[56a185cb33bdc7c23303e5865f20a19b]
class javax.swing.JPanel--><rect codeLine="18" fill="#FEFECE" filter="url(#fn79rhdnjl26x)" height="42.6879" id="javax.swing.JPanel" style="stroke:#A80036;stroke-width:1.5;" width="88" x="7" y="18.49"/><ellipse cx="22" cy="39.834" fill="#ADD1B2" rx="11" ry="11" style="stroke:#A80036;stroke-width:1.0;"/><path d="M21.4688,46.7558 Q19.7188,46.7558 18.5781,46.0215 Q17.4531,45.2715 16.8906,43.9277 Q16.3438,42.5683 16.3438,40.7715 Q16.3438,38.7402 17,37.2871 Q17.6563,35.834 18.9375,35.0527 Q20.2188,34.2715 22.0938,34.2715 Q22.9844,34.2715 23.6563,34.459 Q24.3281,34.6308 25.0156,34.9746 L24.2031,36.9902 Q23.5781,36.6777 23.0313,36.5527 Q22.5,36.4277 22.0156,36.4277 Q20.8438,36.4277 20.1406,36.959 Q19.4375,37.4902 19.1406,38.4433 Q18.8438,39.3965 18.8438,40.6621 Q18.8438,42.6777 19.5625,43.6465 Q20.2813,44.5996 21.875,44.5996 Q22.4688,44.5996 23.0938,44.4433 Q23.7188,44.2871 24.5469,43.9121 L24.5469,46.1308 Q23.8125,46.4433 23.0156,46.5996 Q22.2344,46.7558 21.4688,46.7558 Z " fill="#000000"/><text fill="#000000" font-family="sans-serif" font-size="14" lengthAdjust="spacing" textLength="41" x="43.5" y="38.4559">JPanel</text><text fill="#000000" font-family="sans-serif" font-size="10" lengthAdjust="spacing" textLength="56" x="36" y="53.2479">javax.swing</text><!--MD5=[6631281fcee7fc541b441b6c950a0fa0]
class java.awt.event.ActionListener--><rect codeLine="19" fill="#FEFECE" filter="url(#fn79rhdnjl26x)" height="65.6698" id="java.awt.event.ActionListener" style="stroke:#A80036;stroke-width:1.5;" width="194" x="130" y="7"/><ellipse cx="178.25" cy="28.344" fill="#B4A7E5" rx="11" ry="11" style="stroke:#A80036;stroke-width:1.0;"/><path d="M174.2813,34.844 L174.2813,33.1408 L176.6406,32.8752 L176.6406,24.6721 L174.2813,24.4065 L174.2813,22.7033 L181.4219,22.7033 L181.4219,24.4065 L179,24.6721 L179,32.8752 L181.4219,33.1408 L181.4219,34.844 L174.2813,34.844 Z " fill="#000000"/><text fill="#000000" font-family="sans-serif" font-size="14" font-style="italic" lengthAdjust="spacing" textLength="89" x="198.75" y="26.9659">ActionListener</text><text fill="#000000" font-family="sans-serif" font-size="10" font-style="italic" lengthAdjust="spacing" textLength="66" x="210.25" y="41.7579">java.awt.event</text><line style="stroke:#A80036;stroke-width:1.5;" x1="131" x2="323" y1="49.6879" y2="49.6879"/><ellipse cx="141" cy="60.6879" fill="#84BE84" rx="3" ry="3" style="stroke:#038048;stroke-width:1.0;"/><text fill="#000000" font-family="sans-serif" font-size="11" font-style="italic" lengthAdjust="spacing" textLength="168" x="150" y="65.4468">actionPerformed(ActionEvent): void</text><!--MD5=[c35d268dc0f32632045be5a42b412a8c]
reverse link javax.swing.JPanel to nz.ac.wgtn.swen225.lc.app.App--><path codeLine="23" d="M68.81,80.31 C75.67,95.53 83.88,113.72 92.22,132.21 " fill="none" id="javax.swing.JPanel-backto-nz.ac.wgtn.swen225.lc.app.App" style="stroke:#A80036;stroke-width:1.0;"/><polygon fill="none" points="62.09,83.46,60.25,62.35,74.86,77.7,62.09,83.46" style="stroke:#A80036;stroke-width:1.0;"/><!--MD5=[9ac2613807cff2d7966d6d4b76bd1b2f]
reverse link java.awt.event.ActionListener to nz.ac.wgtn.swen225.lc.app.App--><path codeLine="24" d="M203.9,92.06 C198.25,104.57 192.01,118.41 185.69,132.42 " fill="none" id="java.awt.event.ActionListener-backto-nz.ac.wgtn.swen225.lc.app.App" style="stroke:#A80036;stroke-width:1.0;stroke-dasharray:7.0,7.0;"/><polygon fill="none" points="197.86,89.41,212.47,74.05,210.63,95.16,197.86,89.41" style="stroke:#A80036;stroke-width:1.0;"/><text fill="#888888" font-family="sans-serif" font-size="10" lengthAdjust="spacing" textLength="182" x="71.5" y="364.8668">UMLDoclet 2.0.14, PlantUML 1.2021.9</text><!--MD5=[71ef12ae6ad3bee34200b3910ca8520c]
@startuml
    set namespaceSeparator none
    hide empty fields
    hide empty methods

    class "<size:14>App\n<size:10>nz.ac.wgtn.swen225.lc.app" as nz.ac.wgtn.swen225.lc.app.App [[App.html]] {
        +treasureLabel: JLabel
        +paused: boolean
        +setup(File): void
        +createInventory(int): JPanel
        +updateInventory(Item[]): void
        +createLabel(String, Font, Color, Color): JLabel
        +setPaused(boolean): void
        +actionPerformed(ActionEvent): void
        {static} +getRenderer(): Renderer
        {static} +getBoard(): Board
    }

    class "<size:14>JPanel\n<size:10>javax.swing" as javax.swing.JPanel
    interface "<size:14>ActionListener\n<size:10>java.awt.event" as java.awt.event.ActionListener {
        {abstract} +actionPerformed(ActionEvent): void
    }

    javax.swing.JPanel <|- - nz.ac.wgtn.swen225.lc.app.App
    java.awt.event.ActionListener <|.. nz.ac.wgtn.swen225.lc.app.App

    center footer UMLDoclet 2.0.14, PlantUML 1.2021.9
@enduml

PlantUML version 1.2021.9(Sun Jul 25 22:13:56 NZST 2021)
(APACHE source distribution)
Java Runtime: OpenJDK Runtime Environment
JVM: OpenJDK 64-Bit Server VM
Default Encoding: UTF-8
Language: en
Country: NZ
--></g></svg>