<?xml version="1.0" encoding="UTF-8" standalone="no"?><svg xmlns="http://www.w3.org/2000/svg" xmlns:xlink="http://www.w3.org/1999/xlink" contentScriptType="application/ecmascript" contentStyleType="text/css" height="184px" preserveAspectRatio="none" style="width:189px;height:184px;background:#FFFFFF;" version="1.1" viewBox="0 0 189 184" width="189px" zoomAndPan="magnify"><defs><filter height="300%" id="fihvlm4nj54na" width="300%" x="-1" y="-1"><feGaussianBlur result="blurOut" stdDeviation="2.0"/><feColorMatrix in="blurOut" result="blurOut2" type="matrix" values="0 0 0 0 0 0 0 0 0 0 0 0 0 0 0 0 0 0 .4 0"/><feOffset dx="4.0" dy="4.0" in="blurOut2" result="blurOut3"/><feBlend in="SourceGraphic" in2="blurOut3" mode="normal"/></filter></defs><g><!--MD5=[331d9ed393c04a193b97f083c6e07884]
class nz.ac.wgtn.swen225.lc.app.KeyBindingsPanel--><a href="KeyBindingsPanel.html" target="_top" title="KeyBindingsPanel.html" xlink:actuate="onRequest" xlink:href="KeyBindingsPanel.html" xlink:show="new" xlink:title="KeyBindingsPanel.html" xlink:type="simple"><rect codeLine="5" fill="#FEFECE" filter="url(#fihvlm4nj54na)" height="42.6879" id="nz.ac.wgtn.swen225.lc.app.KeyBindingsPanel" style="stroke:#A80036;stroke-width:1.5;" width="162" x="13" y="109.69"/><ellipse cx="28" cy="131.034" fill="#ADD1B2" rx="11" ry="11" style="stroke:#A80036;stroke-width:1.0;"/><path d="M27.4688,137.9558 Q25.7188,137.9558 24.5781,137.2215 Q23.4531,136.4715 22.8906,135.1277 Q22.3438,133.7683 22.3438,131.9715 Q22.3438,129.9402 23,128.4871 Q23.6563,127.034 24.9375,126.2527 Q26.2188,125.4715 28.0938,125.4715 Q28.9844,125.4715 29.6563,125.659 Q30.3281,125.8308 31.0156,126.1746 L30.2031,128.1902 Q29.5781,127.8777 29.0313,127.7527 Q28.5,127.6277 28.0156,127.6277 Q26.8438,127.6277 26.1406,128.159 Q25.4375,128.6902 25.1406,129.6433 Q24.8438,130.5965 24.8438,131.8621 Q24.8438,133.8777 25.5625,134.8465 Q26.2813,135.7996 27.875,135.7996 Q28.4688,135.7996 29.0938,135.6433 Q29.7188,135.4871 30.5469,135.1121 L30.5469,137.3308 Q29.8125,137.6433 29.0156,137.7996 Q28.2344,137.9558 27.4688,137.9558 Z " fill="#000000"/><text fill="#000000" font-family="sans-serif" font-size="14" lengthAdjust="spacing" textLength="121" x="46.5" y="129.6559">KeyBindingsPanel</text><text fill="#000000" font-family="sans-serif" font-size="10" lengthAdjust="spacing" textLength="130" x="42" y="144.4479">nz.ac.wgtn.swen225.lc.app</text></a><!--MD5=[56a185cb33bdc7c23303e5865f20a19b]
class javax.swing.JPanel--><rect codeLine="8" fill="#FEFECE" filter="url(#fihvlm4nj54na)" height="42.6879" id="javax.swing.JPanel" style="stroke:#A80036;stroke-width:1.5;" width="88" x="50" y="7"/><ellipse cx="65" cy="28.344" fill="#ADD1B2" rx="11" ry="11" style="stroke:#A80036;stroke-width:1.0;"/><path d="M64.4688,35.2658 Q62.7188,35.2658 61.5781,34.5315 Q60.4531,33.7815 59.8906,32.4377 Q59.3438,31.0783 59.3438,29.2815 Q59.3438,27.2502 60,25.7971 Q60.6563,24.344 61.9375,23.5627 Q63.2188,22.7815 65.0938,22.7815 Q65.9844,22.7815 66.6563,22.969 Q67.3281,23.1408 68.0156,23.4846 L67.2031,25.5002 Q66.5781,25.1877 66.0313,25.0627 Q65.5,24.9377 65.0156,24.9377 Q63.8438,24.9377 63.1406,25.469 Q62.4375,26.0002 62.1406,26.9533 Q61.8438,27.9065 61.8438,29.1721 Q61.8438,31.1877 62.5625,32.1565 Q63.2813,33.1096 64.875,33.1096 Q65.4688,33.1096 66.0938,32.9533 Q66.7188,32.7971 67.5469,32.4221 L67.5469,34.6408 Q66.8125,34.9533 66.0156,35.1096 Q65.2344,35.2658 64.4688,35.2658 Z " fill="#000000"/><text fill="#000000" font-family="sans-serif" font-size="14" lengthAdjust="spacing" textLength="41" x="86.5" y="26.9659">JPanel</text><text fill="#000000" font-family="sans-serif" font-size="10" lengthAdjust="spacing" textLength="56" x="79" y="41.7579">javax.swing</text><!--MD5=[db2ffdcbcd9e00df0ae157c4af52b27e]
reverse link javax.swing.JPanel to nz.ac.wgtn.swen225.lc.app.KeyBindingsPanel--><path codeLine="10" d="M94,70.64 C94,83.97 94,98.17 94,109.35 " fill="none" id="javax.swing.JPanel-backto-nz.ac.wgtn.swen225.lc.app.KeyBindingsPanel" style="stroke:#A80036;stroke-width:1.0;"/><polygon fill="none" points="87,70.72,94,50.72,101,70.72,87,70.72" style="stroke:#A80036;stroke-width:1.0;"/><text fill="#888888" font-family="sans-serif" font-size="10" lengthAdjust="spacing" textLength="182" x="0" y="176.0679">UMLDoclet 2.0.14, PlantUML 1.2021.9</text><!--MD5=[115ebfd83c8e3be5c1b555df93516778]
@startuml
    set namespaceSeparator none
    hide empty fields
    hide empty methods

    class "<size:14>KeyBindingsPanel\n<size:10>nz.ac.wgtn.swen225.lc.app" as nz.ac.wgtn.swen225.lc.app.KeyBindingsPanel [[KeyBindingsPanel.html]] {
    }

    class "<size:14>JPanel\n<size:10>javax.swing" as javax.swing.JPanel

    javax.swing.JPanel <|- - nz.ac.wgtn.swen225.lc.app.KeyBindingsPanel

    center footer UMLDoclet 2.0.14, PlantUML 1.2021.9
@enduml

PlantUML version 1.2021.9(Sun Jul 25 22:13:56 NZST 2021)
(APACHE source distribution)
Java Runtime: OpenJDK Runtime Environment
JVM: OpenJDK 64-Bit Server VM
Default Encoding: UTF-8
Language: en
Country: NZ
--></g></svg>