<?xml version="1.0" encoding="UTF-8" standalone="no"?><svg xmlns="http://www.w3.org/2000/svg" xmlns:xlink="http://www.w3.org/1999/xlink" contentScriptType="application/ecmascript" contentStyleType="text/css" height="237px" preserveAspectRatio="none" style="width:189px;height:237px;background:#FFFFFF;" version="1.1" viewBox="0 0 189 237" width="189px" zoomAndPan="magnify"><defs><filter height="300%" id="fkte0l74vjkor" width="300%" x="-1" y="-1"><feGaussianBlur result="blurOut" stdDeviation="2.0"/><feColorMatrix in="blurOut" result="blurOut2" type="matrix" values="0 0 0 0 0 0 0 0 0 0 0 0 0 0 0 0 0 0 .4 0"/><feOffset dx="4.0" dy="4.0" in="blurOut2" result="blurOut3"/><feBlend in="SourceGraphic" in2="blurOut3" mode="normal"/></filter></defs><g><!--MD5=[b6f1f9181290e61c6ac9ea2ceb6f9ec3]
class nz.ac.wgtn.swen225.lc.app.Move--><a href="Move.html" target="_top" title="Move.html" xlink:actuate="onRequest" xlink:href="Move.html" xlink:show="new" xlink:title="Move.html" xlink:type="simple"><rect codeLine="5" fill="#FEFECE" filter="url(#fkte0l74vjkor)" height="95.6336" id="nz.ac.wgtn.swen225.lc.app.Move" style="stroke:#A80036;stroke-width:1.5;" width="162" x="13" y="109.69"/><ellipse cx="28" cy="131.034" fill="#ADD1B2" rx="11" ry="11" style="stroke:#A80036;stroke-width:1.0;"/><path d="M27.4688,137.9558 Q25.7188,137.9558 24.5781,137.2215 Q23.4531,136.4715 22.8906,135.1277 Q22.3438,133.7683 22.3438,131.9715 Q22.3438,129.9402 23,128.4871 Q23.6563,127.034 24.9375,126.2527 Q26.2188,125.4715 28.0938,125.4715 Q28.9844,125.4715 29.6563,125.659 Q30.3281,125.8308 31.0156,126.1746 L30.2031,128.1902 Q29.5781,127.8777 29.0313,127.7527 Q28.5,127.6277 28.0156,127.6277 Q26.8438,127.6277 26.1406,128.159 Q25.4375,128.6902 25.1406,129.6433 Q24.8438,130.5965 24.8438,131.8621 Q24.8438,133.8777 25.5625,134.8465 Q26.2813,135.7996 27.875,135.7996 Q28.4688,135.7996 29.0938,135.6433 Q29.7188,135.4871 30.5469,135.1121 L30.5469,137.3308 Q29.8125,137.6433 29.0156,137.7996 Q28.2344,137.9558 27.4688,137.9558 Z " fill="#000000"/><text fill="#000000" font-family="sans-serif" font-size="14" lengthAdjust="spacing" textLength="36" x="89" y="129.6559">Move</text><text fill="#000000" font-family="sans-serif" font-size="10" lengthAdjust="spacing" textLength="130" x="42" y="144.4479">nz.ac.wgtn.swen225.lc.app</text><line style="stroke:#A80036;stroke-width:1.5;" x1="14" x2="174" y1="152.3779" y2="152.3779"/><ellipse cx="24" cy="163.3779" fill="#84BE84" rx="3" ry="3" style="stroke:#038048;stroke-width:1.0;"/><text fill="#000000" font-family="sans-serif" font-size="11" lengthAdjust="spacing" textLength="110" x="33" y="168.1368">Move(String, double)</text><ellipse cx="24" cy="178.3598" fill="#84BE84" rx="3" ry="3" style="stroke:#038048;stroke-width:1.0;"/><text fill="#000000" font-family="sans-serif" font-size="11" lengthAdjust="spacing" textLength="73" x="33" y="183.1187">move(): String</text><ellipse cx="24" cy="193.3417" fill="#84BE84" rx="3" ry="3" style="stroke:#038048;stroke-width:1.0;"/><text fill="#000000" font-family="sans-serif" font-size="11" lengthAdjust="spacing" textLength="72" x="33" y="198.1006">time(): double</text></a><!--MD5=[aeced6b90a5f9cea7e9b0d4e8b5a9b7c]
class java.lang.Record--><rect codeLine="11" fill="#FEFECE" filter="url(#fkte0l74vjkor)" height="42.6879" id="java.lang.Record" style="stroke:#A80036;stroke-width:1.5;" width="76" x="56" y="7"/><ellipse cx="71" cy="28.344" fill="#A9DCDF" rx="11" ry="11" style="stroke:#A80036;stroke-width:1.0;"/><path d="M66.1719,34.094 L69.5156,21.9065 L72.6563,21.9065 L76.0313,34.094 L73.5625,34.094 L72.8281,31.0783 L69.3125,31.0783 L68.5625,34.094 L66.1719,34.094 Z M70.5781,26.0471 L69.8281,29.0471 L72.3438,29.0471 L71.625,26.0471 Q71.4844,25.469 71.3594,24.9221 Q71.2344,24.3596 71.0938,23.7815 Q70.9844,24.3596 70.8438,24.9221 Q70.7031,25.469 70.5781,26.0471 Z " fill="#000000"/><text fill="#000000" font-family="sans-serif" font-size="14" font-style="italic" lengthAdjust="spacing" textLength="43" x="85.5" y="26.9659">Record</text><text fill="#000000" font-family="sans-serif" font-size="10" font-style="italic" lengthAdjust="spacing" textLength="44" x="85" y="41.7579">java.lang</text><!--MD5=[fee308393f04e1703a161fad968d8518]
reverse link java.lang.Record to nz.ac.wgtn.swen225.lc.app.Move--><path codeLine="13" d="M94,70.96 C94,83.25 94,96.79 94,109.39 " fill="none" id="java.lang.Record-backto-nz.ac.wgtn.swen225.lc.app.Move" style="stroke:#A80036;stroke-width:1.0;"/><polygon fill="none" points="87,71.06,94,51.06,101,71.06,87,71.06" style="stroke:#A80036;stroke-width:1.0;"/><text fill="#888888" font-family="sans-serif" font-size="10" lengthAdjust="spacing" textLength="182" x="0" y="229.0136">UMLDoclet 2.0.14, PlantUML 1.2021.9</text><!--MD5=[16e934e7227e11fb446738724396951e]
@startuml
    set namespaceSeparator none
    hide empty fields
    hide empty methods

    class "<size:14>Move\n<size:10>nz.ac.wgtn.swen225.lc.app" as nz.ac.wgtn.swen225.lc.app.Move [[Move.html]] {
        +Move(String, double)
        +move(): String
        +time(): double
    }

    abstract class "<size:14>Record\n<size:10>java.lang" as java.lang.Record

    java.lang.Record <|- - nz.ac.wgtn.swen225.lc.app.Move

    center footer UMLDoclet 2.0.14, PlantUML 1.2021.9
@enduml

PlantUML version 1.2021.9(Sun Jul 25 22:13:56 NZST 2021)
(APACHE source distribution)
Java Runtime: OpenJDK Runtime Environment
JVM: OpenJDK 64-Bit Server VM
Default Encoding: UTF-8
Language: en
Country: NZ
--></g></svg>