<?xml version="1.0" encoding="UTF-8" standalone="no"?><svg xmlns="http://www.w3.org/2000/svg" xmlns:xlink="http://www.w3.org/1999/xlink" contentScriptType="application/ecmascript" contentStyleType="text/css" height="743px" preserveAspectRatio="none" style="width:1150px;height:743px;background:#FFFFFF;" version="1.1" viewBox="0 0 1150 743" width="1150px" zoomAndPan="magnify"><defs><filter height="300%" id="fe178u6ef5nc6" width="300%" x="-1" y="-1"><feGaussianBlur result="blurOut" stdDeviation="2.0"/><feColorMatrix in="blurOut" result="blurOut2" type="matrix" values="0 0 0 0 0 0 0 0 0 0 0 0 0 0 0 0 0 0 .4 0"/><feOffset dx="4.0" dy="4.0" in="blurOut2" result="blurOut3"/><feBlend in="SourceGraphic" in2="blurOut3" mode="normal"/></filter></defs><g><!--MD5=[248738fc5a140cde2865c68e3316b0c0]
cluster nz.ac.wgtn.swen225.lc.app--><polygon fill="#FFFFFF" filter="url(#fe178u6ef5nc6)" points="16,186.542,206,186.542,213,211.6099,709,211.6099,709,718.202,16,718.202,16,186.542" style="stroke:#000000;stroke-width:1.5;"/><line style="stroke:#000000;stroke-width:1.5;" x1="16" x2="213" y1="211.6099" y2="211.6099"/><text fill="#000000" font-family="sans-serif" font-size="14" font-weight="bold" lengthAdjust="spacing" textLength="184" x="20" y="203.5079">nz.ac.wgtn.swen225.lc.app</text><!--MD5=[535aab4de90d4dfa371a9b40d5438fc3]
cluster javax.swing--><polygon fill="#FFFFFF" filter="url(#fe178u6ef5nc6)" points="431,6.602,518,6.602,525,31.6699,782,31.6699,782,153.542,431,153.542,431,6.602" style="stroke:#000000;stroke-width:1.5;"/><line style="stroke:#000000;stroke-width:1.5;" x1="431" x2="525" y1="31.6699" y2="31.6699"/><text fill="#000000" font-family="sans-serif" font-size="14" font-weight="bold" lengthAdjust="spacing" textLength="81" x="435" y="23.5679">javax.swing</text><!--MD5=[d63c23c2d4b14118d71bd46d55a646bd]
cluster java.awt.event--><polygon fill="#FFFFFF" filter="url(#fe178u6ef5nc6)" points="783,246.472,890,246.472,897,271.5399,1009,271.5399,1009,363.452,783,363.452,783,246.472" style="stroke:#000000;stroke-width:1.5;"/><line style="stroke:#000000;stroke-width:1.5;" x1="783" x2="897" y1="271.5399" y2="271.5399"/><text fill="#000000" font-family="sans-serif" font-size="14" font-weight="bold" lengthAdjust="spacing" textLength="101" x="787" y="263.4379">java.awt.event</text><!--MD5=[aa8f7b917213fcc1c2766e2d59b49067]
cluster java.lang--><polygon fill="#FFFFFF" filter="url(#fe178u6ef5nc6)" points="1033,253.962,1101,253.962,1108,279.0299,1133,279.0299,1133,355.962,1033,355.962,1033,253.962" style="stroke:#000000;stroke-width:1.5;"/><line style="stroke:#000000;stroke-width:1.5;" x1="1033" x2="1108" y1="279.0299" y2="279.0299"/><text fill="#000000" font-family="sans-serif" font-size="14" font-weight="bold" lengthAdjust="spacing" textLength="62" x="1037" y="270.9279">java.lang</text><!--MD5=[9fc35523cf5606b74c28fbd8f122de5d]
class nz.ac.wgtn.swen225.lc.app.App--><a href="App.html" target="_top" title="App.html" xlink:actuate="onRequest" xlink:href="App.html" xlink:show="new" xlink:title="App.html" xlink:type="simple"><rect codeLine="3" fill="#FEFECE" filter="url(#fe178u6ef5nc6)" height="197.8189" id="nz.ac.wgtn.swen225.lc.app.App" style="stroke:#A80036;stroke-width:1.5;" width="261" x="212.5" y="504.382"/><ellipse cx="327.75" cy="520.382" fill="#ADD1B2" rx="11" ry="11" style="stroke:#A80036;stroke-width:1.0;"/><path d="M327.2188,527.3039 Q325.4688,527.3039 324.3281,526.5695 Q323.2031,525.8195 322.6406,524.4757 Q322.0938,523.1164 322.0938,521.3195 Q322.0938,519.2882 322.75,517.8351 Q323.4063,516.382 324.6875,515.6007 Q325.9688,514.8195 327.8438,514.8195 Q328.7344,514.8195 329.4063,515.007 Q330.0781,515.1789 330.7656,515.5226 L329.9531,517.5382 Q329.3281,517.2257 328.7813,517.1007 Q328.25,516.9757 327.7656,516.9757 Q326.5938,516.9757 325.8906,517.507 Q325.1875,518.0382 324.8906,518.9914 Q324.5938,519.9445 324.5938,521.2101 Q324.5938,523.2257 325.3125,524.1945 Q326.0313,525.1476 327.625,525.1476 Q328.2188,525.1476 328.8438,524.9914 Q329.4688,524.8351 330.2969,524.4601 L330.2969,526.6789 Q329.5625,526.9914 328.7656,527.1476 Q327.9844,527.3039 327.2188,527.3039 Z " fill="#000000"/><text fill="#000000" font-family="sans-serif" font-size="12" lengthAdjust="spacing" textLength="22" x="348.25" y="525.038">App</text><line style="stroke:#A80036;stroke-width:1.5;" x1="213.5" x2="472.5" y1="536.382" y2="536.382"/><ellipse cx="223.5" cy="547.382" rx="3" ry="3" style="stroke:#038048;stroke-width:1.0;fill:none;"/><text fill="#000000" font-family="sans-serif" font-size="11" lengthAdjust="spacing" textLength="109" x="232.5" y="552.1409">treasureLabel: JLabel</text><ellipse cx="223.5" cy="562.3639" rx="3" ry="3" style="stroke:#038048;stroke-width:1.0;fill:none;"/><text fill="#000000" font-family="sans-serif" font-size="11" lengthAdjust="spacing" textLength="87" x="232.5" y="567.1228">paused: boolean</text><line style="stroke:#A80036;stroke-width:1.5;" x1="213.5" x2="472.5" y1="574.3458" y2="574.3458"/><ellipse cx="223.5" cy="585.3458" fill="#84BE84" rx="3" ry="3" style="stroke:#038048;stroke-width:1.0;"/><text fill="#000000" font-family="sans-serif" font-size="11" lengthAdjust="spacing" textLength="82" x="232.5" y="590.1047">setup(File): void</text><ellipse cx="223.5" cy="600.3276" fill="#84BE84" rx="3" ry="3" style="stroke:#038048;stroke-width:1.0;"/><text fill="#000000" font-family="sans-serif" font-size="11" lengthAdjust="spacing" textLength="142" x="232.5" y="605.0866">createInventory(int): JPanel</text><ellipse cx="223.5" cy="615.3095" fill="#84BE84" rx="3" ry="3" style="stroke:#038048;stroke-width:1.0;"/><text fill="#000000" font-family="sans-serif" font-size="11" lengthAdjust="spacing" textLength="156" x="232.5" y="620.0684">updateInventory(Item[]): void</text><ellipse cx="223.5" cy="630.2914" fill="#84BE84" rx="3" ry="3" style="stroke:#038048;stroke-width:1.0;"/><text fill="#000000" font-family="sans-serif" font-size="11" lengthAdjust="spacing" textLength="235" x="232.5" y="635.0503">createLabel(String, Font, Color, Color): JLabel</text><ellipse cx="223.5" cy="645.2733" fill="#84BE84" rx="3" ry="3" style="stroke:#038048;stroke-width:1.0;"/><text fill="#000000" font-family="sans-serif" font-size="11" lengthAdjust="spacing" textLength="131" x="232.5" y="650.0322">setPaused(boolean): void</text><ellipse cx="223.5" cy="660.2552" fill="#84BE84" rx="3" ry="3" style="stroke:#038048;stroke-width:1.0;"/><text fill="#000000" font-family="sans-serif" font-size="11" lengthAdjust="spacing" textLength="186" x="232.5" y="665.0141">actionPerformed(ActionEvent): void</text><ellipse cx="223.5" cy="675.2371" fill="#84BE84" rx="3" ry="3" style="stroke:#038048;stroke-width:1.0;"/><text fill="#000000" font-family="sans-serif" font-size="11" lengthAdjust="spacing" text-decoration="underline" textLength="127" x="232.5" y="679.996">getRenderer(): Renderer</text><ellipse cx="223.5" cy="690.219" fill="#84BE84" rx="3" ry="3" style="stroke:#038048;stroke-width:1.0;"/><text fill="#000000" font-family="sans-serif" font-size="11" lengthAdjust="spacing" text-decoration="underline" textLength="93" x="232.5" y="694.9779">getBoard(): Board</text></a><!--MD5=[4f4638f4b3d6e0d30020f57568a13590]
class nz.ac.wgtn.swen225.lc.app.HelpDialog--><a href="HelpDialog.html" target="_top" title="HelpDialog.html" xlink:actuate="onRequest" xlink:href="HelpDialog.html" xlink:show="new" xlink:title="HelpDialog.html" xlink:type="simple"><rect codeLine="16" fill="#FEFECE" filter="url(#fe178u6ef5nc6)" height="62.9819" id="nz.ac.wgtn.swen225.lc.app.HelpDialog" style="stroke:#A80036;stroke-width:1.5;" width="126" x="567" y="284.472"/><ellipse cx="596.4" cy="300.472" fill="#ADD1B2" rx="11" ry="11" style="stroke:#A80036;stroke-width:1.0;"/><path d="M595.8688,307.3939 Q594.1188,307.3939 592.9781,306.6595 Q591.8531,305.9095 591.2906,304.5657 Q590.7438,303.2064 590.7438,301.4095 Q590.7438,299.3782 591.4,297.9251 Q592.0563,296.472 593.3375,295.6907 Q594.6188,294.9095 596.4938,294.9095 Q597.3844,294.9095 598.0563,295.097 Q598.7281,295.2689 599.4156,295.6126 L598.6031,297.6282 Q597.9781,297.3157 597.4313,297.1907 Q596.9,297.0657 596.4156,297.0657 Q595.2438,297.0657 594.5406,297.597 Q593.8375,298.1282 593.5406,299.0814 Q593.2438,300.0345 593.2438,301.3001 Q593.2438,303.3157 593.9625,304.2845 Q594.6813,305.2376 596.275,305.2376 Q596.8688,305.2376 597.4938,305.0814 Q598.1188,304.9251 598.9469,304.5501 L598.9469,306.7689 Q598.2125,307.0814 597.4156,307.2376 Q596.6344,307.3939 595.8688,307.3939 Z " fill="#000000"/><text fill="#000000" font-family="sans-serif" font-size="12" lengthAdjust="spacing" textLength="62" x="613.6" y="305.128">HelpDialog</text><line style="stroke:#A80036;stroke-width:1.5;" x1="568" x2="692" y1="316.472" y2="316.472"/><line style="stroke:#A80036;stroke-width:1.5;" x1="568" x2="692" y1="324.472" y2="324.472"/><ellipse cx="578" cy="335.472" fill="#84BE84" rx="3" ry="3" style="stroke:#038048;stroke-width:1.0;"/><text fill="#000000" font-family="sans-serif" font-size="11" lengthAdjust="spacing" textLength="100" x="587" y="340.2309">HelpDialog(JFrame)</text></a><!--MD5=[331d9ed393c04a193b97f083c6e07884]
class nz.ac.wgtn.swen225.lc.app.KeyBindingsPanel--><a href="KeyBindingsPanel.html" target="_top" title="KeyBindingsPanel.html" xlink:actuate="onRequest" xlink:href="KeyBindingsPanel.html" xlink:show="new" xlink:title="KeyBindingsPanel.html" xlink:type="simple"><rect codeLine="20" fill="#FEFECE" filter="url(#fe178u6ef5nc6)" height="48" id="nz.ac.wgtn.swen225.lc.app.KeyBindingsPanel" style="stroke:#A80036;stroke-width:1.5;" width="131" x="262.5" y="291.962"/><ellipse cx="277.5" cy="307.962" fill="#ADD1B2" rx="11" ry="11" style="stroke:#A80036;stroke-width:1.0;"/><path d="M276.9688,314.8839 Q275.2188,314.8839 274.0781,314.1495 Q272.9531,313.3995 272.3906,312.0557 Q271.8438,310.6964 271.8438,308.8995 Q271.8438,306.8682 272.5,305.4151 Q273.1563,303.962 274.4375,303.1807 Q275.7188,302.3995 277.5938,302.3995 Q278.4844,302.3995 279.1563,302.587 Q279.8281,302.7589 280.5156,303.1026 L279.7031,305.1182 Q279.0781,304.8057 278.5313,304.6807 Q278,304.5557 277.5156,304.5557 Q276.3438,304.5557 275.6406,305.087 Q274.9375,305.6182 274.6406,306.5714 Q274.3438,307.5245 274.3438,308.7901 Q274.3438,310.8057 275.0625,311.7745 Q275.7813,312.7276 277.375,312.7276 Q277.9688,312.7276 278.5938,312.5714 Q279.2188,312.4151 280.0469,312.0401 L280.0469,314.2589 Q279.3125,314.5714 278.5156,314.7276 Q277.7344,314.8839 276.9688,314.8839 Z " fill="#000000"/><text fill="#000000" font-family="sans-serif" font-size="12" lengthAdjust="spacing" textLength="99" x="291.5" y="312.618">KeyBindingsPanel</text><line style="stroke:#A80036;stroke-width:1.5;" x1="263.5" x2="392.5" y1="323.962" y2="323.962"/><line style="stroke:#A80036;stroke-width:1.5;" x1="263.5" x2="392.5" y1="331.962" y2="331.962"/></a><!--MD5=[b6f1f9181290e61c6ac9ea2ceb6f9ec3]
class nz.ac.wgtn.swen225.lc.app.Move--><a href="Move.html" target="_top" title="Move.html" xlink:actuate="onRequest" xlink:href="Move.html" xlink:show="new" xlink:title="Move.html" xlink:type="simple"><rect codeLine="23" fill="#FEFECE" filter="url(#fe178u6ef5nc6)" height="92.9457" id="nz.ac.wgtn.swen225.lc.app.Move" style="stroke:#A80036;stroke-width:1.5;" width="136" x="533" y="557.292"/><ellipse cx="581.25" cy="573.292" fill="#ADD1B2" rx="11" ry="11" style="stroke:#A80036;stroke-width:1.0;"/><path d="M580.7188,580.2139 Q578.9688,580.2139 577.8281,579.4795 Q576.7031,578.7295 576.1406,577.3857 Q575.5938,576.0264 575.5938,574.2295 Q575.5938,572.1982 576.25,570.7451 Q576.9063,569.292 578.1875,568.5107 Q579.4688,567.7295 581.3438,567.7295 Q582.2344,567.7295 582.9063,567.917 Q583.5781,568.0889 584.2656,568.4326 L583.4531,570.4482 Q582.8281,570.1357 582.2813,570.0107 Q581.75,569.8857 581.2656,569.8857 Q580.0938,569.8857 579.3906,570.417 Q578.6875,570.9482 578.3906,571.9014 Q578.0938,572.8545 578.0938,574.1201 Q578.0938,576.1357 578.8125,577.1045 Q579.5313,578.0576 581.125,578.0576 Q581.7188,578.0576 582.3438,577.9014 Q582.9688,577.7451 583.7969,577.3701 L583.7969,579.5889 Q583.0625,579.9014 582.2656,580.0576 Q581.4844,580.2139 580.7188,580.2139 Z " fill="#000000"/><text fill="#000000" font-family="sans-serif" font-size="12" lengthAdjust="spacing" textLength="31" x="601.75" y="577.948">Move</text><line style="stroke:#A80036;stroke-width:1.5;" x1="534" x2="668" y1="589.292" y2="589.292"/><line style="stroke:#A80036;stroke-width:1.5;" x1="534" x2="668" y1="597.292" y2="597.292"/><ellipse cx="544" cy="608.292" fill="#84BE84" rx="3" ry="3" style="stroke:#038048;stroke-width:1.0;"/><text fill="#000000" font-family="sans-serif" font-size="11" lengthAdjust="spacing" textLength="110" x="553" y="613.0509">Move(String, double)</text><ellipse cx="544" cy="623.2739" fill="#84BE84" rx="3" ry="3" style="stroke:#038048;stroke-width:1.0;"/><text fill="#000000" font-family="sans-serif" font-size="11" lengthAdjust="spacing" textLength="73" x="553" y="628.0328">move(): String</text><ellipse cx="544" cy="638.2558" fill="#84BE84" rx="3" ry="3" style="stroke:#038048;stroke-width:1.0;"/><text fill="#000000" font-family="sans-serif" font-size="11" lengthAdjust="spacing" textLength="72" x="553" y="643.0147">time(): double</text></a><!--MD5=[b0d3cf715baee45c652ddaee02483b9c]
class nz.ac.wgtn.swen225.lc.app.PausedPanel--><a href="PausedPanel.html" target="_top" title="PausedPanel.html" xlink:actuate="onRequest" xlink:href="PausedPanel.html" xlink:show="new" xlink:title="PausedPanel.html" xlink:type="simple"><rect codeLine="29" fill="#FEFECE" filter="url(#fe178u6ef5nc6)" height="48" id="nz.ac.wgtn.swen225.lc.app.PausedPanel" style="stroke:#A80036;stroke-width:1.5;" width="104" x="428" y="291.962"/><ellipse cx="443" cy="307.962" fill="#ADD1B2" rx="11" ry="11" style="stroke:#A80036;stroke-width:1.0;"/><path d="M442.4688,314.8839 Q440.7188,314.8839 439.5781,314.1495 Q438.4531,313.3995 437.8906,312.0557 Q437.3438,310.6964 437.3438,308.8995 Q437.3438,306.8682 438,305.4151 Q438.6563,303.962 439.9375,303.1807 Q441.2188,302.3995 443.0938,302.3995 Q443.9844,302.3995 444.6563,302.587 Q445.3281,302.7589 446.0156,303.1026 L445.2031,305.1182 Q444.5781,304.8057 444.0313,304.6807 Q443.5,304.5557 443.0156,304.5557 Q441.8438,304.5557 441.1406,305.087 Q440.4375,305.6182 440.1406,306.5714 Q439.8438,307.5245 439.8438,308.7901 Q439.8438,310.8057 440.5625,311.7745 Q441.2813,312.7276 442.875,312.7276 Q443.4688,312.7276 444.0938,312.5714 Q444.7188,312.4151 445.5469,312.0401 L445.5469,314.2589 Q444.8125,314.5714 444.0156,314.7276 Q443.2344,314.8839 442.4688,314.8839 Z " fill="#000000"/><text fill="#000000" font-family="sans-serif" font-size="12" lengthAdjust="spacing" textLength="72" x="457" y="312.618">PausedPanel</text><line style="stroke:#A80036;stroke-width:1.5;" x1="429" x2="531" y1="323.962" y2="323.962"/><line style="stroke:#A80036;stroke-width:1.5;" x1="429" x2="531" y1="331.962" y2="331.962"/></a><!--MD5=[5585b2ebbed2e466772d341602320f92]
class nz.ac.wgtn.swen225.lc.app.RecorderPanel--><a href="RecorderPanel.html" target="_top" title="RecorderPanel.html" xlink:actuate="onRequest" xlink:href="RecorderPanel.html" xlink:show="new" xlink:title="RecorderPanel.html" xlink:type="simple"><rect codeLine="31" fill="#FEFECE" filter="url(#fe178u6ef5nc6)" height="182.837" id="nz.ac.wgtn.swen225.lc.app.RecorderPanel" style="stroke:#A80036;stroke-width:1.5;" width="196" x="32" y="224.542"/><ellipse cx="84.75" cy="240.542" fill="#ADD1B2" rx="11" ry="11" style="stroke:#A80036;stroke-width:1.0;"/><path d="M84.2188,247.4639 Q82.4688,247.4639 81.3281,246.7295 Q80.2031,245.9795 79.6406,244.6357 Q79.0938,243.2764 79.0938,241.4795 Q79.0938,239.4482 79.75,237.9951 Q80.4063,236.542 81.6875,235.7607 Q82.9688,234.9795 84.8438,234.9795 Q85.7344,234.9795 86.4063,235.167 Q87.0781,235.3389 87.7656,235.6826 L86.9531,237.6982 Q86.3281,237.3857 85.7813,237.2607 Q85.25,237.1357 84.7656,237.1357 Q83.5938,237.1357 82.8906,237.667 Q82.1875,238.1982 81.8906,239.1514 Q81.5938,240.1045 81.5938,241.3701 Q81.5938,243.3857 82.3125,244.3545 Q83.0313,245.3076 84.625,245.3076 Q85.2188,245.3076 85.8438,245.1514 Q86.4688,244.9951 87.2969,244.6201 L87.2969,246.8389 Q86.5625,247.1514 85.7656,247.3076 Q84.9844,247.4639 84.2188,247.4639 Z " fill="#000000"/><text fill="#000000" font-family="sans-serif" font-size="12" lengthAdjust="spacing" textLength="82" x="105.25" y="245.198">RecorderPanel</text><line style="stroke:#A80036;stroke-width:1.5;" x1="33" x2="227" y1="256.542" y2="256.542"/><ellipse cx="43" cy="267.542" rx="3" ry="3" style="stroke:#038048;stroke-width:1.0;fill:none;"/><text fill="#000000" font-family="sans-serif" font-size="11" lengthAdjust="spacing" text-decoration="underline" textLength="101" x="52" y="272.3009">recording: boolean</text><ellipse cx="43" cy="282.5239" rx="3" ry="3" style="stroke:#038048;stroke-width:1.0;fill:none;"/><text fill="#000000" font-family="sans-serif" font-size="11" lengthAdjust="spacing" text-decoration="underline" textLength="43" x="52" y="287.2828">time: int</text><ellipse cx="43" cy="297.5058" rx="3" ry="3" style="stroke:#038048;stroke-width:1.0;fill:none;"/><text fill="#000000" font-family="sans-serif" font-size="11" lengthAdjust="spacing" text-decoration="underline" textLength="50" x="52" y="302.2647">count: int</text><line style="stroke:#A80036;stroke-width:1.5;" x1="33" x2="227" y1="309.4876" y2="309.4876"/><ellipse cx="43" cy="320.4876" fill="#84BE84" rx="3" ry="3" style="stroke:#038048;stroke-width:1.0;"/><text fill="#000000" font-family="sans-serif" font-size="11" lengthAdjust="spacing" textLength="104" x="52" y="325.2466">RecorderPanel(App)</text><ellipse cx="43" cy="335.4695" fill="#84BE84" rx="3" ry="3" style="stroke:#038048;stroke-width:1.0;"/><text fill="#000000" font-family="sans-serif" font-size="11" lengthAdjust="spacing" textLength="113" x="52" y="340.2284">startRecording(): void</text><ellipse cx="43" cy="350.4514" fill="#84BE84" rx="3" ry="3" style="stroke:#038048;stroke-width:1.0;"/><text fill="#000000" font-family="sans-serif" font-size="11" lengthAdjust="spacing" textLength="112" x="52" y="355.2103">stopRecording(): void</text><ellipse cx="43" cy="365.4333" fill="#84BE84" rx="3" ry="3" style="stroke:#038048;stroke-width:1.0;"/><text fill="#000000" font-family="sans-serif" font-size="11" lengthAdjust="spacing" textLength="117" x="52" y="370.1922">saveEndingInfo(): void</text><polygon fill="#FFFF44" points="43,375.4152,47,379.4152,43,383.4152,39,379.4152" style="stroke:#B38D22;stroke-width:1.0;"/><text fill="#000000" font-family="sans-serif" font-size="11" lengthAdjust="spacing" textLength="170" x="52" y="385.1741">paintComponent(Graphics): void</text><ellipse cx="43" cy="395.3971" fill="#84BE84" rx="3" ry="3" style="stroke:#038048;stroke-width:1.0;"/><text fill="#000000" font-family="sans-serif" font-size="11" lengthAdjust="spacing" textLength="93" x="52" y="400.156">getFileCount(): int</text></a><!--MD5=[56a185cb33bdc7c23303e5865f20a19b]
class javax.swing.JPanel--><rect codeLine="55" fill="#FEFECE" filter="url(#fe178u6ef5nc6)" height="48" id="javax.swing.JPanel" style="stroke:#A80036;stroke-width:1.5;" width="66" x="447" y="67.072"/><ellipse cx="462" cy="83.072" fill="#ADD1B2" rx="11" ry="11" style="stroke:#A80036;stroke-width:1.0;"/><path d="M461.4688,89.9939 Q459.7188,89.9939 458.5781,89.2595 Q457.4531,88.5095 456.8906,87.1657 Q456.3438,85.8064 456.3438,84.0095 Q456.3438,81.9782 457,80.5251 Q457.6563,79.072 458.9375,78.2907 Q460.2188,77.5095 462.0938,77.5095 Q462.9844,77.5095 463.6563,77.697 Q464.3281,77.8689 465.0156,78.2126 L464.2031,80.2282 Q463.5781,79.9157 463.0313,79.7907 Q462.5,79.6657 462.0156,79.6657 Q460.8438,79.6657 460.1406,80.197 Q459.4375,80.7282 459.1406,81.6814 Q458.8438,82.6345 458.8438,83.9001 Q458.8438,85.9157 459.5625,86.8845 Q460.2813,87.8376 461.875,87.8376 Q462.4688,87.8376 463.0938,87.6814 Q463.7188,87.5251 464.5469,87.1501 L464.5469,89.3689 Q463.8125,89.6814 463.0156,89.8376 Q462.2344,89.9939 461.4688,89.9939 Z " fill="#000000"/><text fill="#000000" font-family="sans-serif" font-size="12" lengthAdjust="spacing" textLength="34" x="476" y="87.728">JPanel</text><line style="stroke:#A80036;stroke-width:1.5;" x1="448" x2="512" y1="99.072" y2="99.072"/><line style="stroke:#A80036;stroke-width:1.5;" x1="448" x2="512" y1="107.072" y2="107.072"/><!--MD5=[c13749207e1e160b2790bec8d09e837f]
class javax.swing.JDialog--><rect codeLine="57" fill="#FEFECE" filter="url(#fe178u6ef5nc6)" height="92.9457" id="javax.swing.JDialog" style="stroke:#A80036;stroke-width:1.5;" width="217" x="548.5" y="44.602"/><ellipse cx="633.25" cy="60.602" fill="#ADD1B2" rx="11" ry="11" style="stroke:#A80036;stroke-width:1.0;"/><path d="M632.7188,67.5239 Q630.9688,67.5239 629.8281,66.7895 Q628.7031,66.0395 628.1406,64.6957 Q627.5938,63.3364 627.5938,61.5395 Q627.5938,59.5082 628.25,58.0551 Q628.9063,56.602 630.1875,55.8207 Q631.4688,55.0395 633.3438,55.0395 Q634.2344,55.0395 634.9063,55.227 Q635.5781,55.3989 636.2656,55.7426 L635.4531,57.7582 Q634.8281,57.4457 634.2813,57.3207 Q633.75,57.1957 633.2656,57.1957 Q632.0938,57.1957 631.3906,57.727 Q630.6875,58.2582 630.3906,59.2114 Q630.0938,60.1645 630.0938,61.4301 Q630.0938,63.4457 630.8125,64.4145 Q631.5313,65.3676 633.125,65.3676 Q633.7188,65.3676 634.3438,65.2114 Q634.9688,65.0551 635.7969,64.6801 L635.7969,66.8989 Q635.0625,67.2114 634.2656,67.3676 Q633.4844,67.5239 632.7188,67.5239 Z " fill="#000000"/><text fill="#000000" font-family="sans-serif" font-size="12" lengthAdjust="spacing" textLength="39" x="653.75" y="65.258">JDialog</text><line style="stroke:#A80036;stroke-width:1.5;" x1="549.5" x2="764.5" y1="76.602" y2="76.602"/><polygon fill="none" points="559.5,82.602,563.5,86.602,559.5,90.602,555.5,86.602" style="stroke:#B38D22;stroke-width:1.0;"/><text fill="#000000" font-family="sans-serif" font-size="11" lengthAdjust="spacing" textLength="109" x="568.5" y="92.3609">rootPane: JRootPane</text><polygon fill="none" points="559.5,97.5839,563.5,101.5839,559.5,105.5839,555.5,101.5839" style="stroke:#B38D22;stroke-width:1.0;"/><text fill="#000000" font-family="sans-serif" font-size="11" lengthAdjust="spacing" textLength="188" x="568.5" y="107.3428">rootPaneCheckingEnabled: boolean</text><polygon fill="none" points="559.5,112.5658,563.5,116.5658,559.5,120.5658,555.5,116.5658" style="stroke:#B38D22;stroke-width:1.0;"/><text fill="#000000" font-family="sans-serif" font-size="11" lengthAdjust="spacing" textLength="191" x="568.5" y="122.3247">accessibleContext: AccessibleContext</text><line style="stroke:#A80036;stroke-width:1.5;" x1="549.5" x2="764.5" y1="129.5476" y2="129.5476"/><!--MD5=[6631281fcee7fc541b441b6c950a0fa0]
class java.awt.event.ActionListener--><rect codeLine="65" fill="#FEFECE" filter="url(#fe178u6ef5nc6)" height="62.9819" id="java.awt.event.ActionListener" style="stroke:#A80036;stroke-width:1.5;" width="194" x="799" y="284.472"/><ellipse cx="854.25" cy="300.472" fill="#B4A7E5" rx="11" ry="11" style="stroke:#A80036;stroke-width:1.0;"/><path d="M850.2813,306.972 L850.2813,305.2689 L852.6406,305.0032 L852.6406,296.8001 L850.2813,296.5345 L850.2813,294.8314 L857.4219,294.8314 L857.4219,296.5345 L855,296.8001 L855,305.0032 L857.4219,305.2689 L857.4219,306.972 L850.2813,306.972 Z " fill="#000000"/><text fill="#000000" font-family="sans-serif" font-size="12" font-style="italic" lengthAdjust="spacing" textLength="75" x="874.75" y="305.128">ActionListener</text><line style="stroke:#A80036;stroke-width:1.5;" x1="800" x2="992" y1="316.472" y2="316.472"/><line style="stroke:#A80036;stroke-width:1.5;" x1="800" x2="992" y1="324.472" y2="324.472"/><ellipse cx="810" cy="335.472" fill="#84BE84" rx="3" ry="3" style="stroke:#038048;stroke-width:1.0;"/><text fill="#000000" font-family="sans-serif" font-size="11" font-style="italic" lengthAdjust="spacing" textLength="168" x="819" y="340.2309">actionPerformed(ActionEvent): void</text><!--MD5=[aeced6b90a5f9cea7e9b0d4e8b5a9b7c]
class java.lang.Record--><rect codeLine="71" fill="#FEFECE" filter="url(#fe178u6ef5nc6)" height="48" id="java.lang.Record" style="stroke:#A80036;stroke-width:1.5;" width="69" x="1048.5" y="291.962"/><ellipse cx="1063.5" cy="307.962" fill="#A9DCDF" rx="11" ry="11" style="stroke:#A80036;stroke-width:1.0;"/><path d="M1058.6719,313.712 L1062.0156,301.5245 L1065.1563,301.5245 L1068.5313,313.712 L1066.0625,313.712 L1065.3281,310.6964 L1061.8125,310.6964 L1061.0625,313.712 L1058.6719,313.712 Z M1063.0781,305.6651 L1062.3281,308.6651 L1064.8438,308.6651 L1064.125,305.6651 Q1063.9844,305.087 1063.8594,304.5401 Q1063.7344,303.9776 1063.5938,303.3995 Q1063.4844,303.9776 1063.3438,304.5401 Q1063.2031,305.087 1063.0781,305.6651 Z " fill="#000000"/><text fill="#000000" font-family="sans-serif" font-size="12" font-style="italic" lengthAdjust="spacing" textLength="37" x="1077.5" y="312.618">Record</text><line style="stroke:#A80036;stroke-width:1.5;" x1="1049.5" x2="1116.5" y1="323.962" y2="323.962"/><line style="stroke:#A80036;stroke-width:1.5;" x1="1049.5" x2="1116.5" y1="331.962" y2="331.962"/><!--MD5=[c35d268dc0f32632045be5a42b412a8c]
reverse link javax.swing.JPanel to nz.ac.wgtn.swen225.lc.app.App--><path codeLine="43" d="M501.38,132.922 C509.2,144.012 519.1,154.802 531,161.542 C565.95,181.362 683.96,148.832 711,178.542 C779.45,253.772 766.47,322.142 711,407.382 C652.94,496.602 585.46,453.422 492,504.382 C486.02,507.642 479.97,511.062 473.9,514.602 " fill="none" id="javax.swing.JPanel-backto-nz.ac.wgtn.swen225.lc.app.App" style="stroke:#A80036;stroke-width:1.0;"/><polygon fill="none" points="495.02,136.942,490.52,116.232,506.95,129.622,495.02,136.942" style="stroke:#A80036;stroke-width:1.0;"/><!--MD5=[9ac2613807cff2d7966d6d4b76bd1b2f]
reverse link java.awt.event.ActionListener to nz.ac.wgtn.swen225.lc.app.App--><path codeLine="44" d="M871.34,366.032 C850.24,402.462 816.26,449.912 772,474.382 C662.48,534.952 609.82,462.172 492,504.382 C485.88,506.572 479.76,509.072 473.69,511.792 " fill="none" id="java.awt.event.ActionListener-backto-nz.ac.wgtn.swen225.lc.app.App" style="stroke:#A80036;stroke-width:1.0;stroke-dasharray:7.0,7.0;"/><polygon fill="none" points="865.68,362.802,881.45,348.662,877.94,369.552,865.68,362.802" style="stroke:#A80036;stroke-width:1.0;"/><!--MD5=[2ba0c4f26897cb6a0b75eed88c3788bd]
reverse link javax.swing.JDialog to nz.ac.wgtn.swen225.lc.app.HelpDialog--><path codeLine="45" d="M648.93,158.672 C643.89,200.282 637.64,251.892 633.73,284.132 " fill="none" id="javax.swing.JDialog-backto-nz.ac.wgtn.swen225.lc.app.HelpDialog" style="stroke:#A80036;stroke-width:1.0;"/><polygon fill="none" points="642.08,158.002,651.44,138.982,655.98,159.682,642.08,158.002" style="stroke:#A80036;stroke-width:1.0;"/><!--MD5=[db2ffdcbcd9e00df0ae157c4af52b27e]
reverse link javax.swing.JPanel to nz.ac.wgtn.swen225.lc.app.KeyBindingsPanel--><path codeLine="46" d="M447.09,131.152 C435.29,145.722 422.15,162.592 411,178.542 C384.16,216.952 356.58,264.102 340.94,291.712 " fill="none" id="javax.swing.JPanel-backto-nz.ac.wgtn.swen225.lc.app.KeyBindingsPanel" style="stroke:#A80036;stroke-width:1.0;"/><polygon fill="none" points="442.02,127.302,460.13,116.312,452.82,136.202,442.02,127.302" style="stroke:#A80036;stroke-width:1.0;"/><!--MD5=[fee308393f04e1703a161fad968d8518]
reverse link java.lang.Record to nz.ac.wgtn.swen225.lc.app.Move--><path codeLine="47" d="M1056.14,357.192 C1043.34,374.222 1026.91,393.332 1009,407.382 C902.47,490.972 754.25,550.412 668.9,580.292 " fill="none" id="java.lang.Record-backto-nz.ac.wgtn.swen225.lc.app.Move" style="stroke:#A80036;stroke-width:1.0;"/><polygon fill="none" points="1050.97,353.392,1068.29,341.182,1062.36,361.522,1050.97,353.392" style="stroke:#A80036;stroke-width:1.0;"/><!--MD5=[7bd0b3f03182b91aa693ae9e3447ea73]
reverse link javax.swing.JPanel to nz.ac.wgtn.swen225.lc.app.PausedPanel--><path codeLine="48" d="M480,136.442 C480,183.122 480,254.792 480,291.512 " fill="none" id="javax.swing.JPanel-backto-nz.ac.wgtn.swen225.lc.app.PausedPanel" style="stroke:#A80036;stroke-width:1.0;"/><polygon fill="none" points="473,136.502,480,116.502,487,136.502,473,136.502" style="stroke:#A80036;stroke-width:1.0;"/><!--MD5=[89794c46b6e0bc488d743c184975ef1c]
reverse link javax.swing.JPanel to nz.ac.wgtn.swen225.lc.app.RecorderPanel--><path codeLine="49" d="M426.54,103.352 C376.33,115.802 300.78,139.432 245,178.542 C226.87,191.262 209.89,207.512 194.84,224.342 " fill="none" id="javax.swing.JPanel-backto-nz.ac.wgtn.swen225.lc.app.RecorderPanel" style="stroke:#A80036;stroke-width:1.0;"/><polygon fill="none" points="424.63,96.382,445.7,98.622,427.83,110.012,424.63,96.382" style="stroke:#A80036;stroke-width:1.0;"/><!--MD5=[32300d5f35b8ea6e0d94dcf21675c077]
link nz.ac.wgtn.swen225.lc.app.RecorderPanel to nz.ac.wgtn.swen225.lc.app.App--><path codeLine="50" d="M197.69,407.632 C219.43,436.752 243.66,469.222 266.02,499.172 " fill="none" id="nz.ac.wgtn.swen225.lc.app.RecorderPanel-to-nz.ac.wgtn.swen225.lc.app.App" style="stroke:#A80036;stroke-width:1.0;"/><polygon fill="#A80036" points="269.59,502.952,267.4284,493.3433,266.606,498.94,261.0093,498.1176,269.59,502.952" style="stroke:#A80036;stroke-width:1.0;"/><text fill="#000000" font-family="sans-serif" font-size="13" lengthAdjust="spacing" textLength="23" x="244" y="461.279">app</text><!--MD5=[4dc2f0501f788a079689ebd3156f0926]
link nz.ac.wgtn.swen225.lc.app.RecorderPanel to nz.ac.wgtn.swen225.lc.app.Move--><path codeLine="51" d="M228.47,397.242 C233.96,400.822 239.49,404.222 245,407.382 C346.94,465.872 390.9,442.812 491,504.382 C513.27,518.082 535.3,536.462 553.73,553.592 " fill="none" id="nz.ac.wgtn.swen225.lc.app.RecorderPanel-to-nz.ac.wgtn.swen225.lc.app.Move" style="stroke:#A80036;stroke-width:1.0;"/><polygon fill="#A80036" points="556.85,556.452,553.0377,547.3709,553.209,553.0252,547.5547,553.1965,556.85,556.452" style="stroke:#A80036;stroke-width:1.0;"/><text fill="#000000" font-family="sans-serif" font-size="13" lengthAdjust="spacing" textLength="40" x="442.5" y="452.279">moves</text><text fill="#000000" font-family="sans-serif" font-size="13" lengthAdjust="spacing" textLength="61" x="432" y="469.985">movesList</text><text fill="#000000" font-family="sans-serif" font-size="13" lengthAdjust="spacing" textLength="7" x="543.1236" y="545.3291">*</text><text fill="#888888" font-family="sans-serif" font-size="10" lengthAdjust="spacing" textLength="182" x="477.5" y="734.892">UMLDoclet 2.0.14, PlantUML 1.2021.9</text><!--MD5=[b370b8eebabf465060c7c3f251482566]
@startuml
    namespace nz.ac.wgtn.swen225.lc.app {

        class App [[App.html]] {
            +treasureLabel: JLabel
            +paused: boolean
            +setup(File): void
            +createInventory(int): JPanel
            +updateInventory(Item[]): void
            +createLabel(String, Font, Color, Color): JLabel
            +setPaused(boolean): void
            +actionPerformed(ActionEvent): void
            {static} +getRenderer(): Renderer
            {static} +getBoard(): Board
        }

        class HelpDialog [[HelpDialog.html]] {
            +HelpDialog(JFrame)
        }

        class KeyBindingsPanel [[KeyBindingsPanel.html]] {
        }

        class Move [[Move.html]] {
            +Move(String, double)
            +move(): String
            +time(): double
        }

        class PausedPanel [[PausedPanel.html]]

        class RecorderPanel [[RecorderPanel.html]] {
            {static} +recording: boolean
            {static} +time: int
            {static} +count: int
            +RecorderPanel(App)
            +startRecording(): void
            +stopRecording(): void
            +saveEndingInfo(): void
            #paintComponent(Graphics): void
            +getFileCount(): int
        }

        javax.swing.JPanel <|- - App
        java.awt.event.ActionListener <|.. App
        javax.swing.JDialog <|- - HelpDialog
        javax.swing.JPanel <|- - KeyBindingsPanel
        java.lang.Record <|- - Move
        javax.swing.JPanel <|- - PausedPanel
        javax.swing.JPanel <|- - RecorderPanel
        RecorderPanel - -> App: app
        RecorderPanel - -> "*" Move: moves\nmovesList
    }

    namespace javax.swing {
        class JPanel {
        }
        class JDialog {
            #rootPane: JRootPane
            #rootPaneCheckingEnabled: boolean
            #accessibleContext: AccessibleContext
        }
    }

    namespace java.awt.event {
        interface ActionListener {
            {abstract} +actionPerformed(ActionEvent): void
        }
    }

    namespace java.lang {
        abstract class Record
    }

    center footer UMLDoclet 2.0.14, PlantUML 1.2021.9
@enduml

PlantUML version 1.2021.9(Sun Jul 25 22:13:56 NZST 2021)
(APACHE source distribution)
Java Runtime: OpenJDK Runtime Environment
JVM: OpenJDK 64-Bit Server VM
Default Encoding: UTF-8
Language: en
Country: NZ
--></g></svg>