<?xml version="1.0" encoding="UTF-8" standalone="no"?><svg xmlns="http://www.w3.org/2000/svg" xmlns:xlink="http://www.w3.org/1999/xlink" contentStyleType="text/css" height="812px" preserveAspectRatio="none" style="width:1546px;height:812px;background:#FFFFFF;" version="1.1" viewBox="0 0 1546 812" width="1546px" zoomAndPan="magnify"><defs/><g><!--cluster nz.ac.wgtn.swen225.lc.app--><g id="cluster_nz.ac.wgtn.swen225.lc.app"><path d="M8.5,191.83 L194.5,191.83 A3.75,3.75 0 0 1 197,194.33 L204,215.4394 L1048.5,215.4394 A2.5,2.5 0 0 1 1051,217.9394 L1051,783.52 A2.5,2.5 0 0 1 1048.5,786.02 L8.5,786.02 A2.5,2.5 0 0 1 6,783.52 L6,194.33 A2.5,2.5 0 0 1 8.5,191.83 " fill="none" style="stroke:#000000;stroke-width:1.5;"/><line style="stroke:#000000;stroke-width:1.5;" x1="6" x2="204" y1="215.4394" y2="215.4394"/><text fill="#000000" font-family="sans-serif" font-size="14" font-weight="bold" lengthAdjust="spacing" textLength="185" x="10" y="208.3632">nz.ac.wgtn.swen225.lc.app</text></g><!--cluster javax.swing--><g id="cluster_javax.swing"><path d="M516.5,6 L599.5,6 A3.75,3.75 0 0 1 602,8.5 L609,29.6094 L916.5,29.6094 A2.5,2.5 0 0 1 919,32.1094 L919,156.33 A2.5,2.5 0 0 1 916.5,158.83 L516.5,158.83 A2.5,2.5 0 0 1 514,156.33 L514,8.5 A2.5,2.5 0 0 1 516.5,6 " fill="none" style="stroke:#000000;stroke-width:1.5;"/><line style="stroke:#000000;stroke-width:1.5;" x1="514" x2="609" y1="29.6094" y2="29.6094"/><text fill="#000000" font-family="sans-serif" font-size="14" font-weight="bold" lengthAdjust="spacing" textLength="82" x="518" y="22.5332">javax.swing</text></g><!--cluster java.awt.event--><g id="cluster_java.awt.event"><path d="M1127.5,262.27 L1230.5,262.27 A3.75,3.75 0 0 1 1233,264.77 L1240,285.8794 L1402.5,285.8794 A2.5,2.5 0 0 1 1405,288.3794 L1405,377.38 A2.5,2.5 0 0 1 1402.5,379.88 L1127.5,379.88 A2.5,2.5 0 0 1 1125,377.38 L1125,264.77 A2.5,2.5 0 0 1 1127.5,262.27 " fill="none" style="stroke:#000000;stroke-width:1.5;"/><line style="stroke:#000000;stroke-width:1.5;" x1="1125" x2="1240" y1="285.8794" y2="285.8794"/><text fill="#000000" font-family="sans-serif" font-size="14" font-weight="bold" lengthAdjust="spacing" textLength="102" x="1129" y="278.8032">java.awt.event</text></g><!--cluster java.lang--><g id="cluster_java.lang"><path d="M1431.5,271.07 L1495.5,271.07 A3.75,3.75 0 0 1 1498,273.57 L1505,294.6794 L1536.5,294.6794 A2.5,2.5 0 0 1 1539,297.1794 L1539,368.57 A2.5,2.5 0 0 1 1536.5,371.07 L1431.5,371.07 A2.5,2.5 0 0 1 1429,368.57 L1429,273.57 A2.5,2.5 0 0 1 1431.5,271.07 " fill="none" style="stroke:#000000;stroke-width:1.5;"/><line style="stroke:#000000;stroke-width:1.5;" x1="1429" x2="1505" y1="294.6794" y2="294.6794"/><text fill="#000000" font-family="sans-serif" font-size="14" font-weight="bold" lengthAdjust="spacing" textLength="63" x="1433" y="287.6032">java.lang</text></g><!--class nz.ac.wgtn.swen225.lc.app.App--><a href="App.html" target="_top" title="App.html" xlink:actuate="onRequest" xlink:href="App.html" xlink:show="new" xlink:title="App.html" xlink:type="simple"><g id="elem_nz.ac.wgtn.swen225.lc.app.App"><rect codeLine="3" fill="#F1F1F1" height="241.7031" id="nz.ac.wgtn.swen225.lc.app.App" rx="2.5" ry="2.5" style="stroke:#181818;stroke-width:0.5;" width="318" x="524" y="528.32"/><ellipse cx="666.25" cy="544.32" fill="#ADD1B2" rx="11" ry="11" style="stroke:#181818;stroke-width:1.0;"/><path d="M669.0156,540.195 Q669.1719,539.9762 669.3594,539.8669 Q669.5469,539.7575 669.7656,539.7575 Q670.1406,539.7575 670.375,540.0231 Q670.6094,540.2731 670.6094,540.8825 L670.6094,542.3356 Q670.6094,542.945 670.375,543.2106 Q670.1406,543.4762 669.7656,543.4762 Q669.4219,543.4762 669.2188,543.2731 Q669.0156,543.0856 668.9063,542.57 Q668.8594,542.2106 668.6719,542.0231 Q668.3438,541.6481 667.7344,541.4294 Q667.125,541.2106 666.5,541.2106 Q665.7344,541.2106 665.0938,541.5387 Q664.4688,541.8669 663.9688,542.6169 Q663.4844,543.3669 663.4844,544.3981 L663.4844,545.4919 Q663.4844,546.7262 664.375,547.5544 Q665.2656,548.3669 666.8594,548.3669 Q667.7969,548.3669 668.4531,548.1169 Q668.8438,547.9606 669.2656,547.5231 Q669.5313,547.2575 669.6719,547.1794 Q669.8281,547.1012 670.0313,547.1012 Q670.3594,547.1012 670.6094,547.3669 Q670.875,547.6169 670.875,547.9606 Q670.875,548.3044 670.5313,548.7106 Q670.0313,549.2887 669.2344,549.6169 Q668.1563,550.07 666.8594,550.07 Q665.3438,550.07 664.1406,549.445 Q663.1563,548.945 662.4688,547.8825 Q661.7813,546.8044 661.7813,545.5231 L661.7813,544.3669 Q661.7813,543.0387 662.3906,541.8981 Q663.0156,540.7419 664.1094,540.1325 Q665.2031,539.5075 666.4375,539.5075 Q667.1719,539.5075 667.8125,539.6794 Q668.4688,539.8356 669.0156,540.195 Z " fill="#000000"/><text fill="#000000" font-family="sans-serif" font-size="14" lengthAdjust="spacing" textLength="25" x="686.75" y="550.0485">App</text><line style="stroke:#181818;stroke-width:0.5;" x1="525" x2="841" y1="560.32" y2="560.32"/><ellipse cx="535" cy="574.6247" fill="none" rx="3" ry="3" style="stroke:#038048;stroke-width:1.0;"/><text fill="#000000" font-family="sans-serif" font-size="14" lengthAdjust="spacing" textLength="137" x="544" y="578.8532">treasureLabel: JLabel</text><ellipse cx="535" cy="592.2341" fill="none" rx="3" ry="3" style="stroke:#038048;stroke-width:1.0;"/><text fill="#000000" font-family="sans-serif" font-size="14" lengthAdjust="spacing" textLength="106" x="544" y="596.4626">paused: boolean</text><line style="stroke:#181818;stroke-width:0.5;" x1="525" x2="841" y1="603.5387" y2="603.5387"/><ellipse cx="535" cy="617.8434" fill="#84BE84" rx="3" ry="3" style="stroke:#038048;stroke-width:1.0;"/><text fill="#000000" font-family="sans-serif" font-size="14" lengthAdjust="spacing" textLength="102" x="544" y="622.072">setup(File): void</text><ellipse cx="535" cy="635.4528" fill="#84BE84" rx="3" ry="3" style="stroke:#038048;stroke-width:1.0;"/><text fill="#000000" font-family="sans-serif" font-size="14" lengthAdjust="spacing" textLength="173" x="544" y="639.6813">createInventory(int): JPanel</text><ellipse cx="535" cy="653.0622" fill="#84BE84" rx="3" ry="3" style="stroke:#038048;stroke-width:1.0;"/><text fill="#000000" font-family="sans-serif" font-size="14" lengthAdjust="spacing" textLength="180" x="544" y="657.2907">updateInventory(Item[]): void</text><ellipse cx="535" cy="670.6716" fill="#84BE84" rx="3" ry="3" style="stroke:#038048;stroke-width:1.0;"/><text fill="#000000" font-family="sans-serif" font-size="14" lengthAdjust="spacing" textLength="292" x="544" y="674.9001">createLabel(String, Font, Color, Color): JLabel</text><ellipse cx="535" cy="688.2809" fill="#84BE84" rx="3" ry="3" style="stroke:#038048;stroke-width:1.0;"/><text fill="#000000" font-family="sans-serif" font-size="14" lengthAdjust="spacing" textLength="162" x="544" y="692.5095">setPaused(boolean): void</text><ellipse cx="535" cy="705.8903" fill="#84BE84" rx="3" ry="3" style="stroke:#038048;stroke-width:1.0;"/><text fill="#000000" font-family="sans-serif" font-size="14" lengthAdjust="spacing" textLength="154" x="544" y="710.1188">moveAction(String): void</text><ellipse cx="535" cy="723.4997" fill="#84BE84" rx="3" ry="3" style="stroke:#038048;stroke-width:1.0;"/><text fill="#000000" font-family="sans-serif" font-size="14" lengthAdjust="spacing" textLength="223" x="544" y="727.7282">actionPerformed(ActionEvent): void</text><ellipse cx="535" cy="741.1091" fill="#84BE84" rx="3" ry="3" style="stroke:#038048;stroke-width:1.0;"/><text fill="#000000" font-family="sans-serif" font-size="14" lengthAdjust="spacing" text-decoration="underline" textLength="158" x="544" y="745.3376">getRenderer(): Renderer</text><ellipse cx="535" cy="758.7184" fill="#84BE84" rx="3" ry="3" style="stroke:#038048;stroke-width:1.0;"/><text fill="#000000" font-family="sans-serif" font-size="14" lengthAdjust="spacing" text-decoration="underline" textLength="114" x="544" y="762.947">getBoard(): Board</text></g></a><!--class nz.ac.wgtn.swen225.lc.app.HelpDialog--><a href="HelpDialog.html" target="_top" title="HelpDialog.html" xlink:actuate="onRequest" xlink:href="HelpDialog.html" xlink:show="new" xlink:title="HelpDialog.html" xlink:type="simple"><g id="elem_nz.ac.wgtn.swen225.lc.app.HelpDialog"><rect codeLine="17" fill="#F1F1F1" height="65.6094" id="nz.ac.wgtn.swen225.lc.app.HelpDialog" rx="2.5" ry="2.5" style="stroke:#181818;stroke-width:0.5;" width="151" x="884.5" y="298.27"/><ellipse cx="922.45" cy="314.27" fill="#ADD1B2" rx="11" ry="11" style="stroke:#181818;stroke-width:1.0;"/><path d="M925.2156,310.145 Q925.3719,309.9263 925.5594,309.8169 Q925.7469,309.7075 925.9656,309.7075 Q926.3406,309.7075 926.575,309.9731 Q926.8094,310.2231 926.8094,310.8325 L926.8094,312.2856 Q926.8094,312.895 926.575,313.1606 Q926.3406,313.4263 925.9656,313.4263 Q925.6219,313.4263 925.4188,313.2231 Q925.2156,313.0356 925.1063,312.52 Q925.0594,312.1606 924.8719,311.9731 Q924.5438,311.5981 923.9344,311.3794 Q923.325,311.1606 922.7,311.1606 Q921.9344,311.1606 921.2938,311.4888 Q920.6688,311.8169 920.1688,312.5669 Q919.6844,313.3169 919.6844,314.3481 L919.6844,315.4419 Q919.6844,316.6763 920.575,317.5044 Q921.4656,318.3169 923.0594,318.3169 Q923.9969,318.3169 924.6531,318.0669 Q925.0438,317.9106 925.4656,317.4731 Q925.7313,317.2075 925.8719,317.1294 Q926.0281,317.0513 926.2313,317.0513 Q926.5594,317.0513 926.8094,317.3169 Q927.075,317.5669 927.075,317.9106 Q927.075,318.2544 926.7313,318.6606 Q926.2313,319.2388 925.4344,319.5669 Q924.3563,320.02 923.0594,320.02 Q921.5438,320.02 920.3406,319.395 Q919.3563,318.895 918.6688,317.8325 Q917.9813,316.7544 917.9813,315.4731 L917.9813,314.3169 Q917.9813,312.9888 918.5906,311.8481 Q919.2156,310.6919 920.3094,310.0825 Q921.4031,309.4575 922.6375,309.4575 Q923.3719,309.4575 924.0125,309.6294 Q924.6688,309.7856 925.2156,310.145 Z " fill="#000000"/><text fill="#000000" font-family="sans-serif" font-size="14" lengthAdjust="spacing" textLength="68" x="941.55" y="319.9985">HelpDialog</text><line style="stroke:#181818;stroke-width:0.5;" x1="885.5" x2="1034.5" y1="330.27" y2="330.27"/><line style="stroke:#181818;stroke-width:0.5;" x1="885.5" x2="1034.5" y1="338.27" y2="338.27"/><ellipse cx="895.5" cy="352.5747" fill="#84BE84" rx="3" ry="3" style="stroke:#038048;stroke-width:1.0;"/><text fill="#000000" font-family="sans-serif" font-size="14" lengthAdjust="spacing" textLength="125" x="904.5" y="356.8032">HelpDialog(JFrame)</text></g></a><!--class nz.ac.wgtn.swen225.lc.app.KeyBindingsPanel--><a href="KeyBindingsPanel.html" target="_top" title="KeyBindingsPanel.html" xlink:actuate="onRequest" xlink:href="KeyBindingsPanel.html" xlink:show="new" xlink:title="KeyBindingsPanel.html" xlink:type="simple"><g id="elem_nz.ac.wgtn.swen225.lc.app.KeyBindingsPanel"><rect codeLine="21" fill="#F1F1F1" height="48" id="nz.ac.wgtn.swen225.lc.app.KeyBindingsPanel" rx="2.5" ry="2.5" style="stroke:#181818;stroke-width:0.5;" width="146" x="438" y="307.07"/><ellipse cx="453" cy="323.07" fill="#ADD1B2" rx="11" ry="11" style="stroke:#181818;stroke-width:1.0;"/><path d="M455.7656,318.945 Q455.9219,318.7263 456.1094,318.6169 Q456.2969,318.5075 456.5156,318.5075 Q456.8906,318.5075 457.125,318.7731 Q457.3594,319.0231 457.3594,319.6325 L457.3594,321.0856 Q457.3594,321.695 457.125,321.9606 Q456.8906,322.2263 456.5156,322.2263 Q456.1719,322.2263 455.9688,322.0231 Q455.7656,321.8356 455.6563,321.32 Q455.6094,320.9606 455.4219,320.7731 Q455.0938,320.3981 454.4844,320.1794 Q453.875,319.9606 453.25,319.9606 Q452.4844,319.9606 451.8438,320.2888 Q451.2188,320.6169 450.7188,321.3669 Q450.2344,322.1169 450.2344,323.1481 L450.2344,324.2419 Q450.2344,325.4763 451.125,326.3044 Q452.0156,327.1169 453.6094,327.1169 Q454.5469,327.1169 455.2031,326.8669 Q455.5938,326.7106 456.0156,326.2731 Q456.2813,326.0075 456.4219,325.9294 Q456.5781,325.8513 456.7813,325.8513 Q457.1094,325.8513 457.3594,326.1169 Q457.625,326.3669 457.625,326.7106 Q457.625,327.0544 457.2813,327.4606 Q456.7813,328.0388 455.9844,328.3669 Q454.9063,328.82 453.6094,328.82 Q452.0938,328.82 450.8906,328.195 Q449.9063,327.695 449.2188,326.6325 Q448.5313,325.5544 448.5313,324.2731 L448.5313,323.1169 Q448.5313,321.7888 449.1406,320.6481 Q449.7656,319.4919 450.8594,318.8825 Q451.9531,318.2575 453.1875,318.2575 Q453.9219,318.2575 454.5625,318.4294 Q455.2188,318.5856 455.7656,318.945 Z " fill="#000000"/><text fill="#000000" font-family="sans-serif" font-size="14" lengthAdjust="spacing" textLength="114" x="467" y="328.7985">KeyBindingsPanel</text><line style="stroke:#181818;stroke-width:0.5;" x1="439" x2="583" y1="339.07" y2="339.07"/><line style="stroke:#181818;stroke-width:0.5;" x1="439" x2="583" y1="347.07" y2="347.07"/></g></a><!--class nz.ac.wgtn.swen225.lc.app.MenuPanel--><a href="MenuPanel.html" target="_top" title="MenuPanel.html" xlink:actuate="onRequest" xlink:href="MenuPanel.html" xlink:show="new" xlink:title="MenuPanel.html" xlink:type="simple"><g id="elem_nz.ac.wgtn.swen225.lc.app.MenuPanel"><rect codeLine="24" fill="#F1F1F1" height="153.6563" id="nz.ac.wgtn.swen225.lc.app.MenuPanel" rx="2.5" ry="2.5" style="stroke:#181818;stroke-width:0.5;" width="231" x="618.5" y="254.25"/><ellipse cx="694.25" cy="270.25" fill="#ADD1B2" rx="11" ry="11" style="stroke:#181818;stroke-width:1.0;"/><path d="M697.0156,266.125 Q697.1719,265.9063 697.3594,265.7969 Q697.5469,265.6875 697.7656,265.6875 Q698.1406,265.6875 698.375,265.9531 Q698.6094,266.2031 698.6094,266.8125 L698.6094,268.2656 Q698.6094,268.875 698.375,269.1406 Q698.1406,269.4063 697.7656,269.4063 Q697.4219,269.4063 697.2188,269.2031 Q697.0156,269.0156 696.9063,268.5 Q696.8594,268.1406 696.6719,267.9531 Q696.3438,267.5781 695.7344,267.3594 Q695.125,267.1406 694.5,267.1406 Q693.7344,267.1406 693.0938,267.4688 Q692.4688,267.7969 691.9688,268.5469 Q691.4844,269.2969 691.4844,270.3281 L691.4844,271.4219 Q691.4844,272.6563 692.375,273.4844 Q693.2656,274.2969 694.8594,274.2969 Q695.7969,274.2969 696.4531,274.0469 Q696.8438,273.8906 697.2656,273.4531 Q697.5313,273.1875 697.6719,273.1094 Q697.8281,273.0313 698.0313,273.0313 Q698.3594,273.0313 698.6094,273.2969 Q698.875,273.5469 698.875,273.8906 Q698.875,274.2344 698.5313,274.6406 Q698.0313,275.2188 697.2344,275.5469 Q696.1563,276 694.8594,276 Q693.3438,276 692.1406,275.375 Q691.1563,274.875 690.4688,273.8125 Q689.7813,272.7344 689.7813,271.4531 L689.7813,270.2969 Q689.7813,268.9688 690.3906,267.8281 Q691.0156,266.6719 692.1094,266.0625 Q693.2031,265.4375 694.4375,265.4375 Q695.1719,265.4375 695.8125,265.6094 Q696.4688,265.7656 697.0156,266.125 Z " fill="#000000"/><text fill="#000000" font-family="sans-serif" font-size="14" lengthAdjust="spacing" textLength="71" x="714.75" y="275.9785">MenuPanel</text><line style="stroke:#181818;stroke-width:0.5;" x1="619.5" x2="848.5" y1="286.25" y2="286.25"/><ellipse cx="629.5" cy="300.5547" fill="none" rx="3" ry="3" style="stroke:#038048;stroke-width:1.0;"/><text fill="#000000" font-family="sans-serif" font-size="14" lengthAdjust="spacing" textLength="143" x="638.5" y="304.7832">levelSelected: boolean</text><line style="stroke:#181818;stroke-width:0.5;" x1="619.5" x2="848.5" y1="311.8594" y2="311.8594"/><polygon fill="#FFFF44" points="629.5,321.1641,633.5,325.1641,629.5,329.1641,625.5,325.1641" style="stroke:#B38D22;stroke-width:1.0;"/><text fill="#000000" font-family="sans-serif" font-size="14" lengthAdjust="spacing" textLength="205" x="638.5" y="330.3926">paintComponent(Graphics): void</text><ellipse cx="629.5" cy="343.7734" fill="#84BE84" rx="3" ry="3" style="stroke:#038048;stroke-width:1.0;"/><text fill="#000000" font-family="sans-serif" font-size="14" lengthAdjust="spacing" textLength="156" x="638.5" y="348.002">getStartButton(): JButton</text><ellipse cx="629.5" cy="361.3828" fill="#84BE84" rx="3" ry="3" style="stroke:#038048;stroke-width:1.0;"/><text fill="#000000" font-family="sans-serif" font-size="14" lengthAdjust="spacing" textLength="199" x="638.5" y="365.6113">getLevelSelectButton(): JButton</text><ellipse cx="629.5" cy="378.9922" fill="#84BE84" rx="3" ry="3" style="stroke:#038048;stroke-width:1.0;"/><text fill="#000000" font-family="sans-serif" font-size="14" lengthAdjust="spacing" textLength="142" x="638.5" y="383.2207">getSelectedLevel(): int</text><ellipse cx="629.5" cy="396.6016" fill="#84BE84" rx="3" ry="3" style="stroke:#038048;stroke-width:1.0;"/><text fill="#000000" font-family="sans-serif" font-size="14" lengthAdjust="spacing" textLength="154" x="638.5" y="400.8301">getHelpButton(): JButton</text></g></a><!--class nz.ac.wgtn.swen225.lc.app.Move--><a href="Move.html" target="_top" title="Move.html" xlink:actuate="onRequest" xlink:href="Move.html" xlink:show="new" xlink:title="Move.html" xlink:type="simple"><g id="elem_nz.ac.wgtn.swen225.lc.app.Move"><rect codeLine="33" fill="#F1F1F1" height="100.8281" id="nz.ac.wgtn.swen225.lc.app.Move" rx="2.5" ry="2.5" style="stroke:#181818;stroke-width:0.5;" width="158" x="877" y="598.75"/><ellipse cx="934.75" cy="614.75" fill="#ADD1B2" rx="11" ry="11" style="stroke:#181818;stroke-width:1.0;"/><path d="M937.5156,610.625 Q937.6719,610.4063 937.8594,610.2969 Q938.0469,610.1875 938.2656,610.1875 Q938.6406,610.1875 938.875,610.4531 Q939.1094,610.7031 939.1094,611.3125 L939.1094,612.7656 Q939.1094,613.375 938.875,613.6406 Q938.6406,613.9063 938.2656,613.9063 Q937.9219,613.9063 937.7188,613.7031 Q937.5156,613.5156 937.4063,613 Q937.3594,612.6406 937.1719,612.4531 Q936.8438,612.0781 936.2344,611.8594 Q935.625,611.6406 935,611.6406 Q934.2344,611.6406 933.5938,611.9688 Q932.9688,612.2969 932.4688,613.0469 Q931.9844,613.7969 931.9844,614.8281 L931.9844,615.9219 Q931.9844,617.1563 932.875,617.9844 Q933.7656,618.7969 935.3594,618.7969 Q936.2969,618.7969 936.9531,618.5469 Q937.3438,618.3906 937.7656,617.9531 Q938.0313,617.6875 938.1719,617.6094 Q938.3281,617.5313 938.5313,617.5313 Q938.8594,617.5313 939.1094,617.7969 Q939.375,618.0469 939.375,618.3906 Q939.375,618.7344 939.0313,619.1406 Q938.5313,619.7188 937.7344,620.0469 Q936.6563,620.5 935.3594,620.5 Q933.8438,620.5 932.6406,619.875 Q931.6563,619.375 930.9688,618.3125 Q930.2813,617.2344 930.2813,615.9531 L930.2813,614.7969 Q930.2813,613.4688 930.8906,612.3281 Q931.5156,611.1719 932.6094,610.5625 Q933.7031,609.9375 934.9375,609.9375 Q935.6719,609.9375 936.3125,610.1094 Q936.9688,610.2656 937.5156,610.625 Z " fill="#000000"/><text fill="#000000" font-family="sans-serif" font-size="14" lengthAdjust="spacing" textLength="34" x="955.25" y="620.4785">Move</text><line style="stroke:#181818;stroke-width:0.5;" x1="878" x2="1034" y1="630.75" y2="630.75"/><line style="stroke:#181818;stroke-width:0.5;" x1="878" x2="1034" y1="638.75" y2="638.75"/><ellipse cx="888" cy="653.0547" fill="#84BE84" rx="3" ry="3" style="stroke:#038048;stroke-width:1.0;"/><text fill="#000000" font-family="sans-serif" font-size="14" lengthAdjust="spacing" textLength="132" x="897" y="657.2832">Move(String, double)</text><ellipse cx="888" cy="670.6641" fill="#84BE84" rx="3" ry="3" style="stroke:#038048;stroke-width:1.0;"/><text fill="#000000" font-family="sans-serif" font-size="14" lengthAdjust="spacing" textLength="89" x="897" y="674.8926">move(): String</text><ellipse cx="888" cy="688.2734" fill="#84BE84" rx="3" ry="3" style="stroke:#038048;stroke-width:1.0;"/><text fill="#000000" font-family="sans-serif" font-size="14" lengthAdjust="spacing" textLength="87" x="897" y="692.502">time(): double</text></g></a><!--class nz.ac.wgtn.swen225.lc.app.PausedPanel--><a href="PausedPanel.html" target="_top" title="PausedPanel.html" xlink:actuate="onRequest" xlink:href="PausedPanel.html" xlink:show="new" xlink:title="PausedPanel.html" xlink:type="simple"><g id="elem_nz.ac.wgtn.swen225.lc.app.PausedPanel"><rect codeLine="39" fill="#F1F1F1" height="48" id="nz.ac.wgtn.swen225.lc.app.PausedPanel" rx="2.5" ry="2.5" style="stroke:#181818;stroke-width:0.5;" width="116" x="22" y="307.07"/><ellipse cx="37" cy="323.07" fill="#ADD1B2" rx="11" ry="11" style="stroke:#181818;stroke-width:1.0;"/><path d="M39.7656,318.945 Q39.9219,318.7263 40.1094,318.6169 Q40.2969,318.5075 40.5156,318.5075 Q40.8906,318.5075 41.125,318.7731 Q41.3594,319.0231 41.3594,319.6325 L41.3594,321.0856 Q41.3594,321.695 41.125,321.9606 Q40.8906,322.2263 40.5156,322.2263 Q40.1719,322.2263 39.9688,322.0231 Q39.7656,321.8356 39.6563,321.32 Q39.6094,320.9606 39.4219,320.7731 Q39.0938,320.3981 38.4844,320.1794 Q37.875,319.9606 37.25,319.9606 Q36.4844,319.9606 35.8438,320.2888 Q35.2188,320.6169 34.7188,321.3669 Q34.2344,322.1169 34.2344,323.1481 L34.2344,324.2419 Q34.2344,325.4763 35.125,326.3044 Q36.0156,327.1169 37.6094,327.1169 Q38.5469,327.1169 39.2031,326.8669 Q39.5938,326.7106 40.0156,326.2731 Q40.2813,326.0075 40.4219,325.9294 Q40.5781,325.8513 40.7813,325.8513 Q41.1094,325.8513 41.3594,326.1169 Q41.625,326.3669 41.625,326.7106 Q41.625,327.0544 41.2813,327.4606 Q40.7813,328.0388 39.9844,328.3669 Q38.9063,328.82 37.6094,328.82 Q36.0938,328.82 34.8906,328.195 Q33.9063,327.695 33.2188,326.6325 Q32.5313,325.5544 32.5313,324.2731 L32.5313,323.1169 Q32.5313,321.7888 33.1406,320.6481 Q33.7656,319.4919 34.8594,318.8825 Q35.9531,318.2575 37.1875,318.2575 Q37.9219,318.2575 38.5625,318.4294 Q39.2188,318.5856 39.7656,318.945 Z " fill="#000000"/><text fill="#000000" font-family="sans-serif" font-size="14" lengthAdjust="spacing" textLength="84" x="51" y="328.7985">PausedPanel</text><line style="stroke:#181818;stroke-width:0.5;" x1="23" x2="137" y1="339.07" y2="339.07"/><line style="stroke:#181818;stroke-width:0.5;" x1="23" x2="137" y1="347.07" y2="347.07"/></g></a><!--class nz.ac.wgtn.swen225.lc.app.RecorderPanel--><a href="RecorderPanel.html" target="_top" title="RecorderPanel.html" xlink:actuate="onRequest" xlink:href="RecorderPanel.html" xlink:show="new" xlink:title="RecorderPanel.html" xlink:type="simple"><g id="elem_nz.ac.wgtn.swen225.lc.app.RecorderPanel"><rect codeLine="41" fill="#F1F1F1" height="206.4844" id="nz.ac.wgtn.swen225.lc.app.RecorderPanel" rx="2.5" ry="2.5" style="stroke:#181818;stroke-width:0.5;" width="231" x="172.5" y="227.83"/><ellipse cx="236.25" cy="243.83" fill="#ADD1B2" rx="11" ry="11" style="stroke:#181818;stroke-width:1.0;"/><path d="M239.0156,239.705 Q239.1719,239.4862 239.3594,239.3769 Q239.5469,239.2675 239.7656,239.2675 Q240.1406,239.2675 240.375,239.5331 Q240.6094,239.7831 240.6094,240.3925 L240.6094,241.8456 Q240.6094,242.455 240.375,242.7206 Q240.1406,242.9862 239.7656,242.9862 Q239.4219,242.9862 239.2188,242.7831 Q239.0156,242.5956 238.9063,242.08 Q238.8594,241.7206 238.6719,241.5331 Q238.3438,241.1581 237.7344,240.9394 Q237.125,240.7206 236.5,240.7206 Q235.7344,240.7206 235.0938,241.0487 Q234.4688,241.3769 233.9688,242.1269 Q233.4844,242.8769 233.4844,243.9081 L233.4844,245.0019 Q233.4844,246.2362 234.375,247.0644 Q235.2656,247.8769 236.8594,247.8769 Q237.7969,247.8769 238.4531,247.6269 Q238.8438,247.4706 239.2656,247.0331 Q239.5313,246.7675 239.6719,246.6894 Q239.8281,246.6112 240.0313,246.6112 Q240.3594,246.6112 240.6094,246.8769 Q240.875,247.1269 240.875,247.4706 Q240.875,247.8144 240.5313,248.2206 Q240.0313,248.7987 239.2344,249.1269 Q238.1563,249.58 236.8594,249.58 Q235.3438,249.58 234.1406,248.955 Q233.1563,248.455 232.4688,247.3925 Q231.7813,246.3144 231.7813,245.0331 L231.7813,243.8769 Q231.7813,242.5487 232.3906,241.4081 Q233.0156,240.2519 234.1094,239.6425 Q235.2031,239.0175 236.4375,239.0175 Q237.1719,239.0175 237.8125,239.1894 Q238.4688,239.3456 239.0156,239.705 Z " fill="#000000"/><text fill="#000000" font-family="sans-serif" font-size="14" lengthAdjust="spacing" textLength="95" x="256.75" y="249.5585">RecorderPanel</text><line style="stroke:#181818;stroke-width:0.5;" x1="173.5" x2="402.5" y1="259.83" y2="259.83"/><ellipse cx="183.5" cy="274.1347" fill="none" rx="3" ry="3" style="stroke:#038048;stroke-width:1.0;"/><text fill="#000000" font-family="sans-serif" font-size="14" lengthAdjust="spacing" text-decoration="underline" textLength="119" x="192.5" y="278.3632">recording: boolean</text><ellipse cx="183.5" cy="291.7441" fill="none" rx="3" ry="3" style="stroke:#038048;stroke-width:1.0;"/><text fill="#000000" font-family="sans-serif" font-size="14" lengthAdjust="spacing" text-decoration="underline" textLength="49" x="192.5" y="295.9726">time: int</text><ellipse cx="183.5" cy="309.3534" fill="none" rx="3" ry="3" style="stroke:#038048;stroke-width:1.0;"/><text fill="#000000" font-family="sans-serif" font-size="14" lengthAdjust="spacing" text-decoration="underline" textLength="58" x="192.5" y="313.582">count: int</text><line style="stroke:#181818;stroke-width:0.5;" x1="173.5" x2="402.5" y1="320.6581" y2="320.6581"/><ellipse cx="183.5" cy="334.9628" fill="#84BE84" rx="3" ry="3" style="stroke:#038048;stroke-width:1.0;"/><text fill="#000000" font-family="sans-serif" font-size="14" lengthAdjust="spacing" textLength="130" x="192.5" y="339.1913">RecorderPanel(App)</text><ellipse cx="183.5" cy="352.5722" fill="#84BE84" rx="3" ry="3" style="stroke:#038048;stroke-width:1.0;"/><text fill="#000000" font-family="sans-serif" font-size="14" lengthAdjust="spacing" textLength="137" x="192.5" y="356.8007">startRecording(): void</text><ellipse cx="183.5" cy="370.1816" fill="#84BE84" rx="3" ry="3" style="stroke:#038048;stroke-width:1.0;"/><text fill="#000000" font-family="sans-serif" font-size="14" lengthAdjust="spacing" textLength="136" x="192.5" y="374.4101">stopRecording(): void</text><ellipse cx="183.5" cy="387.7909" fill="#84BE84" rx="3" ry="3" style="stroke:#038048;stroke-width:1.0;"/><text fill="#000000" font-family="sans-serif" font-size="14" lengthAdjust="spacing" textLength="141" x="192.5" y="392.0195">saveEndingInfo(): void</text><polygon fill="#FFFF44" points="183.5,400.4003,187.5,404.4003,183.5,408.4003,179.5,404.4003" style="stroke:#B38D22;stroke-width:1.0;"/><text fill="#000000" font-family="sans-serif" font-size="14" lengthAdjust="spacing" textLength="205" x="192.5" y="409.6288">paintComponent(Graphics): void</text><ellipse cx="183.5" cy="423.0097" fill="#84BE84" rx="3" ry="3" style="stroke:#038048;stroke-width:1.0;"/><text fill="#000000" font-family="sans-serif" font-size="14" lengthAdjust="spacing" textLength="114" x="192.5" y="427.2382">getFileCount(): int</text></g></a><!--class javax.swing.JPanel--><g id="elem_javax.swing.JPanel"><rect codeLine="66" fill="#F1F1F1" height="48" id="javax.swing.JPanel" rx="2.5" ry="2.5" style="stroke:#181818;stroke-width:0.5;" width="74" x="530" y="68.42"/><ellipse cx="545" cy="84.42" fill="#ADD1B2" rx="11" ry="11" style="stroke:#181818;stroke-width:1.0;"/><path d="M547.7656,80.295 Q547.9219,80.0762 548.1094,79.9669 Q548.2969,79.8575 548.5156,79.8575 Q548.8906,79.8575 549.125,80.1231 Q549.3594,80.3731 549.3594,80.9825 L549.3594,82.4356 Q549.3594,83.045 549.125,83.3106 Q548.8906,83.5762 548.5156,83.5762 Q548.1719,83.5762 547.9688,83.3731 Q547.7656,83.1856 547.6563,82.67 Q547.6094,82.3106 547.4219,82.1231 Q547.0938,81.7481 546.4844,81.5294 Q545.875,81.3106 545.25,81.3106 Q544.4844,81.3106 543.8438,81.6387 Q543.2188,81.9669 542.7188,82.7169 Q542.2344,83.4669 542.2344,84.4981 L542.2344,85.5919 Q542.2344,86.8262 543.125,87.6544 Q544.0156,88.4669 545.6094,88.4669 Q546.5469,88.4669 547.2031,88.2169 Q547.5938,88.0606 548.0156,87.6231 Q548.2813,87.3575 548.4219,87.2794 Q548.5781,87.2012 548.7813,87.2012 Q549.1094,87.2012 549.3594,87.4669 Q549.625,87.7169 549.625,88.0606 Q549.625,88.4044 549.2813,88.8106 Q548.7813,89.3887 547.9844,89.7169 Q546.9063,90.17 545.6094,90.17 Q544.0938,90.17 542.8906,89.545 Q541.9063,89.045 541.2188,87.9825 Q540.5313,86.9044 540.5313,85.6231 L540.5313,84.4669 Q540.5313,83.1387 541.1406,81.9981 Q541.7656,80.8419 542.8594,80.2325 Q543.9531,79.6075 545.1875,79.6075 Q545.9219,79.6075 546.5625,79.7794 Q547.2188,79.9356 547.7656,80.295 Z " fill="#000000"/><text fill="#000000" font-family="sans-serif" font-size="14" lengthAdjust="spacing" textLength="42" x="559" y="90.1485">JPanel</text><line style="stroke:#181818;stroke-width:0.5;" x1="531" x2="603" y1="100.42" y2="100.42"/><line style="stroke:#181818;stroke-width:0.5;" x1="531" x2="603" y1="108.42" y2="108.42"/></g><!--class javax.swing.JDialog--><g id="elem_javax.swing.JDialog"><rect codeLine="68" fill="#F1F1F1" height="100.8281" id="javax.swing.JDialog" rx="2.5" ry="2.5" style="stroke:#181818;stroke-width:0.5;" width="263" x="639.5" y="42"/><ellipse cx="743.75" cy="58" fill="#ADD1B2" rx="11" ry="11" style="stroke:#181818;stroke-width:1.0;"/><path d="M746.5156,53.875 Q746.6719,53.6563 746.8594,53.5469 Q747.0469,53.4375 747.2656,53.4375 Q747.6406,53.4375 747.875,53.7031 Q748.1094,53.9531 748.1094,54.5625 L748.1094,56.0156 Q748.1094,56.625 747.875,56.8906 Q747.6406,57.1563 747.2656,57.1563 Q746.9219,57.1563 746.7188,56.9531 Q746.5156,56.7656 746.4063,56.25 Q746.3594,55.8906 746.1719,55.7031 Q745.8438,55.3281 745.2344,55.1094 Q744.625,54.8906 744,54.8906 Q743.2344,54.8906 742.5938,55.2188 Q741.9688,55.5469 741.4688,56.2969 Q740.9844,57.0469 740.9844,58.0781 L740.9844,59.1719 Q740.9844,60.4063 741.875,61.2344 Q742.7656,62.0469 744.3594,62.0469 Q745.2969,62.0469 745.9531,61.7969 Q746.3438,61.6406 746.7656,61.2031 Q747.0313,60.9375 747.1719,60.8594 Q747.3281,60.7813 747.5313,60.7813 Q747.8594,60.7813 748.1094,61.0469 Q748.375,61.2969 748.375,61.6406 Q748.375,61.9844 748.0313,62.3906 Q747.5313,62.9688 746.7344,63.2969 Q745.6563,63.75 744.3594,63.75 Q742.8438,63.75 741.6406,63.125 Q740.6563,62.625 739.9688,61.5625 Q739.2813,60.4844 739.2813,59.2031 L739.2813,58.0469 Q739.2813,56.7188 739.8906,55.5781 Q740.5156,54.4219 741.6094,53.8125 Q742.7031,53.1875 743.9375,53.1875 Q744.6719,53.1875 745.3125,53.3594 Q745.9688,53.5156 746.5156,53.875 Z " fill="#000000"/><text fill="#000000" font-family="sans-serif" font-size="14" lengthAdjust="spacing" textLength="46" x="764.25" y="63.7285">JDialog</text><line style="stroke:#181818;stroke-width:0.5;" x1="640.5" x2="901.5" y1="74" y2="74"/><polygon fill="none" points="650.5,83.3047,654.5,87.3047,650.5,91.3047,646.5,87.3047" style="stroke:#B38D22;stroke-width:1.0;"/><text fill="#000000" font-family="sans-serif" font-size="14" lengthAdjust="spacing" textLength="135" x="659.5" y="92.5332">rootPane: JRootPane</text><polygon fill="none" points="650.5,100.9141,654.5,104.9141,650.5,108.9141,646.5,104.9141" style="stroke:#B38D22;stroke-width:1.0;"/><text fill="#000000" font-family="sans-serif" font-size="14" lengthAdjust="spacing" textLength="228" x="659.5" y="110.1426">rootPaneCheckingEnabled: boolean</text><polygon fill="none" points="650.5,118.5234,654.5,122.5234,650.5,126.5234,646.5,122.5234" style="stroke:#B38D22;stroke-width:1.0;"/><text fill="#000000" font-family="sans-serif" font-size="14" lengthAdjust="spacing" textLength="237" x="659.5" y="127.752">accessibleContext: AccessibleContext</text><line style="stroke:#181818;stroke-width:0.5;" x1="640.5" x2="901.5" y1="134.8281" y2="134.8281"/></g><!--class java.awt.event.ActionListener--><g id="elem_java.awt.event.ActionListener"><rect codeLine="76" fill="#F1F1F1" height="65.6094" id="java.awt.event.ActionListener" rx="2.5" ry="2.5" style="stroke:#181818;stroke-width:0.5;" width="247" x="1141.5" y="298.27"/><ellipse cx="1215.75" cy="314.27" fill="#B4A7E5" rx="11" ry="11" style="stroke:#181818;stroke-width:1.0;"/><path d="M1216.7031,310.9106 L1216.7031,317.5669 L1218.4219,317.5669 Q1219.0313,317.5669 1219.2969,317.8013 Q1219.5625,318.0356 1219.5625,318.4263 Q1219.5625,318.8013 1219.2969,319.0356 Q1219.0313,319.27 1218.4219,319.27 L1213.2813,319.27 Q1212.6719,319.27 1212.4063,319.0356 Q1212.1406,318.8013 1212.1406,318.4106 Q1212.1406,318.0356 1212.4063,317.8013 Q1212.6719,317.5669 1213.2813,317.5669 L1215,317.5669 L1215,310.9106 L1213.2813,310.9106 Q1212.6719,310.9106 1212.4063,310.6763 Q1212.1406,310.4419 1212.1406,310.0513 Q1212.1406,309.6763 1212.4063,309.4419 Q1212.6719,309.2075 1213.2813,309.2075 L1218.4219,309.2075 Q1219.0313,309.2075 1219.2969,309.4419 Q1219.5625,309.6763 1219.5625,310.0513 Q1219.5625,310.4419 1219.2969,310.6763 Q1219.0313,310.9106 1218.4219,310.9106 L1216.7031,310.9106 Z " fill="#000000"/><text fill="#000000" font-family="sans-serif" font-size="14" font-style="italic" lengthAdjust="spacing" textLength="90" x="1236.25" y="319.9985">ActionListener</text><line style="stroke:#181818;stroke-width:0.5;" x1="1142.5" x2="1387.5" y1="330.27" y2="330.27"/><line style="stroke:#181818;stroke-width:0.5;" x1="1142.5" x2="1387.5" y1="338.27" y2="338.27"/><ellipse cx="1152.5" cy="352.5747" fill="#84BE84" rx="3" ry="3" style="stroke:#038048;stroke-width:1.0;"/><text fill="#000000" font-family="sans-serif" font-size="14" font-style="italic" lengthAdjust="spacing" textLength="221" x="1161.5" y="356.8032">actionPerformed(ActionEvent): void</text></g><!--class java.lang.Record--><g id="elem_java.lang.Record"><rect codeLine="82" fill="#F1F1F1" height="48" id="java.lang.Record" rx="2.5" ry="2.5" style="stroke:#181818;stroke-width:0.5;" width="78" x="1445" y="307.07"/><ellipse cx="1460" cy="323.07" fill="#A9DCDF" rx="11" ry="11" style="stroke:#181818;stroke-width:1.0;"/><path d="M1462.1875,324.8356 L1458.0469,324.8356 L1457.625,325.8669 L1458.0469,325.8669 Q1458.6563,325.8669 1458.9219,326.1013 Q1459.1875,326.3356 1459.1875,326.7263 Q1459.1875,327.1013 1458.9219,327.3356 Q1458.6563,327.57 1458.0469,327.57 L1455.75,327.57 Q1455.1406,327.57 1454.8906,327.3356 Q1454.625,327.1013 1454.625,326.7106 Q1454.625,326.3356 1454.9063,326.1013 Q1455.1719,325.8513 1455.7969,325.8669 L1458.4688,319.2106 L1457.3594,319.2106 Q1456.75,319.2106 1456.4844,318.9763 Q1456.2188,318.7419 1456.2188,318.3513 Q1456.2188,317.9763 1456.4844,317.7419 Q1456.75,317.5075 1457.3594,317.5075 L1461.0313,317.5075 L1464.4219,325.8669 Q1465.0156,325.8669 1465.2031,326.0075 Q1465.5938,326.2731 1465.5938,326.7263 Q1465.5938,327.1013 1465.3281,327.3356 Q1465.0781,327.57 1464.4688,327.57 L1462.1719,327.57 Q1461.5625,327.57 1461.2969,327.3356 Q1461.0313,327.1013 1461.0313,326.7106 Q1461.0313,326.3356 1461.2969,326.1013 Q1461.5625,325.8669 1462.1719,325.8669 L1462.5938,325.8669 L1462.1875,324.8356 Z M1461.4688,323.1325 L1460.1094,319.7575 L1458.7344,323.1325 L1461.4688,323.1325 Z " fill="#000000"/><text fill="#000000" font-family="sans-serif" font-size="14" font-style="italic" lengthAdjust="spacing" textLength="46" x="1474" y="328.7985">Record</text><line style="stroke:#181818;stroke-width:0.5;" x1="1446" x2="1522" y1="339.07" y2="339.07"/><line style="stroke:#181818;stroke-width:0.5;" x1="1446" x2="1522" y1="347.07" y2="347.07"/></g><!--reverse link javax.swing.JPanel to nz.ac.wgtn.swen225.lc.app.App--><g id="link_javax.swing.JPanel_nz.ac.wgtn.swen225.lc.app.App"><path codeLine="53" d="M588.36,134.72 C597.02,147.26 608.26,159.62 622,166.83 C664.43,189.12 1019.79,149.28 1053,183.83 C1130.15,264.09 1112.02,339.92 1053,434.32 C1002.42,515.22 942.6,480.56 860,528.32 C854.06,531.75 848.05,535.32 842.01,538.98 " fill="none" id="javax.swing.JPanel-backto-nz.ac.wgtn.swen225.lc.app.App" style="stroke:#181818;stroke-width:1.0;"/><polygon fill="none" points="581.88,138.54,577.52,117.8,593.86,131.3,581.88,138.54" style="stroke:#181818;stroke-width:1.0;"/></g><!--reverse link java.awt.event.ActionListener to nz.ac.wgtn.swen225.lc.app.App--><g id="link_java.awt.event.ActionListener_nz.ac.wgtn.swen225.lc.app.App"><path codeLine="54" d="M1234.71,381.39 C1208.03,420.13 1165.47,471.81 1114,498.32 C1012.94,550.35 966.53,488.66 860,528.32 C854.09,530.52 848.18,532.96 842.3,535.59 " fill="none" id="java.awt.event.ActionListener-backto-nz.ac.wgtn.swen225.lc.app.App" style="stroke:#181818;stroke-width:1.0;stroke-dasharray:7.0,7.0;"/><polygon fill="none" points="1229.27,377.92,1246.15,365.11,1240.94,385.65,1229.27,377.92" style="stroke:#181818;stroke-width:1.0;"/></g><!--reverse link javax.swing.JDialog to nz.ac.wgtn.swen225.lc.app.HelpDialog--><g id="link_javax.swing.JDialog_nz.ac.wgtn.swen225.lc.app.HelpDialog"><path codeLine="55" d="M843.59,158.01 C851.8,166.41 859.8,175.12 867,183.83 C897.2,220.35 925.44,267.29 942.7,298 " fill="none" id="javax.swing.JDialog-backto-nz.ac.wgtn.swen225.lc.app.HelpDialog" style="stroke:#181818;stroke-width:1.0;"/><polygon fill="none" points="839.02,163.35,829.69,144.33,848.84,153.38,839.02,163.35" style="stroke:#181818;stroke-width:1.0;"/></g><!--reverse link javax.swing.JPanel to nz.ac.wgtn.swen225.lc.app.KeyBindingsPanel--><g id="link_javax.swing.JPanel_nz.ac.wgtn.swen225.lc.app.KeyBindingsPanel"><path codeLine="56" d="M556.72,136.86 C544.87,186.96 525.81,267.47 516.49,306.86 " fill="none" id="javax.swing.JPanel-backto-nz.ac.wgtn.swen225.lc.app.KeyBindingsPanel" style="stroke:#181818;stroke-width:1.0;"/><polygon fill="none" points="550.11,135.39,561.53,117.54,563.73,138.62,550.11,135.39" style="stroke:#181818;stroke-width:1.0;"/></g><!--reverse link javax.swing.JPanel to nz.ac.wgtn.swen225.lc.app.MenuPanel--><g id="link_javax.swing.JPanel_nz.ac.wgtn.swen225.lc.app.MenuPanel"><path codeLine="57" d="M595.36,133.6 C618.55,166.47 652.01,213.88 680.24,253.89 " fill="none" id="javax.swing.JPanel-backto-nz.ac.wgtn.swen225.lc.app.MenuPanel" style="stroke:#181818;stroke-width:1.0;"/><polygon fill="none" points="589.13,137.92,583.32,117.54,600.57,129.85,589.13,137.92" style="stroke:#181818;stroke-width:1.0;"/></g><!--reverse link java.lang.Record to nz.ac.wgtn.swen225.lc.app.Move--><g id="link_java.lang.Record_nz.ac.wgtn.swen225.lc.app.Move"><path codeLine="58" d="M1459.14,372.8 C1445.16,393.21 1426.26,417.17 1405,434.32 C1290.75,526.46 1130.24,590.53 1035.29,623.18 " fill="none" id="java.lang.Record-backto-nz.ac.wgtn.swen225.lc.app.Move" style="stroke:#181818;stroke-width:1.0;"/><polygon fill="none" points="1453.74,369.27,1470.53,356.34,1465.46,376.92,1453.74,369.27" style="stroke:#181818;stroke-width:1.0;"/></g><!--reverse link javax.swing.JPanel to nz.ac.wgtn.swen225.lc.app.PausedPanel--><g id="link_javax.swing.JPanel_nz.ac.wgtn.swen225.lc.app.PausedPanel"><path codeLine="59" d="M508.99,100 C409.08,112.32 209.93,141.51 155,183.83 C114.54,215 93.99,274.08 85.29,306.8 " fill="none" id="javax.swing.JPanel-backto-nz.ac.wgtn.swen225.lc.app.PausedPanel" style="stroke:#181818;stroke-width:1.0;"/><polygon fill="none" points="507.88,92.96,528.57,97.53,509.55,106.86,507.88,92.96" style="stroke:#181818;stroke-width:1.0;"/></g><!--reverse link javax.swing.JPanel to nz.ac.wgtn.swen225.lc.app.RecorderPanel--><g id="link_javax.swing.JPanel_nz.ac.wgtn.swen225.lc.app.RecorderPanel"><path codeLine="60" d="M511.47,122.56 C482.83,138.8 448.11,160.44 420,183.83 C404.09,197.07 388.33,212.21 373.54,227.63 " fill="none" id="javax.swing.JPanel-backto-nz.ac.wgtn.swen225.lc.app.RecorderPanel" style="stroke:#181818;stroke-width:1.0;"/><polygon fill="none" points="507.83,116.02,528.72,112.47,514.61,128.27,507.83,116.02" style="stroke:#181818;stroke-width:1.0;"/></g><!--link nz.ac.wgtn.swen225.lc.app.RecorderPanel to nz.ac.wgtn.swen225.lc.app.App--><g id="link_nz.ac.wgtn.swen225.lc.app.RecorderPanel_nz.ac.wgtn.swen225.lc.app.App"><path codeLine="61" d="M403.84,424.78 C442.72,455.89 486.72,491.1 528.1,524.21 " fill="none" id="nz.ac.wgtn.swen225.lc.app.RecorderPanel-to-nz.ac.wgtn.swen225.lc.app.App" style="stroke:#181818;stroke-width:1.0;"/><polygon fill="#181818" points="531.61,527.82,527.0927,519.0682,527.7098,524.6913,522.0868,525.3085,531.61,527.82" style="stroke:#181818;stroke-width:1.0;"/><text fill="#000000" font-family="sans-serif" font-size="13" lengthAdjust="spacing" textLength="21" x="486" y="486.8151">app</text></g><!--link nz.ac.wgtn.swen225.lc.app.RecorderPanel to nz.ac.wgtn.swen225.lc.app.Move--><g id="link_nz.ac.wgtn.swen225.lc.app.RecorderPanel_nz.ac.wgtn.swen225.lc.app.Move"><path codeLine="62" d="M403.91,426.1 C409.24,429.06 414.61,431.81 420,434.32 C510.68,476.43 774.92,475.8 860,528.32 C886.05,544.4 908.05,570.17 924.39,593.7 " fill="none" id="nz.ac.wgtn.swen225.lc.app.RecorderPanel-to-nz.ac.wgtn.swen225.lc.app.Move" style="stroke:#181818;stroke-width:1.0;"/><polygon fill="#181818" points="927.58,597.38,925.8159,587.6904,924.7638,593.2486,919.2056,592.1964,927.58,597.38" style="stroke:#181818;stroke-width:1.0;"/><text fill="#000000" font-family="sans-serif" font-size="13" lengthAdjust="spacing" textLength="37" x="774.5" y="478.8151">moves</text><text fill="#000000" font-family="sans-serif" font-size="13" lengthAdjust="spacing" textLength="58" x="764" y="495.1667">movesList</text><text fill="#000000" font-family="sans-serif" font-size="13" lengthAdjust="spacing" textLength="5" x="918.4251" y="587.9996">*</text></g><text fill="#888888" font-family="sans-serif" font-size="10" lengthAdjust="spacing" textLength="184" x="674" y="802.4009">UMLDoclet 2.1.0, PlantUML 1.2022.14</text><!--SRC=[bLPDJnin4BtpAonGfKqXLelKIrHLWW0jD4XHK4-KW-CTmhPUUsNF1bhAV-zulp-9s4FiNJ_FFC-y6OSnnhI8mIL20jD_kP3ySOEQkqVGnyUVk99S90bxtjjZnIELS8wTqCVRM_hb3nYhkpj2iCPpY1Q4Ioqin1hKZ5rbOnkIYDH1E6DhOnG8tLvqW6aIN4GA9ZEsDL7ONfPa7k5IRq6ZiN-2I2FXhfP2TxsaITX2NYB4jtUl6CsO1ZTe8xqvOXT6un6R6sLiCKo6JqE4bzc1Wk8yWovYiuKJYP7HXOT1bCWGIx3tniPaCTznxeymX7zsA32IB-nm0xW27O856n2od8-ZJusmeOTcamhtqattDr39MIIKsL3MwvUHvDU0uEh2ahmcuvQ_mv_JI8SK2fTbZ-ntF_MzzAnSWqxBxTLyX9s2BQWRK21nJ7u7YI15pKsS64r13xvQaJn4qWrcYy9uWyBYQOf8UVNwoASzsABsl1jSCimsUI0nwe5yfCTDzSD4ylCHec4aE7wf4dzeqhLg9A-Ii7UMWpfL7yNPMhvnd4TUAMN26cy5gov-1T9OadAve_K-V99QvZO34zVXNDT0pxuVvdfTcbJZG1vQR0BgYPs8EQ-ELSaY61IHGvFiWeWjd6TbSQdlpI3chRhr_NNkJzNLLoDZlyHMFD5zG7vvtc3Pvt_JgRy1MXWk7f63xr4yxrUBo25ei0Jdl0UlJ1Pj9RDPDuwTxhjDOkU6gYsqMIj1k3po1OxqlTDOGx8xiIrvLEYsfAVJBpv2CoOQOUf3zj_lP_ncp5UX-wcpmGTwhv6r-a9lK6gKHrvJ1SLcK-q0Yioqw-h06eD-AxMRLJ4T1imVGFucp-TQK3COwxH2Id0kMdiXQeGdAh2JxgSEnS5Zrl9h42P9qoNg8Hr9Tdg5M3kqTEk-lEdkVOsDbrN3I-cWrS-QsoLugkoUOaV3Z-l5cP4Aa1tpZ_p34LkIFQIlxDqMhFD_7oR_0G00]--></g></svg>