<?xml version="1.0" encoding="UTF-8" standalone="no"?><svg xmlns="http://www.w3.org/2000/svg" xmlns:xlink="http://www.w3.org/1999/xlink" contentStyleType="text/css" height="401px" preserveAspectRatio="none" style="width:249px;height:401px;background:#FFFFFF;" version="1.1" viewBox="0 0 249 401" width="249px" zoomAndPan="magnify"><defs/><g><!--class nz.ac.wgtn.swen225.lc.app.RecorderPanel--><a href="RecorderPanel.html" target="_top" title="RecorderPanel.html" xlink:actuate="onRequest" xlink:href="RecorderPanel.html" xlink:show="new" xlink:title="RecorderPanel.html" xlink:type="simple"><g id="elem_nz.ac.wgtn.swen225.lc.app.RecorderPanel"><rect codeLine="5" fill="#F1F1F1" height="267.5" id="nz.ac.wgtn.swen225.lc.app.RecorderPanel" rx="2.5" ry="2.5" style="stroke:#181818;stroke-width:0.5;" width="233" x="9" y="107.19"/><ellipse cx="57.25" cy="127.2838" fill="#ADD1B2" rx="11" ry="11" style="stroke:#181818;stroke-width:1.0;"/><path d="M60.0156,123.1588 Q60.1719,122.94 60.3594,122.8306 Q60.5469,122.7213 60.7656,122.7213 Q61.1406,122.7213 61.375,122.9869 Q61.6094,123.2369 61.6094,123.8463 L61.6094,125.2994 Q61.6094,125.9088 61.375,126.1744 Q61.1406,126.44 60.7656,126.44 Q60.4219,126.44 60.2188,126.2369 Q60.0156,126.0494 59.9063,125.5338 Q59.8594,125.1744 59.6719,124.9869 Q59.3438,124.6119 58.7344,124.3931 Q58.125,124.1744 57.5,124.1744 Q56.7344,124.1744 56.0938,124.5025 Q55.4688,124.8306 54.9688,125.5806 Q54.4844,126.3306 54.4844,127.3619 L54.4844,128.4556 Q54.4844,129.69 55.375,130.5181 Q56.2656,131.3306 57.8594,131.3306 Q58.7969,131.3306 59.4531,131.0806 Q59.8438,130.9244 60.2656,130.4869 Q60.5313,130.2213 60.6719,130.1431 Q60.8281,130.065 61.0313,130.065 Q61.3594,130.065 61.6094,130.3306 Q61.875,130.5806 61.875,130.9244 Q61.875,131.2681 61.5313,131.6744 Q61.0313,132.2525 60.2344,132.5806 Q59.1563,133.0338 57.8594,133.0338 Q56.3438,133.0338 55.1406,132.4088 Q54.1563,131.9088 53.4688,130.8463 Q52.7813,129.7681 52.7813,128.4869 L52.7813,127.3306 Q52.7813,126.0025 53.3906,124.8619 Q54.0156,123.7056 55.1094,123.0963 Q56.2031,122.4713 57.4375,122.4713 Q58.1719,122.4713 58.8125,122.6431 Q59.4688,122.7994 60.0156,123.1588 Z " fill="#000000"/><text fill="#000000" font-family="sans-serif" font-size="14" lengthAdjust="spacing" textLength="95" x="94.25" y="126.7232">RecorderPanel</text><text fill="#000000" font-family="sans-serif" font-size="10" lengthAdjust="spacing" textLength="128" x="77.75" y="140.1802">nz.ac.wgtn.swen225.lc.app</text><line style="stroke:#181818;stroke-width:0.5;" x1="10" x2="241" y1="147.3775" y2="147.3775"/><ellipse cx="20" cy="161.6822" fill="none" rx="3" ry="3" style="stroke:#038048;stroke-width:1.0;"/><text fill="#000000" font-family="sans-serif" font-size="14" lengthAdjust="spacing" text-decoration="underline" textLength="155" x="29" y="165.9107">moves: ArrayList&lt;Move&gt;</text><ellipse cx="20" cy="179.2916" fill="none" rx="3" ry="3" style="stroke:#038048;stroke-width:1.0;"/><text fill="#000000" font-family="sans-serif" font-size="14" lengthAdjust="spacing" text-decoration="underline" textLength="119" x="29" y="183.5201">recording: boolean</text><ellipse cx="20" cy="196.9009" fill="none" rx="3" ry="3" style="stroke:#038048;stroke-width:1.0;"/><text fill="#000000" font-family="sans-serif" font-size="14" lengthAdjust="spacing" text-decoration="underline" textLength="49" x="29" y="201.1295">time: int</text><ellipse cx="20" cy="214.5103" fill="none" rx="3" ry="3" style="stroke:#038048;stroke-width:1.0;"/><text fill="#000000" font-family="sans-serif" font-size="14" lengthAdjust="spacing" text-decoration="underline" textLength="58" x="29" y="218.7388">count: int</text><ellipse cx="20" cy="232.1197" fill="none" rx="3" ry="3" style="stroke:#038048;stroke-width:1.0;"/><text fill="#000000" font-family="sans-serif" font-size="14" lengthAdjust="spacing" text-decoration="underline" textLength="57" x="29" y="236.3482">app: App</text><line style="stroke:#181818;stroke-width:0.5;" x1="10" x2="241" y1="243.4244" y2="243.4244"/><ellipse cx="20" cy="257.7291" fill="#84BE84" rx="3" ry="3" style="stroke:#038048;stroke-width:1.0;"/><text fill="#000000" font-family="sans-serif" font-size="14" lengthAdjust="spacing" textLength="130" x="29" y="261.9576">RecorderPanel(App)</text><ellipse cx="20" cy="275.3384" fill="#84BE84" rx="3" ry="3" style="stroke:#038048;stroke-width:1.0;"/><text fill="#000000" font-family="sans-serif" font-size="14" lengthAdjust="spacing" textLength="137" x="29" y="279.567">startRecording(): void</text><ellipse cx="20" cy="292.9478" fill="#84BE84" rx="3" ry="3" style="stroke:#038048;stroke-width:1.0;"/><text fill="#000000" font-family="sans-serif" font-size="14" lengthAdjust="spacing" textLength="136" x="29" y="297.1763">stopRecording(): void</text><ellipse cx="20" cy="310.5572" fill="#84BE84" rx="3" ry="3" style="stroke:#038048;stroke-width:1.0;"/><text fill="#000000" font-family="sans-serif" font-size="14" lengthAdjust="spacing" textLength="141" x="29" y="314.7857">saveEndingInfo(): void</text><polygon fill="#FFFF44" points="20,323.1666,24,327.1666,20,331.1666,16,327.1666" style="stroke:#B38D22;stroke-width:1.0;"/><text fill="#000000" font-family="sans-serif" font-size="14" lengthAdjust="spacing" textLength="205" x="29" y="332.3951">paintComponent(Graphics): void</text><ellipse cx="20" cy="345.7759" fill="#84BE84" rx="3" ry="3" style="stroke:#038048;stroke-width:1.0;"/><text fill="#000000" font-family="sans-serif" font-size="14" lengthAdjust="spacing" textLength="114" x="29" y="350.0045">getFileCount(): int</text><ellipse cx="20" cy="363.3853" fill="#84BE84" rx="3" ry="3" style="stroke:#038048;stroke-width:1.0;"/><text fill="#000000" font-family="sans-serif" font-size="14" lengthAdjust="spacing" textLength="207" x="29" y="367.6138">getMovesList(): ArrayList&lt;Move&gt;</text></g></a><!--class javax.swing.JPanel--><g id="elem_javax.swing.JPanel"><rect codeLine="20" fill="#F1F1F1" height="40.1875" id="javax.swing.JPanel" rx="2.5" ry="2.5" style="stroke:#181818;stroke-width:0.5;" width="86" x="82.5" y="7"/><ellipse cx="97.5" cy="27.0938" fill="#ADD1B2" rx="11" ry="11" style="stroke:#181818;stroke-width:1.0;"/><path d="M100.2656,22.9688 Q100.4219,22.75 100.6094,22.6406 Q100.7969,22.5313 101.0156,22.5313 Q101.3906,22.5313 101.625,22.7969 Q101.8594,23.0469 101.8594,23.6563 L101.8594,25.1094 Q101.8594,25.7188 101.625,25.9844 Q101.3906,26.25 101.0156,26.25 Q100.6719,26.25 100.4688,26.0469 Q100.2656,25.8594 100.1563,25.3438 Q100.1094,24.9844 99.9219,24.7969 Q99.5938,24.4219 98.9844,24.2031 Q98.375,23.9844 97.75,23.9844 Q96.9844,23.9844 96.3438,24.3125 Q95.7188,24.6406 95.2188,25.3906 Q94.7344,26.1406 94.7344,27.1719 L94.7344,28.2656 Q94.7344,29.5 95.625,30.3281 Q96.5156,31.1406 98.1094,31.1406 Q99.0469,31.1406 99.7031,30.8906 Q100.0938,30.7344 100.5156,30.2969 Q100.7813,30.0313 100.9219,29.9531 Q101.0781,29.875 101.2813,29.875 Q101.6094,29.875 101.8594,30.1406 Q102.125,30.3906 102.125,30.7344 Q102.125,31.0781 101.7813,31.4844 Q101.2813,32.0625 100.4844,32.3906 Q99.4063,32.8438 98.1094,32.8438 Q96.5938,32.8438 95.3906,32.2188 Q94.4063,31.7188 93.7188,30.6563 Q93.0313,29.5781 93.0313,28.2969 L93.0313,27.1406 Q93.0313,25.8125 93.6406,24.6719 Q94.2656,23.5156 95.3594,22.9063 Q96.4531,22.2813 97.6875,22.2813 Q98.4219,22.2813 99.0625,22.4531 Q99.7188,22.6094 100.2656,22.9688 Z " fill="#000000"/><text fill="#000000" font-family="sans-serif" font-size="14" lengthAdjust="spacing" textLength="42" x="117.5" y="26.5332">JPanel</text><text fill="#000000" font-family="sans-serif" font-size="10" lengthAdjust="spacing" textLength="54" x="111.5" y="39.9902">javax.swing</text></g><!--reverse link javax.swing.JPanel to nz.ac.wgtn.swen225.lc.app.RecorderPanel--><g id="link_javax.swing.JPanel_nz.ac.wgtn.swen225.lc.app.RecorderPanel"><path codeLine="22" d="M125.5,68.54 C125.5,80.04 125.5,93.24 125.5,107.09 " fill="none" id="javax.swing.JPanel-backto-nz.ac.wgtn.swen225.lc.app.RecorderPanel" style="stroke:#181818;stroke-width:1.0;"/><polygon fill="none" points="118.5,68.65,125.5,48.65,132.5,68.65,118.5,68.65" style="stroke:#181818;stroke-width:1.0;"/></g><text fill="#888888" font-family="sans-serif" font-size="10" lengthAdjust="spacing" textLength="184" x="25.5" y="391.0709">UMLDoclet 2.1.0, PlantUML 1.2022.14</text><!--SRC=[ZPDRImCn48NV_HM38hIemHPzMKf1lA6qK2e-QH_6TDgDP2SXYLkrzh-Rj5LxMSLzMNA-sSEPoIm0WAS0Z0LvYvBkoAB3O1omOTg9678r9A32XZSOAT93lwaM578JvRakDNeFkosltYbhdBJx98qRakiXatxafNxSvdU1Kap6WOMV43URfq9BWTRk0dhubOerFtXuM3kBF1HwC83fF4fwfZvWK7861uKfoMTmvXo-TPGFhMuKsXM5RkweU9p1ap6Qa2kAWYee0yMXWadpmk4t67k88QpzHWTh7TGYgl-m-9aB_Qz0jNe6fL73LMxiNnXBkkJ4RdXajlYUnHZot1GstZM7shL3colfjtp65AwKflFKM79PRIt1D4gVXffWrOHdrSjnkxaLprZYQxpoc7Y-1ojdiIXU66thqFeuElhltYpJn9x9mSYOzBhlTYwCrF5dQ8g6E3w4daOEKONzafnNXclrJm00]--></g></svg>