<?xml version="1.0" encoding="UTF-8" standalone="no"?><svg xmlns="http://www.w3.org/2000/svg" xmlns:xlink="http://www.w3.org/1999/xlink" contentScriptType="application/ecmascript" contentStyleType="text/css" height="380px" preserveAspectRatio="none" style="width:219px;height:380px;background:#FFFFFF;" version="1.1" viewBox="0 0 219 380" width="219px" zoomAndPan="magnify"><defs><filter height="300%" id="f1makruh0576j7" width="300%" x="-1" y="-1"><feGaussianBlur result="blurOut" stdDeviation="2.0"/><feColorMatrix in="blurOut" result="blurOut2" type="matrix" values="0 0 0 0 0 0 0 0 0 0 0 0 0 0 0 0 0 0 .4 0"/><feOffset dx="4.0" dy="4.0" in="blurOut2" result="blurOut3"/><feBlend in="SourceGraphic" in2="blurOut3" mode="normal"/></filter></defs><g><!--MD5=[5585b2ebbed2e466772d341602320f92]
class nz.ac.wgtn.swen225.lc.app.RecorderPanel--><a href="RecorderPanel.html" target="_top" title="RecorderPanel.html" xlink:actuate="onRequest" xlink:href="RecorderPanel.html" xlink:show="new" xlink:title="RecorderPanel.html" xlink:type="simple"><rect codeLine="5" fill="#FEFECE" filter="url(#f1makruh0576j7)" height="238.4706" id="nz.ac.wgtn.swen225.lc.app.RecorderPanel" style="stroke:#A80036;stroke-width:1.5;" width="196" x="9" y="109.69"/><ellipse cx="39.3" cy="131.034" fill="#ADD1B2" rx="11" ry="11" style="stroke:#A80036;stroke-width:1.0;"/><path d="M38.7688,137.9558 Q37.0188,137.9558 35.8781,137.2215 Q34.7531,136.4715 34.1906,135.1277 Q33.6438,133.7683 33.6438,131.9715 Q33.6438,129.9402 34.3,128.4871 Q34.9563,127.034 36.2375,126.2527 Q37.5188,125.4715 39.3938,125.4715 Q40.2844,125.4715 40.9563,125.659 Q41.6281,125.8308 42.3156,126.1746 L41.5031,128.1902 Q40.8781,127.8777 40.3313,127.7527 Q39.8,127.6277 39.3156,127.6277 Q38.1438,127.6277 37.4406,128.159 Q36.7375,128.6902 36.4406,129.6433 Q36.1438,130.5965 36.1438,131.8621 Q36.1438,133.8777 36.8625,134.8465 Q37.5813,135.7996 39.175,135.7996 Q39.7688,135.7996 40.3938,135.6433 Q41.0188,135.4871 41.8469,135.1121 L41.8469,137.3308 Q41.1125,137.6433 40.3156,137.7996 Q39.5344,137.9558 38.7688,137.9558 Z " fill="#000000"/><text fill="#000000" font-family="sans-serif" font-size="14" lengthAdjust="spacing" textLength="98" x="72.7" y="129.6559">RecorderPanel</text><text fill="#000000" font-family="sans-serif" font-size="10" lengthAdjust="spacing" textLength="130" x="56.7" y="144.4479">nz.ac.wgtn.swen225.lc.app</text><line style="stroke:#A80036;stroke-width:1.5;" x1="10" x2="204" y1="152.3779" y2="152.3779"/><ellipse cx="20" cy="163.3779" rx="3" ry="3" style="stroke:#038048;stroke-width:1.0;fill:none;"/><text fill="#000000" font-family="sans-serif" font-size="11" lengthAdjust="spacing" text-decoration="underline" textLength="128" x="29" y="168.1368">moves: ArrayList&lt;Move&gt;</text><ellipse cx="20" cy="178.3598" rx="3" ry="3" style="stroke:#038048;stroke-width:1.0;fill:none;"/><text fill="#000000" font-family="sans-serif" font-size="11" lengthAdjust="spacing" text-decoration="underline" textLength="101" x="29" y="183.1187">recording: boolean</text><ellipse cx="20" cy="193.3417" rx="3" ry="3" style="stroke:#038048;stroke-width:1.0;fill:none;"/><text fill="#000000" font-family="sans-serif" font-size="11" lengthAdjust="spacing" text-decoration="underline" textLength="43" x="29" y="198.1006">time: int</text><ellipse cx="20" cy="208.3236" rx="3" ry="3" style="stroke:#038048;stroke-width:1.0;fill:none;"/><text fill="#000000" font-family="sans-serif" font-size="11" lengthAdjust="spacing" text-decoration="underline" textLength="50" x="29" y="213.0825">count: int</text><ellipse cx="20" cy="223.3055" rx="3" ry="3" style="stroke:#038048;stroke-width:1.0;fill:none;"/><text fill="#000000" font-family="sans-serif" font-size="11" lengthAdjust="spacing" text-decoration="underline" textLength="47" x="29" y="228.0644">app: App</text><line style="stroke:#A80036;stroke-width:1.5;" x1="10" x2="204" y1="235.2873" y2="235.2873"/><ellipse cx="20" cy="246.2873" fill="#84BE84" rx="3" ry="3" style="stroke:#038048;stroke-width:1.0;"/><text fill="#000000" font-family="sans-serif" font-size="11" lengthAdjust="spacing" textLength="104" x="29" y="251.0463">RecorderPanel(App)</text><ellipse cx="20" cy="261.2692" fill="#84BE84" rx="3" ry="3" style="stroke:#038048;stroke-width:1.0;"/><text fill="#000000" font-family="sans-serif" font-size="11" lengthAdjust="spacing" textLength="113" x="29" y="266.0281">startRecording(): void</text><ellipse cx="20" cy="276.2511" fill="#84BE84" rx="3" ry="3" style="stroke:#038048;stroke-width:1.0;"/><text fill="#000000" font-family="sans-serif" font-size="11" lengthAdjust="spacing" textLength="112" x="29" y="281.01">stopRecording(): void</text><ellipse cx="20" cy="291.233" fill="#84BE84" rx="3" ry="3" style="stroke:#038048;stroke-width:1.0;"/><text fill="#000000" font-family="sans-serif" font-size="11" lengthAdjust="spacing" textLength="117" x="29" y="295.9919">saveEndingInfo(): void</text><polygon fill="#FFFF44" points="20,301.2149,24,305.2149,20,309.2149,16,305.2149" style="stroke:#B38D22;stroke-width:1.0;"/><text fill="#000000" font-family="sans-serif" font-size="11" lengthAdjust="spacing" textLength="170" x="29" y="310.9738">paintComponent(Graphics): void</text><ellipse cx="20" cy="321.1968" fill="#84BE84" rx="3" ry="3" style="stroke:#038048;stroke-width:1.0;"/><text fill="#000000" font-family="sans-serif" font-size="11" lengthAdjust="spacing" textLength="93" x="29" y="325.9557">getFileCount(): int</text><ellipse cx="20" cy="336.1787" fill="#84BE84" rx="3" ry="3" style="stroke:#038048;stroke-width:1.0;"/><text fill="#000000" font-family="sans-serif" font-size="11" lengthAdjust="spacing" textLength="169" x="29" y="340.9376">getMovesList(): ArrayList&lt;Move&gt;</text></a><!--MD5=[56a185cb33bdc7c23303e5865f20a19b]
class javax.swing.JPanel--><rect codeLine="20" fill="#FEFECE" filter="url(#f1makruh0576j7)" height="42.6879" id="javax.swing.JPanel" style="stroke:#A80036;stroke-width:1.5;" width="88" x="63" y="7"/><ellipse cx="78" cy="28.344" fill="#ADD1B2" rx="11" ry="11" style="stroke:#A80036;stroke-width:1.0;"/><path d="M77.4688,35.2658 Q75.7188,35.2658 74.5781,34.5315 Q73.4531,33.7815 72.8906,32.4377 Q72.3438,31.0783 72.3438,29.2815 Q72.3438,27.2502 73,25.7971 Q73.6563,24.344 74.9375,23.5627 Q76.2188,22.7815 78.0938,22.7815 Q78.9844,22.7815 79.6563,22.969 Q80.3281,23.1408 81.0156,23.4846 L80.2031,25.5002 Q79.5781,25.1877 79.0313,25.0627 Q78.5,24.9377 78.0156,24.9377 Q76.8438,24.9377 76.1406,25.469 Q75.4375,26.0002 75.1406,26.9533 Q74.8438,27.9065 74.8438,29.1721 Q74.8438,31.1877 75.5625,32.1565 Q76.2813,33.1096 77.875,33.1096 Q78.4688,33.1096 79.0938,32.9533 Q79.7188,32.7971 80.5469,32.4221 L80.5469,34.6408 Q79.8125,34.9533 79.0156,35.1096 Q78.2344,35.2658 77.4688,35.2658 Z " fill="#000000"/><text fill="#000000" font-family="sans-serif" font-size="14" lengthAdjust="spacing" textLength="41" x="99.5" y="26.9659">JPanel</text><text fill="#000000" font-family="sans-serif" font-size="10" lengthAdjust="spacing" textLength="56" x="92" y="41.7579">javax.swing</text><!--MD5=[89794c46b6e0bc488d743c184975ef1c]
reverse link javax.swing.JPanel to nz.ac.wgtn.swen225.lc.app.RecorderPanel--><path codeLine="22" d="M107,70.58 C107,82.27 107,95.63 107,109.5 " fill="none" id="javax.swing.JPanel-backto-nz.ac.wgtn.swen225.lc.app.RecorderPanel" style="stroke:#A80036;stroke-width:1.0;"/><polygon fill="none" points="100,70.85,107,50.85,114,70.85,100,70.85" style="stroke:#A80036;stroke-width:1.0;"/><text fill="#888888" font-family="sans-serif" font-size="10" lengthAdjust="spacing" textLength="182" x="12" y="371.8505">UMLDoclet 2.0.14, PlantUML 1.2021.9</text><!--MD5=[38bbb103342aae01227eff1f68163620]
@startuml
    set namespaceSeparator none
    hide empty fields
    hide empty methods

    class "<size:14>RecorderPanel\n<size:10>nz.ac.wgtn.swen225.lc.app" as nz.ac.wgtn.swen225.lc.app.RecorderPanel [[RecorderPanel.html]] {
        {static} +moves: ArrayList<Move>
        {static} +recording: boolean
        {static} +time: int
        {static} +count: int
        {static} +app: App
        +RecorderPanel(App)
        +startRecording(): void
        +stopRecording(): void
        +saveEndingInfo(): void
        #paintComponent(Graphics): void
        +getFileCount(): int
        +getMovesList(): ArrayList<Move>
    }

    class "<size:14>JPanel\n<size:10>javax.swing" as javax.swing.JPanel

    javax.swing.JPanel <|- - nz.ac.wgtn.swen225.lc.app.RecorderPanel

    center footer UMLDoclet 2.0.14, PlantUML 1.2021.9
@enduml

PlantUML version 1.2021.9(Sun Jul 25 22:13:56 NZST 2021)
(APACHE source distribution)
Java Runtime: OpenJDK Runtime Environment
JVM: OpenJDK 64-Bit Server VM
Default Encoding: UTF-8
Language: en
Country: NZ
--></g></svg>